<svg 
 xmlns="http://www.w3.org/2000/svg"
 xmlns:xlink="http://www.w3.org/1999/xlink"
 width="18px" height="10px">
<path fill-rule="evenodd"  fill="rgb(255, 228, 0)"
 d="M7.941,9.122 L7.941,7.274 C7.941,7.040 8.028,6.815 8.182,6.649 C8.337,6.483 8.547,6.389 8.765,6.389 C8.984,6.389 9.194,6.483 9.348,6.649 C9.503,6.815 9.590,7.040 9.590,7.274 L9.590,9.115 C9.590,9.604 9.221,10.000 8.765,10.000 C8.312,10.000 7.944,9.607 7.941,9.121 L7.941,9.122 ZM9.888,7.097 C9.712,6.901 9.614,6.640 9.613,6.367 C9.613,6.078 9.723,5.801 9.918,5.602 C10.106,5.409 10.358,5.305 10.617,5.312 C10.877,5.319 11.124,5.437 11.302,5.640 C12.110,6.502 13.244,6.916 14.374,6.761 C15.150,6.593 15.865,6.190 16.435,5.600 C17.528,4.900 18.542,6.468 17.672,7.239 C16.844,8.058 15.819,8.613 14.714,8.841 C14.423,8.896 14.128,8.925 13.833,8.925 C12.350,8.873 10.940,8.219 9.888,7.096 L9.888,7.097 ZM5.234,7.128 C5.007,6.705 5.142,6.165 5.536,5.920 L6.842,5.114 C7.031,4.996 7.256,4.964 7.468,5.025 C7.679,5.086 7.859,5.235 7.968,5.438 C8.078,5.642 8.107,5.883 8.050,6.110 C7.993,6.337 7.855,6.530 7.665,6.648 L6.361,7.454 C6.235,7.532 6.093,7.572 5.949,7.572 C5.653,7.572 5.381,7.402 5.234,7.127 L5.234,7.128 ZM10.730,4.178 C10.621,3.975 10.591,3.733 10.648,3.507 C10.705,3.280 10.843,3.086 11.033,2.969 L12.338,2.162 C12.733,1.919 13.236,2.065 13.463,2.488 C13.690,2.911 13.555,3.452 13.161,3.696 L11.857,4.504 C11.732,4.582 11.589,4.623 11.445,4.622 C11.150,4.622 10.877,4.452 10.730,4.177 L10.730,4.178 ZM0.306,4.209 C0.110,4.010 -0.000,3.733 0.000,3.444 C0.001,3.172 0.100,2.911 0.275,2.715 C1.541,1.349 3.332,0.702 5.109,0.971 C6.215,1.199 7.240,1.754 8.067,2.574 C8.937,3.347 7.923,4.915 6.831,4.212 C6.261,3.622 5.546,3.219 4.770,3.050 C3.640,2.898 2.507,3.311 1.697,4.171 C1.514,4.381 1.257,4.500 0.988,4.500 C0.734,4.502 0.489,4.396 0.306,4.207 L0.306,4.209 ZM8.794,2.735 L8.794,0.885 C8.794,0.396 9.163,0.000 9.619,0.000 C10.074,0.000 10.443,0.396 10.443,0.885 L10.443,2.727 C10.443,2.962 10.356,3.187 10.202,3.353 C10.047,3.519 9.837,3.612 9.619,3.612 C9.400,3.613 9.190,3.519 9.035,3.353 C8.880,3.187 8.793,2.962 8.793,2.727 L8.794,2.735 Z"/>
</svg>
