<svg 
 xmlns="http://www.w3.org/2000/svg"
 xmlns:xlink="http://www.w3.org/1999/xlink"
 width="23.5px" height="23.5px">
<path fill-rule="evenodd"  stroke="rgb(51, 51, 51)" stroke-width="1px" stroke-linecap="butt" stroke-linejoin="miter" fill="none"
 d="M19.500,22.500 L3.500,22.500 C1.843,22.500 0.500,21.157 0.500,19.500 L0.500,3.500 C0.500,1.843 1.843,0.500 3.500,0.500 L19.500,0.500 C21.157,0.500 22.500,1.843 22.500,3.500 L22.500,19.500 C22.500,21.157 21.157,22.500 19.500,22.500 ZM21.500,3.500 C21.500,2.395 20.604,1.500 19.500,1.500 L3.500,1.500 C2.395,1.500 1.500,2.395 1.500,3.500 L1.500,19.500 C1.500,20.604 2.395,21.500 3.500,21.500 L19.500,21.500 C20.604,21.500 21.500,20.604 21.500,19.500 L21.500,3.500 Z"/>
<path fill-rule="evenodd"  stroke="rgb(51, 51, 51)" stroke-width="1px" stroke-linecap="butt" stroke-linejoin="miter" fill="none"
 d="M21.500,7.500 C21.500,7.500 18.806,1.503 11.500,1.500 C4.194,1.497 1.548,7.836 1.500,11.500 C1.452,15.164 5.707,20.526 10.500,20.500 C15.293,20.474 17.487,15.625 17.500,12.500 C17.513,9.375 14.584,6.499 11.500,6.500 C8.416,6.501 5.500,9.229 5.500,11.500 C5.499,13.771 6.665,16.500 10.500,16.500 C13.769,16.500 14.447,13.492 14.500,12.500 C14.553,11.508 13.626,9.538 11.500,9.500 C9.373,9.462 8.500,10.968 8.500,12.500 C8.500,14.032 11.537,14.885 11.500,12.500 "/>
</svg>
