<svg 
 xmlns="http://www.w3.org/2000/svg"
 xmlns:xlink="http://www.w3.org/1999/xlink"
 width="22px" height="23px">
<path fill-rule="evenodd"  fill="rgb(255, 255, 255)"
 d="M19.000,23.000 L3.000,23.000 C1.343,23.000 -0.000,21.657 -0.000,20.000 L-0.000,4.000 C-0.000,2.343 1.343,1.000 3.000,1.000 L19.000,1.000 C20.656,1.000 22.000,2.343 22.000,4.000 L22.000,20.000 C22.000,21.657 20.656,23.000 19.000,23.000 ZM21.000,4.000 C21.000,2.895 20.104,2.000 19.000,2.000 L3.000,2.000 C1.895,2.000 1.000,2.895 1.000,4.000 L1.000,20.000 C1.000,21.104 1.895,22.000 3.000,22.000 L19.000,22.000 C20.104,22.000 21.000,21.104 21.000,20.000 L21.000,4.000 Z"/>
<path fill-rule="evenodd"  fill="rgb(255, 255, 255)"
 d="M15.368,2.575 L16.075,1.868 L21.631,7.424 L20.924,8.132 L15.368,2.575 ZM20.924,15.132 L7.368,1.575 L8.075,0.868 L21.631,14.424 L20.924,15.132 ZM19.924,21.132 L1.368,2.575 L2.075,1.868 L20.631,20.424 L19.924,21.132 ZM13.924,22.132 L0.368,8.575 L1.075,7.868 L14.631,21.424 L13.924,22.132 ZM7.631,21.424 L6.924,22.132 L0.368,15.575 L1.075,14.868 L7.631,21.424 Z"/>
<path fill-rule="evenodd"  fill="rgb(255, 255, 255)"
 d="M1.000,3.000 L2.000,3.000 L2.000,9.000 L1.000,9.000 L1.000,3.000 Z"/>
<path fill-rule="evenodd"  fill="rgb(255, 255, 255)"
 d="M20.000,15.000 L21.000,15.000 L21.000,21.000 L20.000,21.000 L20.000,15.000 Z"/>
<path fill-rule="evenodd"  fill="rgb(255, 255, 255)"
 d="M20.000,3.000 L21.000,3.000 L21.000,7.000 L20.000,7.000 L20.000,3.000 Z"/>
<path fill-rule="evenodd"  fill="rgb(255, 255, 255)"
 d="M1.000,17.000 L2.000,17.000 L2.000,21.000 L1.000,21.000 L1.000,17.000 Z"/>
<path fill-rule="evenodd"  fill="rgb(255, 255, 255)"
 d="M9.000,2.000 L15.000,2.000 L15.000,3.000 L9.000,3.000 L9.000,2.000 Z"/>
<path fill-rule="evenodd"  fill="rgb(255, 255, 255)"
 d="M7.000,21.000 L13.000,21.000 L13.000,22.000 L7.000,22.000 L7.000,21.000 Z"/>
</svg>
