<svg 
 xmlns="http://www.w3.org/2000/svg"
 xmlns:xlink="http://www.w3.org/1999/xlink"
 width="14px" height="12px">
<path fill-rule="evenodd"  fill="rgb(255, 108, 0)"
 d="M7.765,0.016 C5.029,0.036 2.617,1.759 1.799,4.279 L0.197,4.279 C0.117,4.279 0.044,4.323 0.010,4.391 C-0.026,4.460 -0.020,4.543 0.028,4.604 L2.310,7.543 C2.352,7.595 2.412,7.624 2.479,7.624 C2.544,7.624 2.608,7.595 2.645,7.543 L4.938,4.604 C4.985,4.543 4.991,4.460 4.956,4.391 C4.921,4.323 4.847,4.279 4.769,4.279 L3.277,4.279 C4.148,2.217 6.404,1.034 8.673,1.455 C10.937,1.876 12.580,3.782 12.595,6.009 C12.573,7.759 11.539,9.349 9.918,10.131 C8.295,10.914 6.357,10.757 4.894,9.726 C4.694,9.581 4.429,9.550 4.199,9.644 C3.968,9.739 3.810,9.946 3.779,10.186 C3.750,10.425 3.853,10.662 4.054,10.807 C6.219,12.365 9.180,12.394 11.378,10.882 C13.576,9.368 14.513,6.659 13.693,4.175 C12.872,1.691 10.486,0.002 7.785,-0.004 L7.765,0.016 Z"/>
</svg>
