<svg 
 xmlns="http://www.w3.org/2000/svg"
 xmlns:xlink="http://www.w3.org/1999/xlink"
 width="14px" height="12px">
<path fill-rule="evenodd"  fill="rgb(255, 210, 0)"
 d="M7.764,0.016 C5.029,0.037 2.617,1.759 1.799,4.280 L0.197,4.280 C0.116,4.280 0.044,4.323 0.010,4.392 C-0.027,4.461 -0.020,4.543 0.028,4.604 L2.309,7.543 C2.351,7.595 2.412,7.624 2.479,7.624 C2.544,7.624 2.607,7.595 2.645,7.543 L4.937,4.604 C4.984,4.543 4.991,4.461 4.956,4.392 C4.922,4.323 4.847,4.280 4.768,4.280 L3.277,4.280 C4.148,2.217 6.404,1.034 8.672,1.456 C10.937,1.876 12.581,3.782 12.595,6.009 C12.572,7.759 11.539,9.349 9.918,10.131 C8.296,10.914 6.357,10.757 4.894,9.726 C4.693,9.581 4.429,9.550 4.199,9.645 C3.968,9.740 3.810,9.946 3.779,10.186 C3.750,10.425 3.853,10.662 4.054,10.807 C6.219,12.365 9.180,12.394 11.377,10.882 C13.577,9.368 14.513,6.659 13.693,4.175 C12.872,1.692 10.486,0.002 7.785,-0.004 L7.764,0.016 Z"/>
</svg>
