<svg 
 xmlns="http://www.w3.org/2000/svg"
 xmlns:xlink="http://www.w3.org/1999/xlink"
 width="22px" height="22px">
<path fill-rule="evenodd"  fill="rgb(51, 51, 51)"
 d="M19.000,22.000 L3.000,22.000 C1.343,22.000 -0.000,20.657 -0.000,19.000 L-0.000,3.000 C-0.000,1.343 1.343,-0.000 3.000,-0.000 L19.000,-0.000 C20.657,-0.000 22.000,1.343 22.000,3.000 L22.000,19.000 C22.000,20.657 20.657,22.000 19.000,22.000 ZM21.000,3.000 C21.000,1.895 20.104,1.000 19.000,1.000 L3.000,1.000 C1.895,1.000 1.000,1.895 1.000,3.000 L1.000,19.000 C1.000,20.105 1.895,21.000 3.000,21.000 L19.000,21.000 C20.104,21.000 21.000,20.105 21.000,19.000 L21.000,3.000 Z"/>
<path fill-rule="evenodd"  fill="rgb(51, 51, 51)"
 d="M16.515,11.462 L16.524,11.465 L18.003,16.971 L13.973,21.005 L8.465,19.532 L7.191,14.787 L6.973,15.005 L1.465,13.532 L-0.013,8.026 L4.016,3.992 L9.072,5.344 L8.987,5.026 L13.016,0.992 L18.524,2.465 L20.002,7.971 L16.515,11.462 ZM9.199,18.799 L13.705,20.004 L17.002,16.704 L15.792,12.198 L11.286,10.993 L7.989,14.294 L9.199,18.799 ZM8.793,6.198 L4.286,4.993 L0.989,8.294 L2.199,12.799 L6.705,14.004 L10.002,10.704 L8.793,6.198 ZM17.792,3.198 L13.286,1.993 L9.989,5.294 L11.199,9.799 L15.705,11.004 L19.002,7.704 L17.792,3.198 Z"/>
<path fill-rule="evenodd"  fill="rgb(51, 51, 51)"
 d="M18.000,17.000 L18.000,16.000 L21.000,16.000 L21.000,17.000 L18.000,17.000 ZM20.000,7.000 L21.000,7.000 L21.000,8.000 L20.000,8.000 L20.000,7.000 ZM18.000,1.000 L19.000,1.000 L19.000,2.000 L18.000,2.000 L18.000,1.000 ZM7.000,20.000 L9.000,20.000 L9.000,21.000 L7.000,21.000 L7.000,20.000 ZM1.701,1.017 L2.583,0.545 L4.473,4.070 L3.591,4.543 L1.701,1.017 ZM2.000,15.000 L1.000,15.000 L1.000,14.000 L2.000,14.000 L2.000,15.000 Z"/>
</svg>
