<svg 
 xmlns="http://www.w3.org/2000/svg"
 xmlns:xlink="http://www.w3.org/1999/xlink"
 width="22px" height="22px">
<path fill-rule="evenodd"  fill="rgb(51, 51, 51)"
 d="M21.000,11.000 L21.000,11.580 L21.014,11.591 L21.000,11.607 L21.000,12.000 L20.622,12.000 L17.741,14.998 L16.985,14.408 L19.214,12.088 L19.137,12.000 L19.000,12.000 L19.000,11.841 L16.485,8.937 L17.043,8.454 L16.985,8.408 L19.214,6.088 L19.137,6.000 L19.000,6.000 L19.000,5.841 L16.485,2.937 L17.241,2.283 L19.594,5.000 L21.000,5.000 L21.000,5.580 L21.014,5.591 L21.000,5.607 L21.000,6.000 L20.622,6.000 L17.804,8.933 L19.594,11.000 L21.000,11.000 ZM17.000,6.000 L13.622,6.000 L10.741,8.998 L9.985,8.408 L12.214,6.088 L12.137,6.000 L12.000,6.000 L12.000,5.841 L9.485,2.937 L10.241,2.283 L12.594,5.000 L17.000,5.000 L17.000,6.000 ZM4.985,19.408 L8.258,16.001 L9.015,16.591 L5.741,19.998 L4.985,19.408 ZM2.741,13.998 L1.985,13.408 L4.214,11.088 L4.137,11.000 L4.000,11.000 L4.000,10.841 L1.485,7.937 L2.241,7.283 L4.594,10.000 L9.000,10.000 L9.000,11.000 L5.622,11.000 L2.741,13.998 ZM5.000,5.000 L4.000,5.000 L4.000,3.000 L4.000,2.000 L4.000,-0.000 L5.000,-0.000 L5.000,2.000 L9.000,2.000 L9.000,3.000 L5.000,3.000 L5.000,5.000 ZM13.000,16.000 L13.000,15.841 L10.485,12.937 L11.241,12.283 L13.594,15.000 L18.000,15.000 L18.000,16.000 L14.622,16.000 L11.741,18.998 L10.985,18.408 L13.214,16.088 L13.138,16.000 L13.000,16.000 ZM21.014,16.591 L17.741,19.998 L16.985,19.408 L20.259,16.001 L21.014,16.591 Z"/>
<path fill-rule="evenodd"  fill="rgb(51, 51, 51)"
 d="M19.000,22.000 L18.000,22.000 L17.000,22.000 L10.000,22.000 L9.000,22.000 L3.000,22.000 C1.662,22.000 0.542,21.118 0.155,19.908 L-0.000,20.000 L-0.000,19.000 L-0.000,14.000 L-0.000,13.000 L-0.000,10.000 L-0.000,9.000 L-0.000,3.000 L-0.000,2.000 L0.155,2.092 C0.542,0.882 1.662,-0.000 3.000,-0.000 L9.000,-0.000 L10.000,-0.000 L17.000,-0.000 L18.000,-0.000 L19.000,-0.000 C20.657,-0.000 22.000,1.343 22.000,3.000 L22.000,5.000 L22.000,6.000 L22.000,7.000 L22.000,15.000 L22.000,16.000 L22.000,17.000 L22.000,19.000 C22.000,20.657 20.657,22.000 19.000,22.000 ZM1.000,18.409 L4.301,16.458 L1.000,14.571 L1.000,18.409 ZM1.000,8.357 L4.863,5.874 L1.000,3.591 L1.000,8.357 ZM9.000,1.000 L3.000,1.000 C2.027,1.000 1.219,1.694 1.039,2.614 L5.674,5.353 L9.000,3.214 L9.000,1.000 ZM9.000,4.214 L6.484,5.831 L9.000,7.318 L9.000,4.214 ZM9.000,8.318 L5.674,6.353 L1.000,9.357 L1.000,13.571 L5.162,15.950 L9.000,13.682 L9.000,8.318 ZM9.000,14.682 L6.022,16.441 L9.000,18.143 L9.000,14.682 ZM9.000,19.143 L5.162,16.950 L1.039,19.386 C1.219,20.306 2.027,21.000 3.000,21.000 L9.000,21.000 L9.000,19.143 ZM18.000,21.000 L19.000,21.000 C20.104,21.000 21.000,20.104 21.000,19.000 L21.000,17.625 L18.000,19.500 L18.000,21.000 ZM18.000,18.500 L21.000,16.625 L21.000,15.409 L18.000,13.636 L18.000,18.500 ZM18.000,12.636 L21.000,14.409 L21.000,7.591 L18.000,9.363 L18.000,12.636 ZM17.000,9.954 L15.231,11.000 L17.000,12.045 L17.000,9.954 ZM17.000,21.000 L17.000,20.125 L15.600,21.000 L17.000,21.000 ZM10.000,21.000 L12.250,21.000 L10.000,19.714 L10.000,21.000 ZM10.000,18.714 L14.000,21.000 L17.000,19.125 L17.000,13.045 L14.384,11.500 L10.000,14.091 L10.000,18.714 ZM10.000,13.091 L13.538,11.000 L10.000,8.909 L10.000,13.091 ZM10.000,1.000 L10.000,2.571 L12.444,1.000 L10.000,1.000 ZM14.000,1.000 L10.000,3.571 L10.000,7.909 L14.384,10.500 L17.000,8.954 L17.000,2.429 L14.999,1.000 L14.000,1.000 ZM16.399,1.000 L17.000,1.429 L17.000,1.000 L16.399,1.000 ZM21.000,3.000 C21.000,1.895 20.104,1.000 19.000,1.000 L18.000,1.000 L18.000,2.143 L21.000,4.286 L21.000,3.000 ZM18.000,3.143 L18.000,8.363 L21.000,6.591 L21.000,5.286 L18.000,3.143 Z"/>
</svg>
