<svg 
 xmlns="http://www.w3.org/2000/svg"
 xmlns:xlink="http://www.w3.org/1999/xlink"
 width="22px" height="24px">
<path fill-rule="evenodd"  fill="rgb(255, 255, 255)"
 d="M19.000,23.000 L3.000,23.000 C1.343,23.000 -0.000,21.657 -0.000,20.000 L-0.000,4.000 C-0.000,2.343 1.343,1.000 3.000,1.000 L19.000,1.000 C20.656,1.000 22.000,2.343 22.000,4.000 L22.000,20.000 C22.000,21.657 20.656,23.000 19.000,23.000 ZM21.000,4.000 C21.000,2.895 20.104,2.000 19.000,2.000 L3.000,2.000 C1.895,2.000 1.000,2.895 1.000,4.000 L1.000,20.000 C1.000,21.104 1.895,22.000 3.000,22.000 L19.000,22.000 C20.104,22.000 21.000,21.104 21.000,20.000 L21.000,4.000 Z"/>
<path fill-rule="evenodd"  fill="rgb(255, 255, 255)"
 d="M8.368,1.575 L9.075,0.868 L21.631,13.425 L20.924,14.132 L8.368,1.575 ZM16.368,1.575 L17.075,0.868 L21.631,5.424 L20.924,6.132 L16.368,1.575 ZM20.924,22.132 L1.368,2.575 L2.075,1.868 L21.631,21.425 L20.924,22.132 ZM13.924,23.132 L0.368,9.575 L1.075,8.868 L14.631,22.425 L13.924,23.132 ZM6.631,22.425 L5.924,23.132 L0.368,17.575 L1.075,16.868 L6.631,22.425 Z"/>
</svg>
