<svg 
 xmlns="http://www.w3.org/2000/svg"
 xmlns:xlink="http://www.w3.org/1999/xlink"
 width="22px" height="22px">
<path fill-rule="evenodd"  fill="rgb(51, 51, 51)"
 d="M3.000,-0.000 L19.000,-0.000 C20.657,-0.000 22.000,1.343 22.000,3.000 L22.000,19.000 C22.000,20.657 20.657,22.000 19.000,22.000 L3.000,22.000 C1.343,22.000 -0.000,20.657 -0.000,19.000 L-0.000,3.000 C-0.000,1.343 1.343,-0.000 3.000,-0.000 Z"/>
<path fill-rule="evenodd"  fill="rgb(255, 255, 255)"
 d="M-0.000,12.760 L1.540,12.760 L1.540,14.960 L3.300,16.720 L5.280,14.960 L5.280,12.760 L7.480,12.760 L9.240,11.000 L7.480,9.240 L5.280,9.240 L5.280,7.040 L3.300,5.280 L1.540,6.820 L1.540,9.240 L-0.000,9.240 L-0.000,12.760 Z"/>
<path fill-rule="evenodd"  fill="rgb(255, 255, 255)"
 d="M22.000,12.760 L20.460,12.760 L20.460,14.960 L18.700,16.720 L16.720,14.960 L16.720,12.760 L14.520,12.760 L12.760,11.000 L14.520,9.240 L16.720,9.240 L16.720,7.040 L18.700,5.280 L20.460,6.820 L20.460,9.240 L22.000,9.240 L22.000,12.760 Z"/>
<path fill-rule="evenodd"  fill="rgb(255, 255, 255)"
 d="M12.760,-0.000 L12.760,1.540 L14.960,1.540 L16.720,3.300 L14.960,5.280 L12.760,5.280 L12.760,7.480 L11.000,9.240 L9.240,7.480 L9.240,5.280 L7.040,5.280 L5.280,3.300 L6.820,1.540 L9.240,1.540 L9.240,-0.000 L12.760,-0.000 Z"/>
<path fill-rule="evenodd"  fill="rgb(255, 255, 255)"
 d="M12.760,22.000 L12.760,20.460 L14.960,20.460 L16.720,18.700 L14.960,16.720 L12.760,16.720 L12.760,14.520 L11.000,12.760 L9.240,14.520 L9.240,16.720 L7.040,16.720 L5.280,18.700 L6.820,20.460 L9.240,20.460 L9.240,22.000 L12.760,22.000 Z"/>
<path fill-rule="evenodd"  fill="rgb(255, 255, 255)"
 d="M-0.000,1.980 L1.540,3.300 L-0.000,4.840 L-0.000,1.980 Z"/>
<path fill-rule="evenodd"  fill="rgb(255, 255, 255)"
 d="M-0.000,17.160 L1.760,18.700 L0.220,20.020 L0.220,20.900 L0.880,21.780 L1.980,21.780 L3.300,20.240 L5.060,22.000 L0.880,22.000 L-0.000,20.900 L-0.000,17.160 Z"/>
<path fill-rule="evenodd"  fill="rgb(255, 255, 255)"
 d="M22.000,16.940 L20.240,18.700 L21.780,20.020 L21.780,20.900 L20.900,21.780 L21.340,21.780 L22.000,20.900 L22.000,16.940 Z"/>
<path fill-rule="evenodd"  fill="rgb(255, 255, 255)"
 d="M22.000,1.760 L20.240,3.300 L22.000,4.840 L22.000,1.760 Z"/>
</svg>
