<svg 
 xmlns="http://www.w3.org/2000/svg"
 xmlns:xlink="http://www.w3.org/1999/xlink"
 width="23.5px" height="23.5px">
<path fill-rule="evenodd"  stroke="rgb(51, 51, 51)" stroke-width="1px" stroke-linecap="butt" stroke-linejoin="miter" fill="none"
 d="M3.500,0.500 L19.500,0.500 C21.157,0.500 22.500,1.843 22.500,3.500 L22.500,19.500 C22.500,21.157 21.157,22.500 19.500,22.500 L3.500,22.500 C1.843,22.500 0.500,21.157 0.500,19.500 L0.500,3.500 C0.500,1.843 1.843,0.500 3.500,0.500 Z"/>
<path fill-rule="evenodd"  stroke="rgb(51, 51, 51)" stroke-width="1px" stroke-linecap="butt" stroke-linejoin="miter" fill="none"
 d="M2.500,14.500 L7.500,21.500 "/>
<path fill-rule="evenodd"  stroke="rgb(51, 51, 51)" stroke-width="1px" stroke-linecap="butt" stroke-linejoin="miter" fill="none"
 d="M1.500,10.500 L12.500,21.500 "/>
<path fill-rule="evenodd"  stroke="rgb(51, 51, 51)" stroke-width="1px" stroke-linecap="butt" stroke-linejoin="miter" fill="none"
 d="M1.500,2.500 L15.499,21.500 "/>
<path fill-rule="evenodd"  stroke="rgb(51, 51, 51)" stroke-width="1px" stroke-linecap="butt" stroke-linejoin="miter" fill="none"
 d="M3.500,1.500 L22.500,20.500 "/>
<path fill-rule="evenodd"  stroke="rgb(51, 51, 51)" stroke-width="1px" stroke-linecap="butt" stroke-linejoin="miter" fill="none"
 d="M9.500,1.500 L21.500,16.500 "/>
<path fill-rule="evenodd"  stroke="rgb(51, 51, 51)" stroke-width="1px" stroke-linecap="butt" stroke-linejoin="miter" fill="none"
 d="M15.499,1.500 L21.500,8.500 "/>
<path fill-rule="evenodd"  stroke="rgb(51, 51, 51)" stroke-width="1px" stroke-linecap="butt" stroke-linejoin="miter" fill="none"
 d="M1.500,6.500 L8.500,1.500 "/>
<path fill-rule="evenodd"  stroke="rgb(51, 51, 51)" stroke-width="1px" stroke-linecap="butt" stroke-linejoin="miter" fill="none"
 d="M1.500,11.500 L12.500,1.500 "/>
<path fill-rule="evenodd"  stroke="rgb(51, 51, 51)" stroke-width="1px" stroke-linecap="butt" stroke-linejoin="miter" fill="none"
 d="M1.500,15.500 L20.500,1.500 "/>
<path fill-rule="evenodd"  stroke="rgb(51, 51, 51)" stroke-width="1px" stroke-linecap="butt" stroke-linejoin="miter" fill="none"
 d="M3.500,21.500 L21.500,4.500 "/>
<path fill-rule="evenodd"  stroke="rgb(51, 51, 51)" stroke-width="1px" stroke-linecap="butt" stroke-linejoin="miter" fill="none"
 d="M6.500,21.500 L21.500,10.500 "/>
<path fill-rule="evenodd"  stroke="rgb(51, 51, 51)" stroke-width="1px" stroke-linecap="butt" stroke-linejoin="miter" fill="none"
 d="M13.500,21.500 L21.500,15.500 "/>
</svg>
