<svg 
 xmlns="http://www.w3.org/2000/svg"
 xmlns:xlink="http://www.w3.org/1999/xlink"
 width="22px" height="22px">
<path fill-rule="evenodd"  fill="rgb(255, 255, 255)"
 d="M19.000,22.000 L3.000,22.000 C1.343,22.000 -0.000,20.657 -0.000,19.000 L-0.000,3.000 C-0.000,1.343 1.343,-0.000 3.000,-0.000 L19.000,-0.000 C20.656,-0.000 22.000,1.343 22.000,3.000 L22.000,19.000 C22.000,20.657 20.656,22.000 19.000,22.000 ZM21.000,3.000 C21.000,1.895 20.104,1.000 19.000,1.000 L3.000,1.000 C1.895,1.000 1.000,1.895 1.000,3.000 L1.000,19.000 C1.000,20.104 1.895,21.000 3.000,21.000 L19.000,21.000 C20.104,21.000 21.000,20.104 21.000,19.000 L21.000,3.000 Z"/>
<path fill-rule="evenodd"  fill="rgb(255, 255, 255)"
 d="M22.000,12.000 L21.000,12.000 L20.270,11.027 L19.636,12.136 L21.000,12.000 L21.000,13.000 L19.030,13.197 L16.817,17.069 L20.000,21.000 L19.000,21.000 L16.404,17.793 L14.000,22.000 L13.000,22.000 L15.817,17.069 L13.158,13.784 L8.584,14.241 L7.041,16.853 L11.000,22.000 L10.000,22.000 L6.606,17.589 L4.000,22.000 L3.000,22.000 L6.041,16.853 L4.357,14.664 L1.000,15.000 L1.000,14.000 L3.643,13.736 L1.607,11.089 L1.000,12.000 L-0.000,12.000 L1.071,10.393 L-0.000,9.000 L1.000,9.000 L1.536,9.696 L3.414,6.879 L1.000,7.000 L1.000,6.000 L4.103,5.845 L5.290,4.064 L2.000,-0.000 L3.000,-0.000 L5.742,3.387 L8.000,-0.000 L9.000,-0.000 L6.290,4.064 L7.590,5.670 L12.803,5.410 L14.237,2.983 L12.000,-0.000 L13.000,-0.000 L14.678,2.237 L15.999,-0.000 L17.000,-0.000 L15.237,2.983 L16.903,5.205 L21.000,5.000 L21.000,6.000 L17.626,6.169 L20.135,9.513 L21.000,8.000 L22.000,8.000 L20.702,10.270 L22.000,12.000 ZM16.231,16.345 L17.969,13.303 L14.083,13.691 L16.231,16.345 ZM12.409,12.859 L10.671,10.711 L9.212,13.179 L12.409,12.859 ZM6.475,16.118 L7.521,14.348 L5.285,14.571 L6.475,16.118 ZM5.838,4.742 L5.138,5.793 L6.629,5.718 L5.838,4.742 ZM7.407,6.679 L4.448,6.827 L2.071,10.393 L4.571,13.643 L8.149,13.285 L10.092,9.997 L7.407,6.679 ZM8.368,6.631 L10.514,9.283 L12.194,6.440 L8.368,6.631 ZM14.796,3.729 L13.834,5.358 L15.939,5.253 L14.796,3.729 ZM16.662,6.217 L13.225,6.389 L11.092,9.997 L13.335,12.766 L18.575,12.242 L19.702,10.270 L16.662,6.217 Z"/>
</svg>
