<svg 
 xmlns="http://www.w3.org/2000/svg"
 xmlns:xlink="http://www.w3.org/1999/xlink"
 width="23.5px" height="23.5px">
<path fill-rule="evenodd"  stroke="rgb(51, 51, 51)" stroke-width="1px" stroke-linecap="butt" stroke-linejoin="miter" fill="none"
 d="M3.500,0.500 L19.500,0.500 C21.157,0.500 22.500,1.843 22.500,3.500 L22.500,19.500 C22.500,21.157 21.157,22.500 19.500,22.500 L3.500,22.500 C1.843,22.500 0.500,21.157 0.500,19.500 L0.500,3.500 C0.500,1.843 1.843,0.500 3.500,0.500 Z"/>
<path fill-rule="evenodd"  fill="rgb(51, 51, 51)"
 d="M21.922,10.091 L22.504,10.947 L20.878,12.946 L20.587,12.661 L20.295,12.946 C20.295,12.946 20.472,13.223 20.587,13.517 C20.701,13.812 20.295,15.516 20.295,15.516 L19.713,15.516 C19.713,15.516 19.969,16.009 20.005,16.087 C20.039,16.165 19.422,18.657 19.422,18.657 L22.384,19.513 L22.093,20.656 L14.763,18.942 L15.928,20.941 L15.345,21.512 L13.598,18.942 L11.560,20.656 L11.560,21.512 L10.395,21.512 C10.395,21.512 10.378,21.147 10.395,20.941 C10.412,20.736 7.862,20.596 7.483,20.370 C7.104,20.145 6.609,17.229 6.609,17.229 L7.191,17.229 L7.483,16.658 L10.104,16.944 L10.104,18.086 L8.065,17.801 C8.065,17.801 8.158,19.115 8.357,19.513 C8.555,19.912 10.438,20.073 10.686,20.085 C10.935,20.096 11.268,20.370 11.268,20.370 L10.978,20.085 L13.598,17.801 L13.889,18.086 C13.889,18.086 14.108,17.867 14.472,17.801 C14.835,17.734 18.839,18.372 18.839,18.372 L19.131,16.373 L13.307,15.516 L13.307,14.374 L19.422,15.516 L19.422,13.517 L17.092,12.946 L17.092,11.804 L19.713,12.375 C19.713,12.375 18.993,10.465 19.131,9.806 C19.269,9.146 20.295,6.664 20.295,6.664 L21.169,7.236 C21.169,7.236 20.177,9.420 20.005,9.806 C19.832,10.191 20.587,12.090 20.587,12.090 L21.922,10.091 ZM16.630,9.938 L16.048,9.938 L15.757,10.509 L12.554,9.938 L12.845,12.222 L12.262,12.508 L12.262,13.079 L9.351,12.793 L10.224,14.792 L9.642,15.363 L8.477,12.508 L7.895,9.367 L2.653,13.650 L4.109,16.220 L5.856,14.221 L6.439,15.078 L4.692,17.076 L4.400,19.932 L3.235,19.932 L3.526,17.076 L1.488,14.221 L2.071,13.650 L1.488,13.365 L3.818,11.366 L2.071,11.366 L2.071,10.509 L4.982,10.509 L7.603,8.225 L6.439,5.940 L7.312,5.369 L8.477,7.653 L8.186,8.225 C8.186,8.225 8.460,8.436 8.768,8.510 C9.076,8.584 9.351,11.651 9.351,11.651 L11.680,11.937 L11.389,9.652 L11.680,9.652 L11.972,9.081 L15.466,9.367 L16.048,6.512 L18.960,3.942 L19.543,4.798 L16.922,6.797 L16.630,9.938 ZM8.768,7.368 L15.482,1.497 L16.702,1.796 L9.351,8.225 L8.768,7.368 ZM3.939,8.643 L3.065,8.643 L4.220,1.890 L5.521,1.825 L5.394,2.075 L9.763,2.932 L9.763,4.074 L5.103,3.218 L3.939,8.643 Z"/>
</svg>
