<svg 
 xmlns="http://www.w3.org/2000/svg"
 xmlns:xlink="http://www.w3.org/1999/xlink"
 width="22px" height="22px">
<path fill-rule="evenodd"  fill="rgb(255, 255, 255)"
 d="M19.000,22.000 L3.000,22.000 C1.343,22.000 -0.000,20.657 -0.000,19.000 L-0.000,3.000 C-0.000,1.343 1.343,-0.000 3.000,-0.000 L19.000,-0.000 C20.656,-0.000 22.000,1.343 22.000,3.000 L22.000,19.000 C22.000,20.657 20.656,22.000 19.000,22.000 ZM21.000,3.000 C21.000,1.895 20.104,1.000 19.000,1.000 L3.000,1.000 C1.895,1.000 1.000,1.895 1.000,3.000 L1.000,19.000 C1.000,20.104 1.895,21.000 3.000,21.000 L19.000,21.000 C20.104,21.000 21.000,20.104 21.000,19.000 L21.000,3.000 Z"/>
<path fill-rule="evenodd"  fill="rgb(255, 255, 255)"
 d="M22.014,11.310 L21.310,12.015 L18.859,9.564 L17.330,15.679 L21.479,14.685 L21.737,15.648 L17.393,16.689 L21.014,20.310 L20.309,21.015 L16.859,17.564 L15.999,21.000 L14.999,21.000 L15.993,17.024 L9.611,18.553 L9.541,18.836 L12.014,21.310 L11.309,22.015 L9.259,19.964 L9.000,21.000 L8.000,21.000 L8.459,19.164 L8.189,18.894 L2.165,20.338 L2.000,21.000 L1.000,21.000 L1.102,20.593 L0.268,20.793 L0.009,19.830 L1.374,19.503 L2.859,13.564 L2.542,13.247 L0.268,13.793 L0.009,12.830 L1.716,12.421 L-0.015,10.690 L0.690,9.985 L2.853,12.148 L3.236,12.057 L4.839,5.644 L0.268,6.793 L0.009,5.830 L4.097,4.802 L0.985,1.690 L1.690,0.985 L5.141,4.436 L6.000,1.000 L7.000,1.000 L6.180,4.279 L12.089,2.794 L9.985,0.690 L10.690,-0.015 L12.741,2.036 L13.000,1.000 L14.000,1.000 L13.649,2.401 L20.479,0.685 L20.564,1.000 L21.000,1.000 L19.191,8.233 L21.479,7.685 L21.737,8.648 L19.813,9.109 L22.014,11.310 ZM17.855,9.578 L11.746,11.042 L16.340,15.636 L17.855,9.578 ZM15.429,16.135 L11.259,11.964 L9.884,17.464 L15.429,16.135 ZM2.438,19.248 L7.362,18.068 L3.659,14.364 L2.438,19.248 ZM3.941,13.236 L8.500,17.795 L8.820,17.718 L10.409,11.362 L4.027,12.892 L3.941,13.236 ZM5.659,6.364 L4.299,11.802 L9.783,10.488 L5.659,6.364 ZM6.045,5.341 L10.741,10.036 L12.308,3.766 L6.045,5.341 ZM13.259,3.964 L11.745,10.017 L17.850,8.555 L13.259,3.964 ZM18.341,7.636 L19.777,1.889 L14.036,3.332 L18.341,7.636 Z"/>
</svg>
