<svg 
 xmlns="http://www.w3.org/2000/svg"
 xmlns:xlink="http://www.w3.org/1999/xlink"
 width="22px" height="22px">
<path fill-rule="evenodd"  fill="rgb(51, 51, 51)"
 d="M22.014,12.986 L21.962,13.036 L21.962,19.610 C21.962,20.928 20.892,22.000 19.576,22.000 L2.396,22.000 C1.080,22.000 0.010,20.928 0.010,19.610 L0.010,2.407 C0.010,1.089 1.080,0.017 2.396,0.017 L7.408,0.017 L7.427,-0.002 L7.445,0.017 L19.576,0.017 C20.892,0.017 21.962,1.089 21.962,2.407 L21.962,12.932 L22.014,12.986 ZM21.008,19.610 L21.008,15.029 L20.459,14.476 L17.733,17.089 L20.860,20.220 C20.949,20.033 21.008,19.831 21.008,19.610 ZM13.500,14.201 L10.947,11.646 L8.321,14.296 L10.820,16.820 L13.500,14.201 ZM11.492,17.498 L13.651,19.678 L16.368,17.074 L14.174,14.877 L11.492,17.498 ZM7.647,14.975 L5.491,17.150 L7.910,19.663 L10.136,17.488 L7.647,14.975 ZM6.975,14.297 L4.123,11.417 L1.981,13.504 L4.829,16.462 L6.975,14.297 ZM4.136,10.070 L6.790,7.483 L4.518,5.207 L1.883,7.796 L4.136,10.070 ZM4.808,10.749 L7.649,13.617 L10.272,10.970 L7.466,8.159 L4.808,10.749 ZM10.945,10.291 L13.621,7.591 L10.880,4.831 L8.150,7.492 L10.945,10.291 ZM11.620,10.967 L14.183,13.534 L16.893,10.885 L14.294,8.269 L11.620,10.967 ZM17.576,10.218 L19.766,8.078 L17.164,5.373 L14.967,7.591 L17.576,10.218 ZM17.566,11.563 L14.858,14.210 L17.058,16.413 L19.786,13.798 L17.566,11.563 ZM19.576,21.044 C19.796,21.044 19.999,20.985 20.185,20.896 L17.043,17.750 L14.323,20.357 L15.004,21.044 L19.576,21.044 ZM13.633,21.019 L13.607,21.044 L13.658,21.044 L13.633,21.019 ZM9.240,21.044 L12.226,21.044 L12.960,20.340 L10.808,18.167 L8.573,20.351 L9.240,21.044 ZM7.914,21.044 L7.889,21.018 L7.863,21.044 L7.914,21.044 ZM2.396,21.044 L6.497,21.044 L7.227,20.331 L4.819,17.829 L1.782,20.893 C1.970,20.984 2.174,21.044 2.396,21.044 ZM0.964,19.610 C0.964,19.829 1.021,20.030 1.109,20.216 L4.156,17.141 L1.297,14.171 L0.964,14.496 L0.964,19.610 ZM0.964,12.448 L1.319,12.816 L3.451,10.738 L1.201,8.467 L0.964,8.700 L0.964,12.448 ZM0.964,2.407 L0.964,6.868 L1.211,7.118 L3.843,4.531 L1.112,1.797 C1.023,1.983 0.964,2.186 0.964,2.407 ZM7.048,0.973 L2.396,0.973 C2.176,0.973 1.973,1.032 1.787,1.121 L4.524,3.862 L7.253,1.180 L7.048,0.973 ZM5.199,4.538 L7.475,6.816 L10.207,4.153 L7.927,1.857 L5.199,4.538 ZM12.930,0.973 L8.826,0.973 L8.608,1.188 L10.891,3.487 L13.192,1.244 L12.930,0.973 ZM11.564,4.164 L14.294,6.913 L16.502,4.685 L13.854,1.933 L11.564,4.164 ZM19.576,0.973 L14.839,0.973 L14.538,1.266 L17.174,4.006 L20.080,1.075 C19.922,1.015 19.755,0.973 19.576,0.973 ZM21.008,2.407 C21.008,2.147 20.920,1.916 20.799,1.706 L17.837,4.695 L20.449,7.411 L21.008,6.865 L21.008,2.407 ZM20.428,8.766 L18.249,10.896 L20.475,13.138 L21.008,12.627 L21.008,9.369 L20.428,8.766 Z"/>
</svg>
