<svg 
 xmlns="http://www.w3.org/2000/svg"
 xmlns:xlink="http://www.w3.org/1999/xlink"
 width="22px" height="22px">
<path fill-rule="evenodd"  fill="rgb(255, 255, 255)"
 d="M19.000,22.000 L3.000,22.000 C1.343,22.000 -0.000,20.657 -0.000,19.000 L-0.000,3.000 C-0.000,1.343 1.343,-0.000 3.000,-0.000 L19.000,-0.000 C20.656,-0.000 22.000,1.343 22.000,3.000 L22.000,19.000 C22.000,20.657 20.656,22.000 19.000,22.000 ZM21.000,3.000 C21.000,1.895 20.104,1.000 19.000,1.000 L3.000,1.000 C1.895,1.000 1.000,1.895 1.000,3.000 L1.000,19.000 C1.000,20.104 1.895,21.000 3.000,21.000 L19.000,21.000 C20.104,21.000 21.000,20.104 21.000,19.000 L21.000,3.000 Z"/>
<path fill-rule="evenodd"  fill="rgb(255, 255, 255)"
 d="M3.000,3.000 L4.000,3.000 L4.000,19.000 L3.000,19.000 L3.000,3.000 Z"/>
<path fill-rule="evenodd"  fill="rgb(255, 255, 255)"
 d="M6.000,3.000 L7.000,3.000 L7.000,19.000 L6.000,19.000 L6.000,3.000 Z"/>
<path fill-rule="evenodd"  fill="rgb(255, 255, 255)"
 d="M9.000,3.000 L10.000,3.000 L10.000,19.000 L9.000,19.000 L9.000,3.000 Z"/>
<path fill-rule="evenodd"  fill="rgb(255, 255, 255)"
 d="M12.000,3.000 L13.000,3.000 L13.000,19.000 L12.000,19.000 L12.000,3.000 Z"/>
<path fill-rule="evenodd"  fill="rgb(255, 255, 255)"
 d="M15.000,3.000 L16.000,3.000 L16.000,19.000 L15.000,19.000 L15.000,3.000 Z"/>
<path fill-rule="evenodd"  fill="rgb(255, 255, 255)"
 d="M18.000,3.000 L19.000,3.000 L19.000,19.000 L18.000,19.000 L18.000,3.000 Z"/>
<path fill-rule="evenodd"  fill="rgb(255, 255, 255)"
 d="M4.000,3.000 L6.000,3.000 L6.000,4.000 L4.000,4.000 L4.000,3.000 Z"/>
<path fill-rule="evenodd"  fill="rgb(255, 255, 255)"
 d="M10.000,3.000 L12.000,3.000 L12.000,4.000 L10.000,4.000 L10.000,3.000 Z"/>
<path fill-rule="evenodd"  fill="rgb(255, 255, 255)"
 d="M16.000,3.000 L18.000,3.000 L18.000,4.000 L16.000,4.000 L16.000,3.000 Z"/>
<path fill-rule="evenodd"  fill="rgb(255, 255, 255)"
 d="M7.000,18.000 L9.000,18.000 L9.000,19.000 L7.000,19.000 L7.000,18.000 Z"/>
<path fill-rule="evenodd"  fill="rgb(255, 255, 255)"
 d="M13.000,18.000 L15.000,18.000 L15.000,19.000 L13.000,19.000 L13.000,18.000 Z"/>
</svg>
