<svg 
 xmlns="http://www.w3.org/2000/svg"
 xmlns:xlink="http://www.w3.org/1999/xlink"
 width="24.5px" height="23.5px">
<path fill-rule="evenodd"  stroke="rgb(51, 51, 51)" stroke-width="1px" stroke-linecap="butt" stroke-linejoin="miter" fill="none"
 d="M19.500,22.500 L3.500,22.500 C1.843,22.500 0.500,21.157 0.500,19.500 L0.500,3.500 C0.500,1.843 1.843,0.500 3.500,0.500 L19.500,0.500 C21.157,0.500 22.500,1.843 22.500,3.500 L22.500,19.500 C22.500,21.157 21.157,22.500 19.500,22.500 ZM21.500,3.500 C21.500,2.395 20.604,1.500 19.500,1.500 L3.500,1.500 C2.395,1.500 1.500,2.395 1.500,3.500 L1.500,19.500 C1.500,20.604 2.395,21.500 3.500,21.500 L19.500,21.500 C20.604,21.500 21.500,20.604 21.500,19.500 L21.500,3.500 Z"/>
<path fill-rule="evenodd"  stroke="rgb(51, 51, 51)" stroke-width="1px" stroke-linecap="butt" stroke-linejoin="miter" fill="none"
 d="M1.500,3.500 C1.500,3.500 2.462,6.600 5.500,6.500 C7.468,6.435 7.423,4.568 9.500,4.500 C11.755,4.425 11.580,7.060 13.500,6.500 C15.420,5.940 15.487,4.567 17.500,4.500 C19.273,4.441 19.216,6.347 20.500,6.500 C21.784,6.653 21.500,5.500 21.500,5.500 "/>
<path fill-rule="evenodd"  stroke="rgb(51, 51, 51)" stroke-width="1px" stroke-linecap="butt" stroke-linejoin="miter" fill="none"
 d="M1.500,8.500 C1.500,8.500 2.462,11.600 5.500,11.500 C7.468,11.435 7.423,9.568 9.500,9.500 C11.755,9.426 11.580,12.060 13.500,11.500 C15.420,10.940 15.487,9.567 17.500,9.500 C19.273,9.441 19.216,11.347 20.500,11.500 C21.784,11.653 21.500,10.500 21.500,10.500 "/>
<path fill-rule="evenodd"  stroke="rgb(51, 51, 51)" stroke-width="1px" stroke-linecap="butt" stroke-linejoin="miter" fill="none"
 d="M1.500,14.500 C1.500,14.500 2.462,17.600 5.500,17.500 C7.468,17.435 7.423,15.568 9.500,15.500 C11.755,15.426 11.580,18.060 13.500,17.500 C15.420,16.940 15.487,15.567 17.500,15.500 C19.273,15.441 19.216,17.347 20.500,17.500 C21.784,17.653 21.500,16.500 21.500,16.500 "/>
<path fill-rule="evenodd"  stroke="rgb(51, 51, 51)" stroke-width="1px" stroke-linecap="butt" stroke-linejoin="miter" fill="none"
 d="M3.500,21.531 C3.500,21.531 6.580,20.569 6.481,17.531 C6.417,15.562 4.561,15.608 4.493,13.531 C4.420,11.276 7.038,11.451 6.481,9.531 C5.924,7.611 4.560,7.544 4.493,5.531 C4.435,3.757 6.329,3.815 6.481,2.531 C6.633,1.247 5.487,1.531 5.487,1.531 "/>
<path fill-rule="evenodd"  stroke="rgb(51, 51, 51)" stroke-width="1px" stroke-linecap="butt" stroke-linejoin="miter" fill="none"
 d="M9.468,21.531 C9.468,21.531 12.550,20.569 12.450,17.531 C12.386,15.562 10.530,15.608 10.463,13.531 C10.389,11.276 13.007,11.451 12.450,9.531 C11.893,7.611 10.529,7.544 10.463,5.531 C10.404,3.757 12.298,3.815 12.450,2.531 C12.602,1.247 11.456,1.531 11.456,1.531 "/>
<path fill-rule="evenodd"  stroke="rgb(51, 51, 51)" stroke-width="1px" stroke-linecap="butt" stroke-linejoin="miter" fill="none"
 d="M14.431,21.531 C14.431,21.531 17.512,20.569 17.413,17.531 C17.348,15.562 15.493,15.608 15.425,13.531 C15.351,11.276 17.969,11.451 17.413,9.531 C16.856,7.611 15.492,7.544 15.425,5.531 C15.366,3.757 17.261,3.815 17.413,2.531 C17.565,1.247 16.419,1.531 16.419,1.531 "/>
</svg>
