<svg 
 xmlns="http://www.w3.org/2000/svg"
 xmlns:xlink="http://www.w3.org/1999/xlink"
 width="22px" height="22px">
<path fill-rule="evenodd"  fill="rgb(51, 51, 51)"
 d="M20.323,22.000 L1.677,22.000 C0.751,22.000 -0.001,21.248 -0.001,20.323 L-0.001,1.677 C-0.001,0.752 0.751,-0.000 1.677,-0.000 L20.323,-0.000 C21.248,-0.000 22.000,0.752 22.000,1.677 L22.000,20.323 C22.000,21.248 21.248,22.000 20.323,22.000 ZM16.959,5.720 L21.121,9.882 L21.121,1.677 C21.121,1.642 21.105,1.612 21.100,1.578 L16.959,5.720 ZM16.280,6.398 L11.587,11.091 L16.230,15.651 L20.579,11.302 C20.745,11.135 20.745,10.865 20.579,10.698 L16.280,6.398 ZM21.121,20.323 L21.121,12.118 L16.914,16.324 L21.098,20.434 C21.104,20.396 21.121,20.362 21.121,20.323 ZM20.323,21.120 C20.353,21.120 20.379,21.106 20.409,21.103 L16.236,17.003 L12.118,21.120 L20.323,21.120 ZM11.000,20.702 C11.002,20.702 11.002,20.702 11.002,20.702 C11.116,20.702 11.224,20.657 11.304,20.577 L15.551,16.330 L10.909,11.770 L6.417,16.261 L10.699,20.576 C10.779,20.657 10.886,20.701 11.000,20.702 ZM0.879,20.323 C0.879,20.358 0.895,20.388 0.899,20.422 L5.062,16.259 L0.879,12.043 L0.879,20.323 ZM1.419,11.224 L5.741,15.580 L10.224,11.097 L5.559,6.514 L1.421,10.620 C1.254,10.785 1.253,11.056 1.419,11.224 ZM9.887,21.120 L5.738,16.940 L1.578,21.100 C1.612,21.105 1.642,21.120 1.677,21.120 L9.887,21.120 ZM0.879,9.806 L4.874,5.842 L0.879,1.917 L0.879,9.806 ZM1.677,0.879 C1.539,0.879 1.415,0.924 1.301,0.986 L5.555,5.166 L9.875,0.879 L1.677,0.879 ZM10.997,1.293 C10.888,1.293 10.779,1.334 10.697,1.416 L6.240,5.838 L10.903,10.418 L15.601,5.720 L11.299,1.417 C11.215,1.334 11.107,1.293 10.997,1.293 ZM12.118,0.879 L16.280,5.041 L20.421,0.899 C20.388,0.895 20.358,0.879 20.323,0.879 L12.118,0.879 Z"/>
</svg>
