<svg 
 xmlns="http://www.w3.org/2000/svg"
 xmlns:xlink="http://www.w3.org/1999/xlink"
 width="7px" height="5px">
<path fill-rule="evenodd"  fill="rgb(255, 255, 255)"
 d="M6.975,2.696 C6.955,2.760 6.921,2.813 6.870,2.856 L4.871,4.843 C4.770,4.946 4.650,4.998 4.511,4.998 C4.371,4.998 4.251,4.946 4.150,4.843 C4.050,4.744 4.000,4.624 4.000,4.484 C4.000,4.345 4.050,4.225 4.150,4.126 L5.774,2.499 L4.150,0.874 C4.100,0.824 4.063,0.767 4.038,0.704 C4.012,0.641 4.000,0.576 4.000,0.510 C4.000,0.444 4.012,0.381 4.038,0.319 C4.063,0.257 4.100,0.201 4.150,0.152 C4.251,0.048 4.371,-0.003 4.511,-0.003 C4.650,-0.003 4.770,0.048 4.871,0.152 L6.838,2.106 C6.888,2.156 6.927,2.216 6.954,2.285 C6.980,2.354 6.996,2.424 6.999,2.495 C7.003,2.565 6.995,2.633 6.975,2.696 ZM2.870,2.856 L0.871,4.843 C0.770,4.946 0.650,4.998 0.511,4.998 C0.371,4.998 0.251,4.946 0.151,4.843 C0.051,4.744 -0.000,4.624 -0.000,4.484 C-0.000,4.345 0.051,4.225 0.151,4.126 L1.774,2.499 L0.151,0.874 C0.100,0.824 0.063,0.767 0.038,0.704 C0.012,0.641 -0.000,0.576 -0.000,0.510 C-0.000,0.444 0.012,0.381 0.038,0.319 C0.063,0.257 0.100,0.201 0.151,0.152 C0.251,0.048 0.371,-0.003 0.511,-0.003 C0.650,-0.003 0.770,0.048 0.871,0.152 L2.838,2.106 C2.888,2.156 2.927,2.216 2.954,2.285 C2.981,2.354 2.996,2.424 3.000,2.495 C3.003,2.565 2.995,2.633 2.975,2.696 C2.955,2.760 2.920,2.813 2.870,2.856 Z"/>
</svg>
