<svg 
 xmlns="http://www.w3.org/2000/svg"
 xmlns:xlink="http://www.w3.org/1999/xlink"
 width="7px" height="5px">
<path fill-rule="evenodd"  fill="rgb(0, 0, 0)"
 d="M6.976,2.696 C6.956,2.760 6.921,2.813 6.870,2.855 L4.871,4.843 C4.771,4.945 4.651,4.998 4.511,4.998 C4.371,4.998 4.251,4.945 4.150,4.843 C4.050,4.744 4.000,4.624 4.000,4.483 C4.000,4.344 4.050,4.225 4.150,4.125 L5.774,2.499 L4.150,0.873 C4.100,0.824 4.063,0.767 4.038,0.703 C4.013,0.640 4.000,0.575 4.000,0.510 C4.000,0.443 4.013,0.380 4.038,0.318 C4.063,0.257 4.100,0.200 4.150,0.151 C4.251,0.048 4.371,-0.003 4.511,-0.003 C4.651,-0.003 4.771,0.048 4.871,0.151 L6.838,2.106 C6.888,2.156 6.927,2.215 6.954,2.284 C6.981,2.353 6.996,2.423 6.999,2.494 C7.003,2.565 6.995,2.633 6.976,2.696 ZM2.870,2.855 L0.871,4.843 C0.770,4.945 0.651,4.998 0.511,4.998 C0.371,4.998 0.251,4.945 0.151,4.843 C0.051,4.744 0.000,4.624 0.000,4.483 C0.000,4.344 0.051,4.225 0.151,4.125 L1.774,2.499 L0.151,0.873 C0.101,0.824 0.063,0.767 0.037,0.703 C0.013,0.640 0.000,0.575 0.000,0.510 C0.000,0.443 0.013,0.380 0.037,0.318 C0.063,0.257 0.101,0.200 0.151,0.151 C0.251,0.048 0.371,-0.003 0.511,-0.003 C0.651,-0.003 0.770,0.048 0.871,0.151 L2.838,2.106 C2.889,2.156 2.927,2.215 2.954,2.284 C2.981,2.353 2.996,2.423 3.000,2.494 C3.003,2.565 2.995,2.633 2.975,2.696 C2.955,2.760 2.921,2.813 2.870,2.855 Z"/>
</svg>
