<svg 
 xmlns="http://www.w3.org/2000/svg"
 xmlns:xlink="http://www.w3.org/1999/xlink"
 width="24px" height="22px">
<path fill-rule="evenodd"  fill="rgb(65, 242, 135)"
 d="M12.013,12.204 L12.013,14.227 L6.028,18.086 L6.005,18.109 L6.005,18.101 L-0.002,14.299 L-0.002,4.165 L0.015,4.176 L6.011,0.102 L12.013,4.073 L12.015,12.202 L12.013,12.204 Z"/>
<path fill-rule="evenodd"  fill="rgb(45, 223, 116)"
 d="M17.990,18.144 L17.990,18.021 L12.013,4.155 L14.062,5.460 L12.013,4.073 L17.994,-0.001 L23.998,4.173 L23.998,14.282 L17.990,18.144 Z"/>
<path fill-rule="evenodd"  fill="rgb(23, 204, 95)"
 d="M17.990,18.072 L17.990,18.144 L12.013,21.999 L6.005,18.109 L6.005,18.101 L6.005,8.232 L6.005,8.039 L10.078,5.413 L12.013,4.073 L14.062,5.460 L18.021,7.981 L18.021,18.091 L17.990,18.072 Z"/>
<path fill-rule="evenodd"  fill="rgb(16, 194, 87)"
 d="M18.021,18.091 L17.990,18.072 L17.990,18.144 L12.013,21.999 L12.015,14.318 L12.013,14.317 L12.013,14.227 L12.013,4.165 L12.013,4.155 L12.013,4.155 L12.013,4.073 L14.062,5.460 L18.021,7.981 L18.021,18.091 Z"/>
<path fill-rule="evenodd"  fill="rgb(31, 226, 109)"
 d="M12.015,12.202 L6.005,8.232 L12.013,4.073 L18.005,8.129 L12.015,12.202 Z"/>
<path fill-rule="evenodd"  fill="rgb(124, 252, 174)"
 d="M6.005,8.232 L-0.002,4.188 L6.011,0.102 L12.013,4.073 L6.005,8.232 Z"/>
<path fill-rule="evenodd"  fill="rgb(65, 242, 135)"
 d="M18.005,8.129 L12.013,4.073 L17.994,-0.001 L23.998,4.173 L18.005,8.129 Z"/>
</svg>
