<svg 
 xmlns="http://www.w3.org/2000/svg"
 xmlns:xlink="http://www.w3.org/1999/xlink"
 width="24px" height="24px">
<path fill-rule="evenodd"  fill="rgb(23, 204, 95)"
 d="M11.999,-0.001 C5.550,-0.001 0.300,5.099 0.001,11.549 C-0.150,18.149 5.100,23.849 11.699,23.999 L11.999,23.999 C18.599,23.999 23.998,18.599 23.998,11.999 C23.998,5.399 18.599,-0.001 11.999,-0.001 L11.999,-0.001 Z"/>
<path fill-rule="evenodd"  fill="rgb(255, 255, 255)"
 d="M18.838,15.059 L11.459,15.059 C11.099,15.059 10.739,14.879 10.380,14.699 L10.200,14.699 C10.019,14.699 10.200,14.699 10.200,14.519 C10.019,14.159 9.840,13.620 9.840,13.259 L9.840,5.879 C10.019,4.799 10.920,4.259 11.819,4.259 C12.719,4.439 13.259,4.979 13.439,5.879 L13.439,11.459 L18.838,11.459 C19.918,11.459 20.639,12.359 20.459,13.439 C20.459,14.159 19.738,14.879 18.838,15.059 L18.838,15.059 Z"/>
</svg>
