<svg 
 xmlns="http://www.w3.org/2000/svg"
 xmlns:xlink="http://www.w3.org/1999/xlink"
 width="37px" height="23px">
<path fill-rule="evenodd"  fill="rgb(0, 255, 101)"
 d="M10.999,1.000 C10.999,1.000 22.730,10.000 30.067,10.000 C36.694,10.000 34.999,10.000 34.999,10.000 C35.552,10.000 35.999,10.448 35.999,11.000 C35.999,11.552 35.552,12.000 34.999,12.000 C34.999,12.000 36.663,12.000 30.019,12.000 C22.696,12.000 10.999,21.000 10.999,21.000 L10.999,1.000 Z"/>
<path fill-rule="evenodd"  stroke="rgb(0, 255, 101)" stroke-width="2px" stroke-linecap="butt" stroke-linejoin="miter" fill="rgb(75, 75, 77)"
 d="M10.999,1.000 C16.522,1.000 20.999,5.477 20.999,11.000 C20.999,16.523 16.522,21.000 10.999,21.000 C5.477,21.000 0.999,16.523 0.999,11.000 C0.999,5.477 5.477,1.000 10.999,1.000 Z"/>
<path fill-rule="evenodd"  fill="rgb(255, 0, 0)"
 d="M11.834,8.182 L15.487,8.182 C15.945,8.182 16.317,8.553 16.317,9.012 C16.317,9.232 16.230,9.443 16.074,9.599 C15.919,9.754 15.707,9.842 15.487,9.841 L11.834,9.842 L10.174,9.841 L6.521,9.841 C6.062,9.841 5.691,9.470 5.691,9.011 C5.690,8.553 6.062,8.182 6.521,8.182 L10.174,8.182 L11.834,8.182 Z"/>
<path fill-rule="evenodd"  fill="rgb(255, 240, 0)"
 d="M11.834,10.182 L15.487,10.182 C15.945,10.182 16.317,10.553 16.317,11.012 C16.317,11.232 16.230,11.443 16.074,11.599 C15.919,11.754 15.707,11.842 15.487,11.841 L11.834,11.842 L10.174,11.841 L6.521,11.841 C6.062,11.841 5.691,11.470 5.691,11.011 C5.690,10.553 6.062,10.182 6.521,10.182 L10.174,10.182 L11.834,10.182 Z"/>
<path fill-rule="evenodd"  fill="rgb(0, 72, 255)"
 d="M11.834,12.182 L15.487,12.182 C15.945,12.182 16.317,12.553 16.317,13.012 C16.317,13.232 16.230,13.443 16.074,13.599 C15.919,13.754 15.707,13.842 15.487,13.841 L11.834,13.842 L10.174,13.841 L6.521,13.841 C6.062,13.841 5.691,13.470 5.691,13.011 C5.690,12.553 6.062,12.182 6.521,12.182 L10.174,12.182 L11.834,12.182 Z"/>
</svg>
