<svg 
 xmlns="http://www.w3.org/2000/svg"
 xmlns:xlink="http://www.w3.org/1999/xlink"
 width="40px" height="25px">
<path fill-rule="evenodd"  fill="rgb(255, 255, 255)"
 d="M14.999,9.000 L35.999,9.000 C37.656,9.000 38.999,10.343 38.999,12.000 C38.999,13.657 37.656,15.000 35.999,15.000 L14.999,15.000 C13.342,15.000 11.999,13.657 11.999,12.000 C11.999,10.343 13.342,9.000 14.999,9.000 Z"/>
<path fill-rule="evenodd"  fill="rgb(255, 255, 255)"
 d="M10.999,-0.000 C10.999,-0.000 27.239,10.800 37.880,10.800 C38.467,10.800 37.799,10.800 37.799,10.800 C38.462,10.800 38.999,11.337 38.999,12.000 C38.999,12.663 38.462,13.200 37.799,13.200 C37.799,13.200 38.323,13.200 37.822,13.200 C27.249,13.200 10.999,24.000 10.999,24.000 L10.999,-0.000 Z"/>
<path fill-rule="evenodd"  fill="rgb(255, 255, 255)"
 d="M11.999,-0.000 C18.627,-0.000 23.999,5.372 23.999,12.000 C23.999,18.627 18.627,24.000 11.999,24.000 C5.372,24.000 -0.001,18.627 -0.001,12.000 C-0.001,5.372 5.372,-0.000 11.999,-0.000 Z"/>
<path fill-rule="evenodd"  stroke="rgb(255, 255, 255)" stroke-width="2px" stroke-linecap="butt" stroke-linejoin="miter" fill="rgb(75, 75, 77)"
 d="M11.999,2.000 C17.522,2.000 21.999,6.477 21.999,12.000 C21.999,17.523 17.522,22.000 11.999,22.000 C6.477,22.000 1.999,17.523 1.999,12.000 C1.999,6.477 6.477,2.000 11.999,2.000 Z"/>
<path fill-rule="evenodd"  fill="rgb(255, 0, 0)"
 d="M12.834,9.182 L16.487,9.182 C16.945,9.182 17.317,9.553 17.317,10.012 C17.317,10.232 17.230,10.443 17.074,10.599 C16.919,10.754 16.707,10.842 16.487,10.841 L12.834,10.842 L11.174,10.841 L7.521,10.841 C7.062,10.841 6.691,10.470 6.691,10.011 C6.690,9.553 7.062,9.182 7.521,9.182 L11.174,9.182 L12.834,9.182 Z"/>
<path fill-rule="evenodd"  fill="rgb(255, 240, 0)"
 d="M12.834,11.182 L16.487,11.182 C16.945,11.182 17.317,11.553 17.317,12.012 C17.317,12.232 17.230,12.443 17.074,12.599 C16.919,12.754 16.707,12.842 16.487,12.841 L12.834,12.842 L11.174,12.841 L7.521,12.841 C7.062,12.841 6.691,12.470 6.691,12.011 C6.690,11.553 7.062,11.182 7.521,11.182 L11.174,11.182 L12.834,11.182 Z"/>
<path fill-rule="evenodd"  fill="rgb(0, 72, 255)"
 d="M12.834,13.182 L16.487,13.182 C16.945,13.182 17.317,13.553 17.317,14.012 C17.317,14.232 17.230,14.443 17.074,14.599 C16.919,14.754 16.707,14.842 16.487,14.841 L12.834,14.842 L11.174,14.841 L7.521,14.841 C7.062,14.841 6.691,14.470 6.691,14.011 C6.690,13.553 7.062,13.182 7.521,13.182 L11.174,13.182 L12.834,13.182 Z"/>
</svg>
