<svg 
 xmlns="http://www.w3.org/2000/svg"
 xmlns:xlink="http://www.w3.org/1999/xlink"
 width="37px" height="23px">
<path fill-rule="evenodd"  fill="rgb(0, 255, 101)"
 d="M10.999,1.000 C10.999,1.000 22.730,10.000 30.067,10.000 C36.694,10.000 34.999,10.000 34.999,10.000 C35.551,10.000 35.999,10.448 35.999,11.000 C35.999,11.552 35.551,12.000 34.999,12.000 C34.999,12.000 36.663,12.000 30.018,12.000 C22.696,12.000 10.999,21.000 10.999,21.000 L10.999,1.000 Z"/>
<path fill-rule="evenodd"  stroke="rgb(0, 255, 101)" stroke-width="2px" stroke-linecap="butt" stroke-linejoin="miter" fill="rgb(75, 75, 77)"
 d="M10.999,1.000 C16.522,1.000 20.999,5.477 20.999,11.000 C20.999,16.523 16.522,21.000 10.999,21.000 C5.477,21.000 0.999,16.523 0.999,11.000 C0.999,5.477 5.477,1.000 10.999,1.000 Z"/>
<path fill-rule="evenodd"  fill="rgb(0, 255, 101)"
 d="M14.479,14.788 C13.633,15.551 12.479,16.000 11.102,16.000 C9.108,16.000 7.383,14.880 6.543,13.247 C6.198,12.572 6.000,11.809 6.000,11.001 C6.000,10.193 6.198,9.430 6.543,8.754 C7.383,7.120 9.108,6.000 11.102,6.000 C12.477,6.000 13.631,6.496 14.516,7.302 L13.054,8.736 C12.525,8.240 11.851,7.989 11.104,7.989 C9.775,7.989 8.650,8.869 8.247,10.050 C8.146,10.350 8.087,10.670 8.087,11.001 C8.087,11.331 8.146,11.652 8.247,11.952 C8.650,13.133 9.775,14.013 11.102,14.013 C11.789,14.013 12.372,13.835 12.829,13.535 C13.370,13.180 13.729,12.652 13.848,12.025 L11.102,12.025 L11.102,10.091 C11.102,10.091 11.590,10.000 13.000,10.000 C13.612,10.000 15.984,9.915 15.999,11.113 C16.019,12.637 15.443,13.917 14.479,14.788 L14.479,14.788 Z"/>
</svg>
