<svg 
 xmlns="http://www.w3.org/2000/svg"
 xmlns:xlink="http://www.w3.org/1999/xlink"
 width="40px" height="25px">
<path fill-rule="evenodd"  fill="rgb(255, 255, 255)"
 d="M15.000,9.000 L36.000,9.000 C37.657,9.000 39.000,10.343 39.000,12.000 C39.000,13.657 37.657,15.000 36.000,15.000 L15.000,15.000 C13.343,15.000 12.000,13.657 12.000,12.000 C12.000,10.343 13.343,9.000 15.000,9.000 Z"/>
<path fill-rule="evenodd"  fill="rgb(255, 255, 255)"
 d="M11.000,-0.000 C11.000,-0.000 27.240,10.800 37.881,10.800 C38.467,10.800 37.800,10.800 37.800,10.800 C38.462,10.800 39.000,11.337 39.000,12.000 C39.000,12.663 38.462,13.200 37.800,13.200 C37.800,13.200 38.323,13.200 37.823,13.200 C27.250,13.200 11.000,24.000 11.000,24.000 L11.000,-0.000 Z"/>
<path fill-rule="evenodd"  fill="rgb(255, 255, 255)"
 d="M12.000,-0.000 C18.627,-0.000 24.000,5.373 24.000,12.000 C24.000,18.627 18.627,24.000 12.000,24.000 C5.373,24.000 -0.000,18.627 -0.000,12.000 C-0.000,5.373 5.373,-0.000 12.000,-0.000 Z"/>
<path fill-rule="evenodd"  stroke="rgb(255, 255, 255)" stroke-width="2px" stroke-linecap="butt" stroke-linejoin="miter" fill="rgb(75, 75, 77)"
 d="M12.000,2.000 C17.523,2.000 22.000,6.477 22.000,12.000 C22.000,17.523 17.523,22.000 12.000,22.000 C6.477,22.000 2.000,17.523 2.000,12.000 C2.000,6.477 6.477,2.000 12.000,2.000 Z"/>
<path fill-rule="evenodd"  fill="rgb(255, 255, 255)"
 d="M15.479,15.788 C14.633,16.551 13.479,17.000 12.102,17.000 C10.108,17.000 8.383,15.880 7.544,14.248 C7.198,13.572 7.000,12.809 7.000,12.001 C7.000,11.193 7.198,10.430 7.544,9.755 C8.383,8.120 10.108,7.000 12.102,7.000 C13.477,7.000 14.631,7.496 15.517,8.302 L14.054,9.736 C13.525,9.240 12.852,8.989 12.104,8.989 C10.775,8.989 9.650,9.869 9.248,11.050 C9.146,11.350 9.088,11.671 9.088,12.001 C9.088,12.332 9.146,12.652 9.248,12.952 C9.650,14.133 10.775,15.013 12.102,15.013 C12.790,15.013 13.373,14.835 13.829,14.535 C14.371,14.180 14.729,13.652 14.848,13.025 L12.102,13.025 L12.102,11.091 C12.102,11.091 12.591,11.000 14.000,11.000 C14.612,11.000 16.984,10.915 17.000,12.113 C17.020,13.637 16.444,14.917 15.479,15.788 L15.479,15.788 Z"/>
</svg>
