<svg 
 xmlns="http://www.w3.org/2000/svg"
 xmlns:xlink="http://www.w3.org/1999/xlink"
 width="9px" height="8px">
<path fill-rule="evenodd"  fill="rgb(255, 255, 255)"
 d="M5.173,4.000 L7.756,1.417 C8.081,1.092 8.081,0.567 7.756,0.243 C7.432,-0.081 6.907,-0.081 6.583,0.243 L4.000,2.826 L1.416,0.243 C1.092,-0.081 0.567,-0.081 0.243,0.243 C-0.081,0.567 -0.081,1.093 0.243,1.417 L2.826,4.000 L0.243,6.583 C-0.081,6.907 -0.081,7.433 0.243,7.757 C0.398,7.913 0.609,8.000 0.829,8.000 C1.050,8.000 1.261,7.913 1.416,7.757 L4.000,5.174 L6.583,7.757 C6.738,7.913 6.950,8.000 7.170,8.000 C7.390,8.000 7.601,7.913 7.756,7.757 C8.081,7.433 8.081,6.907 7.756,6.583 L5.173,4.000 Z"/>
</svg>
