<svg 
 xmlns="http://www.w3.org/2000/svg"
 xmlns:xlink="http://www.w3.org/1999/xlink"
 width="37px" height="23px">
<path fill-rule="evenodd"  fill="rgb(0, 255, 101)"
 d="M10.999,1.000 C10.999,1.000 22.730,10.000 30.067,10.000 C36.694,10.000 34.999,10.000 34.999,10.000 C35.551,10.000 35.999,10.448 35.999,11.000 C35.999,11.552 35.551,12.000 34.999,12.000 C34.999,12.000 36.663,12.000 30.018,12.000 C22.696,12.000 10.999,21.000 10.999,21.000 L10.999,1.000 Z"/>
<path fill-rule="evenodd"  stroke="rgb(0, 255, 101)" stroke-width="2px" stroke-linecap="butt" stroke-linejoin="miter" fill="rgb(75, 75, 77)"
 d="M10.999,1.000 C16.522,1.000 20.999,5.477 20.999,11.000 C20.999,16.523 16.522,21.000 10.999,21.000 C5.477,21.000 0.999,16.523 0.999,11.000 C0.999,5.477 5.477,1.000 10.999,1.000 Z"/>
<path fill-rule="evenodd"  fill="rgb(0, 255, 101)"
 d="M8.411,7.000 C9.191,7.000 9.823,7.597 9.823,8.333 L9.823,13.667 C9.823,14.403 9.191,15.000 8.411,15.000 C7.631,15.000 6.999,14.403 6.999,13.667 L6.999,8.333 C6.999,7.597 7.631,7.000 8.411,7.000 L8.411,7.000 ZM13.588,7.000 C14.367,7.000 14.999,7.597 14.999,8.333 L14.999,13.667 C14.999,14.403 14.367,15.000 13.588,15.000 C12.808,15.000 12.176,14.403 12.176,13.667 L12.176,8.333 C12.176,7.597 12.808,7.000 13.588,7.000 L13.588,7.000 Z"/>
</svg>
