<svg 
 xmlns="http://www.w3.org/2000/svg"
 xmlns:xlink="http://www.w3.org/1999/xlink"
 width="40px" height="25px">
<path fill-rule="evenodd"  fill="rgb(255, 255, 255)"
 d="M14.999,9.000 L35.999,9.000 C37.656,9.000 38.999,10.343 38.999,12.000 C38.999,13.657 37.656,15.000 35.999,15.000 L14.999,15.000 C13.342,15.000 11.999,13.657 11.999,12.000 C11.999,10.343 13.342,9.000 14.999,9.000 Z"/>
<path fill-rule="evenodd"  fill="rgb(255, 255, 255)"
 d="M10.999,-0.000 C10.999,-0.000 27.239,10.800 37.881,10.800 C38.467,10.800 37.799,10.800 37.799,10.800 C38.462,10.800 38.999,11.337 38.999,12.000 C38.999,12.663 38.462,13.200 37.799,13.200 C37.799,13.200 38.323,13.200 37.822,13.200 C27.249,13.200 10.999,24.000 10.999,24.000 L10.999,-0.000 Z"/>
<path fill-rule="evenodd"  fill="rgb(255, 255, 255)"
 d="M11.999,-0.000 C18.627,-0.000 23.999,5.372 23.999,12.000 C23.999,18.627 18.627,24.000 11.999,24.000 C5.372,24.000 -0.000,18.627 -0.000,12.000 C-0.000,5.372 5.372,-0.000 11.999,-0.000 Z"/>
<path fill-rule="evenodd"  stroke="rgb(255, 255, 255)" stroke-width="2px" stroke-linecap="butt" stroke-linejoin="miter" fill="rgb(75, 75, 77)"
 d="M11.999,2.000 C17.522,2.000 21.999,6.477 21.999,12.000 C21.999,17.523 17.522,22.000 11.999,22.000 C6.477,22.000 1.999,17.523 1.999,12.000 C1.999,6.477 6.477,2.000 11.999,2.000 Z"/>
<path fill-rule="evenodd"  fill="rgb(255, 255, 255)"
 d="M9.411,8.000 C10.191,8.000 10.823,8.597 10.823,9.333 L10.823,14.667 C10.823,15.403 10.191,16.000 9.411,16.000 C8.631,16.000 7.999,15.403 7.999,14.667 L7.999,9.333 C7.999,8.597 8.631,8.000 9.411,8.000 L9.411,8.000 ZM14.588,8.000 C15.367,8.000 15.999,8.597 15.999,9.333 L15.999,14.667 C15.999,15.403 15.367,16.000 14.588,16.000 C13.808,16.000 13.176,15.403 13.176,14.667 L13.176,9.333 C13.176,8.597 13.808,8.000 14.588,8.000 L14.588,8.000 Z"/>
</svg>
