<svg 
 xmlns="http://www.w3.org/2000/svg"
 xmlns:xlink="http://www.w3.org/1999/xlink"
 width="8px" height="8px">
<path fill-rule="evenodd"  fill="rgb(255, 255, 255)"
 d="M7.198,3.198 C7.306,3.198 7.410,3.220 7.510,3.262 C7.609,3.305 7.694,3.362 7.765,3.433 C7.837,3.504 7.893,3.589 7.936,3.689 C7.979,3.788 8.000,3.892 8.000,4.000 C8.000,4.114 7.979,4.219 7.936,4.316 C7.893,4.412 7.837,4.496 7.765,4.567 C7.694,4.638 7.609,4.695 7.510,4.738 C7.410,4.780 7.306,4.802 7.198,4.802 L4.802,4.802 L4.802,7.198 C4.802,7.312 4.780,7.417 4.738,7.514 C4.695,7.611 4.638,7.694 4.567,7.765 C4.496,7.837 4.411,7.893 4.311,7.936 C4.212,7.979 4.108,8.000 4.000,8.000 C3.886,8.000 3.781,7.979 3.684,7.936 C3.588,7.893 3.504,7.837 3.433,7.765 C3.362,7.694 3.305,7.611 3.262,7.514 C3.220,7.417 3.198,7.312 3.198,7.198 L3.198,4.802 L0.802,4.802 C0.688,4.802 0.583,4.780 0.486,4.738 C0.389,4.695 0.306,4.638 0.235,4.567 C0.163,4.496 0.107,4.412 0.064,4.316 C0.021,4.219 -0.000,4.114 -0.000,4.000 C-0.000,3.892 0.021,3.788 0.064,3.689 C0.107,3.589 0.163,3.504 0.235,3.433 C0.306,3.362 0.389,3.305 0.486,3.262 C0.583,3.220 0.688,3.198 0.802,3.198 L3.198,3.198 L3.198,0.802 C3.198,0.694 3.220,0.590 3.262,0.490 C3.305,0.391 3.362,0.306 3.433,0.235 C3.504,0.163 3.588,0.107 3.684,0.064 C3.781,0.021 3.886,-0.000 4.000,-0.000 C4.222,-0.000 4.411,0.078 4.567,0.235 C4.724,0.391 4.802,0.580 4.802,0.802 L4.802,3.198 L7.198,3.198 Z"/>
</svg>
