<svg 
 xmlns="http://www.w3.org/2000/svg"
 xmlns:xlink="http://www.w3.org/1999/xlink"
 width="37px" height="23px">
<path fill-rule="evenodd"  fill="rgb(121, 229, 245)"
 d="M11.000,1.000 C11.000,1.000 22.730,10.000 30.068,10.000 C36.694,10.000 35.000,10.000 35.000,10.000 C35.552,10.000 36.000,10.448 36.000,11.000 C36.000,11.552 35.552,12.000 35.000,12.000 C35.000,12.000 36.663,12.000 30.019,12.000 C22.696,12.000 11.000,21.000 11.000,21.000 L11.000,1.000 Z"/>
<path fill-rule="evenodd"  stroke="rgb(121, 229, 245)" stroke-width="2px" stroke-linecap="butt" stroke-linejoin="miter" fill="rgb(75, 75, 77)"
 d="M11.000,1.000 C16.523,1.000 21.000,5.477 21.000,11.000 C21.000,16.523 16.523,21.000 11.000,21.000 C5.477,21.000 1.000,16.523 1.000,11.000 C1.000,5.477 5.477,1.000 11.000,1.000 Z"/>
<path fill-rule="evenodd"  fill="rgb(121, 229, 245)"
 d="M8.412,7.000 C9.191,7.000 9.823,7.597 9.823,8.333 L9.823,13.667 C9.823,14.403 9.191,15.000 8.412,15.000 C7.632,15.000 7.000,14.403 7.000,13.667 L7.000,8.333 C7.000,7.597 7.632,7.000 8.412,7.000 L8.412,7.000 ZM13.588,7.000 C14.368,7.000 15.000,7.597 15.000,8.333 L15.000,13.667 C15.000,14.403 14.368,15.000 13.588,15.000 C12.808,15.000 12.176,14.403 12.176,13.667 L12.176,8.333 C12.176,7.597 12.808,7.000 13.588,7.000 L13.588,7.000 Z"/>
</svg>
