<svg 
 xmlns="http://www.w3.org/2000/svg"
 xmlns:xlink="http://www.w3.org/1999/xlink"
 width="40px" height="25px">
<path fill-rule="evenodd"  fill="rgb(255, 255, 255)"
 d="M15.000,9.000 L36.000,9.000 C37.657,9.000 39.000,10.343 39.000,12.000 C39.000,13.657 37.657,15.000 36.000,15.000 L15.000,15.000 C13.343,15.000 12.000,13.657 12.000,12.000 C12.000,10.343 13.343,9.000 15.000,9.000 Z"/>
<path fill-rule="evenodd"  fill="rgb(255, 255, 255)"
 d="M11.000,-0.000 C11.000,-0.000 27.240,10.800 37.881,10.800 C38.467,10.800 37.800,10.800 37.800,10.800 C38.462,10.800 39.000,11.337 39.000,12.000 C39.000,12.663 38.462,13.200 37.800,13.200 C37.800,13.200 38.323,13.200 37.823,13.200 C27.250,13.200 11.000,24.000 11.000,24.000 L11.000,-0.000 Z"/>
<path fill-rule="evenodd"  fill="rgb(255, 255, 255)"
 d="M12.000,-0.000 C18.627,-0.000 24.000,5.373 24.000,12.000 C24.000,18.627 18.627,24.000 12.000,24.000 C5.373,24.000 -0.000,18.627 -0.000,12.000 C-0.000,5.373 5.373,-0.000 12.000,-0.000 Z"/>
<path fill-rule="evenodd"  stroke="rgb(255, 255, 255)" stroke-width="2px" stroke-linecap="butt" stroke-linejoin="miter" fill="rgb(75, 75, 77)"
 d="M12.000,2.000 C17.523,2.000 22.000,6.477 22.000,12.000 C22.000,17.523 17.523,22.000 12.000,22.000 C6.477,22.000 2.000,17.523 2.000,12.000 C2.000,6.477 6.477,2.000 12.000,2.000 Z"/>
<path fill-rule="evenodd"  fill="rgb(255, 255, 255)"
 d="M9.412,8.000 C10.191,8.000 10.823,8.597 10.823,9.333 L10.823,14.667 C10.823,15.403 10.191,16.000 9.412,16.000 C8.632,16.000 8.000,15.403 8.000,14.667 L8.000,9.333 C8.000,8.597 8.632,8.000 9.412,8.000 L9.412,8.000 ZM14.588,8.000 C15.368,8.000 16.000,8.597 16.000,9.333 L16.000,14.667 C16.000,15.403 15.368,16.000 14.588,16.000 C13.808,16.000 13.176,15.403 13.176,14.667 L13.176,9.333 C13.176,8.597 13.808,8.000 14.588,8.000 L14.588,8.000 Z"/>
</svg>
