<svg 
 xmlns="http://www.w3.org/2000/svg"
 xmlns:xlink="http://www.w3.org/1999/xlink"
 width="175.5px" height="147.5px">
<path fill-rule="evenodd"  fill="none"
 d="M-0.001,134.000 L11.000,134.000 L11.000,147.000 L-0.001,147.000 L-0.001,134.000 Z"/>
<path fill-rule="evenodd"  fill="rgb(28, 227, 107)"
 d="M140.012,106.749 C142.150,105.601 143.164,103.607 142.970,101.724 C143.178,99.731 142.150,97.848 140.012,96.699 L93.923,72.029 C91.882,70.879 89.438,70.353 86.994,70.353 C84.550,70.353 82.092,70.879 80.051,72.029 L33.962,96.602 C31.824,97.751 30.907,99.744 31.004,101.627 C30.907,103.620 31.824,105.601 33.962,106.749 L80.051,131.336 C82.092,132.486 84.536,133.012 86.994,133.012 C89.438,133.012 91.882,132.486 93.923,131.336 L140.012,106.749 Z"/>
<path fill-rule="evenodd"  fill="rgb(98, 98, 98)"
 d="M140.012,103.420 C142.150,102.271 143.164,100.278 142.970,98.395 C143.178,96.402 142.150,94.519 140.012,93.369 L93.923,68.699 C91.882,67.550 89.438,67.024 86.994,67.024 C84.550,67.024 82.092,67.550 80.051,68.699 L33.962,93.273 C31.824,94.422 30.907,96.415 31.004,98.298 C30.907,100.291 31.824,102.271 33.962,103.420 L80.051,128.007 C82.092,129.156 84.536,129.682 86.994,129.682 C89.438,129.682 91.882,129.156 93.923,128.007 L140.012,103.420 Z"/>
<path fill-rule="evenodd"  fill="rgb(127, 127, 127)"
 d="M140.012,102.154 C142.150,101.006 143.164,99.012 142.970,97.129 C143.178,95.136 142.150,93.253 140.012,92.104 L93.923,67.434 C91.882,66.284 89.438,65.759 86.994,65.759 C84.550,65.759 82.092,66.284 80.051,67.434 L33.962,92.007 C31.824,93.156 30.907,95.149 31.004,97.032 C30.907,99.025 31.824,101.006 33.962,102.154 L80.051,126.741 C82.092,127.891 84.536,128.416 86.994,128.416 C89.438,128.416 91.882,127.891 93.923,126.741 L140.012,102.154 Z"/>
<path fill-rule="evenodd"  fill="rgb(98, 98, 98)"
 d="M140.012,98.420 C142.150,97.271 143.164,95.278 142.970,93.395 C143.178,91.402 142.150,89.519 140.012,88.369 L93.923,63.699 C91.882,62.550 89.438,62.024 86.994,62.024 C84.550,62.024 82.092,62.550 80.051,63.699 L33.962,88.273 C31.824,89.422 30.907,91.415 31.004,93.298 C30.907,95.291 31.824,97.271 33.962,98.420 L80.051,123.007 C82.092,124.157 84.536,124.682 86.994,124.682 C89.438,124.682 91.882,124.157 93.923,123.007 L140.012,98.420 Z"/>
<path fill-rule="evenodd"  fill="rgb(127, 127, 127)"
 d="M140.012,97.154 C142.150,96.006 143.164,94.012 142.970,92.129 C143.178,90.136 142.150,88.253 140.012,87.103 L93.923,62.434 C91.882,61.284 89.438,60.758 86.994,60.758 C84.550,60.758 82.092,61.284 80.051,62.434 L33.962,87.007 C31.824,88.156 30.907,90.149 31.004,92.032 C30.907,94.026 31.824,96.006 33.962,97.154 L80.051,121.742 C82.092,122.891 84.536,123.417 86.994,123.417 C89.438,123.417 91.882,122.891 93.923,121.742 L140.012,97.154 Z"/>
<path fill-rule="evenodd"  fill="rgb(98, 98, 98)"
 d="M140.012,93.421 C142.150,92.272 143.164,90.278 142.970,88.395 C143.178,86.402 142.150,84.518 140.012,83.369 L93.923,58.699 C91.882,57.550 89.438,57.024 86.994,57.024 C84.550,57.024 82.092,57.550 80.051,58.699 L33.962,83.273 C31.824,84.422 30.907,86.415 31.004,88.298 C30.907,90.291 31.824,92.272 33.962,93.421 L80.051,118.007 C82.092,119.157 84.536,119.682 86.994,119.682 C89.438,119.682 91.882,119.157 93.923,118.007 L140.012,93.421 Z"/>
<path fill-rule="evenodd"  fill="rgb(127, 127, 127)"
 d="M140.012,92.155 C142.150,91.006 143.164,89.012 142.970,87.130 C143.178,85.136 142.150,83.252 140.012,82.103 L93.923,57.434 C91.882,56.284 89.438,55.759 86.994,55.759 C84.550,55.759 82.092,56.284 80.051,57.434 L33.962,82.007 C31.824,83.156 30.907,85.149 31.004,87.032 C30.907,89.026 31.824,91.006 33.962,92.155 L80.051,116.741 C82.092,117.891 84.536,118.417 86.994,118.417 C89.438,118.417 91.882,117.891 93.923,116.741 L140.012,92.155 Z"/>
<path fill-rule="evenodd"  fill="rgb(98, 98, 98)"
 d="M140.012,88.421 C142.150,87.271 143.164,85.278 142.970,83.395 C143.178,81.402 142.150,79.518 140.012,78.369 L93.923,53.699 C91.882,52.550 89.438,52.024 86.994,52.024 C84.550,52.024 82.092,52.550 80.051,53.699 L33.962,78.273 C31.824,79.422 30.907,81.415 31.004,83.298 C30.907,85.291 31.824,87.271 33.962,88.421 L80.051,113.007 C82.092,114.157 84.536,114.683 86.994,114.683 C89.438,114.683 91.882,114.157 93.923,113.007 L140.012,88.421 Z"/>
<path fill-rule="evenodd"  fill="rgb(127, 127, 127)"
 d="M140.012,87.155 C142.150,86.005 143.164,84.012 142.970,82.129 C143.178,80.136 142.150,78.252 140.012,77.104 L93.923,52.433 C91.882,51.284 89.438,50.758 86.994,50.758 C84.550,50.758 82.092,51.284 80.051,52.433 L33.962,77.007 C31.824,78.156 30.907,80.150 31.004,82.032 C30.907,84.026 31.824,86.005 33.962,87.155 L80.051,111.741 C82.092,112.891 84.536,113.417 86.994,113.417 C89.438,113.417 91.882,112.891 93.923,111.741 L140.012,87.155 Z"/>
<path fill-rule="evenodd"  fill="rgb(98, 98, 98)"
 d="M140.012,83.420 C142.150,82.271 143.164,80.278 142.970,78.395 C143.178,76.402 142.150,74.519 140.012,73.369 L93.923,48.700 C91.882,47.550 89.438,47.024 86.994,47.024 C84.550,47.024 82.092,47.550 80.051,48.700 L33.962,73.273 C31.824,74.422 30.907,76.415 31.004,78.298 C30.907,80.291 31.824,82.271 33.962,83.420 L80.051,108.007 C82.092,109.156 84.536,109.682 86.994,109.682 C89.438,109.682 91.882,109.156 93.923,108.007 L140.012,83.420 Z"/>
<path fill-rule="evenodd"  fill="rgb(127, 127, 127)"
 d="M140.012,82.155 C142.150,81.005 143.164,79.012 142.970,77.130 C143.178,75.136 142.150,73.253 140.012,72.104 L93.923,47.434 C91.882,46.285 89.438,45.759 86.994,45.759 C84.550,45.759 82.092,46.285 80.051,47.434 L33.962,72.007 C31.824,73.156 30.907,75.150 31.004,77.032 C30.907,79.025 31.824,81.005 33.962,82.155 L80.051,106.742 C82.092,107.891 84.536,108.417 86.994,108.417 C89.438,108.417 91.882,107.891 93.923,106.742 L140.012,82.155 Z"/>
<path fill-rule="evenodd"  fill="rgb(98, 98, 98)"
 d="M140.012,78.421 C142.150,77.271 143.164,75.278 142.970,73.395 C143.178,71.402 142.150,69.519 140.012,68.369 L93.923,43.699 C91.882,42.550 89.438,42.024 86.994,42.024 C84.550,42.024 82.092,42.550 80.051,43.699 L33.962,68.273 C31.824,69.422 30.907,71.415 31.004,73.298 C30.907,75.291 31.824,77.271 33.962,78.421 L80.051,103.007 C82.092,104.157 84.536,104.682 86.994,104.682 C89.438,104.682 91.882,104.157 93.923,103.007 L140.012,78.421 Z"/>
<path fill-rule="evenodd"  fill="rgb(127, 127, 127)"
 d="M140.012,77.155 C142.150,76.005 143.164,74.012 142.970,72.129 C143.178,70.136 142.150,68.253 140.012,67.103 L93.923,42.434 C91.882,41.284 89.438,40.758 86.994,40.758 C84.550,40.758 82.092,41.284 80.051,42.434 L33.962,67.007 C31.824,68.156 30.907,70.150 31.004,72.032 C30.907,74.026 31.824,76.005 33.962,77.155 L80.051,101.741 C82.092,102.891 84.536,103.417 86.994,103.417 C89.438,103.417 91.882,102.891 93.923,101.741 L140.012,77.155 Z"/>
<path fill-rule="evenodd"  fill="rgb(98, 98, 98)"
 d="M140.012,73.420 C142.150,72.271 143.164,70.278 142.970,68.395 C143.178,66.402 142.150,64.519 140.012,63.369 L93.923,38.699 C91.882,37.550 89.438,37.024 86.994,37.024 C84.550,37.024 82.092,37.550 80.051,38.699 L33.962,63.273 C31.824,64.422 30.907,66.415 31.004,68.298 C30.907,70.291 31.824,72.271 33.962,73.420 L80.051,98.007 C82.092,99.157 84.536,99.682 86.994,99.682 C89.438,99.682 91.882,99.157 93.923,98.007 L140.012,73.420 Z"/>
<path fill-rule="evenodd"  fill="rgb(127, 127, 127)"
 d="M140.012,72.154 C142.150,71.006 143.164,69.012 142.970,67.129 C143.178,65.136 142.150,63.253 140.012,62.104 L93.923,37.434 C91.882,36.284 89.438,35.758 86.994,35.758 C84.550,35.758 82.092,36.284 80.051,37.434 L33.962,62.007 C31.824,63.156 30.907,65.149 31.004,67.032 C30.907,69.026 31.824,71.006 33.962,72.154 L80.051,96.742 C82.092,97.891 84.536,98.417 86.994,98.417 C89.438,98.417 91.882,97.891 93.923,96.742 L140.012,72.154 Z"/>
<path fill-rule="evenodd"  fill="rgb(98, 98, 98)"
 d="M140.012,68.420 C142.150,67.272 143.164,65.278 142.970,63.395 C143.178,61.402 142.150,59.519 140.012,58.369 L93.923,33.700 C91.882,32.550 89.438,32.024 86.994,32.024 C84.550,32.024 82.092,32.550 80.051,33.700 L33.962,58.273 C31.824,59.422 30.907,61.415 31.004,63.298 C30.907,65.291 31.824,67.272 33.962,68.420 L80.051,93.007 C82.092,94.157 84.536,94.682 86.994,94.682 C89.438,94.682 91.882,94.157 93.923,93.007 L140.012,68.420 Z"/>
<path fill-rule="evenodd"  fill="rgb(127, 127, 127)"
 d="M140.012,67.155 C142.150,66.006 143.164,64.012 142.970,62.129 C143.178,60.136 142.150,58.253 140.012,57.103 L93.923,32.434 C91.882,31.284 89.438,30.759 86.994,30.759 C84.550,30.759 82.092,31.284 80.051,32.434 L33.962,57.007 C31.824,58.156 30.907,60.149 31.004,62.032 C30.907,64.026 31.824,66.006 33.962,67.155 L80.051,91.742 C82.092,92.891 84.536,93.416 86.994,93.416 C89.438,93.416 91.882,92.891 93.923,91.742 L140.012,67.155 Z"/>
<path fill-rule="evenodd"  fill="rgb(98, 98, 98)"
 d="M140.012,63.421 C142.150,62.271 143.164,60.278 142.970,58.395 C143.178,56.402 142.150,54.519 140.012,53.369 L93.923,28.699 C91.882,27.550 89.438,27.024 86.994,27.024 C84.550,27.024 82.092,27.550 80.051,28.699 L33.962,53.273 C31.824,54.422 30.907,56.415 31.004,58.298 C30.907,60.291 31.824,62.271 33.962,63.421 L80.051,88.007 C82.092,89.157 84.536,89.683 86.994,89.683 C89.438,89.683 91.882,89.157 93.923,88.007 L140.012,63.421 Z"/>
<path fill-rule="evenodd"  fill="rgb(127, 127, 127)"
 d="M140.012,62.155 C142.150,61.006 143.164,59.012 142.970,57.129 C143.178,55.136 142.150,53.253 140.012,52.103 L93.923,27.433 C91.882,26.284 89.438,25.758 86.994,25.758 C84.550,25.758 82.092,26.284 80.051,27.433 L33.962,52.007 C31.824,53.156 30.907,55.150 31.004,57.032 C30.907,59.026 31.824,61.006 33.962,62.155 L80.051,86.742 C82.092,87.891 84.536,88.417 86.994,88.417 C89.438,88.417 91.882,87.891 93.923,86.742 L140.012,62.155 Z"/>
<path fill-rule="evenodd"  fill="rgb(98, 98, 98)"
 d="M140.012,58.420 C142.150,57.271 143.164,55.278 142.970,53.395 C143.178,51.402 142.150,49.518 140.012,48.369 L93.923,23.699 C91.882,22.550 89.438,22.024 86.994,22.024 C84.550,22.024 82.092,22.550 80.051,23.699 L33.962,48.273 C31.824,49.421 30.907,51.415 31.004,53.298 C30.907,55.291 31.824,57.271 33.962,58.420 L80.051,83.007 C82.092,84.157 84.536,84.683 86.994,84.683 C89.438,84.683 91.882,84.157 93.923,83.007 L140.012,58.420 Z"/>
<path fill-rule="evenodd"  fill="rgb(127, 127, 127)"
 d="M140.012,57.155 C142.150,56.005 143.164,54.012 142.970,52.130 C143.178,50.136 142.150,48.252 140.012,47.104 L93.923,22.433 C91.882,21.284 89.438,20.759 86.994,20.759 C84.550,20.759 82.092,21.284 80.051,22.433 L33.962,47.007 C31.824,48.156 30.907,50.150 31.004,52.032 C30.907,54.026 31.824,56.005 33.962,57.155 L80.051,81.741 C82.092,82.891 84.536,83.417 86.994,83.417 C89.438,83.417 91.882,82.891 93.923,81.741 L140.012,57.155 Z"/>
<path fill-rule="evenodd"  fill="rgb(98, 98, 98)"
 d="M140.012,53.421 C142.150,52.271 143.164,50.278 142.970,48.395 C143.178,46.402 142.150,44.519 140.012,43.369 L93.923,18.699 C91.882,17.550 89.438,17.024 86.994,17.024 C84.550,17.024 82.092,17.550 80.051,18.699 L33.962,43.273 C31.824,44.422 30.907,46.415 31.004,48.298 C30.907,50.291 31.824,52.271 33.962,53.421 L80.051,78.007 C82.092,79.156 84.536,79.682 86.994,79.682 C89.438,79.682 91.882,79.156 93.923,78.007 L140.012,53.421 Z"/>
<path fill-rule="evenodd"  fill="rgb(127, 127, 127)"
 d="M140.012,52.155 C142.150,51.006 143.164,49.012 142.970,47.129 C143.178,45.136 142.150,43.253 140.012,42.103 L93.923,17.433 C91.882,16.284 89.438,15.758 86.994,15.758 C84.550,15.758 82.092,16.284 80.051,17.433 L33.962,42.007 C31.824,43.156 30.907,45.150 31.004,47.032 C30.907,49.026 31.824,51.006 33.962,52.155 L80.051,76.741 C82.092,77.890 84.536,78.417 86.994,78.417 C89.438,78.417 91.882,77.890 93.923,76.741 L140.012,52.155 Z"/>
<path fill-rule="evenodd"  fill="rgb(98, 98, 98)"
 d="M140.012,48.420 C142.150,47.271 143.164,45.278 142.970,43.395 C143.178,41.402 142.150,39.519 140.012,38.369 L93.923,13.699 C91.882,12.550 89.438,12.024 86.994,12.024 C84.550,12.024 82.092,12.550 80.051,13.699 L33.962,38.273 C31.824,39.422 30.907,41.415 31.004,43.298 C30.907,45.291 31.824,47.271 33.962,48.420 L80.051,73.007 C82.092,74.156 84.536,74.683 86.994,74.683 C89.438,74.683 91.882,74.156 93.923,73.007 L140.012,48.420 Z"/>
<path fill-rule="evenodd"  fill="rgb(127, 127, 127)"
 d="M140.012,47.155 C142.150,46.006 143.164,44.012 142.970,42.129 C143.178,40.136 142.150,38.253 140.012,37.104 L93.923,12.434 C91.882,11.284 89.438,10.758 86.994,10.758 C84.550,10.758 82.092,11.284 80.051,12.434 L33.962,37.007 C31.824,38.156 30.907,40.150 31.004,42.032 C30.907,44.025 31.824,46.006 33.962,47.155 L80.051,71.742 C82.092,72.890 84.536,73.417 86.994,73.417 C89.438,73.417 91.882,72.890 93.923,71.742 L140.012,47.155 Z"/>
<path fill-rule="evenodd"  fill="rgb(98, 98, 98)"
 d="M140.012,43.420 C142.150,42.272 143.164,40.278 142.970,38.395 C143.178,36.402 142.150,34.519 140.012,33.369 L93.923,8.700 C91.882,7.550 89.438,7.024 86.994,7.024 C84.550,7.024 82.092,7.550 80.051,8.700 L33.962,33.272 C31.824,34.422 30.907,36.415 31.004,38.298 C30.907,40.291 31.824,42.272 33.962,43.420 L80.051,68.007 C82.092,69.157 84.536,69.682 86.994,69.682 C89.438,69.682 91.882,69.157 93.923,68.007 L140.012,43.420 Z"/>
<path fill-rule="evenodd"  fill="rgb(127, 127, 127)"
 d="M140.012,42.155 C142.150,41.006 143.164,39.012 142.970,37.129 C143.178,35.136 142.150,33.253 140.012,32.103 L93.923,7.434 C91.882,6.284 89.438,5.758 86.994,5.758 C84.550,5.758 82.092,6.284 80.051,7.434 L33.962,32.007 C31.824,33.156 30.907,35.149 31.004,37.032 C30.907,39.026 31.824,41.006 33.962,42.155 L80.051,66.742 C82.092,67.891 84.536,68.416 86.994,68.416 C89.438,68.416 91.882,67.891 93.923,66.742 L140.012,42.155 Z"/>
<path fill-rule="evenodd"  fill="rgb(108, 108, 108)"
 d="M140.012,38.420 C142.150,37.271 143.164,35.278 142.970,33.395 C143.178,31.402 142.150,29.519 140.012,28.369 L93.923,3.699 C91.882,2.550 89.438,2.024 86.994,2.024 C84.550,2.024 82.092,2.550 80.051,3.699 L33.962,28.273 C31.824,29.422 30.907,31.415 31.004,33.298 C30.907,35.291 31.824,37.271 33.962,38.420 L80.051,63.007 C82.092,64.157 84.536,64.682 86.994,64.682 C89.438,64.682 91.882,64.157 93.923,63.007 L140.012,38.420 Z"/>
<path fill-rule="evenodd"  fill="rgb(127, 127, 127)"
 d="M140.012,37.155 C142.150,36.006 143.164,34.012 142.970,32.129 C143.178,30.136 142.150,28.253 140.012,27.103 L93.923,2.434 C91.882,1.284 89.438,0.758 86.994,0.758 C84.550,0.758 82.092,1.284 80.051,2.434 L33.962,27.007 C31.824,28.156 30.907,30.149 31.004,32.032 C30.907,34.026 31.824,36.006 33.962,37.155 L80.051,61.741 C82.092,62.891 84.536,63.416 86.994,63.416 C89.438,63.416 91.882,62.891 93.923,61.741 L140.012,37.155 Z"/>
<path fill-rule="evenodd"  stroke="rgb(109, 109, 109)" stroke-width="1px" stroke-linecap="butt" stroke-linejoin="miter" fill="none"
 d="M128.686,36.051 C130.366,35.134 131.164,33.543 131.011,32.041 C131.175,30.450 130.366,28.947 128.686,28.030 L92.459,8.343 C90.855,7.426 88.933,7.006 87.012,7.006 C85.091,7.006 83.159,7.426 81.555,8.343 L45.327,27.953 C43.647,28.870 42.927,30.460 43.003,31.963 C42.927,33.553 43.647,35.134 45.327,36.051 L81.555,55.671 C83.159,56.588 85.080,57.008 87.012,57.008 C88.933,57.008 90.855,56.588 92.459,55.671 L128.686,36.051 Z"/>
<path fill-rule="evenodd"  stroke="rgb(109, 109, 109)" stroke-width="1px" stroke-linecap="butt" stroke-linejoin="miter" fill="none"
 d="M89.458,12.250 L87.853,11.540 L84.108,13.196 L91.598,13.196 L92.935,14.142 L81.433,14.142 L79.025,15.325 L96.145,15.325 L98.284,16.744 L76.618,16.744 L74.746,17.926 L101.227,17.926 L103.902,19.345 L71.536,19.345 L69.129,20.764 L107.111,20.764 L109.251,22.184 L66.187,22.184 L64.314,23.366 L112.728,23.602 L114.868,24.785 L60.570,25.022 L58.430,26.204 L118.345,26.441 L120.217,27.624 L55.487,27.860 L53.348,29.279 L123.101,29.279 L125.241,30.698 L49.603,30.698 L48.635,31.881 L126.519,32.354 L125.776,33.773 L50.138,33.773 L52.010,34.956 L121.823,35.429 L119.682,36.848 L56.290,36.848 L58.162,38.030 L117.007,38.030 L115.403,39.449 L61.640,39.449 L63.244,40.632 L111.123,40.868 L109.251,42.288 L66.989,42.288 L68.861,43.470 L105.774,43.470 L103.902,44.889 L72.339,45.126 L74.211,46.309 L99.622,46.545 L97.749,47.964 L78.759,47.964 L80.630,49.383 L94.272,49.147 L92.667,50.566 L84.643,50.802 L87.853,52.458 L89.725,51.748 "/>
<path fill-rule="evenodd"  opacity="0.302" fill="rgb(0, 0, 0)"
 d="M86.994,133.417 C89.438,133.417 91.882,132.891 93.923,131.742 L140.012,107.154 C142.150,106.006 143.164,104.012 142.970,102.130 C143.178,100.136 143.252,30.145 142.970,32.129 C143.164,35.089 142.138,36.850 139.999,37.999 L98.999,59.999 C96.958,61.148 89.023,64.288 87.999,63.999 C87.990,63.996 88.969,65.686 88.939,66.928 C88.925,67.533 87.907,68.269 87.889,69.119 C87.875,69.781 88.859,70.513 88.842,71.307 C88.827,72.040 87.811,72.825 87.794,73.658 C87.779,74.421 88.763,75.224 88.746,76.061 C88.729,76.874 87.713,77.722 87.696,78.597 C87.677,79.536 88.659,80.509 88.639,81.510 C88.624,82.302 87.608,83.112 87.592,83.935 C87.575,84.813 88.558,85.708 88.541,86.615 C88.530,87.189 87.519,87.767 87.508,88.351 C87.490,89.270 88.473,90.201 88.455,91.140 C88.439,91.990 87.423,92.846 87.407,93.707 C87.390,94.588 88.373,95.475 88.356,96.362 C88.340,97.256 87.323,98.151 87.307,99.046 C87.291,99.895 88.275,100.744 88.259,101.590 C88.245,102.337 87.232,103.080 87.218,103.821 C87.204,104.600 88.189,105.375 88.175,106.145 C88.159,107.033 87.142,107.912 87.127,108.782 C87.110,109.663 88.095,110.533 88.079,111.389 C88.064,112.185 87.049,112.969 87.035,113.740 C87.020,114.590 88.005,115.423 87.990,116.236 C87.975,117.049 86.960,117.844 86.946,118.616 C86.928,119.633 87.910,120.610 87.893,121.542 C87.880,122.280 86.867,122.990 86.855,123.667 C86.840,124.491 87.826,125.267 87.813,125.990 C87.799,126.744 86.786,127.439 86.775,128.068 C86.758,129.015 87.743,129.813 87.732,130.440 C87.714,131.468 86.704,132.033 86.704,132.033 C86.704,132.033 86.886,133.417 86.994,133.417 Z"/>
<path fill-rule="evenodd"  fill="rgb(255, 255, 255)"
 d="M174.140,94.599 L155.854,94.599 C155.381,94.599 154.997,94.240 154.997,93.798 C154.997,93.357 155.381,92.998 155.854,92.998 L174.140,92.998 C174.612,92.998 174.997,93.357 174.997,93.798 C174.997,94.240 174.612,94.599 174.140,94.599 ZM167.248,106.832 C167.585,106.529 168.120,106.534 168.450,106.843 C168.780,107.151 168.784,107.650 168.459,107.964 L165.605,110.629 C165.525,110.704 165.429,110.763 165.323,110.804 C165.246,110.833 165.164,110.841 165.083,110.849 C165.053,110.852 165.027,110.865 164.996,110.865 C164.964,110.865 164.936,110.851 164.904,110.848 C164.825,110.840 164.745,110.832 164.671,110.804 C164.564,110.763 164.468,110.703 164.388,110.627 L161.533,107.964 C161.219,107.648 161.229,107.157 161.555,106.852 C161.881,106.548 162.407,106.540 162.745,106.833 L164.139,108.134 L164.139,97.864 L162.745,99.165 C162.409,99.468 161.874,99.463 161.544,99.155 C161.214,98.846 161.208,98.347 161.533,98.033 L164.391,95.367 C164.725,95.055 165.268,95.055 165.603,95.367 L168.459,98.033 C168.774,98.348 168.765,98.840 168.438,99.144 C168.112,99.449 167.585,99.458 167.248,99.164 L165.854,97.863 L165.854,108.133 L167.248,106.832 ZM155.854,111.399 L174.140,111.399 C174.612,111.399 174.997,111.756 174.997,112.199 C174.997,112.640 174.612,112.999 174.140,112.999 L155.854,112.999 C155.381,112.999 154.997,112.640 154.997,112.199 C154.997,111.756 155.381,111.399 155.854,111.399 Z"/>
</svg>
