<svg 
 xmlns="http://www.w3.org/2000/svg"
 xmlns:xlink="http://www.w3.org/1999/xlink"
 width="174.5px" height="147.5px">
<path fill-rule="evenodd"  fill="none"
 d="M-0.000,41.000 L25.000,41.000 L25.000,59.000 L-0.000,59.000 L-0.000,41.000 Z"/>
<path fill-rule="evenodd"  fill="none"
 d="M20.999,129.000 L45.999,129.000 L45.999,147.000 L20.999,147.000 L20.999,129.000 Z"/>
<path fill-rule="evenodd"  fill="rgb(127, 127, 127)"
 d="M139.012,106.749 C141.150,105.601 142.164,103.607 141.970,101.724 C142.178,99.731 141.150,97.848 139.012,96.698 L92.923,72.029 C90.882,70.879 88.438,70.354 85.994,70.354 C83.550,70.354 81.092,70.879 79.051,72.029 L32.962,96.602 C30.824,97.751 29.907,99.744 30.004,101.627 C29.907,103.621 30.824,105.601 32.962,106.749 L79.051,131.336 C81.092,132.486 83.536,133.011 85.994,133.011 C88.438,133.011 90.882,132.486 92.923,131.336 L139.012,106.749 Z"/>
<path fill-rule="evenodd"  fill="rgb(98, 98, 98)"
 d="M139.012,103.420 C141.150,102.271 142.164,100.278 141.970,98.395 C142.178,96.402 141.150,94.519 139.012,93.369 L92.923,68.699 C90.882,67.550 88.438,67.024 85.994,67.024 C83.550,67.024 81.092,67.550 79.051,68.699 L32.962,93.273 C30.824,94.422 29.907,96.415 30.004,98.298 C29.907,100.291 30.824,102.271 32.962,103.420 L79.051,128.007 C81.092,129.157 83.536,129.682 85.994,129.682 C88.438,129.682 90.882,129.157 92.923,128.007 L139.012,103.420 Z"/>
<path fill-rule="evenodd"  fill="rgb(127, 127, 127)"
 d="M139.012,102.155 C141.150,101.006 142.164,99.012 141.970,97.129 C142.178,95.136 141.150,93.253 139.012,92.103 L92.923,67.434 C90.882,66.285 88.438,65.759 85.994,65.759 C83.550,65.759 81.092,66.285 79.051,67.434 L32.962,92.007 C30.824,93.156 29.907,95.149 30.004,97.032 C29.907,99.026 30.824,101.006 32.962,102.155 L79.051,126.742 C81.092,127.891 83.536,128.417 85.994,128.417 C88.438,128.417 90.882,127.891 92.923,126.742 L139.012,102.155 Z"/>
<path fill-rule="evenodd"  fill="rgb(98, 98, 98)"
 d="M139.012,98.420 C141.150,97.271 142.164,95.278 141.970,93.395 C142.178,91.402 141.150,89.518 139.012,88.369 L92.923,63.699 C90.882,62.550 88.438,62.024 85.994,62.024 C83.550,62.024 81.092,62.550 79.051,63.699 L32.962,88.273 C30.824,89.422 29.907,91.415 30.004,93.298 C29.907,95.291 30.824,97.271 32.962,98.420 L79.051,123.007 C81.092,124.157 83.536,124.683 85.994,124.683 C88.438,124.683 90.882,124.157 92.923,123.007 L139.012,98.420 Z"/>
<path fill-rule="evenodd"  fill="rgb(127, 127, 127)"
 d="M139.012,97.155 C141.150,96.006 142.164,94.012 141.970,92.130 C142.178,90.136 141.150,88.253 139.012,87.104 L92.923,62.434 C90.882,61.285 88.438,60.759 85.994,60.759 C83.550,60.759 81.092,61.285 79.051,62.434 L32.962,87.007 C30.824,88.156 29.907,90.150 30.004,92.032 C29.907,94.026 30.824,96.006 32.962,97.155 L79.051,121.741 C81.092,122.891 83.536,123.417 85.994,123.417 C88.438,123.417 90.882,122.891 92.923,121.741 L139.012,97.155 Z"/>
<path fill-rule="evenodd"  fill="rgb(98, 98, 98)"
 d="M139.012,93.421 C141.150,92.271 142.164,90.278 141.970,88.395 C142.178,86.402 141.150,84.518 139.012,83.369 L92.923,58.699 C90.882,57.550 88.438,57.024 85.994,57.024 C83.550,57.024 81.092,57.550 79.051,58.699 L32.962,83.273 C30.824,84.422 29.907,86.415 30.004,88.298 C29.907,90.292 30.824,92.271 32.962,93.421 L79.051,118.007 C81.092,119.156 83.536,119.682 85.994,119.682 C88.438,119.682 90.882,119.156 92.923,118.007 L139.012,93.421 Z"/>
<path fill-rule="evenodd"  fill="rgb(127, 127, 127)"
 d="M139.012,92.155 C141.150,91.006 142.164,89.012 141.970,87.130 C142.178,85.136 141.150,83.253 139.012,82.103 L92.923,57.434 C90.882,56.284 88.438,55.759 85.994,55.759 C83.550,55.759 81.092,56.284 79.051,57.434 L32.962,82.007 C30.824,83.156 29.907,85.150 30.004,87.032 C29.907,89.026 30.824,91.006 32.962,92.155 L79.051,116.741 C81.092,117.891 83.536,118.417 85.994,118.417 C88.438,118.417 90.882,117.891 92.923,116.741 L139.012,92.155 Z"/>
<path fill-rule="evenodd"  fill="rgb(98, 98, 98)"
 d="M139.012,88.421 C141.150,87.271 142.164,85.278 141.970,83.395 C142.178,81.402 141.150,79.518 139.012,78.369 L92.923,53.699 C90.882,52.550 88.438,52.024 85.994,52.024 C83.550,52.024 81.092,52.550 79.051,53.699 L32.962,78.273 C30.824,79.422 29.907,81.415 30.004,83.298 C29.907,85.291 30.824,87.271 32.962,88.421 L79.051,113.007 C81.092,114.156 83.536,114.683 85.994,114.683 C88.438,114.683 90.882,114.156 92.923,113.007 L139.012,88.421 Z"/>
<path fill-rule="evenodd"  fill="rgb(127, 127, 127)"
 d="M139.012,87.155 C141.150,86.005 142.164,84.012 141.970,82.129 C142.178,80.136 141.150,78.253 139.012,77.104 L92.923,52.434 C90.882,51.284 88.438,50.758 85.994,50.758 C83.550,50.758 81.092,51.284 79.051,52.434 L32.962,77.007 C30.824,78.156 29.907,80.150 30.004,82.032 C29.907,84.025 30.824,86.005 32.962,87.155 L79.051,111.742 C81.092,112.891 83.536,113.417 85.994,113.417 C88.438,113.417 90.882,112.891 92.923,111.742 L139.012,87.155 Z"/>
<path fill-rule="evenodd"  fill="rgb(98, 98, 98)"
 d="M139.012,83.421 C141.150,82.271 142.164,80.278 141.970,78.395 C142.178,76.402 141.150,74.519 139.012,73.369 L92.923,48.700 C90.882,47.550 88.438,47.024 85.994,47.024 C83.550,47.024 81.092,47.550 79.051,48.700 L32.962,73.273 C30.824,74.422 29.907,76.416 30.004,78.298 C29.907,80.291 30.824,82.271 32.962,83.421 L79.051,108.007 C81.092,109.156 83.536,109.682 85.994,109.682 C88.438,109.682 90.882,109.156 92.923,108.007 L139.012,83.421 Z"/>
<path fill-rule="evenodd"  fill="rgb(127, 127, 127)"
 d="M139.012,82.155 C141.150,81.006 142.164,79.012 141.970,77.130 C142.178,75.136 141.150,73.253 139.012,72.104 L92.923,47.434 C90.882,46.285 88.438,45.758 85.994,45.758 C83.550,45.758 81.092,46.285 79.051,47.434 L32.962,72.007 C30.824,73.156 29.907,75.149 30.004,77.032 C29.907,79.025 30.824,81.006 32.962,82.155 L79.051,106.742 C81.092,107.891 83.536,108.417 85.994,108.417 C88.438,108.417 90.882,107.891 92.923,106.742 L139.012,82.155 Z"/>
<path fill-rule="evenodd"  fill="rgb(98, 98, 98)"
 d="M139.012,78.420 C141.150,77.271 142.164,75.278 141.970,73.395 C142.178,71.402 141.150,69.519 139.012,68.369 L92.923,43.699 C90.882,42.550 88.438,42.024 85.994,42.024 C83.550,42.024 81.092,42.550 79.051,43.699 L32.962,68.273 C30.824,69.422 29.907,71.415 30.004,73.298 C29.907,75.291 30.824,77.271 32.962,78.420 L79.051,103.007 C81.092,104.157 83.536,104.682 85.994,104.682 C88.438,104.682 90.882,104.157 92.923,103.007 L139.012,78.420 Z"/>
<path fill-rule="evenodd"  fill="rgb(127, 127, 127)"
 d="M139.012,77.154 C141.150,76.006 142.164,74.012 141.970,72.129 C142.178,70.136 141.150,68.253 139.012,67.104 L92.923,42.434 C90.882,41.284 88.438,40.759 85.994,40.759 C83.550,40.759 81.092,41.284 79.051,42.434 L32.962,67.007 C30.824,68.156 29.907,70.149 30.004,72.032 C29.907,74.026 30.824,76.006 32.962,77.154 L79.051,101.742 C81.092,102.891 83.536,103.417 85.994,103.417 C88.438,103.417 90.882,102.891 92.923,101.742 L139.012,77.154 Z"/>
<path fill-rule="evenodd"  fill="rgb(98, 98, 98)"
 d="M139.012,73.420 C141.150,72.271 142.164,70.278 141.970,68.395 C142.178,66.402 141.150,64.519 139.012,63.369 L92.923,38.700 C90.882,37.550 88.438,37.024 85.994,37.024 C83.550,37.024 81.092,37.550 79.051,38.700 L32.962,63.273 C30.824,64.422 29.907,66.415 30.004,68.298 C29.907,70.291 30.824,72.271 32.962,73.420 L79.051,98.007 C81.092,99.157 83.536,99.682 85.994,99.682 C88.438,99.682 90.882,99.157 92.923,98.007 L139.012,73.420 Z"/>
<path fill-rule="evenodd"  fill="rgb(127, 127, 127)"
 d="M139.012,72.154 C141.150,71.006 142.164,69.012 141.970,67.129 C142.178,65.136 141.150,63.253 139.012,62.103 L92.923,37.434 C90.882,36.284 88.438,35.759 85.994,35.759 C83.550,35.759 81.092,36.284 79.051,37.434 L32.962,62.007 C30.824,63.156 29.907,65.149 30.004,67.032 C29.907,69.026 30.824,71.006 32.962,72.154 L79.051,96.742 C81.092,97.891 83.536,98.417 85.994,98.417 C88.438,98.417 90.882,97.891 92.923,96.742 L139.012,72.154 Z"/>
<path fill-rule="evenodd"  fill="rgb(98, 98, 98)"
 d="M139.012,68.421 C141.150,67.272 142.164,65.278 141.970,63.395 C142.178,61.402 141.150,59.518 139.012,58.369 L92.923,33.699 C90.882,32.550 88.438,32.024 85.994,32.024 C83.550,32.024 81.092,32.550 79.051,33.699 L32.962,58.273 C30.824,59.422 29.907,61.415 30.004,63.298 C29.907,65.292 30.824,67.272 32.962,68.421 L79.051,93.007 C81.092,94.157 83.536,94.682 85.994,94.682 C88.438,94.682 90.882,94.157 92.923,93.007 L139.012,68.421 Z"/>
<path fill-rule="evenodd"  fill="rgb(127, 127, 127)"
 d="M139.012,67.155 C141.150,66.006 142.164,64.012 141.970,62.130 C142.178,60.136 141.150,58.253 139.012,57.104 L92.923,32.434 C90.882,31.284 88.438,30.759 85.994,30.759 C83.550,30.759 81.092,31.284 79.051,32.434 L32.962,57.007 C30.824,58.156 29.907,60.149 30.004,62.032 C29.907,64.026 30.824,66.006 32.962,67.155 L79.051,91.741 C81.092,92.891 83.536,93.417 85.994,93.417 C88.438,93.417 90.882,92.891 92.923,91.741 L139.012,67.155 Z"/>
<path fill-rule="evenodd"  fill="rgb(98, 98, 98)"
 d="M139.012,63.421 C141.150,62.271 142.164,60.278 141.970,58.395 C142.178,56.402 141.150,54.518 139.012,53.369 L92.923,28.699 C90.882,27.550 88.438,27.024 85.994,27.024 C83.550,27.024 81.092,27.550 79.051,28.699 L32.962,53.273 C30.824,54.422 29.907,56.415 30.004,58.298 C29.907,60.291 30.824,62.271 32.962,63.421 L79.051,88.007 C81.092,89.157 83.536,89.683 85.994,89.683 C88.438,89.683 90.882,89.157 92.923,88.007 L139.012,63.421 Z"/>
<path fill-rule="evenodd"  fill="rgb(127, 127, 127)"
 d="M139.012,62.155 C141.150,61.005 142.164,59.012 141.970,57.129 C142.178,55.136 141.150,53.252 139.012,52.104 L92.923,27.433 C90.882,26.284 88.438,25.758 85.994,25.758 C83.550,25.758 81.092,26.284 79.051,27.433 L32.962,52.007 C30.824,53.156 29.907,55.150 30.004,57.032 C29.907,59.026 30.824,61.005 32.962,62.155 L79.051,86.741 C81.092,87.891 83.536,88.417 85.994,88.417 C88.438,88.417 90.882,87.891 92.923,86.741 L139.012,62.155 Z"/>
<path fill-rule="evenodd"  fill="rgb(98, 98, 98)"
 d="M139.012,58.421 C141.150,57.271 142.164,55.278 141.970,53.395 C142.178,51.402 141.150,49.519 139.012,48.369 L92.923,23.700 C90.882,22.550 88.438,22.024 85.994,22.024 C83.550,22.024 81.092,22.550 79.051,23.700 L32.962,48.273 C30.824,49.422 29.907,51.415 30.004,53.298 C29.907,55.291 30.824,57.271 32.962,58.421 L79.051,83.007 C81.092,84.156 83.536,84.683 85.994,84.683 C88.438,84.683 90.882,84.156 92.923,83.007 L139.012,58.421 Z"/>
<path fill-rule="evenodd"  fill="rgb(127, 127, 127)"
 d="M139.012,57.155 C141.150,56.005 142.164,54.012 141.970,52.130 C142.178,50.136 141.150,48.253 139.012,47.104 L92.923,22.434 C90.882,21.285 88.438,20.759 85.994,20.759 C83.550,20.759 81.092,21.285 79.051,22.434 L32.962,47.007 C30.824,48.156 29.907,50.150 30.004,52.032 C29.907,54.026 30.824,56.005 32.962,57.155 L79.051,81.742 C81.092,82.891 83.536,83.417 85.994,83.417 C88.438,83.417 90.882,82.891 92.923,81.742 L139.012,57.155 Z"/>
<path fill-rule="evenodd"  fill="rgb(98, 98, 98)"
 d="M139.012,53.421 C141.150,52.272 142.164,50.278 141.970,48.395 C142.178,46.402 141.150,44.519 139.012,43.369 L92.923,18.699 C90.882,17.550 88.438,17.024 85.994,17.024 C83.550,17.024 81.092,17.550 79.051,18.699 L32.962,43.273 C30.824,44.422 29.907,46.415 30.004,48.298 C29.907,50.291 30.824,52.272 32.962,53.421 L79.051,78.007 C81.092,79.157 83.536,79.682 85.994,79.682 C88.438,79.682 90.882,79.157 92.923,78.007 L139.012,53.421 Z"/>
<path fill-rule="evenodd"  fill="rgb(127, 127, 127)"
 d="M139.012,52.155 C141.150,51.006 142.164,49.012 141.970,47.129 C142.178,45.136 141.150,43.253 139.012,42.104 L92.923,17.434 C90.882,16.284 88.438,15.758 85.994,15.758 C83.550,15.758 81.092,16.284 79.051,17.434 L32.962,42.007 C30.824,43.156 29.907,45.150 30.004,47.032 C29.907,49.026 30.824,51.006 32.962,52.155 L79.051,76.741 C81.092,77.891 83.536,78.417 85.994,78.417 C88.438,78.417 90.882,77.891 92.923,76.741 L139.012,52.155 Z"/>
<path fill-rule="evenodd"  fill="rgb(98, 98, 98)"
 d="M139.012,48.420 C141.150,47.271 142.164,45.278 141.970,43.395 C142.178,41.402 141.150,39.519 139.012,38.369 L92.923,13.699 C90.882,12.550 88.438,12.024 85.994,12.024 C83.550,12.024 81.092,12.550 79.051,13.699 L32.962,38.273 C30.824,39.422 29.907,41.415 30.004,43.298 C29.907,45.291 30.824,47.271 32.962,48.420 L79.051,73.007 C81.092,74.157 83.536,74.682 85.994,74.682 C88.438,74.682 90.882,74.157 92.923,73.007 L139.012,48.420 Z"/>
<path fill-rule="evenodd"  fill="rgb(127, 127, 127)"
 d="M139.012,47.154 C141.150,46.006 142.164,44.012 141.970,42.129 C142.178,40.136 141.150,38.253 139.012,37.104 L92.923,12.434 C90.882,11.284 88.438,10.758 85.994,10.758 C83.550,10.758 81.092,11.284 79.051,12.434 L32.962,37.007 C30.824,38.156 29.907,40.149 30.004,42.032 C29.907,44.026 30.824,46.006 32.962,47.154 L79.051,71.742 C81.092,72.891 83.536,73.417 85.994,73.417 C88.438,73.417 90.882,72.891 92.923,71.742 L139.012,47.154 Z"/>
<path fill-rule="evenodd"  fill="rgb(98, 98, 98)"
 d="M139.012,43.420 C141.150,42.272 142.164,40.278 141.970,38.395 C142.178,36.402 141.150,34.519 139.012,33.369 L92.923,8.700 C90.882,7.550 88.438,7.024 85.994,7.024 C83.550,7.024 81.092,7.550 79.051,8.700 L32.962,33.273 C30.824,34.422 29.907,36.415 30.004,38.298 C29.907,40.292 30.824,42.272 32.962,43.420 L79.051,68.007 C81.092,69.157 83.536,69.682 85.994,69.682 C88.438,69.682 90.882,69.157 92.923,68.007 L139.012,43.420 Z"/>
<path fill-rule="evenodd"  fill="rgb(23, 204, 95)"
 d="M139.012,42.155 C141.150,41.006 142.164,39.012 141.970,37.129 C142.178,35.136 141.150,33.253 139.012,32.103 L92.923,7.434 C90.882,6.284 88.438,5.759 85.994,5.759 C83.550,5.759 81.092,6.284 79.051,7.434 L32.962,32.007 C30.824,33.156 29.907,35.150 30.004,37.032 C29.907,39.026 30.824,41.006 32.962,42.155 L79.051,66.742 C81.092,67.891 83.536,68.416 85.994,68.416 C88.438,68.416 90.882,67.891 92.923,66.742 L139.012,42.155 Z"/>
<path fill-rule="evenodd"  fill="rgb(23, 204, 95)"
 d="M139.012,38.421 C141.150,37.271 142.164,35.278 141.970,33.395 C142.178,31.402 141.150,29.519 139.012,28.369 L92.923,3.699 C90.882,2.550 88.438,2.024 85.994,2.024 C83.550,2.024 81.092,2.550 79.051,3.699 L32.962,28.273 C30.824,29.422 29.907,31.415 30.004,33.298 C29.907,35.291 30.824,37.271 32.962,38.421 L79.051,63.007 C81.092,64.157 83.536,64.683 85.994,64.683 C88.438,64.683 90.882,64.157 92.923,63.007 L139.012,38.421 Z"/>
<path fill-rule="evenodd"  fill="rgb(28, 227, 107)"
 d="M139.012,37.155 C141.150,36.006 142.164,34.012 141.970,32.129 C142.178,30.136 141.150,28.253 139.012,27.103 L92.923,2.433 C90.882,1.284 88.438,0.758 85.994,0.758 C83.550,0.758 81.092,1.284 79.051,2.433 L32.962,27.007 C30.824,28.156 29.907,30.150 30.004,32.032 C29.907,34.026 30.824,36.006 32.962,37.155 L79.051,61.742 C81.092,62.891 83.536,63.417 85.994,63.417 C88.438,63.417 90.882,62.891 92.923,61.742 L139.012,37.155 Z"/>
<path fill-rule="evenodd"  stroke="rgb(23, 204, 95)" stroke-width="1px" stroke-linecap="butt" stroke-linejoin="miter" fill="none"
 d="M127.686,36.051 C129.366,35.134 130.164,33.543 130.011,32.040 C130.175,30.450 129.366,28.947 127.686,28.030 L91.459,8.343 C89.855,7.426 87.933,7.006 86.012,7.006 C84.091,7.006 82.159,7.426 80.555,8.343 L44.327,27.953 C42.647,28.870 41.927,30.461 42.003,31.963 C41.927,33.553 42.647,35.134 44.327,36.051 L80.555,55.671 C82.159,56.588 84.080,57.008 86.012,57.008 C87.933,57.008 89.855,56.588 91.459,55.671 L127.686,36.051 Z"/>
<path fill-rule="evenodd"  stroke="rgb(23, 204, 95)" stroke-width="1px" stroke-linecap="butt" stroke-linejoin="miter" fill="none"
 d="M88.458,12.250 L86.853,11.540 L83.108,13.196 L90.598,13.196 L91.935,14.142 L80.433,14.142 L78.025,15.325 L95.145,15.325 L97.284,16.744 L75.618,16.744 L73.746,17.926 L100.227,17.926 L102.902,19.345 L70.536,19.345 L68.129,20.765 L106.111,20.765 L108.251,22.183 L65.187,22.183 L63.314,23.366 L111.728,23.603 L113.868,24.785 L59.570,25.022 L57.430,26.204 L117.345,26.441 L119.217,27.623 L54.487,27.860 L52.348,29.279 L122.101,29.279 L124.241,30.698 L48.603,30.698 L47.635,31.881 L125.519,32.354 L124.776,33.773 L49.138,33.773 L51.010,34.956 L120.823,35.429 L118.682,36.847 L55.290,36.847 L57.162,38.030 L116.007,38.030 L114.403,39.449 L60.640,39.449 L62.244,40.632 L110.123,40.869 L108.251,42.288 L65.989,42.288 L67.861,43.470 L104.774,43.470 L102.902,44.890 L71.339,45.126 L73.211,46.309 L98.622,46.545 L96.749,47.964 L77.759,47.964 L79.630,49.383 L93.272,49.146 L91.667,50.566 L83.643,50.802 L86.853,52.458 L88.725,51.748 "/>
<path fill-rule="evenodd"  opacity="0.302" fill="rgb(0, 0, 0)"
 d="M85.994,133.416 C88.438,133.416 90.882,132.891 92.923,131.742 L139.012,107.155 C141.150,106.006 142.164,104.012 141.970,102.129 C142.178,100.136 142.252,30.145 141.970,32.129 C142.164,35.089 141.138,36.850 138.999,37.999 L97.999,59.999 C95.958,61.148 88.023,64.288 86.999,63.999 C86.990,63.996 87.969,65.686 87.939,66.928 C87.925,67.533 86.907,68.269 86.889,69.119 C86.875,69.781 87.859,70.513 87.842,71.307 C87.827,72.040 86.811,72.826 86.794,73.658 C86.779,74.421 87.763,75.224 87.746,76.060 C87.729,76.875 86.713,77.722 86.696,78.597 C86.677,79.536 87.659,80.509 87.639,81.509 C87.624,82.302 86.608,83.112 86.592,83.936 C86.575,84.813 87.558,85.708 87.541,86.615 C87.530,87.189 86.519,87.767 86.508,88.351 C86.490,89.270 87.473,90.201 87.455,91.140 C87.439,91.990 86.423,92.846 86.407,93.707 C86.390,94.589 87.373,95.475 87.356,96.362 C87.340,97.256 86.323,98.151 86.307,99.046 C86.291,99.895 87.275,100.744 87.259,101.590 C87.245,102.337 86.232,103.081 86.218,103.821 C86.204,104.600 87.189,105.376 87.175,106.145 C87.159,107.032 86.142,107.912 86.127,108.782 C86.110,109.663 87.095,110.533 87.079,111.389 C87.064,112.185 86.049,112.969 86.035,113.740 C86.020,114.589 87.005,115.422 86.990,116.236 C86.975,117.050 85.960,117.844 85.946,118.616 C85.928,119.633 86.910,120.610 86.893,121.542 C86.880,122.280 85.867,122.990 85.855,123.667 C85.840,124.491 86.826,125.267 86.813,125.990 C86.799,126.744 85.786,127.439 85.775,128.068 C85.758,129.014 86.743,129.813 86.732,130.439 C86.714,131.468 85.704,132.033 85.704,132.033 C85.704,132.033 85.886,133.416 85.994,133.416 Z"/>
<path fill-rule="evenodd"  fill="rgb(255, 255, 255)"
 d="M173.140,24.599 L154.854,24.599 C154.381,24.599 153.997,24.240 153.997,23.798 C153.997,23.357 154.381,22.999 154.854,22.999 L173.140,22.999 C173.612,22.999 173.997,23.357 173.997,23.798 C173.997,24.240 173.612,24.599 173.140,24.599 ZM166.248,36.832 C166.585,36.529 167.120,36.533 167.450,36.842 C167.780,37.151 167.784,37.650 167.459,37.964 L164.605,40.628 C164.525,40.703 164.430,40.763 164.323,40.804 C164.236,40.837 164.144,40.849 164.052,40.855 C164.032,40.856 164.016,40.865 163.996,40.865 C163.974,40.865 163.956,40.855 163.934,40.853 C163.845,40.847 163.755,40.836 163.671,40.804 C163.563,40.762 163.467,40.702 163.387,40.626 L160.533,37.964 C160.219,37.649 160.229,37.157 160.555,36.853 C160.881,36.548 161.407,36.539 161.745,36.833 L163.139,38.134 L163.139,27.864 L161.745,29.165 C161.409,29.468 160.874,29.463 160.544,29.155 C160.214,28.846 160.208,28.347 160.533,28.033 L163.391,25.366 C163.725,25.055 164.268,25.055 164.603,25.366 L167.459,28.033 C167.774,28.348 167.765,28.839 167.438,29.145 C167.112,29.449 166.585,29.458 166.248,29.164 L164.854,27.864 L164.854,38.133 L166.248,36.832 ZM154.854,41.399 L173.140,41.399 C173.612,41.399 173.997,41.757 173.997,42.199 C173.997,42.640 173.612,42.998 173.140,42.998 L154.854,42.998 C154.381,42.998 153.997,42.640 153.997,42.199 C153.997,41.757 154.381,41.399 154.854,41.399 Z"/>
</svg>
