<svg 
 xmlns="http://www.w3.org/2000/svg"
 xmlns:xlink="http://www.w3.org/1999/xlink"
 width="236.5px" height="147.5px">
<path fill-rule="evenodd"  fill="rgb(127, 127, 127)"
 d="M92.542,60.428 C93.533,59.891 94.003,58.957 93.913,58.076 C94.010,57.143 93.533,56.261 92.542,55.723 L71.173,44.174 C70.227,43.636 69.094,43.389 67.960,43.389 C66.828,43.389 65.687,43.636 64.741,44.174 L43.373,55.678 C42.381,56.216 41.956,57.149 42.001,58.030 C41.956,58.964 42.381,59.891 43.373,60.428 L64.741,71.939 C65.687,72.477 66.821,72.723 67.960,72.723 C69.094,72.723 70.227,72.477 71.173,71.939 L92.542,60.428 Z"/>
<path fill-rule="evenodd"  fill="rgb(98, 98, 98)"
 d="M92.542,58.680 C93.533,58.142 94.003,57.209 93.913,56.328 C94.010,55.395 93.533,54.513 92.542,53.975 L71.173,42.425 C70.227,41.887 69.094,41.641 67.960,41.641 C66.828,41.641 65.687,41.887 64.741,42.425 L43.373,53.930 C42.381,54.468 41.956,55.401 42.001,56.282 C41.956,57.216 42.381,58.142 43.373,58.680 L64.741,70.191 C65.687,70.729 66.821,70.975 67.960,70.975 C69.094,70.975 70.227,70.729 71.173,70.191 L92.542,58.680 Z"/>
<path fill-rule="evenodd"  fill="rgb(127, 127, 127)"
 d="M92.542,58.088 C93.533,57.550 94.003,56.617 93.913,55.735 C94.010,54.802 93.533,53.920 92.542,53.382 L71.173,41.833 C70.227,41.295 69.094,41.049 67.960,41.049 C66.828,41.049 65.687,41.295 64.741,41.833 L43.373,53.337 C42.381,53.875 41.956,54.808 42.001,55.690 C41.956,56.623 42.381,57.550 43.373,58.088 L64.741,69.598 C65.687,70.136 66.821,70.382 67.960,70.382 C69.094,70.382 70.227,70.136 71.173,69.598 L92.542,58.088 Z"/>
<path fill-rule="evenodd"  fill="rgb(98, 98, 98)"
 d="M92.542,56.340 C93.533,55.802 94.003,54.868 93.913,53.987 C94.010,53.054 93.533,52.172 92.542,51.634 L71.173,40.085 C70.227,39.547 69.094,39.300 67.960,39.300 C66.828,39.300 65.687,39.547 64.741,40.085 L43.373,51.589 C42.381,52.127 41.956,53.060 42.001,53.941 C41.956,54.875 42.381,55.802 43.373,56.340 L64.741,67.850 C65.687,68.388 66.821,68.634 67.960,68.634 C69.094,68.634 70.227,68.388 71.173,67.850 L92.542,56.340 Z"/>
<path fill-rule="evenodd"  fill="rgb(127, 127, 127)"
 d="M92.542,55.747 C93.533,55.209 94.003,54.276 93.913,53.394 C94.010,52.461 93.533,51.580 92.542,51.042 L71.173,39.492 C70.227,38.954 69.094,38.708 67.960,38.708 C66.828,38.708 65.687,38.954 64.741,39.492 L43.373,50.996 C42.381,51.534 41.956,52.468 42.001,53.349 C41.956,54.282 42.381,55.209 43.373,55.747 L64.741,67.257 C65.687,67.796 66.821,68.042 67.960,68.042 C69.094,68.042 70.227,67.796 71.173,67.257 L92.542,55.747 Z"/>
<path fill-rule="evenodd"  fill="rgb(98, 98, 98)"
 d="M92.542,53.999 C93.533,53.461 94.003,52.528 93.913,51.646 C94.010,50.713 93.533,49.831 92.542,49.293 L71.173,37.744 C70.227,37.206 69.094,36.960 67.960,36.960 C66.828,36.960 65.687,37.206 64.741,37.744 L43.373,49.248 C42.381,49.786 41.956,50.719 42.001,51.601 C41.956,52.534 42.381,53.461 43.373,53.999 L64.741,65.509 C65.687,66.047 66.821,66.294 67.960,66.294 C69.094,66.294 70.227,66.047 71.173,65.509 L92.542,53.999 Z"/>
<path fill-rule="evenodd"  fill="rgb(127, 127, 127)"
 d="M92.542,53.406 C93.533,52.868 94.003,51.935 93.913,51.054 C94.010,50.120 93.533,49.239 92.542,48.701 L71.173,37.151 C70.227,36.613 69.094,36.367 67.960,36.367 C66.828,36.367 65.687,36.613 64.741,37.151 L43.373,48.655 C42.381,49.193 41.956,50.127 42.001,51.008 C41.956,51.941 42.381,52.868 43.373,53.406 L64.741,64.917 C65.687,65.455 66.821,65.701 67.960,65.701 C69.094,65.701 70.227,65.455 71.173,64.917 L92.542,53.406 Z"/>
<path fill-rule="evenodd"  fill="rgb(98, 98, 98)"
 d="M92.542,51.658 C93.533,51.120 94.003,50.187 93.913,49.305 C94.010,48.372 93.533,47.491 92.542,46.953 L71.173,35.403 C70.227,34.865 69.094,34.619 67.960,34.619 C66.828,34.619 65.687,34.865 64.741,35.403 L43.373,46.907 C42.381,47.445 41.956,48.378 42.001,49.260 C41.956,50.193 42.381,51.120 43.373,51.658 L64.741,63.168 C65.687,63.707 66.821,63.953 67.960,63.953 C69.094,63.953 70.227,63.707 71.173,63.168 L92.542,51.658 Z"/>
<path fill-rule="evenodd"  fill="rgb(127, 127, 127)"
 d="M92.542,51.065 C93.533,50.528 94.003,49.594 93.913,48.713 C94.010,47.779 93.533,46.898 92.542,46.360 L71.173,34.810 C70.227,34.273 69.094,34.026 67.960,34.026 C66.828,34.026 65.687,34.273 64.741,34.810 L43.373,46.315 C42.381,46.853 41.956,47.786 42.001,48.667 C41.956,49.600 42.381,50.528 43.373,51.065 L64.741,62.576 C65.687,63.114 66.821,63.360 67.960,63.360 C69.094,63.360 70.227,63.114 71.173,62.576 L92.542,51.065 Z"/>
<path fill-rule="evenodd"  fill="rgb(98, 98, 98)"
 d="M92.542,49.317 C93.533,48.779 94.003,47.846 93.913,46.965 C94.010,46.031 93.533,45.150 92.542,44.612 L71.173,33.062 C70.227,32.524 69.094,32.278 67.960,32.278 C66.828,32.278 65.687,32.524 64.741,33.062 L43.373,44.566 C42.381,45.104 41.956,46.038 42.001,46.919 C41.956,47.852 42.381,48.779 43.373,49.317 L64.741,60.828 C65.687,61.366 66.821,61.612 67.960,61.612 C69.094,61.612 70.227,61.366 71.173,60.828 L92.542,49.317 Z"/>
<path fill-rule="evenodd"  fill="rgb(127, 127, 127)"
 d="M92.542,48.725 C93.533,48.187 94.003,47.253 93.913,46.372 C94.010,45.439 93.533,44.557 92.542,44.019 L71.173,32.470 C70.227,31.932 69.094,31.685 67.960,31.685 C66.828,31.685 65.687,31.932 64.741,32.470 L43.373,43.974 C42.381,44.512 41.956,45.445 42.001,46.327 C41.956,47.259 42.381,48.187 43.373,48.725 L64.741,60.235 C65.687,60.773 66.821,61.019 67.960,61.019 C69.094,61.019 70.227,60.773 71.173,60.235 L92.542,48.725 Z"/>
<path fill-rule="evenodd"  fill="rgb(98, 98, 98)"
 d="M92.542,46.976 C93.533,46.438 94.003,45.505 93.913,44.624 C94.010,43.691 93.533,42.809 92.542,42.271 L71.173,30.722 C70.227,30.184 69.094,29.937 67.960,29.937 C66.828,29.937 65.687,30.184 64.741,30.722 L43.373,42.226 C42.381,42.764 41.956,43.697 42.001,44.578 C41.956,45.512 42.381,46.438 43.373,46.976 L64.741,58.487 C65.687,59.025 66.821,59.271 67.960,59.271 C69.094,59.271 70.227,59.025 71.173,58.487 L92.542,46.976 Z"/>
<path fill-rule="evenodd"  fill="rgb(23, 204, 95)"
 d="M92.542,46.384 C93.533,45.846 94.003,44.913 93.913,44.031 C94.010,43.098 93.533,42.216 92.542,41.678 L71.173,30.129 C70.227,29.591 69.094,29.345 67.960,29.345 C66.828,29.345 65.687,29.591 64.741,30.129 L43.373,41.633 C42.381,42.171 41.956,43.104 42.001,43.986 C41.956,44.919 42.381,45.846 43.373,46.384 L64.741,57.894 C65.687,58.432 66.821,58.679 67.960,58.679 C69.094,58.679 70.227,58.432 71.173,57.894 L92.542,46.384 Z"/>
<path fill-rule="evenodd"  fill="rgb(28, 227, 107)"
 d="M92.542,45.447 C93.533,44.910 94.003,43.976 93.913,43.095 C94.010,42.162 93.533,41.280 92.542,40.742 L71.173,29.192 C70.227,28.654 69.094,28.408 67.960,28.408 C66.828,28.408 65.687,28.654 64.741,29.192 L43.373,40.697 C42.381,41.235 41.956,42.168 42.001,43.049 C41.956,43.983 42.381,44.910 43.373,45.447 L64.741,56.958 C65.687,57.496 66.821,57.742 67.960,57.742 C69.094,57.742 70.227,57.496 71.173,56.958 L92.542,45.447 Z"/>
<path fill-rule="evenodd"  fill="rgb(23, 204, 95)"
 d="M92.542,44.636 C93.533,44.098 94.003,43.164 93.913,42.283 C94.010,41.350 93.533,40.468 92.542,39.930 L71.173,28.381 C70.227,27.843 69.094,27.596 67.960,27.596 C66.828,27.596 65.687,27.843 64.741,28.381 L43.373,39.885 C42.381,40.423 41.956,41.356 42.001,42.238 C41.956,43.171 42.381,44.098 43.373,44.636 L64.741,56.146 C65.687,56.684 66.821,56.930 67.960,56.930 C69.094,56.930 70.227,56.684 71.173,56.146 L92.542,44.636 Z"/>
<path fill-rule="evenodd"  fill="rgb(28, 227, 107)"
 d="M92.542,44.043 C93.533,43.505 94.003,42.572 93.913,41.690 C94.010,40.757 93.533,39.876 92.542,39.337 L71.173,27.788 C70.227,27.250 69.094,27.004 67.960,27.004 C66.828,27.004 65.687,27.250 64.741,27.788 L43.373,39.292 C42.381,39.830 41.956,40.764 42.001,41.645 C41.956,42.578 42.381,43.505 43.373,44.043 L64.741,55.554 C65.687,56.091 66.821,56.338 67.960,56.338 C69.094,56.338 70.227,56.091 71.173,55.554 L92.542,44.043 Z"/>
<path fill-rule="evenodd"  fill="rgb(28, 227, 107)"
 d="M92.542,44.043 C93.533,43.505 94.003,42.572 93.913,41.690 C94.010,40.757 93.533,39.876 92.542,39.337 L71.173,27.788 C70.227,27.250 69.094,27.004 67.960,27.004 C66.828,27.004 65.687,27.250 64.741,27.788 L43.373,39.292 C42.381,39.830 41.956,40.764 42.001,41.645 C41.956,42.578 42.381,43.505 43.373,44.043 L64.741,55.554 C65.687,56.091 66.821,56.338 67.960,56.338 C69.094,56.338 70.227,56.091 71.173,55.554 L92.542,44.043 Z"/>
<path fill-rule="evenodd"  stroke="rgb(23, 204, 95)" stroke-width="1px" stroke-linecap="butt" stroke-linejoin="miter" fill="none"
 d="M87.291,43.526 C88.070,43.097 88.439,42.352 88.369,41.649 C88.444,40.904 88.070,40.200 87.291,39.771 L70.494,30.555 C69.751,30.125 68.860,29.929 67.969,29.929 C67.078,29.929 66.183,30.125 65.439,30.555 L48.643,39.735 C47.863,40.164 47.529,40.909 47.565,41.613 C47.529,42.357 47.863,43.097 48.643,43.526 L65.439,52.712 C66.183,53.141 67.073,53.338 67.969,53.338 C68.860,53.338 69.751,53.141 70.494,52.712 L87.291,43.526 Z"/>
<path fill-rule="evenodd"  stroke="rgb(23, 204, 95)" stroke-width="1px" stroke-linecap="butt" stroke-linejoin="miter" fill="none"
 d="M89.911,44.026 C90.796,43.536 91.215,42.688 91.135,41.886 C91.221,41.036 90.796,40.235 89.911,39.745 L70.830,29.238 C69.986,28.749 68.973,28.525 67.962,28.525 C66.950,28.525 65.932,28.749 65.087,29.238 L46.007,39.704 C45.122,40.193 44.743,41.042 44.783,41.844 C44.743,42.693 45.122,43.536 46.007,44.026 L65.087,54.497 C65.932,54.987 66.944,55.211 67.962,55.211 C68.973,55.211 69.986,54.987 70.830,54.497 L89.911,44.026 Z"/>
<path fill-rule="evenodd"  stroke="rgb(23, 204, 95)" stroke-width="1px" stroke-linecap="butt" stroke-linejoin="miter" fill="none"
 d="M69.103,32.384 L68.359,32.051 L66.622,32.827 L70.095,32.827 L70.715,33.270 L65.382,33.270 L64.267,33.823 L72.203,33.823 L73.196,34.488 L63.150,34.488 L62.282,35.041 L74.559,35.041 L75.799,35.705 L60.794,35.705 L59.678,36.370 L77.288,36.370 L78.280,37.034 L58.313,37.034 L57.446,37.588 L79.892,37.698 L80.884,38.252 L55.709,38.363 L54.717,38.916 L82.496,39.027 L83.365,39.581 L53.353,39.692 L52.361,40.356 L84.701,40.356 L85.693,41.020 L50.624,41.020 L50.176,41.574 L86.286,41.796 L85.941,42.460 L50.873,42.460 L51.741,43.013 L84.109,43.235 L83.117,43.900 L53.725,43.900 L54.593,44.453 L81.876,44.453 L81.132,45.117 L56.205,45.117 L56.950,45.671 L79.148,45.782 L78.280,46.446 L58.686,46.446 L59.553,47.000 L76.668,47.000 L75.799,47.664 L61.166,47.775 L62.034,48.328 L73.815,48.439 L72.947,49.104 L64.142,49.104 L65.011,49.768 L71.335,49.657 L70.591,50.322 L66.870,50.432 L68.359,51.208 L69.227,50.875 "/>
<path fill-rule="evenodd"  opacity="0.302" fill="rgb(0, 0, 0)"
 d="M92.542,60.578 C93.533,60.040 94.003,59.107 93.913,58.226 C94.010,57.293 94.044,40.762 93.913,41.690 C94.003,43.076 93.527,43.900 92.536,44.439 L73.526,54.738 C72.580,55.276 68.901,56.746 68.426,56.610 C68.422,56.609 68.876,57.400 68.862,57.982 C68.856,58.265 68.384,58.609 68.376,59.007 C68.369,59.317 68.825,59.660 68.818,60.032 C68.811,60.375 68.339,60.743 68.332,61.132 C68.325,61.490 68.781,61.865 68.773,62.257 C68.765,62.638 68.294,63.035 68.286,63.444 C68.278,63.884 68.732,64.340 68.723,64.808 C68.716,65.179 68.245,65.558 68.238,65.944 C68.230,66.355 68.686,66.774 68.678,67.198 C68.673,67.467 68.204,67.738 68.199,68.011 C68.191,68.441 68.646,68.877 68.638,69.317 C68.631,69.715 68.159,70.115 68.152,70.518 C68.144,70.931 68.600,71.346 68.592,71.762 C68.584,72.180 68.113,67.599 68.106,68.018 C68.098,68.416 68.555,68.813 68.547,69.209 C68.541,69.558 68.071,69.907 68.065,70.254 C68.058,70.618 68.515,70.981 68.508,71.341 C68.501,71.757 68.029,72.169 68.022,72.576 C68.015,72.988 68.527,73.153 69.818,72.678 C70.248,72.519 73.148,71.387 76.772,69.401 C83.814,65.542 92.542,60.578 92.542,60.578 Z"/>
<path fill-rule="evenodd"  fill="rgb(127, 127, 127)"
 d="M50.542,80.428 C51.533,79.890 52.003,78.957 51.913,78.076 C52.010,77.143 51.533,76.261 50.542,75.723 L29.173,64.174 C28.227,63.636 27.094,63.389 25.961,63.389 C24.828,63.389 23.688,63.636 22.741,64.174 L1.373,75.678 C0.382,76.216 -0.043,77.149 0.001,78.031 C-0.043,78.964 0.382,79.890 1.373,80.428 L22.741,91.939 C23.688,92.477 24.821,92.723 25.961,92.723 C27.094,92.723 28.227,92.477 29.173,91.939 L50.542,80.428 Z"/>
<path fill-rule="evenodd"  fill="rgb(98, 98, 98)"
 d="M50.542,78.680 C51.533,78.143 52.003,77.209 51.913,76.328 C52.010,75.394 51.533,74.513 50.542,73.975 L29.173,62.425 C28.227,61.887 27.094,61.641 25.961,61.641 C24.828,61.641 23.688,61.887 22.741,62.425 L1.373,73.930 C0.382,74.468 -0.043,75.401 0.001,76.282 C-0.043,77.215 0.382,78.143 1.373,78.680 L22.741,90.191 C23.688,90.729 24.821,90.975 25.961,90.975 C27.094,90.975 28.227,90.729 29.173,90.191 L50.542,78.680 Z"/>
<path fill-rule="evenodd"  fill="rgb(127, 127, 127)"
 d="M50.542,78.088 C51.533,77.550 52.003,76.617 51.913,75.735 C52.010,74.802 51.533,73.920 50.542,73.382 L29.173,61.833 C28.227,61.295 27.094,61.049 25.961,61.049 C24.828,61.049 23.688,61.295 22.741,61.833 L1.373,73.337 C0.382,73.875 -0.043,74.808 0.001,75.690 C-0.043,76.623 0.382,77.550 1.373,78.088 L22.741,89.598 C23.688,90.136 24.821,90.382 25.961,90.382 C27.094,90.382 28.227,90.136 29.173,89.598 L50.542,78.088 Z"/>
<path fill-rule="evenodd"  fill="rgb(98, 98, 98)"
 d="M50.542,76.340 C51.533,75.802 52.003,74.868 51.913,73.987 C52.010,73.054 51.533,72.172 50.542,71.634 L29.173,60.085 C28.227,59.547 27.094,59.300 25.961,59.300 C24.828,59.300 23.688,59.547 22.741,60.085 L1.373,71.589 C0.382,72.127 -0.043,73.060 0.001,73.942 C-0.043,74.875 0.382,75.802 1.373,76.340 L22.741,87.850 C23.688,88.388 24.821,88.634 25.961,88.634 C27.094,88.634 28.227,88.388 29.173,87.850 L50.542,76.340 Z"/>
<path fill-rule="evenodd"  fill="rgb(127, 127, 127)"
 d="M50.542,75.747 C51.533,75.209 52.003,74.276 51.913,73.394 C52.010,72.461 51.533,71.579 50.542,71.041 L29.173,59.492 C28.227,58.954 27.094,58.708 25.961,58.708 C24.828,58.708 23.688,58.954 22.741,59.492 L1.373,70.996 C0.382,71.534 -0.043,72.467 0.001,73.349 C-0.043,74.282 0.382,75.209 1.373,75.747 L22.741,87.257 C23.688,87.795 24.821,88.042 25.961,88.042 C27.094,88.042 28.227,87.795 29.173,87.257 L50.542,75.747 Z"/>
<path fill-rule="evenodd"  fill="rgb(98, 98, 98)"
 d="M50.542,73.999 C51.533,73.461 52.003,72.528 51.913,71.646 C52.010,70.713 51.533,69.831 50.542,69.293 L29.173,57.744 C28.227,57.206 27.094,56.960 25.961,56.960 C24.828,56.960 23.688,57.206 22.741,57.744 L1.373,69.248 C0.382,69.786 -0.043,70.719 0.001,71.601 C-0.043,72.534 0.382,73.461 1.373,73.999 L22.741,85.509 C23.688,86.047 24.821,86.294 25.961,86.294 C27.094,86.294 28.227,86.047 29.173,85.509 L50.542,73.999 Z"/>
<path fill-rule="evenodd"  fill="rgb(127, 127, 127)"
 d="M50.542,73.406 C51.533,72.868 52.003,71.935 51.913,71.054 C52.010,70.120 51.533,69.239 50.542,68.701 L29.173,57.151 C28.227,56.613 27.094,56.367 25.961,56.367 C24.828,56.367 23.688,56.613 22.741,57.151 L1.373,68.656 C0.382,69.193 -0.043,70.127 0.001,71.008 C-0.043,71.941 0.382,72.868 1.373,73.406 L22.741,84.917 C23.688,85.455 24.821,85.701 25.961,85.701 C27.094,85.701 28.227,85.455 29.173,84.917 L50.542,73.406 Z"/>
<path fill-rule="evenodd"  fill="rgb(98, 98, 98)"
 d="M50.542,71.658 C51.533,71.120 52.003,70.187 51.913,69.305 C52.010,68.372 51.533,67.491 50.542,66.952 L29.173,55.403 C28.227,54.865 27.094,54.619 25.961,54.619 C24.828,54.619 23.688,54.865 22.741,55.403 L1.373,66.907 C0.382,67.445 -0.043,68.379 0.001,69.260 C-0.043,70.193 0.382,71.120 1.373,71.658 L22.741,83.168 C23.688,83.706 24.821,83.953 25.961,83.953 C27.094,83.953 28.227,83.706 29.173,83.168 L50.542,71.658 Z"/>
<path fill-rule="evenodd"  fill="rgb(127, 127, 127)"
 d="M50.542,71.066 C51.533,70.527 52.003,69.594 51.913,68.713 C52.010,67.780 51.533,66.898 50.542,66.360 L29.173,54.810 C28.227,54.272 27.094,54.026 25.961,54.026 C24.828,54.026 23.688,54.272 22.741,54.810 L1.373,66.315 C0.382,66.853 -0.043,67.786 0.001,68.667 C-0.043,69.600 0.382,70.527 1.373,71.066 L22.741,82.576 C23.688,83.114 24.821,83.360 25.961,83.360 C27.094,83.360 28.227,83.114 29.173,82.576 L50.542,71.066 Z"/>
<path fill-rule="evenodd"  fill="rgb(98, 98, 98)"
 d="M50.542,69.317 C51.533,68.779 52.003,67.846 51.913,66.965 C52.010,66.031 51.533,65.150 50.542,64.612 L29.173,53.062 C28.227,52.524 27.094,52.278 25.961,52.278 C24.828,52.278 23.688,52.524 22.741,53.062 L1.373,64.567 C0.382,65.104 -0.043,66.038 0.001,66.919 C-0.043,67.852 0.382,68.779 1.373,69.317 L22.741,80.828 C23.688,81.366 24.821,81.612 25.961,81.612 C27.094,81.612 28.227,81.366 29.173,80.828 L50.542,69.317 Z"/>
<path fill-rule="evenodd"  fill="rgb(127, 127, 127)"
 d="M50.542,68.725 C51.533,68.187 52.003,67.254 51.913,66.372 C52.010,65.439 51.533,64.557 50.542,64.019 L29.173,52.470 C28.227,51.932 27.094,51.685 25.961,51.685 C24.828,51.685 23.688,51.932 22.741,52.470 L1.373,63.974 C0.382,64.512 -0.043,65.445 0.001,66.326 C-0.043,67.260 0.382,68.187 1.373,68.725 L22.741,80.235 C23.688,80.773 24.821,81.019 25.961,81.019 C27.094,81.019 28.227,80.773 29.173,80.235 L50.542,68.725 Z"/>
<path fill-rule="evenodd"  fill="rgb(98, 98, 98)"
 d="M50.542,66.977 C51.533,66.438 52.003,65.505 51.913,64.624 C52.010,63.691 51.533,62.809 50.542,62.271 L29.173,50.722 C28.227,50.183 27.094,49.937 25.961,49.937 C24.828,49.937 23.688,50.183 22.741,50.722 L1.373,62.226 C0.382,62.764 -0.043,63.697 0.001,64.578 C-0.043,65.511 0.382,66.438 1.373,66.977 L22.741,78.487 C23.688,79.025 24.821,79.271 25.961,79.271 C27.094,79.271 28.227,79.025 29.173,78.487 L50.542,66.977 Z"/>
<path fill-rule="evenodd"  fill="rgb(23, 204, 95)"
 d="M50.542,66.384 C51.533,65.846 52.003,64.913 51.913,64.031 C52.010,63.098 51.533,62.216 50.542,61.678 L29.173,50.129 C28.227,49.591 27.094,49.345 25.961,49.345 C24.828,49.345 23.688,49.591 22.741,50.129 L1.373,61.633 C0.382,62.171 -0.043,63.104 0.001,63.986 C-0.043,64.919 0.382,65.846 1.373,66.384 L22.741,77.894 C23.688,78.432 24.821,78.679 25.961,78.679 C27.094,78.679 28.227,78.432 29.173,77.894 L50.542,66.384 Z"/>
<path fill-rule="evenodd"  fill="rgb(28, 227, 107)"
 d="M50.542,65.447 C51.533,64.910 52.003,63.976 51.913,63.095 C52.010,62.162 51.533,61.280 50.542,60.742 L29.173,49.192 C28.227,48.654 27.094,48.408 25.961,48.408 C24.828,48.408 23.688,48.654 22.741,49.192 L1.373,60.697 C0.382,61.235 -0.043,62.168 0.001,63.049 C-0.043,63.983 0.382,64.910 1.373,65.447 L22.741,76.958 C23.688,77.496 24.821,77.742 25.961,77.742 C27.094,77.742 28.227,77.496 29.173,76.958 L50.542,65.447 Z"/>
<path fill-rule="evenodd"  fill="rgb(23, 204, 95)"
 d="M50.542,64.636 C51.533,64.098 52.003,63.164 51.913,62.283 C52.010,61.350 51.533,60.468 50.542,59.930 L29.173,48.381 C28.227,47.843 27.094,47.596 25.961,47.596 C24.828,47.596 23.688,47.843 22.741,48.381 L1.373,59.885 C0.382,60.423 -0.043,61.356 0.001,62.238 C-0.043,63.171 0.382,64.098 1.373,64.636 L22.741,76.146 C23.688,76.684 24.821,76.930 25.961,76.930 C27.094,76.930 28.227,76.684 29.173,76.146 L50.542,64.636 Z"/>
<path fill-rule="evenodd"  fill="rgb(28, 227, 107)"
 d="M50.542,64.043 C51.533,63.505 52.003,62.572 51.913,61.690 C52.010,60.757 51.533,59.875 50.542,59.338 L29.173,47.788 C28.227,47.250 27.094,47.004 25.961,47.004 C24.828,47.004 23.688,47.250 22.741,47.788 L1.373,59.292 C0.382,59.830 -0.043,60.763 0.001,61.645 C-0.043,62.578 0.382,63.505 1.373,64.043 L22.741,75.554 C23.688,76.091 24.821,76.338 25.961,76.338 C27.094,76.338 28.227,76.091 29.173,75.554 L50.542,64.043 Z"/>
<path fill-rule="evenodd"  fill="rgb(28, 227, 107)"
 d="M50.542,64.043 C51.533,63.505 52.003,62.572 51.913,61.690 C52.010,60.757 51.533,59.875 50.542,59.338 L29.173,47.788 C28.227,47.250 27.094,47.004 25.961,47.004 C24.828,47.004 23.688,47.250 22.741,47.788 L1.373,59.292 C0.382,59.830 -0.043,60.763 0.001,61.645 C-0.043,62.578 0.382,63.505 1.373,64.043 L22.741,75.554 C23.688,76.091 24.821,76.338 25.961,76.338 C27.094,76.338 28.227,76.091 29.173,75.554 L50.542,64.043 Z"/>
<path fill-rule="evenodd"  stroke="rgb(23, 204, 95)" stroke-width="1px" stroke-linecap="butt" stroke-linejoin="miter" fill="none"
 d="M45.291,63.526 C46.070,63.097 46.440,62.352 46.369,61.649 C46.445,60.904 46.070,60.201 45.291,59.771 L28.494,50.554 C27.751,50.125 26.859,49.929 25.969,49.929 C25.079,49.929 24.183,50.125 23.439,50.554 L6.643,59.735 C5.863,60.164 5.529,60.909 5.564,61.612 C5.529,62.357 5.863,63.097 6.643,63.526 L23.439,72.712 C24.183,73.141 25.074,73.337 25.969,73.337 C26.859,73.337 27.751,73.141 28.494,72.712 L45.291,63.526 Z"/>
<path fill-rule="evenodd"  stroke="rgb(23, 204, 95)" stroke-width="1px" stroke-linecap="butt" stroke-linejoin="miter" fill="none"
 d="M47.910,64.026 C48.795,63.536 49.215,62.687 49.135,61.886 C49.221,61.037 48.795,60.234 47.910,59.745 L28.830,49.238 C27.986,48.749 26.974,48.525 25.962,48.525 C24.950,48.525 23.933,48.749 23.088,49.238 L4.008,59.704 C3.122,60.193 2.743,61.042 2.783,61.844 C2.743,62.693 3.122,63.536 4.008,64.026 L23.088,74.497 C23.933,74.987 24.944,75.211 25.962,75.211 C26.974,75.211 27.986,74.987 28.830,74.497 L47.910,64.026 Z"/>
<path fill-rule="evenodd"  stroke="rgb(23, 204, 95)" stroke-width="1px" stroke-linecap="butt" stroke-linejoin="miter" fill="none"
 d="M27.103,52.384 L26.359,52.051 L24.622,52.826 L28.095,52.826 L28.715,53.269 L23.382,53.269 L22.267,53.823 L30.203,53.823 L31.196,54.487 L21.150,54.487 L20.282,55.041 L32.560,55.041 L33.799,55.706 L18.794,55.706 L17.678,56.370 L35.288,56.370 L36.280,57.034 L16.314,57.034 L15.445,57.588 L37.892,57.699 L38.884,58.252 L13.709,58.363 L12.717,58.917 L40.497,59.027 L41.365,59.581 L11.353,59.691 L10.361,60.356 L42.701,60.356 L43.694,61.020 L8.625,61.020 L8.176,61.574 L44.286,61.795 L43.942,62.460 L8.873,62.460 L9.741,63.014 L42.109,63.235 L41.116,63.899 L11.725,63.899 L12.593,64.453 L39.876,64.453 L39.132,65.117 L14.205,65.117 L14.949,65.671 L37.148,65.782 L36.280,66.446 L16.685,66.446 L17.554,67.000 L34.668,67.000 L33.799,67.664 L19.166,67.775 L20.034,68.329 L31.816,68.439 L30.947,69.103 L22.143,69.103 L23.010,69.768 L29.335,69.657 L28.591,70.322 L24.870,70.432 L26.359,71.207 L27.227,70.875 "/>
<path fill-rule="evenodd"  opacity="0.302" fill="rgb(0, 0, 0)"
 d="M50.542,80.578 C51.533,80.040 52.003,79.107 51.913,78.226 C52.010,77.292 52.044,60.761 51.913,61.690 C52.003,63.076 51.527,63.900 50.536,64.439 L31.526,74.738 C30.580,75.276 26.901,76.746 26.426,76.610 C26.423,76.609 26.877,77.400 26.862,77.982 C26.856,78.265 26.384,78.609 26.376,79.007 C26.369,79.318 26.825,79.660 26.817,80.032 C26.811,80.375 26.339,80.743 26.332,81.133 C26.324,81.490 26.781,81.865 26.773,82.257 C26.765,82.638 26.294,83.035 26.286,83.444 C26.277,83.884 26.732,84.340 26.723,84.808 C26.716,85.179 26.245,85.558 26.238,85.944 C26.230,86.355 26.686,86.773 26.678,87.198 C26.673,87.467 26.204,87.738 26.199,88.011 C26.191,88.441 26.646,88.877 26.638,89.317 C26.630,89.715 26.159,90.116 26.152,90.518 C26.144,90.931 26.600,91.346 26.593,91.762 C26.585,92.180 26.113,87.599 26.105,88.018 C26.098,88.416 26.555,88.813 26.547,89.209 C26.541,89.558 26.071,89.907 26.064,90.254 C26.058,90.618 26.515,90.981 26.508,91.341 C26.501,91.757 26.029,92.169 26.022,92.576 C26.014,92.988 26.528,93.154 27.818,92.678 C28.248,92.519 31.148,91.387 34.773,89.401 C41.815,85.542 50.542,80.578 50.542,80.578 Z"/>
<path fill-rule="evenodd"  fill="rgb(127, 127, 127)"
 d="M92.542,103.429 C93.533,102.891 94.003,101.958 93.913,101.076 C94.010,100.143 93.533,99.261 92.542,98.723 L71.173,87.174 C70.227,86.636 69.094,86.389 67.960,86.389 C66.828,86.389 65.687,86.636 64.741,87.174 L43.373,98.678 C42.381,99.216 41.956,100.149 42.001,101.030 C41.956,101.964 42.381,102.891 43.373,103.429 L64.741,114.939 C65.687,115.477 66.821,115.723 67.960,115.723 C69.094,115.723 70.227,115.477 71.173,114.939 L92.542,103.429 Z"/>
<path fill-rule="evenodd"  fill="rgb(98, 98, 98)"
 d="M92.542,101.680 C93.533,101.142 94.003,100.209 93.913,99.328 C94.010,98.394 93.533,97.513 92.542,96.975 L71.173,85.426 C70.227,84.887 69.094,84.641 67.960,84.641 C66.828,84.641 65.687,84.887 64.741,85.426 L43.373,96.930 C42.381,97.468 41.956,98.401 42.001,99.282 C41.956,100.216 42.381,101.142 43.373,101.680 L64.741,113.191 C65.687,113.729 66.821,113.975 67.960,113.975 C69.094,113.975 70.227,113.729 71.173,113.191 L92.542,101.680 Z"/>
<path fill-rule="evenodd"  fill="rgb(127, 127, 127)"
 d="M92.542,101.088 C93.533,100.550 94.003,99.617 93.913,98.735 C94.010,97.802 93.533,96.920 92.542,96.382 L71.173,84.833 C70.227,84.295 69.094,84.048 67.960,84.048 C66.828,84.048 65.687,84.295 64.741,84.833 L43.373,96.337 C42.381,96.875 41.956,97.808 42.001,98.690 C41.956,99.623 42.381,100.550 43.373,101.088 L64.741,112.598 C65.687,113.136 66.821,113.383 67.960,113.383 C69.094,113.383 70.227,113.136 71.173,112.598 L92.542,101.088 Z"/>
<path fill-rule="evenodd"  fill="rgb(98, 98, 98)"
 d="M92.542,99.340 C93.533,98.802 94.003,97.868 93.913,96.987 C94.010,96.054 93.533,95.172 92.542,94.634 L71.173,83.085 C70.227,82.546 69.094,82.300 67.960,82.300 C66.828,82.300 65.687,82.546 64.741,83.085 L43.373,94.589 C42.381,95.127 41.956,96.060 42.001,96.941 C41.956,97.875 42.381,98.802 43.373,99.340 L64.741,110.850 C65.687,111.388 66.821,111.634 67.960,111.634 C69.094,111.634 70.227,111.388 71.173,110.850 L92.542,99.340 Z"/>
<path fill-rule="evenodd"  fill="rgb(127, 127, 127)"
 d="M92.542,98.747 C93.533,98.209 94.003,97.276 93.913,96.394 C94.010,95.461 93.533,94.579 92.542,94.041 L71.173,82.492 C70.227,81.954 69.094,81.708 67.960,81.708 C66.828,81.708 65.687,81.954 64.741,82.492 L43.373,93.996 C42.381,94.534 41.956,95.467 42.001,96.349 C41.956,97.282 42.381,98.209 43.373,98.747 L64.741,110.258 C65.687,110.796 66.821,111.042 67.960,111.042 C69.094,111.042 70.227,110.796 71.173,110.258 L92.542,98.747 Z"/>
<path fill-rule="evenodd"  fill="rgb(98, 98, 98)"
 d="M92.542,96.999 C93.533,96.461 94.003,95.527 93.913,94.646 C94.010,93.713 93.533,92.831 92.542,92.293 L71.173,80.744 C70.227,80.206 69.094,79.960 67.960,79.960 C66.828,79.960 65.687,80.206 64.741,80.744 L43.373,92.248 C42.381,92.786 41.956,93.719 42.001,94.601 C41.956,95.534 42.381,96.461 43.373,96.999 L64.741,108.509 C65.687,109.047 66.821,109.294 67.960,109.294 C69.094,109.294 70.227,109.047 71.173,108.509 L92.542,96.999 Z"/>
<path fill-rule="evenodd"  fill="rgb(127, 127, 127)"
 d="M92.542,96.406 C93.533,95.868 94.003,94.935 93.913,94.054 C94.010,93.120 93.533,92.239 92.542,91.701 L71.173,80.151 C70.227,79.613 69.094,79.367 67.960,79.367 C66.828,79.367 65.687,79.613 64.741,80.151 L43.373,91.655 C42.381,92.193 41.956,93.127 42.001,94.008 C41.956,94.941 42.381,95.868 43.373,96.406 L64.741,107.917 C65.687,108.455 66.821,108.701 67.960,108.701 C69.094,108.701 70.227,108.455 71.173,107.917 L92.542,96.406 Z"/>
<path fill-rule="evenodd"  fill="rgb(98, 98, 98)"
 d="M92.542,94.658 C93.533,94.120 94.003,93.187 93.913,92.306 C94.010,91.372 93.533,90.491 92.542,89.953 L71.173,78.403 C70.227,77.865 69.094,77.619 67.960,77.619 C66.828,77.619 65.687,77.865 64.741,78.403 L43.373,89.907 C42.381,90.445 41.956,91.378 42.001,92.260 C41.956,93.193 42.381,94.120 43.373,94.658 L64.741,106.169 C65.687,106.707 66.821,106.953 67.960,106.953 C69.094,106.953 70.227,106.707 71.173,106.169 L92.542,94.658 Z"/>
<path fill-rule="evenodd"  fill="rgb(127, 127, 127)"
 d="M92.542,94.065 C93.533,93.528 94.003,92.594 93.913,91.713 C94.010,90.779 93.533,89.898 92.542,89.360 L71.173,77.810 C70.227,77.272 69.094,77.026 67.960,77.026 C66.828,77.026 65.687,77.272 64.741,77.810 L43.373,89.315 C42.381,89.853 41.956,90.786 42.001,91.667 C41.956,92.600 42.381,93.528 43.373,94.065 L64.741,105.576 C65.687,106.114 66.821,106.360 67.960,106.360 C69.094,106.360 70.227,106.114 71.173,105.576 L92.542,94.065 Z"/>
<path fill-rule="evenodd"  fill="rgb(98, 98, 98)"
 d="M92.542,92.317 C93.533,91.779 94.003,90.846 93.913,89.965 C94.010,89.032 93.533,88.150 92.542,87.612 L71.173,76.062 C70.227,75.524 69.094,75.278 67.960,75.278 C66.828,75.278 65.687,75.524 64.741,76.062 L43.373,87.566 C42.381,88.104 41.956,89.038 42.001,89.919 C41.956,90.852 42.381,91.779 43.373,92.317 L64.741,103.828 C65.687,104.366 66.821,104.612 67.960,104.612 C69.094,104.612 70.227,104.366 71.173,103.828 L92.542,92.317 Z"/>
<path fill-rule="evenodd"  fill="rgb(127, 127, 127)"
 d="M92.542,91.725 C93.533,91.187 94.003,90.253 93.913,89.372 C94.010,88.439 93.533,87.557 92.542,87.019 L71.173,75.470 C70.227,74.932 69.094,74.685 67.960,74.685 C66.828,74.685 65.687,74.932 64.741,75.470 L43.373,86.974 C42.381,87.512 41.956,88.445 42.001,89.327 C41.956,90.259 42.381,91.187 43.373,91.725 L64.741,103.235 C65.687,103.773 66.821,104.019 67.960,104.019 C69.094,104.019 70.227,103.773 71.173,103.235 L92.542,91.725 Z"/>
<path fill-rule="evenodd"  fill="rgb(98, 98, 98)"
 d="M92.542,89.976 C93.533,89.439 94.003,88.505 93.913,87.624 C94.010,86.691 93.533,85.809 92.542,85.271 L71.173,73.721 C70.227,73.183 69.094,72.937 67.960,72.937 C66.828,72.937 65.687,73.183 64.741,73.721 L43.373,85.226 C42.381,85.763 41.956,86.697 42.001,87.578 C41.956,88.512 42.381,89.439 43.373,89.976 L64.741,101.487 C65.687,102.025 66.821,102.271 67.960,102.271 C69.094,102.271 70.227,102.025 71.173,101.487 L92.542,89.976 Z"/>
<path fill-rule="evenodd"  fill="rgb(23, 204, 95)"
 d="M92.542,89.384 C93.533,88.846 94.003,87.913 93.913,87.031 C94.010,86.098 93.533,85.216 92.542,84.678 L71.173,73.129 C70.227,72.591 69.094,72.344 67.960,72.344 C66.828,72.344 65.687,72.591 64.741,73.129 L43.373,84.633 C42.381,85.171 41.956,86.104 42.001,86.986 C41.956,87.919 42.381,88.846 43.373,89.384 L64.741,100.894 C65.687,101.432 66.821,101.678 67.960,101.678 C69.094,101.678 70.227,101.432 71.173,100.894 L92.542,89.384 Z"/>
<path fill-rule="evenodd"  fill="rgb(28, 227, 107)"
 d="M92.542,88.447 C93.533,87.910 94.003,86.976 93.913,86.095 C94.010,85.162 93.533,84.280 92.542,83.742 L71.173,72.193 C70.227,71.654 69.094,71.408 67.960,71.408 C66.828,71.408 65.687,71.654 64.741,72.193 L43.373,83.697 C42.381,84.235 41.956,85.168 42.001,86.049 C41.956,86.983 42.381,87.910 43.373,88.447 L64.741,99.958 C65.687,100.496 66.821,100.742 67.960,100.742 C69.094,100.742 70.227,100.496 71.173,99.958 L92.542,88.447 Z"/>
<path fill-rule="evenodd"  fill="rgb(23, 204, 95)"
 d="M92.542,87.636 C93.533,87.098 94.003,86.164 93.913,85.283 C94.010,84.350 93.533,83.468 92.542,82.930 L71.173,71.381 C70.227,70.843 69.094,70.596 67.960,70.596 C66.828,70.596 65.687,70.843 64.741,71.381 L43.373,82.885 C42.381,83.423 41.956,84.356 42.001,85.238 C41.956,86.171 42.381,87.098 43.373,87.636 L64.741,99.146 C65.687,99.684 66.821,99.930 67.960,99.930 C69.094,99.930 70.227,99.684 71.173,99.146 L92.542,87.636 Z"/>
<path fill-rule="evenodd"  fill="rgb(28, 227, 107)"
 d="M92.542,87.043 C93.533,86.505 94.003,85.572 93.913,84.690 C94.010,83.757 93.533,82.876 92.542,82.337 L71.173,70.788 C70.227,70.250 69.094,70.004 67.960,70.004 C66.828,70.004 65.687,70.250 64.741,70.788 L43.373,82.292 C42.381,82.830 41.956,83.763 42.001,84.645 C41.956,85.578 42.381,86.505 43.373,87.043 L64.741,98.553 C65.687,99.091 66.821,99.338 67.960,99.338 C69.094,99.338 70.227,99.091 71.173,98.553 L92.542,87.043 Z"/>
<path fill-rule="evenodd"  fill="rgb(28, 227, 107)"
 d="M92.542,87.043 C93.533,86.505 94.003,85.572 93.913,84.690 C94.010,83.757 93.533,82.876 92.542,82.337 L71.173,70.788 C70.227,70.250 69.094,70.004 67.960,70.004 C66.828,70.004 65.687,70.250 64.741,70.788 L43.373,82.292 C42.381,82.830 41.956,83.763 42.001,84.645 C41.956,85.578 42.381,86.505 43.373,87.043 L64.741,98.553 C65.687,99.091 66.821,99.338 67.960,99.338 C69.094,99.338 70.227,99.091 71.173,98.553 L92.542,87.043 Z"/>
<path fill-rule="evenodd"  stroke="rgb(23, 204, 95)" stroke-width="1px" stroke-linecap="butt" stroke-linejoin="miter" fill="none"
 d="M87.291,86.526 C88.070,86.097 88.439,85.352 88.369,84.649 C88.444,83.904 88.070,83.200 87.291,82.771 L70.494,73.555 C69.751,73.125 68.860,72.929 67.969,72.929 C67.078,72.929 66.183,73.125 65.439,73.555 L48.643,82.735 C47.863,83.164 47.529,83.909 47.565,84.612 C47.529,85.357 47.863,86.097 48.643,86.526 L65.439,95.712 C66.183,96.141 67.073,96.338 67.969,96.338 C68.860,96.338 69.751,96.141 70.494,95.712 L87.291,86.526 Z"/>
<path fill-rule="evenodd"  stroke="rgb(23, 204, 95)" stroke-width="1px" stroke-linecap="butt" stroke-linejoin="miter" fill="none"
 d="M89.911,87.026 C90.796,86.536 91.215,85.688 91.135,84.886 C91.221,84.037 90.796,83.234 89.911,82.745 L70.830,72.238 C69.986,71.749 68.973,71.525 67.962,71.525 C66.950,71.525 65.932,71.749 65.087,72.238 L46.007,82.704 C45.122,83.194 44.743,84.042 44.783,84.844 C44.743,85.693 45.122,86.536 46.007,87.026 L65.087,97.497 C65.932,97.987 66.944,98.211 67.962,98.211 C68.973,98.211 69.986,97.987 70.830,97.497 L89.911,87.026 Z"/>
<path fill-rule="evenodd"  stroke="rgb(23, 204, 95)" stroke-width="1px" stroke-linecap="butt" stroke-linejoin="miter" fill="none"
 d="M69.103,75.384 L68.359,75.051 L66.622,75.827 L70.095,75.827 L70.715,76.269 L65.382,76.269 L64.267,76.823 L72.203,76.823 L73.196,77.488 L63.150,77.488 L62.282,78.041 L74.559,78.041 L75.799,78.705 L60.794,78.705 L59.678,79.370 L77.288,79.370 L78.280,80.034 L58.313,80.034 L57.446,80.588 L79.892,80.698 L80.884,81.252 L55.709,81.363 L54.717,81.916 L82.496,82.027 L83.365,82.581 L53.353,82.692 L52.361,83.356 L84.701,83.356 L85.693,84.020 L50.624,84.020 L50.176,84.574 L86.286,84.796 L85.941,85.460 L50.873,85.460 L51.741,86.013 L84.109,86.235 L83.117,86.899 L53.725,86.899 L54.593,87.453 L81.876,87.453 L81.132,88.117 L56.205,88.117 L56.950,88.671 L79.148,88.782 L78.280,89.446 L58.686,89.446 L59.553,90.000 L76.668,90.000 L75.799,90.664 L61.166,90.775 L62.034,91.328 L73.815,91.439 L72.947,92.103 L64.142,92.103 L65.011,92.768 L71.335,92.657 L70.591,93.322 L66.870,93.432 L68.359,94.207 L69.227,93.875 "/>
<path fill-rule="evenodd"  opacity="0.302" fill="rgb(0, 0, 0)"
 d="M92.542,103.578 C93.533,103.040 94.003,102.107 93.913,101.226 C94.010,100.293 94.044,83.762 93.913,84.690 C94.003,86.076 93.527,86.901 92.536,87.438 L73.526,97.738 C72.580,98.276 68.901,99.746 68.426,99.611 C68.422,99.609 68.876,100.400 68.862,100.982 C68.856,101.265 68.384,101.609 68.376,102.007 C68.369,102.318 68.825,102.660 68.818,103.032 C68.811,103.375 68.339,103.742 68.332,104.132 C68.325,104.490 68.781,104.865 68.773,105.257 C68.765,105.638 68.294,106.035 68.286,106.445 C68.278,106.885 68.732,107.340 68.723,107.808 C68.716,108.179 68.245,108.558 68.238,108.944 C68.230,109.355 68.686,109.774 68.678,110.198 C68.673,110.467 68.204,110.738 68.199,111.011 C68.191,111.441 68.646,111.877 68.638,112.317 C68.631,112.715 68.159,113.116 68.152,113.519 C68.144,113.931 68.600,114.346 68.592,114.762 C68.584,115.180 68.113,110.599 68.106,111.018 C68.098,111.416 68.555,111.813 68.547,112.209 C68.541,112.558 68.071,112.907 68.065,113.253 C68.058,113.618 68.515,113.981 68.508,114.342 C68.501,114.757 68.029,115.169 68.022,115.576 C68.015,115.988 68.527,116.154 69.818,115.678 C70.248,115.519 73.148,114.387 76.772,112.401 C83.814,108.542 92.542,103.578 92.542,103.578 Z"/>
<path fill-rule="evenodd"  stroke="rgb(127, 127, 127)" stroke-width="1px" stroke-dasharray="4, 2" stroke-linecap="butt" stroke-linejoin="miter" fill="none"
 d="M222.541,59.428 C223.533,58.891 224.003,57.957 223.913,57.076 C224.010,56.143 223.533,55.261 222.541,54.723 L201.173,43.174 C200.227,42.636 199.094,42.389 197.960,42.389 C196.827,42.389 195.688,42.636 194.741,43.174 L173.373,54.678 C172.381,55.216 171.957,56.149 172.001,57.030 C171.957,57.964 172.381,58.891 173.373,59.428 L194.741,70.939 C195.688,71.477 196.821,71.723 197.960,71.723 C199.094,71.723 200.227,71.477 201.173,70.939 L222.541,59.428 Z"/>
<path fill-rule="evenodd"  stroke="rgb(127, 127, 127)" stroke-width="1px" stroke-dasharray="4, 2" stroke-linecap="butt" stroke-linejoin="miter" fill="none"
 d="M222.541,43.043 C223.533,42.505 224.003,41.572 223.913,40.690 C224.010,39.757 223.533,38.875 222.541,38.337 L201.173,26.788 C200.227,26.250 199.094,26.004 197.960,26.004 C196.827,26.004 195.688,26.250 194.741,26.788 L173.373,38.292 C172.381,38.830 171.957,39.763 172.001,40.645 C171.957,41.578 172.381,42.505 173.373,43.043 L194.741,54.554 C195.688,55.092 196.821,55.338 197.960,55.338 C199.094,55.338 200.227,55.092 201.173,54.554 L222.541,43.043 Z"/>
<path fill-rule="evenodd"  stroke="rgb(127, 127, 127)" stroke-width="1px" stroke-dasharray="2, 2" stroke-linecap="butt" stroke-linejoin="miter" fill="none"
 d="M172.999,42.000 L172.999,56.000 "/>
<path fill-rule="evenodd"  stroke="rgb(127, 127, 127)" stroke-width="1px" stroke-dasharray="2, 2" stroke-linecap="butt" stroke-linejoin="miter" fill="none"
 d="M199.000,27.000 L199.000,41.000 "/>
<path fill-rule="evenodd"  stroke="rgb(127, 127, 127)" stroke-width="1px" stroke-dasharray="2, 2" stroke-linecap="butt" stroke-linejoin="miter" fill="none"
 d="M197.999,56.000 L197.999,70.000 "/>
<path fill-rule="evenodd"  stroke="rgb(127, 127, 127)" stroke-width="1px" stroke-dasharray="2, 2" stroke-linecap="butt" stroke-linejoin="miter" fill="none"
 d="M224.000,43.000 L224.000,57.000 "/>
<path fill-rule="evenodd"  fill="rgb(23, 204, 95)"
 d="M180.542,80.428 C181.533,79.890 182.003,78.957 181.913,78.076 C182.010,77.143 181.533,76.261 180.542,75.723 L159.173,64.174 C158.227,63.636 157.093,63.389 155.960,63.389 C154.827,63.389 153.688,63.636 152.742,64.174 L131.373,75.678 C130.381,76.216 129.956,77.149 130.002,78.031 C129.956,78.964 130.381,79.890 131.373,80.428 L152.742,91.939 C153.688,92.477 154.821,92.723 155.960,92.723 C157.093,92.723 158.227,92.477 159.173,91.939 L180.542,80.428 Z"/>
<path fill-rule="evenodd"  fill="rgb(19, 174, 81)"
 d="M180.542,78.680 C181.533,78.143 182.003,77.209 181.913,76.328 C182.010,75.394 181.533,74.513 180.542,73.975 L159.173,62.425 C158.227,61.887 157.093,61.641 155.960,61.641 C154.827,61.641 153.688,61.887 152.742,62.425 L131.373,73.930 C130.381,74.468 129.956,75.401 130.002,76.282 C129.956,77.215 130.381,78.143 131.373,78.680 L152.742,90.191 C153.688,90.729 154.821,90.975 155.960,90.975 C157.093,90.975 158.227,90.729 159.173,90.191 L180.542,78.680 Z"/>
<path fill-rule="evenodd"  fill="rgb(23, 204, 95)"
 d="M180.542,78.088 C181.533,77.550 182.003,76.617 181.913,75.735 C182.010,74.802 181.533,73.920 180.542,73.382 L159.173,61.833 C158.227,61.295 157.093,61.049 155.960,61.049 C154.827,61.049 153.688,61.295 152.742,61.833 L131.373,73.337 C130.381,73.875 129.956,74.808 130.002,75.690 C129.956,76.623 130.381,77.550 131.373,78.088 L152.742,89.598 C153.688,90.136 154.821,90.382 155.960,90.382 C157.093,90.382 158.227,90.136 159.173,89.598 L180.542,78.088 Z"/>
<path fill-rule="evenodd"  fill="rgb(19, 174, 81)"
 d="M180.542,76.340 C181.533,75.802 182.003,74.868 181.913,73.987 C182.010,73.054 181.533,72.172 180.542,71.634 L159.173,60.085 C158.227,59.547 157.093,59.300 155.960,59.300 C154.827,59.300 153.688,59.547 152.742,60.085 L131.373,71.589 C130.381,72.127 129.956,73.060 130.002,73.942 C129.956,74.875 130.381,75.802 131.373,76.340 L152.742,87.850 C153.688,88.388 154.821,88.634 155.960,88.634 C157.093,88.634 158.227,88.388 159.173,87.850 L180.542,76.340 Z"/>
<path fill-rule="evenodd"  fill="rgb(23, 204, 95)"
 d="M180.542,75.747 C181.533,75.209 182.003,74.276 181.913,73.394 C182.010,72.461 181.533,71.579 180.542,71.041 L159.173,59.492 C158.227,58.954 157.093,58.708 155.960,58.708 C154.827,58.708 153.688,58.954 152.742,59.492 L131.373,70.996 C130.381,71.534 129.956,72.467 130.002,73.349 C129.956,74.282 130.381,75.209 131.373,75.747 L152.742,87.257 C153.688,87.795 154.821,88.042 155.960,88.042 C157.093,88.042 158.227,87.795 159.173,87.257 L180.542,75.747 Z"/>
<path fill-rule="evenodd"  fill="rgb(19, 174, 81)"
 d="M180.542,73.999 C181.533,73.461 182.003,72.528 181.913,71.646 C182.010,70.713 181.533,69.831 180.542,69.293 L159.173,57.744 C158.227,57.206 157.093,56.960 155.960,56.960 C154.827,56.960 153.688,57.206 152.742,57.744 L131.373,69.248 C130.381,69.786 129.956,70.719 130.002,71.601 C129.956,72.534 130.381,73.461 131.373,73.999 L152.742,85.509 C153.688,86.047 154.821,86.294 155.960,86.294 C157.093,86.294 158.227,86.047 159.173,85.509 L180.542,73.999 Z"/>
<path fill-rule="evenodd"  fill="rgb(23, 204, 95)"
 d="M180.542,73.406 C181.533,72.868 182.003,71.935 181.913,71.054 C182.010,70.120 181.533,69.239 180.542,68.701 L159.173,57.151 C158.227,56.613 157.093,56.367 155.960,56.367 C154.827,56.367 153.688,56.613 152.742,57.151 L131.373,68.656 C130.381,69.193 129.956,70.127 130.002,71.008 C129.956,71.941 130.381,72.868 131.373,73.406 L152.742,84.917 C153.688,85.455 154.821,85.701 155.960,85.701 C157.093,85.701 158.227,85.455 159.173,84.917 L180.542,73.406 Z"/>
<path fill-rule="evenodd"  fill="rgb(19, 174, 81)"
 d="M180.542,71.658 C181.533,71.120 182.003,70.187 181.913,69.305 C182.010,68.372 181.533,67.491 180.542,66.952 L159.173,55.403 C158.227,54.865 157.093,54.619 155.960,54.619 C154.827,54.619 153.688,54.865 152.742,55.403 L131.373,66.907 C130.381,67.445 129.956,68.379 130.002,69.260 C129.956,70.193 130.381,71.120 131.373,71.658 L152.742,83.168 C153.688,83.706 154.821,83.953 155.960,83.953 C157.093,83.953 158.227,83.706 159.173,83.168 L180.542,71.658 Z"/>
<path fill-rule="evenodd"  fill="rgb(23, 204, 95)"
 d="M180.542,71.066 C181.533,70.527 182.003,69.594 181.913,68.713 C182.010,67.780 181.533,66.898 180.542,66.360 L159.173,54.810 C158.227,54.272 157.093,54.026 155.960,54.026 C154.827,54.026 153.688,54.272 152.742,54.810 L131.373,66.315 C130.381,66.853 129.956,67.786 130.002,68.667 C129.956,69.600 130.381,70.527 131.373,71.066 L152.742,82.576 C153.688,83.114 154.821,83.360 155.960,83.360 C157.093,83.360 158.227,83.114 159.173,82.576 L180.542,71.066 Z"/>
<path fill-rule="evenodd"  fill="rgb(19, 174, 81)"
 d="M180.542,69.317 C181.533,68.779 182.003,67.846 181.913,66.965 C182.010,66.031 181.533,65.150 180.542,64.612 L159.173,53.062 C158.227,52.524 157.093,52.278 155.960,52.278 C154.827,52.278 153.688,52.524 152.742,53.062 L131.373,64.567 C130.381,65.104 129.956,66.038 130.002,66.919 C129.956,67.852 130.381,68.779 131.373,69.317 L152.742,80.828 C153.688,81.366 154.821,81.612 155.960,81.612 C157.093,81.612 158.227,81.366 159.173,80.828 L180.542,69.317 Z"/>
<path fill-rule="evenodd"  fill="rgb(23, 204, 95)"
 d="M180.542,68.725 C181.533,68.187 182.003,67.254 181.913,66.372 C182.010,65.439 181.533,64.557 180.542,64.019 L159.173,52.470 C158.227,51.932 157.093,51.685 155.960,51.685 C154.827,51.685 153.688,51.932 152.742,52.470 L131.373,63.974 C130.381,64.512 129.956,65.445 130.002,66.326 C129.956,67.260 130.381,68.187 131.373,68.725 L152.742,80.235 C153.688,80.773 154.821,81.019 155.960,81.019 C157.093,81.019 158.227,80.773 159.173,80.235 L180.542,68.725 Z"/>
<path fill-rule="evenodd"  fill="rgb(19, 174, 81)"
 d="M180.542,66.977 C181.533,66.438 182.003,65.505 181.913,64.624 C182.010,63.691 181.533,62.809 180.542,62.271 L159.173,50.722 C158.227,50.183 157.093,49.937 155.960,49.937 C154.827,49.937 153.688,50.183 152.742,50.722 L131.373,62.226 C130.381,62.764 129.956,63.697 130.002,64.578 C129.956,65.511 130.381,66.438 131.373,66.977 L152.742,78.487 C153.688,79.025 154.821,79.271 155.960,79.271 C157.093,79.271 158.227,79.025 159.173,78.487 L180.542,66.977 Z"/>
<path fill-rule="evenodd"  fill="rgb(23, 204, 95)"
 d="M180.542,66.384 C181.533,65.846 182.003,64.913 181.913,64.031 C182.010,63.098 181.533,62.216 180.542,61.678 L159.173,50.129 C158.227,49.591 157.093,49.345 155.960,49.345 C154.827,49.345 153.688,49.591 152.742,50.129 L131.373,61.633 C130.381,62.171 129.956,63.104 130.002,63.986 C129.956,64.919 130.381,65.846 131.373,66.384 L152.742,77.894 C153.688,78.432 154.821,78.679 155.960,78.679 C157.093,78.679 158.227,78.432 159.173,77.894 L180.542,66.384 Z"/>
<path fill-rule="evenodd"  fill="rgb(28, 227, 107)"
 d="M180.542,65.447 C181.533,64.910 182.003,63.976 181.913,63.095 C182.010,62.162 181.533,61.280 180.542,60.742 L159.173,49.192 C158.227,48.654 157.093,48.408 155.960,48.408 C154.827,48.408 153.688,48.654 152.742,49.192 L131.373,60.697 C130.381,61.235 129.956,62.168 130.002,63.049 C129.956,63.983 130.381,64.910 131.373,65.447 L152.742,76.958 C153.688,77.496 154.821,77.742 155.960,77.742 C157.093,77.742 158.227,77.496 159.173,76.958 L180.542,65.447 Z"/>
<path fill-rule="evenodd"  fill="rgb(23, 204, 95)"
 d="M180.542,64.636 C181.533,64.098 182.003,63.164 181.913,62.283 C182.010,61.350 181.533,60.468 180.542,59.930 L159.173,48.381 C158.227,47.843 157.093,47.596 155.960,47.596 C154.827,47.596 153.688,47.843 152.742,48.381 L131.373,59.885 C130.381,60.423 129.956,61.356 130.002,62.238 C129.956,63.171 130.381,64.098 131.373,64.636 L152.742,76.146 C153.688,76.684 154.821,76.930 155.960,76.930 C157.093,76.930 158.227,76.684 159.173,76.146 L180.542,64.636 Z"/>
<path fill-rule="evenodd"  fill="rgb(28, 227, 107)"
 d="M180.542,64.043 C181.533,63.505 182.003,62.572 181.913,61.690 C182.010,60.757 181.533,59.875 180.542,59.338 L159.173,47.788 C158.227,47.250 157.093,47.004 155.960,47.004 C154.827,47.004 153.688,47.250 152.742,47.788 L131.373,59.292 C130.381,59.830 129.956,60.763 130.002,61.645 C129.956,62.578 130.381,63.505 131.373,64.043 L152.742,75.554 C153.688,76.091 154.821,76.338 155.960,76.338 C157.093,76.338 158.227,76.091 159.173,75.554 L180.542,64.043 Z"/>
<path fill-rule="evenodd"  fill="rgb(28, 227, 107)"
 d="M180.542,64.043 C181.533,63.505 182.003,62.572 181.913,61.690 C182.010,60.757 181.533,59.875 180.542,59.338 L159.173,47.788 C158.227,47.250 157.093,47.004 155.960,47.004 C154.827,47.004 153.688,47.250 152.742,47.788 L131.373,59.292 C130.381,59.830 129.956,60.763 130.002,61.645 C129.956,62.578 130.381,63.505 131.373,64.043 L152.742,75.554 C153.688,76.091 154.821,76.338 155.960,76.338 C157.093,76.338 158.227,76.091 159.173,75.554 L180.542,64.043 Z"/>
<path fill-rule="evenodd"  stroke="rgb(23, 204, 95)" stroke-width="1px" stroke-linecap="butt" stroke-linejoin="miter" fill="none"
 d="M175.291,63.526 C176.070,63.097 176.439,62.352 176.369,61.649 C176.444,60.904 176.070,60.201 175.291,59.771 L158.494,50.554 C157.751,50.125 156.860,49.929 155.969,49.929 C155.079,49.929 154.182,50.125 153.439,50.554 L136.642,59.735 C135.863,60.164 135.529,60.909 135.564,61.612 C135.529,62.357 135.863,63.097 136.642,63.526 L153.439,72.712 C154.182,73.141 155.073,73.337 155.969,73.337 C156.860,73.337 157.751,73.141 158.494,72.712 L175.291,63.526 Z"/>
<path fill-rule="evenodd"  stroke="rgb(23, 204, 95)" stroke-width="1px" stroke-linecap="butt" stroke-linejoin="miter" fill="none"
 d="M177.910,64.026 C178.796,63.536 179.215,62.687 179.135,61.886 C179.221,61.037 178.796,60.234 177.910,59.745 L158.831,49.238 C157.985,48.749 156.974,48.525 155.962,48.525 C154.950,48.525 153.932,48.749 153.087,49.238 L134.008,59.704 C133.122,60.193 132.743,61.042 132.783,61.844 C132.743,62.693 133.122,63.536 134.008,64.026 L153.087,74.497 C153.932,74.987 154.944,75.211 155.962,75.211 C156.974,75.211 157.985,74.987 158.831,74.497 L177.910,64.026 Z"/>
<path fill-rule="evenodd"  stroke="rgb(23, 204, 95)" stroke-width="1px" stroke-linecap="butt" stroke-linejoin="miter" fill="none"
 d="M157.103,52.384 L156.359,52.051 L154.623,52.826 L158.095,52.826 L158.715,53.269 L153.383,53.269 L152.267,53.823 L160.203,53.823 L161.196,54.487 L151.150,54.487 L150.282,55.041 L162.559,55.041 L163.800,55.706 L148.794,55.706 L147.678,56.370 L165.288,56.370 L166.280,57.034 L146.313,57.034 L145.445,57.588 L167.892,57.699 L168.884,58.252 L143.710,58.363 L142.717,58.917 L170.496,59.027 L171.365,59.581 L141.353,59.691 L140.361,60.356 L172.701,60.356 L173.693,61.020 L138.625,61.020 L138.176,61.574 L174.286,61.795 L173.941,62.460 L138.873,62.460 L139.741,63.014 L172.108,63.235 L171.117,63.899 L141.725,63.899 L142.593,64.453 L169.876,64.453 L169.132,65.117 L144.205,65.117 L144.950,65.671 L167.148,65.782 L166.280,66.446 L146.686,66.446 L147.554,67.000 L164.667,67.000 L163.800,67.664 L149.166,67.775 L150.034,68.329 L161.815,68.439 L160.948,69.103 L152.142,69.103 L153.010,69.768 L159.335,69.657 L158.591,70.322 L154.871,70.432 L156.359,71.207 L157.227,70.875 "/>
<path fill-rule="evenodd"  opacity="0.302" fill="rgb(0, 0, 0)"
 d="M180.542,80.578 C181.533,80.040 182.003,79.107 181.913,78.226 C182.010,77.292 182.044,60.761 181.913,61.690 C182.003,63.076 181.527,63.900 180.536,64.439 L161.527,74.738 C160.580,75.276 156.901,76.746 156.427,76.610 C156.422,76.609 156.876,77.400 156.862,77.982 C156.855,78.265 156.384,78.609 156.376,79.007 C156.369,79.318 156.825,79.660 156.818,80.032 C156.811,80.375 156.339,80.743 156.332,81.133 C156.324,81.490 156.780,81.865 156.773,82.257 C156.766,82.638 156.294,83.035 156.286,83.444 C156.278,83.884 156.732,84.340 156.723,84.808 C156.716,85.179 156.245,85.558 156.238,85.944 C156.230,86.355 156.686,86.773 156.678,87.198 C156.672,87.467 156.204,87.738 156.199,88.011 C156.191,88.441 156.646,88.877 156.638,89.317 C156.631,89.715 156.159,90.116 156.152,90.518 C156.144,90.931 156.600,91.346 156.593,91.762 C156.585,92.180 156.113,87.599 156.106,88.018 C156.098,88.416 156.555,88.813 156.547,89.209 C156.541,89.558 156.071,89.907 156.064,90.254 C156.058,90.618 156.515,90.981 156.508,91.341 C156.501,91.757 156.030,92.169 156.022,92.576 C156.015,92.988 156.528,93.154 157.818,92.678 C158.248,92.519 161.149,91.387 164.773,89.401 C171.814,85.542 180.542,80.578 180.542,80.578 Z"/>
<path fill-rule="evenodd"  stroke="rgb(127, 127, 127)" stroke-width="1px" stroke-dasharray="4, 2" stroke-linecap="butt" stroke-linejoin="miter" fill="none"
 d="M222.541,103.429 C223.533,102.891 224.003,101.958 223.913,101.076 C224.010,100.143 223.533,99.261 222.541,98.723 L201.173,87.174 C200.227,86.636 199.094,86.389 197.960,86.389 C196.827,86.389 195.688,86.636 194.741,87.174 L173.373,98.678 C172.381,99.216 171.957,100.149 172.001,101.030 C171.957,101.964 172.381,102.891 173.373,103.429 L194.741,114.939 C195.688,115.477 196.821,115.723 197.960,115.723 C199.094,115.723 200.227,115.477 201.173,114.939 L222.541,103.429 Z"/>
<path fill-rule="evenodd"  stroke="rgb(127, 127, 127)" stroke-width="1px" stroke-dasharray="4, 2" stroke-linecap="butt" stroke-linejoin="miter" fill="none"
 d="M222.541,87.043 C223.533,86.505 224.003,85.572 223.913,84.690 C224.010,83.757 223.533,82.876 222.541,82.337 L201.173,70.788 C200.227,70.250 199.094,70.004 197.960,70.004 C196.827,70.004 195.688,70.250 194.741,70.788 L173.373,82.292 C172.381,82.830 171.957,83.763 172.001,84.645 C171.957,85.578 172.381,86.505 173.373,87.043 L194.741,98.553 C195.688,99.091 196.821,99.338 197.960,99.338 C199.094,99.338 200.227,99.091 201.173,98.553 L222.541,87.043 Z"/>
<path fill-rule="evenodd"  stroke="rgb(127, 127, 127)" stroke-width="1px" stroke-dasharray="2, 2" stroke-linecap="butt" stroke-linejoin="miter" fill="none"
 d="M172.999,86.000 L172.999,100.000 "/>
<path fill-rule="evenodd"  stroke="rgb(127, 127, 127)" stroke-width="1px" stroke-dasharray="2, 2" stroke-linecap="butt" stroke-linejoin="miter" fill="none"
 d="M199.000,71.000 L199.000,85.000 "/>
<path fill-rule="evenodd"  stroke="rgb(127, 127, 127)" stroke-width="1px" stroke-dasharray="2, 2" stroke-linecap="butt" stroke-linejoin="miter" fill="none"
 d="M197.999,100.000 L197.999,114.000 "/>
<path fill-rule="evenodd"  stroke="rgb(127, 127, 127)" stroke-width="1px" stroke-dasharray="2, 2" stroke-linecap="butt" stroke-linejoin="miter" fill="none"
 d="M224.000,87.000 L224.000,101.000 "/>
<path fill-rule="evenodd"  fill="none"
 d="M115.000,-0.000 L138.000,-0.000 L138.000,7.000 L115.000,7.000 L115.000,-0.000 Z"/>
<path fill-rule="evenodd"  fill="none"
 d="M116.000,137.000 L135.000,137.000 L135.000,147.000 L116.000,147.000 L116.000,137.000 Z"/>
<path fill-rule="evenodd"  fill="rgb(255, 255, 255)"
 d="M141.737,103.015 L147.970,103.015 L147.970,101.316 L146.023,101.316 L146.023,92.446 L144.496,92.446 C143.838,92.861 143.124,93.132 142.087,93.332 L142.087,94.632 L143.964,94.632 L143.964,101.316 L141.737,101.316 L141.737,103.015 Z"/>
<path fill-rule="evenodd"  fill="rgb(255, 255, 255)"
 d="M212.191,125.015 L219.139,125.015 L219.139,123.244 L216.883,123.244 C216.407,123.244 215.721,123.301 215.202,123.359 C217.094,121.473 218.648,119.417 218.648,117.503 C218.648,115.532 217.346,114.247 215.384,114.247 C213.970,114.247 213.045,114.818 212.093,115.846 L213.213,116.989 C213.732,116.403 214.362,115.903 215.118,115.903 C216.099,115.903 216.673,116.546 216.673,117.617 C216.673,119.245 215.006,121.231 212.191,123.802 L212.191,125.015 Z"/>
<path fill-rule="evenodd"  fill="rgb(255, 255, 255)"
 d="M231.427,55.215 C233.402,55.215 235.069,54.087 235.069,52.145 C235.069,50.759 234.172,49.874 232.996,49.545 L232.996,49.474 C234.102,49.031 234.733,48.203 234.733,47.060 C234.733,45.246 233.373,44.246 231.371,44.246 C230.152,44.246 229.157,44.746 228.261,45.546 L229.311,46.832 C229.928,46.260 230.530,45.903 231.273,45.889 C232.155,45.903 232.659,46.389 232.659,47.217 C232.659,48.160 232.043,48.831 230.138,48.831 L230.138,50.345 C232.393,50.345 232.996,50.988 232.996,52.030 C232.996,52.973 232.281,53.501 231.231,53.501 C230.292,53.501 229.536,53.030 228.919,52.416 L227.953,53.744 C228.681,54.587 229.788,55.215 231.427,55.215 Z"/>
<path fill-rule="evenodd"  fill="rgb(84, 84, 84)"
 d="M114.000,21.000 L115.000,21.000 L115.000,121.000 L114.000,121.000 L114.000,21.000 Z"/>
</svg>
