<svg 
 xmlns="http://www.w3.org/2000/svg"
 xmlns:xlink="http://www.w3.org/1999/xlink"
 width="196.5px" height="147.5px">
<path fill-rule="evenodd"  fill="none"
 d="M-0.000,136.000 L9.999,136.000 L9.999,147.000 L-0.000,147.000 L-0.000,136.000 Z"/>
<path fill-rule="evenodd"  fill="rgb(127, 127, 127)"
 d="M150.011,106.750 C152.150,105.601 153.163,103.607 152.970,101.724 C153.178,99.731 152.150,97.847 150.011,96.698 L103.923,72.028 C101.882,70.879 99.438,70.353 96.994,70.353 C94.549,70.353 92.092,70.879 90.050,72.028 L43.962,96.602 C41.823,97.750 40.907,99.744 41.004,101.627 C40.907,103.620 41.823,105.601 43.962,106.750 L90.050,131.336 C92.092,132.486 94.536,133.011 96.994,133.011 C99.438,133.011 101.882,132.486 103.923,131.336 L150.011,106.750 Z"/>
<path fill-rule="evenodd"  fill="rgb(98, 98, 98)"
 d="M150.011,103.420 C152.150,102.271 153.163,100.278 152.970,98.395 C153.178,96.402 152.150,94.518 150.011,93.369 L103.923,68.700 C101.882,67.550 99.438,67.024 96.994,67.024 C94.549,67.024 92.092,67.550 90.050,68.700 L43.962,93.273 C41.823,94.422 40.907,96.415 41.004,98.298 C40.907,100.291 41.823,102.271 43.962,103.420 L90.050,128.007 C92.092,129.156 94.536,129.682 96.994,129.682 C99.438,129.682 101.882,129.156 103.923,128.007 L150.011,103.420 Z"/>
<path fill-rule="evenodd"  fill="rgb(127, 127, 127)"
 d="M150.011,102.155 C152.150,101.005 153.163,99.012 152.970,97.129 C153.178,95.136 152.150,93.253 150.011,92.103 L103.923,67.433 C101.882,66.284 99.438,65.758 96.994,65.758 C94.549,65.758 92.092,66.284 90.050,67.433 L43.962,92.007 C41.823,93.156 40.907,95.149 41.004,97.032 C40.907,99.025 41.823,101.005 43.962,102.155 L90.050,126.741 C92.092,127.891 94.536,128.417 96.994,128.417 C99.438,128.417 101.882,127.891 103.923,126.741 L150.011,102.155 Z"/>
<path fill-rule="evenodd"  fill="rgb(98, 98, 98)"
 d="M150.011,98.420 C152.150,97.271 153.163,95.278 152.970,93.395 C153.178,91.402 152.150,89.518 150.011,88.369 L103.923,63.699 C101.882,62.550 99.438,62.024 96.994,62.024 C94.549,62.024 92.092,62.550 90.050,63.699 L43.962,88.273 C41.823,89.422 40.907,91.415 41.004,93.298 C40.907,95.291 41.823,97.271 43.962,98.420 L90.050,123.007 C92.092,124.156 94.536,124.682 96.994,124.682 C99.438,124.682 101.882,124.156 103.923,123.007 L150.011,98.420 Z"/>
<path fill-rule="evenodd"  fill="rgb(127, 127, 127)"
 d="M150.011,97.155 C152.150,96.005 153.163,94.012 152.970,92.129 C153.178,90.136 152.150,88.253 150.011,87.103 L103.923,62.434 C101.882,61.284 99.438,60.758 96.994,60.758 C94.549,60.758 92.092,61.284 90.050,62.434 L43.962,87.007 C41.823,88.156 40.907,90.150 41.004,92.032 C40.907,94.026 41.823,96.005 43.962,97.155 L90.050,121.741 C92.092,122.890 94.536,123.417 96.994,123.417 C99.438,123.417 101.882,122.890 103.923,121.741 L150.011,97.155 Z"/>
<path fill-rule="evenodd"  fill="rgb(98, 98, 98)"
 d="M150.011,93.420 C152.150,92.271 153.163,90.278 152.970,88.395 C153.178,86.402 152.150,84.519 150.011,83.369 L103.923,58.699 C101.882,57.550 99.438,57.024 96.994,57.024 C94.549,57.024 92.092,57.550 90.050,58.699 L43.962,83.273 C41.823,84.422 40.907,86.415 41.004,88.298 C40.907,90.291 41.823,92.271 43.962,93.420 L90.050,118.007 C92.092,119.156 94.536,119.682 96.994,119.682 C99.438,119.682 101.882,119.156 103.923,118.007 L150.011,93.420 Z"/>
<path fill-rule="evenodd"  fill="rgb(127, 127, 127)"
 d="M150.011,92.155 C152.150,91.006 153.163,89.012 152.970,87.129 C153.178,85.136 152.150,83.253 150.011,82.103 L103.923,57.434 C101.882,56.284 99.438,55.758 96.994,55.758 C94.549,55.758 92.092,56.284 90.050,57.434 L43.962,82.007 C41.823,83.156 40.907,85.149 41.004,87.032 C40.907,89.025 41.823,91.006 43.962,92.155 L90.050,116.741 C92.092,117.891 94.536,118.417 96.994,118.417 C99.438,118.417 101.882,117.891 103.923,116.741 L150.011,92.155 Z"/>
<path fill-rule="evenodd"  fill="rgb(98, 98, 98)"
 d="M150.011,88.420 C152.150,87.271 153.163,85.278 152.970,83.395 C153.178,81.402 152.150,79.518 150.011,78.369 L103.923,53.699 C101.882,52.550 99.438,52.024 96.994,52.024 C94.549,52.024 92.092,52.550 90.050,53.699 L43.962,78.272 C41.823,79.422 40.907,81.415 41.004,83.298 C40.907,85.291 41.823,87.271 43.962,88.420 L90.050,113.007 C92.092,114.156 94.536,114.682 96.994,114.682 C99.438,114.682 101.882,114.156 103.923,113.007 L150.011,88.420 Z"/>
<path fill-rule="evenodd"  fill="rgb(127, 127, 127)"
 d="M150.011,87.154 C152.150,86.006 153.163,84.012 152.970,82.129 C153.178,80.136 152.150,78.253 150.011,77.103 L103.923,52.434 C101.882,51.284 99.438,50.758 96.994,50.758 C94.549,50.758 92.092,51.284 90.050,52.434 L43.962,77.007 C41.823,78.156 40.907,80.149 41.004,82.032 C40.907,84.025 41.823,86.006 43.962,87.154 L90.050,111.741 C92.092,112.891 94.536,113.416 96.994,113.416 C99.438,113.416 101.882,112.891 103.923,111.741 L150.011,87.154 Z"/>
<path fill-rule="evenodd"  fill="rgb(98, 98, 98)"
 d="M150.011,83.420 C152.150,82.271 153.163,80.278 152.970,78.395 C153.178,76.402 152.150,74.519 150.011,73.370 L103.923,48.699 C101.882,47.550 99.438,47.024 96.994,47.024 C94.549,47.024 92.092,47.550 90.050,48.699 L43.962,73.273 C41.823,74.422 40.907,76.415 41.004,78.298 C40.907,80.291 41.823,82.271 43.962,83.420 L90.050,108.007 C92.092,109.157 94.536,109.682 96.994,109.682 C99.438,109.682 101.882,109.157 103.923,108.007 L150.011,83.420 Z"/>
<path fill-rule="evenodd"  fill="rgb(127, 127, 127)"
 d="M150.011,82.154 C152.150,81.006 153.163,79.012 152.970,77.129 C153.178,75.136 152.150,73.253 150.011,72.103 L103.923,47.434 C101.882,46.284 99.438,45.758 96.994,45.758 C94.549,45.758 92.092,46.284 90.050,47.434 L43.962,72.007 C41.823,73.156 40.907,75.149 41.004,77.032 C40.907,79.026 41.823,81.006 43.962,82.154 L90.050,106.741 C92.092,107.891 94.536,108.416 96.994,108.416 C99.438,108.416 101.882,107.891 103.923,106.741 L150.011,82.154 Z"/>
<path fill-rule="evenodd"  fill="rgb(98, 98, 98)"
 d="M150.011,78.420 C152.150,77.271 153.163,75.278 152.970,73.395 C153.178,71.402 152.150,69.518 150.011,68.369 L103.923,43.699 C101.882,42.550 99.438,42.024 96.994,42.024 C94.549,42.024 92.092,42.550 90.050,43.699 L43.962,68.273 C41.823,69.422 40.907,71.415 41.004,73.298 C40.907,75.291 41.823,77.271 43.962,78.420 L90.050,103.007 C92.092,104.157 94.536,104.682 96.994,104.682 C99.438,104.682 101.882,104.157 103.923,103.007 L150.011,78.420 Z"/>
<path fill-rule="evenodd"  fill="rgb(127, 127, 127)"
 d="M150.011,77.155 C152.150,76.005 153.163,74.012 152.970,72.129 C153.178,70.136 152.150,68.253 150.011,67.103 L103.923,42.433 C101.882,41.284 99.438,40.758 96.994,40.758 C94.549,40.758 92.092,41.284 90.050,42.433 L43.962,67.007 C41.823,68.156 40.907,70.149 41.004,72.032 C40.907,74.026 41.823,76.005 43.962,77.155 L90.050,101.741 C92.092,102.891 94.536,103.417 96.994,103.417 C99.438,103.417 101.882,102.891 103.923,101.741 L150.011,77.155 Z"/>
<path fill-rule="evenodd"  fill="rgb(98, 98, 98)"
 d="M150.011,73.420 C152.150,72.271 153.163,70.278 152.970,68.395 C153.178,66.402 152.150,64.518 150.011,63.369 L103.923,38.699 C101.882,37.550 99.438,37.024 96.994,37.024 C94.549,37.024 92.092,37.550 90.050,38.699 L43.962,63.273 C41.823,64.422 40.907,66.415 41.004,68.298 C40.907,70.291 41.823,72.271 43.962,73.420 L90.050,98.007 C92.092,99.156 94.536,99.682 96.994,99.682 C99.438,99.682 101.882,99.156 103.923,98.007 L150.011,73.420 Z"/>
<path fill-rule="evenodd"  fill="rgb(127, 127, 127)"
 d="M150.011,72.155 C152.150,71.006 153.163,69.012 152.970,67.129 C153.178,65.136 152.150,63.252 150.011,62.103 L103.923,37.433 C101.882,36.284 99.438,35.758 96.994,35.758 C94.549,35.758 92.092,36.284 90.050,37.433 L43.962,62.007 C41.823,63.156 40.907,65.150 41.004,67.032 C40.907,69.025 41.823,71.006 43.962,72.155 L90.050,96.741 C92.092,97.891 94.536,98.417 96.994,98.417 C99.438,98.417 101.882,97.891 103.923,96.741 L150.011,72.155 Z"/>
<path fill-rule="evenodd"  fill="rgb(98, 98, 98)"
 d="M150.011,68.420 C152.150,67.271 153.163,65.278 152.970,63.395 C153.178,61.402 152.150,59.518 150.011,58.369 L103.923,33.699 C101.882,32.550 99.438,32.024 96.994,32.024 C94.549,32.024 92.092,32.550 90.050,33.699 L43.962,58.273 C41.823,59.422 40.907,61.415 41.004,63.298 C40.907,65.291 41.823,67.271 43.962,68.420 L90.050,93.007 C92.092,94.156 94.536,94.682 96.994,94.682 C99.438,94.682 101.882,94.156 103.923,93.007 L150.011,68.420 Z"/>
<path fill-rule="evenodd"  fill="rgb(127, 127, 127)"
 d="M150.011,67.155 C152.150,66.005 153.163,64.012 152.970,62.129 C153.178,60.136 152.150,58.253 150.011,57.104 L103.923,32.434 C101.882,31.284 99.438,30.758 96.994,30.758 C94.549,30.758 92.092,31.284 90.050,32.434 L43.962,57.007 C41.823,58.156 40.907,60.149 41.004,62.032 C40.907,64.025 41.823,66.005 43.962,67.155 L90.050,91.742 C92.092,92.891 94.536,93.417 96.994,93.417 C99.438,93.417 101.882,92.891 103.923,91.742 L150.011,67.155 Z"/>
<path fill-rule="evenodd"  fill="rgb(98, 98, 98)"
 d="M150.011,63.421 C152.150,62.271 153.163,60.278 152.970,58.395 C153.178,56.402 152.150,54.518 150.011,53.369 L103.923,28.699 C101.882,27.550 99.438,27.024 96.994,27.024 C94.549,27.024 92.092,27.550 90.050,28.699 L43.962,53.273 C41.823,54.422 40.907,56.415 41.004,58.298 C40.907,60.291 41.823,62.271 43.962,63.421 L90.050,88.007 C92.092,89.156 94.536,89.682 96.994,89.682 C99.438,89.682 101.882,89.156 103.923,88.007 L150.011,63.421 Z"/>
<path fill-rule="evenodd"  fill="rgb(127, 127, 127)"
 d="M150.011,62.154 C152.150,61.005 153.163,59.012 152.970,57.129 C153.178,55.136 152.150,53.253 150.011,52.103 L103.923,27.434 C101.882,26.284 99.438,25.758 96.994,25.758 C94.549,25.758 92.092,26.284 90.050,27.434 L43.962,52.007 C41.823,53.156 40.907,55.149 41.004,57.032 C40.907,59.025 41.823,61.005 43.962,62.154 L90.050,86.741 C92.092,87.890 94.536,88.417 96.994,88.417 C99.438,88.417 101.882,87.890 103.923,86.741 L150.011,62.154 Z"/>
<path fill-rule="evenodd"  fill="rgb(98, 98, 98)"
 d="M150.011,58.420 C152.150,57.271 153.163,55.278 152.970,53.395 C153.178,51.402 152.150,49.519 150.011,48.369 L103.923,23.699 C101.882,22.550 99.438,22.024 96.994,22.024 C94.549,22.024 92.092,22.550 90.050,23.699 L43.962,48.272 C41.823,49.422 40.907,51.415 41.004,53.298 C40.907,55.291 41.823,57.271 43.962,58.420 L90.050,83.007 C92.092,84.156 94.536,84.682 96.994,84.682 C99.438,84.682 101.882,84.156 103.923,83.007 L150.011,58.420 Z"/>
<path fill-rule="evenodd"  fill="rgb(127, 127, 127)"
 d="M150.011,57.154 C152.150,56.006 153.163,54.012 152.970,52.129 C153.178,50.136 152.150,48.253 150.011,47.103 L103.923,22.434 C101.882,21.284 99.438,20.758 96.994,20.758 C94.549,20.758 92.092,21.284 90.050,22.434 L43.962,47.006 C41.823,48.156 40.907,50.149 41.004,52.032 C40.907,54.025 41.823,56.006 43.962,57.154 L90.050,81.741 C92.092,82.891 94.536,83.416 96.994,83.416 C99.438,83.416 101.882,82.891 103.923,81.741 L150.011,57.154 Z"/>
<path fill-rule="evenodd"  fill="rgb(98, 98, 98)"
 d="M150.011,53.420 C152.150,52.271 153.163,50.278 152.970,48.395 C153.178,46.402 152.150,44.519 150.011,43.369 L103.923,18.699 C101.882,17.550 99.438,17.024 96.994,17.024 C94.549,17.024 92.092,17.550 90.050,18.699 L43.962,43.273 C41.823,44.422 40.907,46.415 41.004,48.298 C40.907,50.291 41.823,52.271 43.962,53.420 L90.050,78.007 C92.092,79.157 94.536,79.682 96.994,79.682 C99.438,79.682 101.882,79.157 103.923,78.007 L150.011,53.420 Z"/>
<path fill-rule="evenodd"  fill="rgb(127, 127, 127)"
 d="M150.011,52.154 C152.150,51.006 153.163,49.012 152.970,47.129 C153.178,45.136 152.150,43.253 150.011,42.103 L103.923,17.433 C101.882,16.284 99.438,15.758 96.994,15.758 C94.549,15.758 92.092,16.284 90.050,17.433 L43.962,42.007 C41.823,43.156 40.907,45.149 41.004,47.032 C40.907,49.026 41.823,51.006 43.962,52.154 L90.050,76.741 C92.092,77.891 94.536,78.416 96.994,78.416 C99.438,78.416 101.882,77.891 103.923,76.741 L150.011,52.154 Z"/>
<path fill-rule="evenodd"  fill="rgb(98, 98, 98)"
 d="M150.011,48.420 C152.150,47.271 153.163,45.278 152.970,43.395 C153.178,41.402 152.150,39.518 150.011,38.369 L103.923,13.699 C101.882,12.550 99.438,12.024 96.994,12.024 C94.549,12.024 92.092,12.550 90.050,13.699 L43.962,38.273 C41.823,39.421 40.907,41.415 41.004,43.298 C40.907,45.291 41.823,47.271 43.962,48.420 L90.050,73.007 C92.092,74.156 94.536,74.682 96.994,74.682 C99.438,74.682 101.882,74.156 103.923,73.007 L150.011,48.420 Z"/>
<path fill-rule="evenodd"  fill="rgb(127, 127, 127)"
 d="M150.011,47.155 C152.150,46.006 153.163,44.012 152.970,42.129 C153.178,40.136 152.150,38.252 150.011,37.103 L103.923,12.433 C101.882,11.284 99.438,10.758 96.994,10.758 C94.549,10.758 92.092,11.284 90.050,12.433 L43.962,37.007 C41.823,38.156 40.907,40.150 41.004,42.032 C40.907,44.025 41.823,46.006 43.962,47.155 L90.050,71.741 C92.092,72.891 94.536,73.417 96.994,73.417 C99.438,73.417 101.882,72.891 103.923,71.741 L150.011,47.155 Z"/>
<path fill-rule="evenodd"  fill="rgb(98, 98, 98)"
 d="M150.011,43.420 C152.150,42.271 153.163,40.278 152.970,38.395 C153.178,36.402 152.150,34.518 150.011,33.369 L103.923,8.699 C101.882,7.550 99.438,7.024 96.994,7.024 C94.549,7.024 92.092,7.550 90.050,8.699 L43.962,33.273 C41.823,34.421 40.907,36.415 41.004,38.298 C40.907,40.291 41.823,42.271 43.962,43.420 L90.050,68.007 C92.092,69.157 94.536,69.682 96.994,69.682 C99.438,69.682 101.882,69.157 103.923,68.007 L150.011,43.420 Z"/>
<path fill-rule="evenodd"  fill="rgb(23, 204, 95)"
 d="M150.011,42.155 C152.150,41.005 153.163,39.012 152.970,37.129 C153.178,35.136 152.150,33.252 150.011,32.104 L103.923,7.433 C101.882,6.284 99.438,5.758 96.994,5.758 C94.549,5.758 92.092,6.284 90.050,7.433 L43.962,32.007 C41.823,33.156 40.907,35.150 41.004,37.032 C40.907,39.026 41.823,41.005 43.962,42.155 L90.050,66.741 C92.092,67.891 94.536,68.417 96.994,68.417 C99.438,68.417 101.882,67.891 103.923,66.741 L150.011,42.155 Z"/>
<path fill-rule="evenodd"  fill="rgb(28, 227, 107)"
 d="M150.011,40.154 C152.150,39.006 153.163,37.012 152.970,35.129 C153.178,33.136 152.150,31.253 150.011,30.103 L103.923,5.434 C101.882,4.284 99.438,3.758 96.994,3.758 C94.549,3.758 92.092,4.284 90.050,5.434 L43.962,30.006 C41.823,31.156 40.907,33.149 41.004,35.032 C40.907,37.025 41.823,39.006 43.962,40.154 L90.050,64.741 C92.092,65.891 94.536,66.416 96.994,66.416 C99.438,66.416 101.882,65.891 103.923,64.741 L150.011,40.154 Z"/>
<path fill-rule="evenodd"  fill="rgb(23, 204, 95)"
 d="M150.011,38.420 C152.150,37.271 153.163,35.278 152.970,33.395 C153.178,31.402 152.150,29.518 150.011,28.369 L103.923,3.699 C101.882,2.550 99.438,2.024 96.994,2.024 C94.549,2.024 92.092,2.550 90.050,3.699 L43.962,28.273 C41.823,29.422 40.907,31.415 41.004,33.298 C40.907,35.291 41.823,37.271 43.962,38.420 L90.050,63.007 C92.092,64.156 94.536,64.682 96.994,64.682 C99.438,64.682 101.882,64.156 103.923,63.007 L150.011,38.420 Z"/>
<path fill-rule="evenodd"  fill="rgb(28, 227, 107)"
 d="M150.011,37.155 C152.150,36.005 153.163,34.012 152.970,32.129 C153.178,30.136 152.150,28.252 150.011,27.103 L103.923,2.433 C101.882,1.284 99.438,0.758 96.994,0.758 C94.549,0.758 92.092,1.284 90.050,2.433 L43.962,27.007 C41.823,28.156 40.907,30.149 41.004,32.032 C40.907,34.025 41.823,36.005 43.962,37.155 L90.050,61.741 C92.092,62.890 94.536,63.417 96.994,63.417 C99.438,63.417 101.882,62.890 103.923,61.741 L150.011,37.155 Z"/>
<path fill-rule="evenodd"  fill="rgb(28, 227, 107)"
 d="M150.011,37.155 C152.150,36.005 153.163,34.012 152.970,32.129 C153.178,30.136 152.150,28.252 150.011,27.103 L103.923,2.433 C101.882,1.284 99.438,0.758 96.994,0.758 C94.549,0.758 92.092,1.284 90.050,2.433 L43.962,27.007 C41.823,28.156 40.907,30.149 41.004,32.032 C40.907,34.025 41.823,36.005 43.962,37.155 L90.050,61.741 C92.092,62.890 94.536,63.417 96.994,63.417 C99.438,63.417 101.882,62.890 103.923,61.741 L150.011,37.155 Z"/>
<path fill-rule="evenodd"  stroke="rgb(23, 204, 95)" stroke-width="1px" stroke-linecap="butt" stroke-linejoin="miter" fill="none"
 d="M138.686,36.051 C140.367,35.134 141.164,33.543 141.011,32.041 C141.175,30.450 140.367,28.947 138.686,28.030 L102.459,8.343 C100.855,7.426 98.933,7.006 97.012,7.006 C95.091,7.006 93.159,7.426 91.555,8.343 L55.328,27.952 C53.647,28.870 52.926,30.461 53.003,31.963 C52.926,33.554 53.647,35.134 55.328,36.051 L91.555,55.671 C93.159,56.588 95.080,57.007 97.012,57.007 C98.933,57.007 100.855,56.588 102.459,55.671 L138.686,36.051 Z"/>
<path fill-rule="evenodd"  stroke="rgb(23, 204, 95)" stroke-width="1px" stroke-linecap="butt" stroke-linejoin="miter" fill="none"
 d="M99.458,12.249 L97.853,11.540 L94.108,13.196 L101.598,13.196 L102.935,14.142 L91.433,14.142 L89.026,15.325 L106.145,15.325 L108.285,16.744 L86.619,16.744 L84.746,17.926 L111.227,17.926 L113.902,19.345 L81.537,19.345 L79.129,20.765 L117.111,20.765 L119.251,22.184 L76.186,22.184 L74.315,23.366 L122.728,23.603 L124.868,24.785 L70.570,25.021 L68.430,26.204 L128.345,26.441 L130.218,27.624 L65.487,27.860 L63.347,29.279 L133.101,29.279 L135.241,30.698 L59.603,30.698 L58.635,31.881 L136.520,32.354 L135.776,33.773 L60.138,33.773 L62.011,34.956 L131.823,35.429 L129.683,36.848 L66.290,36.848 L68.163,38.030 L127.008,38.030 L125.403,39.449 L71.639,39.449 L73.245,40.632 L121.123,40.868 L119.251,42.288 L76.989,42.288 L78.862,43.470 L115.774,43.470 L113.902,44.890 L82.339,45.126 L84.211,46.309 L109.622,46.545 L107.750,47.964 L88.759,47.964 L90.631,49.383 L104.272,49.147 L102.667,50.566 L94.643,50.802 L97.853,52.458 L99.725,51.748 "/>
<path fill-rule="evenodd"  opacity="0.302" fill="rgb(0, 0, 0)"
 d="M96.994,133.416 C99.438,133.416 101.882,132.891 103.923,131.741 L150.011,107.155 C152.150,106.006 153.163,104.012 152.970,102.129 C153.178,100.136 153.252,30.145 152.970,32.129 C153.163,35.088 152.138,36.850 149.999,37.999 L108.999,59.999 C106.958,61.148 99.022,64.288 97.999,63.999 C97.990,63.996 98.969,65.686 98.939,66.927 C98.924,67.533 97.908,68.268 97.889,69.119 C97.875,69.781 98.859,70.513 98.842,71.307 C98.827,72.040 97.811,72.825 97.794,73.658 C97.779,74.421 98.762,75.223 98.745,76.061 C98.730,76.875 97.712,77.721 97.696,78.597 C97.677,79.537 98.658,80.509 98.639,81.509 C98.623,82.302 97.607,83.111 97.592,83.936 C97.575,84.813 98.558,85.708 98.541,86.615 C98.530,87.189 97.519,87.767 97.508,88.351 C97.490,89.270 98.473,90.201 98.455,91.140 C98.439,91.990 97.422,92.846 97.406,93.707 C97.390,94.589 98.373,95.475 98.356,96.362 C98.340,97.255 97.323,98.151 97.307,99.046 C97.291,99.895 98.275,100.744 98.260,101.590 C98.245,102.337 97.231,103.081 97.218,103.821 C97.203,104.600 98.189,105.375 98.175,106.145 C98.158,107.033 97.143,107.913 97.127,108.782 C97.110,109.662 98.094,110.532 98.078,111.389 C98.064,112.185 97.049,112.969 97.036,113.740 C97.020,114.589 98.004,115.422 97.990,116.236 C97.975,117.050 96.960,117.844 96.946,118.616 C96.928,119.632 97.910,120.610 97.893,121.542 C97.880,122.280 96.867,122.990 96.854,123.667 C96.840,124.491 97.826,125.268 97.812,125.990 C97.798,126.743 96.786,127.439 96.775,128.068 C96.758,129.014 97.743,129.813 97.732,130.440 C97.714,131.467 96.704,132.033 96.704,132.033 C96.704,132.033 96.886,133.416 96.994,133.416 Z"/>
<path fill-rule="evenodd"  fill="rgb(255, 255, 255)"
 d="M195.999,44.691 L195.999,46.999 L189.161,46.999 L189.161,44.691 L191.367,44.691 L191.367,19.307 L189.161,19.307 L189.161,16.999 L195.999,16.999 L195.999,19.307 L193.573,19.307 L193.573,44.691 L195.999,44.691 ZM185.411,28.538 L182.764,29.230 L173.940,31.538 L172.396,29.692 L170.632,27.615 L166.440,22.999 L182.102,19.076 L189.823,27.384 L185.411,28.538 ZM181.440,21.614 L170.632,24.384 L173.058,26.922 L174.823,28.768 L183.646,26.692 L185.632,25.999 L181.440,21.614 ZM172.175,30.615 L170.191,31.307 L172.396,33.845 L174.161,35.691 L183.426,33.384 L184.970,32.922 L182.543,30.384 L185.190,29.692 L189.161,34.307 L185.190,35.230 L182.764,35.922 L173.499,38.230 L171.734,36.384 L169.970,34.307 L166.000,29.922 L170.411,28.768 L172.175,30.615 ZM171.734,37.538 L170.191,37.999 L174.381,42.383 L185.190,39.615 L182.764,37.076 L185.190,36.384 L189.382,40.999 L173.499,44.922 L166.000,36.615 L169.970,35.461 L171.734,37.538 Z"/>
</svg>
