<svg 
 xmlns="http://www.w3.org/2000/svg"
 xmlns:xlink="http://www.w3.org/1999/xlink"
 width="184.5px" height="147.5px">
<path fill-rule="evenodd"  fill="none"
 d="M-0.000,138.000 L6.999,138.000 L6.999,147.000 L-0.000,147.000 L-0.000,138.000 Z"/>
<path fill-rule="evenodd"  fill="rgb(127, 127, 127)"
 d="M144.011,106.749 C146.150,105.601 147.163,103.607 146.970,101.724 C147.178,99.731 146.150,97.848 144.011,96.699 L97.923,72.029 C95.882,70.879 93.438,70.353 90.994,70.353 C88.549,70.353 86.092,70.879 84.050,72.029 L37.962,96.602 C35.823,97.751 34.907,99.744 35.004,101.627 C34.907,103.620 35.823,105.601 37.962,106.749 L84.050,131.336 C86.092,132.486 88.536,133.012 90.994,133.012 C93.438,133.012 95.882,132.486 97.923,131.336 L144.011,106.749 Z"/>
<path fill-rule="evenodd"  fill="rgb(98, 98, 98)"
 d="M144.011,103.420 C146.150,102.271 147.163,100.278 146.970,98.395 C147.178,96.402 146.150,94.519 144.011,93.369 L97.923,68.699 C95.882,67.550 93.438,67.024 90.994,67.024 C88.549,67.024 86.092,67.550 84.050,68.699 L37.962,93.273 C35.823,94.422 34.907,96.415 35.004,98.298 C34.907,100.291 35.823,102.271 37.962,103.420 L84.050,128.007 C86.092,129.156 88.536,129.682 90.994,129.682 C93.438,129.682 95.882,129.156 97.923,128.007 L144.011,103.420 Z"/>
<path fill-rule="evenodd"  fill="rgb(127, 127, 127)"
 d="M144.011,102.154 C146.150,101.006 147.163,99.012 146.970,97.129 C147.178,95.136 146.150,93.253 144.011,92.104 L97.923,67.434 C95.882,66.284 93.438,65.759 90.994,65.759 C88.549,65.759 86.092,66.284 84.050,67.434 L37.962,92.007 C35.823,93.156 34.907,95.149 35.004,97.032 C34.907,99.025 35.823,101.006 37.962,102.154 L84.050,126.741 C86.092,127.891 88.536,128.416 90.994,128.416 C93.438,128.416 95.882,127.891 97.923,126.741 L144.011,102.154 Z"/>
<path fill-rule="evenodd"  fill="rgb(98, 98, 98)"
 d="M144.011,98.420 C146.150,97.271 147.163,95.278 146.970,93.395 C147.178,91.402 146.150,89.519 144.011,88.369 L97.923,63.699 C95.882,62.550 93.438,62.024 90.994,62.024 C88.549,62.024 86.092,62.550 84.050,63.699 L37.962,88.273 C35.823,89.422 34.907,91.415 35.004,93.298 C34.907,95.291 35.823,97.271 37.962,98.420 L84.050,123.007 C86.092,124.157 88.536,124.682 90.994,124.682 C93.438,124.682 95.882,124.157 97.923,123.007 L144.011,98.420 Z"/>
<path fill-rule="evenodd"  fill="rgb(127, 127, 127)"
 d="M144.011,97.154 C146.150,96.006 147.163,94.012 146.970,92.129 C147.178,90.136 146.150,88.253 144.011,87.103 L97.923,62.434 C95.882,61.284 93.438,60.758 90.994,60.758 C88.549,60.758 86.092,61.284 84.050,62.434 L37.962,87.007 C35.823,88.156 34.907,90.149 35.004,92.032 C34.907,94.026 35.823,96.006 37.962,97.154 L84.050,121.742 C86.092,122.891 88.536,123.417 90.994,123.417 C93.438,123.417 95.882,122.891 97.923,121.742 L144.011,97.154 Z"/>
<path fill-rule="evenodd"  fill="rgb(98, 98, 98)"
 d="M144.011,93.421 C146.150,92.272 147.163,90.278 146.970,88.395 C147.178,86.402 146.150,84.518 144.011,83.369 L97.923,58.699 C95.882,57.550 93.438,57.024 90.994,57.024 C88.549,57.024 86.092,57.550 84.050,58.699 L37.962,83.273 C35.823,84.422 34.907,86.415 35.004,88.298 C34.907,90.291 35.823,92.272 37.962,93.421 L84.050,118.007 C86.092,119.157 88.536,119.682 90.994,119.682 C93.438,119.682 95.882,119.157 97.923,118.007 L144.011,93.421 Z"/>
<path fill-rule="evenodd"  fill="rgb(127, 127, 127)"
 d="M144.011,92.155 C146.150,91.006 147.163,89.012 146.970,87.130 C147.178,85.136 146.150,83.252 144.011,82.103 L97.923,57.434 C95.882,56.284 93.438,55.759 90.994,55.759 C88.549,55.759 86.092,56.284 84.050,57.434 L37.962,82.007 C35.823,83.156 34.907,85.149 35.004,87.032 C34.907,89.026 35.823,91.006 37.962,92.155 L84.050,116.741 C86.092,117.891 88.536,118.417 90.994,118.417 C93.438,118.417 95.882,117.891 97.923,116.741 L144.011,92.155 Z"/>
<path fill-rule="evenodd"  fill="rgb(98, 98, 98)"
 d="M144.011,88.421 C146.150,87.271 147.163,85.278 146.970,83.395 C147.178,81.402 146.150,79.518 144.011,78.369 L97.923,53.699 C95.882,52.550 93.438,52.024 90.994,52.024 C88.549,52.024 86.092,52.550 84.050,53.699 L37.962,78.273 C35.823,79.422 34.907,81.415 35.004,83.298 C34.907,85.291 35.823,87.271 37.962,88.421 L84.050,113.007 C86.092,114.157 88.536,114.683 90.994,114.683 C93.438,114.683 95.882,114.157 97.923,113.007 L144.011,88.421 Z"/>
<path fill-rule="evenodd"  fill="rgb(127, 127, 127)"
 d="M144.011,87.155 C146.150,86.005 147.163,84.012 146.970,82.129 C147.178,80.136 146.150,78.252 144.011,77.104 L97.923,52.433 C95.882,51.284 93.438,50.758 90.994,50.758 C88.549,50.758 86.092,51.284 84.050,52.433 L37.962,77.007 C35.823,78.156 34.907,80.150 35.004,82.032 C34.907,84.026 35.823,86.005 37.962,87.155 L84.050,111.741 C86.092,112.891 88.536,113.417 90.994,113.417 C93.438,113.417 95.882,112.891 97.923,111.741 L144.011,87.155 Z"/>
<path fill-rule="evenodd"  fill="rgb(98, 98, 98)"
 d="M144.011,83.420 C146.150,82.271 147.163,80.278 146.970,78.395 C147.178,76.402 146.150,74.519 144.011,73.369 L97.923,48.700 C95.882,47.550 93.438,47.024 90.994,47.024 C88.549,47.024 86.092,47.550 84.050,48.700 L37.962,73.273 C35.823,74.422 34.907,76.415 35.004,78.298 C34.907,80.291 35.823,82.271 37.962,83.420 L84.050,108.007 C86.092,109.156 88.536,109.682 90.994,109.682 C93.438,109.682 95.882,109.156 97.923,108.007 L144.011,83.420 Z"/>
<path fill-rule="evenodd"  fill="rgb(127, 127, 127)"
 d="M144.011,82.155 C146.150,81.005 147.163,79.012 146.970,77.130 C147.178,75.136 146.150,73.253 144.011,72.104 L97.923,47.434 C95.882,46.285 93.438,45.759 90.994,45.759 C88.549,45.759 86.092,46.285 84.050,47.434 L37.962,72.007 C35.823,73.156 34.907,75.150 35.004,77.032 C34.907,79.025 35.823,81.005 37.962,82.155 L84.050,106.742 C86.092,107.891 88.536,108.417 90.994,108.417 C93.438,108.417 95.882,107.891 97.923,106.742 L144.011,82.155 Z"/>
<path fill-rule="evenodd"  fill="rgb(98, 98, 98)"
 d="M144.011,78.421 C146.150,77.271 147.163,75.278 146.970,73.395 C147.178,71.402 146.150,69.519 144.011,68.369 L97.923,43.699 C95.882,42.550 93.438,42.024 90.994,42.024 C88.549,42.024 86.092,42.550 84.050,43.699 L37.962,68.273 C35.823,69.422 34.907,71.415 35.004,73.298 C34.907,75.291 35.823,77.271 37.962,78.421 L84.050,103.007 C86.092,104.157 88.536,104.682 90.994,104.682 C93.438,104.682 95.882,104.157 97.923,103.007 L144.011,78.421 Z"/>
<path fill-rule="evenodd"  fill="rgb(127, 127, 127)"
 d="M144.011,77.155 C146.150,76.005 147.163,74.012 146.970,72.129 C147.178,70.136 146.150,68.253 144.011,67.103 L97.923,42.434 C95.882,41.284 93.438,40.758 90.994,40.758 C88.549,40.758 86.092,41.284 84.050,42.434 L37.962,67.007 C35.823,68.156 34.907,70.150 35.004,72.032 C34.907,74.026 35.823,76.005 37.962,77.155 L84.050,101.741 C86.092,102.891 88.536,103.417 90.994,103.417 C93.438,103.417 95.882,102.891 97.923,101.741 L144.011,77.155 Z"/>
<path fill-rule="evenodd"  fill="rgb(98, 98, 98)"
 d="M144.011,73.420 C146.150,72.271 147.163,70.278 146.970,68.395 C147.178,66.402 146.150,64.519 144.011,63.369 L97.923,38.699 C95.882,37.550 93.438,37.024 90.994,37.024 C88.549,37.024 86.092,37.550 84.050,38.699 L37.962,63.273 C35.823,64.422 34.907,66.415 35.004,68.298 C34.907,70.291 35.823,72.271 37.962,73.420 L84.050,98.007 C86.092,99.157 88.536,99.682 90.994,99.682 C93.438,99.682 95.882,99.157 97.923,98.007 L144.011,73.420 Z"/>
<path fill-rule="evenodd"  fill="rgb(127, 127, 127)"
 d="M144.011,72.154 C146.150,71.006 147.163,69.012 146.970,67.129 C147.178,65.136 146.150,63.253 144.011,62.104 L97.923,37.434 C95.882,36.284 93.438,35.758 90.994,35.758 C88.549,35.758 86.092,36.284 84.050,37.434 L37.962,62.007 C35.823,63.156 34.907,65.149 35.004,67.032 C34.907,69.026 35.823,71.006 37.962,72.154 L84.050,96.742 C86.092,97.891 88.536,98.417 90.994,98.417 C93.438,98.417 95.882,97.891 97.923,96.742 L144.011,72.154 Z"/>
<path fill-rule="evenodd"  fill="rgb(98, 98, 98)"
 d="M144.011,68.420 C146.150,67.272 147.163,65.278 146.970,63.395 C147.178,61.402 146.150,59.519 144.011,58.369 L97.923,33.700 C95.882,32.550 93.438,32.024 90.994,32.024 C88.549,32.024 86.092,32.550 84.050,33.700 L37.962,58.273 C35.823,59.422 34.907,61.415 35.004,63.298 C34.907,65.291 35.823,67.272 37.962,68.420 L84.050,93.007 C86.092,94.157 88.536,94.682 90.994,94.682 C93.438,94.682 95.882,94.157 97.923,93.007 L144.011,68.420 Z"/>
<path fill-rule="evenodd"  fill="rgb(127, 127, 127)"
 d="M144.011,67.155 C146.150,66.006 147.163,64.012 146.970,62.129 C147.178,60.136 146.150,58.253 144.011,57.103 L97.923,32.434 C95.882,31.284 93.438,30.759 90.994,30.759 C88.549,30.759 86.092,31.284 84.050,32.434 L37.962,57.007 C35.823,58.156 34.907,60.149 35.004,62.032 C34.907,64.026 35.823,66.006 37.962,67.155 L84.050,91.742 C86.092,92.891 88.536,93.416 90.994,93.416 C93.438,93.416 95.882,92.891 97.923,91.742 L144.011,67.155 Z"/>
<path fill-rule="evenodd"  fill="rgb(98, 98, 98)"
 d="M144.011,63.421 C146.150,62.271 147.163,60.278 146.970,58.395 C147.178,56.402 146.150,54.519 144.011,53.369 L97.923,28.699 C95.882,27.550 93.438,27.024 90.994,27.024 C88.549,27.024 86.092,27.550 84.050,28.699 L37.962,53.273 C35.823,54.422 34.907,56.415 35.004,58.298 C34.907,60.291 35.823,62.271 37.962,63.421 L84.050,88.007 C86.092,89.157 88.536,89.683 90.994,89.683 C93.438,89.683 95.882,89.157 97.923,88.007 L144.011,63.421 Z"/>
<path fill-rule="evenodd"  fill="rgb(127, 127, 127)"
 d="M144.011,62.155 C146.150,61.006 147.163,59.012 146.970,57.129 C147.178,55.136 146.150,53.253 144.011,52.103 L97.923,27.433 C95.882,26.284 93.438,25.758 90.994,25.758 C88.549,25.758 86.092,26.284 84.050,27.433 L37.962,52.007 C35.823,53.156 34.907,55.150 35.004,57.032 C34.907,59.026 35.823,61.006 37.962,62.155 L84.050,86.742 C86.092,87.891 88.536,88.417 90.994,88.417 C93.438,88.417 95.882,87.891 97.923,86.742 L144.011,62.155 Z"/>
<path fill-rule="evenodd"  fill="rgb(98, 98, 98)"
 d="M144.011,58.420 C146.150,57.271 147.163,55.278 146.970,53.395 C147.178,51.402 146.150,49.518 144.011,48.369 L97.923,23.699 C95.882,22.550 93.438,22.024 90.994,22.024 C88.549,22.024 86.092,22.550 84.050,23.699 L37.962,48.273 C35.823,49.421 34.907,51.415 35.004,53.298 C34.907,55.291 35.823,57.271 37.962,58.420 L84.050,83.007 C86.092,84.157 88.536,84.683 90.994,84.683 C93.438,84.683 95.882,84.157 97.923,83.007 L144.011,58.420 Z"/>
<path fill-rule="evenodd"  fill="rgb(127, 127, 127)"
 d="M144.011,57.155 C146.150,56.005 147.163,54.012 146.970,52.130 C147.178,50.136 146.150,48.252 144.011,47.104 L97.923,22.433 C95.882,21.284 93.438,20.759 90.994,20.759 C88.549,20.759 86.092,21.284 84.050,22.433 L37.962,47.007 C35.823,48.156 34.907,50.150 35.004,52.032 C34.907,54.026 35.823,56.005 37.962,57.155 L84.050,81.741 C86.092,82.891 88.536,83.417 90.994,83.417 C93.438,83.417 95.882,82.891 97.923,81.741 L144.011,57.155 Z"/>
<path fill-rule="evenodd"  fill="rgb(98, 98, 98)"
 d="M144.011,53.421 C146.150,52.271 147.163,50.278 146.970,48.395 C147.178,46.402 146.150,44.519 144.011,43.369 L97.923,18.699 C95.882,17.550 93.438,17.024 90.994,17.024 C88.549,17.024 86.092,17.550 84.050,18.699 L37.962,43.273 C35.823,44.422 34.907,46.415 35.004,48.298 C34.907,50.291 35.823,52.271 37.962,53.421 L84.050,78.007 C86.092,79.156 88.536,79.682 90.994,79.682 C93.438,79.682 95.882,79.156 97.923,78.007 L144.011,53.421 Z"/>
<path fill-rule="evenodd"  fill="rgb(127, 127, 127)"
 d="M144.011,52.155 C146.150,51.006 147.163,49.012 146.970,47.129 C147.178,45.136 146.150,43.253 144.011,42.103 L97.923,17.433 C95.882,16.284 93.438,15.758 90.994,15.758 C88.549,15.758 86.092,16.284 84.050,17.433 L37.962,42.007 C35.823,43.156 34.907,45.150 35.004,47.032 C34.907,49.026 35.823,51.006 37.962,52.155 L84.050,76.741 C86.092,77.890 88.536,78.417 90.994,78.417 C93.438,78.417 95.882,77.890 97.923,76.741 L144.011,52.155 Z"/>
<path fill-rule="evenodd"  fill="rgb(98, 98, 98)"
 d="M144.011,48.420 C146.150,47.271 147.163,45.278 146.970,43.395 C147.178,41.402 146.150,39.519 144.011,38.369 L97.923,13.699 C95.882,12.550 93.438,12.024 90.994,12.024 C88.549,12.024 86.092,12.550 84.050,13.699 L37.962,38.273 C35.823,39.422 34.907,41.415 35.004,43.298 C34.907,45.291 35.823,47.271 37.962,48.420 L84.050,73.007 C86.092,74.156 88.536,74.683 90.994,74.683 C93.438,74.683 95.882,74.156 97.923,73.007 L144.011,48.420 Z"/>
<path fill-rule="evenodd"  fill="rgb(127, 127, 127)"
 d="M144.011,47.155 C146.150,46.006 147.163,44.012 146.970,42.129 C147.178,40.136 146.150,38.253 144.011,37.104 L97.923,12.434 C95.882,11.284 93.438,10.758 90.994,10.758 C88.549,10.758 86.092,11.284 84.050,12.434 L37.962,37.007 C35.823,38.156 34.907,40.150 35.004,42.032 C34.907,44.025 35.823,46.006 37.962,47.155 L84.050,71.742 C86.092,72.890 88.536,73.417 90.994,73.417 C93.438,73.417 95.882,72.890 97.923,71.742 L144.011,47.155 Z"/>
<path fill-rule="evenodd"  fill="rgb(98, 98, 98)"
 d="M144.011,43.420 C146.150,42.272 147.163,40.278 146.970,38.395 C147.178,36.402 146.150,34.519 144.011,33.369 L97.923,8.700 C95.882,7.550 93.438,7.024 90.994,7.024 C88.549,7.024 86.092,7.550 84.050,8.700 L37.962,33.272 C35.823,34.422 34.907,36.415 35.004,38.298 C34.907,40.291 35.823,42.272 37.962,43.420 L84.050,68.007 C86.092,69.157 88.536,69.682 90.994,69.682 C93.438,69.682 95.882,69.157 97.923,68.007 L144.011,43.420 Z"/>
<path fill-rule="evenodd"  fill="rgb(23, 204, 95)"
 d="M144.011,42.155 C146.150,41.006 147.163,39.012 146.970,37.129 C147.178,35.136 146.150,33.253 144.011,32.103 L97.923,7.434 C95.882,6.284 93.438,5.758 90.994,5.758 C88.549,5.758 86.092,6.284 84.050,7.434 L37.962,32.007 C35.823,33.156 34.907,35.149 35.004,37.032 C34.907,39.026 35.823,41.006 37.962,42.155 L84.050,66.742 C86.092,67.891 88.536,68.416 90.994,68.416 C93.438,68.416 95.882,67.891 97.923,66.742 L144.011,42.155 Z"/>
<path fill-rule="evenodd"  fill="rgb(28, 227, 107)"
 d="M144.011,40.155 C146.150,39.005 147.163,37.012 146.970,35.129 C147.178,33.136 146.150,31.252 144.011,30.104 L97.923,5.433 C95.882,4.284 93.438,3.758 90.994,3.758 C88.549,3.758 86.092,4.284 84.050,5.433 L37.962,30.007 C35.823,31.156 34.907,33.150 35.004,35.032 C34.907,37.026 35.823,39.005 37.962,40.155 L84.050,64.741 C86.092,65.891 88.536,66.417 90.994,66.417 C93.438,66.417 95.882,65.891 97.923,64.741 L144.011,40.155 Z"/>
<path fill-rule="evenodd"  fill="rgb(23, 204, 95)"
 d="M144.011,38.420 C146.150,37.271 147.163,35.278 146.970,33.395 C147.178,31.402 146.150,29.519 144.011,28.369 L97.923,3.699 C95.882,2.550 93.438,2.024 90.994,2.024 C88.549,2.024 86.092,2.550 84.050,3.699 L37.962,28.273 C35.823,29.422 34.907,31.415 35.004,33.298 C34.907,35.291 35.823,37.271 37.962,38.420 L84.050,63.007 C86.092,64.157 88.536,64.682 90.994,64.682 C93.438,64.682 95.882,64.157 97.923,63.007 L144.011,38.420 Z"/>
<path fill-rule="evenodd"  fill="rgb(28, 227, 107)"
 d="M144.011,37.155 C146.150,36.006 147.163,34.012 146.970,32.129 C147.178,30.136 146.150,28.253 144.011,27.103 L97.923,2.434 C95.882,1.284 93.438,0.758 90.994,0.758 C88.549,0.758 86.092,1.284 84.050,2.434 L37.962,27.007 C35.823,28.156 34.907,30.149 35.004,32.032 C34.907,34.026 35.823,36.006 37.962,37.155 L84.050,61.741 C86.092,62.891 88.536,63.416 90.994,63.416 C93.438,63.416 95.882,62.891 97.923,61.741 L144.011,37.155 Z"/>
<path fill-rule="evenodd"  fill="rgb(28, 227, 107)"
 d="M144.011,37.155 C146.150,36.006 147.163,34.012 146.970,32.129 C147.178,30.136 146.150,28.253 144.011,27.103 L97.923,2.434 C95.882,1.284 93.438,0.758 90.994,0.758 C88.549,0.758 86.092,1.284 84.050,2.434 L37.962,27.007 C35.823,28.156 34.907,30.149 35.004,32.032 C34.907,34.026 35.823,36.006 37.962,37.155 L84.050,61.741 C86.092,62.891 88.536,63.416 90.994,63.416 C93.438,63.416 95.882,62.891 97.923,61.741 L144.011,37.155 Z"/>
<path fill-rule="evenodd"  stroke="rgb(23, 204, 95)" stroke-width="1px" stroke-linecap="butt" stroke-linejoin="miter" fill="none"
 d="M132.686,36.051 C134.367,35.134 135.164,33.543 135.011,32.041 C135.175,30.450 134.367,28.947 132.686,28.030 L96.459,8.343 C94.855,7.426 92.933,7.006 91.012,7.006 C89.091,7.006 87.159,7.426 85.555,8.343 L49.328,27.953 C47.647,28.870 46.926,30.460 47.003,31.963 C46.926,33.553 47.647,35.134 49.328,36.051 L85.555,55.671 C87.159,56.588 89.080,57.008 91.012,57.008 C92.933,57.008 94.855,56.588 96.459,55.671 L132.686,36.051 Z"/>
<path fill-rule="evenodd"  stroke="rgb(23, 204, 95)" stroke-width="1px" stroke-linecap="butt" stroke-linejoin="miter" fill="none"
 d="M93.458,12.250 L91.853,11.540 L88.108,13.196 L95.598,13.196 L96.935,14.142 L85.433,14.142 L83.026,15.325 L100.145,15.325 L102.285,16.744 L80.619,16.744 L78.746,17.926 L105.227,17.926 L107.902,19.345 L75.537,19.345 L73.129,20.764 L111.111,20.764 L113.251,22.184 L70.186,22.184 L68.315,23.366 L116.728,23.602 L118.868,24.785 L64.570,25.022 L62.430,26.204 L122.345,26.441 L124.218,27.624 L59.487,27.860 L57.347,29.279 L127.101,29.279 L129.241,30.698 L53.603,30.698 L52.635,31.881 L130.520,32.354 L129.776,33.773 L54.138,33.773 L56.011,34.956 L125.823,35.429 L123.683,36.848 L60.290,36.848 L62.163,38.030 L121.008,38.030 L119.403,39.450 L65.639,39.450 L67.245,40.632 L115.123,40.869 L113.251,42.288 L70.989,42.288 L72.862,43.470 L109.774,43.470 L107.902,44.889 L76.339,45.126 L78.211,46.309 L103.622,46.545 L101.750,47.964 L82.759,47.964 L84.631,49.383 L98.272,49.147 L96.667,50.566 L88.643,50.802 L91.853,52.458 L93.725,51.748 "/>
<path fill-rule="evenodd"  opacity="0.302" fill="rgb(0, 0, 0)"
 d="M90.994,133.417 C93.438,133.417 95.882,132.891 97.923,131.742 L144.011,107.154 C146.150,106.006 147.163,104.012 146.970,102.130 C147.178,100.136 147.252,30.145 146.970,32.129 C147.163,35.089 146.138,36.850 143.999,37.999 L102.999,59.999 C100.958,61.148 93.022,64.288 91.999,63.999 C91.990,63.996 92.969,65.686 92.939,66.928 C92.924,67.533 91.908,68.269 91.889,69.119 C91.875,69.781 92.859,70.513 92.842,71.307 C92.827,72.040 91.811,72.825 91.794,73.658 C91.779,74.421 92.762,75.224 92.745,76.061 C92.730,76.874 91.712,77.722 91.696,78.597 C91.677,79.536 92.658,80.509 92.639,81.510 C92.623,82.302 91.607,83.112 91.592,83.935 C91.575,84.813 92.558,85.708 92.541,86.615 C92.530,87.189 91.519,87.767 91.508,88.351 C91.490,89.270 92.473,90.201 92.455,91.140 C92.439,91.990 91.422,92.846 91.406,93.707 C91.390,94.588 92.373,95.475 92.356,96.362 C92.340,97.256 91.323,98.151 91.307,99.046 C91.291,99.895 92.275,100.744 92.260,101.590 C92.245,102.337 91.231,103.080 91.218,103.821 C91.203,104.600 92.189,105.375 92.175,106.145 C92.158,107.033 91.143,107.912 91.127,108.782 C91.110,109.663 92.094,110.533 92.078,111.389 C92.064,112.185 91.049,112.969 91.036,113.740 C91.020,114.590 92.004,115.423 91.990,116.236 C91.975,117.049 90.960,117.844 90.946,118.616 C90.928,119.633 91.910,120.610 91.893,121.542 C91.880,122.280 90.867,122.990 90.854,123.667 C90.840,124.491 91.826,125.267 91.812,125.990 C91.798,126.744 90.786,127.439 90.775,128.068 C90.758,129.015 91.743,129.813 91.732,130.440 C91.714,131.468 90.704,132.033 90.704,132.033 C90.704,132.033 90.886,133.417 90.994,133.417 Z"/>
<path fill-rule="evenodd"  fill="rgb(255, 255, 255)"
 d="M179.411,28.538 L176.764,29.230 L167.940,31.538 L166.396,29.692 L164.632,27.614 L160.440,22.999 L176.102,19.076 L183.823,27.384 L179.411,28.538 ZM175.440,21.615 L164.632,24.384 L167.058,26.922 L168.823,28.768 L177.646,26.692 L179.632,25.999 L175.440,21.615 ZM166.175,30.615 L164.191,31.307 L166.396,33.846 L168.161,35.692 L177.426,33.384 L178.970,32.922 L176.543,30.384 L179.190,29.692 L183.161,34.307 L179.190,35.230 L176.764,35.922 L167.499,38.230 L165.734,36.384 L163.970,34.307 L160.000,29.922 L164.411,28.768 L166.175,30.615 ZM165.734,37.537 L164.191,37.999 L168.381,42.384 L179.190,39.615 L176.764,37.076 L179.190,36.384 L183.382,40.999 L167.499,44.922 L160.000,36.615 L163.970,35.461 L165.734,37.537 Z"/>
</svg>
