<svg width="20" height="20" viewBox="0 0 20 20" fill="none" xmlns="http://www.w3.org/2000/svg">
<g id="&#231;&#188;&#150;&#232;&#190;&#145;">
<path id="Vector" fill-rule="evenodd" clip-rule="evenodd" d="M11.385 3.03275C11.8121 2.60562 12.5046 2.60562 12.9318 3.03275L14.9682 5.0692C15.3953 5.49634 15.3953 6.18886 14.9682 6.616L7.51252 14.0717C7.33847 14.2457 7.11079 14.356 6.86631 14.3846L4.66169 14.6427C3.97852 14.7227 3.39196 14.1597 3.44388 13.4738L3.61801 11.1733C3.63775 10.9125 3.7503 10.6674 3.93524 10.4825L11.385 3.03275ZM10.8413 5.63881L12.3622 7.15966L13.6792 5.8426L12.1584 4.32175L10.8413 5.63881ZM11.331 8.19086L9.81011 6.67L5.06199 11.4181L4.93144 13.1429L6.5709 12.9509L11.331 8.19086ZM16.5625 17.2915L3.4375 17.2915V15.8332L16.5625 15.8332V17.2915Z" fill="#878E9A"/>
</g>
</svg>
