<svg width="40" height="24" viewBox="0 0 40 24" fill="none" xmlns="http://www.w3.org/2000/svg">
<g id="&#231;&#138;&#182;&#230;&#128;&#129;-&#231;&#169;&#186;&#233;&#151;&#178;">
<rect id="Rectangle 2936" width="40" height="24" rx="4" fill="#15C059" fill-opacity="0.15"/>
<path id="title" d="M14.564 13.82V16.532H19.1V17.54H8.948V16.532H13.376V13.82H10.28V12.824H17.804V13.82H14.564ZM12.584 9.956L13.364 10.64C12.38 11.492 10.988 12.368 9.644 12.944L9.008 11.948C10.352 11.48 11.624 10.736 12.584 9.956ZM19.04 11.924L18.284 12.812C17.492 12.26 15.836 11.336 14.648 10.736L15.344 9.968C16.496 10.52 18.176 11.384 19.04 11.924ZM14.852 8.336H19.124V10.856H17.972V9.356H10.004V11.108H8.9V8.336H13.496C13.34 7.952 13.148 7.52 12.992 7.172L14.168 6.848C14.396 7.292 14.684 7.892 14.852 8.336ZM24.044 9.188L23.144 9.8C22.82 9.176 22.052 8.228 21.392 7.556L22.232 7.016C22.892 7.664 23.684 8.564 24.044 9.188ZM20.96 17.96V9.632H22.028V17.96H20.96ZM29.264 14.732L28.46 15.404C28.028 14.756 27.284 13.844 26.492 13.004V16.892H25.484V13.052C24.872 14.144 24.068 15.104 23.216 15.704C23.048 15.452 22.736 15.092 22.508 14.9C23.504 14.3 24.464 13.196 25.088 11.996H22.868V11.072H25.484V9.56H26.492V11.072H29.3V11.996H26.828C27.788 12.908 28.748 14 29.264 14.732ZM31.004 7.424V16.46C31.004 17.132 30.86 17.468 30.428 17.636C29.996 17.828 29.276 17.84 28.196 17.84C28.136 17.54 27.956 17.036 27.812 16.736C28.58 16.772 29.396 16.76 29.636 16.76C29.852 16.76 29.936 16.676 29.936 16.46V8.468H24.332V7.424H31.004Z" fill="#15C059"/>
</g>
</svg>
