<svg width="16" height="16" viewBox="0 0 16 16" fill="none" xmlns="http://www.w3.org/2000/svg">
<g id="&#228;&#186;&#146;&#232;&#129;&#148;&#231;&#189;&#145;">
<path id="Vector" d="M7.99995 13.2782C7.27633 13.2782 6.59346 13.1395 5.95133 12.8621C5.30921 12.5847 4.7492 12.207 4.27133 11.729C3.79337 11.2512 3.41569 10.6912 3.13828 10.049C2.86087 9.40692 2.72217 8.72405 2.72217 8.00043C2.72217 7.27108 2.86087 6.58678 3.13828 5.94752C3.41569 5.30826 3.79337 4.74969 4.27133 4.27182C4.7492 3.79386 5.30921 3.41618 5.95133 3.13877C6.59346 2.86136 7.27633 2.72266 7.99995 2.72266C8.7293 2.72266 9.4136 2.86136 10.0529 3.13877C10.6921 3.41618 11.2507 3.79386 11.7286 4.27182C12.2065 4.74969 12.5842 5.30826 12.8616 5.94752C13.139 6.58678 13.2777 7.27108 13.2777 8.00043C13.2777 8.72405 13.139 9.40692 12.8616 10.049C12.5842 10.6912 12.2065 11.2512 11.7286 11.729C11.2507 12.207 10.6921 12.5847 10.0529 12.8621C9.4136 13.1395 8.7293 13.2782 7.99995 13.2782ZM7.99995 12.4331C8.28346 12.0571 8.52208 11.6778 8.71578 11.2953C8.90948 10.9128 9.06726 10.4947 9.18911 10.041H6.81078C6.93976 10.509 7.09934 10.9342 7.28953 11.3167C7.47962 11.6992 7.71643 12.0713 7.99995 12.4331ZM6.92411 12.2803C6.71115 11.9747 6.5199 11.6274 6.35036 11.2382C6.18083 10.849 6.04907 10.4499 5.95508 10.041H4.0705C4.36393 10.6179 4.75745 11.1027 5.25106 11.4952C5.74467 11.8876 6.30235 12.1493 6.92411 12.2803ZM9.07578 12.2803C9.69754 12.1493 10.2552 11.8876 10.7488 11.4952C11.2424 11.1027 11.636 10.6179 11.9294 10.041H10.0448C9.93295 10.4534 9.79226 10.8542 9.62272 11.2435C9.45328 11.6327 9.27096 11.9784 9.07578 12.2803ZM3.72106 9.20766H5.78633C5.75143 9.00117 5.7261 8.79872 5.71036 8.6003C5.69471 8.40196 5.68689 8.20201 5.68689 8.00043C5.68689 7.79886 5.69471 7.59891 5.71036 7.40057C5.7261 7.20215 5.75143 6.99969 5.78633 6.79321H3.72106C3.66763 6.98192 3.62671 7.17812 3.59828 7.38182C3.56976 7.58553 3.5555 7.79173 3.5555 8.00043C3.5555 8.20914 3.56976 8.41534 3.59828 8.61905C3.62671 8.82275 3.66763 9.01895 3.72106 9.20766ZM6.61953 9.20766H9.38036C9.41518 9.00117 9.44045 8.80053 9.4562 8.60571C9.47184 8.4109 9.47967 8.20914 9.47967 8.00043C9.47967 7.79173 9.47184 7.58997 9.4562 7.39516C9.44045 7.20034 9.41518 6.99969 9.38036 6.79321H6.61953C6.58471 6.99969 6.55944 7.20034 6.5437 7.39516C6.52805 7.58997 6.52022 7.79173 6.52022 8.00043C6.52022 8.20914 6.52805 8.4109 6.5437 8.60571C6.55944 8.80053 6.58471 9.00117 6.61953 9.20766ZM10.2136 9.20766H12.2788C12.3323 9.01895 12.3732 8.82275 12.4016 8.61905C12.4301 8.41534 12.4444 8.20914 12.4444 8.00043C12.4444 7.79173 12.4301 7.58553 12.4016 7.38182C12.3732 7.17812 12.3323 6.98192 12.2788 6.79321H10.2136C10.2485 6.99969 10.2738 7.20215 10.2895 7.40057C10.3052 7.59891 10.313 7.79886 10.313 8.00043C10.313 8.20201 10.3052 8.40196 10.2895 8.6003C10.2738 8.79872 10.2485 9.00117 10.2136 9.20766ZM10.0448 5.95988H11.9294C11.6324 5.3758 11.2416 4.89108 10.7569 4.50571C10.2722 4.12043 9.7118 3.85692 9.07578 3.71516C9.28874 4.03849 9.47819 4.39215 9.64411 4.77613C9.81013 5.16002 9.9437 5.5546 10.0448 5.95988ZM6.81078 5.95988H9.18911C9.06013 5.49543 8.89791 5.06752 8.70245 4.67613C8.50689 4.28474 8.27272 3.91529 7.99995 3.56779C7.72717 3.91529 7.493 4.28474 7.29745 4.67613C7.10198 5.06752 6.93976 5.49543 6.81078 5.95988ZM4.0705 5.95988H5.95508C6.0562 5.5546 6.18976 5.16002 6.35578 4.77613C6.5217 4.39215 6.71115 4.03849 6.92411 3.71516C6.28448 3.85692 5.72323 4.12136 5.24036 4.50849C4.7574 4.89553 4.36745 5.37932 4.0705 5.95988Z" fill="#4E5969"/>
</g>
</svg>
