<svg width="32" height="32" viewBox="0 0 32 32" fill="none" xmlns="http://www.w3.org/2000/svg">
<g id="&#230;&#173;&#163;&#229;&#156;&#168;&#229;&#143;&#145;&#233;&#128;&#129;">
<path id="Vector" d="M6 24.8891V18.2224L14.8889 16.0002L6 13.778V7.11133L21.8889 13.778H21.5556C19.3889 13.778 17.5509 14.5419 16.0417 16.0697C14.5324 17.5974 13.7778 19.4447 13.7778 21.6113L6 24.8891ZM21.5556 27.1113C20.0185 27.1113 18.7083 26.5697 17.625 25.4863C16.5417 24.403 16 23.0928 16 21.5558C16 20.0187 16.5417 18.7086 17.625 17.6252C18.7083 16.5419 20.0185 16.0002 21.5556 16.0002C23.0926 16.0002 24.4028 16.5419 25.4861 17.6252C26.5694 18.7086 27.1111 20.0187 27.1111 21.5558C27.1111 23.0928 26.5694 24.403 25.4861 25.4863C24.4028 26.5697 23.0926 27.1113 21.5556 27.1113ZM23.3889 24.1669L24.1667 23.3891L22.1111 21.3336V18.2224H21V21.778L23.3889 24.1669Z" fill="#387DFF"/>
</g>
</svg>
