<svg width="40" height="24" viewBox="0 0 40 24" fill="none" xmlns="http://www.w3.org/2000/svg">
<g id="&#231;&#138;&#182;&#230;&#128;&#129;-&#231;&#166;&#187;&#231;&#186;&#191;">
<rect id="Rectangle 2936" width="40" height="24" rx="4" fill="#FF7D00" fill-opacity="0.15"/>
<path id="title" d="M12.704 15.656L15.284 15.404C15.116 15.176 14.948 14.96 14.792 14.756L15.44 14.336H13.676C13.364 14.804 13.052 15.248 12.704 15.656ZM18.776 13.388V16.868C18.776 17.408 18.632 17.648 18.212 17.792C17.792 17.924 17.168 17.924 16.256 17.924C16.184 17.66 16.028 17.312 15.884 17.072C16.52 17.096 17.252 17.084 17.42 17.084C17.612 17.072 17.684 17.024 17.684 16.868V14.336H15.536C16.028 14.936 16.676 15.728 16.964 16.232L16.22 16.772C16.136 16.604 16.004 16.4 15.86 16.184C12.344 16.568 11.876 16.64 11.588 16.784C11.528 16.568 11.348 16.028 11.228 15.728C11.468 15.68 11.684 15.428 11.96 15.068C12.068 14.936 12.248 14.672 12.476 14.336H10.376V17.936H9.284V13.388H13.04C13.16 13.148 13.292 12.896 13.424 12.632H10.064V9.296H11.132V11.768H16.904V9.296H18.02V12.632H14.684C14.552 12.884 14.408 13.136 14.276 13.388H18.776ZM16.388 11.036L15.92 11.636C15.488 11.384 14.852 11.048 14.144 10.7C13.46 11.072 12.74 11.42 12.104 11.684C11.984 11.528 11.732 11.216 11.552 11.072C12.14 10.868 12.764 10.604 13.364 10.328C12.848 10.064 12.32 9.812 11.852 9.608L12.308 9.092C12.86 9.332 13.52 9.632 14.144 9.92C14.66 9.644 15.14 9.332 15.536 9.044L16.208 9.38C15.824 9.68 15.38 9.98 14.9 10.28C15.476 10.544 16.004 10.82 16.388 11.036ZM14.588 7.976H19.244V8.936H8.804V7.976H13.424C13.316 7.688 13.172 7.4 13.064 7.136L14.06 6.848C14.24 7.184 14.444 7.628 14.588 7.976ZM30.704 8.132L30.044 8.816C29.684 8.48 28.976 8.012 28.424 7.712L29.072 7.124C29.612 7.376 30.344 7.82 30.704 8.132ZM22.52 13.436L24.668 13.052C24.644 13.34 24.632 13.772 24.656 14C21.716 14.588 21.284 14.708 20.996 14.852C20.948 14.648 20.78 14.144 20.66 13.868C20.936 13.796 21.212 13.532 21.572 13.076C21.788 12.872 22.196 12.344 22.664 11.672C21.392 11.828 21.104 11.888 20.924 11.984C20.864 11.768 20.696 11.24 20.564 10.952C20.792 10.88 20.996 10.628 21.26 10.232C21.524 9.86 22.364 8.36 22.82 6.968L23.864 7.472C23.36 8.624 22.7 9.836 22.004 10.796L23.3 10.688C23.564 10.28 23.804 9.836 24.032 9.404L24.944 9.968C24.248 11.192 23.384 12.416 22.52 13.436ZM24.668 15.104L24.836 16.028C23.456 16.484 22.016 16.94 20.9 17.288L20.672 16.232C21.668 15.98 23.18 15.536 24.668 15.104ZM30.464 12.812L31.388 13.232C30.812 14.156 30.056 14.96 29.168 15.656C29.492 16.424 29.864 16.856 30.284 16.856C30.572 16.856 30.692 16.568 30.74 15.548C30.956 15.812 31.304 16.04 31.544 16.16C31.364 17.552 31.04 17.936 30.164 17.936C29.36 17.936 28.736 17.324 28.256 16.304C27.344 16.904 26.312 17.384 25.244 17.756C25.088 17.48 24.812 17.096 24.56 16.844C25.748 16.484 26.888 15.968 27.884 15.332C27.656 14.612 27.476 13.784 27.344 12.896L25.124 13.304L24.956 12.308L27.2 11.888C27.152 11.432 27.104 10.964 27.068 10.496L25.388 10.748L25.196 9.74L26.996 9.476C26.948 8.636 26.924 7.772 26.924 6.908H28.04C28.028 7.736 28.04 8.528 28.088 9.308L30.8 8.9L30.992 9.884L28.148 10.328C28.184 10.796 28.232 11.252 28.28 11.696L31.136 11.168L31.304 12.14L28.412 12.68C28.52 13.412 28.664 14.072 28.82 14.636C29.48 14.096 30.044 13.484 30.464 12.812Z" fill="#FF7D00"/>
</g>
</svg>
