<svg width="12" height="13" viewBox="0 0 12 13" fill="none" xmlns="http://www.w3.org/2000/svg">
<g id="&#233;&#135;&#141;&#233;&#135;&#143;">
<path id="Vector" d="M2 10.25C2 9.53312 2.09526 8.9212 2.28578 8.41422C2.4763 7.90724 2.7201 7.48583 3.01719 7.15C3.31427 6.81417 3.64688 6.55422 4.015 6.37016C4.38313 6.18609 4.74479 6.05854 5.1 5.9875V4.825C4.21521 4.71521 3.47734 4.44234 2.88641 4.00641C2.29547 3.57047 2 3.06833 2 2.5H9.75C9.75 3.06833 9.45453 3.57047 8.86359 4.00641C8.27266 4.44234 7.53479 4.71521 6.65 4.825V5.9875C7.00521 6.05854 7.36688 6.18609 7.735 6.37016C8.10313 6.55422 8.43573 6.81417 8.73281 7.15C9.0299 7.48583 9.2737 7.90724 9.46422 8.41422C9.65474 8.9212 9.75 9.53312 9.75 10.25H7.425V9.475H8.92656C8.81031 8.49333 8.4438 7.78292 7.82703 7.34375C7.21026 6.90458 6.55958 6.685 5.875 6.685C5.19042 6.685 4.53974 6.90458 3.92297 7.34375C3.3062 7.78292 2.93969 8.49333 2.82344 9.475H4.325V10.25H2ZM5.875 4.09844C6.46271 4.09844 6.98583 4.01932 7.44438 3.86109C7.90292 3.70286 8.26781 3.5075 8.53906 3.275H3.21094C3.48219 3.5075 3.84708 3.70286 4.30562 3.86109C4.76417 4.01932 5.28729 4.09844 5.875 4.09844ZM5.875 10.25C5.66188 10.25 5.47943 10.1741 5.32766 10.0223C5.17589 9.87057 5.1 9.68813 5.1 9.475C5.1 9.36521 5.12099 9.2651 5.16297 9.17469C5.20495 9.08427 5.26146 9.00354 5.3325 8.9325C5.4875 8.7775 5.74906 8.61443 6.11719 8.44328C6.48531 8.27214 6.92125 8.09938 7.425 7.925C7.24417 8.42875 7.06979 8.86469 6.90188 9.23281C6.73396 9.60094 6.5725 9.8625 6.4175 10.0175C6.34646 10.0885 6.26573 10.1451 6.17531 10.187C6.0849 10.229 5.98479 10.25 5.875 10.25Z" fill="#4E5969"/>
</g>
</svg>
