<svg width="12" height="13" viewBox="0 0 12 13" fill="none" xmlns="http://www.w3.org/2000/svg">
<g id="&#230;&#151;&#182;&#233;&#151;&#180;">
<path id="Vector" d="M7.37516 8.4585L7.9585 7.87516L6.41683 6.3335V4.41683H5.5835V6.66683L7.37516 8.4585ZM6.00016 10.6668C5.42377 10.6668 4.88211 10.5575 4.37516 10.3387C3.86822 10.12 3.42725 9.82308 3.05225 9.44808C2.67725 9.07308 2.38037 8.63211 2.16162 8.12516C1.94287 7.61822 1.8335 7.07655 1.8335 6.50016C1.8335 5.92377 1.94287 5.38211 2.16162 4.87516C2.38037 4.36822 2.67725 3.92725 3.05225 3.55225C3.42725 3.17725 3.86822 2.88037 4.37516 2.66162C4.88211 2.44287 5.42377 2.3335 6.00016 2.3335C6.57655 2.3335 7.11822 2.44287 7.62516 2.66162C8.13211 2.88037 8.57308 3.17725 8.94808 3.55225C9.32308 3.92725 9.61995 4.36822 9.8387 4.87516C10.0575 5.38211 10.1668 5.92377 10.1668 6.50016C10.1668 7.07655 10.0575 7.61822 9.8387 8.12516C9.61995 8.63211 9.32308 9.07308 8.94808 9.44808C8.57308 9.82308 8.13211 10.12 7.62516 10.3387C7.11822 10.5575 6.57655 10.6668 6.00016 10.6668ZM6.00016 9.8335C6.92377 9.8335 7.71023 9.50884 8.35954 8.85954C9.00884 8.21023 9.3335 7.42377 9.3335 6.50016C9.3335 5.57655 9.00884 4.79009 8.35954 4.14079C7.71023 3.49148 6.92377 3.16683 6.00016 3.16683C5.07655 3.16683 4.29009 3.49148 3.64079 4.14079C2.99148 4.79009 2.66683 5.57655 2.66683 6.50016C2.66683 7.42377 2.99148 8.21023 3.64079 8.85954C4.29009 9.50884 5.07655 9.8335 6.00016 9.8335Z" fill="#4E5969"/>
</g>
</svg>
