<svg 
 xmlns="http://www.w3.org/2000/svg"
 xmlns:xlink="http://www.w3.org/1999/xlink"
 width="96px" height="96px">
<path fill-rule="evenodd"  fill="none"
 d="M0.000,0.000 L96.000,0.000 L96.000,96.000 L0.000,96.000 L0.000,0.000 Z"/>
<path fill-rule="evenodd"  fill="rgb(51, 51, 51)"
 d="M68.646,73.775 C68.413,73.783 67.800,73.775 67.800,73.775 C67.800,73.775 67.799,77.089 67.800,77.324 C67.801,77.558 67.380,77.819 66.954,77.831 C66.527,77.843 55.028,78.023 54.769,78.000 C54.510,77.977 54.600,76.479 54.600,76.479 L33.277,76.479 C33.277,76.479 33.273,77.144 33.277,77.324 C33.280,77.504 33.168,77.655 32.599,77.662 C32.032,77.669 29.737,77.655 29.554,77.662 C29.370,77.669 29.052,77.634 29.046,77.324 C29.039,77.014 29.046,76.479 29.046,76.479 C29.046,76.479 28.555,76.505 28.369,76.479 C28.183,76.453 28.030,76.341 28.030,75.465 C28.030,74.588 28.030,73.775 28.030,73.775 C28.030,73.775 27.203,73.787 27.184,73.775 C27.166,73.763 26.000,72.585 26.000,72.422 C26.000,72.259 26.000,19.844 26.000,19.521 C26.000,19.081 26.813,18.000 27.354,18.000 C27.777,18.000 68.017,18.000 68.307,18.000 C68.598,18.000 70.000,18.988 70.000,19.859 C70.000,20.601 70.000,71.765 70.000,72.084 C70.000,72.404 68.878,73.766 68.646,73.775 ZM65.571,25.576 C65.430,25.431 64.595,24.604 63.738,24.422 C62.800,24.224 58.489,23.406 57.307,23.422 C56.126,23.439 49.503,23.647 49.184,23.591 C48.866,23.536 48.501,23.471 48.507,23.591 C48.513,23.710 48.670,25.206 48.676,25.258 C50.526,25.259 52.278,25.262 52.369,25.267 C52.558,25.279 52.724,25.293 52.707,25.775 C52.699,26.022 52.698,27.804 52.700,29.500 L65.529,29.500 C65.546,28.006 65.559,26.686 65.571,25.576 ZM65.519,30.500 L52.701,30.500 C52.703,31.681 52.706,32.636 52.707,32.704 C52.709,32.762 52.711,32.887 52.713,33.031 L65.491,33.031 C65.501,32.153 65.510,31.306 65.519,30.500 ZM30.907,67.859 C30.907,67.878 31.077,68.028 31.077,68.028 L31.246,67.859 L32.092,67.859 L32.092,67.352 C32.092,67.352 31.627,67.410 31.584,67.352 C31.542,67.294 31.584,66.845 31.584,66.845 L33.615,64.310 L62.554,64.141 C62.554,64.141 63.881,66.465 64.077,66.676 C64.272,66.887 64.159,67.343 64.077,67.352 C63.995,67.361 63.569,67.352 63.569,67.352 L63.569,67.859 C63.569,67.859 64.482,67.803 64.753,67.859 C65.025,67.915 65.025,68.080 65.092,68.197 C65.159,68.314 65.431,68.197 65.431,68.197 L65.092,67.690 C65.092,67.690 65.329,47.589 65.479,34.062 L52.706,34.062 C52.675,34.775 52.162,35.023 52.030,35.070 C51.899,35.118 49.846,35.070 49.846,35.070 L48.338,36.746 L46.831,35.070 C46.831,35.070 44.541,35.092 44.476,35.070 C44.412,35.048 43.837,34.699 43.802,34.062 L30.469,34.062 C30.718,47.685 31.074,67.287 31.077,67.521 C31.081,67.879 30.908,67.840 30.907,67.859 ZM30.450,33.031 L43.789,33.031 C43.792,32.901 43.796,32.745 43.800,32.535 C43.805,32.255 43.806,31.458 43.806,30.500 L30.403,30.500 C30.418,31.310 30.434,32.157 30.450,33.031 ZM65.431,20.704 C65.302,20.705 31.114,20.706 30.738,20.704 C30.363,20.703 30.222,21.054 30.231,21.211 C30.233,21.254 30.295,24.619 30.385,29.500 L43.805,29.500 C43.803,27.692 43.798,25.749 43.800,25.605 C43.803,25.353 43.757,25.281 44.307,25.267 C44.560,25.261 46.237,25.258 47.997,25.258 C47.980,25.205 47.408,23.390 47.831,23.084 C48.259,22.774 49.465,22.881 50.369,22.915 C51.273,22.950 56.751,22.816 57.985,22.746 C58.951,22.692 61.706,23.517 62.723,23.577 C63.157,23.603 63.679,23.637 64.246,23.915 C64.779,24.177 65.306,24.566 65.578,24.777 C65.594,23.229 65.602,22.233 65.600,22.056 C65.584,20.753 65.558,20.704 65.431,20.704 Z"/>
</svg>
