<svg 
 xmlns="http://www.w3.org/2000/svg"
 xmlns:xlink="http://www.w3.org/1999/xlink"
 width="10px" height="10px">
<path fill-rule="evenodd"  fill="rgb(201, 201, 210)"
 d="M6.451,4.999 L9.673,1.770 C10.077,1.364 10.077,0.708 9.673,0.303 C9.269,-0.102 8.613,-0.102 8.209,0.303 L4.987,3.531 L1.765,0.303 C1.361,-0.102 0.706,-0.102 0.302,0.303 C-0.103,0.708 -0.103,1.364 0.302,1.770 L3.522,4.999 L0.302,8.228 C-0.103,8.633 -0.103,9.290 0.302,9.695 C0.495,9.890 0.759,9.999 1.033,9.999 C1.308,9.999 1.571,9.890 1.765,9.695 L4.987,6.466 L8.209,9.695 C8.403,9.890 8.667,9.999 8.941,9.999 C9.215,9.999 9.478,9.890 9.673,9.695 C10.077,9.290 10.077,8.633 9.673,8.228 L6.451,4.999 Z"/>
</svg>
