<svg 
 xmlns="http://www.w3.org/2000/svg"
 xmlns:xlink="http://www.w3.org/1999/xlink"
 width="113.5px" height="148px">
<path fill-rule="evenodd"  fill="none"
 d="M0.500,131.500 L15.500,131.500 L15.500,147.500 L0.500,147.500 L0.500,131.500 Z"/>
<path fill-rule="evenodd"  stroke="rgb(127, 127, 127)" stroke-width="1px" stroke-dasharray="4, 2" stroke-linecap="butt" stroke-linejoin="miter" fill="none"
 d="M109.511,106.655 C111.650,105.506 112.664,103.512 112.470,101.629 C112.678,99.636 111.650,97.753 109.511,96.603 L63.422,71.934 C61.382,70.784 58.938,70.258 56.494,70.258 C54.049,70.258 51.591,70.784 49.550,71.934 L3.462,96.507 C1.323,97.656 0.407,99.649 0.504,101.532 C0.407,103.526 1.323,105.506 3.462,106.655 L49.550,131.241 C51.591,132.391 54.036,132.916 56.494,132.916 C58.938,132.916 61.382,132.391 63.422,131.241 L109.511,106.655 Z"/>
<path fill-rule="evenodd"  stroke="rgb(127, 127, 127)" stroke-width="1px" stroke-dasharray="4, 2" stroke-linecap="butt" stroke-linejoin="miter" fill="none"
 d="M98.186,106.551 C99.866,105.634 100.663,104.043 100.511,102.541 C100.674,100.950 99.866,99.447 98.186,98.530 L61.959,78.843 C60.355,77.926 58.433,77.506 56.512,77.506 C54.591,77.506 52.659,77.926 51.055,78.843 L14.827,98.453 C13.147,99.370 12.426,100.961 12.502,102.463 C12.426,104.054 13.147,105.634 14.827,106.551 L51.055,126.171 C52.659,127.088 54.580,127.508 56.512,127.508 C58.433,127.508 60.355,127.088 61.959,126.171 L98.186,106.551 Z"/>
<path fill-rule="evenodd"  fill="rgb(23, 204, 95)"
 d="M16.499,32.499 L57.499,53.499 L97.499,32.499 L96.499,103.499 L57.499,123.499 L16.499,102.499 L16.499,32.499 Z"/>
<path fill-rule="evenodd"  stroke="rgb(28, 227, 107)" stroke-width="1px" stroke-linecap="butt" stroke-linejoin="miter" fill="none"
 d="M58.958,82.750 L57.353,82.041 L53.608,83.696 L61.097,83.696 L62.434,84.642 L50.933,84.642 L48.526,85.825 L65.644,85.825 L67.784,87.244 L46.119,87.244 L44.245,88.426 L70.727,88.426 L73.401,89.845 L41.036,89.845 L38.629,91.264 L76.611,91.264 L78.751,92.684 L35.687,92.684 L33.815,93.866 L82.228,94.102 L84.368,95.285 L30.070,95.522 L27.930,96.705 L87.845,96.941 L89.718,98.124 L24.987,98.360 L22.847,99.779 L92.601,99.779 L94.740,101.198 L19.103,101.198 L18.134,102.381 L96.019,102.854 L95.275,104.273 L19.637,104.273 L21.510,105.456 L91.323,105.929 L89.183,107.348 L25.790,107.348 L27.662,108.530 L86.508,108.530 L84.903,109.949 L31.140,109.949 L32.745,111.132 L80.623,111.369 L78.751,112.788 L36.489,112.788 L38.362,113.970 L75.274,113.970 L73.401,115.389 L41.839,115.626 L43.710,116.808 L69.122,117.045 L67.249,118.464 L48.258,118.464 L50.131,119.883 L63.772,119.647 L62.167,121.066 L54.143,121.302 L57.353,122.958 L59.225,122.248 "/>
<path fill-rule="evenodd"  fill="rgb(16, 142, 66)"
 d="M17.500,32.499 L57.499,53.499 L97.499,32.499 L57.499,10.499 L17.500,32.499 Z"/>
<path fill-rule="evenodd"  stroke="rgb(28, 227, 107)" stroke-width="1px" stroke-linecap="butt" stroke-linejoin="miter" fill="none"
 d="M58.958,12.750 L57.353,12.040 L53.608,13.695 L61.097,13.695 L62.434,14.642 L50.933,14.642 L48.526,15.825 L65.644,15.825 L67.784,17.243 L46.119,17.243 L44.245,18.426 L70.727,18.426 L73.401,19.845 L41.036,19.845 L38.629,21.264 L76.611,21.264 L78.751,22.683 L35.687,22.683 L33.815,23.866 L82.228,24.102 L84.368,25.285 L30.070,25.522 L27.930,26.705 L87.845,26.941 L89.718,28.123 L24.987,28.360 L22.847,29.779 L92.601,29.779 L94.740,31.198 L19.103,31.198 L18.134,32.381 L96.019,32.854 L95.275,34.273 L19.637,34.273 L21.510,35.456 L91.323,35.929 L89.183,37.348 L25.790,37.348 L27.662,38.530 L86.508,38.530 L84.903,39.949 L31.140,39.949 L32.745,41.132 L80.623,41.369 L78.751,42.788 L36.489,42.788 L38.362,43.970 L75.274,43.970 L73.401,45.389 L41.839,45.626 L43.710,46.809 L69.122,47.045 L67.249,48.464 L48.258,48.464 L50.131,49.883 L63.772,49.647 L62.167,51.066 L54.143,51.302 L57.353,52.958 L59.225,52.248 "/>
<path fill-rule="evenodd"  stroke="rgb(127, 127, 127)" stroke-width="1px" stroke-dasharray="4, 2" stroke-linecap="butt" stroke-linejoin="miter" fill="none"
 d="M98.186,36.551 C99.866,35.633 100.663,34.043 100.511,32.541 C100.674,30.950 99.866,29.447 98.186,28.530 L61.959,8.843 C60.355,7.926 58.433,7.506 56.512,7.506 C54.591,7.506 52.659,7.926 51.055,8.843 L14.827,28.453 C13.147,29.370 12.426,30.960 12.502,32.463 C12.426,34.053 13.147,35.633 14.827,36.551 L51.055,56.171 C52.659,57.088 54.580,57.508 56.512,57.508 C58.433,57.508 60.355,57.088 61.959,56.171 L98.186,36.551 Z"/>
<path fill-rule="evenodd"  stroke="rgb(127, 127, 127)" stroke-width="1px" stroke-dasharray="4, 2" stroke-linecap="butt" stroke-linejoin="miter" fill="none"
 d="M109.511,37.655 C111.650,36.505 112.664,34.512 112.470,32.629 C112.678,30.636 111.650,28.753 109.511,27.603 L63.422,2.933 C61.382,1.784 58.938,1.258 56.494,1.258 C54.049,1.258 51.591,1.784 49.550,2.933 L3.462,27.507 C1.323,28.656 0.407,30.649 0.504,32.532 C0.407,34.525 1.323,36.505 3.462,37.655 L49.550,62.241 C51.591,63.391 54.036,63.916 56.494,63.916 C58.938,63.916 61.382,63.391 63.422,62.241 L109.511,37.655 Z"/>
<path fill-rule="evenodd"  stroke="rgb(127, 127, 127)" stroke-width="1px" stroke-dasharray="4, 2" stroke-linecap="butt" stroke-linejoin="miter" fill="none"
 d="M1.499,37.499 L1.499,101.499 "/>
<path fill-rule="evenodd"  stroke="rgb(127, 127, 127)" stroke-width="1px" stroke-dasharray="4, 2" stroke-linecap="butt" stroke-linejoin="miter" fill="none"
 d="M112.499,37.499 L112.499,101.499 "/>
<path fill-rule="evenodd"  stroke="rgb(127, 127, 127)" stroke-width="1px" stroke-dasharray="4, 2" stroke-linecap="butt" stroke-linejoin="miter" fill="none"
 d="M57.499,65.499 L57.499,130.499 "/>
<path fill-rule="evenodd"  stroke="rgb(127, 127, 127)" stroke-width="1px" stroke-dasharray="4, 2" stroke-linecap="butt" stroke-linejoin="miter" fill="none"
 d="M57.499,2.499 L57.499,9.499 "/>
</svg>
