<svg 
 xmlns="http://www.w3.org/2000/svg"
 xmlns:xlink="http://www.w3.org/1999/xlink"
 width="16px" height="15px">
<path fill-rule="evenodd"  fill="rgb(255, 255, 255)"
 d="M4.705,4.995 L13.176,4.995 L13.176,3.996 C13.176,2.893 12.334,1.998 11.294,1.998 L7.529,1.998 C7.529,1.468 7.331,0.960 6.978,0.585 C6.625,0.210 6.146,-0.000 5.647,-0.000 L1.882,-0.000 C0.843,0.000 -0.000,0.894 -0.000,1.998 L-0.000,11.988 C-0.000,12.243 0.050,12.484 0.131,12.708 L2.823,6.993 C3.439,5.999 3.666,4.995 4.705,4.995 L4.705,4.995 ZM14.117,5.994 L5.647,5.994 C4.607,5.994 4.380,6.998 3.765,7.992 L0.941,12.987 C0.941,14.090 1.784,13.986 2.823,13.986 L11.294,13.986 C12.333,13.986 12.561,14.199 13.176,12.987 L16.000,7.992 C16.000,7.462 15.801,6.954 15.449,6.579 C15.096,6.204 14.617,5.994 14.117,5.994 L14.117,5.994 Z"/>
</svg>
