<svg 
 xmlns="http://www.w3.org/2000/svg"
 xmlns:xlink="http://www.w3.org/1999/xlink"
 width="194.5px" height="147.5px">
<path fill-rule="evenodd"  fill="none"
 d="M-0.000,131.000 L16.000,131.000 L16.000,147.000 L-0.000,147.000 L-0.000,131.000 Z"/>
<path fill-rule="evenodd"  fill="rgb(23, 204, 95)"
 d="M149.011,106.750 C151.150,105.600 152.163,103.607 151.970,101.724 C152.178,99.731 151.150,97.848 149.011,96.699 L102.923,72.029 C100.882,70.879 98.438,70.353 95.994,70.353 C93.549,70.353 91.092,70.879 89.050,72.029 L42.962,96.602 C40.823,97.751 39.907,99.744 40.004,101.627 C39.907,103.621 40.823,105.600 42.962,106.750 L89.050,131.336 C91.092,132.485 93.536,133.011 95.994,133.011 C98.438,133.011 100.882,132.485 102.923,131.336 L149.011,106.750 Z"/>
<path fill-rule="evenodd"  fill="rgb(18, 177, 81)"
 d="M149.011,103.421 C151.150,102.271 152.163,100.278 151.970,98.395 C152.178,96.402 151.150,94.519 149.011,93.369 L102.923,68.699 C100.882,67.550 98.438,67.024 95.994,67.024 C93.549,67.024 91.092,67.550 89.050,68.699 L42.962,93.273 C40.823,94.422 39.907,96.415 40.004,98.298 C39.907,100.291 40.823,102.271 42.962,103.421 L89.050,128.007 C91.092,129.156 93.536,129.682 95.994,129.682 C98.438,129.682 100.882,129.156 102.923,128.007 L149.011,103.421 Z"/>
<path fill-rule="evenodd"  fill="rgb(23, 204, 95)"
 d="M149.011,102.155 C151.150,101.005 152.163,99.012 151.970,97.129 C152.178,95.136 151.150,93.253 149.011,92.103 L102.923,67.434 C100.882,66.284 98.438,65.758 95.994,65.758 C93.549,65.758 91.092,66.284 89.050,67.434 L42.962,92.007 C40.823,93.156 39.907,95.149 40.004,97.032 C39.907,99.025 40.823,101.005 42.962,102.155 L89.050,126.741 C91.092,127.890 93.536,128.417 95.994,128.417 C98.438,128.417 100.882,127.890 102.923,126.741 L149.011,102.155 Z"/>
<path fill-rule="evenodd"  fill="rgb(98, 98, 98)"
 d="M149.011,98.420 C151.150,97.271 152.163,95.278 151.970,93.395 C152.178,91.402 151.150,89.519 149.011,88.369 L102.923,63.699 C100.882,62.550 98.438,62.024 95.994,62.024 C93.549,62.024 91.092,62.550 89.050,63.699 L42.962,88.273 C40.823,89.422 39.907,91.415 40.004,93.298 C39.907,95.291 40.823,97.271 42.962,98.420 L89.050,123.007 C91.092,124.156 93.536,124.683 95.994,124.683 C98.438,124.683 100.882,124.156 102.923,123.007 L149.011,98.420 Z"/>
<path fill-rule="evenodd"  fill="rgb(127, 127, 127)"
 d="M149.011,97.155 C151.150,96.006 152.163,94.012 151.970,92.129 C152.178,90.136 151.150,88.253 149.011,87.104 L102.923,62.434 C100.882,61.284 98.438,60.758 95.994,60.758 C93.549,60.758 91.092,61.284 89.050,62.434 L42.962,87.007 C40.823,88.156 39.907,90.150 40.004,92.032 C39.907,94.025 40.823,96.006 42.962,97.155 L89.050,121.742 C91.092,122.891 93.536,123.417 95.994,123.417 C98.438,123.417 100.882,122.891 102.923,121.742 L149.011,97.155 Z"/>
<path fill-rule="evenodd"  fill="rgb(98, 98, 98)"
 d="M149.011,93.420 C151.150,92.271 152.163,90.277 151.970,88.395 C152.178,86.402 151.150,84.519 149.011,83.369 L102.923,58.700 C100.882,57.550 98.438,57.024 95.994,57.024 C93.549,57.024 91.092,57.550 89.050,58.700 L42.962,83.272 C40.823,84.422 39.907,86.415 40.004,88.298 C39.907,90.291 40.823,92.271 42.962,93.420 L89.050,118.007 C91.092,119.157 93.536,119.682 95.994,119.682 C98.438,119.682 100.882,119.157 102.923,118.007 L149.011,93.420 Z"/>
<path fill-rule="evenodd"  fill="rgb(127, 127, 127)"
 d="M149.011,92.154 C151.150,91.006 152.163,89.012 151.970,87.129 C152.178,85.136 151.150,83.253 149.011,82.103 L102.923,57.434 C100.882,56.284 98.438,55.759 95.994,55.759 C93.549,55.759 91.092,56.284 89.050,57.434 L42.962,82.007 C40.823,83.156 39.907,85.149 40.004,87.032 C39.907,89.026 40.823,91.006 42.962,92.154 L89.050,116.741 C91.092,117.891 93.536,118.416 95.994,118.416 C98.438,118.416 100.882,117.891 102.923,116.741 L149.011,92.154 Z"/>
<path fill-rule="evenodd"  fill="rgb(98, 98, 98)"
 d="M149.011,88.420 C151.150,87.271 152.163,85.278 151.970,83.395 C152.178,81.402 151.150,79.518 149.011,78.369 L102.923,53.699 C100.882,52.550 98.438,52.024 95.994,52.024 C93.549,52.024 91.092,52.550 89.050,53.699 L42.962,78.272 C40.823,79.422 39.907,81.415 40.004,83.298 C39.907,85.291 40.823,87.271 42.962,88.420 L89.050,113.007 C91.092,114.156 93.536,114.682 95.994,114.682 C98.438,114.682 100.882,114.156 102.923,113.007 L149.011,88.420 Z"/>
<path fill-rule="evenodd"  fill="rgb(127, 127, 127)"
 d="M149.011,87.155 C151.150,86.006 152.163,84.012 151.970,82.129 C152.178,80.136 151.150,78.253 149.011,77.103 L102.923,52.434 C100.882,51.284 98.438,50.758 95.994,50.758 C93.549,50.758 91.092,51.284 89.050,52.434 L42.962,77.007 C40.823,78.156 39.907,80.149 40.004,82.032 C39.907,84.026 40.823,86.006 42.962,87.155 L89.050,111.741 C91.092,112.891 93.536,113.416 95.994,113.416 C98.438,113.416 100.882,112.891 102.923,111.741 L149.011,87.155 Z"/>
<path fill-rule="evenodd"  fill="rgb(98, 98, 98)"
 d="M149.011,83.420 C151.150,82.271 152.163,80.278 151.970,78.395 C152.178,76.401 151.150,74.518 149.011,73.369 L102.923,48.699 C100.882,47.550 98.438,47.024 95.994,47.024 C93.549,47.024 91.092,47.550 89.050,48.699 L42.962,73.273 C40.823,74.422 39.907,76.415 40.004,78.298 C39.907,80.291 40.823,82.271 42.962,83.420 L89.050,108.007 C91.092,109.157 93.536,109.682 95.994,109.682 C98.438,109.682 100.882,109.157 102.923,108.007 L149.011,83.420 Z"/>
<path fill-rule="evenodd"  fill="rgb(127, 127, 127)"
 d="M149.011,82.155 C151.150,81.006 152.163,79.012 151.970,77.129 C152.178,75.136 151.150,73.253 149.011,72.104 L102.923,47.433 C100.882,46.284 98.438,45.758 95.994,45.758 C93.549,45.758 91.092,46.284 89.050,47.433 L42.962,72.007 C40.823,73.156 39.907,75.150 40.004,77.032 C39.907,79.026 40.823,81.006 42.962,82.155 L89.050,106.741 C91.092,107.891 93.536,108.417 95.994,108.417 C98.438,108.417 100.882,107.891 102.923,106.741 L149.011,82.155 Z"/>
<path fill-rule="evenodd"  fill="rgb(98, 98, 98)"
 d="M149.011,78.421 C151.150,77.271 152.163,75.278 151.970,73.395 C152.178,71.402 151.150,69.518 149.011,68.369 L102.923,43.699 C100.882,42.550 98.438,42.024 95.994,42.024 C93.549,42.024 91.092,42.550 89.050,43.699 L42.962,68.273 C40.823,69.422 39.907,71.415 40.004,73.298 C39.907,75.291 40.823,77.271 42.962,78.421 L89.050,103.007 C91.092,104.156 93.536,104.682 95.994,104.682 C98.438,104.682 100.882,104.156 102.923,103.007 L149.011,78.421 Z"/>
<path fill-rule="evenodd"  fill="rgb(127, 127, 127)"
 d="M149.011,77.155 C151.150,76.006 152.163,74.012 151.970,72.129 C152.178,70.136 151.150,68.253 149.011,67.103 L102.923,42.433 C100.882,41.284 98.438,40.759 95.994,40.759 C93.549,40.759 91.092,41.284 89.050,42.433 L42.962,67.007 C40.823,68.156 39.907,70.149 40.004,72.032 C39.907,74.025 40.823,76.006 42.962,77.155 L89.050,101.741 C91.092,102.891 93.536,103.417 95.994,103.417 C98.438,103.417 100.882,102.891 102.923,101.741 L149.011,77.155 Z"/>
<path fill-rule="evenodd"  fill="rgb(98, 98, 98)"
 d="M149.011,73.420 C151.150,72.271 152.163,70.278 151.970,68.395 C152.178,66.402 151.150,64.518 149.011,63.369 L102.923,38.699 C100.882,37.550 98.438,37.024 95.994,37.024 C93.549,37.024 91.092,37.550 89.050,38.699 L42.962,63.273 C40.823,64.422 39.907,66.415 40.004,68.298 C39.907,70.291 40.823,72.271 42.962,73.420 L89.050,98.007 C91.092,99.156 93.536,99.682 95.994,99.682 C98.438,99.682 100.882,99.156 102.923,98.007 L149.011,73.420 Z"/>
<path fill-rule="evenodd"  fill="rgb(127, 127, 127)"
 d="M149.011,72.155 C151.150,71.005 152.163,69.012 151.970,67.129 C152.178,65.136 151.150,63.253 149.011,62.104 L102.923,37.434 C100.882,36.284 98.438,35.758 95.994,35.758 C93.549,35.758 91.092,36.284 89.050,37.434 L42.962,62.007 C40.823,63.156 39.907,65.150 40.004,67.032 C39.907,69.025 40.823,71.005 42.962,72.155 L89.050,96.741 C91.092,97.890 93.536,98.417 95.994,98.417 C98.438,98.417 100.882,97.890 102.923,96.741 L149.011,72.155 Z"/>
<path fill-rule="evenodd"  fill="rgb(98, 98, 98)"
 d="M149.011,68.420 C151.150,67.271 152.163,65.278 151.970,63.395 C152.178,61.402 151.150,59.519 149.011,58.369 L102.923,33.699 C100.882,32.550 98.438,32.024 95.994,32.024 C93.549,32.024 91.092,32.550 89.050,33.699 L42.962,58.273 C40.823,59.422 39.907,61.415 40.004,63.298 C39.907,65.291 40.823,67.271 42.962,68.420 L89.050,93.007 C91.092,94.156 93.536,94.682 95.994,94.682 C98.438,94.682 100.882,94.156 102.923,93.007 L149.011,68.420 Z"/>
<path fill-rule="evenodd"  fill="rgb(127, 127, 127)"
 d="M149.011,67.154 C151.150,66.006 152.163,64.012 151.970,62.129 C152.178,60.136 151.150,58.253 149.011,57.104 L102.923,32.434 C100.882,31.284 98.438,30.758 95.994,30.758 C93.549,30.758 91.092,31.284 89.050,32.434 L42.962,57.007 C40.823,58.156 39.907,60.149 40.004,62.032 C39.907,64.025 40.823,66.006 42.962,67.154 L89.050,91.742 C91.092,92.891 93.536,93.417 95.994,93.417 C98.438,93.417 100.882,92.891 102.923,91.742 L149.011,67.154 Z"/>
<path fill-rule="evenodd"  fill="rgb(98, 98, 98)"
 d="M149.011,63.420 C151.150,62.271 152.163,60.278 151.970,58.395 C152.178,56.402 151.150,54.518 149.011,53.369 L102.923,28.699 C100.882,27.550 98.438,27.024 95.994,27.024 C93.549,27.024 91.092,27.550 89.050,28.699 L42.962,53.272 C40.823,54.422 39.907,56.415 40.004,58.298 C39.907,60.291 40.823,62.271 42.962,63.420 L89.050,88.007 C91.092,89.156 93.536,89.682 95.994,89.682 C98.438,89.682 100.882,89.156 102.923,88.007 L149.011,63.420 Z"/>
<path fill-rule="evenodd"  fill="rgb(127, 127, 127)"
 d="M149.011,62.154 C151.150,61.006 152.163,59.012 151.970,57.129 C152.178,55.136 151.150,53.253 149.011,52.103 L102.923,27.434 C100.882,26.284 98.438,25.758 95.994,25.758 C93.549,25.758 91.092,26.284 89.050,27.434 L42.962,52.006 C40.823,53.156 39.907,55.149 40.004,57.032 C39.907,59.025 40.823,61.006 42.962,62.154 L89.050,86.741 C91.092,87.891 93.536,88.416 95.994,88.416 C98.438,88.416 100.882,87.891 102.923,86.741 L149.011,62.154 Z"/>
<path fill-rule="evenodd"  fill="rgb(98, 98, 98)"
 d="M149.011,58.420 C151.150,57.271 152.163,55.278 151.970,53.395 C152.178,51.402 151.150,49.519 149.011,48.369 L102.923,23.699 C100.882,22.550 98.438,22.024 95.994,22.024 C93.549,22.024 91.092,22.550 89.050,23.699 L42.962,48.273 C40.823,49.422 39.907,51.415 40.004,53.298 C39.907,55.291 40.823,57.271 42.962,58.420 L89.050,83.007 C91.092,84.157 93.536,84.682 95.994,84.682 C98.438,84.682 100.882,84.157 102.923,83.007 L149.011,58.420 Z"/>
<path fill-rule="evenodd"  fill="rgb(127, 127, 127)"
 d="M149.011,57.154 C151.150,56.006 152.163,54.012 151.970,52.129 C152.178,50.136 151.150,48.253 149.011,47.103 L102.923,22.434 C100.882,21.284 98.438,20.758 95.994,20.758 C93.549,20.758 91.092,21.284 89.050,22.434 L42.962,47.007 C40.823,48.156 39.907,50.149 40.004,52.032 C39.907,54.026 40.823,56.006 42.962,57.154 L89.050,81.742 C91.092,82.891 93.536,83.417 95.994,83.417 C98.438,83.417 100.882,82.891 102.923,81.742 L149.011,57.154 Z"/>
<path fill-rule="evenodd"  fill="rgb(98, 98, 98)"
 d="M149.011,53.421 C151.150,52.272 152.163,50.278 151.970,48.395 C152.178,46.402 151.150,44.518 149.011,43.369 L102.923,18.699 C100.882,17.550 98.438,17.024 95.994,17.024 C93.549,17.024 91.092,17.550 89.050,18.699 L42.962,43.273 C40.823,44.422 39.907,46.415 40.004,48.298 C39.907,50.291 40.823,52.272 42.962,53.421 L89.050,78.007 C91.092,79.157 93.536,79.682 95.994,79.682 C98.438,79.682 100.882,79.157 102.923,78.007 L149.011,53.421 Z"/>
<path fill-rule="evenodd"  fill="rgb(127, 127, 127)"
 d="M149.011,52.155 C151.150,51.006 152.163,49.012 151.970,47.129 C152.178,45.136 151.150,43.253 149.011,42.103 L102.923,17.434 C100.882,16.284 98.438,15.759 95.994,15.759 C93.549,15.759 91.092,16.284 89.050,17.434 L42.962,42.007 C40.823,43.156 39.907,45.149 40.004,47.032 C39.907,49.026 40.823,51.006 42.962,52.155 L89.050,76.741 C91.092,77.891 93.536,78.417 95.994,78.417 C98.438,78.417 100.882,77.891 102.923,76.741 L149.011,52.155 Z"/>
<path fill-rule="evenodd"  fill="rgb(98, 98, 98)"
 d="M149.011,48.420 C151.150,47.271 152.163,45.278 151.970,43.395 C152.178,41.402 151.150,39.518 149.011,38.369 L102.923,13.700 C100.882,12.550 98.438,12.024 95.994,12.024 C93.549,12.024 91.092,12.550 89.050,13.700 L42.962,38.273 C40.823,39.422 39.907,41.415 40.004,43.298 C39.907,45.291 40.823,47.271 42.962,48.420 L89.050,73.007 C91.092,74.156 93.536,74.682 95.994,74.682 C98.438,74.682 100.882,74.156 102.923,73.007 L149.011,48.420 Z"/>
<path fill-rule="evenodd"  fill="rgb(127, 127, 127)"
 d="M149.011,47.155 C151.150,46.005 152.163,44.012 151.970,42.129 C152.178,40.136 151.150,38.252 149.011,37.103 L102.923,12.433 C100.882,11.284 98.438,10.758 95.994,10.758 C93.549,10.758 91.092,11.284 89.050,12.433 L42.962,37.007 C40.823,38.156 39.907,40.150 40.004,42.032 C39.907,44.026 40.823,46.005 42.962,47.155 L89.050,71.741 C91.092,72.891 93.536,73.417 95.994,73.417 C98.438,73.417 100.882,72.891 102.923,71.741 L149.011,47.155 Z"/>
<path fill-rule="evenodd"  fill="rgb(98, 98, 98)"
 d="M149.011,43.420 C151.150,42.271 152.163,40.278 151.970,38.395 C152.178,36.402 151.150,34.519 149.011,33.369 L102.923,8.699 C100.882,7.550 98.438,7.024 95.994,7.024 C93.549,7.024 91.092,7.550 89.050,8.699 L42.962,33.273 C40.823,34.422 39.907,36.415 40.004,38.298 C39.907,40.291 40.823,42.271 42.962,43.420 L89.050,68.007 C91.092,69.156 93.536,69.682 95.994,69.682 C98.438,69.682 100.882,69.156 102.923,68.007 L149.011,43.420 Z"/>
<path fill-rule="evenodd"  fill="rgb(127, 127, 127)"
 d="M149.011,42.155 C151.150,41.005 152.163,39.012 151.970,37.129 C152.178,35.136 151.150,33.253 149.011,32.104 L102.923,7.434 C100.882,6.284 98.438,5.758 95.994,5.758 C93.549,5.758 91.092,6.284 89.050,7.434 L42.962,32.007 C40.823,33.156 39.907,35.150 40.004,37.032 C39.907,39.025 40.823,41.005 42.962,42.155 L89.050,66.742 C91.092,67.891 93.536,68.417 95.994,68.417 C98.438,68.417 100.882,67.891 102.923,66.742 L149.011,42.155 Z"/>
<path fill-rule="evenodd"  fill="rgb(108, 108, 108)"
 d="M149.011,38.421 C151.150,37.271 152.163,35.278 151.970,33.395 C152.178,31.402 151.150,29.518 149.011,28.369 L102.923,3.699 C100.882,2.550 98.438,2.024 95.994,2.024 C93.549,2.024 91.092,2.550 89.050,3.699 L42.962,28.273 C40.823,29.422 39.907,31.415 40.004,33.298 C39.907,35.291 40.823,37.271 42.962,38.421 L89.050,63.007 C91.092,64.156 93.536,64.682 95.994,64.682 C98.438,64.682 100.882,64.156 102.923,63.007 L149.011,38.421 Z"/>
<path fill-rule="evenodd"  fill="rgb(127, 127, 127)"
 d="M149.011,37.155 C151.150,36.005 152.163,34.012 151.970,32.129 C152.178,30.136 151.150,28.253 149.011,27.103 L102.923,2.434 C100.882,1.284 98.438,0.758 95.994,0.758 C93.549,0.758 91.092,1.284 89.050,2.434 L42.962,27.007 C40.823,28.156 39.907,30.150 40.004,32.032 C39.907,34.025 40.823,36.005 42.962,37.155 L89.050,61.741 C91.092,62.890 93.536,63.417 95.994,63.417 C98.438,63.417 100.882,62.890 102.923,61.741 L149.011,37.155 Z"/>
<path fill-rule="evenodd"  stroke="rgb(109, 109, 109)" stroke-width="1px" stroke-linecap="butt" stroke-linejoin="miter" fill="none"
 d="M137.685,36.051 C139.366,35.134 140.164,33.543 140.011,32.041 C140.175,30.450 139.366,28.947 137.685,28.029 L101.459,8.343 C99.854,7.426 97.933,7.006 96.012,7.006 C94.091,7.006 92.159,7.426 90.555,8.343 L54.327,27.953 C52.647,28.870 51.926,30.461 52.003,31.963 C51.926,33.554 52.647,35.134 54.327,36.051 L90.555,55.671 C92.159,56.588 94.080,57.008 96.012,57.008 C97.933,57.008 99.854,56.588 101.459,55.671 L137.685,36.051 Z"/>
<path fill-rule="evenodd"  stroke="rgb(109, 109, 109)" stroke-width="1px" stroke-linecap="butt" stroke-linejoin="miter" fill="none"
 d="M98.458,12.250 L96.853,11.540 L93.108,13.196 L100.598,13.196 L101.935,14.142 L90.433,14.142 L88.025,15.325 L105.145,15.325 L107.284,16.744 L85.619,16.744 L83.746,17.926 L110.227,17.926 L112.901,19.345 L80.536,19.345 L78.129,20.764 L116.111,20.764 L118.251,22.184 L75.186,22.184 L73.314,23.366 L121.728,23.603 L123.868,24.785 L69.570,25.022 L67.430,26.204 L127.345,26.441 L129.218,27.623 L64.487,27.860 L62.347,29.279 L132.101,29.279 L134.241,30.698 L58.602,30.698 L57.634,31.881 L135.519,32.353 L134.776,33.773 L59.137,33.773 L61.011,34.956 L130.823,35.429 L128.683,36.848 L65.290,36.848 L67.163,38.030 L126.007,38.030 L124.403,39.449 L70.639,39.449 L72.245,40.632 L120.123,40.868 L118.251,42.288 L75.989,42.288 L77.861,43.470 L114.774,43.470 L112.901,44.889 L81.339,45.126 L83.211,46.308 L108.622,46.545 L106.749,47.964 L87.759,47.964 L89.631,49.383 L103.272,49.147 L101.667,50.566 L93.642,50.802 L96.853,52.458 L98.724,51.748 "/>
<path fill-rule="evenodd"  opacity="0.302" fill="rgb(0, 0, 0)"
 d="M95.994,133.417 C98.438,133.417 100.882,132.891 102.923,131.741 L149.011,107.155 C151.150,106.005 152.163,104.012 151.970,102.129 C152.178,100.136 152.252,30.145 151.970,32.129 C152.163,35.088 151.138,36.850 148.999,37.999 L107.999,59.999 C105.958,61.148 98.022,64.288 96.999,63.999 C96.990,63.996 97.969,65.686 97.939,66.928 C97.924,67.533 96.908,68.268 96.889,69.119 C96.875,69.781 97.859,70.513 97.842,71.307 C97.827,72.040 96.811,72.825 96.794,73.658 C96.779,74.421 97.762,75.223 97.745,76.061 C97.730,76.875 96.712,77.722 96.696,78.597 C96.677,79.537 97.658,80.509 97.639,81.510 C97.623,82.302 96.607,83.111 96.592,83.936 C96.575,84.813 97.558,85.707 97.541,86.615 C97.530,87.188 96.519,87.767 96.508,88.350 C96.490,89.270 97.473,90.201 97.455,91.140 C97.439,91.990 96.422,92.846 96.406,93.707 C96.390,94.589 97.373,95.474 97.356,96.362 C97.340,97.256 96.323,98.151 96.307,99.046 C96.291,99.895 97.275,100.744 97.260,101.590 C97.245,102.336 96.231,103.081 96.218,103.821 C96.203,104.600 97.189,105.376 97.175,106.145 C97.158,107.033 96.143,107.913 96.127,108.782 C96.110,109.662 97.094,110.532 97.078,111.389 C97.064,112.185 96.049,112.969 96.036,113.740 C96.020,114.590 97.004,115.422 96.990,116.236 C96.975,117.050 95.960,117.844 95.946,118.615 C95.928,119.632 96.910,120.610 96.893,121.542 C96.880,122.280 95.867,122.990 95.854,123.667 C95.840,124.491 96.826,125.268 96.812,125.990 C96.798,126.743 95.786,127.438 95.775,128.068 C95.758,129.015 96.743,129.813 96.732,130.440 C96.714,131.468 95.704,132.033 95.704,132.033 C95.704,132.033 95.886,133.417 95.994,133.417 Z"/>
<path fill-rule="evenodd"  fill="rgb(255, 255, 255)"
 d="M193.999,112.691 L193.999,114.999 L187.161,114.999 L187.161,112.691 L189.367,112.691 L189.367,87.307 L187.161,87.307 L187.161,84.999 L193.999,84.999 L193.999,87.307 L191.573,87.307 L191.573,112.691 L193.999,112.691 ZM183.411,96.537 L180.764,97.230 L171.940,99.538 L170.396,97.691 L168.631,95.615 L164.440,90.999 L180.102,87.076 L187.823,95.384 L183.411,96.537 ZM179.440,89.615 L168.631,92.384 L171.058,94.922 L172.822,96.768 L181.647,94.692 L183.632,93.999 L179.440,89.615 ZM170.176,98.614 L168.190,99.307 L170.396,101.845 L172.161,103.691 L181.425,101.384 L182.970,100.922 L180.543,98.384 L183.190,97.691 L187.161,102.307 L183.190,103.230 L180.764,103.922 L171.499,106.230 L169.734,104.384 L167.970,102.307 L163.999,97.922 L168.411,96.768 L170.176,98.614 ZM169.734,105.538 L168.190,105.999 L172.381,110.384 L183.190,107.614 L180.764,105.076 L183.190,104.384 L187.381,108.999 L171.499,112.922 L163.999,104.615 L167.970,103.461 L169.734,105.538 Z"/>
</svg>
