<svg 
 xmlns="http://www.w3.org/2000/svg"
 xmlns:xlink="http://www.w3.org/1999/xlink"
 width="126.5px" height="147.5px">
<path fill-rule="evenodd"  fill="none"
 d="M55.000,140.000 L78.000,140.000 L78.000,147.000 L55.000,147.000 L55.000,140.000 Z"/>
<path fill-rule="evenodd"  fill="rgb(23, 204, 95)"
 d="M6.000,105.000 L4.000,106.000 L6.000,103.000 L4.000,103.000 L6.000,99.000 L3.000,100.000 L7.000,96.000 L3.000,96.000 L8.000,92.000 L2.000,93.000 L8.000,89.000 L4.000,90.000 L6.000,86.000 L2.000,87.000 L3.000,84.000 L7.000,83.000 L3.000,82.000 L5.000,79.000 L2.000,77.000 L6.000,75.000 L1.000,74.000 L5.000,68.000 L-0.000,68.000 L6.000,64.000 L2.000,64.000 L4.000,61.000 L1.000,60.000 L5.000,57.000 L-0.000,56.000 L6.000,54.000 L2.000,53.000 L5.000,50.000 L1.000,50.000 L6.000,46.000 L-0.000,44.000 L5.000,41.000 L1.000,41.000 L6.000,38.000 L3.000,38.000 L6.000,36.000 L2.000,34.000 L6.000,33.000 L2.000,30.000 L7.000,31.000 L9.000,33.000 L9.000,105.000 L7.000,106.000 L6.000,105.000 Z"/>
<path fill-rule="evenodd"  fill="rgb(17, 154, 71)"
 d="M120.000,31.000 L122.000,30.000 L120.000,33.000 L122.000,33.000 L120.000,37.000 L123.000,36.000 L119.000,40.000 L123.000,40.000 L118.000,44.000 L124.000,43.000 L118.000,47.000 L122.000,46.000 L120.000,50.000 L124.000,49.000 L123.000,52.000 L119.000,53.000 L123.000,54.000 L121.000,57.000 L124.000,59.000 L120.000,61.000 L125.000,62.000 L121.000,68.000 L126.000,68.000 L120.000,72.000 L124.000,72.000 L122.000,75.000 L125.000,76.000 L121.000,79.000 L126.000,80.000 L120.000,82.000 L124.000,83.000 L121.000,86.000 L125.000,86.000 L120.000,90.000 L126.000,92.000 L121.000,95.000 L125.000,95.000 L120.000,98.000 L123.000,98.000 L120.000,100.000 L124.000,102.000 L120.000,103.000 L124.000,106.000 L119.000,105.000 L117.000,103.000 L117.000,31.000 L119.000,30.000 L120.000,31.000 Z"/>
<path fill-rule="evenodd"  fill="rgb(127, 127, 127)"
 d="M116.012,106.749 C118.150,105.601 119.164,103.607 118.970,101.724 C119.178,99.731 118.150,97.848 116.012,96.699 L69.923,72.029 C67.882,70.879 65.438,70.353 62.994,70.353 C60.550,70.353 58.091,70.879 56.051,72.029 L9.962,96.602 C7.823,97.751 6.907,99.744 7.004,101.627 C6.907,103.620 7.823,105.601 9.962,106.749 L56.051,131.336 C58.091,132.486 60.536,133.012 62.994,133.012 C65.438,133.012 67.882,132.486 69.923,131.336 L116.012,106.749 Z"/>
<path fill-rule="evenodd"  fill="rgb(98, 98, 98)"
 d="M116.012,103.420 C118.150,102.271 119.164,100.278 118.970,98.395 C119.178,96.402 118.150,94.519 116.012,93.369 L69.923,68.699 C67.882,67.550 65.438,67.024 62.994,67.024 C60.550,67.024 58.091,67.550 56.051,68.699 L9.962,93.273 C7.823,94.422 6.907,96.415 7.004,98.298 C6.907,100.291 7.823,102.271 9.962,103.420 L56.051,128.007 C58.091,129.156 60.536,129.682 62.994,129.682 C65.438,129.682 67.882,129.156 69.923,128.007 L116.012,103.420 Z"/>
<path fill-rule="evenodd"  fill="rgb(127, 127, 127)"
 d="M116.012,102.154 C118.150,101.006 119.164,99.012 118.970,97.129 C119.178,95.136 118.150,93.253 116.012,92.103 L69.923,67.434 C67.882,66.284 65.438,65.759 62.994,65.759 C60.550,65.759 58.091,66.284 56.051,67.434 L9.962,92.007 C7.823,93.156 6.907,95.149 7.004,97.032 C6.907,99.025 7.823,101.006 9.962,102.154 L56.051,126.741 C58.091,127.891 60.536,128.416 62.994,128.416 C65.438,128.416 67.882,127.891 69.923,126.741 L116.012,102.154 Z"/>
<path fill-rule="evenodd"  fill="rgb(98, 98, 98)"
 d="M116.012,98.420 C118.150,97.271 119.164,95.278 118.970,93.395 C119.178,91.402 118.150,89.519 116.012,88.369 L69.923,63.699 C67.882,62.550 65.438,62.024 62.994,62.024 C60.550,62.024 58.091,62.550 56.051,63.699 L9.962,88.273 C7.823,89.422 6.907,91.415 7.004,93.298 C6.907,95.291 7.823,97.271 9.962,98.420 L56.051,123.007 C58.091,124.157 60.536,124.682 62.994,124.682 C65.438,124.682 67.882,124.157 69.923,123.007 L116.012,98.420 Z"/>
<path fill-rule="evenodd"  fill="rgb(127, 127, 127)"
 d="M116.012,97.154 C118.150,96.006 119.164,94.012 118.970,92.129 C119.178,90.136 118.150,88.253 116.012,87.103 L69.923,62.434 C67.882,61.284 65.438,60.758 62.994,60.758 C60.550,60.758 58.091,61.284 56.051,62.434 L9.962,87.007 C7.823,88.156 6.907,90.149 7.004,92.032 C6.907,94.026 7.823,96.006 9.962,97.154 L56.051,121.742 C58.091,122.891 60.536,123.417 62.994,123.417 C65.438,123.417 67.882,122.891 69.923,121.742 L116.012,97.154 Z"/>
<path fill-rule="evenodd"  fill="rgb(98, 98, 98)"
 d="M116.012,93.421 C118.150,92.272 119.164,90.278 118.970,88.395 C119.178,86.402 118.150,84.518 116.012,83.369 L69.923,58.699 C67.882,57.550 65.438,57.024 62.994,57.024 C60.550,57.024 58.091,57.550 56.051,58.699 L9.962,83.273 C7.823,84.422 6.907,86.415 7.004,88.298 C6.907,90.291 7.823,92.272 9.962,93.421 L56.051,118.007 C58.091,119.157 60.536,119.682 62.994,119.682 C65.438,119.682 67.882,119.157 69.923,118.007 L116.012,93.421 Z"/>
<path fill-rule="evenodd"  fill="rgb(127, 127, 127)"
 d="M116.012,92.155 C118.150,91.006 119.164,89.012 118.970,87.130 C119.178,85.136 118.150,83.252 116.012,82.103 L69.923,57.434 C67.882,56.284 65.438,55.759 62.994,55.759 C60.550,55.759 58.091,56.284 56.051,57.434 L9.962,82.007 C7.823,83.156 6.907,85.149 7.004,87.032 C6.907,89.026 7.823,91.006 9.962,92.155 L56.051,116.741 C58.091,117.891 60.536,118.417 62.994,118.417 C65.438,118.417 67.882,117.891 69.923,116.741 L116.012,92.155 Z"/>
<path fill-rule="evenodd"  fill="rgb(98, 98, 98)"
 d="M116.012,88.421 C118.150,87.271 119.164,85.278 118.970,83.395 C119.178,81.402 118.150,79.518 116.012,78.369 L69.923,53.699 C67.882,52.550 65.438,52.024 62.994,52.024 C60.550,52.024 58.091,52.550 56.051,53.699 L9.962,78.273 C7.823,79.422 6.907,81.415 7.004,83.298 C6.907,85.291 7.823,87.271 9.962,88.421 L56.051,113.007 C58.091,114.157 60.536,114.683 62.994,114.683 C65.438,114.683 67.882,114.157 69.923,113.007 L116.012,88.421 Z"/>
<path fill-rule="evenodd"  fill="rgb(127, 127, 127)"
 d="M116.012,87.155 C118.150,86.005 119.164,84.012 118.970,82.129 C119.178,80.136 118.150,78.252 116.012,77.104 L69.923,52.433 C67.882,51.284 65.438,50.758 62.994,50.758 C60.550,50.758 58.091,51.284 56.051,52.433 L9.962,77.007 C7.823,78.156 6.907,80.150 7.004,82.032 C6.907,84.026 7.823,86.005 9.962,87.155 L56.051,111.741 C58.091,112.891 60.536,113.417 62.994,113.417 C65.438,113.417 67.882,112.891 69.923,111.741 L116.012,87.155 Z"/>
<path fill-rule="evenodd"  fill="rgb(98, 98, 98)"
 d="M116.012,83.420 C118.150,82.271 119.164,80.278 118.970,78.395 C119.178,76.402 118.150,74.519 116.012,73.369 L69.923,48.700 C67.882,47.550 65.438,47.024 62.994,47.024 C60.550,47.024 58.091,47.550 56.051,48.700 L9.962,73.273 C7.823,74.422 6.907,76.415 7.004,78.298 C6.907,80.291 7.823,82.271 9.962,83.420 L56.051,108.007 C58.091,109.156 60.536,109.682 62.994,109.682 C65.438,109.682 67.882,109.156 69.923,108.007 L116.012,83.420 Z"/>
<path fill-rule="evenodd"  fill="rgb(127, 127, 127)"
 d="M116.012,82.155 C118.150,81.005 119.164,79.012 118.970,77.130 C119.178,75.136 118.150,73.253 116.012,72.104 L69.923,47.434 C67.882,46.285 65.438,45.759 62.994,45.759 C60.550,45.759 58.091,46.285 56.051,47.434 L9.962,72.007 C7.823,73.156 6.907,75.150 7.004,77.032 C6.907,79.025 7.823,81.005 9.962,82.155 L56.051,106.742 C58.091,107.891 60.536,108.417 62.994,108.417 C65.438,108.417 67.882,107.891 69.923,106.742 L116.012,82.155 Z"/>
<path fill-rule="evenodd"  fill="rgb(98, 98, 98)"
 d="M116.012,78.421 C118.150,77.271 119.164,75.278 118.970,73.395 C119.178,71.402 118.150,69.519 116.012,68.369 L69.923,43.699 C67.882,42.550 65.438,42.024 62.994,42.024 C60.550,42.024 58.091,42.550 56.051,43.699 L9.962,68.273 C7.823,69.422 6.907,71.415 7.004,73.298 C6.907,75.291 7.823,77.271 9.962,78.421 L56.051,103.007 C58.091,104.157 60.536,104.682 62.994,104.682 C65.438,104.682 67.882,104.157 69.923,103.007 L116.012,78.421 Z"/>
<path fill-rule="evenodd"  fill="rgb(127, 127, 127)"
 d="M116.012,77.155 C118.150,76.005 119.164,74.012 118.970,72.129 C119.178,70.136 118.150,68.253 116.012,67.103 L69.923,42.434 C67.882,41.284 65.438,40.758 62.994,40.758 C60.550,40.758 58.091,41.284 56.051,42.434 L9.962,67.007 C7.823,68.156 6.907,70.150 7.004,72.032 C6.907,74.026 7.823,76.005 9.962,77.155 L56.051,101.741 C58.091,102.891 60.536,103.417 62.994,103.417 C65.438,103.417 67.882,102.891 69.923,101.741 L116.012,77.155 Z"/>
<path fill-rule="evenodd"  fill="rgb(98, 98, 98)"
 d="M116.012,73.420 C118.150,72.271 119.164,70.278 118.970,68.395 C119.178,66.402 118.150,64.519 116.012,63.369 L69.923,38.699 C67.882,37.550 65.438,37.024 62.994,37.024 C60.550,37.024 58.091,37.550 56.051,38.699 L9.962,63.273 C7.823,64.422 6.907,66.415 7.004,68.298 C6.907,70.291 7.823,72.271 9.962,73.420 L56.051,98.007 C58.091,99.157 60.536,99.682 62.994,99.682 C65.438,99.682 67.882,99.157 69.923,98.007 L116.012,73.420 Z"/>
<path fill-rule="evenodd"  fill="rgb(127, 127, 127)"
 d="M116.012,72.154 C118.150,71.006 119.164,69.012 118.970,67.129 C119.178,65.136 118.150,63.253 116.012,62.104 L69.923,37.434 C67.882,36.284 65.438,35.758 62.994,35.758 C60.550,35.758 58.091,36.284 56.051,37.434 L9.962,62.007 C7.823,63.156 6.907,65.149 7.004,67.032 C6.907,69.026 7.823,71.006 9.962,72.154 L56.051,96.742 C58.091,97.891 60.536,98.417 62.994,98.417 C65.438,98.417 67.882,97.891 69.923,96.742 L116.012,72.154 Z"/>
<path fill-rule="evenodd"  fill="rgb(98, 98, 98)"
 d="M116.012,68.421 C118.150,67.272 119.164,65.278 118.970,63.395 C119.178,61.402 118.150,59.519 116.012,58.369 L69.923,33.700 C67.882,32.550 65.438,32.024 62.994,32.024 C60.550,32.024 58.091,32.550 56.051,33.700 L9.962,58.273 C7.823,59.422 6.907,61.416 7.004,63.298 C6.907,65.291 7.823,67.272 9.962,68.421 L56.051,93.007 C58.091,94.157 60.536,94.682 62.994,94.682 C65.438,94.682 67.882,94.157 69.923,93.007 L116.012,68.421 Z"/>
<path fill-rule="evenodd"  fill="rgb(127, 127, 127)"
 d="M116.012,67.155 C118.150,66.006 119.164,64.012 118.970,62.129 C119.178,60.136 118.150,58.253 116.012,57.103 L69.923,32.434 C67.882,31.285 65.438,30.759 62.994,30.759 C60.550,30.759 58.091,31.285 56.051,32.434 L9.962,57.007 C7.823,58.156 6.907,60.149 7.004,62.032 C6.907,64.026 7.823,66.006 9.962,67.155 L56.051,91.742 C58.091,92.891 60.536,93.417 62.994,93.417 C65.438,93.417 67.882,92.891 69.923,91.742 L116.012,67.155 Z"/>
<path fill-rule="evenodd"  fill="rgb(98, 98, 98)"
 d="M116.012,63.421 C118.150,62.271 119.164,60.278 118.970,58.395 C119.178,56.402 118.150,54.519 116.012,53.369 L69.923,28.699 C67.882,27.550 65.438,27.024 62.994,27.024 C60.550,27.024 58.091,27.550 56.051,28.699 L9.962,53.273 C7.823,54.422 6.907,56.415 7.004,58.298 C6.907,60.291 7.823,62.271 9.962,63.421 L56.051,88.007 C58.091,89.157 60.536,89.683 62.994,89.683 C65.438,89.683 67.882,89.157 69.923,88.007 L116.012,63.421 Z"/>
<path fill-rule="evenodd"  fill="rgb(127, 127, 127)"
 d="M116.012,62.155 C118.150,61.006 119.164,59.012 118.970,57.129 C119.178,55.136 118.150,53.253 116.012,52.103 L69.923,27.433 C67.882,26.284 65.438,25.758 62.994,25.758 C60.550,25.758 58.091,26.284 56.051,27.433 L9.962,52.007 C7.823,53.156 6.907,55.150 7.004,57.032 C6.907,59.026 7.823,61.006 9.962,62.155 L56.051,86.742 C58.091,87.891 60.536,88.417 62.994,88.417 C65.438,88.417 67.882,87.891 69.923,86.742 L116.012,62.155 Z"/>
<path fill-rule="evenodd"  fill="rgb(98, 98, 98)"
 d="M116.012,58.420 C118.150,57.271 119.164,55.278 118.970,53.395 C119.178,51.402 118.150,49.518 116.012,48.369 L69.923,23.699 C67.882,22.550 65.438,22.024 62.994,22.024 C60.550,22.024 58.091,22.550 56.051,23.699 L9.962,48.273 C7.823,49.421 6.907,51.415 7.004,53.298 C6.907,55.291 7.823,57.271 9.962,58.420 L56.051,83.007 C58.091,84.157 60.536,84.683 62.994,84.683 C65.438,84.683 67.882,84.157 69.923,83.007 L116.012,58.420 Z"/>
<path fill-rule="evenodd"  fill="rgb(127, 127, 127)"
 d="M116.012,57.155 C118.150,56.005 119.164,54.012 118.970,52.129 C119.178,50.136 118.150,48.252 116.012,47.104 L69.923,22.433 C67.882,21.284 65.438,20.758 62.994,20.758 C60.550,20.758 58.091,21.284 56.051,22.433 L9.962,47.007 C7.823,48.156 6.907,50.150 7.004,52.032 C6.907,54.026 7.823,56.005 9.962,57.155 L56.051,81.742 C58.091,82.891 60.536,83.417 62.994,83.417 C65.438,83.417 67.882,82.891 69.923,81.742 L116.012,57.155 Z"/>
<path fill-rule="evenodd"  fill="rgb(98, 98, 98)"
 d="M116.012,53.421 C118.150,52.271 119.164,50.278 118.970,48.395 C119.178,46.402 118.150,44.519 116.012,43.369 L69.923,18.699 C67.882,17.550 65.438,17.024 62.994,17.024 C60.550,17.024 58.091,17.550 56.051,18.699 L9.962,43.273 C7.823,44.422 6.907,46.415 7.004,48.298 C6.907,50.291 7.823,52.271 9.962,53.421 L56.051,78.007 C58.091,79.156 60.536,79.682 62.994,79.682 C65.438,79.682 67.882,79.156 69.923,78.007 L116.012,53.421 Z"/>
<path fill-rule="evenodd"  fill="rgb(127, 127, 127)"
 d="M116.012,52.155 C118.150,51.006 119.164,49.012 118.970,47.129 C119.178,45.136 118.150,43.253 116.012,42.103 L69.923,17.433 C67.882,16.284 65.438,15.758 62.994,15.758 C60.550,15.758 58.091,16.284 56.051,17.433 L9.962,42.007 C7.823,43.156 6.907,45.150 7.004,47.032 C6.907,49.026 7.823,51.006 9.962,52.155 L56.051,76.741 C58.091,77.890 60.536,78.417 62.994,78.417 C65.438,78.417 67.882,77.890 69.923,76.741 L116.012,52.155 Z"/>
<path fill-rule="evenodd"  fill="rgb(98, 98, 98)"
 d="M116.012,48.420 C118.150,47.271 119.164,45.278 118.970,43.395 C119.178,41.402 118.150,39.519 116.012,38.369 L69.923,13.699 C67.882,12.550 65.438,12.024 62.994,12.024 C60.550,12.024 58.091,12.550 56.051,13.699 L9.962,38.273 C7.823,39.422 6.907,41.415 7.004,43.298 C6.907,45.291 7.823,47.271 9.962,48.420 L56.051,73.007 C58.091,74.156 60.536,74.683 62.994,74.683 C65.438,74.683 67.882,74.156 69.923,73.007 L116.012,48.420 Z"/>
<path fill-rule="evenodd"  fill="rgb(127, 127, 127)"
 d="M116.012,47.155 C118.150,46.006 119.164,44.012 118.970,42.129 C119.178,40.136 118.150,38.253 116.012,37.104 L69.923,12.434 C67.882,11.284 65.438,10.758 62.994,10.758 C60.550,10.758 58.091,11.284 56.051,12.434 L9.962,37.007 C7.823,38.156 6.907,40.150 7.004,42.032 C6.907,44.025 7.823,46.006 9.962,47.155 L56.051,71.742 C58.091,72.890 60.536,73.417 62.994,73.417 C65.438,73.417 67.882,72.890 69.923,71.742 L116.012,47.155 Z"/>
<path fill-rule="evenodd"  fill="rgb(98, 98, 98)"
 d="M116.012,43.420 C118.150,42.272 119.164,40.278 118.970,38.395 C119.178,36.402 118.150,34.519 116.012,33.369 L69.923,8.700 C67.882,7.550 65.438,7.024 62.994,7.024 C60.550,7.024 58.091,7.550 56.051,8.700 L9.962,33.272 C7.823,34.422 6.907,36.415 7.004,38.298 C6.907,40.291 7.823,42.272 9.962,43.420 L56.051,68.007 C58.091,69.157 60.536,69.682 62.994,69.682 C65.438,69.682 67.882,69.157 69.923,68.007 L116.012,43.420 Z"/>
<path fill-rule="evenodd"  fill="rgb(127, 127, 127)"
 d="M116.012,42.155 C118.150,41.006 119.164,39.012 118.970,37.129 C119.178,35.136 118.150,33.253 116.012,32.103 L69.923,7.434 C67.882,6.284 65.438,5.758 62.994,5.758 C60.550,5.758 58.091,6.284 56.051,7.434 L9.962,32.007 C7.823,33.156 6.907,35.149 7.004,37.032 C6.907,39.026 7.823,41.006 9.962,42.155 L56.051,66.742 C58.091,67.891 60.536,68.416 62.994,68.416 C65.438,68.416 67.882,67.891 69.923,66.742 L116.012,42.155 Z"/>
<path fill-rule="evenodd"  fill="rgb(108, 108, 108)"
 d="M116.012,38.420 C118.150,37.271 119.164,35.278 118.970,33.395 C119.178,31.402 118.150,29.519 116.012,28.369 L69.923,3.699 C67.882,2.550 65.438,2.024 62.994,2.024 C60.550,2.024 58.091,2.550 56.051,3.699 L9.962,28.273 C7.823,29.422 6.907,31.415 7.004,33.298 C6.907,35.291 7.823,37.271 9.962,38.420 L56.051,63.007 C58.091,64.157 60.536,64.682 62.994,64.682 C65.438,64.682 67.882,64.157 69.923,63.007 L116.012,38.420 Z"/>
<path fill-rule="evenodd"  fill="rgb(127, 127, 127)"
 d="M116.012,37.155 C118.150,36.006 119.164,34.012 118.970,32.129 C119.178,30.136 118.150,28.253 116.012,27.103 L69.923,2.434 C67.882,1.284 65.438,0.758 62.994,0.758 C60.550,0.758 58.091,1.284 56.051,2.434 L9.962,27.007 C7.823,28.156 6.907,30.149 7.004,32.032 C6.907,34.026 7.823,36.006 9.962,37.155 L56.051,61.741 C58.091,62.891 60.536,63.416 62.994,63.416 C65.438,63.416 67.882,62.891 69.923,61.741 L116.012,37.155 Z"/>
<path fill-rule="evenodd"  stroke="rgb(109, 109, 109)" stroke-width="1px" stroke-linecap="butt" stroke-linejoin="miter" fill="none"
 d="M104.686,36.051 C106.367,35.134 107.163,33.543 107.011,32.041 C107.174,30.450 106.367,28.947 104.686,28.030 L68.459,8.343 C66.855,7.426 64.933,7.006 63.012,7.006 C61.091,7.006 59.159,7.426 57.555,8.343 L21.328,27.953 C19.647,28.870 18.927,30.460 19.003,31.963 C18.927,33.553 19.647,35.134 21.328,36.051 L57.555,55.671 C59.159,56.588 61.080,57.008 63.012,57.008 C64.933,57.008 66.855,56.588 68.459,55.671 L104.686,36.051 Z"/>
<path fill-rule="evenodd"  stroke="rgb(109, 109, 109)" stroke-width="1px" stroke-linecap="butt" stroke-linejoin="miter" fill="none"
 d="M65.458,12.250 L63.853,11.540 L60.108,13.196 L67.597,13.196 L68.935,14.142 L57.433,14.142 L55.026,15.325 L72.144,15.325 L74.284,16.744 L52.618,16.744 L50.746,17.926 L77.227,17.926 L79.901,19.345 L47.536,19.345 L45.129,20.764 L83.111,20.764 L85.251,22.184 L42.187,22.184 L40.314,23.366 L88.728,23.602 L90.868,24.785 L36.570,25.022 L34.430,26.204 L94.345,26.441 L96.217,27.624 L31.487,27.860 L29.348,29.279 L99.101,29.279 L101.241,30.698 L25.603,30.698 L24.635,31.881 L102.519,32.354 L101.776,33.773 L26.138,33.773 L28.010,34.956 L97.822,35.429 L95.682,36.848 L32.290,36.848 L34.162,38.030 L93.008,38.030 L91.403,39.449 L37.640,39.449 L39.244,40.632 L87.123,40.868 L85.251,42.288 L42.989,42.288 L44.861,43.470 L81.774,43.470 L79.901,44.889 L48.339,45.126 L50.211,46.309 L75.622,46.545 L73.749,47.964 L54.758,47.964 L56.630,49.383 L70.272,49.147 L68.667,50.566 L60.643,50.802 L63.853,52.458 L65.725,51.748 "/>
<path fill-rule="evenodd"  opacity="0.302" fill="rgb(0, 0, 0)"
 d="M62.994,133.417 C65.438,133.417 67.882,132.891 69.923,131.742 L116.012,107.154 C118.150,106.006 119.164,104.012 118.970,102.130 C119.178,100.136 119.252,30.145 118.970,32.129 C119.164,35.089 118.138,36.850 115.999,37.999 L74.999,59.999 C72.958,61.148 65.023,64.288 63.999,63.999 C63.990,63.996 64.969,65.686 64.939,66.928 C64.924,67.533 63.908,68.269 63.889,69.119 C63.875,69.781 64.859,70.513 64.842,71.307 C64.828,72.040 63.811,72.825 63.794,73.658 C63.779,74.421 64.762,75.224 64.746,76.061 C64.729,76.874 63.713,77.722 63.696,78.597 C63.677,79.536 64.658,80.509 64.639,81.510 C64.624,82.302 63.608,83.112 63.592,83.935 C63.575,84.813 64.558,85.708 64.541,86.615 C64.530,87.189 63.519,87.767 63.508,88.351 C63.490,89.271 64.473,90.201 64.455,91.140 C64.439,91.990 63.423,92.846 63.407,93.707 C63.390,94.588 64.373,95.475 64.357,96.362 C64.340,97.256 63.324,98.151 63.306,99.046 C63.291,99.895 64.275,100.744 64.259,101.590 C64.246,102.337 63.232,103.080 63.218,103.821 C63.204,104.600 64.189,105.375 64.175,106.145 C64.159,107.033 63.142,107.912 63.126,108.782 C63.110,109.663 64.094,110.533 64.078,111.389 C64.064,112.185 63.050,112.969 63.035,113.740 C63.020,114.590 64.005,115.423 63.990,116.236 C63.975,117.049 62.961,117.844 62.946,118.616 C62.928,119.633 63.910,120.610 63.893,121.542 C63.880,122.280 62.867,122.990 62.855,123.667 C62.839,124.491 63.825,125.267 63.812,125.990 C63.799,126.744 62.786,127.439 62.775,128.068 C62.758,129.015 63.743,129.813 63.732,130.440 C63.713,131.468 62.703,132.033 62.703,132.033 C62.703,132.033 62.886,133.417 62.994,133.417 Z"/>
</svg>
