<svg 
 xmlns="http://www.w3.org/2000/svg"
 xmlns:xlink="http://www.w3.org/1999/xlink"
 width="274.5px" height="148.5px">
<path fill-rule="evenodd"  fill="rgb(127, 127, 127)"
 d="M251.011,107.749 C253.150,106.600 254.163,104.607 253.969,102.724 C254.177,100.731 253.150,98.848 251.011,97.698 L204.922,73.028 C202.881,71.879 200.438,71.353 197.994,71.353 C195.549,71.353 193.091,71.879 191.050,73.028 L144.962,97.602 C142.823,98.751 141.907,100.744 142.004,102.627 C141.907,104.620 142.823,106.600 144.962,107.749 L191.050,132.336 C193.091,133.486 195.536,134.011 197.994,134.011 C200.438,134.011 202.881,133.486 204.922,132.336 L251.011,107.749 Z"/>
<path fill-rule="evenodd"  fill="rgb(98, 98, 98)"
 d="M251.011,104.420 C253.150,103.271 254.163,101.277 253.969,99.395 C254.177,97.402 253.150,95.519 251.011,94.369 L204.922,69.699 C202.881,68.550 200.438,68.024 197.994,68.024 C195.549,68.024 193.091,68.550 191.050,69.699 L144.962,94.272 C142.823,95.422 141.907,97.415 142.004,99.298 C141.907,101.291 142.823,103.271 144.962,104.420 L191.050,129.007 C193.091,130.156 195.536,130.682 197.994,130.682 C200.438,130.682 202.881,130.156 204.922,129.007 L251.011,104.420 Z"/>
<path fill-rule="evenodd"  fill="rgb(127, 127, 127)"
 d="M251.011,103.154 C253.150,102.005 254.163,100.012 253.969,98.129 C254.177,96.136 253.150,94.253 251.011,93.103 L204.922,68.433 C202.881,67.284 200.438,66.758 197.994,66.758 C195.549,66.758 193.091,67.284 191.050,68.433 L144.962,93.007 C142.823,94.156 141.907,96.149 142.004,98.032 C141.907,100.025 142.823,102.005 144.962,103.154 L191.050,127.741 C193.091,128.891 195.536,129.416 197.994,129.416 C200.438,129.416 202.881,128.891 204.922,127.741 L251.011,103.154 Z"/>
<path fill-rule="evenodd"  fill="rgb(98, 98, 98)"
 d="M251.011,99.420 C253.150,98.271 254.163,96.278 253.969,94.395 C254.177,92.401 253.150,90.518 251.011,89.369 L204.922,64.699 C202.881,63.550 200.438,63.024 197.994,63.024 C195.549,63.024 193.091,63.550 191.050,64.699 L144.962,89.273 C142.823,90.422 141.907,92.415 142.004,94.298 C141.907,96.291 142.823,98.271 144.962,99.420 L191.050,124.007 C193.091,125.156 195.536,125.682 197.994,125.682 C200.438,125.682 202.881,125.156 204.922,124.007 L251.011,99.420 Z"/>
<path fill-rule="evenodd"  fill="rgb(127, 127, 127)"
 d="M251.011,98.154 C253.150,97.005 254.163,95.012 253.969,93.129 C254.177,91.136 253.150,89.253 251.011,88.103 L204.922,63.434 C202.881,62.284 200.438,61.758 197.994,61.758 C195.549,61.758 193.091,62.284 191.050,63.434 L144.962,88.007 C142.823,89.156 141.907,91.149 142.004,93.032 C141.907,95.025 142.823,97.005 144.962,98.154 L191.050,122.741 C193.091,123.891 195.536,124.417 197.994,124.417 C200.438,124.417 202.881,123.891 204.922,122.741 L251.011,98.154 Z"/>
<path fill-rule="evenodd"  fill="rgb(98, 98, 98)"
 d="M251.011,94.420 C253.150,93.271 254.163,91.278 253.969,89.395 C254.177,87.401 253.150,85.518 251.011,84.369 L204.922,59.699 C202.881,58.550 200.438,58.024 197.994,58.024 C195.549,58.024 193.091,58.550 191.050,59.699 L144.962,84.273 C142.823,85.421 141.907,87.415 142.004,89.298 C141.907,91.291 142.823,93.271 144.962,94.420 L191.050,119.007 C193.091,120.156 195.536,120.682 197.994,120.682 C200.438,120.682 202.881,120.156 204.922,119.007 L251.011,94.420 Z"/>
<path fill-rule="evenodd"  fill="rgb(127, 127, 127)"
 d="M251.011,93.155 C253.150,92.006 254.163,90.012 253.969,88.129 C254.177,86.136 253.150,84.252 251.011,83.103 L204.922,58.433 C202.881,57.284 200.438,56.758 197.994,56.758 C195.549,56.758 193.091,57.284 191.050,58.433 L144.962,83.007 C142.823,84.155 141.907,86.149 142.004,88.032 C141.907,90.026 142.823,92.006 144.962,93.155 L191.050,117.741 C193.091,118.891 195.536,119.416 197.994,119.416 C200.438,119.416 202.881,118.891 204.922,117.741 L251.011,93.155 Z"/>
<path fill-rule="evenodd"  fill="rgb(98, 98, 98)"
 d="M251.011,89.420 C253.150,88.271 254.163,86.278 253.969,84.395 C254.177,82.402 253.150,80.518 251.011,79.369 L204.922,54.699 C202.881,53.550 200.438,53.024 197.994,53.024 C195.549,53.024 193.091,53.550 191.050,54.699 L144.962,79.273 C142.823,80.422 141.907,82.415 142.004,84.298 C141.907,86.291 142.823,88.271 144.962,89.420 L191.050,114.007 C193.091,115.156 195.536,115.682 197.994,115.682 C200.438,115.682 202.881,115.156 204.922,114.007 L251.011,89.420 Z"/>
<path fill-rule="evenodd"  fill="rgb(127, 127, 127)"
 d="M251.011,88.155 C253.150,87.005 254.163,85.012 253.969,83.129 C254.177,81.136 253.150,79.252 251.011,78.103 L204.922,53.433 C202.881,52.284 200.438,51.758 197.994,51.758 C195.549,51.758 193.091,52.284 191.050,53.433 L144.962,78.007 C142.823,79.156 141.907,81.149 142.004,83.032 C141.907,85.025 142.823,87.005 144.962,88.155 L191.050,112.741 C193.091,113.891 195.536,114.417 197.994,114.417 C200.438,114.417 202.881,113.891 204.922,112.741 L251.011,88.155 Z"/>
<path fill-rule="evenodd"  fill="rgb(98, 98, 98)"
 d="M251.011,84.420 C253.150,83.271 254.163,81.278 253.969,79.395 C254.177,77.402 253.150,75.518 251.011,74.369 L204.922,49.699 C202.881,48.550 200.438,48.024 197.994,48.024 C195.549,48.024 193.091,48.550 191.050,49.699 L144.962,74.273 C142.823,75.422 141.907,77.415 142.004,79.298 C141.907,81.291 142.823,83.271 144.962,84.420 L191.050,109.007 C193.091,110.156 195.536,110.682 197.994,110.682 C200.438,110.682 202.881,110.156 204.922,109.007 L251.011,84.420 Z"/>
<path fill-rule="evenodd"  fill="rgb(127, 127, 127)"
 d="M251.011,83.155 C253.150,82.005 254.163,80.012 253.969,78.129 C254.177,76.136 253.150,74.253 251.011,73.103 L204.922,48.434 C202.881,47.284 200.438,46.758 197.994,46.758 C195.549,46.758 193.091,47.284 191.050,48.434 L144.962,73.007 C142.823,74.156 141.907,76.149 142.004,78.032 C141.907,80.025 142.823,82.005 144.962,83.155 L191.050,107.741 C193.091,108.890 195.536,109.416 197.994,109.416 C200.438,109.416 202.881,108.890 204.922,107.741 L251.011,83.155 Z"/>
<path fill-rule="evenodd"  fill="rgb(98, 98, 98)"
 d="M251.011,79.420 C253.150,78.271 254.163,76.278 253.969,74.395 C254.177,72.402 253.150,70.519 251.011,69.369 L204.922,44.699 C202.881,43.550 200.438,43.024 197.994,43.024 C195.549,43.024 193.091,43.550 191.050,44.699 L144.962,69.273 C142.823,70.422 141.907,72.415 142.004,74.298 C141.907,76.291 142.823,78.271 144.962,79.420 L191.050,104.007 C193.091,105.156 195.536,105.682 197.994,105.682 C200.438,105.682 202.881,105.156 204.922,104.007 L251.011,79.420 Z"/>
<path fill-rule="evenodd"  fill="rgb(127, 127, 127)"
 d="M251.011,78.154 C253.150,77.005 254.163,75.012 253.969,73.129 C254.177,71.136 253.150,69.253 251.011,68.103 L204.922,43.433 C202.881,42.284 200.438,41.758 197.994,41.758 C195.549,41.758 193.091,42.284 191.050,43.433 L144.962,68.007 C142.823,69.156 141.907,71.149 142.004,73.032 C141.907,75.025 142.823,77.005 144.962,78.154 L191.050,102.741 C193.091,103.891 195.536,104.417 197.994,104.417 C200.438,104.417 202.881,103.891 204.922,102.741 L251.011,78.154 Z"/>
<path fill-rule="evenodd"  fill="rgb(98, 98, 98)"
 d="M251.011,74.420 C253.150,73.271 254.163,71.278 253.969,69.395 C254.177,67.402 253.150,65.518 251.011,64.369 L204.922,39.699 C202.881,38.550 200.438,38.024 197.994,38.024 C195.549,38.024 193.091,38.550 191.050,39.699 L144.962,64.272 C142.823,65.422 141.907,67.415 142.004,69.298 C141.907,71.291 142.823,73.271 144.962,74.420 L191.050,99.007 C193.091,100.156 195.536,100.682 197.994,100.682 C200.438,100.682 202.881,100.156 204.922,99.007 L251.011,74.420 Z"/>
<path fill-rule="evenodd"  fill="rgb(127, 127, 127)"
 d="M251.011,73.154 C253.150,72.005 254.163,70.012 253.969,68.129 C254.177,66.136 253.150,64.253 251.011,63.103 L204.922,38.433 C202.881,37.284 200.438,36.758 197.994,36.758 C195.549,36.758 193.091,37.284 191.050,38.433 L144.962,63.006 C142.823,64.156 141.907,66.149 142.004,68.032 C141.907,70.025 142.823,72.005 144.962,73.154 L191.050,97.741 C193.091,98.891 195.536,99.416 197.994,99.416 C200.438,99.416 202.881,98.891 204.922,97.741 L251.011,73.154 Z"/>
<path fill-rule="evenodd"  fill="rgb(98, 98, 98)"
 d="M251.011,69.420 C253.150,68.271 254.163,66.278 253.969,64.395 C254.177,62.402 253.150,60.518 251.011,59.369 L204.922,34.699 C202.881,33.550 200.438,33.024 197.994,33.024 C195.549,33.024 193.091,33.550 191.050,34.699 L144.962,59.273 C142.823,60.422 141.907,62.415 142.004,64.298 C141.907,66.291 142.823,68.271 144.962,69.420 L191.050,94.007 C193.091,95.156 195.536,95.682 197.994,95.682 C200.438,95.682 202.881,95.156 204.922,94.007 L251.011,69.420 Z"/>
<path fill-rule="evenodd"  fill="rgb(127, 127, 127)"
 d="M251.011,68.154 C253.150,67.006 254.163,65.012 253.969,63.129 C254.177,61.136 253.150,59.253 251.011,58.103 L204.922,33.434 C202.881,32.284 200.438,31.758 197.994,31.758 C195.549,31.758 193.091,32.284 191.050,33.434 L144.962,58.007 C142.823,59.156 141.907,61.149 142.004,63.032 C141.907,65.026 142.823,67.006 144.962,68.154 L191.050,92.741 C193.091,93.891 195.536,94.416 197.994,94.416 C200.438,94.416 202.881,93.891 204.922,92.741 L251.011,68.154 Z"/>
<path fill-rule="evenodd"  fill="rgb(98, 98, 98)"
 d="M251.011,64.420 C253.150,63.271 254.163,61.278 253.969,59.395 C254.177,57.402 253.150,55.518 251.011,54.369 L204.922,29.699 C202.881,28.550 200.438,28.024 197.994,28.024 C195.549,28.024 193.091,28.550 191.050,29.699 L144.962,54.273 C142.823,55.422 141.907,57.415 142.004,59.298 C141.907,61.291 142.823,63.271 144.962,64.420 L191.050,89.007 C193.091,90.156 195.536,90.682 197.994,90.682 C200.438,90.682 202.881,90.156 204.922,89.007 L251.011,64.420 Z"/>
<path fill-rule="evenodd"  fill="rgb(127, 127, 127)"
 d="M251.011,63.155 C253.150,62.005 254.163,60.012 253.969,58.129 C254.177,56.136 253.150,54.252 251.011,53.103 L204.922,28.433 C202.881,27.284 200.438,26.758 197.994,26.758 C195.549,26.758 193.091,27.284 191.050,28.433 L144.962,53.007 C142.823,54.156 141.907,56.149 142.004,58.032 C141.907,60.025 142.823,62.005 144.962,63.155 L191.050,87.741 C193.091,88.891 195.536,89.417 197.994,89.417 C200.438,89.417 202.881,88.891 204.922,87.741 L251.011,63.155 Z"/>
<path fill-rule="evenodd"  fill="rgb(98, 98, 98)"
 d="M251.011,59.420 C253.150,58.271 254.163,56.278 253.969,54.395 C254.177,52.402 253.150,50.518 251.011,49.369 L204.922,24.699 C202.881,23.550 200.438,23.024 197.994,23.024 C195.549,23.024 193.091,23.550 191.050,24.699 L144.962,49.273 C142.823,50.421 141.907,52.415 142.004,54.298 C141.907,56.291 142.823,58.271 144.962,59.420 L191.050,84.007 C193.091,85.156 195.536,85.682 197.994,85.682 C200.438,85.682 202.881,85.156 204.922,84.007 L251.011,59.420 Z"/>
<path fill-rule="evenodd"  fill="rgb(127, 127, 127)"
 d="M251.011,58.155 C253.150,57.005 254.163,55.012 253.969,53.129 C254.177,51.136 253.150,49.252 251.011,48.103 L204.922,23.433 C202.881,22.284 200.438,21.758 197.994,21.758 C195.549,21.758 193.091,22.284 191.050,23.433 L144.962,48.007 C142.823,49.156 141.907,51.149 142.004,53.032 C141.907,55.025 142.823,57.005 144.962,58.155 L191.050,82.741 C193.091,83.891 195.536,84.417 197.994,84.417 C200.438,84.417 202.881,83.891 204.922,82.741 L251.011,58.155 Z"/>
<path fill-rule="evenodd"  fill="rgb(98, 98, 98)"
 d="M251.011,54.420 C253.150,53.271 254.163,51.278 253.969,49.395 C254.177,47.402 253.150,45.519 251.011,44.369 L204.922,19.699 C202.881,18.550 200.438,18.024 197.994,18.024 C195.549,18.024 193.091,18.550 191.050,19.699 L144.962,44.273 C142.823,45.422 141.907,47.415 142.004,49.298 C141.907,51.291 142.823,53.271 144.962,54.420 L191.050,79.007 C193.091,80.156 195.536,80.682 197.994,80.682 C200.438,80.682 202.881,80.156 204.922,79.007 L251.011,54.420 Z"/>
<path fill-rule="evenodd"  fill="rgb(127, 127, 127)"
 d="M251.011,53.155 C253.150,52.005 254.163,50.012 253.969,48.129 C254.177,46.136 253.150,44.253 251.011,43.103 L204.922,18.433 C202.881,17.284 200.438,16.758 197.994,16.758 C195.549,16.758 193.091,17.284 191.050,18.433 L144.962,43.007 C142.823,44.156 141.907,46.149 142.004,48.032 C141.907,50.025 142.823,52.005 144.962,53.155 L191.050,77.741 C193.091,78.890 195.536,79.416 197.994,79.416 C200.438,79.416 202.881,78.890 204.922,77.741 L251.011,53.155 Z"/>
<path fill-rule="evenodd"  fill="rgb(98, 98, 98)"
 d="M251.011,49.420 C253.150,48.271 254.163,46.278 253.969,44.395 C254.177,42.402 253.150,40.518 251.011,39.369 L204.922,14.699 C202.881,13.550 200.438,13.024 197.994,13.024 C195.549,13.024 193.091,13.550 191.050,14.699 L144.962,39.273 C142.823,40.422 141.907,42.415 142.004,44.298 C141.907,46.291 142.823,48.271 144.962,49.420 L191.050,74.007 C193.091,75.156 195.536,75.682 197.994,75.682 C200.438,75.682 202.881,75.156 204.922,74.007 L251.011,49.420 Z"/>
<path fill-rule="evenodd"  fill="rgb(127, 127, 127)"
 d="M251.011,48.154 C253.150,47.005 254.163,45.012 253.969,43.129 C254.177,41.136 253.150,39.253 251.011,38.103 L204.922,13.433 C202.881,12.284 200.438,11.758 197.994,11.758 C195.549,11.758 193.091,12.284 191.050,13.433 L144.962,38.007 C142.823,39.156 141.907,41.149 142.004,43.032 C141.907,45.025 142.823,47.005 144.962,48.154 L191.050,72.741 C193.091,73.890 195.536,74.417 197.994,74.417 C200.438,74.417 202.881,73.890 204.922,72.741 L251.011,48.154 Z"/>
<path fill-rule="evenodd"  fill="rgb(98, 98, 98)"
 d="M251.011,44.420 C253.150,43.271 254.163,41.278 253.969,39.395 C254.177,37.402 253.150,35.518 251.011,34.369 L204.922,9.699 C202.881,8.550 200.438,8.024 197.994,8.024 C195.549,8.024 193.091,8.550 191.050,9.699 L144.962,34.272 C142.823,35.422 141.907,37.415 142.004,39.297 C141.907,41.291 142.823,43.271 144.962,44.420 L191.050,69.007 C193.091,70.156 195.536,70.682 197.994,70.682 C200.438,70.682 202.881,70.156 204.922,69.007 L251.011,44.420 Z"/>
<path fill-rule="evenodd"  fill="rgb(127, 127, 127)"
 d="M251.011,43.154 C253.150,42.006 254.163,40.012 253.969,38.129 C254.177,36.136 253.150,34.253 251.011,33.103 L204.922,8.434 C202.881,7.284 200.438,6.758 197.994,6.758 C195.549,6.758 193.091,7.284 191.050,8.434 L144.962,33.007 C142.823,34.156 141.907,36.149 142.004,38.032 C141.907,40.025 142.823,42.006 144.962,43.154 L191.050,67.741 C193.091,68.891 195.536,69.416 197.994,69.416 C200.438,69.416 202.881,68.891 204.922,67.741 L251.011,43.154 Z"/>
<path fill-rule="evenodd"  fill="rgb(108, 108, 108)"
 d="M251.011,39.420 C253.150,38.271 254.163,36.278 253.969,34.395 C254.177,32.402 253.150,30.518 251.011,29.369 L204.922,4.699 C202.881,3.550 200.438,3.024 197.994,3.024 C195.549,3.024 193.091,3.550 191.050,4.699 L144.962,29.273 C142.823,30.422 141.907,32.415 142.004,34.298 C141.907,36.291 142.823,38.271 144.962,39.420 L191.050,64.007 C193.091,65.156 195.536,65.682 197.994,65.682 C200.438,65.682 202.881,65.156 204.922,64.007 L251.011,39.420 Z"/>
<path fill-rule="evenodd"  fill="rgb(127, 127, 127)"
 d="M251.011,38.155 C253.150,37.005 254.163,35.012 253.969,33.129 C254.177,31.136 253.150,29.253 251.011,28.103 L204.922,3.433 C202.881,2.284 200.438,1.758 197.994,1.758 C195.549,1.758 193.091,2.284 191.050,3.433 L144.962,28.007 C142.823,29.156 141.907,31.149 142.004,33.032 C141.907,35.025 142.823,37.005 144.962,38.155 L191.050,62.741 C193.091,63.891 195.536,64.416 197.994,64.416 C200.438,64.416 202.881,63.891 204.922,62.741 L251.011,38.155 Z"/>
<path fill-rule="evenodd"  stroke="rgb(109, 109, 109)" stroke-width="1px" stroke-linecap="butt" stroke-linejoin="miter" fill="none"
 d="M239.686,37.051 C241.367,36.134 242.163,34.543 242.011,33.040 C242.174,31.450 241.367,29.947 239.686,29.030 L203.458,9.343 C201.855,8.426 199.933,8.006 198.012,8.006 C196.091,8.006 194.159,8.426 192.555,9.343 L156.327,28.953 C154.647,29.870 153.926,31.461 154.002,32.963 C153.926,34.553 154.647,36.134 156.327,37.051 L192.555,56.671 C194.159,57.588 196.080,58.008 198.012,58.008 C199.933,58.008 201.855,57.588 203.458,56.671 L239.686,37.051 Z"/>
<path fill-rule="evenodd"  stroke="rgb(28, 227, 107)" stroke-width="1px" stroke-linecap="butt" stroke-linejoin="miter" fill="none"
 d="M200.457,13.250 L198.852,12.540 L195.108,14.196 L202.597,14.196 L203.934,15.142 L192.433,15.142 L190.026,16.325 L207.144,16.325 L209.284,17.744 L187.619,17.744 L185.746,18.926 L212.227,18.926 L214.901,20.345 L182.536,20.345 L180.129,21.765 L218.111,21.765 L220.251,23.183 L177.186,23.183 L175.314,24.366 L223.728,24.603 L225.868,25.785 L171.570,26.022 L169.430,27.204 L229.345,27.441 L231.218,28.623 L166.487,28.860 L164.347,30.279 L234.101,30.279 L236.241,31.698 L160.603,31.698 L159.634,32.881 L237.520,33.354 L236.776,34.773 L161.138,34.773 L163.010,35.955 L232.823,36.429 L230.683,37.847 L167.290,37.847 L169.162,39.030 L228.008,39.030 L226.403,40.449 L172.640,40.449 L174.244,41.632 L222.123,41.869 L220.251,43.288 L177.989,43.288 L179.861,44.470 L216.773,44.470 L214.901,45.890 L183.339,46.126 L185.211,47.309 L210.622,47.545 L208.749,48.964 L189.758,48.964 L191.631,50.383 L205.272,50.146 L203.667,51.566 L195.643,51.802 L198.852,53.458 L200.725,52.748 "/>
<path fill-rule="evenodd"  opacity="0.302" fill="rgb(0, 0, 0)"
 d="M197.994,134.416 C200.438,134.416 202.881,133.891 204.922,132.741 L251.011,108.155 C253.150,107.006 254.163,105.012 253.969,103.129 C254.177,101.136 254.252,31.145 253.969,33.129 C254.163,36.088 253.137,37.850 250.999,38.999 L209.999,60.999 C207.958,62.148 200.022,65.288 198.999,64.999 C198.990,64.996 199.969,66.686 199.939,67.928 C199.924,68.533 198.907,69.268 198.889,70.119 C198.875,70.781 199.859,71.513 199.842,72.307 C199.827,73.040 198.811,73.825 198.794,74.658 C198.779,75.421 199.762,76.224 199.745,77.060 C199.729,77.874 198.712,78.722 198.695,79.597 C198.677,80.536 199.658,81.509 199.639,82.509 C199.623,83.301 198.607,84.111 198.591,84.935 C198.575,85.813 199.558,86.707 199.540,87.615 C199.530,88.188 198.518,88.767 198.508,89.351 C198.490,90.270 199.472,91.201 199.454,92.140 C199.438,92.990 198.422,93.846 198.407,94.707 C198.389,95.588 199.373,96.474 199.356,97.362 C199.340,98.256 198.323,99.151 198.306,100.046 C198.291,100.895 199.275,101.744 199.259,102.590 C199.245,103.336 198.232,104.080 198.217,104.821 C198.204,105.600 199.189,106.375 199.175,107.145 C199.159,108.032 198.142,108.912 198.126,109.782 C198.110,110.662 199.094,111.532 199.078,112.389 C199.064,113.185 198.049,113.969 198.035,114.740 C198.019,115.589 199.004,116.422 198.990,117.236 C198.974,118.050 197.960,118.844 197.946,119.615 C197.927,120.633 198.910,121.610 198.893,122.542 C198.880,123.280 197.867,123.990 197.854,124.667 C197.839,125.491 198.825,126.267 198.812,126.990 C198.799,127.744 197.786,128.439 197.775,129.068 C197.758,130.014 198.743,130.812 198.732,131.439 C198.713,132.467 197.703,133.033 197.703,133.033 C197.703,133.033 197.886,134.416 197.994,134.416 Z"/>
<path fill-rule="evenodd"  fill="rgb(127, 127, 127)"
 d="M129.011,107.749 C131.150,106.600 132.163,104.607 131.970,102.724 C132.178,100.731 131.150,98.848 129.011,97.698 L82.922,73.028 C80.882,71.879 78.437,71.353 75.994,71.353 C73.549,71.353 71.091,71.879 69.050,73.028 L22.962,97.602 C20.823,98.751 19.907,100.744 20.004,102.627 C19.907,104.620 20.823,106.600 22.962,107.749 L69.050,132.336 C71.091,133.486 73.535,134.011 75.994,134.011 C78.437,134.011 80.882,133.486 82.922,132.336 L129.011,107.749 Z"/>
<path fill-rule="evenodd"  fill="rgb(98, 98, 98)"
 d="M129.011,104.420 C131.150,103.271 132.163,101.277 131.970,99.395 C132.178,97.402 131.150,95.519 129.011,94.369 L82.922,69.699 C80.882,68.550 78.437,68.024 75.994,68.024 C73.549,68.024 71.091,68.550 69.050,69.699 L22.962,94.272 C20.823,95.422 19.907,97.415 20.004,99.298 C19.907,101.291 20.823,103.271 22.962,104.420 L69.050,129.007 C71.091,130.156 73.535,130.682 75.994,130.682 C78.437,130.682 80.882,130.156 82.922,129.007 L129.011,104.420 Z"/>
<path fill-rule="evenodd"  fill="rgb(127, 127, 127)"
 d="M129.011,103.154 C131.150,102.005 132.163,100.012 131.970,98.129 C132.178,96.136 131.150,94.253 129.011,93.103 L82.922,68.433 C80.882,67.284 78.437,66.758 75.994,66.758 C73.549,66.758 71.091,67.284 69.050,68.433 L22.962,93.007 C20.823,94.156 19.907,96.149 20.004,98.032 C19.907,100.025 20.823,102.005 22.962,103.154 L69.050,127.741 C71.091,128.891 73.535,129.416 75.994,129.416 C78.437,129.416 80.882,128.891 82.922,127.741 L129.011,103.154 Z"/>
<path fill-rule="evenodd"  fill="rgb(98, 98, 98)"
 d="M129.011,99.420 C131.150,98.271 132.163,96.278 131.970,94.395 C132.178,92.401 131.150,90.518 129.011,89.369 L82.922,64.699 C80.882,63.550 78.437,63.024 75.994,63.024 C73.549,63.024 71.091,63.550 69.050,64.699 L22.962,89.273 C20.823,90.422 19.907,92.415 20.004,94.298 C19.907,96.291 20.823,98.271 22.962,99.420 L69.050,124.007 C71.091,125.156 73.535,125.682 75.994,125.682 C78.437,125.682 80.882,125.156 82.922,124.007 L129.011,99.420 Z"/>
<path fill-rule="evenodd"  fill="rgb(127, 127, 127)"
 d="M129.011,98.154 C131.150,97.005 132.163,95.012 131.970,93.129 C132.178,91.136 131.150,89.253 129.011,88.103 L82.922,63.434 C80.882,62.284 78.437,61.758 75.994,61.758 C73.549,61.758 71.091,62.284 69.050,63.434 L22.962,88.007 C20.823,89.156 19.907,91.149 20.004,93.032 C19.907,95.025 20.823,97.005 22.962,98.154 L69.050,122.741 C71.091,123.891 73.535,124.417 75.994,124.417 C78.437,124.417 80.882,123.891 82.922,122.741 L129.011,98.154 Z"/>
<path fill-rule="evenodd"  fill="rgb(98, 98, 98)"
 d="M129.011,94.420 C131.150,93.271 132.163,91.278 131.970,89.395 C132.178,87.401 131.150,85.518 129.011,84.369 L82.922,59.699 C80.882,58.550 78.437,58.024 75.994,58.024 C73.549,58.024 71.091,58.550 69.050,59.699 L22.962,84.273 C20.823,85.421 19.907,87.415 20.004,89.298 C19.907,91.291 20.823,93.271 22.962,94.420 L69.050,119.007 C71.091,120.156 73.535,120.682 75.994,120.682 C78.437,120.682 80.882,120.156 82.922,119.007 L129.011,94.420 Z"/>
<path fill-rule="evenodd"  fill="rgb(127, 127, 127)"
 d="M129.011,93.155 C131.150,92.006 132.163,90.012 131.970,88.129 C132.178,86.136 131.150,84.252 129.011,83.103 L82.922,58.433 C80.882,57.284 78.437,56.758 75.994,56.758 C73.549,56.758 71.091,57.284 69.050,58.433 L22.962,83.007 C20.823,84.155 19.907,86.149 20.004,88.032 C19.907,90.026 20.823,92.006 22.962,93.155 L69.050,117.741 C71.091,118.891 73.535,119.416 75.994,119.416 C78.437,119.416 80.882,118.891 82.922,117.741 L129.011,93.155 Z"/>
<path fill-rule="evenodd"  fill="rgb(98, 98, 98)"
 d="M129.011,89.420 C131.150,88.271 132.163,86.278 131.970,84.395 C132.178,82.402 131.150,80.518 129.011,79.369 L82.922,54.699 C80.882,53.550 78.437,53.024 75.994,53.024 C73.549,53.024 71.091,53.550 69.050,54.699 L22.962,79.273 C20.823,80.422 19.907,82.415 20.004,84.298 C19.907,86.291 20.823,88.271 22.962,89.420 L69.050,114.007 C71.091,115.156 73.535,115.682 75.994,115.682 C78.437,115.682 80.882,115.156 82.922,114.007 L129.011,89.420 Z"/>
<path fill-rule="evenodd"  fill="rgb(127, 127, 127)"
 d="M129.011,88.155 C131.150,87.005 132.163,85.012 131.970,83.129 C132.178,81.136 131.150,79.252 129.011,78.103 L82.922,53.433 C80.882,52.284 78.437,51.758 75.994,51.758 C73.549,51.758 71.091,52.284 69.050,53.433 L22.962,78.007 C20.823,79.156 19.907,81.149 20.004,83.032 C19.907,85.025 20.823,87.005 22.962,88.155 L69.050,112.741 C71.091,113.891 73.535,114.417 75.994,114.417 C78.437,114.417 80.882,113.891 82.922,112.741 L129.011,88.155 Z"/>
<path fill-rule="evenodd"  fill="rgb(98, 98, 98)"
 d="M129.011,84.420 C131.150,83.271 132.163,81.278 131.970,79.395 C132.178,77.402 131.150,75.518 129.011,74.369 L82.922,49.699 C80.882,48.550 78.437,48.024 75.994,48.024 C73.549,48.024 71.091,48.550 69.050,49.699 L22.962,74.273 C20.823,75.422 19.907,77.415 20.004,79.298 C19.907,81.291 20.823,83.271 22.962,84.420 L69.050,109.007 C71.091,110.156 73.535,110.682 75.994,110.682 C78.437,110.682 80.882,110.156 82.922,109.007 L129.011,84.420 Z"/>
<path fill-rule="evenodd"  fill="rgb(127, 127, 127)"
 d="M129.011,83.155 C131.150,82.005 132.163,80.012 131.970,78.129 C132.178,76.136 131.150,74.253 129.011,73.103 L82.922,48.434 C80.882,47.284 78.437,46.758 75.994,46.758 C73.549,46.758 71.091,47.284 69.050,48.434 L22.962,73.007 C20.823,74.156 19.907,76.149 20.004,78.032 C19.907,80.025 20.823,82.005 22.962,83.155 L69.050,107.741 C71.091,108.890 73.535,109.416 75.994,109.416 C78.437,109.416 80.882,108.890 82.922,107.741 L129.011,83.155 Z"/>
<path fill-rule="evenodd"  fill="rgb(98, 98, 98)"
 d="M129.011,79.420 C131.150,78.271 132.163,76.278 131.970,74.395 C132.178,72.402 131.150,70.519 129.011,69.369 L82.922,44.699 C80.882,43.550 78.437,43.024 75.994,43.024 C73.549,43.024 71.091,43.550 69.050,44.699 L22.962,69.273 C20.823,70.422 19.907,72.415 20.004,74.298 C19.907,76.291 20.823,78.271 22.962,79.420 L69.050,104.007 C71.091,105.156 73.535,105.682 75.994,105.682 C78.437,105.682 80.882,105.156 82.922,104.007 L129.011,79.420 Z"/>
<path fill-rule="evenodd"  fill="rgb(127, 127, 127)"
 d="M129.011,78.154 C131.150,77.005 132.163,75.012 131.970,73.129 C132.178,71.136 131.150,69.253 129.011,68.103 L82.922,43.433 C80.882,42.284 78.437,41.758 75.994,41.758 C73.549,41.758 71.091,42.284 69.050,43.433 L22.962,68.007 C20.823,69.156 19.907,71.149 20.004,73.032 C19.907,75.025 20.823,77.005 22.962,78.154 L69.050,102.741 C71.091,103.891 73.535,104.417 75.994,104.417 C78.437,104.417 80.882,103.891 82.922,102.741 L129.011,78.154 Z"/>
<path fill-rule="evenodd"  fill="rgb(98, 98, 98)"
 d="M129.011,74.420 C131.150,73.271 132.163,71.278 131.970,69.395 C132.178,67.402 131.150,65.518 129.011,64.369 L82.922,39.699 C80.882,38.550 78.437,38.024 75.994,38.024 C73.549,38.024 71.091,38.550 69.050,39.699 L22.962,64.272 C20.823,65.422 19.907,67.415 20.004,69.298 C19.907,71.291 20.823,73.271 22.962,74.420 L69.050,99.007 C71.091,100.156 73.535,100.682 75.994,100.682 C78.437,100.682 80.882,100.156 82.922,99.007 L129.011,74.420 Z"/>
<path fill-rule="evenodd"  fill="rgb(127, 127, 127)"
 d="M129.011,73.154 C131.150,72.005 132.163,70.012 131.970,68.129 C132.178,66.136 131.150,64.253 129.011,63.103 L82.922,38.433 C80.882,37.284 78.437,36.758 75.994,36.758 C73.549,36.758 71.091,37.284 69.050,38.433 L22.962,63.006 C20.823,64.156 19.907,66.149 20.004,68.032 C19.907,70.025 20.823,72.005 22.962,73.154 L69.050,97.741 C71.091,98.891 73.535,99.416 75.994,99.416 C78.437,99.416 80.882,98.891 82.922,97.741 L129.011,73.154 Z"/>
<path fill-rule="evenodd"  fill="rgb(98, 98, 98)"
 d="M129.011,69.420 C131.150,68.271 132.163,66.278 131.970,64.395 C132.178,62.402 131.150,60.518 129.011,59.369 L82.922,34.699 C80.882,33.550 78.437,33.024 75.994,33.024 C73.549,33.024 71.091,33.550 69.050,34.699 L22.962,59.273 C20.823,60.422 19.907,62.415 20.004,64.298 C19.907,66.291 20.823,68.271 22.962,69.420 L69.050,94.007 C71.091,95.156 73.535,95.682 75.994,95.682 C78.437,95.682 80.882,95.156 82.922,94.007 L129.011,69.420 Z"/>
<path fill-rule="evenodd"  fill="rgb(127, 127, 127)"
 d="M129.011,68.154 C131.150,67.006 132.163,65.012 131.970,63.129 C132.178,61.136 131.150,59.253 129.011,58.103 L82.922,33.434 C80.882,32.284 78.437,31.758 75.994,31.758 C73.549,31.758 71.091,32.284 69.050,33.434 L22.962,58.007 C20.823,59.156 19.907,61.149 20.004,63.032 C19.907,65.026 20.823,67.006 22.962,68.154 L69.050,92.741 C71.091,93.891 73.535,94.416 75.994,94.416 C78.437,94.416 80.882,93.891 82.922,92.741 L129.011,68.154 Z"/>
<path fill-rule="evenodd"  fill="rgb(98, 98, 98)"
 d="M129.011,64.420 C131.150,63.271 132.163,61.278 131.970,59.395 C132.178,57.402 131.150,55.518 129.011,54.369 L82.922,29.699 C80.882,28.550 78.437,28.024 75.994,28.024 C73.549,28.024 71.091,28.550 69.050,29.699 L22.962,54.273 C20.823,55.422 19.907,57.415 20.004,59.298 C19.907,61.291 20.823,63.271 22.962,64.420 L69.050,89.007 C71.091,90.156 73.535,90.682 75.994,90.682 C78.437,90.682 80.882,90.156 82.922,89.007 L129.011,64.420 Z"/>
<path fill-rule="evenodd"  fill="rgb(127, 127, 127)"
 d="M129.011,63.155 C131.150,62.005 132.163,60.012 131.970,58.129 C132.178,56.136 131.150,54.252 129.011,53.103 L82.922,28.433 C80.882,27.284 78.437,26.758 75.994,26.758 C73.549,26.758 71.091,27.284 69.050,28.433 L22.962,53.007 C20.823,54.156 19.907,56.149 20.004,58.032 C19.907,60.025 20.823,62.005 22.962,63.155 L69.050,87.741 C71.091,88.891 73.535,89.417 75.994,89.417 C78.437,89.417 80.882,88.891 82.922,87.741 L129.011,63.155 Z"/>
<path fill-rule="evenodd"  fill="rgb(98, 98, 98)"
 d="M129.011,59.420 C131.150,58.271 132.163,56.278 131.970,54.395 C132.178,52.402 131.150,50.518 129.011,49.369 L82.922,24.699 C80.882,23.550 78.437,23.024 75.994,23.024 C73.549,23.024 71.091,23.550 69.050,24.699 L22.962,49.273 C20.823,50.421 19.907,52.415 20.004,54.298 C19.907,56.291 20.823,58.271 22.962,59.420 L69.050,84.007 C71.091,85.156 73.535,85.682 75.994,85.682 C78.437,85.682 80.882,85.156 82.922,84.007 L129.011,59.420 Z"/>
<path fill-rule="evenodd"  fill="rgb(127, 127, 127)"
 d="M129.011,58.155 C131.150,57.005 132.163,55.012 131.970,53.129 C132.178,51.136 131.150,49.252 129.011,48.103 L82.922,23.433 C80.882,22.284 78.437,21.758 75.994,21.758 C73.549,21.758 71.091,22.284 69.050,23.433 L22.962,48.007 C20.823,49.156 19.907,51.149 20.004,53.032 C19.907,55.025 20.823,57.005 22.962,58.155 L69.050,82.741 C71.091,83.891 73.535,84.417 75.994,84.417 C78.437,84.417 80.882,83.891 82.922,82.741 L129.011,58.155 Z"/>
<path fill-rule="evenodd"  fill="rgb(98, 98, 98)"
 d="M129.011,54.420 C131.150,53.271 132.163,51.278 131.970,49.395 C132.178,47.402 131.150,45.519 129.011,44.369 L82.922,19.699 C80.882,18.550 78.437,18.024 75.994,18.024 C73.549,18.024 71.091,18.550 69.050,19.699 L22.962,44.273 C20.823,45.422 19.907,47.415 20.004,49.298 C19.907,51.291 20.823,53.271 22.962,54.420 L69.050,79.007 C71.091,80.156 73.535,80.682 75.994,80.682 C78.437,80.682 80.882,80.156 82.922,79.007 L129.011,54.420 Z"/>
<path fill-rule="evenodd"  fill="rgb(127, 127, 127)"
 d="M129.011,53.155 C131.150,52.005 132.163,50.012 131.970,48.129 C132.178,46.136 131.150,44.253 129.011,43.103 L82.922,18.433 C80.882,17.284 78.437,16.758 75.994,16.758 C73.549,16.758 71.091,17.284 69.050,18.433 L22.962,43.007 C20.823,44.156 19.907,46.149 20.004,48.032 C19.907,50.025 20.823,52.005 22.962,53.155 L69.050,77.741 C71.091,78.890 73.535,79.416 75.994,79.416 C78.437,79.416 80.882,78.890 82.922,77.741 L129.011,53.155 Z"/>
<path fill-rule="evenodd"  fill="rgb(98, 98, 98)"
 d="M129.011,49.420 C131.150,48.271 132.163,46.278 131.970,44.395 C132.178,42.402 131.150,40.518 129.011,39.369 L82.922,14.699 C80.882,13.550 78.437,13.024 75.994,13.024 C73.549,13.024 71.091,13.550 69.050,14.699 L22.962,39.273 C20.823,40.422 19.907,42.415 20.004,44.298 C19.907,46.291 20.823,48.271 22.962,49.420 L69.050,74.007 C71.091,75.156 73.535,75.682 75.994,75.682 C78.437,75.682 80.882,75.156 82.922,74.007 L129.011,49.420 Z"/>
<path fill-rule="evenodd"  fill="rgb(127, 127, 127)"
 d="M129.011,48.154 C131.150,47.005 132.163,45.012 131.970,43.129 C132.178,41.136 131.150,39.253 129.011,38.103 L82.922,13.433 C80.882,12.284 78.437,11.758 75.994,11.758 C73.549,11.758 71.091,12.284 69.050,13.433 L22.962,38.007 C20.823,39.156 19.907,41.149 20.004,43.032 C19.907,45.025 20.823,47.005 22.962,48.154 L69.050,72.741 C71.091,73.890 73.535,74.417 75.994,74.417 C78.437,74.417 80.882,73.890 82.922,72.741 L129.011,48.154 Z"/>
<path fill-rule="evenodd"  fill="rgb(98, 98, 98)"
 d="M129.011,44.420 C131.150,43.271 132.163,41.278 131.970,39.395 C132.178,37.402 131.150,35.518 129.011,34.369 L82.922,9.699 C80.882,8.550 78.437,8.024 75.994,8.024 C73.549,8.024 71.091,8.550 69.050,9.699 L22.962,34.272 C20.823,35.422 19.907,37.415 20.004,39.297 C19.907,41.291 20.823,43.271 22.962,44.420 L69.050,69.007 C71.091,70.156 73.535,70.682 75.994,70.682 C78.437,70.682 80.882,70.156 82.922,69.007 L129.011,44.420 Z"/>
<path fill-rule="evenodd"  fill="rgb(127, 127, 127)"
 d="M129.011,43.154 C131.150,42.006 132.163,40.012 131.970,38.129 C132.178,36.136 131.150,34.253 129.011,33.103 L82.922,8.434 C80.882,7.284 78.437,6.758 75.994,6.758 C73.549,6.758 71.091,7.284 69.050,8.434 L22.962,33.007 C20.823,34.156 19.907,36.149 20.004,38.032 C19.907,40.025 20.823,42.006 22.962,43.154 L69.050,67.741 C71.091,68.891 73.535,69.416 75.994,69.416 C78.437,69.416 80.882,68.891 82.922,67.741 L129.011,43.154 Z"/>
<path fill-rule="evenodd"  fill="rgb(108, 108, 108)"
 d="M129.011,39.420 C131.150,38.271 132.163,36.278 131.970,34.395 C132.178,32.402 131.150,30.518 129.011,29.369 L82.922,4.699 C80.882,3.550 78.437,3.024 75.994,3.024 C73.549,3.024 71.091,3.550 69.050,4.699 L22.962,29.273 C20.823,30.422 19.907,32.415 20.004,34.298 C19.907,36.291 20.823,38.271 22.962,39.420 L69.050,64.007 C71.091,65.156 73.535,65.682 75.994,65.682 C78.437,65.682 80.882,65.156 82.922,64.007 L129.011,39.420 Z"/>
<path fill-rule="evenodd"  fill="rgb(127, 127, 127)"
 d="M129.011,38.155 C131.150,37.005 132.163,35.012 131.970,33.129 C132.178,31.136 131.150,29.253 129.011,28.103 L82.922,3.433 C80.882,2.284 78.437,1.758 75.994,1.758 C73.549,1.758 71.091,2.284 69.050,3.433 L22.962,28.007 C20.823,29.156 19.907,31.149 20.004,33.032 C19.907,35.025 20.823,37.005 22.962,38.155 L69.050,62.741 C71.091,63.891 73.535,64.416 75.994,64.416 C78.437,64.416 80.882,63.891 82.922,62.741 L129.011,38.155 Z"/>
<path fill-rule="evenodd"  stroke="rgb(109, 109, 109)" stroke-width="1px" stroke-linecap="butt" stroke-linejoin="miter" fill="none"
 d="M117.686,37.051 C119.366,36.134 120.164,34.543 120.011,33.040 C120.174,31.450 119.366,29.947 117.686,29.030 L81.459,9.343 C79.855,8.426 77.933,8.006 76.012,8.006 C74.091,8.006 72.159,8.426 70.555,9.343 L34.327,28.953 C32.647,29.870 31.926,31.461 32.003,32.963 C31.926,34.553 32.647,36.134 34.327,37.051 L70.555,56.671 C72.159,57.588 74.080,58.008 76.012,58.008 C77.933,58.008 79.855,57.588 81.459,56.671 L117.686,37.051 Z"/>
<path fill-rule="evenodd"  stroke="rgb(28, 227, 107)" stroke-width="1px" stroke-linecap="butt" stroke-linejoin="miter" fill="none"
 d="M76.502,12.005 L73.130,13.865 L79.874,13.865 L86.618,17.055 L66.948,17.055 L61.999,19.999 L90.999,19.999 L96.999,22.999 L55.999,22.999 L49.526,26.357 L101.999,25.999 L109.941,29.813 L43.999,29.999 L38.005,33.002 L114.999,32.999 L108.999,36.999 L43.000,36.999 L49.999,39.999 L103.999,39.999 L94.999,43.999 L55.999,43.999 L61.999,45.999 L91.999,45.999 L85.775,48.949 L67.229,49.215 L72.287,51.873 L80.436,52.138 L76.502,53.999 "/>
<path fill-rule="evenodd"  opacity="0.302" fill="rgb(0, 0, 0)"
 d="M75.994,134.416 C78.437,134.416 80.882,133.891 82.922,132.741 L129.011,108.155 C131.150,107.006 132.163,105.012 131.970,103.129 C132.178,101.136 132.252,31.145 131.970,33.129 C132.163,36.088 131.137,37.850 128.999,38.999 L87.999,60.999 C85.958,62.148 78.022,65.288 76.999,64.999 C76.990,64.996 77.969,66.686 77.939,67.928 C77.924,68.533 76.907,69.268 76.889,70.119 C76.874,70.781 77.859,71.513 77.842,72.307 C77.827,73.040 76.811,73.825 76.794,74.658 C76.779,75.421 77.762,76.224 77.745,77.060 C77.729,77.874 76.712,78.722 76.696,79.597 C76.677,80.536 77.658,81.509 77.638,82.509 C77.623,83.301 76.607,84.111 76.592,84.935 C76.575,85.813 77.557,86.707 77.540,87.615 C77.530,88.188 76.518,88.767 76.508,89.351 C76.490,90.270 77.472,91.201 77.454,92.140 C77.439,92.990 76.422,93.846 76.406,94.707 C76.390,95.588 77.373,96.474 77.356,97.362 C77.340,98.256 76.323,99.151 76.306,100.046 C76.291,100.895 77.275,101.744 77.259,102.590 C77.245,103.336 76.231,104.080 76.218,104.821 C76.203,105.600 77.189,106.375 77.175,107.145 C77.158,108.032 76.142,108.912 76.126,109.782 C76.110,110.662 77.094,111.532 77.078,112.389 C77.064,113.185 76.049,113.969 76.035,114.740 C76.019,115.589 77.004,116.422 76.990,117.236 C76.975,118.050 75.960,118.844 75.946,119.615 C75.928,120.633 76.910,121.610 76.893,122.542 C76.880,123.280 75.866,123.990 75.854,124.667 C75.839,125.491 76.825,126.267 76.812,126.990 C76.798,127.744 75.786,128.439 75.775,129.068 C75.757,130.014 76.743,130.812 76.732,131.439 C76.713,132.467 75.703,133.033 75.703,133.033 C75.703,133.033 75.886,134.416 75.994,134.416 Z"/>
<path fill-rule="evenodd"  fill="none"
 d="M121.999,136.000 L144.000,136.000 L144.000,148.000 L121.999,148.000 L121.999,136.000 Z"/>
<path fill-rule="evenodd"  fill="rgb(255, 255, 255)"
 d="M269.902,-0.001 L268.658,-0.001 C268.340,-0.001 268.082,0.257 268.082,0.575 L268.082,2.944 C268.082,3.262 267.824,3.520 267.506,3.520 L265.774,3.520 C265.456,3.520 265.197,3.262 265.197,2.944 L265.197,0.575 C265.197,0.257 264.939,-0.001 264.621,-0.001 L263.378,-0.001 C263.059,-0.001 262.801,0.257 262.801,0.575 L262.801,2.944 C262.801,3.262 262.543,3.520 262.225,3.520 L260.492,3.520 C260.174,3.520 259.916,3.262 259.916,2.944 L259.916,0.575 C259.916,0.257 259.658,-0.001 259.340,-0.001 L258.096,-0.001 C257.778,-0.001 257.520,0.257 257.520,0.575 L257.520,2.944 C257.520,3.262 257.262,3.520 256.944,3.520 L254.575,3.520 C254.257,3.520 253.999,3.778 253.999,4.096 L253.999,5.340 C253.999,5.659 254.257,5.916 254.575,5.916 L256.944,5.916 C257.262,5.916 257.520,6.174 257.520,6.492 L257.520,8.225 C257.520,8.543 257.262,8.801 256.944,8.801 L254.575,8.801 C254.257,8.801 253.999,9.059 253.999,9.378 L253.999,10.621 C253.999,10.939 254.257,11.198 254.575,11.198 L256.944,11.198 C257.262,11.198 257.520,11.455 257.520,11.773 L257.520,13.506 C257.520,13.824 257.262,14.083 256.944,14.083 L254.575,14.083 C254.257,14.083 253.999,14.341 253.999,14.659 L253.999,15.903 C253.999,16.221 254.257,16.479 254.575,16.479 L256.944,16.479 C257.262,16.479 257.520,16.737 257.520,17.055 L257.520,19.423 C257.520,19.741 257.778,19.999 258.096,19.999 L259.340,19.999 C259.658,19.999 259.916,19.741 259.916,19.423 L259.916,17.055 C259.916,16.737 260.174,16.479 260.492,16.479 L262.225,16.479 C262.543,16.479 262.801,16.737 262.801,17.055 L262.801,19.423 C262.801,19.741 263.059,19.999 263.378,19.999 L264.621,19.999 C264.939,19.999 265.197,19.741 265.197,19.423 L265.197,17.055 C265.197,16.737 265.456,16.479 265.774,16.479 L267.506,16.479 C267.824,16.479 268.082,16.737 268.082,17.055 L268.082,19.423 C268.082,19.741 268.340,19.999 268.658,19.999 L269.902,19.999 C270.220,19.999 270.478,19.741 270.478,19.423 L270.478,17.055 C270.478,16.737 270.736,16.479 271.055,16.479 L273.423,16.479 C273.741,16.479 273.999,16.221 273.999,15.903 L273.999,14.659 C273.999,14.341 273.741,14.083 273.423,14.083 L271.055,14.083 C270.736,14.083 270.478,13.824 270.478,13.506 L270.478,11.773 C270.478,11.455 270.736,11.198 271.055,11.198 L273.423,11.198 C273.741,11.198 273.999,10.939 273.999,10.621 L273.999,9.378 C273.999,9.059 273.741,8.801 273.423,8.801 L271.055,8.801 C270.736,8.801 270.478,8.543 270.478,8.225 L270.478,6.492 C270.478,6.174 270.736,5.916 271.055,5.916 L273.423,5.916 C273.741,5.916 273.999,5.659 273.999,5.340 L273.999,4.096 C273.999,3.778 273.741,3.520 273.423,3.520 L271.055,3.520 C270.736,3.520 270.478,3.262 270.478,2.944 L270.478,0.575 C270.478,0.257 270.220,-0.001 269.902,-0.001 ZM262.801,11.777 L262.801,13.509 C262.801,13.828 262.543,14.086 262.225,14.086 L260.492,14.086 C260.174,14.086 259.916,13.828 259.916,13.509 L259.916,11.777 C259.916,11.459 260.174,11.201 260.492,11.201 L262.225,11.201 C262.543,11.201 262.801,11.459 262.801,11.777 ZM259.916,8.229 L259.916,6.496 C259.916,6.177 260.174,5.920 260.492,5.920 L262.225,5.920 C262.543,5.920 262.801,6.177 262.801,6.496 L262.801,8.229 C262.801,8.546 262.543,8.805 262.225,8.805 L260.492,8.805 C260.174,8.805 259.916,8.546 259.916,8.229 ZM268.082,11.777 L268.082,13.509 C268.082,13.828 267.824,14.086 267.506,14.086 L265.774,14.086 C265.456,14.086 265.197,13.828 265.197,13.509 L265.197,11.777 C265.197,11.459 265.456,11.201 265.774,11.201 L267.506,11.201 C267.824,11.201 268.082,11.459 268.082,11.777 ZM265.197,8.229 L265.197,6.496 C265.197,6.177 265.456,5.920 265.774,5.920 L267.506,5.920 C267.824,5.920 268.082,6.177 268.082,6.496 L268.082,8.229 C268.082,8.546 267.824,8.805 267.506,8.805 L265.774,8.805 C265.456,8.805 265.197,8.546 265.197,8.229 Z"/>
<path fill-rule="evenodd"  fill="rgb(255, 255, 255)"
 d="M6.492,3.520 C6.174,3.520 5.916,3.262 5.916,2.944 L5.916,0.575 C5.916,0.257 5.658,-0.001 5.340,-0.001 L4.096,-0.001 C3.778,-0.001 3.520,0.257 3.520,0.575 L3.520,2.944 C3.520,3.262 3.262,3.520 2.944,3.520 L0.575,3.520 C0.257,3.520 -0.001,3.778 -0.001,4.096 L-0.001,5.340 C-0.001,5.659 0.257,5.916 0.575,5.916 L2.944,5.916 C3.262,5.916 3.520,6.174 3.520,6.492 L3.520,8.225 C3.520,9.242 3.520,13.184 3.520,11.773 L3.520,13.506 C3.520,13.824 3.262,14.083 2.944,14.083 L0.575,14.083 C0.257,14.083 -0.001,14.341 -0.001,14.659 L-0.001,15.903 C-0.001,16.221 0.257,16.479 0.575,16.479 L2.944,16.479 C3.262,16.479 3.520,16.737 3.520,17.055 L3.520,19.423 C3.520,19.741 3.778,19.999 4.096,19.999 L5.340,19.999 C5.658,19.999 5.916,19.741 5.916,19.423 L5.916,17.055 C5.916,16.737 6.174,16.479 6.492,16.479 L8.225,16.479 C8.543,16.479 11.455,16.479 11.774,16.479 L13.506,16.479 C13.824,16.479 14.082,16.737 14.082,17.055 L14.082,19.423 C14.082,19.741 14.340,19.999 14.658,19.999 L15.902,19.999 C16.220,19.999 16.478,19.741 16.478,19.423 L16.478,17.055 C16.478,16.737 16.737,16.479 17.055,16.479 L19.423,16.479 C19.741,16.479 19.999,16.221 19.999,15.903 L19.999,14.659 C19.999,14.341 19.741,14.083 19.423,14.083 L17.055,14.083 C16.737,14.083 16.478,13.824 16.478,13.506 L16.478,11.773 C16.478,11.455 16.478,8.543 16.478,8.225 L16.478,6.492 C16.478,6.174 16.737,5.916 17.055,5.916 L19.423,5.916 C19.741,5.916 19.999,5.659 19.999,5.340 L19.999,4.096 C19.999,3.778 19.741,3.520 19.423,3.520 L17.055,3.520 C16.737,3.520 16.478,3.262 16.478,2.944 L16.478,0.575 C16.478,0.257 16.220,-0.001 15.902,-0.001 L14.658,-0.001 C14.340,-0.001 14.082,0.257 14.082,0.575 L14.082,2.944 C14.082,3.262 13.824,3.520 13.506,3.520 M8.225,14.086 L6.492,14.086 C6.174,14.086 5.916,13.828 5.916,13.509 L5.916,11.777 C5.916,11.459 5.916,8.546 5.916,8.229 L5.916,6.496 C5.916,6.177 6.174,5.920 6.492,5.920 L8.225,5.920 C8.543,5.920 11.455,5.920 11.774,5.920 L13.506,5.920 C13.824,5.920 14.082,6.177 14.082,6.496 L14.082,8.229 C14.082,8.546 14.082,11.459 14.082,11.777 L14.082,13.509 C14.082,13.828 13.824,14.086 13.506,14.086 L11.774,14.086 C11.455,14.086 8.543,14.086 8.225,14.086 Z"/>
</svg>
