<svg 
 xmlns="http://www.w3.org/2000/svg"
 xmlns:xlink="http://www.w3.org/1999/xlink"
 width="256px" height="149px">
<path fill-rule="evenodd"  fill="none"
 d="M-0.000,133.000 L23.000,133.000 L23.000,147.000 L-0.000,147.000 L-0.000,133.000 Z"/>
<path fill-rule="evenodd"  stroke="rgb(127, 127, 127)" stroke-width="1px" stroke-dasharray="4, 2" stroke-linecap="butt" stroke-linejoin="miter" fill="none"
 d="M71.999,73.000 C71.999,42.624 96.624,18.000 127.000,18.000 C157.375,18.000 182.000,42.624 182.000,73.000 "/>
<path fill-rule="evenodd"  stroke="rgb(23, 204, 95)" stroke-width="4px" stroke-linecap="butt" stroke-linejoin="miter" fill="none"
 d="M127.000,54.000 C157.375,54.000 182.000,62.282 182.000,72.500 C182.000,82.717 157.375,91.000 127.000,91.000 C96.624,91.000 71.999,82.717 71.999,72.500 C71.999,62.282 96.624,54.000 127.000,54.000 Z"/>
<path fill-rule="evenodd"  stroke="rgb(23, 204, 95)" stroke-width="4px" stroke-linecap="butt" stroke-linejoin="miter" fill="none"
 d="M127.000,58.000 C157.375,58.000 182.000,66.283 182.000,76.500 C182.000,86.717 157.375,95.000 127.000,95.000 C96.624,95.000 71.999,86.717 71.999,76.500 C71.999,66.283 96.624,58.000 127.000,58.000 Z"/>
<path fill-rule="evenodd"  stroke="rgb(23, 204, 95)" stroke-width="4px" stroke-linecap="butt" stroke-linejoin="miter" fill="none"
 d="M127.000,62.000 C157.375,62.000 182.000,70.282 182.000,80.500 C182.000,90.717 157.375,99.000 127.000,99.000 C96.624,99.000 71.999,90.717 71.999,80.500 C71.999,70.282 96.624,62.000 127.000,62.000 Z"/>
<path fill-rule="evenodd"  stroke="rgb(23, 204, 95)" stroke-width="4px" stroke-linecap="butt" stroke-linejoin="miter" fill="none"
 d="M127.000,66.000 C157.375,66.000 181.000,74.283 181.000,84.500 C181.000,94.717 157.375,103.000 127.000,103.000 C96.624,103.000 73.000,94.717 73.000,84.500 C73.000,74.283 96.624,66.000 127.000,66.000 Z"/>
<path fill-rule="evenodd"  stroke="rgb(23, 204, 95)" stroke-width="4px" stroke-linecap="butt" stroke-linejoin="miter" fill="none"
 d="M127.000,70.000 C157.375,70.000 179.999,78.282 179.999,88.500 C179.999,98.717 157.375,107.000 127.000,107.000 C96.624,107.000 74.000,98.717 74.000,88.500 C74.000,78.282 96.624,70.000 127.000,70.000 Z"/>
<path fill-rule="evenodd"  stroke="rgb(23, 204, 95)" stroke-width="4px" stroke-linecap="butt" stroke-linejoin="miter" fill="none"
 d="M127.000,74.000 C157.375,74.000 178.000,82.282 178.000,92.500 C178.000,102.717 157.375,111.000 127.000,111.000 C96.624,111.000 76.000,102.717 76.000,92.500 C76.000,82.282 96.624,74.000 127.000,74.000 Z"/>
<path fill-rule="evenodd"  stroke="rgb(23, 204, 95)" stroke-width="4px" stroke-linecap="butt" stroke-linejoin="miter" fill="none"
 d="M127.000,78.000 C157.375,78.000 176.000,86.283 176.000,96.500 C176.000,106.717 157.375,115.000 127.000,115.000 C96.624,115.000 78.000,106.717 78.000,96.500 C78.000,86.283 96.624,78.000 127.000,78.000 Z"/>
<path fill-rule="evenodd"  stroke="rgb(23, 204, 95)" stroke-width="4px" stroke-linecap="butt" stroke-linejoin="miter" fill="none"
 d="M127.000,82.000 C157.375,82.000 173.000,90.282 173.000,100.500 C173.000,110.717 157.375,119.000 127.000,119.000 C96.624,119.000 81.000,110.717 81.000,100.500 C81.000,90.282 96.624,82.000 127.000,82.000 Z"/>
<path fill-rule="evenodd"  stroke="rgb(23, 204, 95)" stroke-width="4px" stroke-linecap="butt" stroke-linejoin="miter" fill="none"
 d="M127.000,86.000 C157.375,86.000 169.000,94.283 169.000,104.500 C169.000,114.717 157.375,123.000 127.000,123.000 C96.624,123.000 84.999,114.717 84.999,104.500 C84.999,94.283 96.624,86.000 127.000,86.000 Z"/>
<path fill-rule="evenodd"  stroke="rgb(23, 204, 95)" stroke-width="4px" stroke-linecap="butt" stroke-linejoin="miter" fill="none"
 d="M127.000,90.000 C157.375,90.000 164.000,98.283 164.000,108.500 C164.000,118.717 157.375,127.000 127.000,127.000 C96.624,127.000 90.000,118.717 90.000,108.500 C90.000,98.283 96.624,90.000 127.000,90.000 Z"/>
<path fill-rule="evenodd"  opacity="0.2" fill="rgb(0, 0, 0)"
 d="M126.000,56.000 C156.375,56.000 177.021,61.293 178.999,72.500 C180.776,82.561 156.375,91.000 126.000,91.000 C95.624,91.000 74.226,82.688 75.000,72.500 C75.791,62.085 95.624,56.000 126.000,56.000 Z"/>
<path fill-rule="evenodd"  stroke="rgb(23, 204, 95)" stroke-width="4px" stroke-linecap="round" stroke-linejoin="round" fill="none"
 d="M220.000,43.767 C210.687,43.767 203.137,46.245 203.137,49.302 C203.137,52.359 210.687,54.837 220.000,54.837 C229.313,54.837 236.862,52.359 236.862,49.302 C236.862,46.837 236.862,24.000 236.862,24.000 "/>
<path fill-rule="evenodd"  fill="rgb(183, 183, 183)"
 d="M224.010,0.343 C224.010,0.343 223.986,15.500 224.010,15.828 C224.035,16.156 224.439,17.067 225.785,18.400 C227.131,19.733 237.688,31.586 237.851,31.771 C238.015,31.956 238.181,32.284 238.739,32.285 C239.296,32.287 239.769,31.823 240.159,31.428 C240.548,31.033 252.320,17.887 252.757,17.371 C253.195,16.855 253.641,16.041 253.645,14.628 C253.648,13.216 253.645,0.343 253.645,0.343 L224.010,0.343 Z"/>
<path fill-rule="evenodd"  fill="rgb(207, 207, 207)"
 d="M225.607,18.057 C225.607,18.057 226.446,19.071 228.092,19.771 C230.711,20.885 235.132,21.843 239.626,21.485 C246.944,20.903 251.515,19.428 251.515,19.428 L239.449,32.457 L237.674,32.285 L225.430,18.400 L225.607,18.057 Z"/>
<path fill-rule="evenodd"  fill="rgb(127, 127, 127)"
 d="M247.966,-0.000 L247.966,20.114 L239.271,32.457 L239.626,32.457 C239.626,32.457 253.420,16.957 253.822,16.171 C254.225,15.385 253.822,-0.000 253.822,-0.000 L247.966,-0.000 Z"/>
<path fill-rule="evenodd"  fill="rgb(249, 249, 249)"
 d="M227.914,0.343 L227.914,19.600 L238.561,32.285 L234.835,21.314 L235.012,0.171 L227.914,0.343 Z"/>
</svg>
