<svg 
 xmlns="http://www.w3.org/2000/svg"
 xmlns:xlink="http://www.w3.org/1999/xlink"
 width="199px" height="147px">
<path fill-rule="evenodd"  fill="none"
 d="M-0.000,-0.000 L5.999,-0.000 L5.999,5.000 L-0.000,5.000 L-0.000,-0.000 Z"/>
<path fill-rule="evenodd"  fill="none"
 d="M89.000,139.000 L106.000,139.000 L106.000,147.000 L89.000,147.000 L89.000,139.000 Z"/>
<path fill-rule="evenodd"  fill="rgb(56, 56, 58)"
 d="M22.989,124.990 L46.989,124.990 C48.646,124.990 49.990,126.333 49.990,127.990 C49.990,129.647 48.646,130.990 46.989,130.990 L22.989,130.990 C21.332,130.990 19.989,129.647 19.989,127.990 C19.989,126.333 21.332,124.990 22.989,124.990 Z"/>
<path fill-rule="evenodd"  fill="rgb(56, 56, 58)"
 d="M151.990,124.990 L175.990,124.990 C177.646,124.990 178.989,126.333 178.989,127.990 C178.989,129.647 177.646,130.990 175.990,130.990 L151.990,130.990 C150.332,130.990 148.989,129.647 148.989,127.990 C148.989,126.333 150.332,124.990 151.990,124.990 Z"/>
<path fill-rule="evenodd"  fill="rgb(47, 47, 49)"
 d="M1.999,114.999 L196.999,114.999 C198.104,114.999 198.999,115.894 198.999,116.999 L198.999,122.999 C198.999,124.104 198.104,124.999 196.999,124.999 L1.999,124.999 C0.895,124.999 -0.001,124.104 -0.001,122.999 L-0.001,116.999 C-0.001,115.894 0.895,114.999 1.999,114.999 Z"/>
<path fill-rule="evenodd"  fill="rgb(23, 204, 95)"
 d="M43.999,110.000 L43.999,80.000 C43.999,77.239 46.238,75.000 48.999,75.000 C51.761,75.000 53.999,77.239 53.999,80.000 L53.999,110.000 C53.999,112.762 51.761,115.000 48.999,115.000 C46.238,115.000 43.999,112.762 43.999,110.000 Z"/>
<path fill-rule="evenodd"  fill="rgb(16, 142, 66)"
 d="M49.999,110.000 L49.999,80.000 C49.999,75.907 46.244,75.827 46.244,75.827 C46.244,75.827 47.981,75.000 49.000,75.000 C51.761,75.000 53.999,77.239 53.999,80.000 L53.999,110.000 C53.999,112.762 51.761,115.000 49.000,115.000 C47.917,115.000 46.098,114.073 46.098,114.073 C46.098,114.073 49.999,113.913 49.999,110.000 Z"/>
<path fill-rule="evenodd"  fill="rgb(23, 204, 95)"
 d="M55.999,110.000 L55.999,80.000 C55.999,77.239 58.238,75.000 60.999,75.000 C63.761,75.000 65.999,77.239 65.999,80.000 L65.999,110.000 C65.999,112.762 63.761,115.000 60.999,115.000 C58.238,115.000 55.999,112.762 55.999,110.000 Z"/>
<path fill-rule="evenodd"  fill="rgb(16, 142, 66)"
 d="M61.999,110.000 L61.999,80.000 C61.999,75.907 58.244,75.827 58.244,75.827 C58.244,75.827 59.981,75.000 60.999,75.000 C63.761,75.000 65.999,77.239 65.999,80.000 L65.999,110.000 C65.999,112.762 63.761,115.000 60.999,115.000 C59.918,115.000 58.097,114.073 58.097,114.073 C58.097,114.073 61.999,113.913 61.999,110.000 Z"/>
<path fill-rule="evenodd"  fill="rgb(23, 204, 95)"
 d="M67.999,110.000 L67.999,90.000 C67.999,87.239 70.238,85.000 72.999,85.000 C75.760,85.000 77.999,87.239 77.999,90.000 L77.999,110.000 C77.999,112.762 75.760,115.000 72.999,115.000 C70.238,115.000 67.999,112.762 67.999,110.000 Z"/>
<path fill-rule="evenodd"  fill="rgb(16, 142, 66)"
 d="M73.999,110.000 L73.999,90.000 C73.999,85.907 70.244,85.827 70.244,85.827 C70.244,85.827 71.981,85.000 72.999,85.000 C75.761,85.000 77.999,87.239 77.999,90.000 L77.999,110.000 C77.999,112.762 75.761,115.000 72.999,115.000 C71.917,115.000 70.098,114.073 70.098,114.073 C70.098,114.073 73.999,113.913 73.999,110.000 Z"/>
<path fill-rule="evenodd"  fill="rgb(23, 204, 95)"
 d="M134.999,110.000 L134.999,80.000 C134.999,77.239 137.238,75.000 139.999,75.000 C142.761,75.000 144.999,77.239 144.999,80.000 L144.999,110.000 C144.999,112.762 142.761,115.000 139.999,115.000 C137.238,115.000 134.999,112.762 134.999,110.000 Z"/>
<path fill-rule="evenodd"  fill="rgb(16, 142, 66)"
 d="M140.999,110.000 L140.999,80.000 C140.999,75.907 137.244,75.827 137.244,75.827 C137.244,75.827 138.981,75.000 139.999,75.000 C142.761,75.000 144.999,77.239 144.999,80.000 L144.999,110.000 C144.999,112.762 142.761,115.000 139.999,115.000 C138.917,115.000 137.098,114.073 137.098,114.073 C137.098,114.073 140.999,113.913 140.999,110.000 Z"/>
<path fill-rule="evenodd"  fill="rgb(23, 204, 95)"
 d="M146.999,110.000 L146.999,80.000 C146.999,77.239 149.238,75.000 151.999,75.000 C154.761,75.000 156.999,77.239 156.999,80.000 L156.999,110.000 C156.999,112.762 154.761,115.000 151.999,115.000 C149.238,115.000 146.999,112.762 146.999,110.000 Z"/>
<path fill-rule="evenodd"  fill="rgb(16, 142, 66)"
 d="M152.999,110.000 L152.999,80.000 C152.999,75.907 149.244,75.827 149.244,75.827 C149.244,75.827 150.981,75.000 151.999,75.000 C154.761,75.000 156.999,77.239 156.999,80.000 L156.999,110.000 C156.999,112.762 154.761,115.000 151.999,115.000 C150.917,115.000 149.098,114.073 149.098,114.073 C149.098,114.073 152.999,113.913 152.999,110.000 Z"/>
<path fill-rule="evenodd"  fill="rgb(23, 204, 95)"
 d="M79.999,110.000 L79.999,90.000 C79.999,87.239 82.238,85.000 84.999,85.000 C87.761,85.000 89.999,87.239 89.999,90.000 L89.999,110.000 C89.999,112.762 87.761,115.000 84.999,115.000 C82.238,115.000 79.999,112.762 79.999,110.000 Z"/>
<path fill-rule="evenodd"  fill="rgb(16, 142, 66)"
 d="M85.999,110.000 L85.999,90.000 C85.999,85.907 82.244,85.827 82.244,85.827 C82.244,85.827 83.981,85.000 84.999,85.000 C87.761,85.000 89.999,87.239 89.999,90.000 L89.999,110.000 C89.999,112.762 87.761,115.000 84.999,115.000 C83.917,115.000 82.098,114.073 82.098,114.073 C82.098,114.073 85.999,113.913 85.999,110.000 Z"/>
<path fill-rule="evenodd"  fill="rgb(23, 204, 95)"
 d="M110.999,110.000 L110.999,90.000 C110.999,87.239 113.238,85.000 115.999,85.000 C118.761,85.000 120.999,87.239 120.999,90.000 L120.999,110.000 C120.999,112.762 118.761,115.000 115.999,115.000 C113.238,115.000 110.999,112.762 110.999,110.000 Z"/>
<path fill-rule="evenodd"  fill="rgb(16, 142, 66)"
 d="M116.999,110.000 L116.999,90.000 C116.999,85.907 113.244,85.827 113.244,85.827 C113.244,85.827 114.981,85.000 115.999,85.000 C118.761,85.000 120.999,87.239 120.999,90.000 L120.999,110.000 C120.999,112.762 118.761,115.000 115.999,115.000 C114.918,115.000 113.098,114.073 113.098,114.073 C113.098,114.073 116.999,113.913 116.999,110.000 Z"/>
<path fill-rule="evenodd"  fill="rgb(23, 204, 95)"
 d="M122.999,110.000 L122.999,90.000 C122.999,87.239 125.238,85.000 127.999,85.000 C130.760,85.000 132.999,87.239 132.999,90.000 L132.999,110.000 C132.999,112.762 130.760,115.000 127.999,115.000 C125.238,115.000 122.999,112.762 122.999,110.000 Z"/>
<path fill-rule="evenodd"  fill="rgb(16, 142, 66)"
 d="M128.999,110.000 L128.999,90.000 C128.999,85.907 125.244,85.827 125.244,85.827 C125.244,85.827 126.981,85.000 127.999,85.000 C130.761,85.000 132.999,87.239 132.999,90.000 L132.999,110.000 C132.999,112.762 130.761,115.000 127.999,115.000 C126.917,115.000 125.098,114.073 125.098,114.073 C125.098,114.073 128.999,113.913 128.999,110.000 Z"/>
<path fill-rule="evenodd"  fill="rgb(127, 127, 127)"
 d="M44.999,14.999 L154.999,14.999 C157.761,14.999 159.999,17.238 159.999,19.999 C159.999,22.761 157.761,24.999 154.999,24.999 L44.999,24.999 C42.238,24.999 39.999,22.761 39.999,19.999 C39.999,17.238 42.238,14.999 44.999,14.999 Z"/>
<path fill-rule="evenodd"  fill="rgb(103, 103, 103)"
 d="M44.999,20.999 L154.999,20.999 C159.092,20.999 159.172,17.244 159.172,17.244 C159.172,17.244 159.999,18.981 159.999,19.999 C159.999,22.761 157.760,24.999 154.999,24.999 L44.999,24.999 C42.238,24.999 39.999,22.761 39.999,19.999 C39.999,18.917 40.926,17.098 40.926,17.098 C40.926,17.098 41.087,20.999 44.999,20.999 Z"/>
<path fill-rule="evenodd"  fill="rgb(127, 127, 127)"
 d="M74.999,24.999 L124.999,24.999 C127.761,24.999 129.999,27.238 129.999,29.999 C129.999,32.761 127.761,34.999 124.999,34.999 L74.999,34.999 C72.238,34.999 69.999,32.761 69.999,29.999 C69.999,27.238 72.238,24.999 74.999,24.999 Z"/>
<path fill-rule="evenodd"  fill="rgb(103, 103, 103)"
 d="M74.999,30.999 L124.999,30.999 C129.092,30.999 129.172,27.244 129.172,27.244 C129.172,27.244 129.999,28.981 129.999,29.999 C129.999,32.761 127.760,34.999 124.999,34.999 L74.999,34.999 C72.238,34.999 69.999,32.761 69.999,29.999 C69.999,28.918 70.926,27.097 70.926,27.097 C70.926,27.097 71.087,30.999 74.999,30.999 Z"/>
<path fill-rule="evenodd"  fill="rgb(127, 127, 127)"
 d="M94.999,34.999 L104.999,34.999 C107.761,34.999 109.999,37.238 109.999,39.999 C109.999,42.760 107.761,44.999 104.999,44.999 L94.999,44.999 C92.237,44.999 89.999,42.760 89.999,39.999 C89.999,37.238 92.237,34.999 94.999,34.999 Z"/>
<path fill-rule="evenodd"  fill="rgb(103, 103, 103)"
 d="M94.999,40.999 L104.999,40.999 C109.093,40.999 109.172,37.244 109.172,37.244 C109.172,37.244 109.999,38.981 109.999,39.999 C109.999,42.761 107.760,44.999 104.999,44.999 L94.999,44.999 C92.237,44.999 89.999,42.761 89.999,39.999 C89.999,38.918 90.926,37.098 90.926,37.098 C90.926,37.098 91.086,40.999 94.999,40.999 Z"/>
<path fill-rule="evenodd"  fill="rgb(127, 127, 127)"
 d="M94.999,44.999 L104.999,44.999 C107.761,44.999 109.999,47.238 109.999,49.999 C109.999,52.761 107.761,54.999 104.999,54.999 L94.999,54.999 C92.237,54.999 89.999,52.761 89.999,49.999 C89.999,47.238 92.237,44.999 94.999,44.999 Z"/>
<path fill-rule="evenodd"  fill="rgb(103, 103, 103)"
 d="M94.999,50.999 L104.999,50.999 C109.093,50.999 109.172,47.244 109.172,47.244 C109.172,47.244 109.999,48.981 109.999,49.999 C109.999,52.761 107.760,54.999 104.999,54.999 L94.999,54.999 C92.237,54.999 89.999,52.761 89.999,49.999 C89.999,48.917 90.926,47.098 90.926,47.098 C90.926,47.098 91.086,50.999 94.999,50.999 Z"/>
<path fill-rule="evenodd"  fill="rgb(127, 127, 127)"
 d="M94.999,54.999 L104.999,54.999 C107.761,54.999 109.999,57.238 109.999,59.999 C109.999,62.761 107.761,64.999 104.999,64.999 L94.999,64.999 C92.237,64.999 89.999,62.761 89.999,59.999 C89.999,57.238 92.237,54.999 94.999,54.999 Z"/>
<path fill-rule="evenodd"  fill="rgb(103, 103, 103)"
 d="M94.999,60.999 L104.999,60.999 C109.093,60.999 109.172,57.244 109.172,57.244 C109.172,57.244 109.999,58.981 109.999,59.999 C109.999,62.761 107.760,64.999 104.999,64.999 L94.999,64.999 C92.237,64.999 89.999,62.761 89.999,59.999 C89.999,58.917 90.926,57.097 90.926,57.097 C90.926,57.097 91.086,60.999 94.999,60.999 Z"/>
<path fill-rule="evenodd"  fill="rgb(127, 127, 127)"
 d="M44.999,64.999 L154.999,64.999 C157.761,64.999 159.999,67.238 159.999,69.999 C159.999,72.760 157.761,74.999 154.999,74.999 L44.999,74.999 C42.238,74.999 39.999,72.760 39.999,69.999 C39.999,67.238 42.238,64.999 44.999,64.999 Z"/>
<path fill-rule="evenodd"  fill="rgb(103, 103, 103)"
 d="M44.999,70.999 L154.999,70.999 C159.092,70.999 159.172,67.244 159.172,67.244 C159.172,67.244 159.999,68.981 159.999,69.999 C159.999,72.761 157.760,74.999 154.999,74.999 L44.999,74.999 C42.238,74.999 39.999,72.761 39.999,69.999 C39.999,68.917 40.926,67.098 40.926,67.098 C40.926,67.098 41.087,70.999 44.999,70.999 Z"/>
<path fill-rule="evenodd"  fill="rgb(127, 127, 127)"
 d="M74.999,74.999 L124.999,74.999 C127.761,74.999 129.999,77.238 129.999,79.999 C129.999,82.761 127.761,84.999 124.999,84.999 L74.999,84.999 C72.238,84.999 69.999,82.761 69.999,79.999 C69.999,77.238 72.238,74.999 74.999,74.999 Z"/>
<path fill-rule="evenodd"  fill="rgb(103, 103, 103)"
 d="M74.999,80.999 L124.999,80.999 C129.092,80.999 129.172,77.244 129.172,77.244 C129.172,77.244 129.999,78.981 129.999,79.999 C129.999,82.761 127.760,84.999 124.999,84.999 L74.999,84.999 C72.238,84.999 69.999,82.761 69.999,79.999 C69.999,78.917 70.926,77.098 70.926,77.098 C70.926,77.098 71.087,80.999 74.999,80.999 Z"/>
<path fill-rule="evenodd"  fill="rgb(127, 127, 127)"
 d="M94.999,84.999 L104.999,84.999 C107.761,84.999 109.999,87.238 109.999,89.999 C109.999,92.761 107.761,94.999 104.999,94.999 L94.999,94.999 C92.237,94.999 89.999,92.761 89.999,89.999 C89.999,87.238 92.237,84.999 94.999,84.999 Z"/>
<path fill-rule="evenodd"  fill="rgb(103, 103, 103)"
 d="M94.999,90.999 L104.999,90.999 C109.093,90.999 109.172,87.244 109.172,87.244 C109.172,87.244 109.999,88.981 109.999,89.999 C109.999,92.761 107.760,94.999 104.999,94.999 L94.999,94.999 C92.237,94.999 89.999,92.761 89.999,89.999 C89.999,88.918 90.926,87.098 90.926,87.098 C90.926,87.098 91.086,90.999 94.999,90.999 Z"/>
<path fill-rule="evenodd"  fill="rgb(127, 127, 127)"
 d="M94.999,94.999 L104.999,94.999 C107.761,94.999 109.999,97.238 109.999,99.999 C109.999,102.760 107.761,104.999 104.999,104.999 L94.999,104.999 C92.237,104.999 89.999,102.760 89.999,99.999 C89.999,97.238 92.237,94.999 94.999,94.999 Z"/>
<path fill-rule="evenodd"  fill="rgb(103, 103, 103)"
 d="M94.999,100.999 L104.999,100.999 C109.093,100.999 109.172,97.244 109.172,97.244 C109.172,97.244 109.999,98.981 109.999,99.999 C109.999,102.761 107.760,104.999 104.999,104.999 L94.999,104.999 C92.237,104.999 89.999,102.761 89.999,99.999 C89.999,98.917 90.926,97.098 90.926,97.098 C90.926,97.098 91.086,100.999 94.999,100.999 Z"/>
<path fill-rule="evenodd"  fill="rgb(127, 127, 127)"
 d="M94.999,104.999 L104.999,104.999 C107.761,104.999 109.999,107.238 109.999,109.999 C109.999,112.761 107.761,114.999 104.999,114.999 L94.999,114.999 C92.237,114.999 89.999,112.761 89.999,109.999 C89.999,107.238 92.237,104.999 94.999,104.999 Z"/>
<path fill-rule="evenodd"  fill="rgb(103, 103, 103)"
 d="M94.999,110.999 L104.999,110.999 C109.093,110.999 109.172,107.244 109.172,107.244 C109.172,107.244 109.999,108.981 109.999,109.999 C109.999,112.761 107.760,114.999 104.999,114.999 L94.999,114.999 C92.237,114.999 89.999,112.761 89.999,109.999 C89.999,108.917 90.926,107.098 90.926,107.098 C90.926,107.098 91.086,110.999 94.999,110.999 Z"/>
</svg>
