<svg 
 xmlns="http://www.w3.org/2000/svg"
 xmlns:xlink="http://www.w3.org/1999/xlink"
 width="186.5px" height="147.5px">
<path fill-rule="evenodd"  fill="none"
 d="M-0.001,132.000 L10.000,132.000 L10.000,147.000 L-0.001,147.000 L-0.001,132.000 Z"/>
<path fill-rule="evenodd"  fill="rgb(23, 204, 95)"
 d="M145.011,106.750 C147.150,105.601 148.163,103.607 147.970,101.724 C148.178,99.731 147.150,97.848 145.011,96.698 L98.923,72.029 C96.882,70.879 94.438,70.353 91.994,70.353 C89.549,70.353 87.092,70.879 85.050,72.029 L38.962,96.602 C36.823,97.751 35.907,99.744 36.004,101.627 C35.907,103.620 36.823,105.601 38.962,106.750 L85.050,131.336 C87.092,132.486 89.536,133.011 91.994,133.011 C94.438,133.011 96.882,132.486 98.923,131.336 L145.011,106.750 Z"/>
<path fill-rule="evenodd"  fill="rgb(23, 173, 83)"
 d="M145.011,103.420 C147.150,102.271 148.163,100.277 147.970,98.395 C148.178,96.402 147.150,94.519 145.011,93.369 L98.923,68.699 C96.882,67.550 94.438,67.024 91.994,67.024 C89.549,67.024 87.092,67.550 85.050,68.699 L38.962,93.272 C36.823,94.422 35.907,96.415 36.004,98.298 C35.907,100.291 36.823,102.271 38.962,103.420 L85.050,128.007 C87.092,129.156 89.536,129.682 91.994,129.682 C94.438,129.682 96.882,129.156 98.923,128.007 L145.011,103.420 Z"/>
<path fill-rule="evenodd"  fill="rgb(23, 204, 95)"
 d="M145.011,102.154 C147.150,101.005 148.163,99.012 147.970,97.129 C148.178,95.136 147.150,93.253 145.011,92.103 L98.923,67.433 C96.882,66.284 94.438,65.758 91.994,65.758 C89.549,65.758 87.092,66.284 85.050,67.433 L38.962,92.007 C36.823,93.156 35.907,95.149 36.004,97.032 C35.907,99.025 36.823,101.005 38.962,102.154 L85.050,126.741 C87.092,127.891 89.536,128.416 91.994,128.416 C94.438,128.416 96.882,127.891 98.923,126.741 L145.011,102.154 Z"/>
<path fill-rule="evenodd"  fill="rgb(23, 173, 83)"
 d="M145.011,98.420 C147.150,97.271 148.163,95.278 147.970,93.395 C148.178,91.402 147.150,89.518 145.011,88.369 L98.923,63.699 C96.882,62.550 94.438,62.024 91.994,62.024 C89.549,62.024 87.092,62.550 85.050,63.699 L38.962,88.272 C36.823,89.422 35.907,91.415 36.004,93.298 C35.907,95.291 36.823,97.271 38.962,98.420 L85.050,123.007 C87.092,124.156 89.536,124.682 91.994,124.682 C94.438,124.682 96.882,124.156 98.923,123.007 L145.011,98.420 Z"/>
<path fill-rule="evenodd"  fill="rgb(23, 204, 95)"
 d="M145.011,97.154 C147.150,96.006 148.163,94.012 147.970,92.129 C148.178,90.136 147.150,88.253 145.011,87.103 L98.923,62.434 C96.882,61.284 94.438,60.758 91.994,60.758 C89.549,60.758 87.092,61.284 85.050,62.434 L38.962,87.007 C36.823,88.156 35.907,90.149 36.004,92.032 C35.907,94.025 36.823,96.006 38.962,97.154 L85.050,121.741 C87.092,122.891 89.536,123.416 91.994,123.416 C94.438,123.416 96.882,122.891 98.923,121.741 L145.011,97.154 Z"/>
<path fill-rule="evenodd"  fill="rgb(23, 173, 83)"
 d="M145.011,93.420 C147.150,92.271 148.163,90.278 147.970,88.395 C148.178,86.401 147.150,84.518 145.011,83.369 L98.923,58.699 C96.882,57.550 94.438,57.024 91.994,57.024 C89.549,57.024 87.092,57.550 85.050,58.699 L38.962,83.273 C36.823,84.422 35.907,86.415 36.004,88.298 C35.907,90.291 36.823,92.271 38.962,93.420 L85.050,118.007 C87.092,119.157 89.536,119.682 91.994,119.682 C94.438,119.682 96.882,119.157 98.923,118.007 L145.011,93.420 Z"/>
<path fill-rule="evenodd"  fill="rgb(23, 204, 95)"
 d="M145.011,92.155 C147.150,91.006 148.163,89.012 147.970,87.129 C148.178,85.136 147.150,83.253 145.011,82.103 L98.923,57.433 C96.882,56.284 94.438,55.758 91.994,55.758 C89.549,55.758 87.092,56.284 85.050,57.433 L38.962,82.007 C36.823,83.156 35.907,85.149 36.004,87.032 C35.907,89.026 36.823,91.006 38.962,92.155 L85.050,116.741 C87.092,117.891 89.536,118.417 91.994,118.417 C94.438,118.417 96.882,117.891 98.923,116.741 L145.011,92.155 Z"/>
<path fill-rule="evenodd"  fill="rgb(23, 173, 83)"
 d="M145.011,88.421 C147.150,87.271 148.163,85.278 147.970,83.395 C148.178,81.402 147.150,79.518 145.011,78.369 L98.923,53.699 C96.882,52.550 94.438,52.024 91.994,52.024 C89.549,52.024 87.092,52.550 85.050,53.699 L38.962,78.273 C36.823,79.422 35.907,81.415 36.004,83.298 C35.907,85.291 36.823,87.271 38.962,88.421 L85.050,113.007 C87.092,114.156 89.536,114.682 91.994,114.682 C94.438,114.682 96.882,114.156 98.923,113.007 L145.011,88.421 Z"/>
<path fill-rule="evenodd"  fill="rgb(23, 204, 95)"
 d="M145.011,87.155 C147.150,86.006 148.163,84.012 147.970,82.129 C148.178,80.136 147.150,78.252 145.011,77.103 L98.923,52.433 C96.882,51.284 94.438,50.758 91.994,50.758 C89.549,50.758 87.092,51.284 85.050,52.433 L38.962,77.007 C36.823,78.156 35.907,80.149 36.004,82.032 C35.907,84.025 36.823,86.006 38.962,87.155 L85.050,111.741 C87.092,112.891 89.536,113.417 91.994,113.417 C94.438,113.417 96.882,112.891 98.923,111.741 L145.011,87.155 Z"/>
<path fill-rule="evenodd"  fill="rgb(23, 173, 83)"
 d="M145.011,83.420 C147.150,82.271 148.163,80.278 147.970,78.395 C148.178,76.402 147.150,74.518 145.011,73.369 L98.923,48.699 C96.882,47.550 94.438,47.024 91.994,47.024 C89.549,47.024 87.092,47.550 85.050,48.699 L38.962,73.273 C36.823,74.422 35.907,76.415 36.004,78.298 C35.907,80.291 36.823,82.271 38.962,83.420 L85.050,108.007 C87.092,109.156 89.536,109.682 91.994,109.682 C94.438,109.682 96.882,109.156 98.923,108.007 L145.011,83.420 Z"/>
<path fill-rule="evenodd"  fill="rgb(23, 204, 95)"
 d="M145.011,82.155 C147.150,81.005 148.163,79.012 147.970,77.129 C148.178,75.136 147.150,73.253 145.011,72.104 L98.923,47.434 C96.882,46.284 94.438,45.758 91.994,45.758 C89.549,45.758 87.092,46.284 85.050,47.434 L38.962,72.007 C36.823,73.156 35.907,75.150 36.004,77.032 C35.907,79.025 36.823,81.005 38.962,82.155 L85.050,106.741 C87.092,107.890 89.536,108.416 91.994,108.416 C94.438,108.416 96.882,107.890 98.923,106.741 L145.011,82.155 Z"/>
<path fill-rule="evenodd"  fill="rgb(23, 173, 83)"
 d="M145.011,78.420 C147.150,77.271 148.163,75.278 147.970,73.395 C148.178,71.402 147.150,69.519 145.011,68.369 L98.923,43.699 C96.882,42.550 94.438,42.024 91.994,42.024 C89.549,42.024 87.092,42.550 85.050,43.699 L38.962,68.273 C36.823,69.422 35.907,71.415 36.004,73.298 C35.907,75.291 36.823,77.271 38.962,78.420 L85.050,103.007 C87.092,104.156 89.536,104.682 91.994,104.682 C94.438,104.682 96.882,104.156 98.923,103.007 L145.011,78.420 Z"/>
<path fill-rule="evenodd"  fill="rgb(23, 204, 95)"
 d="M145.011,77.154 C147.150,76.005 148.163,74.012 147.970,72.129 C148.178,70.136 147.150,68.253 145.011,67.103 L98.923,42.433 C96.882,41.284 94.438,40.758 91.994,40.758 C89.549,40.758 87.092,41.284 85.050,42.433 L38.962,67.007 C36.823,68.156 35.907,70.149 36.004,72.032 C35.907,74.025 36.823,76.005 38.962,77.154 L85.050,101.741 C87.092,102.891 89.536,103.417 91.994,103.417 C94.438,103.417 96.882,102.891 98.923,101.741 L145.011,77.154 Z"/>
<path fill-rule="evenodd"  fill="rgb(23, 173, 83)"
 d="M145.011,73.420 C147.150,72.271 148.163,70.278 147.970,68.395 C148.178,66.402 147.150,64.518 145.011,63.369 L98.923,38.699 C96.882,37.550 94.438,37.024 91.994,37.024 C89.549,37.024 87.092,37.550 85.050,38.699 L38.962,63.272 C36.823,64.422 35.907,66.415 36.004,68.298 C35.907,70.291 36.823,72.271 38.962,73.420 L85.050,98.007 C87.092,99.156 89.536,99.682 91.994,99.682 C94.438,99.682 96.882,99.156 98.923,98.007 L145.011,73.420 Z"/>
<path fill-rule="evenodd"  fill="rgb(23, 204, 95)"
 d="M145.011,72.154 C147.150,71.006 148.163,69.012 147.970,67.129 C148.178,65.136 147.150,63.253 145.011,62.103 L98.923,37.434 C96.882,36.284 94.438,35.758 91.994,35.758 C89.549,35.758 87.092,36.284 85.050,37.434 L38.962,62.006 C36.823,63.156 35.907,65.149 36.004,67.032 C35.907,69.025 36.823,71.006 38.962,72.154 L85.050,96.741 C87.092,97.891 89.536,98.416 91.994,98.416 C94.438,98.416 96.882,97.891 98.923,96.741 L145.011,72.154 Z"/>
<path fill-rule="evenodd"  fill="rgb(23, 173, 83)"
 d="M145.011,68.420 C147.150,67.271 148.163,65.278 147.970,63.395 C148.178,61.402 147.150,59.519 145.011,58.369 L98.923,33.699 C96.882,32.550 94.438,32.024 91.994,32.024 C89.549,32.024 87.092,32.550 85.050,33.699 L38.962,58.273 C36.823,59.422 35.907,61.415 36.004,63.298 C35.907,65.291 36.823,67.271 38.962,68.420 L85.050,93.007 C87.092,94.157 89.536,94.682 91.994,94.682 C94.438,94.682 96.882,94.157 98.923,93.007 L145.011,68.420 Z"/>
<path fill-rule="evenodd"  fill="rgb(23, 204, 95)"
 d="M145.011,67.154 C147.150,66.006 148.163,64.012 147.970,62.129 C148.178,60.136 147.150,58.253 145.011,57.103 L98.923,32.434 C96.882,31.284 94.438,30.758 91.994,30.758 C89.549,30.758 87.092,31.284 85.050,32.434 L38.962,57.007 C36.823,58.156 35.907,60.149 36.004,62.032 C35.907,64.026 36.823,66.006 38.962,67.154 L85.050,91.742 C87.092,92.891 89.536,93.416 91.994,93.416 C94.438,93.416 96.882,92.891 98.923,91.742 L145.011,67.154 Z"/>
<path fill-rule="evenodd"  fill="rgb(23, 173, 83)"
 d="M145.011,63.420 C147.150,62.271 148.163,60.278 147.970,58.395 C148.178,56.402 147.150,54.518 145.011,53.369 L98.923,28.699 C96.882,27.550 94.438,27.024 91.994,27.024 C89.549,27.024 87.092,27.550 85.050,28.699 L38.962,53.273 C36.823,54.422 35.907,56.415 36.004,58.298 C35.907,60.291 36.823,62.271 38.962,63.420 L85.050,88.007 C87.092,89.156 89.536,89.682 91.994,89.682 C94.438,89.682 96.882,89.156 98.923,88.007 L145.011,63.420 Z"/>
<path fill-rule="evenodd"  fill="rgb(23, 204, 95)"
 d="M145.011,62.155 C147.150,61.005 148.163,59.012 147.970,57.129 C148.178,55.136 147.150,53.253 145.011,52.103 L98.923,27.434 C96.882,26.284 94.438,25.758 91.994,25.758 C89.549,25.758 87.092,26.284 85.050,27.434 L38.962,52.007 C36.823,53.156 35.907,55.149 36.004,57.032 C35.907,59.025 36.823,61.005 38.962,62.155 L85.050,86.741 C87.092,87.891 89.536,88.417 91.994,88.417 C94.438,88.417 96.882,87.891 98.923,86.741 L145.011,62.155 Z"/>
<path fill-rule="evenodd"  fill="rgb(23, 173, 83)"
 d="M145.011,58.420 C147.150,57.271 148.163,55.278 147.970,53.395 C148.178,51.402 147.150,49.518 145.011,48.369 L98.923,23.699 C96.882,22.550 94.438,22.024 91.994,22.024 C89.549,22.024 87.092,22.550 85.050,23.699 L38.962,48.273 C36.823,49.421 35.907,51.415 36.004,53.298 C35.907,55.291 36.823,57.271 38.962,58.420 L85.050,83.007 C87.092,84.156 89.536,84.682 91.994,84.682 C94.438,84.682 96.882,84.156 98.923,83.007 L145.011,58.420 Z"/>
<path fill-rule="evenodd"  fill="rgb(23, 204, 95)"
 d="M145.011,57.155 C147.150,56.005 148.163,54.012 147.970,52.129 C148.178,50.136 147.150,48.252 145.011,47.103 L98.923,22.433 C96.882,21.284 94.438,20.758 91.994,20.758 C89.549,20.758 87.092,21.284 85.050,22.433 L38.962,47.007 C36.823,48.156 35.907,50.150 36.004,52.032 C35.907,54.026 36.823,56.005 38.962,57.155 L85.050,81.741 C87.092,82.891 89.536,83.417 91.994,83.417 C94.438,83.417 96.882,82.891 98.923,81.741 L145.011,57.155 Z"/>
<path fill-rule="evenodd"  fill="rgb(23, 173, 83)"
 d="M145.011,53.420 C147.150,52.271 148.163,50.278 147.970,48.395 C148.178,46.402 147.150,44.519 145.011,43.369 L98.923,18.699 C96.882,17.550 94.438,17.024 91.994,17.024 C89.549,17.024 87.092,17.550 85.050,18.699 L38.962,43.273 C36.823,44.422 35.907,46.415 36.004,48.298 C35.907,50.291 36.823,52.271 38.962,53.420 L85.050,78.007 C87.092,79.156 89.536,79.682 91.994,79.682 C94.438,79.682 96.882,79.156 98.923,78.007 L145.011,53.420 Z"/>
<path fill-rule="evenodd"  fill="rgb(23, 204, 95)"
 d="M145.011,52.155 C147.150,51.005 148.163,49.012 147.970,47.129 C148.178,45.136 147.150,43.253 145.011,42.103 L98.923,17.433 C96.882,16.284 94.438,15.758 91.994,15.758 C89.549,15.758 87.092,16.284 85.050,17.433 L38.962,42.007 C36.823,43.156 35.907,45.149 36.004,47.032 C35.907,49.025 36.823,51.005 38.962,52.155 L85.050,76.741 C87.092,77.891 89.536,78.417 91.994,78.417 C94.438,78.417 96.882,77.891 98.923,76.741 L145.011,52.155 Z"/>
<path fill-rule="evenodd"  fill="rgb(23, 173, 83)"
 d="M145.011,48.420 C147.150,47.271 148.163,45.278 147.970,43.395 C148.178,41.402 147.150,39.518 145.011,38.369 L98.923,13.699 C96.882,12.550 94.438,12.024 91.994,12.024 C89.549,12.024 87.092,12.550 85.050,13.699 L38.962,38.273 C36.823,39.422 35.907,41.415 36.004,43.298 C35.907,45.291 36.823,47.271 38.962,48.420 L85.050,73.007 C87.092,74.156 89.536,74.682 91.994,74.682 C94.438,74.682 96.882,74.156 98.923,73.007 L145.011,48.420 Z"/>
<path fill-rule="evenodd"  fill="rgb(23, 204, 95)"
 d="M145.011,47.155 C147.150,46.005 148.163,44.012 147.970,42.129 C148.178,40.136 147.150,38.253 145.011,37.103 L98.923,12.434 C96.882,11.284 94.438,10.758 91.994,10.758 C89.549,10.758 87.092,11.284 85.050,12.434 L38.962,37.007 C36.823,38.156 35.907,40.149 36.004,42.032 C35.907,44.025 36.823,46.005 38.962,47.155 L85.050,71.741 C87.092,72.891 89.536,73.417 91.994,73.417 C94.438,73.417 96.882,72.891 98.923,71.741 L145.011,47.155 Z"/>
<path fill-rule="evenodd"  fill="rgb(23, 173, 83)"
 d="M145.011,43.420 C147.150,42.271 148.163,40.278 147.970,38.395 C148.178,36.402 147.150,34.519 145.011,33.369 L98.923,8.699 C96.882,7.550 94.438,7.024 91.994,7.024 C89.549,7.024 87.092,7.550 85.050,8.699 L38.962,33.273 C36.823,34.422 35.907,36.415 36.004,38.297 C35.907,40.291 36.823,42.271 38.962,43.420 L85.050,68.007 C87.092,69.157 89.536,69.682 91.994,69.682 C94.438,69.682 96.882,69.157 98.923,68.007 L145.011,43.420 Z"/>
<path fill-rule="evenodd"  fill="rgb(23, 204, 95)"
 d="M145.011,42.154 C147.150,41.006 148.163,39.012 147.970,37.129 C148.178,35.136 147.150,33.253 145.011,32.104 L98.923,7.434 C96.882,6.284 94.438,5.758 91.994,5.758 C89.549,5.758 87.092,6.284 85.050,7.434 L38.962,32.007 C36.823,33.156 35.907,35.149 36.004,37.032 C35.907,39.026 36.823,41.006 38.962,42.154 L85.050,66.742 C87.092,67.891 89.536,68.417 91.994,68.417 C94.438,68.417 96.882,67.891 98.923,66.742 L145.011,42.154 Z"/>
<path fill-rule="evenodd"  fill="rgb(23, 204, 95)"
 d="M145.011,38.420 C147.150,37.271 148.163,35.278 147.970,33.395 C148.178,31.402 147.150,29.518 145.011,28.369 L98.923,3.699 C96.882,2.550 94.438,2.024 91.994,2.024 C89.549,2.024 87.092,2.550 85.050,3.699 L38.962,28.273 C36.823,29.422 35.907,31.415 36.004,33.298 C35.907,35.291 36.823,37.271 38.962,38.420 L85.050,63.007 C87.092,64.156 89.536,64.682 91.994,64.682 C94.438,64.682 96.882,64.156 98.923,63.007 L145.011,38.420 Z"/>
<path fill-rule="evenodd"  fill="rgb(28, 227, 107)"
 d="M145.011,37.155 C147.150,36.005 148.163,34.012 147.970,32.129 C148.178,30.136 147.150,28.253 145.011,27.103 L98.923,2.433 C96.882,1.284 94.438,0.758 91.994,0.758 C89.549,0.758 87.092,1.284 85.050,2.433 L38.962,27.007 C36.823,28.156 35.907,30.149 36.004,32.032 C35.907,34.025 36.823,36.005 38.962,37.155 L85.050,61.741 C87.092,62.891 89.536,63.416 91.994,63.416 C94.438,63.416 96.882,62.891 98.923,61.741 L145.011,37.155 Z"/>
<path fill-rule="evenodd"  stroke="rgb(23, 204, 95)" stroke-width="1px" stroke-linecap="butt" stroke-linejoin="miter" fill="none"
 d="M139.336,37.118 C141.245,36.072 142.150,34.259 141.977,32.546 C142.163,30.733 141.245,29.020 139.336,27.974 L98.183,5.531 C96.361,4.486 94.179,4.007 91.997,4.007 C89.814,4.007 87.619,4.486 85.797,5.531 L44.644,27.886 C42.735,28.932 41.917,30.745 42.003,32.458 C41.917,34.271 42.735,36.072 44.644,37.118 L85.797,59.485 C87.619,60.531 89.801,61.009 91.997,61.009 C94.179,61.009 96.361,60.531 98.183,59.485 L139.336,37.118 Z"/>
<path fill-rule="evenodd"  stroke="rgb(23, 204, 95)" stroke-width="1px" stroke-linecap="butt" stroke-linejoin="miter" fill="rgb(127, 127, 127)"
 d="M133.686,36.051 C135.367,35.133 136.164,33.543 136.011,32.041 C136.175,30.450 135.367,28.947 133.686,28.030 L97.459,8.343 C95.855,7.426 93.933,7.006 92.012,7.006 C90.091,7.006 88.159,7.426 86.555,8.343 L50.328,27.953 C48.647,28.870 47.926,30.460 48.003,31.963 C47.926,33.553 48.647,35.133 50.328,36.051 L86.555,55.671 C88.159,56.588 90.080,57.008 92.012,57.008 C93.933,57.008 95.855,56.588 97.459,55.671 L133.686,36.051 Z"/>
<path fill-rule="evenodd"  stroke="rgb(99, 99, 99)" stroke-width="1px" stroke-linecap="butt" stroke-linejoin="miter" fill="none"
 d="M94.458,12.250 L92.853,11.540 L89.108,13.196 L96.598,13.196 L97.935,14.142 L86.433,14.142 L84.026,15.325 L101.145,15.325 L103.285,16.743 L81.619,16.743 L79.746,17.926 L106.227,17.926 L108.902,19.345 L76.537,19.345 L74.129,20.765 L112.111,20.765 L114.251,22.183 L71.186,22.183 L69.315,23.366 L117.728,23.603 L119.868,24.785 L65.570,25.022 L63.430,26.205 L123.345,26.441 L125.218,27.623 L60.487,27.860 L58.347,29.279 L128.101,29.279 L130.241,30.698 L54.603,30.698 L53.635,31.881 L131.520,32.354 L130.776,33.773 L55.138,33.773 L57.011,34.956 L126.823,35.429 L124.683,36.848 L61.290,36.848 L63.163,38.030 L122.008,38.030 L120.403,39.449 L66.639,39.449 L68.245,40.632 L116.123,40.869 L114.251,42.288 L71.989,42.288 L73.862,43.470 L110.774,43.470 L108.902,44.890 L77.339,45.126 L79.211,46.309 L104.622,46.545 L102.750,47.964 L83.759,47.964 L85.631,49.383 L99.272,49.147 L97.667,50.566 L89.643,50.802 L92.853,52.458 L94.725,51.748 "/>
<path fill-rule="evenodd"  opacity="0.302" fill="rgb(0, 0, 0)"
 d="M91.994,133.416 C94.438,133.416 96.882,132.891 98.923,131.742 L145.011,107.155 C147.150,106.006 148.163,104.012 147.970,102.129 C148.178,100.136 148.252,30.145 147.970,32.129 C148.163,35.088 147.138,36.850 144.999,37.999 L103.999,59.999 C101.958,61.148 94.022,64.288 92.999,63.999 C92.990,63.996 93.969,65.686 93.939,66.928 C93.924,67.533 92.908,68.268 92.889,69.119 C92.875,69.781 93.859,70.513 93.842,71.307 C93.827,72.040 92.811,72.825 92.794,73.658 C92.779,74.421 93.762,75.224 93.745,76.060 C93.730,76.874 92.712,77.722 92.696,78.597 C92.677,79.537 93.658,80.509 93.639,81.510 C93.623,82.301 92.607,83.111 92.592,83.935 C92.575,84.813 93.558,85.708 93.541,86.615 C93.530,87.189 92.519,87.767 92.508,88.351 C92.490,89.270 93.473,90.201 93.455,91.140 C93.439,91.990 92.422,92.846 92.406,93.707 C92.390,94.588 93.373,95.474 93.356,96.362 C93.340,97.256 92.323,98.151 92.307,99.046 C92.291,99.895 93.275,100.744 93.260,101.590 C93.245,102.337 92.231,103.080 92.218,103.821 C92.203,104.600 93.189,105.375 93.175,106.145 C93.158,107.033 92.143,107.912 92.127,108.782 C92.110,109.662 93.094,110.532 93.078,111.389 C93.064,112.185 92.049,112.969 92.036,113.740 C92.020,114.590 93.004,115.422 92.990,116.236 C92.975,117.050 91.960,117.844 91.946,118.615 C91.928,119.633 92.910,120.610 92.893,121.542 C92.880,122.280 91.867,122.990 91.854,123.667 C91.840,124.491 92.826,125.268 92.812,125.990 C92.798,126.744 91.786,127.439 91.775,128.068 C91.758,129.015 92.743,129.812 92.732,130.439 C92.714,131.467 91.704,132.033 91.704,132.033 C91.704,132.033 91.886,133.416 91.994,133.416 Z"/>
<path fill-rule="evenodd"  fill="rgb(255, 255, 255)"
 d="M185.558,26.061 C185.276,26.342 184.894,26.500 184.496,26.499 L178.499,26.499 L178.499,32.495 C178.499,33.325 177.833,33.999 176.999,33.999 C176.171,33.999 175.499,33.326 175.499,32.495 L175.499,26.499 L169.503,26.499 C168.673,26.499 167.999,25.833 167.999,24.999 C168.000,24.601 168.158,24.219 168.440,23.938 C168.723,23.656 169.105,23.499 169.503,23.499 L175.499,23.499 L175.499,17.503 C175.499,16.673 176.165,15.999 176.999,15.999 C177.398,16.000 177.779,16.158 178.061,16.440 C178.342,16.722 178.500,17.104 178.499,17.503 L178.499,23.499 L184.496,23.499 C185.326,23.499 185.999,24.165 185.999,24.999 C185.999,25.398 185.840,25.780 185.558,26.061 ZM168.440,44.938 C168.723,44.657 169.105,44.499 169.503,44.499 L175.499,44.499 L178.499,44.499 L184.496,44.499 C185.326,44.499 185.999,45.165 185.999,45.999 C185.999,46.397 185.840,46.780 185.558,47.061 C185.276,47.342 184.894,47.500 184.496,47.499 L178.499,47.499 L175.499,47.499 L169.503,47.499 C168.673,47.499 167.999,46.833 167.999,45.999 C168.000,45.601 168.158,45.219 168.440,44.938 Z"/>
</svg>
