<svg 
 xmlns="http://www.w3.org/2000/svg"
 xmlns:xlink="http://www.w3.org/1999/xlink"
 width="14px" height="14px">
<path fill-rule="evenodd"  fill="rgb(255, 255, 255)"
 d="M6.347,12.590 C6.765,12.590 7.103,12.904 7.103,13.290 C7.103,13.676 6.765,13.989 6.347,13.989 L1.511,13.989 C0.676,13.989 -0.002,13.363 -0.002,12.590 L-0.002,1.398 C-0.002,0.625 0.676,-0.001 1.511,-0.001 L11.345,-0.001 C12.180,-0.001 12.858,0.625 12.858,1.398 L12.858,5.195 C12.858,5.581 12.519,5.894 12.101,5.894 C11.683,5.894 11.345,5.581 11.345,5.195 L11.345,1.398 L1.511,1.398 L1.511,12.590 L6.347,12.590 ZM12.224,11.372 L13.770,12.724 C14.054,12.972 14.070,13.391 13.804,13.657 C13.539,13.924 13.094,13.939 12.809,13.690 L11.263,12.338 L9.822,13.788 C9.557,14.055 9.110,14.069 8.825,13.820 C8.541,13.571 8.525,13.153 8.791,12.887 L10.233,11.437 L8.687,10.085 C8.402,9.837 8.387,9.418 8.651,9.152 C8.917,8.885 9.363,8.870 9.648,9.119 L11.194,10.471 L12.635,9.021 C12.900,8.754 13.347,8.740 13.631,8.988 C13.916,9.237 13.931,9.655 13.665,9.922 L12.224,11.372 ZM3.652,5.838 C3.233,5.838 2.895,5.525 2.895,5.139 C2.895,4.752 3.233,4.439 3.652,4.439 L7.371,4.439 C7.789,4.439 8.128,4.752 8.128,5.139 C8.128,5.525 7.789,5.838 7.371,5.838 L3.652,5.838 ZM3.652,9.168 C3.233,9.168 2.895,8.855 2.895,8.469 C2.895,8.082 3.233,7.769 3.652,7.769 L5.654,7.769 C6.071,7.769 6.410,8.082 6.410,8.469 C6.410,8.855 6.071,9.168 5.654,9.168 L3.652,9.168 Z"/>
</svg>
