<svg 
 xmlns="http://www.w3.org/2000/svg"
 xmlns:xlink="http://www.w3.org/1999/xlink"
 width="14px" height="14px">
<path fill-rule="evenodd"  fill="rgb(255, 255, 255)"
 d="M12.496,9.858 L10.721,9.858 C10.487,9.858 10.271,9.723 10.153,9.506 C10.035,9.288 10.035,9.019 10.153,8.802 C10.271,8.584 10.487,8.449 10.721,8.450 L12.496,8.450 C12.596,8.450 12.686,8.349 12.686,8.215 L12.686,1.642 C12.686,1.507 12.596,1.407 12.496,1.407 L1.501,1.407 C1.400,1.407 1.311,1.507 1.311,1.642 L1.311,8.215 C1.311,8.349 1.400,8.450 1.501,8.450 L3.265,8.450 C3.628,8.450 3.922,8.765 3.922,9.154 C3.922,9.542 3.628,9.858 3.265,9.858 L1.501,9.858 C0.666,9.858 -0.001,9.117 -0.001,8.215 L-0.001,1.642 C-0.001,0.740 0.666,-0.001 1.501,-0.001 L12.496,-0.001 C13.331,-0.001 13.998,0.740 13.998,1.642 L13.998,8.215 C13.998,9.117 13.331,9.858 12.496,9.858 ZM4.846,10.690 C5.038,10.635 5.242,10.697 5.380,10.849 L6.342,11.881 L6.342,4.694 C6.342,4.224 6.561,3.990 6.999,3.990 C7.436,3.990 7.655,4.224 7.655,4.694 L7.655,11.763 L8.534,10.819 C8.764,10.573 9.136,10.573 9.367,10.819 C9.597,11.066 9.597,11.466 9.367,11.712 L7.607,13.601 C7.563,13.648 7.512,13.687 7.458,13.718 C7.369,13.872 7.220,13.974 7.053,13.995 C6.886,14.016 6.719,13.954 6.601,13.826 L4.603,11.684 C4.461,11.535 4.404,11.316 4.455,11.110 C4.505,10.905 4.655,10.744 4.846,10.690 Z"/>
</svg>
