<svg 
 xmlns="http://www.w3.org/2000/svg"
 xmlns:xlink="http://www.w3.org/1999/xlink"
 width="20px" height="20px">
<path fill-rule="evenodd"  fill="rgb(253, 38, 90)"
 d="M9.998,-0.002 C15.519,-0.002 19.998,4.476 19.998,9.998 C19.998,15.521 15.519,19.998 9.998,19.998 C4.474,19.998 -0.003,15.521 -0.003,9.998 C-0.003,4.476 4.474,-0.002 9.998,-0.002 Z"/>
<path fill-rule="evenodd"  fill="rgb(255, 255, 255)"
 d="M11.552,15.537 C11.326,15.784 11.064,15.933 10.773,15.990 C10.682,15.996 10.591,15.999 10.496,15.999 C10.400,15.999 10.310,15.996 10.217,15.990 C9.924,15.933 9.665,15.782 9.438,15.537 C9.144,15.214 8.998,14.828 8.998,14.369 C8.998,13.916 9.144,13.522 9.438,13.194 C9.733,12.865 10.088,12.700 10.496,12.700 C10.903,12.700 11.257,12.865 11.552,13.194 C11.847,13.522 11.994,13.916 11.994,14.369 C11.996,14.826 11.849,15.216 11.552,15.537 L11.552,15.537 ZM11.213,11.701 L9.805,11.701 C9.634,9.382 8.999,6.195 8.999,5.760 C8.999,5.263 9.138,4.845 9.418,4.509 C9.702,4.169 10.059,3.999 10.498,3.999 C10.935,3.999 11.294,4.166 11.577,4.501 C11.857,4.837 11.996,5.256 11.996,5.760 C11.996,6.195 11.410,9.382 11.213,11.701 L11.213,11.701 Z"/>
</svg>
