<svg 
 xmlns="http://www.w3.org/2000/svg"
 xmlns:xlink="http://www.w3.org/1999/xlink"
 width="14px" height="14px">
<path fill-rule="evenodd"  fill="rgb(255, 255, 255)"
 d="M3.302,-0.001 C4.215,-0.001 5.039,0.369 5.638,0.967 L5.658,0.989 C6.265,1.605 6.606,2.436 6.605,3.302 L6.605,6.242 C6.605,6.443 6.442,6.606 6.240,6.606 L3.303,6.606 C2.427,6.607 1.586,6.259 0.968,5.638 L0.968,5.637 L0.967,5.638 C0.346,5.019 -0.002,4.178 -0.001,3.302 C-0.001,2.391 0.369,1.564 0.967,0.967 C1.586,0.346 2.426,-0.002 3.302,-0.001 L3.302,-0.001 ZM5.122,1.481 C4.639,0.999 3.985,0.728 3.302,0.728 C2.619,0.727 1.963,0.998 1.481,1.481 C0.997,1.964 0.727,2.619 0.728,3.302 C0.728,4.014 1.015,4.657 1.481,5.123 L1.481,5.124 C1.964,5.607 2.620,5.878 3.303,5.876 L5.877,5.876 L5.877,3.302 C5.877,2.600 5.597,1.963 5.142,1.499 L5.123,1.481 L5.122,1.481 ZM9.329,7.758 C9.329,7.557 9.493,7.394 9.694,7.394 L10.696,7.394 C11.609,7.394 12.433,7.763 13.032,8.361 L13.052,8.382 C13.660,9.000 14.000,9.831 13.999,10.696 C14.000,11.573 13.652,12.412 13.032,13.031 C12.413,13.651 11.572,14.000 10.696,13.999 C9.820,14.000 8.980,13.652 8.362,13.032 C7.740,12.414 7.392,11.573 7.393,10.696 L7.393,7.756 C7.406,7.564 7.564,7.414 7.757,7.414 C7.949,7.414 8.109,7.564 8.121,7.756 L8.121,10.696 C8.121,11.407 8.409,12.051 8.875,12.516 C9.357,13.000 10.013,13.272 10.696,13.271 C11.378,13.271 12.034,13.000 12.516,12.517 C13.000,12.035 13.270,11.380 13.270,10.696 C13.272,10.022 13.008,9.374 12.535,8.893 L12.517,8.875 C12.034,8.392 11.379,8.121 10.696,8.122 L9.694,8.122 C9.598,8.122 9.505,8.084 9.436,8.015 C9.368,7.947 9.329,7.854 9.329,7.758 L9.329,7.758 ZM3.302,13.271 C3.985,13.271 4.639,13.000 5.122,12.517 C5.606,12.034 5.876,11.380 5.876,10.696 L5.876,8.122 L3.303,8.122 C2.620,8.121 1.964,8.392 1.481,8.875 C0.998,9.358 0.727,10.014 0.728,10.696 C0.728,11.407 1.015,12.051 1.481,12.516 L1.499,12.535 C1.981,13.008 2.628,13.272 3.303,13.271 L3.302,13.271 ZM5.636,13.032 C5.018,13.653 4.178,14.000 3.302,13.999 C2.436,14.000 1.605,13.660 0.988,13.052 L0.967,13.032 C0.346,12.413 -0.002,11.573 -0.001,10.696 C-0.001,9.785 0.369,8.958 0.967,8.361 C1.586,7.740 2.426,7.392 3.302,7.394 L6.240,7.394 C6.442,7.394 6.605,7.556 6.605,7.758 L6.605,10.696 C6.606,11.573 6.258,12.412 5.638,13.031 L5.636,13.032 L5.636,13.032 ZM10.695,0.728 C10.012,0.727 9.357,0.997 8.875,1.481 C8.391,1.963 8.120,2.618 8.121,3.301 L8.121,5.876 L10.695,5.876 C11.378,5.876 12.033,5.605 12.516,5.122 C12.999,4.640 13.270,3.984 13.269,3.301 C13.270,2.619 13.000,1.964 12.517,1.481 L12.516,1.481 C12.034,0.998 11.378,0.726 10.695,0.728 L10.695,0.728 ZM8.360,0.965 C8.979,0.346 9.819,-0.002 10.695,-0.001 C11.608,-0.001 12.433,0.369 13.030,0.967 L13.030,0.967 L13.030,0.969 C13.651,1.587 14.000,2.426 13.999,3.302 C14.000,4.178 13.652,5.018 13.032,5.637 L13.029,5.638 C12.411,6.258 11.571,6.606 10.696,6.605 L7.757,6.605 C7.556,6.605 7.393,6.442 7.393,6.241 L7.393,3.302 C7.393,2.391 7.763,1.564 8.361,0.967 L8.360,0.965 Z"/>
</svg>
