<svg 
 xmlns="http://www.w3.org/2000/svg"
 xmlns:xlink="http://www.w3.org/1999/xlink"
 width="11px" height="14px">
<path fill-rule="evenodd"  fill="rgb(23, 204, 95)"
 d="M4.950,0.207 C5.096,0.058 5.298,-0.017 5.482,0.002 C5.666,0.002 5.867,0.058 6.015,0.207 L10.791,5.053 C11.067,5.332 11.067,5.799 10.791,6.078 C10.516,6.358 10.057,6.358 9.781,6.078 L6.161,2.406 L6.161,13.272 C6.161,13.663 5.850,13.999 5.445,13.999 C5.041,13.999 4.729,13.682 4.729,13.272 L4.729,2.481 L1.184,6.078 C0.909,6.358 0.449,6.358 0.174,6.078 C-0.103,5.799 -0.103,5.332 0.174,5.053 L4.950,0.207 Z"/>
</svg>
