<svg 
 xmlns="http://www.w3.org/2000/svg"
 xmlns:xlink="http://www.w3.org/1999/xlink"
 width="18px" height="14px">
<path fill-rule="evenodd"  fill="rgb(255, 255, 255)"
 d="M13.498,11.998 L12.674,11.998 C12.343,11.998 12.074,11.742 12.074,11.426 C12.074,11.110 12.343,10.855 12.674,10.855 L13.498,10.855 C15.317,10.855 16.798,9.445 16.798,7.712 C16.806,6.164 15.622,4.842 14.015,4.607 L13.657,4.554 L13.540,4.229 C12.874,2.381 11.050,1.141 8.998,1.142 C6.946,1.142 5.122,2.382 4.456,4.229 L4.340,4.554 L3.982,4.607 C2.375,4.842 1.190,6.164 1.198,7.712 C1.201,9.447 2.677,10.853 4.498,10.855 L5.214,10.855 C5.545,10.855 5.814,11.110 5.814,11.426 C5.814,11.742 5.545,11.998 5.214,11.998 L4.498,11.998 C2.017,11.998 -0.001,10.075 -0.001,7.712 C-0.012,5.728 1.418,4.000 3.445,3.545 C4.370,1.400 6.564,-0.001 8.998,-0.001 C11.434,-0.001 13.628,1.400 14.552,3.545 C16.580,4.000 18.009,5.728 17.998,7.712 C17.998,10.075 15.980,11.998 13.498,11.998 ZM6.024,8.407 C6.075,8.220 6.220,8.075 6.407,8.025 C6.593,7.975 6.792,8.028 6.928,8.165 L9.002,10.239 L11.076,8.165 C11.213,8.028 11.412,7.975 11.598,8.025 C11.785,8.075 11.930,8.220 11.980,8.407 C12.030,8.593 11.976,8.792 11.841,8.928 L9.766,11.003 L11.841,13.077 C11.976,13.214 12.030,13.412 11.980,13.599 C11.930,13.785 11.785,13.931 11.598,13.981 C11.412,14.031 11.213,13.977 11.076,13.841 L9.002,11.767 L6.928,13.841 C6.792,13.977 6.593,14.031 6.407,13.981 C6.220,13.931 6.075,13.785 6.024,13.599 C5.975,13.412 6.028,13.214 6.164,13.077 L8.238,11.003 L6.164,8.928 C6.028,8.792 5.975,8.593 6.024,8.407 Z"/>
</svg>
