<svg 
 xmlns="http://www.w3.org/2000/svg"
 xmlns:xlink="http://www.w3.org/1999/xlink"
 width="10px" height="14px">
<path fill-rule="evenodd"  fill="rgb(255, 255, 255)"
 d="M9.998,11.351 L9.998,12.726 C9.998,13.429 9.438,13.999 8.748,13.999 L1.249,13.999 C0.916,13.999 0.597,13.864 0.364,13.626 C0.130,13.386 -0.003,13.062 -0.001,12.726 L-0.001,11.352 C-0.001,10.423 0.398,9.541 1.090,8.936 L3.309,6.999 L1.090,5.063 C0.394,4.452 -0.003,3.571 -0.001,2.646 L-0.001,1.271 C-0.001,0.568 0.559,-0.001 1.249,-0.001 L8.748,-0.001 C9.438,-0.001 9.998,0.568 9.998,1.271 L9.998,2.646 C9.998,3.576 9.600,4.458 8.907,5.063 L6.688,6.999 L8.907,8.935 C9.603,9.546 10.000,10.426 9.998,11.351 ZM8.748,11.352 C8.749,10.797 8.510,10.268 8.093,9.902 L5.875,7.965 C5.596,7.721 5.437,7.369 5.438,6.999 C5.438,6.627 5.597,6.274 5.875,6.032 L8.093,4.096 C8.510,3.730 8.749,3.201 8.748,2.646 L8.748,1.271 L1.249,1.271 L1.249,2.646 C1.248,3.201 1.487,3.729 1.904,4.096 L4.122,6.032 C4.400,6.276 4.560,6.629 4.559,6.999 C4.559,7.370 4.399,7.723 4.122,7.965 L1.904,9.902 C1.487,10.268 1.248,10.797 1.249,11.352 L1.249,12.726 L8.748,12.726 L8.748,11.352 ZM4.514,10.142 C4.637,10.048 4.808,9.995 4.986,9.995 C5.165,9.995 5.335,10.048 5.458,10.142 L6.791,11.148 C6.981,11.293 7.038,11.509 6.934,11.697 C6.832,11.885 6.589,12.008 6.318,12.008 L3.653,12.008 C3.383,12.008 3.140,11.885 3.037,11.697 C2.933,11.509 2.989,11.296 3.181,11.148 L4.514,10.142 Z"/>
</svg>
