<svg 
 xmlns="http://www.w3.org/2000/svg"
 xmlns:xlink="http://www.w3.org/1999/xlink"
 width="14px" height="14px">
<path fill-rule="evenodd"  fill="rgb(255, 255, 255)"
 d="M6.995,13.999 C3.130,13.999 -0.005,10.864 -0.005,6.998 C-0.005,3.133 3.130,-0.001 6.995,-0.001 C10.861,-0.001 13.996,3.133 13.996,6.998 C13.996,10.864 10.861,13.999 6.995,13.999 ZM11.240,2.756 C10.688,2.205 10.046,1.772 9.332,1.471 C8.593,1.156 7.807,0.999 6.995,0.999 C6.185,0.999 5.400,1.156 4.660,1.471 C3.946,1.772 3.303,2.205 2.752,2.756 C2.201,3.308 1.768,3.950 1.467,4.664 C1.152,5.403 0.993,6.189 0.993,7.000 C0.993,7.811 1.154,8.597 1.467,9.336 C1.768,10.050 2.201,10.692 2.752,11.244 C3.303,11.796 3.946,12.228 4.660,12.530 C5.400,12.844 6.185,13.002 6.995,13.002 C7.807,13.002 8.593,12.842 9.332,12.530 C10.046,12.228 10.688,11.796 11.240,11.244 C11.791,10.692 12.224,10.050 12.526,9.336 C12.840,8.597 12.997,7.811 12.997,7.000 C12.997,6.189 12.838,5.403 12.526,4.664 C12.224,3.950 11.791,3.308 11.240,2.756 ZM9.996,7.999 L3.995,7.999 C3.446,7.999 2.996,7.549 2.996,6.998 C2.996,6.449 3.446,5.999 3.995,5.999 L9.996,5.999 C10.546,5.999 10.996,6.449 10.996,6.998 C10.996,7.549 10.546,7.999 9.996,7.999 Z"/>
</svg>
