<svg 
 xmlns="http://www.w3.org/2000/svg"
 xmlns:xlink="http://www.w3.org/1999/xlink"
 width="12px" height="12px">
<path fill-rule="evenodd"  fill="rgb(51, 51, 51)"
 d="M11.874,1.500 C11.910,1.583 11.940,1.679 11.963,1.788 C11.986,1.898 11.997,2.012 11.997,2.131 C11.997,2.250 11.975,2.369 11.929,2.488 C11.883,2.606 11.811,2.721 11.711,2.830 C11.601,2.940 11.504,3.036 11.417,3.118 C11.330,3.201 11.255,3.274 11.192,3.338 C11.119,3.411 11.051,3.475 10.987,3.530 L8.435,0.966 C8.544,0.865 8.674,0.744 8.824,0.602 C8.973,0.461 9.099,0.349 9.199,0.266 C9.326,0.166 9.459,0.095 9.595,0.054 C9.731,0.013 9.865,-0.006 9.997,-0.001 C10.129,0.004 10.256,0.024 10.380,0.061 C10.502,0.097 10.609,0.138 10.700,0.184 C10.891,0.285 11.103,0.461 11.335,0.712 C11.567,0.963 11.747,1.226 11.874,1.500 L11.874,1.500 ZM1.241,8.191 C1.296,8.137 1.424,8.007 1.624,7.801 C1.824,7.595 2.075,7.342 2.375,7.040 L7.411,1.980 L9.963,4.558 L7.028,7.506 L5.936,8.617 C5.573,8.973 5.246,9.300 4.954,9.597 C4.663,9.894 4.421,10.138 4.231,10.330 C4.040,10.523 3.926,10.632 3.890,10.660 C3.799,10.742 3.694,10.828 3.576,10.920 C3.457,11.012 3.335,11.084 3.207,11.140 C3.080,11.203 2.894,11.281 2.647,11.373 C2.402,11.464 2.145,11.553 1.878,11.640 C1.608,11.727 1.353,11.802 1.112,11.866 C0.871,11.930 0.692,11.971 0.573,11.990 C0.328,12.017 0.163,11.981 0.082,11.880 C-0.001,11.779 -0.023,11.610 0.013,11.373 C0.032,11.245 0.075,11.060 0.144,10.818 C0.212,10.575 0.284,10.324 0.362,10.063 C0.439,9.803 0.514,9.563 0.587,9.343 C0.659,9.124 0.719,8.973 0.764,8.891 C0.819,8.763 0.879,8.646 0.948,8.541 C1.017,8.436 1.114,8.320 1.241,8.191 L1.241,8.191 Z"/>
</svg>
