<svg 
 xmlns="http://www.w3.org/2000/svg"
 xmlns:xlink="http://www.w3.org/1999/xlink"
 width="10px" height="6px">
<path fill-rule="evenodd"  fill="rgb(51, 51, 51)"
 d="M8.254,0.300 C8.453,0.100 8.691,-0.001 8.971,-0.001 C9.252,-0.001 9.490,0.100 9.689,0.300 C9.894,0.501 9.997,0.741 9.997,1.020 C9.997,1.300 9.894,1.540 9.689,1.741 L5.715,5.740 C5.630,5.840 5.524,5.910 5.395,5.949 C5.267,5.989 5.134,6.005 4.991,5.998 C4.850,5.991 4.710,5.960 4.572,5.907 C4.434,5.853 4.315,5.776 4.216,5.675 L0.306,1.741 C0.100,1.540 -0.003,1.300 -0.003,1.020 C-0.003,0.741 0.100,0.501 0.306,0.300 C0.405,0.200 0.516,0.125 0.640,0.074 C0.763,0.024 0.892,-0.001 1.022,-0.001 C1.153,-0.001 1.283,0.024 1.411,0.074 C1.538,0.125 1.651,0.200 1.750,0.300 L5.003,3.547 L8.254,0.300 Z"/>
</svg>
