<svg 
 xmlns="http://www.w3.org/2000/svg"
 xmlns:xlink="http://www.w3.org/1999/xlink"
 width="13px" height="6px">
<path fill-rule="evenodd"  fill="rgb(51, 51, 51)"
 d="M11.836,4.258 C11.734,4.353 11.595,4.407 11.450,4.407 C11.305,4.408 11.165,4.355 11.062,4.262 L9.649,2.970 C9.385,3.135 9.105,3.283 8.811,3.411 L9.673,5.100 C9.798,5.351 9.679,5.648 9.405,5.764 C9.274,5.821 9.124,5.828 8.987,5.783 C8.850,5.738 8.739,5.645 8.677,5.525 L7.779,3.763 C7.391,3.862 6.994,3.928 6.594,3.961 L6.594,5.501 C6.592,5.776 6.346,5.999 6.044,5.999 C5.738,5.999 5.494,5.775 5.494,5.501 L5.494,3.973 C5.029,3.944 4.577,3.872 4.142,3.761 L3.243,5.525 C3.181,5.645 3.070,5.738 2.933,5.783 C2.795,5.828 2.646,5.821 2.515,5.764 C2.240,5.648 2.121,5.351 2.246,5.100 L3.109,3.408 C2.834,3.290 2.584,3.134 2.334,2.980 L0.932,4.262 C0.829,4.356 0.689,4.408 0.545,4.407 C0.399,4.407 0.259,4.353 0.158,4.258 C-0.056,4.064 -0.057,3.748 0.153,3.551 L1.486,2.333 C1.390,2.245 1.279,2.174 1.190,2.080 C0.797,1.665 0.489,1.189 0.281,0.674 C0.176,0.413 0.323,0.125 0.608,0.029 C0.894,-0.066 1.208,0.067 1.313,0.328 C1.477,0.730 1.718,1.102 2.025,1.425 C2.934,2.394 4.382,2.982 5.963,2.982 C7.545,2.982 8.993,2.394 9.902,1.425 C10.210,1.102 10.450,0.730 10.614,0.328 C10.718,0.067 11.034,-0.066 11.319,0.029 C11.604,0.125 11.751,0.413 11.646,0.674 C11.437,1.189 11.129,1.665 10.736,2.080 C10.659,2.163 10.577,2.243 10.495,2.321 L11.840,3.551 C12.051,3.748 12.048,4.064 11.836,4.258 Z"/>
</svg>
