<svg 
 xmlns="http://www.w3.org/2000/svg"
 xmlns:xlink="http://www.w3.org/1999/xlink"
 width="12px" height="12px">
<path fill-rule="evenodd"  fill="rgb(255, 255, 255)"
 d="M0.750,12.000 L11.247,12.000 C11.658,12.000 11.998,11.668 11.998,11.249 C11.998,10.839 11.667,10.498 11.247,10.498 L0.750,10.498 C0.340,10.498 -0.002,10.829 -0.002,11.249 C-0.002,11.668 0.340,12.000 0.750,12.000 L0.750,12.000 ZM0.750,6.751 L9.003,6.751 C9.413,6.751 9.755,6.420 9.755,6.000 C9.755,5.581 9.423,5.249 9.003,5.249 L0.750,5.249 C0.340,5.249 -0.002,5.581 -0.002,6.000 C-0.002,6.410 0.340,6.751 0.750,6.751 L0.750,6.751 ZM0.750,1.502 L5.999,1.502 C6.408,1.502 6.750,1.171 6.750,0.751 C6.750,0.342 6.418,0.000 5.999,0.000 L0.750,0.000 C0.340,0.000 -0.002,0.332 -0.002,0.751 C-0.002,1.161 0.340,1.493 0.750,1.502 L0.750,1.502 Z"/>
</svg>
