<svg 
 xmlns="http://www.w3.org/2000/svg"
 xmlns:xlink="http://www.w3.org/1999/xlink"
 width="14px" height="14px">
<path fill-rule="evenodd"  fill="rgb(51, 51, 51)"
 d="M13.784,13.782 C13.645,13.926 13.462,13.998 13.278,13.998 C13.093,13.998 12.911,13.926 12.769,13.782 L11.277,12.250 C10.078,13.324 8.529,13.998 6.816,13.998 C3.054,13.998 -0.005,10.857 -0.005,6.998 C-0.005,3.137 3.054,-0.002 6.816,-0.002 C10.578,-0.002 13.637,3.137 13.637,6.998 C13.637,8.569 13.112,10.005 12.258,11.174 L13.784,12.741 C14.065,13.029 14.065,13.494 13.784,13.782 ZM6.816,1.471 C3.846,1.471 1.431,3.950 1.431,6.998 C1.431,10.045 3.846,12.524 6.816,12.524 C9.785,12.524 12.200,10.045 12.200,6.998 C12.200,3.950 9.785,1.471 6.816,1.471 Z"/>
</svg>
