<svg 
 xmlns="http://www.w3.org/2000/svg"
 xmlns:xlink="http://www.w3.org/1999/xlink"
 width="12px" height="7px">
<path fill-rule="evenodd"  fill="rgb(51, 51, 51)"
 d="M11.951,3.643 C11.936,3.689 11.936,3.738 11.908,3.779 C10.453,5.825 8.300,6.999 5.996,6.999 C3.693,6.999 1.540,5.825 0.086,3.779 C0.057,3.738 0.057,3.689 0.042,3.643 C0.031,3.608 0.015,3.583 0.012,3.547 C-0.000,3.432 0.016,3.317 0.086,3.218 C1.540,1.172 3.693,-0.001 5.996,-0.001 C8.300,-0.001 10.453,1.172 11.908,3.218 C11.977,3.316 11.993,3.432 11.981,3.547 C11.978,3.583 11.962,3.609 11.951,3.643 ZM10.736,3.312 C10.660,3.222 10.585,3.132 10.506,3.047 C10.409,2.942 10.309,2.842 10.207,2.744 C10.126,2.667 10.046,2.588 9.962,2.515 C9.855,2.422 9.744,2.336 9.633,2.250 C9.548,2.185 9.463,2.118 9.376,2.057 C9.259,1.976 9.139,1.904 9.018,1.832 C8.930,1.779 8.843,1.723 8.753,1.675 C8.626,1.607 8.496,1.550 8.366,1.492 C8.277,1.452 8.189,1.408 8.098,1.372 C7.960,1.319 7.819,1.277 7.678,1.234 C7.591,1.207 7.505,1.175 7.416,1.152 C7.260,1.113 7.101,1.087 6.941,1.060 C6.865,1.047 6.791,1.028 6.714,1.018 C6.477,0.988 6.238,0.972 5.996,0.972 C5.755,0.972 5.516,0.988 5.279,1.018 C5.202,1.028 5.126,1.047 5.050,1.060 C4.891,1.087 4.732,1.113 4.577,1.152 C4.488,1.175 4.401,1.208 4.313,1.235 C4.173,1.278 4.033,1.319 3.896,1.372 C3.804,1.408 3.715,1.453 3.625,1.493 C3.496,1.551 3.367,1.608 3.241,1.675 C3.150,1.723 3.062,1.780 2.973,1.833 C2.853,1.905 2.734,1.976 2.618,2.056 C2.529,2.118 2.444,2.186 2.357,2.253 C2.248,2.337 2.139,2.422 2.033,2.513 C1.947,2.589 1.864,2.669 1.781,2.750 C1.683,2.845 1.585,2.941 1.491,3.043 C1.408,3.132 1.329,3.227 1.249,3.322 C1.199,3.382 1.152,3.444 1.103,3.506 C2.359,5.111 4.126,6.025 5.996,6.025 C7.866,6.025 9.633,5.111 10.890,3.507 C10.839,3.441 10.788,3.375 10.736,3.312 ZM5.996,5.319 C4.986,5.319 4.165,4.502 4.165,3.498 C4.165,2.495 4.986,1.679 5.996,1.679 C7.007,1.679 7.828,2.495 7.828,3.498 C7.828,4.502 7.007,5.319 5.996,5.319 Z"/>
</svg>
