<svg 
 xmlns="http://www.w3.org/2000/svg"
 xmlns:xlink="http://www.w3.org/1999/xlink"
 width="14px" height="14px">
<path fill-rule="evenodd"  fill="rgb(255, 255, 255)"
 d="M11.664,-0.001 C12.986,-0.001 13.997,1.010 13.997,2.332 L13.997,11.665 C13.997,12.988 12.986,13.999 11.664,13.999 L2.331,13.999 C1.009,13.999 -0.002,12.988 -0.002,11.665 L-0.002,2.332 C-0.002,1.010 1.009,-0.001 2.331,-0.001 L11.664,-0.001 ZM11.997,0.999 L1.997,0.999 C1.531,0.999 0.997,1.532 0.997,1.999 L0.997,11.999 C0.997,12.466 1.531,12.999 1.997,12.999 L11.997,12.999 C12.464,12.999 12.997,12.466 12.997,11.999 L12.997,1.999 C12.997,1.532 12.464,0.999 11.997,0.999 L11.997,0.999 ZM10.109,7.777 C10.419,7.777 10.730,8.010 10.730,8.399 C10.730,8.710 10.497,8.943 10.264,8.943 L5.286,8.943 L6.219,9.877 C6.452,10.110 6.452,10.421 6.296,10.655 L6.219,10.732 C5.986,10.966 5.675,10.966 5.441,10.810 L5.441,10.732 L3.498,8.788 C3.108,8.399 3.342,7.854 3.809,7.777 L10.109,7.777 ZM8.475,3.188 L10.497,5.210 C10.808,5.521 10.652,6.143 10.186,6.221 L3.885,6.221 C3.574,6.221 3.264,5.988 3.264,5.599 C3.264,5.288 3.498,5.055 3.730,5.055 L8.630,5.055 L7.775,4.121 C7.541,3.888 7.541,3.577 7.697,3.343 L7.775,3.266 C7.931,3.110 8.320,3.032 8.475,3.188 L8.475,3.188 Z"/>
</svg>
