<svg 
 xmlns="http://www.w3.org/2000/svg"
 xmlns:xlink="http://www.w3.org/1999/xlink"
 width="15px" height="14px">
<path fill-rule="evenodd"  fill="rgb(51, 51, 51)"
 d="M12.311,5.465 C12.035,5.465 11.793,5.690 11.793,5.966 L11.793,12.453 C11.793,12.729 11.566,12.947 11.290,12.947 L4.315,12.947 C4.040,12.947 3.810,12.728 3.810,12.453 L3.810,5.944 C3.810,5.667 3.608,5.443 3.333,5.443 C3.058,5.443 2.857,5.667 2.857,5.944 L2.857,12.451 C2.857,13.279 3.491,13.998 4.315,13.998 L11.293,13.998 C12.116,13.998 12.830,13.277 12.830,12.451 L12.830,5.964 C12.828,5.690 12.587,5.465 12.311,5.465 L12.311,5.465 ZM6.767,10.453 L6.767,5.952 C6.767,5.676 6.564,5.452 6.289,5.452 C6.015,5.452 5.812,5.674 5.812,5.952 L5.812,10.453 C5.812,10.729 6.015,10.953 6.289,10.953 C6.564,10.953 6.767,10.729 6.767,10.453 L6.767,10.453 ZM9.790,10.453 L9.790,5.952 C9.790,5.676 9.549,5.452 9.273,5.452 C8.998,5.452 8.756,5.674 8.756,5.952 L8.756,10.453 C8.756,10.729 8.998,10.953 9.273,10.953 C9.549,10.953 9.790,10.729 9.790,10.453 L9.790,10.453 ZM14.780,2.999 L11.790,2.999 L11.793,1.451 C11.793,0.624 11.122,-0.002 10.305,-0.002 L5.311,-0.002 C4.488,-0.002 3.810,0.624 3.810,1.451 L3.818,2.999 L0.829,2.999 C0.552,2.999 0.826,2.675 0.826,2.951 C0.826,3.227 0.552,3.999 0.829,3.999 L14.780,3.999 C15.055,3.999 15.052,2.928 14.778,2.951 C14.010,3.016 14.780,2.999 14.780,2.999 ZM10.793,2.999 L4.815,2.999 L4.777,1.451 C4.777,1.175 5.037,0.955 5.311,0.955 L10.305,0.955 C10.578,0.955 10.759,1.171 10.759,1.451 L10.759,2.473 L10.793,2.999 Z"/>
</svg>
