<svg 
 xmlns="http://www.w3.org/2000/svg"
 xmlns:xlink="http://www.w3.org/1999/xlink"
 width="14px" height="14px">
<path fill-rule="evenodd"  fill="rgb(51, 51, 51)"
 d="M7.794,0.290 C7.365,-0.097 6.713,-0.097 6.285,0.290 L0.181,6.083 C-0.047,6.294 -0.064,6.650 0.147,6.879 C0.353,7.104 0.704,7.123 0.935,6.919 L1.031,6.827 L1.031,12.873 C1.031,13.494 1.534,14.000 2.155,14.000 L5.434,14.000 L5.434,10.611 C5.434,10.174 5.787,9.819 6.225,9.817 L7.768,9.817 C8.206,9.817 8.561,10.172 8.561,10.609 L8.561,14.000 L11.915,14.000 C12.536,14.000 13.041,13.495 13.041,12.874 L13.041,6.902 C13.291,7.128 13.646,7.111 13.854,6.879 C14.061,6.648 14.043,6.292 13.813,6.083 L7.794,0.290 Z"/>
</svg>
