<svg 
 xmlns="http://www.w3.org/2000/svg"
 xmlns:xlink="http://www.w3.org/1999/xlink"
 width="13px" height="14px">
<path fill-rule="evenodd"  fill="rgb(40, 154, 218)"
 d="M3.670,14.000 C2.678,12.049 3.200,10.927 3.983,9.902 C4.819,8.732 5.028,7.610 5.028,7.610 C5.028,7.610 5.706,8.390 5.445,9.658 C6.593,8.439 6.802,6.488 6.645,5.756 C9.256,7.463 10.404,11.219 8.891,13.951 C16.930,9.658 10.875,3.268 9.831,2.585 C10.195,3.317 10.248,4.537 9.517,5.122 C8.317,0.829 5.341,-0.000 5.341,-0.000 C5.706,2.195 4.088,4.585 2.521,6.390 C2.470,5.512 2.418,4.927 1.895,4.049 C1.790,5.658 0.485,6.927 0.120,8.536 C-0.350,10.732 0.485,12.293 3.670,14.000 L3.670,14.000 Z"/>
</svg>
