<svg 
 xmlns="http://www.w3.org/2000/svg"
 xmlns:xlink="http://www.w3.org/1999/xlink"
 width="62px" height="62px">
<path fill-rule="evenodd"  fill="rgb(90, 90, 95)"
 d="M13.196,44.987 C13.506,45.149 13.855,45.235 14.204,45.235 C15.026,45.235 15.772,44.781 16.151,44.050 C18.669,39.172 24.630,36.374 31.338,36.374 C38.200,36.374 44.286,39.212 46.483,43.964 C46.840,44.736 47.621,45.234 48.471,45.234 C48.788,45.234 49.094,45.167 49.391,45.032 C50.484,44.525 50.963,43.222 50.457,42.126 C47.559,35.855 39.875,31.958 31.338,31.958 C23.011,31.958 15.523,35.723 12.260,42.040 C11.707,43.111 12.129,44.434 13.196,44.987 L13.196,44.987 ZM9.702,24.925 C11.148,26.799 12.982,28.123 15.864,28.123 C18.746,28.123 20.564,26.802 22.020,24.933 C22.779,23.959 22.644,22.638 21.503,21.869 C21.100,21.598 20.627,21.499 20.132,21.499 C19.388,21.499 18.683,21.790 18.246,22.352 C17.770,22.964 17.183,23.707 15.864,23.707 C14.537,23.707 13.955,22.967 13.486,22.358 C13.048,21.792 12.340,21.499 11.593,21.499 C11.099,21.499 10.626,21.597 10.224,21.870 C9.182,22.578 8.947,23.949 9.702,24.925 L9.702,24.925 ZM40.612,24.925 C42.059,26.799 43.892,28.123 46.774,28.123 C49.657,28.123 51.475,26.802 52.931,24.933 C53.690,23.959 53.555,22.638 52.414,21.869 C52.011,21.598 51.538,21.499 51.044,21.499 C50.299,21.499 49.594,21.790 49.157,22.352 C48.681,22.964 48.093,23.707 46.774,23.707 C45.448,23.707 44.866,22.967 44.397,22.358 C43.959,21.792 43.251,21.499 42.504,21.499 C42.010,21.499 41.537,21.597 41.135,21.870 C40.092,22.578 39.858,23.949 40.612,24.925 L40.612,24.925 ZM30.998,-0.000 C13.878,-0.000 -0.001,13.879 -0.001,30.999 C-0.001,48.120 13.878,62.000 30.998,62.000 C48.120,62.000 61.999,48.120 61.999,30.999 C61.999,13.879 48.120,-0.000 30.998,-0.000 L30.998,-0.000 ZM49.788,49.788 C44.769,54.807 38.096,57.571 30.998,57.571 C23.901,57.571 17.229,54.807 12.210,49.788 C7.191,44.770 4.428,38.097 4.428,30.999 C4.428,23.902 7.191,17.229 12.210,12.211 C17.229,7.192 23.901,4.428 30.998,4.428 C38.096,4.428 44.769,7.192 49.788,12.211 C54.806,17.229 57.570,23.902 57.570,30.999 C57.570,38.097 54.806,44.770 49.788,49.788 L49.788,49.788 Z"/>
</svg>
