<svg 
 xmlns="http://www.w3.org/2000/svg"
 xmlns:xlink="http://www.w3.org/1999/xlink"
 width="11px" height="14px">
<path fill-rule="evenodd"  fill="rgb(210, 210, 218)"
 d="M5.499,11.343 C2.462,11.343 -0.001,8.804 -0.001,5.671 C-0.001,2.539 2.462,-0.000 5.499,-0.000 C8.536,-0.000 10.999,2.537 10.999,5.671 C10.999,8.804 8.536,11.343 5.499,11.343 ZM3.201,1.789 C2.843,1.789 2.553,2.087 2.553,2.457 C2.553,2.826 2.843,3.125 3.201,3.125 C3.560,3.125 3.849,2.826 3.849,2.457 C3.849,2.087 3.560,1.789 3.201,1.789 ZM5.499,3.299 C4.230,3.299 3.198,4.360 3.198,5.671 C3.198,6.980 4.227,8.043 5.499,8.043 C6.768,8.043 7.799,6.980 7.799,5.671 C7.799,4.362 6.770,3.299 5.499,3.299 ZM1.440,10.771 C2.444,11.908 3.887,12.624 5.497,12.624 C7.136,12.624 8.603,11.880 9.609,10.709 L10.645,13.166 C10.835,13.612 10.464,14.000 9.813,14.000 L1.262,14.000 C0.611,14.000 0.241,13.612 0.429,13.166 L1.440,10.771 Z"/>
</svg>
