<svg 
 xmlns="http://www.w3.org/2000/svg"
 xmlns:xlink="http://www.w3.org/1999/xlink"
 width="12px" height="12px">
<path fill-rule="evenodd"  fill="rgb(210, 210, 218)"
 d="M7.711,6.000 L11.478,2.232 C11.951,1.760 11.951,0.993 11.478,0.521 C11.005,0.048 10.239,0.048 9.766,0.521 L5.999,4.288 L2.232,0.521 C1.760,0.048 0.993,0.048 0.520,0.521 C0.047,0.993 0.047,1.760 0.520,2.232 L4.287,6.000 L0.520,9.767 C0.047,10.240 0.047,11.006 0.520,11.479 C0.747,11.706 1.055,11.834 1.376,11.833 C1.697,11.834 2.005,11.706 2.231,11.479 L5.999,7.711 L9.766,11.479 C9.993,11.706 10.301,11.834 10.622,11.833 C10.943,11.834 11.251,11.706 11.478,11.479 C11.951,11.006 11.951,10.240 11.478,9.767 L7.711,6.000 Z"/>
</svg>
