<svg 
 xmlns="http://www.w3.org/2000/svg"
 xmlns:xlink="http://www.w3.org/1999/xlink"
 width="12px" height="12px">
<path fill-rule="evenodd"  fill="rgb(136, 136, 144)"
 d="M7.710,5.999 L11.477,2.232 C11.950,1.759 11.950,0.993 11.477,0.520 C11.004,0.047 10.238,0.047 9.766,0.520 L5.999,4.287 L2.231,0.520 C1.759,0.047 0.992,0.047 0.519,0.520 C0.046,0.993 0.046,1.759 0.519,2.232 L4.286,5.999 L0.519,9.766 C0.046,10.239 0.046,11.005 0.519,11.478 C0.746,11.706 1.054,11.833 1.375,11.833 C1.696,11.833 2.004,11.706 2.230,11.478 L5.999,7.711 L9.766,11.478 C9.993,11.706 10.300,11.833 10.622,11.833 C10.942,11.833 11.250,11.706 11.477,11.478 C11.950,11.005 11.950,10.239 11.477,9.766 L7.710,5.999 Z"/>
</svg>
