<svg 
 xmlns="http://www.w3.org/2000/svg"
 xmlns:xlink="http://www.w3.org/1999/xlink"
 width="14px" height="14px">
<path fill-rule="evenodd"  fill="rgb(210, 210, 218)"
 d="M13.832,8.262 C14.229,6.675 13.792,5.639 13.792,5.639 L12.275,5.565 C12.141,5.088 11.946,4.639 11.699,4.223 L12.723,3.060 C11.882,1.658 10.840,1.234 10.840,1.234 L9.713,2.256 C9.292,2.012 8.838,1.822 8.357,1.694 L8.261,0.167 C6.674,-0.230 5.638,0.206 5.638,0.206 L5.565,1.675 C5.091,1.794 4.641,1.970 4.224,2.201 L3.157,1.234 C3.157,1.234 2.115,1.658 1.275,3.060 C1.542,3.364 2.068,3.713 2.099,4.159 C2.107,4.270 1.593,5.571 1.571,5.572 L0.205,5.639 C0.205,5.639 -0.232,6.675 0.165,8.262 L1.519,8.348 C1.646,8.886 1.852,9.393 2.124,9.859 L1.232,10.842 C1.232,10.842 1.656,11.883 3.059,12.725 L4.075,11.830 C4.535,12.105 5.038,12.315 5.572,12.449 L5.638,13.794 C5.638,13.794 6.674,14.231 8.261,13.834 L8.350,12.430 C8.891,12.286 9.398,12.065 9.861,11.776 L10.938,12.725 C12.341,11.883 12.765,10.842 12.765,10.842 L11.783,9.759 C12.025,9.325 12.207,8.854 12.326,8.358 L13.832,8.262 ZM6.999,10.261 C5.197,10.261 3.737,8.801 3.737,7.000 C3.737,5.199 5.197,3.739 6.999,3.739 C8.800,3.739 10.260,5.199 10.260,7.000 C10.260,8.801 8.800,10.261 6.999,10.261 L6.999,10.261 Z"/>
</svg>
