<svg 
 xmlns="http://www.w3.org/2000/svg"
 xmlns:xlink="http://www.w3.org/1999/xlink"
 width="14px" height="14px">
<path fill-rule="evenodd"  fill="rgb(163, 164, 168)"
 d="M4.974,0.000 L12.710,0.000 C13.423,0.000 14.000,0.577 14.000,1.289 L14.000,9.026 C14.000,9.738 13.423,10.316 12.710,10.316 L4.974,10.316 C4.261,10.316 3.684,9.738 3.684,9.026 L3.684,1.289 C3.684,0.577 4.261,0.000 4.974,0.000 L4.974,0.000 ZM4.974,1.105 C4.872,1.105 4.789,1.188 4.789,1.289 L4.789,9.026 C4.789,9.128 4.872,9.211 4.974,9.211 L12.710,9.211 C12.812,9.211 12.895,9.128 12.895,9.026 L12.895,1.289 C12.895,1.188 12.812,1.105 12.710,1.105 L4.974,1.105 ZM9.210,11.421 C9.210,11.116 9.458,10.868 9.763,10.868 C10.068,10.868 10.316,11.116 10.316,11.421 L10.316,12.710 C10.316,13.423 9.738,14.000 9.026,14.000 L1.289,14.000 C0.577,14.000 -0.000,13.423 -0.000,12.710 L-0.000,4.974 C-0.000,4.262 0.577,3.684 1.289,3.684 L2.579,3.684 C2.884,3.684 3.132,3.932 3.132,4.237 C3.132,4.542 2.884,4.789 2.579,4.789 L1.289,4.789 C1.188,4.789 1.105,4.872 1.105,4.974 L1.105,12.710 C1.105,12.812 1.188,12.895 1.289,12.895 L9.026,12.895 C9.128,12.895 9.210,12.812 9.210,12.710 L9.210,11.421 Z"/>
</svg>
