<svg 
 xmlns="http://www.w3.org/2000/svg"
 xmlns:xlink="http://www.w3.org/1999/xlink"
 width="14px" height="14px">
<path fill-rule="evenodd"  fill="rgb(255, 255, 255)"
 d="M13.500,1.867 C13.776,1.867 14.000,2.076 14.000,2.333 C14.000,2.591 13.776,2.800 13.500,2.800 L12.000,2.800 L12.000,12.133 C12.000,13.164 11.105,14.000 10.000,14.000 L4.000,14.000 C2.895,14.000 2.000,13.164 2.000,12.133 L2.000,2.800 L0.500,2.800 C0.224,2.800 0.000,2.591 0.000,2.333 C0.000,2.076 0.224,1.867 0.500,1.867 L13.500,1.867 ZM11.000,2.800 L3.000,2.800 L3.000,12.133 C3.000,12.607 3.380,13.005 3.883,13.060 L4.000,13.067 L10.000,13.067 C10.507,13.067 10.934,12.712 10.993,12.243 L11.000,12.133 L11.000,2.800 ZM5.500,5.133 C5.776,5.133 6.000,5.342 6.000,5.600 L6.000,10.267 C6.000,10.524 5.776,10.733 5.500,10.733 C5.224,10.733 5.000,10.524 5.000,10.267 L5.000,5.600 C5.000,5.342 5.224,5.133 5.500,5.133 L5.500,5.133 ZM8.500,5.133 C8.776,5.133 9.000,5.342 9.000,5.600 L9.000,10.267 C9.000,10.524 8.776,10.733 8.500,10.733 C8.224,10.733 8.000,10.524 8.000,10.267 L8.000,5.600 C8.000,5.342 8.224,5.133 8.500,5.133 L8.500,5.133 ZM9.500,-0.000 C9.776,-0.000 10.000,0.209 10.000,0.467 C10.000,0.724 9.776,0.933 9.500,0.933 L4.500,0.933 C4.224,0.933 4.000,0.724 4.000,0.467 C4.000,0.209 4.224,-0.000 4.500,-0.000 L9.500,-0.000 Z"/>
</svg>
