<svg 
 xmlns="http://www.w3.org/2000/svg"
 xmlns:xlink="http://www.w3.org/1999/xlink"
 width="10px" height="6px">
<path fill-rule="evenodd"  fill="rgb(210, 210, 218)"
 d="M8.257,0.301 C8.454,0.100 8.694,0.000 8.974,0.000 C9.253,0.000 9.492,0.100 9.691,0.301 C9.896,0.502 9.999,0.742 9.999,1.021 C9.999,1.301 9.896,1.541 9.691,1.742 L5.716,5.741 C5.631,5.841 5.525,5.911 5.397,5.950 C5.270,5.990 5.135,6.006 4.994,5.999 C4.852,5.991 4.712,5.961 4.574,5.907 C4.436,5.854 4.317,5.777 4.218,5.676 L0.308,1.742 C0.102,1.541 -0.001,1.301 -0.001,1.021 C-0.001,0.742 0.102,0.502 0.308,0.301 C0.406,0.201 0.518,0.126 0.642,0.075 C0.766,0.025 0.893,0.000 1.025,0.000 C1.155,0.000 1.286,0.025 1.412,0.075 C1.540,0.126 1.654,0.201 1.753,0.301 L5.004,3.548 L8.257,0.301 Z"/>
</svg>
