<svg 
 xmlns="http://www.w3.org/2000/svg"
 xmlns:xlink="http://www.w3.org/1999/xlink"
 width="14px" height="14px">
<path fill-rule="evenodd"  fill="rgb(23, 204, 95)"
 d="M4.991,14.000 C2.239,13.991 -0.000,11.628 -0.000,8.721 C-0.000,7.798 0.452,6.616 1.258,5.201 C1.577,4.641 1.954,4.045 2.365,3.442 C2.868,2.700 3.397,1.984 3.951,1.277 C4.169,1.000 4.395,0.716 4.622,0.448 L4.672,0.388 L5.000,-0.000 L5.327,0.388 L5.377,0.448 C5.419,0.500 5.469,0.561 5.528,0.630 C5.687,0.819 5.864,1.044 6.048,1.285 C6.602,1.984 7.130,2.708 7.634,3.450 C8.045,4.054 8.422,4.649 8.741,5.210 C9.547,6.625 9.999,7.806 9.999,8.729 C9.999,11.636 7.759,14.000 4.991,14.000 ZM8.028,5.658 C7.718,5.115 7.357,4.546 6.962,3.959 C6.443,3.243 5.922,2.536 5.385,1.846 C5.260,1.691 5.142,1.535 5.017,1.380 C4.899,1.527 4.773,1.682 4.639,1.846 C4.102,2.536 3.582,3.243 3.087,3.959 C2.684,4.546 2.323,5.115 2.021,5.658 C1.292,6.944 0.888,8.005 0.888,8.721 C0.888,11.136 2.743,13.085 5.025,13.085 C7.307,13.085 9.161,11.136 9.161,8.721 C9.161,8.005 8.758,6.944 8.028,5.658 ZM5.008,12.421 C3.078,12.421 1.518,10.808 1.510,8.816 C1.510,6.556 3.389,6.159 5.075,7.668 C6.761,8.652 8.498,6.823 8.498,8.816 C8.506,10.808 6.946,12.421 5.008,12.421 Z"/>
<path fill-rule="evenodd"  fill="rgb(55, 55, 59)"
 d="M13.000,-0.000 C13.552,-0.000 13.999,0.448 13.999,1.000 L13.999,13.000 C13.999,13.552 13.552,14.000 13.000,14.000 C12.448,14.000 12.000,13.552 12.000,13.000 L12.000,1.000 C12.000,0.448 12.448,-0.000 13.000,-0.000 Z"/>
<path fill-rule="evenodd"  fill="rgb(23, 204, 95)"
 d="M12.000,6.000 L13.999,6.000 L13.999,14.000 L12.000,14.000 L12.000,6.000 Z"/>
</svg>
