<svg 
 xmlns="http://www.w3.org/2000/svg"
 xmlns:xlink="http://www.w3.org/1999/xlink"
 width="16px" height="16px">
<path fill-rule="evenodd"  fill="rgb(51, 51, 51)"
 d="M15.198,14.353 L0.798,14.353 C0.356,14.353 -0.001,14.721 -0.001,15.176 C-0.001,15.631 0.356,15.999 0.798,15.999 L15.198,15.999 C15.639,15.999 15.998,15.631 15.998,15.176 C15.998,14.721 15.639,14.353 15.198,14.353 L15.198,14.353 ZM2.798,12.706 L5.129,12.706 C5.555,12.706 5.962,12.531 6.262,12.221 L14.262,3.989 C14.563,3.680 14.731,3.261 14.731,2.824 C14.731,2.387 14.563,1.968 14.262,1.659 L13.146,0.482 C12.846,0.173 12.439,-0.001 12.015,-0.001 C11.589,-0.001 11.182,0.173 10.882,0.482 L2.882,8.714 C2.572,9.025 2.397,9.451 2.398,9.895 L2.398,12.295 C2.398,12.404 2.440,12.509 2.515,12.586 C2.590,12.663 2.692,12.706 2.798,12.706 L2.798,12.706 Z"/>
</svg>
