<svg 
 xmlns="http://www.w3.org/2000/svg"
 xmlns:xlink="http://www.w3.org/1999/xlink"
 width="16px" height="16px">
<path fill-rule="evenodd"  fill="rgb(153, 153, 153)"
 d="M15.198,14.353 L0.799,14.353 C0.357,14.353 -0.001,14.722 -0.001,15.177 C-0.001,15.631 0.357,16.000 0.799,16.000 L15.198,16.000 C15.640,16.000 15.999,15.631 15.999,15.177 C15.999,14.722 15.640,14.353 15.198,14.353 L15.198,14.353 ZM2.798,12.707 L5.131,12.707 C5.556,12.706 5.963,12.531 6.263,12.221 L14.263,3.989 C14.563,3.681 14.732,3.261 14.732,2.825 C14.732,2.388 14.563,1.969 14.263,1.660 L13.147,0.483 C12.846,0.173 12.439,-0.000 12.014,-0.000 C11.590,-0.000 11.183,0.173 10.883,0.483 L2.882,8.714 C2.572,9.025 2.398,9.451 2.398,9.896 L2.398,12.295 C2.398,12.404 2.441,12.509 2.516,12.586 C2.590,12.664 2.693,12.707 2.798,12.707 L2.798,12.707 Z"/>
</svg>
