<svg 
 xmlns="http://www.w3.org/2000/svg"
 xmlns:xlink="http://www.w3.org/1999/xlink"
 width="16px" height="16px">
<path fill-rule="evenodd"  fill="rgb(255, 255, 255)"
 d="M15.199,14.353 L0.800,14.353 C0.358,14.353 -0.000,14.722 -0.000,15.177 C-0.000,15.631 0.358,16.000 0.800,16.000 L15.199,16.000 C15.641,16.000 16.000,15.631 16.000,15.177 C16.000,14.722 15.641,14.353 15.199,14.353 L15.199,14.353 ZM2.800,12.707 L5.131,12.707 C5.557,12.706 5.964,12.532 6.264,12.221 L14.264,3.989 C14.564,3.681 14.733,3.262 14.733,2.825 C14.733,2.388 14.564,1.969 14.264,1.660 L13.147,0.483 C12.847,0.174 12.440,-0.000 12.015,-0.000 C11.591,-0.000 11.184,0.174 10.884,0.483 L2.883,8.715 C2.574,9.025 2.399,9.451 2.399,9.896 L2.399,12.295 C2.399,12.405 2.442,12.509 2.517,12.587 C2.591,12.664 2.694,12.707 2.800,12.707 L2.800,12.707 Z"/>
</svg>
