<svg 
 xmlns="http://www.w3.org/2000/svg"
 xmlns:xlink="http://www.w3.org/1999/xlink"
 width="14px" height="14px">
<path fill-rule="evenodd"  fill="rgb(219, 219, 224)"
 d="M13.545,9.557 C13.575,9.816 13.610,10.108 13.651,10.432 C13.690,10.756 13.727,11.088 13.762,11.427 C13.797,11.766 13.835,12.103 13.874,12.437 C13.914,12.771 13.949,13.073 13.980,13.342 C14.039,13.811 13.835,14.031 13.366,14.001 C13.116,13.981 12.834,13.953 12.521,13.918 C12.206,13.884 11.885,13.846 11.555,13.806 C11.226,13.766 10.900,13.727 10.575,13.687 C10.251,13.647 9.954,13.612 9.685,13.582 C9.396,13.552 9.211,13.470 9.131,13.335 C9.052,13.200 9.097,13.048 9.266,12.879 C9.376,12.779 9.511,12.642 9.670,12.467 C9.829,12.292 9.964,12.150 10.074,12.041 C10.184,11.921 10.219,11.811 10.179,11.712 C10.139,11.612 10.059,11.497 9.940,11.367 C9.660,11.098 9.406,10.854 9.176,10.634 C8.947,10.415 8.693,10.160 8.413,9.871 C8.354,9.811 8.294,9.746 8.234,9.677 C8.174,9.607 8.129,9.529 8.099,9.445 C8.069,9.360 8.065,9.270 8.084,9.175 C8.104,9.080 8.169,8.978 8.278,8.868 C8.339,8.809 8.389,8.756 8.428,8.711 C8.468,8.667 8.508,8.627 8.548,8.592 C8.588,8.557 8.631,8.517 8.676,8.472 C8.720,8.427 8.778,8.365 8.847,8.285 C9.047,8.085 9.231,8.001 9.401,8.031 C9.571,8.061 9.755,8.175 9.954,8.375 C10.154,8.574 10.359,8.776 10.568,8.981 C10.777,9.185 11.012,9.417 11.271,9.677 C11.461,9.856 11.623,9.981 11.757,10.051 C11.892,10.120 12.024,10.091 12.154,9.961 C12.244,9.871 12.356,9.764 12.491,9.639 C12.625,9.514 12.742,9.402 12.842,9.302 C13.012,9.133 13.164,9.068 13.298,9.108 C13.433,9.148 13.516,9.297 13.545,9.557 L13.545,9.557 ZM0.498,4.469 C0.468,4.210 0.433,3.918 0.393,3.594 C0.353,3.270 0.317,2.938 0.281,2.599 C0.246,2.260 0.209,1.923 0.169,1.589 C0.130,1.255 0.094,0.953 0.064,0.684 C0.035,0.425 0.066,0.245 0.161,0.145 C0.256,0.045 0.423,0.006 0.663,0.026 C0.912,0.045 1.194,0.073 1.508,0.108 C1.823,0.143 2.144,0.180 2.474,0.220 C2.803,0.260 3.129,0.300 3.453,0.340 C3.777,0.380 4.075,0.415 4.343,0.445 C4.643,0.474 4.830,0.557 4.904,0.691 C4.980,0.826 4.932,0.978 4.762,1.148 C4.662,1.248 4.541,1.377 4.396,1.537 C4.251,1.696 4.124,1.831 4.014,1.941 C3.895,2.060 3.855,2.170 3.895,2.270 C3.935,2.370 4.019,2.484 4.149,2.614 C4.279,2.754 4.401,2.876 4.516,2.981 C4.630,3.086 4.743,3.190 4.852,3.295 C4.962,3.400 5.077,3.512 5.197,3.632 L5.571,4.006 C5.630,4.066 5.688,4.135 5.742,4.215 C5.797,4.295 5.837,4.380 5.862,4.469 C5.887,4.559 5.884,4.654 5.855,4.754 C5.825,4.854 5.760,4.953 5.660,5.053 L5.496,5.218 C5.456,5.258 5.418,5.297 5.384,5.337 C5.349,5.377 5.306,5.417 5.256,5.457 L5.091,5.637 C4.892,5.836 4.720,5.911 4.575,5.861 C4.431,5.811 4.259,5.687 4.059,5.487 C3.860,5.287 3.670,5.101 3.490,4.926 C3.311,4.751 3.092,4.534 2.832,4.275 C2.653,4.095 2.493,3.971 2.354,3.901 C2.214,3.831 2.079,3.861 1.949,3.991 C1.860,4.090 1.735,4.213 1.575,4.357 C1.416,4.502 1.286,4.624 1.186,4.724 C1.017,4.893 0.867,4.958 0.738,4.918 C0.608,4.878 0.528,4.729 0.498,4.469 L0.498,4.469 ZM13.336,0.011 C13.595,-0.019 13.775,0.013 13.874,0.108 C13.975,0.203 14.014,0.375 13.994,0.624 C13.975,0.874 13.947,1.155 13.912,1.469 C13.877,1.784 13.840,2.105 13.800,2.435 C13.760,2.764 13.720,3.090 13.680,3.415 C13.640,3.739 13.606,4.036 13.575,4.305 C13.545,4.594 13.463,4.779 13.329,4.858 C13.194,4.938 13.042,4.889 12.872,4.709 C12.772,4.609 12.643,4.487 12.483,4.342 C12.323,4.198 12.189,4.070 12.079,3.961 C11.960,3.851 11.849,3.814 11.750,3.849 C11.650,3.883 11.536,3.966 11.406,4.095 C11.136,4.365 10.900,4.609 10.695,4.829 C10.490,5.048 10.249,5.297 9.969,5.577 C9.910,5.637 9.840,5.694 9.760,5.749 C9.680,5.804 9.595,5.844 9.505,5.869 C9.416,5.893 9.321,5.891 9.221,5.861 C9.121,5.831 9.022,5.761 8.922,5.652 C8.863,5.592 8.810,5.542 8.765,5.502 C8.720,5.462 8.678,5.422 8.638,5.382 C8.598,5.342 8.555,5.302 8.510,5.263 C8.465,5.223 8.408,5.163 8.339,5.083 C8.139,4.884 8.059,4.709 8.099,4.559 C8.139,4.410 8.264,4.235 8.473,4.036 L9.042,3.437 C9.231,3.238 9.455,3.008 9.715,2.749 C9.905,2.569 10.035,2.410 10.104,2.270 C10.174,2.130 10.139,2.001 9.999,1.881 C9.910,1.791 9.795,1.669 9.655,1.514 C9.516,1.360 9.396,1.233 9.296,1.133 C9.126,0.963 9.062,0.814 9.102,0.684 C9.142,0.554 9.291,0.474 9.550,0.445 C9.810,0.415 10.101,0.380 10.426,0.340 C10.750,0.300 11.084,0.262 11.428,0.228 C11.773,0.193 12.109,0.155 12.438,0.115 C12.767,0.076 13.066,0.041 13.336,0.011 L13.336,0.011 ZM5.062,8.285 C5.122,8.345 5.174,8.395 5.219,8.435 C5.264,8.475 5.306,8.514 5.346,8.554 L5.465,8.689 L5.645,8.854 C5.845,9.053 5.932,9.235 5.907,9.400 C5.882,9.564 5.765,9.751 5.555,9.961 C5.366,10.150 5.167,10.352 4.957,10.567 C4.747,10.781 4.513,11.018 4.254,11.277 C4.075,11.457 3.962,11.604 3.917,11.719 C3.872,11.834 3.914,11.956 4.044,12.086 C4.144,12.175 4.257,12.288 4.381,12.422 C4.506,12.557 4.618,12.674 4.717,12.774 C4.887,12.944 4.949,13.093 4.904,13.223 C4.860,13.352 4.707,13.432 4.449,13.462 C4.189,13.492 3.900,13.527 3.580,13.567 C3.261,13.607 2.929,13.647 2.586,13.687 C2.242,13.727 1.902,13.766 1.568,13.806 C1.234,13.846 0.932,13.881 0.663,13.911 C0.414,13.931 0.236,13.894 0.132,13.799 C0.027,13.704 -0.015,13.537 0.004,13.298 C0.024,13.048 0.052,12.766 0.087,12.452 C0.122,12.138 0.159,11.816 0.199,11.487 C0.239,11.158 0.279,10.831 0.319,10.507 C0.359,10.183 0.393,9.886 0.423,9.617 C0.454,9.317 0.535,9.130 0.670,9.056 C0.805,8.981 0.957,9.028 1.127,9.198 C1.226,9.297 1.364,9.427 1.538,9.587 C1.712,9.746 1.855,9.881 1.965,9.991 C2.084,10.111 2.184,10.163 2.264,10.148 C2.344,10.133 2.443,10.061 2.563,9.931 C2.692,9.801 2.817,9.674 2.937,9.549 C3.057,9.425 3.177,9.302 3.296,9.183 C3.416,9.063 3.538,8.938 3.663,8.809 C3.788,8.679 3.919,8.544 4.059,8.405 C4.119,8.345 4.184,8.285 4.254,8.225 C4.324,8.165 4.401,8.120 4.486,8.091 C4.570,8.061 4.660,8.058 4.755,8.083 C4.850,8.108 4.952,8.175 5.062,8.285 L5.062,8.285 Z"/>
</svg>
