<svg 
 xmlns="http://www.w3.org/2000/svg"
 xmlns:xlink="http://www.w3.org/1999/xlink"
 width="14px" height="14px">
<path fill-rule="evenodd"  fill="rgb(145, 145, 152)"
 d="M13.545,9.557 C13.574,9.816 13.609,10.108 13.649,10.432 C13.689,10.756 13.726,11.088 13.761,11.427 C13.796,11.766 13.834,12.103 13.874,12.437 C13.913,12.771 13.949,13.073 13.979,13.342 C14.038,13.811 13.834,14.030 13.365,14.000 C13.115,13.981 12.834,13.953 12.520,13.918 C12.205,13.883 11.884,13.846 11.554,13.806 C11.225,13.766 10.899,13.726 10.575,13.686 C10.250,13.647 9.953,13.612 9.684,13.582 C9.395,13.552 9.210,13.470 9.130,13.335 C9.051,13.200 9.096,13.048 9.265,12.878 C9.375,12.778 9.509,12.641 9.669,12.467 C9.829,12.292 9.963,12.150 10.074,12.041 C10.183,11.921 10.218,11.811 10.178,11.711 C10.138,11.612 10.058,11.497 9.939,11.367 C9.659,11.098 9.405,10.853 9.176,10.634 C8.946,10.414 8.692,10.160 8.412,9.871 C8.352,9.811 8.293,9.746 8.233,9.676 C8.173,9.606 8.128,9.529 8.099,9.444 C8.068,9.360 8.064,9.270 8.084,9.175 C8.104,9.080 8.168,8.978 8.277,8.868 C8.337,8.808 8.388,8.756 8.427,8.711 C8.467,8.666 8.507,8.627 8.547,8.591 C8.587,8.557 8.629,8.517 8.674,8.472 C8.719,8.427 8.777,8.365 8.847,8.285 C9.046,8.085 9.231,8.001 9.401,8.030 C9.570,8.060 9.754,8.175 9.953,8.375 C10.153,8.574 10.358,8.776 10.567,8.981 C10.777,9.185 11.011,9.417 11.270,9.676 C11.460,9.856 11.621,9.981 11.757,10.050 C11.892,10.120 12.023,10.090 12.153,9.961 C12.243,9.871 12.355,9.763 12.490,9.639 C12.624,9.514 12.741,9.402 12.841,9.302 C13.011,9.133 13.163,9.068 13.297,9.108 C13.432,9.148 13.515,9.297 13.545,9.557 L13.545,9.557 ZM0.498,4.469 C0.467,4.210 0.433,3.918 0.393,3.594 C0.352,3.270 0.316,2.938 0.280,2.599 C0.245,2.260 0.208,1.923 0.168,1.589 C0.129,1.255 0.093,0.953 0.063,0.684 C0.034,0.424 0.066,0.245 0.161,0.145 C0.255,0.045 0.423,0.005 0.662,0.025 C0.912,0.045 1.193,0.073 1.507,0.108 C1.822,0.142 2.144,0.180 2.473,0.220 C2.801,0.260 3.129,0.300 3.453,0.339 C3.777,0.379 4.074,0.414 4.343,0.444 C4.642,0.474 4.829,0.557 4.903,0.691 C4.979,0.826 4.931,0.978 4.762,1.147 C4.661,1.247 4.540,1.377 4.395,1.537 C4.250,1.696 4.123,1.831 4.014,1.941 C3.894,2.060 3.854,2.170 3.894,2.270 C3.934,2.370 4.019,2.484 4.149,2.614 C4.278,2.754 4.400,2.876 4.515,2.980 C4.629,3.085 4.742,3.190 4.851,3.295 C4.961,3.400 5.076,3.512 5.196,3.631 L5.570,4.005 C5.629,4.065 5.688,4.135 5.741,4.215 C5.796,4.295 5.837,4.379 5.861,4.469 C5.887,4.559 5.884,4.654 5.854,4.753 C5.824,4.853 5.759,4.953 5.660,5.053 L5.495,5.218 C5.455,5.257 5.417,5.297 5.383,5.337 C5.348,5.377 5.305,5.417 5.255,5.457 L5.091,5.636 C4.891,5.836 4.720,5.911 4.574,5.861 C4.430,5.811 4.258,5.686 4.058,5.487 C3.859,5.287 3.669,5.100 3.489,4.926 C3.311,4.751 3.091,4.534 2.831,4.275 C2.652,4.095 2.492,3.971 2.353,3.901 C2.213,3.831 2.079,3.861 1.949,3.990 C1.859,4.090 1.734,4.212 1.575,4.357 C1.416,4.502 1.285,4.624 1.185,4.724 C1.015,4.893 0.867,4.958 0.737,4.918 C0.607,4.878 0.527,4.729 0.498,4.469 L0.498,4.469 ZM13.335,0.010 C13.595,-0.020 13.775,0.013 13.874,0.108 C13.973,0.202 14.013,0.374 13.993,0.624 C13.973,0.873 13.946,1.155 13.911,1.469 C13.877,1.783 13.839,2.105 13.799,2.434 C13.759,2.764 13.719,3.090 13.679,3.415 C13.639,3.739 13.605,4.035 13.574,4.305 C13.545,4.594 13.462,4.778 13.327,4.858 C13.193,4.938 13.041,4.888 12.871,4.709 C12.771,4.609 12.642,4.487 12.482,4.342 C12.322,4.198 12.188,4.070 12.078,3.961 C11.959,3.851 11.849,3.813 11.749,3.848 C11.649,3.883 11.535,3.965 11.405,4.095 C11.136,4.365 10.899,4.609 10.694,4.828 C10.490,5.048 10.248,5.297 9.969,5.576 C9.909,5.636 9.839,5.694 9.759,5.748 C9.679,5.804 9.594,5.843 9.504,5.868 C9.415,5.893 9.320,5.891 9.221,5.861 C9.121,5.831 9.021,5.761 8.921,5.651 C8.862,5.592 8.808,5.542 8.764,5.501 C8.719,5.462 8.677,5.422 8.637,5.382 C8.597,5.342 8.555,5.302 8.510,5.262 C8.464,5.222 8.408,5.162 8.337,5.083 C8.138,4.883 8.058,4.709 8.099,4.559 C8.138,4.409 8.263,4.235 8.473,4.035 L9.041,3.437 C9.231,3.238 9.454,3.008 9.714,2.749 C9.904,2.569 10.034,2.409 10.103,2.270 C10.173,2.130 10.138,2.000 9.998,1.881 C9.909,1.791 9.794,1.669 9.655,1.514 C9.515,1.359 9.395,1.232 9.295,1.133 C9.126,0.963 9.061,0.813 9.101,0.684 C9.141,0.554 9.290,0.474 9.549,0.444 C9.809,0.414 10.100,0.379 10.425,0.339 C10.749,0.300 11.083,0.262 11.428,0.227 C11.772,0.193 12.107,0.155 12.437,0.115 C12.766,0.075 13.065,0.040 13.335,0.010 L13.335,0.010 ZM5.061,8.285 C5.121,8.345 5.174,8.395 5.218,8.434 C5.263,8.474 5.305,8.514 5.345,8.554 L5.464,8.689 L5.644,8.853 C5.843,9.053 5.931,9.235 5.906,9.399 C5.881,9.564 5.764,9.751 5.554,9.961 C5.366,10.150 5.166,10.352 4.956,10.567 C4.747,10.781 4.512,11.018 4.252,11.277 C4.074,11.457 3.961,11.604 3.917,11.719 C3.872,11.833 3.913,11.955 4.043,12.085 C4.143,12.175 4.255,12.287 4.380,12.422 C4.505,12.557 4.618,12.674 4.717,12.774 C4.886,12.943 4.948,13.093 4.903,13.223 C4.859,13.352 4.706,13.432 4.448,13.462 C4.188,13.492 3.899,13.527 3.579,13.567 C3.261,13.607 2.929,13.647 2.585,13.686 C2.241,13.726 1.901,13.766 1.568,13.806 C1.233,13.846 0.931,13.881 0.662,13.911 C0.413,13.931 0.235,13.893 0.131,13.799 C0.026,13.704 -0.016,13.537 0.003,13.297 C0.024,13.048 0.051,12.766 0.086,12.452 C0.121,12.138 0.158,11.816 0.198,11.487 C0.238,11.158 0.279,10.831 0.318,10.507 C0.358,10.183 0.393,9.886 0.423,9.617 C0.452,9.317 0.535,9.130 0.670,9.055 C0.804,8.981 0.956,9.028 1.126,9.198 C1.225,9.297 1.363,9.427 1.536,9.587 C1.712,9.746 1.854,9.881 1.964,9.991 C2.084,10.110 2.184,10.163 2.263,10.148 C2.343,10.133 2.442,10.060 2.563,9.931 C2.691,9.801 2.816,9.674 2.937,9.549 C3.056,9.424 3.176,9.302 3.295,9.183 C3.415,9.063 3.537,8.938 3.662,8.808 C3.787,8.679 3.919,8.544 4.058,8.404 C4.118,8.345 4.183,8.285 4.252,8.225 C4.323,8.165 4.400,8.120 4.485,8.090 C4.570,8.060 4.659,8.058 4.754,8.083 C4.850,8.108 4.951,8.175 5.061,8.285 L5.061,8.285 Z"/>
</svg>
