<svg 
 xmlns="http://www.w3.org/2000/svg"
 xmlns:xlink="http://www.w3.org/1999/xlink"
 width="14px" height="14px">
<path fill-rule="evenodd"  fill="rgb(255, 255, 255)"
 d="M13.899,2.502 L12.667,4.754 C12.537,4.922 12.375,5.023 12.182,5.023 C12.083,5.023 12.019,4.990 11.922,4.956 C11.694,4.821 11.630,4.519 11.760,4.284 L12.606,2.771 L12.375,2.771 C10.009,2.771 8.097,4.754 8.065,7.174 C8.032,7.444 7.837,7.679 7.577,7.679 C7.319,7.679 7.091,7.444 7.091,7.174 C7.156,4.229 9.421,1.882 12.244,1.777 L10.917,0.956 C10.690,0.821 10.592,0.519 10.754,0.250 C10.884,0.014 11.176,-0.086 11.403,0.082 L13.574,1.359 C13.769,1.460 13.899,1.662 13.964,1.863 C14.029,2.065 13.995,2.300 13.899,2.502 ZM6.637,1.527 L2.104,1.527 C1.490,1.527 0.969,2.065 0.969,2.704 L0.969,11.780 C0.969,12.419 1.490,12.956 2.104,12.956 L11.856,12.956 C12.473,12.956 12.992,12.419 12.992,11.780 L12.992,8.149 C12.992,7.881 13.218,7.645 13.478,7.645 C13.737,7.645 13.964,7.881 13.964,8.149 L13.964,11.814 C13.964,13.024 13.023,13.998 11.856,13.998 L2.104,13.998 C0.937,13.998 -0.003,13.024 -0.003,11.814 L-0.003,2.704 C-0.003,1.494 0.937,0.519 2.104,0.519 L6.637,0.519 C6.897,0.519 7.124,0.754 7.124,1.023 C7.124,1.292 6.897,1.527 6.637,1.527 Z"/>
</svg>
