<svg 
 xmlns="http://www.w3.org/2000/svg"
 xmlns:xlink="http://www.w3.org/1999/xlink"
 width="16px" height="16px">
<path fill-rule="evenodd"  fill="rgb(203, 203, 204)"
 d="M8.640,6.923 C8.547,6.865 8.445,6.823 8.339,6.796 C7.365,4.795 12.083,3.427 11.242,1.940 C9.554,-1.055 6.117,0.085 5.237,0.973 C3.001,3.454 5.904,6.442 6.925,7.363 C6.869,7.457 6.826,7.558 6.798,7.663 C4.796,8.637 3.428,3.921 1.939,4.762 C-1.057,6.449 0.085,9.884 0.972,10.765 C3.455,13.000 6.444,10.098 7.365,9.077 C7.459,9.133 7.560,9.176 7.665,9.204 C8.640,11.205 3.922,12.573 4.763,14.060 C6.451,17.055 9.888,15.915 10.769,15.027 C12.998,12.546 10.101,9.558 9.074,8.637 C9.130,8.543 9.173,8.442 9.200,8.337 C11.202,7.363 12.571,12.079 14.059,11.239 C17.055,9.551 15.914,6.116 15.026,5.235 C12.524,3.000 9.534,5.895 8.640,6.923 L8.640,6.923 Z"/>
</svg>
