<svg 
 xmlns="http://www.w3.org/2000/svg"
 xmlns:xlink="http://www.w3.org/1999/xlink"
 width="12px" height="14px">
<path fill-rule="evenodd"  fill="rgb(219, 219, 224)"
 d="M10.719,1.000 C11.007,1.248 11.236,1.455 11.407,1.619 C11.578,1.783 11.708,1.923 11.800,2.037 C11.890,2.152 11.946,2.248 11.967,2.328 C11.989,2.408 12.000,2.477 12.000,2.537 L12.000,2.776 L9.631,2.776 C9.525,2.776 9.431,2.739 9.351,2.664 C9.271,2.589 9.205,2.502 9.151,2.403 C9.098,2.303 9.058,2.201 9.032,2.097 C9.004,1.992 8.991,1.910 8.991,1.851 L8.991,-0.000 L9.039,-0.000 C9.124,-0.000 9.212,0.012 9.303,0.037 C9.394,0.062 9.498,0.109 9.615,0.179 C9.732,0.249 9.879,0.348 10.055,0.477 C10.231,0.607 10.452,0.781 10.719,1.000 L10.719,1.000 ZM7.983,1.865 C7.983,2.065 8.015,2.271 8.079,2.485 C8.143,2.699 8.244,2.898 8.384,3.082 C8.521,3.266 8.698,3.418 8.911,3.537 C9.124,3.657 9.375,3.716 9.663,3.716 L12.000,3.716 L12.000,12.134 C12.000,12.423 11.938,12.681 11.815,12.910 C11.692,13.139 11.530,13.333 11.327,13.492 C11.125,13.652 10.900,13.776 10.655,13.865 C10.409,13.955 10.170,14.000 9.935,14.000 L2.063,14.000 C1.860,14.000 1.639,13.945 1.399,13.836 C1.158,13.726 0.936,13.582 0.727,13.403 C0.520,13.224 0.346,13.020 0.207,12.791 C0.069,12.562 -0.002,12.323 -0.002,12.074 L-0.002,1.925 C-0.002,1.716 0.050,1.500 0.151,1.276 C0.252,1.052 0.391,0.846 0.567,0.656 C0.743,0.467 0.943,0.311 1.167,0.186 C1.391,0.062 1.626,-0.000 1.871,-0.000 L7.983,-0.000 L7.983,1.865 ZM8.991,11.179 C9.269,11.179 9.503,11.087 9.695,10.903 C9.888,10.719 9.983,10.497 9.983,10.239 C9.983,9.980 9.888,9.761 9.695,9.582 C9.503,9.403 9.269,9.313 8.991,9.313 L2.991,9.313 C2.714,9.313 2.479,9.403 2.287,9.582 C2.095,9.761 1.999,9.980 1.999,10.239 C1.999,10.497 2.095,10.719 2.287,10.903 C2.479,11.087 2.714,11.179 2.991,11.179 L8.991,11.179 ZM9.983,6.522 C9.983,6.264 9.888,6.042 9.695,5.858 C9.503,5.674 9.269,5.582 8.991,5.582 L2.991,5.582 C2.714,5.582 2.479,5.674 2.287,5.858 C2.095,6.042 1.999,6.264 1.999,6.522 C1.999,6.781 2.095,7.000 2.287,7.179 C2.479,7.358 2.714,7.448 2.991,7.448 L8.991,7.448 C9.269,7.448 9.503,7.358 9.695,7.179 C9.888,7.000 9.983,6.781 9.983,6.522 L9.983,6.522 Z"/>
</svg>
