<svg 
 xmlns="http://www.w3.org/2000/svg"
 xmlns:xlink="http://www.w3.org/1999/xlink"
 width="16px" height="16px">
<path fill-rule="evenodd"  fill="rgb(16, 199, 106)"
 d="M8.009,0.000 C9.116,0.000 10.153,0.209 11.120,0.627 C12.087,1.044 12.932,1.616 13.656,2.343 C14.379,3.069 14.951,3.917 15.371,4.885 C15.790,5.854 16.000,6.889 16.000,7.991 C16.000,9.093 15.790,10.131 15.371,11.106 C14.951,12.080 14.379,12.931 13.656,13.657 C12.932,14.384 12.087,14.956 11.120,15.373 C10.153,15.791 9.116,16.000 8.009,16.000 C6.902,16.000 5.862,15.791 4.889,15.373 C3.916,14.956 3.068,14.384 2.344,13.657 C1.621,12.931 1.049,12.080 0.629,11.106 C0.210,10.131 -0.000,9.093 -0.000,7.991 C-0.000,6.889 0.210,5.854 0.629,4.885 C1.049,3.917 1.621,3.069 2.344,2.343 C3.068,1.616 3.916,1.044 4.889,0.627 C5.862,0.209 6.902,0.000 8.009,0.000 L8.009,0.000 ZM13.026,6.465 C13.245,6.247 13.361,5.978 13.373,5.657 C13.385,5.336 13.282,5.067 13.063,4.849 C12.844,4.631 12.576,4.525 12.260,4.531 C11.944,4.537 11.676,4.649 11.457,4.867 L6.312,9.989 L4.543,8.245 C4.324,8.027 4.056,7.915 3.740,7.909 C3.424,7.903 3.156,8.009 2.937,8.227 C2.718,8.445 2.606,8.702 2.600,8.999 C2.594,9.295 2.700,9.553 2.919,9.771 L5.455,12.313 C5.674,12.531 5.960,12.637 6.312,12.631 C6.665,12.625 6.951,12.513 7.170,12.295 L7.097,12.368 L13.026,6.465 Z"/>
</svg>
