<svg 
 xmlns="http://www.w3.org/2000/svg"
 xmlns:xlink="http://www.w3.org/1999/xlink"
 width="16px" height="16px">
<path fill-rule="evenodd"  fill="rgb(0, 163, 255)"
 d="M8.000,-0.000 C3.600,-0.000 -0.000,3.600 -0.000,8.000 C-0.000,12.400 3.600,16.000 8.000,16.000 C12.400,16.000 16.000,12.400 16.000,8.000 C16.000,3.600 12.400,-0.000 8.000,-0.000 L8.000,-0.000 ZM8.000,12.500 C7.400,12.500 7.000,12.100 7.000,11.500 C7.000,10.900 7.400,10.500 8.000,10.500 C8.600,10.500 9.000,10.900 9.000,11.500 C9.000,12.100 8.600,12.500 8.000,12.500 L8.000,12.500 ZM8.000,9.500 C7.200,9.500 7.000,5.100 7.000,4.500 C7.000,3.900 7.400,3.500 8.000,3.500 C8.600,3.500 9.000,3.900 9.000,4.500 C9.000,5.000 8.800,9.500 8.000,9.500 L8.000,9.500 Z"/>
</svg>
