<svg 
 xmlns="http://www.w3.org/2000/svg"
 xmlns:xlink="http://www.w3.org/1999/xlink"
 width="439.5px" height="80.5px">
<path fill-rule="evenodd"  fill="rgb(255, 141, 35)"
 d="M216.999,40.000 C208.163,40.000 201.000,32.821 201.000,23.966 C201.000,14.159 210.753,5.556 215.256,1.584 C216.005,0.923 216.609,0.390 216.998,0.002 L216.999,-0.000 L217.001,0.002 C217.397,0.383 217.995,0.894 218.733,1.523 C223.257,5.385 232.999,13.700 232.999,23.966 C232.999,32.821 225.836,40.000 216.999,40.000 ZM223.853,10.391 C221.367,7.558 218.956,5.504 217.094,3.920 L217.027,3.863 C216.482,4.343 215.898,4.861 215.326,5.381 C213.740,6.823 211.917,8.576 210.192,10.566 C206.662,14.638 203.909,19.288 203.909,23.966 C203.909,31.298 209.825,37.143 216.999,37.143 C224.175,37.143 230.091,31.298 230.091,23.966 C230.091,19.018 227.337,14.363 223.853,10.391 ZM227.636,23.506 C227.636,29.381 222.874,34.143 216.999,34.143 C211.125,34.143 206.363,29.381 206.363,23.506 C206.363,22.876 206.419,22.247 206.529,21.626 C207.327,23.568 209.236,24.935 211.466,24.935 C213.763,24.935 215.721,23.483 216.472,21.446 L216.468,21.446 C217.347,19.320 219.471,17.804 221.952,17.821 C228.553,17.865 227.636,25.501 227.636,23.506 Z"/>
<path fill-rule="evenodd"  stroke="rgb(255, 141, 35)" stroke-width="1px" stroke-dasharray="4, 2" stroke-linecap="butt" stroke-linejoin="miter" fill="none"
 d="M181.000,58.000 L181.000,50.000 L253.000,50.000 L253.000,58.000 "/>
<path fill-rule="evenodd"  fill="rgb(255, 141, 35)"
 d="M181.500,60.000 C182.880,60.000 183.999,61.119 183.999,62.500 C183.999,63.881 182.880,65.000 181.500,65.000 C180.119,65.000 178.999,63.881 178.999,62.500 C178.999,61.119 180.119,60.000 181.500,60.000 Z"/>
<path fill-rule="evenodd"  fill="rgb(255, 141, 35)"
 d="M252.500,60.000 C253.880,60.000 255.000,61.119 255.000,62.500 C255.000,63.881 253.880,65.000 252.500,65.000 C251.119,65.000 249.999,63.881 249.999,62.500 C249.999,61.119 251.119,60.000 252.500,60.000 Z"/>
<path fill-rule="evenodd"  fill="rgb(255, 255, 255)"
 d="M184.102,79.077 C182.363,79.077 181.248,77.511 181.248,74.378 C181.248,71.257 182.363,69.740 184.102,69.740 C185.829,69.740 186.957,71.270 186.957,74.378 C186.957,77.511 185.829,79.077 184.102,79.077 ZM184.102,70.854 C183.203,70.854 182.567,71.796 182.567,74.378 C182.567,76.984 183.203,77.964 184.102,77.964 C185.002,77.964 185.638,76.984 185.638,74.378 C185.638,71.796 185.002,70.854 184.102,70.854 ZM179.194,78.918 L177.898,78.918 L177.898,76.495 L174.084,76.495 L174.084,75.553 L177.598,69.911 L179.194,69.911 L179.194,75.406 L180.321,75.406 L180.321,76.495 L179.194,76.495 L179.194,78.918 ZM177.922,71.306 C177.706,71.759 177.467,72.224 177.215,72.689 L175.475,75.406 L177.898,75.406 L177.898,73.044 C177.898,72.554 177.946,71.796 177.971,71.306 L177.922,71.306 Z"/>
<path fill-rule="evenodd"  fill="rgb(255, 255, 255)"
 d="M254.599,79.077 C253.579,79.077 252.860,78.661 252.344,78.123 L253.088,77.254 C253.436,77.658 253.975,77.927 254.539,77.927 C255.606,77.927 256.530,77.046 256.614,74.476 C256.098,75.124 255.342,75.528 254.671,75.528 C253.195,75.528 252.200,74.586 252.200,72.701 C252.200,70.915 253.399,69.740 254.827,69.740 C256.518,69.740 257.885,71.135 257.885,74.109 C257.885,77.658 256.302,79.077 254.599,79.077 ZM254.839,70.829 C254.083,70.829 253.484,71.527 253.484,72.701 C253.484,73.852 253.987,74.512 254.911,74.512 C255.450,74.512 256.062,74.194 256.590,73.411 C256.458,71.637 255.798,70.829 254.839,70.829 ZM251.033,75.957 C251.033,77.951 249.606,79.077 248.059,79.077 C246.667,79.077 245.792,78.502 245.168,77.878 L245.828,76.960 C246.332,77.474 246.967,77.927 247.891,77.927 C248.886,77.927 249.642,77.205 249.642,76.006 C249.642,74.806 248.970,74.121 247.963,74.121 C247.399,74.121 247.063,74.292 246.547,74.635 L245.876,74.182 L246.140,69.911 L250.613,69.911 L250.613,71.098 L247.339,71.098 L247.135,73.411 C247.507,73.215 247.867,73.093 248.347,73.093 C249.822,73.093 251.033,73.986 251.033,75.957 Z"/>
<path fill-rule="evenodd"  fill="rgb(22, 204, 94)"
 d="M39.999,40.000 C31.163,40.000 23.999,32.821 23.999,23.966 C23.999,14.159 33.753,5.556 38.256,1.584 C39.004,0.923 39.608,0.390 39.998,0.002 L39.999,-0.000 L40.001,0.002 C40.397,0.383 40.995,0.894 41.732,1.523 C46.257,5.385 55.999,13.700 55.999,23.966 C55.999,32.821 48.836,40.000 39.999,40.000 ZM46.853,10.391 C44.367,7.558 41.955,5.504 40.094,3.920 L40.027,3.863 C39.482,4.343 38.897,4.861 38.326,5.381 C36.740,6.823 34.917,8.576 33.192,10.566 C29.662,14.638 26.909,19.288 26.909,23.966 C26.909,31.298 32.825,37.143 39.999,37.143 C47.175,37.143 53.091,31.298 53.091,23.966 C53.091,19.018 50.337,14.363 46.853,10.391 ZM47.007,27.484 C47.007,31.078 44.093,33.992 40.499,33.992 C36.906,33.992 33.992,31.078 33.992,27.484 C33.992,27.098 34.026,26.713 34.094,26.333 C34.582,27.521 35.750,28.358 37.114,28.358 C38.519,28.358 39.717,27.469 40.177,26.223 L40.174,26.223 C40.712,24.922 42.012,23.995 43.529,24.005 C47.567,24.032 47.006,28.704 47.007,27.484 Z"/>
<path fill-rule="evenodd"  stroke="rgb(22, 204, 94)" stroke-width="1px" stroke-dasharray="4, 2" stroke-linecap="butt" stroke-linejoin="miter" fill="none"
 d="M4.000,58.000 L4.000,50.000 L75.999,50.000 L75.999,58.000 "/>
<path fill-rule="evenodd"  fill="rgb(22, 204, 94)"
 d="M4.500,60.000 C5.880,60.000 7.000,61.119 7.000,62.500 C7.000,63.881 5.880,65.000 4.500,65.000 C3.119,65.000 2.000,63.881 2.000,62.500 C2.000,61.119 3.119,60.000 4.500,60.000 Z"/>
<path fill-rule="evenodd"  fill="rgb(22, 204, 94)"
 d="M75.500,60.000 C76.880,60.000 77.999,61.119 77.999,62.500 C77.999,63.881 76.880,65.000 75.500,65.000 C74.119,65.000 73.000,63.881 73.000,62.500 C73.000,61.119 74.119,60.000 75.500,60.000 Z"/>
<path fill-rule="evenodd"  fill="rgb(255, 255, 255)"
 d="M3.682,79.077 C5.410,79.077 6.537,77.511 6.537,74.378 C6.537,71.270 5.410,69.740 3.682,69.740 C1.943,69.740 0.828,71.257 0.828,74.378 C0.828,77.511 1.943,79.077 3.682,79.077 ZM3.682,77.964 C2.783,77.964 2.147,76.984 2.147,74.378 C2.147,71.796 2.783,70.854 3.682,70.854 C4.582,70.854 5.218,71.796 5.218,74.378 C5.218,76.984 4.582,77.964 3.682,77.964 Z"/>
<path fill-rule="evenodd"  fill="rgb(255, 255, 255)"
 d="M77.598,79.077 C76.580,79.077 75.859,78.661 75.344,78.123 L76.088,77.254 C76.436,77.658 76.975,77.927 77.539,77.927 C78.606,77.927 79.530,77.046 79.614,74.476 C79.098,75.124 78.343,75.528 77.671,75.528 C76.195,75.528 75.200,74.586 75.200,72.701 C75.200,70.915 76.400,69.740 77.827,69.740 C79.518,69.740 80.885,71.135 80.885,74.109 C80.885,77.658 79.302,79.077 77.598,79.077 ZM77.839,70.829 C77.083,70.829 76.483,71.527 76.483,72.701 C76.483,73.852 76.987,74.512 77.910,74.512 C78.450,74.512 79.062,74.194 79.590,73.411 C79.458,71.637 78.798,70.829 77.839,70.829 ZM74.009,76.495 C74.009,78.123 72.678,79.077 71.058,79.077 C69.667,79.077 68.768,78.514 68.180,77.841 L68.852,76.936 C69.368,77.474 70.027,77.927 70.939,77.927 C71.934,77.927 72.618,77.364 72.618,76.434 C72.618,75.430 71.994,74.782 70.003,74.782 L70.003,73.742 C71.742,73.742 72.318,73.069 72.318,72.163 C72.318,71.368 71.803,70.866 70.963,70.854 C70.279,70.866 69.704,71.208 69.200,71.710 L68.480,70.829 C69.176,70.193 69.991,69.740 71.011,69.740 C72.594,69.740 73.710,70.572 73.710,72.065 C73.710,73.105 73.121,73.827 72.186,74.182 L72.186,74.243 C73.206,74.500 74.009,75.284 74.009,76.495 Z"/>
<path fill-rule="evenodd"  fill="rgb(254, 90, 81)"
 d="M393.999,40.000 C385.162,40.000 377.999,32.821 377.999,23.966 C377.999,14.159 387.752,5.556 392.255,1.584 C393.004,0.923 393.608,0.390 393.998,0.002 L393.999,-0.000 L394.001,0.002 C394.397,0.383 394.995,0.894 395.732,1.523 C400.256,5.385 409.999,13.700 409.999,23.966 C409.999,32.821 402.836,40.000 393.999,40.000 ZM400.852,10.391 C398.367,7.558 395.955,5.504 394.094,3.920 L394.026,3.863 C393.482,4.343 392.897,4.861 392.326,5.381 C390.740,6.823 388.917,8.576 387.191,10.566 C383.662,14.638 380.908,19.288 380.908,23.966 C380.908,31.298 386.824,37.143 393.999,37.143 C401.174,37.143 407.090,31.298 407.090,23.966 C407.090,19.018 404.336,14.363 400.852,10.391 ZM404.988,23.434 C404.993,23.278 405.011,23.126 405.011,22.967 C405.011,23.611 405.021,23.698 404.988,23.434 ZM393.499,34.984 C387.694,34.984 382.988,29.156 382.988,21.967 C382.987,21.196 384.159,20.449 384.151,19.667 C385.054,21.432 386.994,22.000 388.000,22.000 C389.135,22.000 390.424,21.877 391.979,19.446 L391.974,19.446 C392.843,16.844 393.936,15.000 397.999,15.000 C403.915,15.000 404.847,22.336 404.988,23.434 C404.744,30.361 399.176,34.984 393.499,34.984 Z"/>
<path fill-rule="evenodd"  stroke="rgb(254, 90, 81)" stroke-width="1px" stroke-dasharray="4, 2" stroke-linecap="butt" stroke-linejoin="miter" fill="none"
 d="M357.999,58.000 L357.999,50.000 L430.000,50.000 L430.000,58.000 "/>
<path fill-rule="evenodd"  fill="rgb(254, 90, 81)"
 d="M358.500,60.000 C359.881,60.000 361.000,61.119 361.000,62.500 C361.000,63.881 359.881,65.000 358.500,65.000 C357.119,65.000 356.000,63.881 356.000,62.500 C356.000,61.119 357.119,60.000 358.500,60.000 Z"/>
<path fill-rule="evenodd"  fill="rgb(254, 90, 81)"
 d="M429.499,60.000 C430.881,60.000 432.000,61.119 432.000,62.500 C432.000,63.881 430.881,65.000 429.499,65.000 C428.119,65.000 427.000,63.881 427.000,62.500 C427.000,61.119 428.119,60.000 429.499,60.000 Z"/>
<path fill-rule="evenodd"  fill="rgb(255, 255, 255)"
 d="M361.103,79.077 C359.363,79.077 358.248,77.511 358.248,74.378 C358.248,71.257 359.363,69.740 361.103,69.740 C362.830,69.740 363.957,71.270 363.957,74.378 C363.957,77.511 362.830,79.077 361.103,79.077 ZM361.103,70.854 C360.203,70.854 359.567,71.796 359.567,74.378 C359.567,76.984 360.203,77.964 361.103,77.964 C362.002,77.964 362.638,76.984 362.638,74.378 C362.638,71.796 362.002,70.854 361.103,70.854 ZM354.683,73.289 C356.169,73.289 357.165,74.219 357.165,76.128 C357.165,77.915 355.966,79.077 354.527,79.077 C352.847,79.077 351.480,77.645 351.480,74.586 C351.480,71.123 353.075,69.740 354.814,69.740 C355.798,69.740 356.517,70.168 357.021,70.707 L356.266,71.563 C355.942,71.172 355.402,70.890 354.886,70.890 C353.759,70.890 352.823,71.759 352.764,74.329 C353.279,73.680 354.047,73.289 354.683,73.289 ZM354.515,78.000 C355.282,78.000 355.881,77.290 355.881,76.128 C355.881,74.965 355.378,74.317 354.430,74.317 C353.915,74.317 353.315,74.598 352.788,75.369 C352.932,77.156 353.567,78.000 354.515,78.000 Z"/>
<path fill-rule="evenodd"  fill="rgb(255, 255, 255)"
 d="M435.522,79.077 C433.783,79.077 432.668,77.511 432.668,74.378 C432.668,71.257 433.783,69.740 435.522,69.740 C437.249,69.740 438.377,71.270 438.377,74.378 C438.377,77.511 437.249,79.077 435.522,79.077 ZM435.522,70.854 C434.623,70.854 433.987,71.796 433.987,74.378 C433.987,76.984 434.623,77.964 435.522,77.964 C436.422,77.964 437.058,76.984 437.058,74.378 C437.058,71.796 436.422,70.854 435.522,70.854 ZM428.682,79.077 C426.943,79.077 425.828,77.511 425.828,74.378 C425.828,71.257 426.943,69.740 428.682,69.740 C430.409,69.740 431.537,71.270 431.537,74.378 C431.537,77.511 430.409,79.077 428.682,79.077 ZM428.682,70.854 C427.783,70.854 427.148,71.796 427.148,74.378 C427.148,76.984 427.783,77.964 428.682,77.964 C429.582,77.964 430.218,76.984 430.218,74.378 C430.218,71.796 429.582,70.854 428.682,70.854 ZM419.456,77.756 L421.387,77.756 L421.387,71.490 L419.804,71.490 L419.804,70.596 C420.632,70.437 421.219,70.229 421.723,69.911 L422.766,69.911 L422.766,77.756 L424.493,77.756 L424.493,78.918 L419.456,78.918 L419.456,77.756 Z"/>
<path fill-rule="evenodd"  fill="rgb(110, 110, 115)"
 d="M105.996,21.399 L147.811,21.399 L144.477,24.998 L146.834,24.998 L151.002,20.500 L146.834,16.001 L144.477,16.001 L147.811,19.600 L105.996,19.600 L105.996,21.399 Z"/>
<path fill-rule="evenodd"  fill="rgb(110, 110, 115)"
 d="M282.996,21.399 L324.812,21.399 L321.477,24.998 L323.834,24.998 L328.002,20.500 L323.834,16.001 L321.477,16.001 L324.812,19.600 L282.996,19.600 L282.996,21.399 Z"/>
</svg>
