<svg 
 xmlns="http://www.w3.org/2000/svg"
 xmlns:xlink="http://www.w3.org/1999/xlink"
 width="11px" height="14px">
<path fill-rule="evenodd"  fill="rgb(22, 204, 94)"
 d="M5.500,14.000 C2.462,14.000 -0.000,11.487 -0.000,8.388 C-0.000,4.956 3.352,1.945 4.900,0.554 C5.158,0.323 5.365,0.137 5.499,0.001 L5.500,-0.000 L5.500,0.001 C5.636,0.134 5.842,0.313 6.095,0.533 C7.651,1.885 11.000,4.795 11.000,8.388 C11.000,11.487 8.537,14.000 5.500,14.000 ZM7.856,3.637 C7.001,2.645 6.172,1.927 5.532,1.372 L5.509,1.352 C5.322,1.520 5.121,1.701 4.925,1.883 C4.379,2.388 3.753,3.002 3.160,3.698 C1.946,5.123 1.000,6.751 1.000,8.388 C1.000,10.954 3.034,13.000 5.500,13.000 C7.966,13.000 10.000,10.954 10.000,8.388 C10.000,6.656 9.053,5.027 7.856,3.637 ZM7.909,9.619 C7.909,10.877 6.907,11.897 5.672,11.897 C4.436,11.897 3.435,10.877 3.435,9.619 C3.435,9.484 3.446,9.350 3.470,9.217 C3.637,9.633 4.039,9.925 4.508,9.925 C4.991,9.925 5.403,9.614 5.561,9.178 L5.560,9.178 C5.745,8.723 6.192,8.398 6.713,8.402 C8.101,8.411 7.908,10.047 7.909,9.619 Z"/>
</svg>
