<svg 
 xmlns="http://www.w3.org/2000/svg"
 xmlns:xlink="http://www.w3.org/1999/xlink"
 width="11px" height="14px">
<path fill-rule="evenodd"  fill="rgb(254, 90, 81)"
 d="M5.500,14.000 C2.462,14.000 -0.000,11.487 -0.000,8.388 C-0.000,4.956 3.352,1.945 4.900,0.554 C5.158,0.323 5.365,0.137 5.499,0.001 L5.500,-0.000 L5.500,0.001 C5.636,0.134 5.842,0.313 6.095,0.533 C7.651,1.885 11.000,4.795 11.000,8.388 C11.000,11.487 8.537,14.000 5.500,14.000 ZM7.855,3.637 C7.001,2.645 6.172,1.927 5.532,1.372 L5.509,1.352 C5.322,1.520 5.121,1.701 4.924,1.883 C4.379,2.388 3.753,3.002 3.160,3.698 C1.946,5.123 1.000,6.751 1.000,8.388 C1.000,10.954 3.033,13.000 5.500,13.000 C7.966,13.000 10.000,10.954 10.000,8.388 C10.000,6.656 9.053,5.027 7.855,3.637 ZM9.272,8.167 C9.274,8.123 9.285,8.083 9.285,8.039 C9.285,8.285 9.289,8.294 9.272,8.167 ZM5.328,12.244 C3.332,12.244 1.715,10.205 1.715,7.689 C1.714,7.419 2.117,7.157 2.115,6.883 C2.425,7.501 3.092,7.700 3.437,7.700 C3.828,7.700 4.271,7.657 4.805,6.806 L4.804,6.806 C5.102,5.896 5.478,5.250 6.875,5.250 C8.862,5.250 9.212,7.697 9.272,8.167 C9.205,10.609 7.288,12.244 5.328,12.244 Z"/>
</svg>
