<svg 
 xmlns="http://www.w3.org/2000/svg"
 xmlns:xlink="http://www.w3.org/1999/xlink"
 width="11px" height="14px">
<path fill-rule="evenodd"  fill="rgb(255, 141, 35)"
 d="M5.500,14.000 C2.462,14.000 -0.000,11.487 -0.000,8.388 C-0.000,4.956 3.353,1.945 4.900,0.554 C5.158,0.323 5.365,0.137 5.499,0.001 L5.500,-0.000 L5.501,0.001 C5.636,0.134 5.842,0.313 6.096,0.533 C7.651,1.885 11.000,4.795 11.000,8.388 C11.000,11.487 8.537,14.000 5.500,14.000 ZM7.856,3.637 C7.001,2.645 6.172,1.927 5.532,1.372 L5.509,1.352 C5.322,1.520 5.121,1.701 4.925,1.883 C4.380,2.388 3.753,3.002 3.160,3.698 C1.946,5.123 1.000,6.751 1.000,8.388 C1.000,10.954 3.034,13.000 5.500,13.000 C7.966,13.000 10.000,10.954 10.000,8.388 C10.000,6.656 9.053,5.027 7.856,3.637 ZM9.156,8.227 C9.156,10.283 7.519,11.950 5.500,11.950 C3.481,11.950 1.844,10.283 1.844,8.227 C1.843,8.007 1.863,7.786 1.900,7.569 C2.175,8.249 2.831,8.727 3.598,8.727 C4.387,8.727 5.060,8.219 5.319,7.506 L5.317,7.506 C5.619,6.762 6.350,6.231 7.202,6.237 C9.472,6.253 9.156,8.925 9.156,8.227 Z"/>
</svg>
