<svg 
 xmlns="http://www.w3.org/2000/svg"
 xmlns:xlink="http://www.w3.org/1999/xlink"
 width="14px" height="14px">
<path fill-rule="evenodd"  fill="rgb(210, 210, 218)"
 d="M7.000,0.000 C3.134,0.000 -0.000,3.134 -0.000,7.000 C-0.000,10.866 3.134,14.000 7.000,14.000 C10.866,14.000 14.000,10.866 14.000,7.000 C14.000,3.134 10.866,0.000 7.000,0.000 L7.000,0.000 ZM7.000,12.812 C3.791,12.812 1.188,10.209 1.188,7.000 C1.188,5.609 1.677,4.331 2.492,3.331 L10.669,11.508 C9.669,12.323 8.391,12.812 7.000,12.812 L7.000,12.812 ZM11.508,10.669 L3.331,2.492 C4.331,1.677 5.609,1.188 7.000,1.188 C10.209,1.188 12.812,3.791 12.812,7.000 C12.812,8.391 12.323,9.669 11.508,10.669 L11.508,10.669 Z"/>
</svg>
