<svg 
 xmlns="http://www.w3.org/2000/svg"
 xmlns:xlink="http://www.w3.org/1999/xlink"
 width="14px" height="14px">
<path fill-rule="evenodd"  fill="rgb(116, 116, 123)"
 d="M7.000,-0.000 C3.134,-0.000 -0.000,3.134 -0.000,7.000 C-0.000,10.866 3.134,14.000 7.000,14.000 C10.865,14.000 14.000,10.866 14.000,7.000 C14.000,3.134 10.865,-0.000 7.000,-0.000 L7.000,-0.000 ZM7.000,12.812 C3.790,12.812 1.187,10.209 1.187,7.000 C1.187,5.609 1.676,4.331 2.492,3.331 L10.668,11.508 C9.668,12.323 8.390,12.812 7.000,12.812 L7.000,12.812 ZM11.507,10.669 L3.331,2.492 C4.331,1.677 5.609,1.187 7.000,1.187 C10.209,1.187 12.812,3.791 12.812,7.000 C12.812,8.390 12.323,9.669 11.507,10.669 L11.507,10.669 Z"/>
</svg>
