<svg 
 xmlns="http://www.w3.org/2000/svg"
 xmlns:xlink="http://www.w3.org/1999/xlink"
 width="16px" height="16px">
<path fill-rule="evenodd"  fill="rgb(0, 163, 255)"
 d="M7.949,3.180 C6.562,3.180 5.259,3.694 4.278,4.629 C3.298,5.564 2.759,6.806 2.759,8.127 C2.759,9.449 3.298,10.691 4.278,11.626 C5.259,12.561 6.562,13.075 7.949,13.075 C9.335,13.075 10.638,12.561 11.618,11.626 C12.600,10.691 13.139,9.449 13.139,8.127 C13.139,6.806 12.600,5.564 11.618,4.629 C10.638,3.694 9.335,3.180 7.949,3.180 L7.949,3.180 ZM7.949,11.851 C5.795,11.851 4.041,10.181 4.041,8.126 C4.041,6.071 5.793,4.401 7.949,4.401 C10.102,4.401 11.856,6.071 11.856,8.126 C11.856,10.181 10.104,11.851 7.949,11.851 L7.949,11.851 ZM10.299,13.314 L5.599,13.314 C5.244,13.314 4.958,13.587 4.958,13.925 C4.958,14.263 5.244,14.537 5.599,14.537 L10.299,14.537 C10.653,14.537 10.940,14.263 10.940,13.925 C10.940,13.587 10.653,13.314 10.299,13.314 L10.299,13.314 ZM9.359,14.778 L6.540,14.778 C6.185,14.778 5.898,15.051 5.898,15.389 C5.898,15.727 6.185,16.000 6.540,16.000 L9.359,16.000 C9.714,16.000 10.001,15.727 10.001,15.389 C10.001,15.051 9.714,14.778 9.359,14.778 L9.359,14.778 ZM7.949,2.957 C8.303,2.957 8.590,2.684 8.590,2.346 L8.590,0.611 C8.590,0.273 8.303,-0.000 7.949,-0.000 C7.594,-0.000 7.307,0.273 7.307,0.611 L7.307,2.346 C7.307,2.682 7.594,2.957 7.949,2.957 L7.949,2.957 ZM11.494,3.845 C11.605,3.921 11.734,3.957 11.862,3.957 C12.064,3.957 12.263,3.865 12.388,3.696 L13.431,2.276 C13.635,1.999 13.563,1.618 13.275,1.424 C12.984,1.230 12.585,1.298 12.381,1.573 L11.338,2.993 C11.134,3.270 11.204,3.651 11.494,3.845 L11.494,3.845 ZM15.958,5.296 C15.834,4.980 15.464,4.820 15.132,4.938 L13.427,5.546 C13.096,5.665 12.927,6.017 13.052,6.333 C13.148,6.580 13.393,6.731 13.654,6.731 C13.729,6.731 13.804,6.718 13.878,6.691 L15.583,6.084 C15.915,5.965 16.083,5.612 15.958,5.296 L15.958,5.296 ZM3.613,3.407 C3.738,3.576 3.937,3.667 4.139,3.667 C4.265,3.667 4.394,3.631 4.507,3.556 C4.797,3.362 4.867,2.981 4.663,2.704 L3.620,1.284 C3.417,1.007 3.017,0.940 2.727,1.134 C2.436,1.328 2.366,1.710 2.570,1.986 L3.613,3.407 ZM2.947,6.042 C3.072,5.726 2.902,5.373 2.572,5.255 L0.867,4.647 C0.535,4.529 0.165,4.690 0.041,5.005 C-0.083,5.321 0.086,5.674 0.416,5.792 L2.121,6.400 C2.195,6.427 2.270,6.439 2.345,6.439 C2.606,6.439 2.851,6.288 2.947,6.042 L2.947,6.042 Z"/>
</svg>
