<svg 
 xmlns="http://www.w3.org/2000/svg"
 xmlns:xlink="http://www.w3.org/1999/xlink"
 width="26px" height="24px">
<path fill-rule="evenodd"  fill="rgb(162, 162, 165)"
 d="M15.999,24.000 L15.999,22.000 L25.999,22.000 L25.999,24.000 L15.999,24.000 ZM15.999,19.000 L25.999,19.000 L25.999,21.000 L15.999,21.000 L15.999,19.000 ZM24.999,18.000 L16.999,18.000 C16.447,18.000 15.999,17.552 15.999,17.000 C15.999,16.447 16.447,16.000 16.999,16.000 L24.999,16.000 C25.552,16.000 25.999,16.447 25.999,17.000 C25.999,17.552 25.552,18.000 24.999,18.000 ZM9.000,12.002 C9.000,9.797 10.789,8.010 12.996,8.010 C15.203,8.010 16.992,9.797 16.992,12.002 C16.992,14.207 15.203,15.994 12.996,15.994 C10.789,15.994 9.000,14.207 9.000,12.002 ZM15.493,12.002 C15.493,10.624 14.375,9.507 12.996,9.507 C11.617,9.507 10.498,10.624 10.498,12.002 C10.498,13.380 11.617,14.497 12.996,14.497 C14.375,14.497 15.493,13.380 15.493,12.002 ZM24.673,14.968 C24.621,15.062 24.576,15.164 24.512,15.258 C24.280,15.595 23.461,14.891 22.999,15.000 C22.742,15.060 22.218,15.480 22.649,14.700 C23.453,13.245 24.056,12.153 24.056,12.153 C24.109,12.058 24.109,11.942 24.056,11.846 L18.645,2.057 C18.591,1.957 18.486,1.895 18.372,1.894 L7.626,1.894 C7.512,1.895 7.407,1.957 7.352,2.057 L1.941,11.846 C1.888,11.942 1.888,12.058 1.941,12.153 L7.352,21.943 C7.407,22.042 7.512,22.105 7.626,22.105 L14.372,22.105 C14.486,22.105 14.865,23.969 14.381,24.000 L7.617,24.000 C6.817,23.998 6.082,23.563 5.698,22.865 L0.277,13.075 C-0.094,12.406 -0.094,11.594 0.277,10.924 L5.698,1.134 C6.082,0.436 6.817,0.001 7.617,-0.000 L18.381,-0.000 C19.180,0.001 19.916,0.436 20.300,1.134 L25.720,10.924 C26.091,11.594 26.091,12.406 25.720,13.075 C25.720,13.075 25.291,13.852 24.673,14.968 Z"/>
</svg>
