<svg 
 xmlns="http://www.w3.org/2000/svg"
 xmlns:xlink="http://www.w3.org/1999/xlink"
 width="16px" height="17px">
<path fill-rule="evenodd"  fill="rgb(210, 210, 218)"
 d="M15.993,11.549 C15.993,13.224 15.201,14.716 13.966,15.678 C13.896,15.731 13.827,15.784 13.755,15.834 C12.888,16.442 12.292,15.396 12.957,14.933 C13.031,14.881 13.101,14.827 13.172,14.771 C14.097,14.032 14.689,12.899 14.689,11.629 C14.689,10.813 14.438,10.058 14.017,9.422 C13.919,12.258 10.830,14.538 7.014,14.538 C3.137,14.538 -0.006,12.187 -0.006,9.287 C-0.006,8.428 0.283,7.622 0.772,6.906 C0.291,6.260 -0.006,5.540 -0.006,4.767 C-0.006,2.133 3.140,-0.003 7.019,-0.003 C10.899,-0.003 14.044,2.133 14.044,4.767 C14.044,5.543 13.746,6.265 13.262,6.912 C13.283,6.944 13.310,6.974 13.330,7.006 C14.919,7.914 15.993,9.603 15.993,11.549 ZM11.939,6.077 L9.464,5.005 L9.752,7.584 C10.713,7.232 11.487,6.711 11.939,6.077 ZM7.014,11.792 C9.449,11.792 11.423,10.309 11.423,8.479 C11.423,8.473 11.420,8.464 11.420,8.457 C10.213,9.122 8.695,9.537 7.019,9.537 C5.339,9.537 3.818,9.120 2.609,8.452 C2.609,8.460 2.607,8.471 2.607,8.479 C2.607,10.309 4.579,11.792 7.014,11.792 ZM8.593,7.898 L8.320,6.136 L5.290,7.873 C5.832,7.985 6.403,8.060 7.007,8.060 C7.563,8.060 8.089,7.994 8.593,7.898 ZM3.918,7.457 L5.382,6.298 L1.948,5.855 C2.325,6.507 3.012,7.066 3.918,7.457 ZM1.681,4.381 L4.728,4.683 L2.935,2.612 C2.252,3.101 1.806,3.708 1.681,4.381 ZM3.970,2.026 L5.056,3.713 L6.249,1.497 C5.414,1.569 4.636,1.747 3.970,2.026 ZM5.719,4.767 C5.719,5.258 6.301,5.656 7.019,5.656 C7.737,5.656 8.319,5.258 8.319,4.767 C8.319,4.277 7.737,3.878 7.019,3.878 C6.301,3.878 5.719,4.277 5.719,4.767 ZM8.252,1.547 L7.177,3.067 L10.220,2.116 C9.641,1.850 8.978,1.653 8.252,1.547 ZM11.916,3.407 L8.809,3.713 L12.388,4.791 C12.389,4.779 12.394,4.767 12.394,4.755 C12.394,4.273 12.218,3.819 11.916,3.407 Z"/>
</svg>
