<svg 
 xmlns="http://www.w3.org/2000/svg"
 xmlns:xlink="http://www.w3.org/1999/xlink"
 width="28px" height="28px">
<path fill-rule="evenodd"  fill="rgb(203, 203, 204)"
 d="M19.297,4.282 L17.153,4.872 C16.881,4.938 16.662,5.134 16.582,5.385 C16.501,5.635 16.574,5.900 16.769,6.075 C16.964,6.250 17.252,6.308 17.520,6.225 L21.484,5.136 C21.888,5.025 22.136,4.636 22.041,4.265 L21.079,0.528 C21.025,0.277 20.825,0.081 20.559,0.015 C20.294,-0.050 20.005,0.026 19.804,0.214 C19.604,0.402 19.526,0.672 19.598,0.917 L20.150,3.059 C13.727,0.425 5.851,2.822 2.056,8.763 C-1.970,15.064 0.119,22.963 6.721,26.408 C13.323,29.852 21.937,27.537 25.961,21.236 C27.822,18.334 28.447,14.931 27.710,11.728 C27.657,11.480 27.464,11.283 27.203,11.214 C26.942,11.145 26.655,11.213 26.451,11.393 C26.248,11.573 26.159,11.837 26.220,12.083 C26.879,14.938 26.321,17.971 24.663,20.559 C21.075,26.174 13.397,28.238 7.513,25.168 C1.629,22.098 -0.233,15.056 3.355,9.441 C6.702,4.203 13.608,2.055 19.297,4.282 L19.297,4.282 Z"/>
</svg>
