<svg 
 xmlns="http://www.w3.org/2000/svg"
 xmlns:xlink="http://www.w3.org/1999/xlink"
 width="28px" height="28px">
<path fill-rule="evenodd"  fill="rgb(153, 153, 153)"
 d="M19.296,4.282 L17.152,4.872 C16.880,4.938 16.660,5.134 16.581,5.385 C16.501,5.635 16.574,5.900 16.768,6.075 C16.964,6.250 17.251,6.308 17.519,6.225 L21.484,5.136 C21.888,5.025 22.135,4.636 22.041,4.265 L21.078,0.528 C21.024,0.277 20.824,0.081 20.559,0.015 C20.293,-0.050 20.003,0.026 19.804,0.214 C19.603,0.402 19.525,0.672 19.598,0.917 L20.149,3.059 C13.727,0.425 5.851,2.822 2.055,8.763 C-1.971,15.064 0.118,22.963 6.721,26.408 C13.322,29.852 21.936,27.537 25.961,21.236 C27.822,18.334 28.447,14.931 27.708,11.728 C27.657,11.480 27.462,11.283 27.202,11.214 C26.941,11.145 26.655,11.213 26.451,11.393 C26.246,11.573 26.158,11.837 26.219,12.083 C26.878,14.938 26.321,17.971 24.662,20.559 C21.074,26.174 13.396,28.237 7.513,25.168 C1.628,22.098 -0.233,15.056 3.354,9.441 C6.701,4.203 13.607,2.055 19.296,4.282 L19.296,4.282 Z"/>
</svg>
