<svg 
 xmlns="http://www.w3.org/2000/svg"
 xmlns:xlink="http://www.w3.org/1999/xlink"
 width="14px" height="14px">
<path fill-rule="evenodd"  fill="rgb(210, 210, 218)"
 d="M5.000,14.000 C4.469,14.000 3.961,13.789 3.586,13.414 C3.211,13.039 3.000,12.530 3.000,12.000 L3.000,5.000 C3.000,4.470 3.211,3.961 3.586,3.586 C3.961,3.211 4.469,3.000 5.000,3.000 L12.000,3.000 C12.530,3.000 13.039,3.211 13.414,3.586 C13.789,3.961 14.000,4.470 14.000,5.000 L14.000,12.000 C14.000,13.105 13.104,14.000 12.000,14.000 L5.000,14.000 ZM4.000,5.000 L4.000,12.000 C4.000,12.265 4.105,12.519 4.293,12.707 C4.480,12.895 4.735,13.000 5.000,13.000 L12.000,13.000 C12.265,13.000 12.519,12.895 12.707,12.707 C12.895,12.519 13.000,12.265 13.000,12.000 L13.000,5.000 C13.000,4.735 12.895,4.480 12.707,4.293 C12.519,4.105 12.265,4.000 12.000,4.000 L5.000,4.000 C4.448,4.000 4.000,4.448 4.000,5.000 L4.000,5.000 ZM10.146,10.854 L8.500,9.208 L6.854,10.854 C6.760,10.948 6.633,11.001 6.500,11.001 C6.367,11.001 6.240,10.948 6.146,10.854 C6.052,10.760 5.999,10.633 5.999,10.500 C5.999,10.367 6.052,10.240 6.146,10.146 L7.792,8.500 L6.146,6.854 C6.052,6.760 5.999,6.633 5.999,6.500 C5.999,6.367 6.052,6.240 6.146,6.146 C6.240,6.052 6.367,5.999 6.500,5.999 C6.633,5.999 6.760,6.052 6.854,6.146 L8.500,7.792 L10.146,6.146 C10.240,6.052 10.367,5.999 10.500,5.999 C10.633,5.999 10.760,6.052 10.854,6.146 C10.948,6.240 11.000,6.367 11.000,6.500 C11.000,6.633 10.948,6.760 10.854,6.854 L9.208,8.500 L10.854,10.146 C10.948,10.240 11.000,10.367 11.000,10.500 C11.000,10.633 10.948,10.760 10.854,10.854 C10.760,10.948 10.633,11.001 10.500,11.001 C10.367,11.001 10.240,10.947 10.146,10.853 L10.146,10.854 ZM3.000,11.000 L2.000,11.000 C1.470,11.000 0.961,10.789 0.586,10.414 C0.211,10.039 -0.000,9.530 -0.000,9.000 L-0.000,2.000 C-0.000,0.895 0.895,-0.000 2.000,-0.000 L9.000,-0.000 C9.530,-0.000 10.039,0.211 10.414,0.586 C10.789,0.961 11.000,1.469 11.000,2.000 L11.000,3.000 L10.000,3.000 L5.000,3.000 C4.448,3.000 3.000,4.448 3.000,5.000 L3.000,9.000 L3.000,10.000 L3.000,11.000 Z"/>
</svg>
