<svg 
 xmlns="http://www.w3.org/2000/svg"
 xmlns:xlink="http://www.w3.org/1999/xlink"
 width="28px" height="29px">
<path fill-rule="evenodd"  fill="rgb(255, 193, 0)"
 d="M14.001,13.714 C13.710,13.704 13.428,13.633 13.168,13.508 L2.621,8.798 C1.734,8.423 1.335,7.437 1.731,6.596 C1.909,6.217 2.226,5.917 2.621,5.751 L12.645,1.251 C13.502,0.869 14.494,0.869 15.351,1.251 L25.379,5.751 C26.265,6.126 26.664,7.113 26.269,7.954 C26.091,8.332 25.774,8.633 25.379,8.798 L14.831,13.504 C14.575,13.633 14.290,13.704 14.001,13.714 L14.001,13.714 ZM11.277,29.000 C11.007,29.000 10.740,28.936 10.501,28.815 L0.972,24.575 C0.367,24.274 -0.007,23.680 0.000,23.034 L0.000,12.224 C0.004,11.616 0.345,11.058 0.894,10.748 C1.403,10.474 2.026,10.474 2.535,10.748 L12.047,14.984 C12.620,15.278 12.987,15.842 13.011,16.460 L13.011,27.284 C13.005,27.889 12.670,28.446 12.125,28.761 C11.868,28.906 11.577,28.990 11.277,29.000 L11.277,29.000 ZM16.722,29.000 C16.427,29.000 16.134,28.926 15.875,28.788 C15.330,28.474 14.995,27.916 14.988,27.311 L14.988,16.457 C15.002,15.842 15.358,15.281 15.921,14.981 L25.496,10.717 C26.002,10.464 26.614,10.477 27.106,10.754 C27.658,11.062 27.996,11.623 28.000,12.231 L28.000,23.034 C28.014,23.673 27.654,24.268 27.067,24.575 L17.502,28.818 C17.260,28.940 16.993,29.004 16.722,29.000 L16.722,29.000 Z"/>
</svg>
