<svg 
 xmlns="http://www.w3.org/2000/svg"
 xmlns:xlink="http://www.w3.org/1999/xlink"
 width="44px" height="44px">
<path fill-rule="evenodd"  fill="rgb(109, 109, 116)"
 d="M22.001,20.714 C21.710,20.704 21.428,20.633 21.168,20.508 L10.621,15.798 C9.734,15.423 9.335,14.437 9.731,13.596 C9.909,13.217 10.226,12.917 10.621,12.751 L20.645,8.251 C21.502,7.869 22.494,7.869 23.351,8.251 L33.379,12.751 C34.265,13.126 34.664,14.113 34.269,14.954 C34.091,15.332 33.774,15.633 33.379,15.798 L22.831,20.504 C22.575,20.633 22.290,20.704 22.001,20.714 L22.001,20.714 ZM19.277,36.000 C19.007,36.000 18.740,35.936 18.501,35.815 L8.972,31.575 C8.367,31.274 7.993,30.679 8.000,30.034 L8.000,19.224 C8.004,18.616 8.345,18.058 8.894,17.748 C9.403,17.474 10.026,17.474 10.535,17.748 L20.047,21.984 C20.620,22.278 20.987,22.842 21.011,23.460 L21.011,34.284 C21.005,34.889 20.670,35.447 20.125,35.761 C19.868,35.906 19.577,35.990 19.277,36.000 L19.277,36.000 ZM24.722,36.000 C24.427,36.000 24.134,35.926 23.875,35.788 C23.330,35.474 22.995,34.916 22.988,34.311 L22.988,23.457 C23.002,22.842 23.358,22.281 23.921,21.981 L33.496,17.717 C34.002,17.464 34.614,17.478 35.106,17.754 C35.658,18.062 35.996,18.623 36.000,19.231 L36.000,30.034 C36.014,30.673 35.654,31.268 35.067,31.575 L25.502,35.818 C25.260,35.940 24.993,36.004 24.722,36.000 L24.722,36.000 Z"/>
<path fill-rule="evenodd"  fill="rgb(253, 38, 90)"
 d="M-0.000,43.000 L43.000,-0.000 L44.000,1.000 L1.000,44.000 L-0.000,43.000 Z"/>
</svg>
