<svg 
 xmlns="http://www.w3.org/2000/svg"
 xmlns:xlink="http://www.w3.org/1999/xlink"
 width="18px" height="14px">
<path fill-rule="evenodd"  fill="rgb(252, 119, 0)"
 d="M9.034,8.750 C8.113,8.750 7.192,9.100 6.617,9.683 C6.387,9.916 6.041,9.916 5.811,9.683 C5.466,9.450 5.581,8.983 5.811,8.633 C6.387,8.166 7.192,7.817 7.998,7.583 L9.034,8.750 ZM5.120,4.900 C4.315,5.250 3.625,5.716 3.049,6.300 C2.818,6.533 2.818,7.000 3.049,7.233 C3.280,7.466 3.740,7.466 3.855,7.233 C4.545,6.650 5.236,6.183 6.041,5.833 L5.120,4.900 ZM2.243,1.983 C1.553,2.450 0.747,3.033 0.171,3.733 C-0.059,3.966 -0.059,4.433 0.171,4.666 C0.402,4.900 0.747,4.900 0.977,4.666 C1.667,3.966 2.358,3.383 3.164,2.916 L2.243,1.983 ZM17.782,3.733 C15.480,1.400 12.372,-0.000 9.034,-0.000 C7.653,-0.000 6.387,0.233 5.236,0.583 L6.271,1.633 C7.077,1.400 7.998,1.283 9.034,1.283 C12.142,1.283 14.903,2.566 16.976,4.550 C17.207,4.900 17.551,4.900 17.782,4.550 C18.011,4.433 18.127,3.966 17.782,3.733 L17.782,3.733 ZM9.034,3.966 L8.574,3.966 L9.955,5.366 C11.451,5.483 12.947,6.183 13.983,7.233 C14.214,7.466 14.559,7.466 14.789,7.233 C15.134,7.000 15.134,6.533 14.789,6.300 C13.292,4.900 11.221,3.966 9.034,3.966 L9.034,3.966 ZM9.034,11.433 C8.344,11.433 7.768,12.016 7.768,12.716 C7.768,13.416 8.344,14.000 9.034,14.000 C9.725,14.000 10.300,13.416 10.300,12.716 C10.300,11.900 9.725,11.433 9.034,11.433 L9.034,11.433 ZM12.487,9.216 L11.336,8.050 L8.574,5.250 L7.422,4.083 L4.315,0.933 L3.625,0.233 C3.280,-0.000 2.933,-0.000 2.704,0.233 C2.473,0.466 2.473,0.933 2.704,1.166 L12.142,10.733 C12.372,10.966 12.833,10.966 13.062,10.733 C13.292,10.500 13.292,10.033 13.062,9.800 L12.487,9.216 Z"/>
</svg>
