<svg 
 xmlns="http://www.w3.org/2000/svg"
 xmlns:xlink="http://www.w3.org/1999/xlink"
 width="18px" height="14px">
<path fill-rule="evenodd"  fill="rgb(252, 225, 0)"
 d="M9.035,8.750 C8.114,8.750 7.194,9.100 6.618,9.683 C6.388,9.917 6.043,9.917 5.812,9.683 C5.467,9.450 5.582,8.983 5.812,8.633 C6.388,8.167 7.194,7.817 7.999,7.583 L9.035,8.750 ZM5.122,4.900 C4.316,5.250 3.626,5.717 3.050,6.300 C2.820,6.533 2.820,7.000 3.050,7.233 C3.280,7.467 3.741,7.467 3.856,7.233 C4.546,6.650 5.237,6.183 6.043,5.833 L5.122,4.900 ZM2.244,1.983 C1.554,2.450 0.748,3.033 0.173,3.733 C-0.058,3.967 -0.058,4.433 0.173,4.667 C0.403,4.900 0.748,4.900 0.978,4.667 C1.669,3.967 2.359,3.383 3.165,2.917 L2.244,1.983 ZM17.783,3.733 C15.481,1.400 12.373,-0.000 9.035,-0.000 C7.654,-0.000 6.388,0.233 5.237,0.583 L6.273,1.633 C7.078,1.400 7.999,1.283 9.035,1.283 C12.143,1.283 14.905,2.567 16.977,4.550 C17.207,4.900 17.552,4.900 17.783,4.550 C18.013,4.433 18.128,3.967 17.783,3.733 L17.783,3.733 ZM9.035,3.967 L8.575,3.967 L9.956,5.367 C11.452,5.483 12.948,6.183 13.984,7.233 C14.215,7.467 14.560,7.467 14.790,7.233 C15.135,7.000 15.135,6.533 14.790,6.300 C13.294,4.900 11.222,3.967 9.035,3.967 L9.035,3.967 ZM9.035,11.433 C8.345,11.433 7.769,12.017 7.769,12.717 C7.769,13.417 8.345,14.000 9.035,14.000 C9.726,14.000 10.301,13.417 10.301,12.717 C10.301,11.900 9.726,11.433 9.035,11.433 L9.035,11.433 ZM12.488,9.217 L11.337,8.050 L8.575,5.250 L7.424,4.083 L4.316,0.933 L3.626,0.233 C3.280,-0.000 2.935,-0.000 2.705,0.233 C2.474,0.467 2.474,0.933 2.705,1.167 L12.143,10.733 C12.373,10.967 12.833,10.967 13.064,10.733 C13.294,10.500 13.294,10.033 13.064,9.800 L12.488,9.217 Z"/>
</svg>
