<svg 
 xmlns="http://www.w3.org/2000/svg"
 xmlns:xlink="http://www.w3.org/1999/xlink"
 width="8px" height="10px">
<path fill-rule="evenodd"  fill="rgb(210, 210, 218)"
 d="M7.538,10.000 L5.728,10.000 C5.475,10.000 5.268,9.813 5.268,9.584 L5.268,0.416 C5.268,0.187 5.475,-0.000 5.728,-0.000 L7.538,-0.000 C7.791,-0.000 7.999,0.187 7.999,0.416 L7.999,9.584 C7.999,9.813 7.791,10.000 7.538,10.000 ZM2.270,10.000 L0.460,10.000 C0.206,10.000 -0.001,9.813 -0.001,9.584 L-0.001,0.416 C-0.001,0.187 0.206,-0.000 0.460,-0.000 L2.270,-0.000 C2.523,-0.000 2.731,0.187 2.731,0.416 L2.731,9.584 C2.731,9.813 2.523,10.000 2.270,10.000 Z"/>
</svg>
