<svg 
 xmlns="http://www.w3.org/2000/svg"
 xmlns:xlink="http://www.w3.org/1999/xlink"
 width="12px" height="12px">
<path fill-rule="evenodd"  fill="rgb(210, 210, 218)"
 d="M4.999,5.000 L1.001,5.000 C0.736,4.999 0.481,5.105 0.293,5.292 C0.106,5.480 -0.001,5.734 -0.001,6.000 C-0.001,6.556 0.448,7.000 1.001,7.000 L4.999,7.000 L4.999,10.997 C4.999,11.551 5.447,12.000 5.999,12.000 C6.555,12.000 6.999,11.551 6.999,10.997 L6.999,7.000 L10.996,7.000 C11.262,7.000 11.517,6.895 11.705,6.708 C11.893,6.520 11.999,6.265 11.999,6.000 C11.999,5.444 11.550,5.000 10.996,5.000 L6.999,5.000 L6.999,1.002 C6.999,0.737 6.894,0.482 6.707,0.294 C6.519,0.106 6.265,0.000 5.999,-0.000 C5.443,-0.000 4.999,0.449 4.999,1.002 L4.999,5.000 Z"/>
</svg>
