<svg 
 xmlns="http://www.w3.org/2000/svg"
 xmlns:xlink="http://www.w3.org/1999/xlink"
 width="14px" height="14px">
<path fill-rule="evenodd"  fill="rgb(219, 219, 224)"
 d="M12.534,14.000 L1.464,14.000 C0.658,14.000 -0.001,13.341 -0.001,12.534 L-0.001,1.465 C-0.001,0.659 0.658,-0.000 1.464,-0.000 L12.531,-0.000 C13.340,-0.000 13.999,0.659 13.999,1.465 L13.999,12.532 C13.999,13.341 13.340,14.000 12.534,14.000 ZM8.367,4.810 L7.767,4.810 L7.767,5.824 C7.767,5.865 7.751,5.903 7.724,5.933 L7.190,6.510 C7.161,6.543 7.119,6.562 7.073,6.562 L6.925,6.562 C6.879,6.562 6.838,6.543 6.805,6.510 L6.272,5.933 C6.244,5.903 6.228,5.865 6.228,5.824 L6.228,4.810 L5.632,4.810 C5.541,4.810 5.471,4.736 5.471,4.648 L5.471,3.101 L0.321,3.101 L0.321,10.079 L4.166,10.079 L4.166,8.591 C4.166,8.580 4.179,8.575 4.181,8.565 C4.184,8.546 4.178,8.527 4.188,8.509 C4.199,8.491 4.220,8.485 4.236,8.473 C4.243,8.468 4.241,8.456 4.248,8.452 L6.917,6.910 C6.966,6.880 7.029,6.880 7.078,6.910 L9.747,8.452 C9.752,8.455 9.751,8.464 9.756,8.468 C9.775,8.481 9.798,8.488 9.810,8.509 C9.821,8.529 9.816,8.552 9.818,8.574 C9.819,8.581 9.829,8.584 9.829,8.591 L9.829,10.079 L13.671,10.079 C13.672,10.079 13.672,10.080 13.674,10.080 L13.674,3.101 L8.528,3.101 L8.528,4.648 C8.528,4.738 8.456,4.810 8.367,4.810 ZM5.796,3.101 L5.796,4.484 L8.202,4.484 L8.202,3.101 L5.796,3.101 ZM8.202,1.911 L8.202,1.621 C8.202,1.381 8.006,1.184 7.765,1.184 L6.234,1.184 C5.992,1.184 5.796,1.381 5.796,1.621 L5.796,1.911 L8.202,1.911 ZM0.321,12.534 C0.321,13.163 0.833,13.677 1.464,13.677 L12.531,13.677 C13.160,13.677 13.674,13.166 13.674,12.534 L13.674,10.400 C13.672,10.400 13.672,10.401 13.671,10.401 L9.829,10.401 L9.829,11.673 C9.829,11.730 9.799,11.785 9.747,11.812 L7.081,13.355 C7.054,13.371 7.027,13.376 6.999,13.376 C6.972,13.376 6.944,13.368 6.917,13.355 L4.248,11.812 C4.200,11.782 4.166,11.730 4.166,11.673 L4.166,10.401 L0.321,10.401 L0.321,12.534 ZM12.531,0.322 L1.464,0.322 L1.464,0.325 C0.835,0.325 0.321,0.836 0.321,1.468 L0.321,1.911 L5.471,1.911 L5.471,1.621 C5.471,1.200 5.812,0.858 6.234,0.858 L7.765,0.858 C8.185,0.858 8.528,1.200 8.528,1.621 L8.528,1.911 L13.674,1.911 L13.674,1.465 C13.674,0.836 13.162,0.322 12.531,0.322 Z"/>
</svg>
