<svg 
 xmlns="http://www.w3.org/2000/svg"
 xmlns:xlink="http://www.w3.org/1999/xlink"
 width="14px" height="14px">
<path fill-rule="evenodd"  fill="rgb(150, 150, 157)"
 d="M11.900,2.100 C10.675,0.787 8.925,0.000 7.000,0.000 C3.150,0.000 0.000,3.150 0.000,7.000 C0.000,10.850 3.150,14.000 7.000,14.000 C10.238,14.000 12.950,11.725 13.738,8.750 L11.900,8.750 C11.200,10.763 9.275,12.250 7.000,12.250 C4.112,12.250 1.750,9.888 1.750,7.000 C1.750,4.112 4.113,1.750 7.000,1.750 C8.487,1.750 9.713,2.363 10.675,3.325 L7.875,6.125 L14.000,6.125 L14.000,0.000 L11.900,2.100 Z"/>
</svg>
