<svg 
 xmlns="http://www.w3.org/2000/svg"
 xmlns:xlink="http://www.w3.org/1999/xlink"
 width="14px" height="14px">
<path fill-rule="evenodd"  fill="rgb(206, 206, 214)"
 d="M11.899,2.100 C10.674,0.787 8.925,-0.000 6.999,-0.000 C3.149,-0.000 -0.001,3.150 -0.001,7.000 C-0.001,10.850 3.149,14.000 6.999,14.000 C10.237,14.000 12.949,11.725 13.736,8.750 L11.899,8.750 C11.200,10.762 9.275,12.250 6.999,12.250 C4.111,12.250 1.749,9.887 1.749,7.000 C1.749,4.112 4.111,1.750 6.999,1.750 C8.487,1.750 9.712,2.362 10.674,3.325 L7.874,6.125 L13.999,6.125 L13.999,-0.000 L11.899,2.100 Z"/>
</svg>
