<svg 
 xmlns="http://www.w3.org/2000/svg"
 xmlns:xlink="http://www.w3.org/1999/xlink"
 width="21px" height="16px">
<path fill-rule="evenodd"  fill="rgb(255, 255, 255)"
 d="M19.937,7.644 C20.021,7.911 20.021,8.089 19.937,8.355 C19.937,8.355 19.853,8.622 19.770,8.711 C19.686,8.978 19.519,9.244 19.352,9.600 C18.935,10.311 18.350,11.200 17.515,12.178 C15.929,14.044 13.423,16.000 9.999,16.000 C6.576,16.000 4.070,14.044 2.484,12.178 C1.649,11.200 1.064,10.311 0.647,9.600 L0.229,8.711 C0.145,8.622 0.062,8.355 0.062,8.355 C-0.022,8.178 -0.022,7.911 0.062,7.644 C0.062,7.644 0.145,7.378 0.229,7.289 C0.312,7.022 0.480,6.755 0.647,6.400 C1.064,5.689 1.649,4.800 2.484,3.822 C4.070,1.956 6.576,-0.000 9.999,-0.000 C13.423,-0.000 15.929,1.956 17.515,3.822 C18.350,4.800 18.935,5.689 19.352,6.400 L19.770,7.289 C19.853,7.378 19.937,7.644 19.937,7.644 L19.937,7.644 ZM9.999,4.800 C11.502,4.800 12.838,6.222 12.838,8.000 C12.838,9.778 11.502,11.200 9.999,11.200 C8.496,11.200 7.160,9.778 7.160,8.000 C7.160,6.222 8.496,4.800 9.999,4.800 L9.999,4.800 ZM5.490,8.000 C5.490,10.667 7.494,12.978 9.999,12.978 C12.504,12.978 14.509,10.667 14.509,8.000 C14.509,5.333 12.504,3.022 9.999,3.022 C7.494,3.022 5.490,5.333 5.490,8.000 L5.490,8.000 Z"/>
</svg>
