<svg 
 xmlns="http://www.w3.org/2000/svg"
 xmlns:xlink="http://www.w3.org/1999/xlink"
 width="21px" height="16px">
<path fill-rule="evenodd"  fill="rgb(0, 0, 0)"
 d="M19.935,7.644 C20.019,7.911 20.019,8.088 19.935,8.355 C19.935,8.355 19.852,8.622 19.767,8.711 C19.685,8.977 19.518,9.244 19.351,9.600 C18.933,10.311 18.348,11.200 17.514,12.177 C15.927,14.044 13.421,16.000 9.997,16.000 C6.573,16.000 4.068,14.044 2.482,12.177 C1.646,11.200 1.062,10.311 0.644,9.600 L0.227,8.711 C0.143,8.622 0.060,8.355 0.060,8.355 C-0.024,8.177 -0.024,7.911 0.060,7.644 C0.060,7.644 0.143,7.377 0.227,7.289 C0.311,7.022 0.478,6.755 0.644,6.400 C1.062,5.689 1.646,4.800 2.482,3.822 C4.068,1.955 6.573,-0.000 9.997,-0.000 C13.421,-0.000 15.927,1.955 17.514,3.822 C18.348,4.800 18.933,5.689 19.351,6.400 L19.767,7.289 C19.852,7.377 19.935,7.644 19.935,7.644 L19.935,7.644 ZM9.997,4.800 C11.500,4.800 12.836,6.222 12.836,8.000 C12.836,9.777 11.500,11.200 9.997,11.200 C8.495,11.200 7.158,9.777 7.158,8.000 C7.158,6.222 8.495,4.800 9.997,4.800 L9.997,4.800 ZM5.487,8.000 C5.487,10.666 7.492,12.977 9.997,12.977 C12.502,12.977 14.506,10.666 14.506,8.000 C14.506,5.333 12.502,3.022 9.997,3.022 C7.492,3.022 5.487,5.333 5.487,8.000 L5.487,8.000 Z"/>
</svg>
