<svg 
 xmlns="http://www.w3.org/2000/svg"
 xmlns:xlink="http://www.w3.org/1999/xlink"
 width="12px" height="12px">
<path fill-rule="evenodd"  fill="rgb(210, 210, 218)"
 d="M5.998,12.000 C2.684,12.000 -0.002,9.313 -0.002,6.000 C-0.002,2.686 2.684,-0.001 5.998,-0.001 C9.311,-0.001 11.998,2.686 11.998,6.000 C11.998,9.313 9.311,12.000 5.998,12.000 ZM9.998,6.000 C9.998,5.076 9.672,4.236 9.146,3.558 L3.556,9.147 C4.234,9.673 5.074,10.000 5.998,10.000 C8.207,10.000 9.998,8.208 9.998,6.000 ZM1.997,6.000 C1.997,6.923 2.323,7.763 2.849,8.440 L8.439,2.851 C7.762,2.325 6.922,1.999 5.998,1.999 C3.789,1.999 1.997,3.790 1.997,6.000 Z"/>
</svg>
