<svg 
 xmlns="http://www.w3.org/2000/svg"
 xmlns:xlink="http://www.w3.org/1999/xlink"
 width="13px" height="14px">
<path fill-rule="evenodd"  fill="rgb(30, 155, 226)"
 d="M-0.000,0.875 C-0.000,0.394 0.418,-0.000 0.929,-0.000 L9.982,-0.000 C10.121,-0.000 10.261,0.044 10.353,0.175 L12.907,3.369 C12.953,3.456 13.000,3.544 13.000,3.631 L13.000,13.125 C13.000,13.606 12.582,14.000 12.071,14.000 L0.929,14.000 C0.418,14.000 -0.000,13.606 -0.000,13.125 L-0.000,0.875 ZM1.857,1.750 L1.857,4.375 L3.714,4.375 L3.714,1.750 L1.857,1.750 ZM4.643,1.750 L4.643,4.375 L6.500,4.375 L6.500,1.750 L4.643,1.750 ZM7.428,1.750 L7.428,4.375 L9.286,4.375 L9.286,1.750 L7.428,1.750 Z"/>
</svg>
