<svg 
 xmlns="http://www.w3.org/2000/svg"
 xmlns:xlink="http://www.w3.org/1999/xlink"
 width="10px" height="6px">
<path fill-rule="evenodd"  fill="rgb(210, 210, 218)"
 d="M8.257,5.699 C8.454,5.900 8.694,6.000 8.974,6.000 C9.253,6.000 9.492,5.900 9.691,5.699 C9.896,5.498 9.999,5.258 9.999,4.979 C9.999,4.699 9.896,4.459 9.691,4.258 L5.716,0.259 C5.631,0.159 5.525,0.089 5.397,0.050 C5.270,0.010 5.135,-0.006 4.994,0.001 C4.852,0.009 4.712,0.039 4.574,0.093 C4.436,0.146 4.317,0.223 4.218,0.324 L0.308,4.258 C0.102,4.459 -0.001,4.699 -0.001,4.979 C-0.001,5.258 0.102,5.498 0.308,5.699 C0.406,5.799 0.518,5.874 0.642,5.925 C0.766,5.975 0.893,6.000 1.025,6.000 C1.155,6.000 1.286,5.975 1.412,5.925 C1.540,5.874 1.654,5.799 1.753,5.699 L5.004,2.452 L8.257,5.699 Z"/>
</svg>
