<svg 
 xmlns="http://www.w3.org/2000/svg"
 xmlns:xlink="http://www.w3.org/1999/xlink"
 width="20px" height="20px">
<path fill-rule="evenodd"  fill="rgb(23, 204, 95)"
 d="M10.000,-0.000 C4.500,-0.000 -0.000,4.500 -0.000,10.000 C-0.000,15.500 4.500,20.000 10.000,20.000 C15.500,20.000 20.000,15.500 20.000,10.000 C20.000,4.500 15.500,-0.000 10.000,-0.000 L10.000,-0.000 ZM10.000,19.000 C5.000,19.000 1.000,15.000 1.000,10.000 C1.000,5.000 5.000,1.000 10.000,1.000 C15.000,1.000 19.000,5.000 19.000,10.000 C19.000,15.000 15.000,19.000 10.000,19.000 L10.000,19.000 ZM11.700,6.000 L11.100,10.000 C11.000,10.600 10.500,11.000 10.000,11.000 C9.500,11.000 8.900,10.600 8.900,10.000 L8.300,6.000 C8.200,5.000 9.000,4.000 10.000,4.000 C11.000,4.000 11.900,4.900 11.700,6.000 L11.700,6.000 ZM11.100,12.400 C11.400,12.700 11.500,13.000 11.500,13.500 C11.500,13.900 11.400,14.300 11.100,14.600 C10.800,14.900 10.400,15.000 10.000,15.000 C9.600,15.000 9.200,14.900 8.900,14.600 C8.600,14.300 8.500,14.000 8.500,13.500 C8.500,13.100 8.600,12.700 8.900,12.400 C9.200,12.100 9.500,12.000 10.000,12.000 C10.500,12.000 10.800,12.100 11.100,12.400 L11.100,12.400 Z"/>
</svg>
