<svg 
 xmlns="http://www.w3.org/2000/svg"
 xmlns:xlink="http://www.w3.org/1999/xlink"
 width="20px" height="20px">
<path fill-rule="evenodd"  fill="rgb(252, 225, 0)"
 d="M10.000,-0.000 L-0.000,20.000 L20.000,20.000 L10.000,-0.000 Z"/>
<path fill-rule="evenodd"  fill="rgb(26, 23, 0)"
 d="M10.000,14.562 C9.447,14.562 9.000,14.101 9.000,13.531 L9.000,8.031 C9.000,7.461 9.447,7.000 10.000,7.000 C10.552,7.000 11.000,7.461 11.000,8.031 L11.000,13.531 C11.000,14.101 10.552,14.562 10.000,14.562 M10.000,15.938 C10.552,15.938 11.000,16.399 11.000,16.969 C11.000,17.538 10.552,18.000 10.000,18.000 C9.447,18.000 9.000,17.538 9.000,16.969 C9.000,16.399 9.447,15.938 10.000,15.938 "/>
</svg>
