<svg 
 xmlns="http://www.w3.org/2000/svg"
 xmlns:xlink="http://www.w3.org/1999/xlink"
 width="14px" height="16px">
<path fill-rule="evenodd"  fill="#333333"
 d="M10.820,7.908 L13.470,9.431 C13.798,9.619 14.000,9.968 14.000,10.345 L14.000,13.392 C14.000,13.769 13.798,14.117 13.470,14.306 L10.820,15.829 C10.492,16.017 10.088,16.017 9.760,15.829 L7.111,14.306 C6.783,14.117 6.581,13.769 6.581,13.392 L6.581,10.345 C6.581,9.968 6.783,9.619 7.111,9.431 L9.760,7.908 C10.088,7.719 10.492,7.719 10.820,7.908 L10.820,7.908 ZM6.639,0.000 C8.764,0.003 10.486,1.718 10.488,3.834 C10.488,4.995 9.969,6.035 9.147,6.740 C9.438,6.858 9.718,6.997 9.988,7.156 C9.857,7.159 9.728,7.187 9.607,7.238 L9.488,7.297 L8.339,7.955 C7.789,7.764 7.210,7.666 6.626,7.667 C3.849,7.671 1.563,9.845 1.431,12.608 L1.425,12.838 L1.425,13.755 L5.781,13.755 C5.798,14.063 5.951,14.349 6.198,14.536 L6.309,14.609 L7.290,15.173 L0.712,15.173 C0.359,15.173 0.059,14.916 0.006,14.568 L-0.000,14.463 L-0.000,12.822 C0.002,11.077 0.702,9.406 1.944,8.176 C2.568,7.556 3.308,7.065 4.123,6.733 C2.903,5.687 2.467,3.996 3.028,2.494 C3.590,0.992 5.030,-0.003 6.639,-0.001 L6.639,0.000 ZM10.245,8.847 L7.596,10.370 L7.596,13.417 L10.245,14.940 L12.894,13.417 L12.894,10.370 L10.245,8.847 ZM10.289,10.167 L11.773,11.019 L11.773,12.725 L10.289,13.580 L8.806,12.725 L8.806,11.019 L10.289,10.165 L10.289,10.167 ZM6.639,1.421 C5.302,1.423 4.218,2.502 4.217,3.834 C4.218,5.166 5.302,6.245 6.639,6.247 C7.977,6.244 9.060,5.165 9.062,3.834 C9.060,2.502 7.977,1.423 6.639,1.421 L6.639,1.421 Z"/>
</svg>
