<svg 
 xmlns="http://www.w3.org/2000/svg"
 xmlns:xlink="http://www.w3.org/1999/xlink"
 width="14px" height="16px">
<path fill-rule="evenodd"  fill="#333333"
 d="M13.223,12.167 L7.783,12.167 C7.739,12.167 7.700,12.150 7.657,12.144 C7.650,12.142 7.642,12.146 7.635,12.144 L7.637,12.151 C7.618,12.147 7.605,12.135 7.587,12.131 C7.510,12.112 7.440,12.084 7.375,12.045 C7.359,12.036 7.344,12.028 7.329,12.017 C7.261,11.971 7.204,11.917 7.156,11.852 C7.146,11.839 7.136,11.826 7.126,11.812 C7.089,11.754 7.063,11.693 7.044,11.625 C7.034,11.592 7.027,11.559 7.022,11.524 C7.019,11.500 7.007,11.479 7.007,11.455 C7.007,11.428 7.020,11.405 7.024,11.379 C7.026,11.347 7.017,11.316 7.025,11.284 C7.029,11.263 7.050,11.249 7.056,11.229 C7.080,11.165 7.117,11.109 7.158,11.055 C7.186,11.016 7.194,10.966 7.229,10.933 L8.654,9.589 C8.977,9.314 9.480,9.330 9.781,9.624 C10.059,9.897 10.068,10.319 9.799,10.603 L9.649,10.743 L13.223,10.743 C13.652,10.743 14.000,11.061 14.000,11.455 C14.000,11.849 13.652,12.167 13.223,12.167 ZM9.801,6.764 C10.112,6.883 10.413,7.023 10.702,7.183 C10.561,7.186 10.423,7.214 10.293,7.264 L10.166,7.324 L8.936,7.984 C8.346,7.792 7.725,7.695 7.100,7.696 C4.125,7.700 1.676,9.881 1.533,12.654 L1.528,12.885 L1.528,13.806 L5.195,13.806 C5.213,14.115 5.376,14.402 5.641,14.590 L5.760,14.663 L6.811,15.229 L0.764,15.229 C0.385,15.229 0.063,14.970 0.008,14.621 L-0.000,14.516 L-0.000,12.869 C0.003,11.118 0.752,9.440 2.084,8.206 C2.751,7.583 3.544,7.091 4.418,6.758 C3.111,5.708 2.644,4.011 3.245,2.503 C3.847,0.996 5.390,-0.003 7.114,-0.000 L7.114,0.000 C9.390,0.003 11.236,1.724 11.238,3.848 C11.238,5.013 10.681,6.058 9.801,6.764 ZM7.114,1.426 C5.681,1.428 4.520,2.511 4.518,3.848 C4.520,5.185 5.681,6.268 7.114,6.270 C8.547,6.267 9.707,5.184 9.710,3.848 C9.708,2.511 8.547,1.428 7.114,1.426 ZM7.783,13.229 L13.223,13.229 C13.271,13.229 13.312,13.247 13.358,13.254 C13.362,13.255 13.366,13.253 13.370,13.254 L13.370,13.249 C13.383,13.251 13.393,13.260 13.406,13.263 C13.494,13.283 13.572,13.315 13.645,13.359 C13.652,13.363 13.658,13.367 13.665,13.371 C13.744,13.423 13.809,13.485 13.862,13.559 C13.865,13.564 13.868,13.568 13.871,13.573 C13.917,13.639 13.947,13.711 13.966,13.790 C13.972,13.813 13.978,13.835 13.981,13.859 C13.985,13.887 14.000,13.912 14.000,13.941 C14.000,13.975 13.984,14.003 13.979,14.035 C13.976,14.063 13.984,14.089 13.978,14.116 C13.973,14.134 13.956,14.146 13.951,14.163 C13.927,14.230 13.890,14.287 13.846,14.344 C13.819,14.383 13.810,14.433 13.775,14.467 L12.350,15.811 C12.027,16.087 11.524,16.070 11.223,15.776 C10.945,15.503 10.936,15.081 11.206,14.798 L11.359,14.653 L7.783,14.653 C7.354,14.653 7.007,14.335 7.007,13.941 C7.007,13.548 7.354,13.229 7.783,13.229 ZM13.370,13.248 L13.370,13.249 C13.369,13.248 13.368,13.248 13.368,13.248 L13.370,13.248 Z"/>
</svg>
