<svg 
 xmlns="http://www.w3.org/2000/svg"
 xmlns:xlink="http://www.w3.org/1999/xlink"
 width="14px" height="14px">
<path fill-rule="evenodd"  fill="#333333"
 d="M12.871,11.321 L12.871,13.691 C12.871,13.894 12.757,13.995 12.530,13.995 L11.533,13.995 C11.305,13.995 11.191,13.894 11.191,13.691 L11.191,11.320 C10.532,11.039 10.072,10.442 10.072,9.746 C10.072,9.049 10.532,8.453 11.191,8.171 L11.191,0.300 C11.191,0.098 11.305,-0.004 11.533,-0.004 L12.530,-0.004 C12.757,-0.004 12.871,0.098 12.871,0.300 L12.871,8.171 C13.531,8.452 13.991,9.049 13.991,9.746 C13.991,10.443 13.531,11.040 12.871,11.321 ZM7.831,5.758 L7.831,13.691 C7.831,13.894 7.717,13.995 7.490,13.995 L6.493,13.995 C6.265,13.995 6.150,13.894 6.150,13.691 L6.150,5.757 C5.491,5.476 5.032,4.880 5.032,4.183 C5.032,3.487 5.491,2.891 6.150,2.609 L6.150,0.300 C6.150,0.098 6.265,-0.004 6.493,-0.004 L7.490,-0.004 C7.717,-0.004 7.831,0.098 7.831,0.300 L7.831,2.608 C8.492,2.889 8.952,3.486 8.952,4.183 C8.952,4.880 8.492,5.477 7.831,5.758 ZM2.791,11.321 L2.791,13.691 C2.791,13.894 2.677,13.995 2.450,13.995 L1.454,13.995 C1.225,13.995 1.111,13.894 1.111,13.691 L1.111,11.321 C0.451,11.039 -0.009,10.443 -0.009,9.746 C-0.009,9.049 0.451,8.452 1.111,8.171 L1.111,0.300 C1.111,0.098 1.225,-0.004 1.454,-0.004 L2.450,-0.004 C2.677,-0.004 2.791,0.098 2.791,0.300 L2.791,8.171 C3.451,8.452 3.910,9.049 3.910,9.746 C3.910,10.443 3.451,11.039 2.791,11.321 Z"/>
</svg>
