<svg 
 xmlns="http://www.w3.org/2000/svg"
 xmlns:xlink="http://www.w3.org/1999/xlink"
 width="14px" height="14px">
<path fill-rule="evenodd"  fill="rgb(65, 242, 135)"
 d="M3.516,11.508 L3.502,11.524 L3.502,11.518 L-0.002,9.099 L-0.002,2.650 L0.007,2.657 L3.506,0.064 L7.007,2.592 L5.879,3.443 L5.879,3.443 L7.007,2.592 L7.007,2.650 L7.007,7.765 L7.007,9.053 L3.516,11.508 Z"/>
<path fill-rule="evenodd"  fill="rgb(45, 223, 116)"
 d="M10.493,11.546 L10.493,11.468 L7.007,2.644 L8.200,3.472 L7.007,2.592 L10.495,-0.001 L13.997,2.655 L13.997,9.088 L10.493,11.546 Z"/>
<path fill-rule="evenodd"  fill="rgb(23, 204, 95)"
 d="M10.493,11.500 L10.493,11.546 L7.007,13.999 L3.502,11.524 L3.502,11.518 L3.502,5.238 L3.502,5.115 L5.879,3.443 L7.007,2.592 L8.200,3.472 L10.511,5.078 L10.511,11.512 L10.493,11.500 Z"/>
<path fill-rule="evenodd"  fill="rgb(16, 194, 87)"
 d="M10.511,11.512 L10.493,11.500 L10.493,11.546 L7.007,13.999 L7.007,9.111 L7.007,9.053 L7.007,7.765 L7.007,2.650 L7.007,2.644 L7.007,2.592 L8.200,3.472 L10.511,5.078 L10.511,11.512 Z"/>
<path fill-rule="evenodd"  fill="rgb(31, 226, 109)"
 d="M7.007,7.765 L3.502,5.238 L7.007,2.592 L10.502,5.172 L7.007,7.765 Z"/>
<path fill-rule="evenodd"  fill="rgb(124, 252, 174)"
 d="M3.502,5.238 L-0.002,2.664 L3.506,0.064 L7.007,2.592 L3.502,5.238 Z"/>
<path fill-rule="evenodd"  fill="rgb(65, 242, 135)"
 d="M10.502,5.172 L7.007,2.592 L10.495,-0.001 L13.997,2.655 L10.502,5.172 Z"/>
</svg>
