<svg 
 xmlns="http://www.w3.org/2000/svg"
 xmlns:xlink="http://www.w3.org/1999/xlink"
 width="15px" height="16px">
<path fill-rule="evenodd"  fill="#333333"
 d="M12.798,9.960 C12.095,9.285 11.274,8.762 10.380,8.405 C11.582,7.557 12.363,6.192 12.363,4.657 C12.363,2.088 10.179,-0.001 7.496,-0.001 C4.814,-0.001 2.631,2.088 2.631,4.657 C2.631,6.192 3.410,7.557 4.612,8.405 C3.719,8.762 2.898,9.285 2.194,9.960 C0.777,11.316 -0.004,13.119 -0.004,15.036 C-0.004,15.568 0.447,15.999 1.002,15.999 C1.557,15.999 2.008,15.568 2.008,15.036 C2.008,12.139 4.470,9.782 7.496,9.782 C10.523,9.782 12.985,12.139 12.985,15.036 C12.985,15.568 13.435,15.999 13.990,15.999 C14.546,15.999 14.996,15.568 14.996,15.036 C14.996,13.119 14.216,11.316 12.798,9.960 L12.798,9.960 ZM7.496,1.924 C9.071,1.924 10.351,3.150 10.351,4.657 C10.351,6.164 9.071,7.390 7.496,7.390 C5.922,7.390 4.641,6.164 4.641,4.657 C4.641,3.150 5.922,1.924 7.496,1.924 L7.496,1.924 Z"/>
</svg>
