<svg 
 xmlns="http://www.w3.org/2000/svg"
 xmlns:xlink="http://www.w3.org/1999/xlink"
 width="25.5px" height="25.5px">
<path fill-rule="evenodd"  stroke="rgb(23, 204, 95)" stroke-width="1px" stroke-linecap="butt" stroke-linejoin="miter" fill="none"
 d="M5.500,0.500 L19.500,0.500 C22.261,0.500 24.500,2.739 24.500,5.500 L24.500,19.500 C24.500,22.261 22.261,24.500 19.500,24.500 L5.500,24.500 C2.738,24.500 0.500,22.261 0.500,19.500 L0.500,5.500 C0.500,2.739 2.738,0.500 5.500,0.500 Z"/>
<path fill-rule="evenodd"  fill="rgb(23, 204, 95)"
 d="M18.824,13.171 L15.599,13.171 C15.228,13.171 14.928,12.870 14.928,12.499 C14.928,12.127 15.228,11.826 15.599,11.826 L18.824,11.826 C19.195,11.826 19.495,12.127 19.495,12.499 C19.495,12.870 19.195,13.171 18.824,13.171 ZM18.806,8.132 L17.371,8.132 C17.000,8.132 16.699,7.831 16.699,7.459 C16.699,7.088 17.000,6.787 17.371,6.787 L18.806,6.787 C19.175,6.787 19.477,7.088 19.477,7.459 C19.477,7.831 19.175,8.132 18.806,8.132 ZM14.257,9.420 C13.177,9.420 12.299,8.540 12.299,7.459 C12.299,6.378 13.177,5.499 14.257,5.499 C15.335,5.499 16.214,6.378 16.214,7.459 C16.214,8.540 15.335,9.420 14.257,9.420 ZM11.125,8.132 L6.166,8.132 C5.796,8.132 5.495,7.831 5.495,7.459 C5.495,7.088 5.796,6.787 6.166,6.787 L11.125,6.787 C11.495,6.787 11.796,7.088 11.796,7.459 C11.796,7.831 11.495,8.132 11.125,8.132 ZM6.185,11.826 L9.279,11.826 C9.650,11.826 9.950,12.127 9.950,12.499 C9.950,12.870 9.650,13.171 9.279,13.171 L6.185,13.171 C5.815,13.171 5.514,12.870 5.514,12.499 C5.514,12.127 5.815,11.826 6.185,11.826 ZM6.185,16.866 L7.564,16.866 C7.935,16.866 8.235,17.167 8.235,17.538 C8.235,17.909 7.935,18.210 7.564,18.210 L6.185,18.210 C5.815,18.210 5.514,17.909 5.514,17.538 C5.514,17.167 5.815,16.866 6.185,16.866 ZM10.748,15.577 C11.828,15.577 12.704,16.457 12.704,17.538 C12.704,18.619 11.828,19.499 10.748,19.499 C9.668,19.499 8.791,18.619 8.791,17.538 C8.791,16.457 9.668,15.577 10.748,15.577 ZM12.455,14.459 C11.376,14.459 10.497,13.580 10.497,12.499 C10.497,11.417 11.376,10.538 12.455,10.538 C13.533,10.538 14.412,11.417 14.412,12.499 C14.412,13.580 13.533,14.459 12.455,14.459 ZM13.885,16.866 L18.824,16.866 C19.195,16.866 19.495,17.167 19.495,17.538 C19.495,17.909 19.195,18.210 18.824,18.210 L13.885,18.210 C13.513,18.210 13.213,17.909 13.213,17.538 C13.213,17.167 13.513,16.866 13.885,16.866 Z"/>
</svg>
