<svg width="14" height="14" viewBox="0 0 14 14" fill="none" xmlns="http://www.w3.org/2000/svg">
<path fill-rule="evenodd" clip-rule="evenodd" d="M0.332185 13.3036C0.55384 13.5479 0.847401 13.6814 1.15104 13.6763H1.15203H4.3286C4.63225 13.6814 4.92581 13.5479 5.14746 13.3036C5.25359 13.1841 5.33776 13.0403 5.39484 12.881C5.45192 12.7217 5.48067 12.5503 5.47926 12.3775V11.0825H4.30538V12.1947C4.30363 12.2678 4.27753 12.3372 4.23267 12.3879C4.18785 12.4386 4.12786 12.4665 4.0657 12.4657H1.47528C1.4437 12.4699 1.41179 12.4659 1.38171 12.4539C1.36125 12.4457 1.34202 12.434 1.32459 12.4193C1.32117 12.4163 1.3178 12.4133 1.31451 12.4102C1.30989 12.4058 1.30549 12.4012 1.30126 12.3964C1.27832 12.3706 1.26054 12.3391 1.24914 12.3042C1.23777 12.2693 1.23303 12.2319 1.23529 12.1947V2.00637C1.23615 1.97118 1.2426 1.93685 1.25409 1.90504C1.2608 1.88649 1.26922 1.86875 1.27926 1.85226C1.28776 1.83824 1.29737 1.82512 1.3081 1.813C1.353 1.76229 1.41303 1.73439 1.47528 1.73529H4.04428C4.05625 1.73499 4.06817 1.73575 4.07996 1.73756C4.09034 1.73916 4.10064 1.74158 4.11076 1.74479C4.11884 1.74736 4.12683 1.75047 4.13465 1.75409C4.16344 1.76726 4.18972 1.78707 4.21198 1.81225C4.23428 1.83743 4.2521 1.86754 4.26444 1.90086C4.26872 1.91237 4.27231 1.92419 4.27517 1.9362C4.28064 1.95897 4.28358 1.98254 4.28397 2.00632V3.09399H5.47832V1.79893C5.47883 1.73786 5.47554 1.67699 5.46862 1.61682C5.4635 1.57244 5.45636 1.52841 5.44726 1.48493C5.44064 1.45336 5.43299 1.42205 5.42432 1.39108C5.4153 1.35881 5.40513 1.32695 5.3939 1.29548C5.37074 1.23089 5.34314 1.16887 5.31144 1.10996C5.28935 1.06894 5.2653 1.02943 5.23932 0.991685C5.21061 0.949915 5.17963 0.910206 5.14648 0.87286C4.92482 0.628576 4.63131 0.494974 4.32762 0.500151H1.15104C0.847401 0.494974 0.55384 0.628576 0.332185 0.87286C0.226014 0.992338 0.141761 1.13619 0.0846384 1.29543C0.0514841 1.38782 0.0279001 1.48432 0.0141855 1.58274C0.00918676 1.61843 0.00551245 1.65442 0.00316259 1.69056C0.000812741 1.72655 -0.000212649 1.76269 4.36982e-05 1.79893V12.3775C-0.00128076 12.5504 0.0275156 12.7218 0.0846384 12.881C0.141761 13.0403 0.226014 13.1841 0.332185 13.3036ZM6.61379 9.14706C6.49408 9.14691 6.37919 9.09152 6.29383 8.9927C6.25059 8.94686 6.21607 8.89081 6.19244 8.82823C6.16878 8.76565 6.15656 8.6979 6.15656 8.62944C6.15656 8.56093 6.16878 8.49322 6.19244 8.43064C6.21607 8.36806 6.25059 8.31202 6.29383 8.26613L6.90466 7.58098H4.3649C4.2862 7.84868 4.14183 8.09347 3.95094 8.26613C3.76009 8.43873 3.5304 8.54178 3.29029 8.56243V8.56615H3.18467C3.02433 8.57374 2.86433 8.54313 2.71432 8.47618C2.56427 8.40923 2.42725 8.30729 2.31155 8.17651C2.24721 8.10382 2.19022 8.02305 2.14147 7.93579C2.1025 7.86607 2.06952 7.78208 2.04158 7.70493C1.97869 7.53121 1.94626 7.34438 1.94626 7.15559C1.94626 6.9668 1.97869 6.72322 2.04158 6.5495C2.10447 6.37584 2.19654 6.21886 2.31228 6.08808C2.42798 5.95729 2.565 5.85535 2.71505 5.7884C2.79768 5.75151 2.88334 5.72567 2.97041 5.71115C3.04142 5.69933 3.11337 5.69501 3.1854 5.69838C3.41637 5.69551 3.64341 5.7683 3.84122 5.90858C4.039 6.04887 4.19973 6.30788 4.30538 6.5495H6.90821L6.29669 5.8643C6.2535 5.81841 6.21893 5.76236 6.19531 5.69984C6.1845 5.67119 6.17608 5.64143 6.1701 5.61102C6.16305 5.57503 6.15946 5.53814 6.15946 5.50104C6.15946 5.43253 6.17168 5.36482 6.19531 5.30225C6.20902 5.26596 6.22641 5.23183 6.24705 5.20061C6.26196 5.17804 6.27858 5.15698 6.29669 5.13773C6.32275 5.10717 6.35185 5.08053 6.3833 5.05836C6.40265 5.04469 6.4229 5.03273 6.44388 5.02263C6.49891 4.99604 6.55787 4.98251 6.61734 4.98287C6.64242 4.98302 6.66741 4.98563 6.69202 4.99061C6.72578 4.99749 6.7588 5.0089 6.7905 5.02464C6.84532 5.05188 6.89497 5.09159 6.93666 5.1415L8.64706 7.06521L6.93508 8.9927C6.89283 9.04206 6.84267 9.08111 6.78756 9.1076C6.7324 9.13409 6.67335 9.14751 6.61379 9.14706ZM9.1 2.14706C9.1 1.23743 9.72681 0.5 10.5 0.5H12.6C13.3732 0.5 14 1.23743 14 2.14706V12.0294C14 12.939 13.3732 13.6765 12.6 13.6765H10.5C9.72681 13.6765 9.1 12.939 9.1 12.0294V2.14706ZM12.95 7.08823C12.95 7.99787 12.3232 8.73529 11.55 8.73529C10.7768 8.73529 10.15 7.99787 10.15 7.08823C10.15 6.1786 10.7768 5.44118 11.55 5.44118C12.3232 5.44118 12.95 6.1786 12.95 7.08823Z" fill="#333333"/>
</svg>
