<svg width="24" height="24" viewBox="0 0 24 24" fill="none" xmlns="http://www.w3.org/2000/svg">
<g id="&#232;&#135;&#170;&#229;&#138;&#168;&#230;&#152;&#160;&#229;&#176;&#132;">
<path id="Union" fill-rule="evenodd" clip-rule="evenodd" d="M3.90337 19.5472C4.17252 19.8439 4.52899 20.006 4.8977 19.9998H4.89889H8.75616C9.12487 20.006 9.48134 19.8439 9.75049 19.5472C9.87936 19.4021 9.98156 19.2275 10.0509 19.0341C10.1202 18.8406 10.1551 18.6326 10.1534 18.4227V16.8502H8.72797V18.2007C8.72584 18.2894 8.69414 18.3737 8.63967 18.4353C8.58525 18.4968 8.51241 18.5308 8.43692 18.5298H5.29141C5.25307 18.5349 5.21432 18.53 5.17779 18.5154C5.15294 18.5056 5.1296 18.4913 5.10843 18.4734C5.10428 18.4698 5.10018 18.4662 5.09619 18.4623C5.09058 18.457 5.08524 18.4515 5.0801 18.4457C5.05224 18.4142 5.03066 18.376 5.01681 18.3337C5.00301 18.2913 4.99725 18.2459 5 18.2007V5.82916C5.00104 5.78644 5.00887 5.74475 5.02283 5.70612C5.03097 5.68359 5.04119 5.66205 5.05338 5.64203C5.06371 5.625 5.07538 5.60907 5.0884 5.59436C5.14293 5.53278 5.21582 5.4989 5.29141 5.5H8.41092C8.42544 5.49963 8.43992 5.50055 8.45424 5.50275C8.46684 5.5047 8.47935 5.50763 8.49164 5.51154C8.50145 5.51465 8.51115 5.51843 8.52064 5.52283C8.55561 5.53882 8.58752 5.56287 8.61454 5.59344C8.64163 5.62402 8.66326 5.66058 8.67825 5.70105C8.68344 5.71503 8.6878 5.72937 8.69128 5.74396C8.69792 5.77161 8.7015 5.80023 8.70196 5.8291V7.14984H10.1522V5.57727C10.1529 5.50311 10.1489 5.4292 10.1405 5.35614C10.1342 5.30225 10.1256 5.24878 10.1145 5.19598C10.1065 5.15765 10.0972 5.11963 10.0867 5.08203C10.0757 5.04285 10.0634 5.00415 10.0497 4.96594C10.0216 4.88751 9.9881 4.81219 9.9496 4.74066C9.92278 4.69086 9.89357 4.64288 9.86203 4.59705C9.82717 4.54633 9.78955 4.49811 9.7493 4.45276C9.48014 4.15613 9.12373 3.9939 8.75497 4.00018H4.8977C4.52899 3.9939 4.17252 4.15613 3.90337 4.45276C3.77445 4.59784 3.67214 4.77252 3.60278 4.96588C3.56252 5.07806 3.53388 5.19525 3.51723 5.31476C3.51116 5.35809 3.50669 5.40179 3.50384 5.44568C3.50099 5.48938 3.49974 5.53326 3.50005 5.57727V18.4227C3.49844 18.6326 3.53341 18.8407 3.60278 19.0341C3.67214 19.2275 3.77445 19.4022 3.90337 19.5472ZM11.531 14.5C11.3857 14.4998 11.2462 14.4326 11.1425 14.3126C11.09 14.2569 11.0481 14.1888 11.0194 14.1129C10.9907 14.0369 10.9758 13.9546 10.9758 13.8715C10.9758 13.7883 10.9907 13.7061 11.0194 13.6301C11.0481 13.5541 11.09 13.486 11.1425 13.4303L11.8842 12.5983H8.80024C8.70467 12.9234 8.52937 13.2206 8.29757 13.4303C8.06582 13.6399 7.78692 13.765 7.49535 13.7901V13.7946H7.36711C7.1724 13.8038 6.97811 13.7667 6.79596 13.6854C6.61376 13.6041 6.44738 13.4803 6.30689 13.3215C6.22876 13.2332 6.15955 13.1351 6.10035 13.0292C6.05304 12.9445 6.01299 12.8425 5.97906 12.7488C5.90269 12.5379 5.86332 12.311 5.86332 12.0818C5.86332 11.8525 5.90269 11.5568 5.97906 11.3458C6.05543 11.1349 6.16723 10.9443 6.30777 10.7855C6.44826 10.6267 6.61464 10.5029 6.79684 10.4216C6.89718 10.3768 7.0012 10.3455 7.10693 10.3278C7.19315 10.3135 7.28052 10.3082 7.36799 10.3123C7.64845 10.3088 7.92414 10.3972 8.16434 10.5676C8.4045 10.7379 8.59967 11.0524 8.72797 11.3458H11.8885L11.146 10.5138C11.0935 10.4581 11.0516 10.39 11.0229 10.3141C11.0097 10.2793 10.9995 10.2432 10.9923 10.2062C10.9837 10.1625 10.9793 10.1177 10.9793 10.0727C10.9793 9.9895 10.9942 9.90729 11.0229 9.8313C11.0395 9.78723 11.0606 9.74579 11.0857 9.70789C11.1038 9.68048 11.124 9.65491 11.146 9.63153C11.1776 9.59442 11.213 9.56207 11.2511 9.53516C11.2746 9.51855 11.2992 9.50403 11.3247 9.49176C11.3915 9.45947 11.4631 9.44305 11.5353 9.44348C11.5658 9.44366 11.5961 9.44684 11.626 9.45288C11.667 9.46124 11.7071 9.4751 11.7456 9.4942C11.8122 9.52728 11.8725 9.5755 11.9231 9.63611L14 11.972L11.9212 14.3126C11.8699 14.3725 11.809 14.4199 11.742 14.4521C11.6751 14.4843 11.6034 14.5005 11.531 14.5ZM14.55 6C14.55 4.89545 15.3111 4 16.25 4H18.8C19.7389 4 20.5 4.89545 20.5 6V18C20.5 19.1046 19.7389 20 18.8 20H16.25C15.3111 20 14.55 19.1046 14.55 18V6ZM19.225 12C19.225 13.1046 18.4639 14 17.525 14C16.5861 14 15.825 13.1046 15.825 12C15.825 10.8954 16.5861 10 17.525 10C18.4639 10 19.225 10.8954 19.225 12Z" fill="#B8BDC3"/>
</g>
</svg>
