<svg width="14" height="15" viewBox="0 0 14 15" fill="none" xmlns="http://www.w3.org/2000/svg">
<path fill-rule="evenodd" clip-rule="evenodd" d="M0.332185 13.8036C0.55384 14.0479 0.847401 14.1814 1.15104 14.1763H1.15203H4.3286C4.63225 14.1814 4.92581 14.0479 5.14746 13.8036C5.25359 13.6841 5.33776 13.5403 5.39484 13.381C5.45192 13.2217 5.48067 13.0503 5.47926 12.8775V11.5825H4.30538V12.6947C4.30363 12.7678 4.27753 12.8372 4.23267 12.8879C4.18785 12.9386 4.12786 12.9665 4.0657 12.9657H1.47528C1.4437 12.9699 1.41179 12.9659 1.38171 12.9539C1.36125 12.9457 1.34202 12.934 1.32459 12.9193C1.32117 12.9163 1.3178 12.9133 1.31451 12.9102C1.30989 12.9058 1.30549 12.9012 1.30126 12.8964C1.27832 12.8706 1.26054 12.8391 1.24914 12.8042C1.23777 12.7693 1.23303 12.7319 1.23529 12.6947V2.50637C1.23615 2.47118 1.2426 2.43685 1.25409 2.40504C1.2608 2.38649 1.26922 2.36875 1.27926 2.35226C1.28776 2.33824 1.29737 2.32512 1.3081 2.313C1.353 2.26229 1.41303 2.23439 1.47528 2.23529H4.04428C4.05625 2.23499 4.06817 2.23575 4.07996 2.23756C4.09034 2.23916 4.10064 2.24158 4.11076 2.24479C4.11884 2.24736 4.12683 2.25047 4.13465 2.25409C4.16344 2.26726 4.18972 2.28707 4.21198 2.31225C4.23428 2.33743 4.2521 2.36754 4.26444 2.40086C4.26872 2.41237 4.27231 2.42419 4.27517 2.4362C4.28064 2.45897 4.28358 2.48254 4.28397 2.50632V3.59399H5.47832V2.29893C5.47883 2.23786 5.47554 2.17699 5.46862 2.11682C5.4635 2.07244 5.45636 2.02841 5.44726 1.98493C5.44064 1.95336 5.43299 1.92205 5.42432 1.89108C5.4153 1.85881 5.40513 1.82695 5.3939 1.79548C5.37074 1.73089 5.34314 1.66887 5.31144 1.60996C5.28935 1.56894 5.2653 1.52943 5.23932 1.49168C5.21061 1.44992 5.17963 1.41021 5.14648 1.37286C4.92482 1.12858 4.63131 0.994974 4.32762 1.00015H1.15104C0.847401 0.994974 0.55384 1.12858 0.332185 1.37286C0.226014 1.49234 0.141761 1.63619 0.0846384 1.79543C0.0514841 1.88782 0.0279001 1.98432 0.0141855 2.08274C0.00918676 2.11843 0.00551245 2.15442 0.00316259 2.19056C0.000812741 2.22655 -0.000212649 2.26269 4.36982e-05 2.29893V12.8775C-0.00128076 13.0504 0.0275156 13.2218 0.0846384 13.381C0.141761 13.5403 0.226014 13.6841 0.332185 13.8036ZM6.61379 9.64706C6.49408 9.64691 6.37919 9.59152 6.29383 9.4927C6.25059 9.44686 6.21607 9.39081 6.19244 9.32823C6.16878 9.26565 6.15656 9.1979 6.15656 9.12944C6.15656 9.06093 6.16878 8.99322 6.19244 8.93064C6.21607 8.86806 6.25059 8.81202 6.29383 8.76613L6.90466 8.08098H4.3649C4.2862 8.34868 4.14183 8.59347 3.95094 8.76613C3.76009 8.93873 3.5304 9.04178 3.29029 9.06243V9.06615H3.18467C3.02433 9.07374 2.86433 9.04313 2.71432 8.97618C2.56427 8.90923 2.42725 8.80729 2.31155 8.67651C2.24721 8.60382 2.19022 8.52305 2.14147 8.43579C2.1025 8.36607 2.06952 8.28208 2.04158 8.20493C1.97869 8.03121 1.94626 7.84438 1.94626 7.65559C1.94626 7.4668 1.97869 7.22322 2.04158 7.0495C2.10447 6.87584 2.19654 6.71886 2.31228 6.58808C2.42798 6.45729 2.565 6.35535 2.71505 6.2884C2.79768 6.25151 2.88334 6.22567 2.97041 6.21115C3.04142 6.19933 3.11337 6.19501 3.1854 6.19838C3.41637 6.19551 3.64341 6.2683 3.84122 6.40858C4.039 6.54887 4.19973 6.80788 4.30538 7.0495H6.90821L6.29669 6.3643C6.2535 6.31841 6.21893 6.26236 6.19531 6.19984C6.1845 6.17119 6.17608 6.14143 6.1701 6.11102C6.16305 6.07503 6.15946 6.03814 6.15946 6.00104C6.15946 5.93253 6.17168 5.86482 6.19531 5.80225C6.20902 5.76596 6.22641 5.73183 6.24705 5.70061C6.26196 5.67804 6.27858 5.65698 6.29669 5.63773C6.32275 5.60717 6.35185 5.58053 6.3833 5.55836C6.40265 5.54469 6.4229 5.53273 6.44388 5.52263C6.49891 5.49604 6.55787 5.48251 6.61734 5.48287C6.64242 5.48302 6.66741 5.48563 6.69202 5.49061C6.72578 5.49749 6.7588 5.5089 6.7905 5.52464C6.84532 5.55188 6.89497 5.59159 6.93666 5.6415L8.64706 7.56521L6.93508 9.4927C6.89283 9.54206 6.84267 9.58111 6.78756 9.6076C6.7324 9.63409 6.67335 9.64751 6.61379 9.64706ZM9.1 2.64706C9.1 1.73743 9.72681 1 10.5 1H12.6C13.3732 1 14 1.73743 14 2.64706V12.5294C14 13.439 13.3732 14.1765 12.6 14.1765H10.5C9.72681 14.1765 9.1 13.439 9.1 12.5294V2.64706ZM12.95 7.58823C12.95 8.49787 12.3232 9.23529 11.55 9.23529C10.7768 9.23529 10.15 8.49787 10.15 7.58823C10.15 6.6786 10.7768 5.94118 11.55 5.94118C12.3232 5.94118 12.95 6.6786 12.95 7.58823Z" fill="white"/>
</svg>
