<svg 
 xmlns="http://www.w3.org/2000/svg"
 xmlns:xlink="http://www.w3.org/1999/xlink"
 width="22px" height="16px">
<path fill-rule="evenodd"  fill="rgb(255, 255, 255)"
 d="M21.624,11.207 C21.300,11.349 20.912,11.219 20.763,10.923 C20.731,10.864 19.948,9.466 18.125,9.490 C17.368,9.502 16.068,10.497 15.292,11.089 L15.014,11.302 C14.891,11.379 14.742,11.427 14.600,11.427 C14.413,11.427 14.225,11.355 14.102,11.213 C13.993,11.092 13.941,10.935 13.958,10.778 C13.975,10.622 14.059,10.478 14.193,10.378 L14.464,10.171 C15.486,9.389 16.890,8.316 18.105,8.299 L18.183,8.299 C20.828,8.299 21.889,10.331 21.934,10.420 C22.083,10.716 21.947,11.071 21.624,11.207 ZM10.998,12.439 C9.213,12.439 7.764,11.112 7.764,9.478 C7.764,8.536 8.257,7.693 9.063,7.134 C9.063,7.125 9.057,7.117 9.057,7.108 L9.057,1.777 C9.057,0.799 9.931,-0.000 10.998,-0.000 C12.065,-0.000 12.938,0.799 12.938,1.777 L12.938,4.887 C12.938,4.922 12.938,4.958 12.925,4.994 C12.938,5.023 12.938,5.059 12.938,5.094 L12.938,7.108 C12.938,7.118 12.932,7.126 12.932,7.136 C13.730,7.693 14.228,8.545 14.232,9.478 C14.232,11.112 12.782,12.439 10.998,12.439 ZM11.975,7.943 C11.826,7.865 11.717,7.734 11.674,7.582 C11.645,7.483 11.656,7.382 11.684,7.284 C11.664,7.228 11.645,7.170 11.645,7.108 L11.645,5.094 C11.645,5.059 11.651,5.023 11.657,4.987 C11.651,4.952 11.645,4.922 11.645,4.887 L11.645,1.777 C11.645,1.451 11.353,1.184 10.998,1.184 C10.642,1.184 10.351,1.451 10.351,1.777 L10.351,7.108 C10.351,7.197 10.326,7.279 10.287,7.355 C10.330,7.587 10.220,7.829 9.989,7.955 C9.407,8.287 9.057,8.856 9.057,9.478 C9.057,10.455 9.931,11.255 10.998,11.255 C12.065,11.255 12.938,10.455 12.938,9.478 C12.938,8.850 12.569,8.263 11.975,7.943 ZM6.593,11.012 C5.953,10.526 4.569,9.478 3.890,9.478 C2.040,9.483 1.264,10.864 1.232,10.923 C1.116,11.130 0.890,11.255 0.650,11.255 C0.428,11.255 0.221,11.151 0.103,10.979 C-0.015,10.807 -0.028,10.591 0.068,10.408 C0.113,10.319 1.207,8.305 3.884,8.293 L3.890,8.293 C4.951,8.293 6.192,9.170 7.370,10.064 C7.648,10.271 7.706,10.662 7.480,10.917 C7.254,11.166 6.872,11.225 6.593,11.012 ZM4.531,11.255 L4.544,11.255 C5.895,11.255 6.885,12.179 7.848,13.067 C8.812,13.962 9.724,14.809 10.940,14.809 L10.991,14.809 C12.239,14.785 13.164,13.944 14.141,13.055 C15.105,12.179 16.107,11.273 17.459,11.255 C20.110,11.225 21.830,13.802 21.908,13.915 C22.089,14.193 21.992,14.560 21.689,14.726 C21.384,14.892 20.983,14.803 20.802,14.525 C20.777,14.501 19.399,12.439 17.517,12.439 L17.478,12.439 C16.644,12.451 15.906,13.121 15.046,13.903 C13.985,14.868 12.776,15.964 11.011,16.000 C10.985,15.994 10.959,15.994 10.933,15.994 C9.180,15.994 7.984,14.880 6.923,13.897 C6.115,13.150 5.352,12.439 4.537,12.439 L4.531,12.439 C2.623,12.445 1.213,14.507 1.200,14.525 C1.012,14.803 0.618,14.892 0.307,14.720 C0.162,14.639 0.057,14.507 0.017,14.355 C-0.024,14.202 0.004,14.042 0.094,13.909 C0.171,13.802 1.898,11.267 4.531,11.255 Z"/>
</svg>
