<svg 
 xmlns="http://www.w3.org/2000/svg"
 xmlns:xlink="http://www.w3.org/1999/xlink"
 width="6px" height="10px">
<path fill-rule="evenodd"  fill="rgb(255, 255, 255)"
 d="M5.617,4.229 C5.543,4.266 5.467,4.283 5.387,4.283 C5.308,4.283 5.231,4.266 5.155,4.229 C5.078,4.194 5.010,4.140 4.951,4.069 L3.000,1.750 L1.048,4.069 C0.929,4.212 0.786,4.283 0.619,4.283 C0.450,4.283 0.306,4.212 0.188,4.069 C0.064,3.925 0.002,3.754 0.002,3.554 C0.002,3.355 0.064,3.183 0.188,3.040 L2.572,0.183 C2.623,0.111 2.687,0.061 2.764,0.034 C2.840,0.004 2.921,-0.006 3.006,-0.001 C3.091,0.004 3.175,0.026 3.258,0.064 C3.340,0.103 3.412,0.158 3.472,0.229 L5.817,3.040 C5.942,3.183 6.003,3.355 6.003,3.554 C6.003,3.754 5.942,3.925 5.817,4.069 C5.759,4.140 5.691,4.194 5.617,4.229 ZM2.572,5.897 C2.623,5.825 2.687,5.776 2.764,5.748 C2.840,5.719 2.921,5.708 3.006,5.713 C3.091,5.718 3.175,5.740 3.258,5.777 C3.340,5.817 3.412,5.872 3.472,5.943 L5.817,8.754 C5.942,8.898 6.003,9.068 6.003,9.268 C6.003,9.468 5.942,9.639 5.817,9.783 C5.759,9.854 5.691,9.908 5.617,9.944 C5.543,9.981 5.467,9.998 5.387,9.998 C5.308,9.998 5.231,9.981 5.155,9.944 C5.078,9.908 5.010,9.854 4.951,9.783 L3.000,7.463 L1.048,9.783 C0.929,9.926 0.786,9.998 0.619,9.998 C0.450,9.998 0.306,9.926 0.188,9.783 C0.064,9.639 0.002,9.468 0.002,9.268 C0.002,9.068 0.064,8.898 0.188,8.754 L2.572,5.897 Z"/>
</svg>
