<svg 
 xmlns="http://www.w3.org/2000/svg"
 xmlns:xlink="http://www.w3.org/1999/xlink"
 width="5px" height="7px">
<path fill-rule="evenodd"  fill="rgb(51, 51, 51)"
 d="M4.484,2.999 C4.345,2.999 4.226,2.949 4.126,2.849 L2.500,1.226 L0.874,2.849 C0.825,2.899 0.768,2.937 0.704,2.962 C0.641,2.987 0.576,2.999 0.511,2.999 C0.444,2.999 0.381,2.987 0.320,2.962 C0.257,2.937 0.201,2.899 0.152,2.849 C0.049,2.749 -0.003,2.629 -0.003,2.489 C-0.003,2.350 0.049,2.229 0.152,2.129 L2.107,0.161 C2.156,0.111 2.216,0.073 2.285,0.046 C2.354,0.019 2.424,0.004 2.495,0.000 C2.566,-0.003 2.633,0.005 2.696,0.024 C2.760,0.044 2.814,0.079 2.856,0.129 L4.844,2.129 C4.946,2.229 4.998,2.350 4.998,2.489 C4.998,2.629 4.946,2.749 4.844,2.849 C4.744,2.949 4.624,2.999 4.484,2.999 ZM2.107,4.162 C2.156,4.111 2.216,4.073 2.285,4.046 C2.354,4.019 2.424,4.004 2.495,4.000 C2.566,3.997 2.633,4.005 2.696,4.024 C2.760,4.044 2.814,4.079 2.856,4.129 L4.844,6.129 C4.946,6.229 4.998,6.349 4.998,6.489 C4.998,6.629 4.946,6.749 4.844,6.849 C4.744,6.949 4.624,7.000 4.484,7.000 C4.345,7.000 4.226,6.949 4.126,6.849 L2.500,5.226 L0.874,6.849 C0.825,6.899 0.768,6.937 0.704,6.962 C0.641,6.987 0.576,7.000 0.511,7.000 C0.444,7.000 0.381,6.987 0.320,6.962 C0.257,6.937 0.201,6.899 0.152,6.849 C0.049,6.749 -0.003,6.629 -0.003,6.489 C-0.003,6.349 0.049,6.229 0.152,6.129 L2.107,4.162 Z"/>
</svg>
