<svg 
 xmlns="http://www.w3.org/2000/svg"
 xmlns:xlink="http://www.w3.org/1999/xlink"
 width="6px" height="10px">
<path fill-rule="evenodd"  fill="rgb(255, 255, 255)"
 d="M3.472,4.053 C3.413,4.124 3.341,4.179 3.258,4.218 C3.175,4.256 3.092,4.278 3.006,4.283 C2.921,4.288 2.840,4.276 2.765,4.248 C2.688,4.220 2.624,4.170 2.573,4.098 L0.188,1.242 C0.065,1.098 0.002,0.927 0.002,0.728 C0.002,0.527 0.065,0.356 0.188,0.213 C0.307,0.069 0.451,-0.002 0.619,-0.002 C0.786,-0.002 0.929,0.069 1.049,0.213 L3.001,2.532 L4.952,0.213 C5.010,0.141 5.079,0.087 5.155,0.052 C5.231,0.015 5.309,-0.002 5.387,-0.002 C5.467,-0.002 5.543,0.015 5.617,0.052 C5.692,0.087 5.759,0.141 5.818,0.213 C5.942,0.356 6.003,0.527 6.003,0.728 C6.003,0.927 5.942,1.098 5.818,1.242 L3.472,4.053 ZM0.619,5.713 C0.786,5.713 0.929,5.784 1.049,5.927 L3.001,8.246 L4.952,5.927 C5.010,5.856 5.079,5.802 5.155,5.767 C5.231,5.729 5.309,5.713 5.387,5.713 C5.467,5.713 5.543,5.729 5.617,5.767 C5.692,5.802 5.759,5.856 5.818,5.927 C5.942,6.071 6.003,6.242 6.003,6.442 C6.003,6.641 5.942,6.813 5.818,6.956 L3.472,9.767 C3.413,9.838 3.341,9.893 3.258,9.931 C3.175,9.970 3.092,9.992 3.006,9.997 C2.921,10.002 2.840,9.991 2.765,9.963 C2.688,9.934 2.624,9.883 2.573,9.813 L0.188,6.956 C0.065,6.813 0.002,6.641 0.002,6.442 C0.002,6.242 0.065,6.071 0.188,5.927 C0.307,5.784 0.451,5.713 0.619,5.713 Z"/>
</svg>
