<svg 
 xmlns="http://www.w3.org/2000/svg"
 xmlns:xlink="http://www.w3.org/1999/xlink"
 width="5px" height="7px">
<path fill-rule="evenodd"  fill="rgb(51, 51, 51)"
 d="M2.856,2.871 C2.814,2.921 2.760,2.956 2.696,2.976 C2.633,2.995 2.566,3.003 2.495,3.000 C2.424,2.996 2.354,2.981 2.285,2.954 C2.216,2.927 2.156,2.889 2.107,2.838 L0.152,0.871 C0.049,0.771 -0.003,0.651 -0.003,0.511 C-0.003,0.371 0.049,0.251 0.152,0.151 C0.201,0.101 0.257,0.063 0.320,0.038 C0.381,0.013 0.444,0.000 0.511,0.000 C0.576,0.000 0.641,0.013 0.704,0.038 C0.768,0.063 0.825,0.101 0.874,0.151 L2.500,1.774 L4.126,0.151 C4.226,0.051 4.345,0.000 4.484,0.000 C4.624,0.000 4.744,0.051 4.844,0.151 C4.946,0.251 4.998,0.371 4.998,0.511 C4.998,0.651 4.946,0.771 4.844,0.871 L2.856,2.871 ZM0.320,4.038 C0.381,4.013 0.444,4.001 0.511,4.001 C0.576,4.001 0.641,4.013 0.704,4.038 C0.768,4.063 0.825,4.101 0.874,4.151 L2.500,5.774 L4.126,4.151 C4.226,4.051 4.345,4.001 4.484,4.001 C4.624,4.001 4.744,4.051 4.844,4.151 C4.946,4.251 4.998,4.371 4.998,4.511 C4.998,4.650 4.946,4.771 4.844,4.871 L2.856,6.871 C2.814,6.921 2.760,6.956 2.696,6.976 C2.633,6.995 2.566,7.003 2.495,7.000 C2.424,6.996 2.354,6.981 2.285,6.954 C2.216,6.927 2.156,6.889 2.107,6.839 L0.152,4.871 C0.049,4.771 -0.003,4.650 -0.003,4.511 C-0.003,4.371 0.049,4.251 0.152,4.151 C0.201,4.101 0.257,4.063 0.320,4.038 Z"/>
</svg>
