<svg 
 xmlns="http://www.w3.org/2000/svg"
 xmlns:xlink="http://www.w3.org/1999/xlink"
 width="14px" height="14px">
<path fill-rule="evenodd"  fill="rgb(23, 204, 95)"
 d="M2.998,-0.001 L10.998,-0.001 C12.655,-0.001 13.998,1.342 13.998,2.999 L13.998,10.999 C13.998,12.656 12.655,13.999 10.998,13.999 L2.998,13.999 C1.341,13.999 -0.002,12.656 -0.002,10.999 L-0.002,2.999 C-0.002,1.342 1.341,-0.001 2.998,-0.001 Z"/>
<path fill-rule="evenodd"  fill="rgb(255, 255, 255)"
 d="M2.500,7.000 L11.500,7.000 C11.776,7.000 12.000,7.224 12.000,7.500 C12.000,7.776 11.776,8.000 11.500,8.000 L2.500,8.000 C2.224,8.000 2.000,7.776 2.000,7.500 C2.000,7.224 2.224,7.000 2.500,7.000 Z"/>
</svg>
