<svg 
 xmlns="http://www.w3.org/2000/svg"
 xmlns:xlink="http://www.w3.org/1999/xlink"
 width="25.5px" height="25.5px">
<path fill-rule="evenodd"  stroke="rgb(23, 204, 95)" stroke-width="1px" stroke-linecap="butt" stroke-linejoin="miter" fill="none"
 d="M5.500,0.500 L19.500,0.500 C22.261,0.500 24.500,2.739 24.500,5.500 L24.500,19.500 C24.500,22.261 22.261,24.500 19.500,24.500 L5.500,24.500 C2.739,24.500 0.500,22.261 0.500,19.500 L0.500,5.500 C0.500,2.739 2.739,0.500 5.500,0.500 Z"/>
<path fill-rule="evenodd"  fill="rgb(255, 255, 255)"
 d="M17.308,10.966 C16.119,10.964 15.151,11.899 15.118,13.089 C15.112,13.300 15.135,13.507 15.187,13.702 C15.212,13.798 15.169,13.898 15.083,13.947 L11.751,15.873 C11.662,15.925 11.550,15.906 11.479,15.831 C11.072,15.388 10.485,15.112 9.833,15.123 C8.628,15.142 7.657,16.145 7.682,17.351 C7.701,18.539 8.674,19.496 9.868,19.497 C11.063,19.497 12.036,18.542 12.055,17.347 C12.058,17.194 12.044,17.045 12.016,16.900 C12.000,16.808 12.041,16.715 12.121,16.669 L15.531,14.700 C15.615,14.651 15.721,14.664 15.790,14.731 C16.178,15.102 16.701,15.332 17.279,15.339 C18.489,15.354 19.489,14.368 19.492,13.155 C19.494,11.948 18.516,10.967 17.308,10.966 L17.308,10.966 ZM17.306,14.465 C16.580,14.465 15.993,13.876 15.993,13.153 C15.993,12.429 16.580,11.841 17.306,11.841 C18.029,11.841 18.618,12.429 18.618,13.153 C18.618,13.876 18.029,14.465 17.306,14.465 L17.306,14.465 ZM15.161,5.497 C13.941,5.475 12.944,6.440 12.930,7.662 C12.927,7.856 12.950,8.043 12.998,8.222 C13.022,8.318 12.980,8.416 12.894,8.465 L9.414,10.475 C9.331,10.522 9.228,10.510 9.158,10.446 C8.769,10.089 8.252,9.872 7.683,9.872 C6.481,9.871 5.496,10.851 5.493,12.052 C5.488,13.261 6.465,14.244 7.675,14.246 C8.849,14.249 9.848,13.273 9.868,12.100 C9.872,11.879 9.844,11.665 9.786,11.463 C9.759,11.366 9.800,11.263 9.887,11.213 L13.335,9.223 C13.418,9.174 13.527,9.187 13.597,9.256 C13.994,9.640 14.535,9.875 15.131,9.872 C16.311,9.866 17.281,8.913 17.306,7.734 C17.332,6.517 16.367,5.521 15.161,5.497 L15.161,5.497 ZM7.681,13.372 C6.956,13.372 6.368,12.782 6.368,12.059 C6.368,11.336 6.956,10.747 7.681,10.747 C8.403,10.747 8.993,11.336 8.993,12.059 C8.993,12.782 8.403,13.372 7.681,13.372 L7.681,13.372 Z"/>
</svg>
