<svg 
 xmlns="http://www.w3.org/2000/svg"
 xmlns:xlink="http://www.w3.org/1999/xlink"
 width="14px" height="14px">
<path fill-rule="evenodd"  fill="rgb(255, 255, 255)"
 d="M11.811,5.467 C10.622,5.465 9.654,6.400 9.621,7.590 C9.615,7.801 9.638,8.008 9.690,8.203 C9.714,8.299 9.673,8.399 9.586,8.448 L6.254,10.374 C6.165,10.426 6.052,10.407 5.983,10.332 C5.575,9.889 4.987,9.613 4.337,9.624 C3.131,9.643 2.161,10.646 2.185,11.852 C2.205,13.040 3.177,13.997 4.371,13.998 C5.565,13.998 6.539,13.043 6.558,11.848 C6.561,11.695 6.547,11.546 6.520,11.401 C6.502,11.309 6.544,11.216 6.624,11.170 L10.034,9.201 C10.118,9.152 10.223,9.166 10.294,9.232 C10.681,9.603 11.204,9.833 11.781,9.840 C12.993,9.855 13.992,8.869 13.995,7.657 C13.998,6.449 13.020,5.468 11.811,5.467 L11.811,5.467 ZM11.809,8.966 C11.084,8.966 10.496,8.377 10.496,7.654 C10.496,6.931 11.084,6.342 11.809,6.342 C12.532,6.342 13.121,6.931 13.121,7.654 C13.121,8.377 12.532,8.966 11.809,8.966 L11.809,8.966 ZM9.665,-0.002 C8.444,-0.025 7.446,0.941 7.433,2.163 C7.431,2.357 7.453,2.544 7.500,2.723 C7.525,2.818 7.483,2.917 7.397,2.966 L3.918,4.976 C3.835,5.023 3.731,5.012 3.661,4.947 C3.272,4.590 2.755,4.373 2.186,4.373 C0.984,4.372 -0.001,5.352 -0.005,6.553 C-0.008,7.762 0.969,8.745 2.178,8.747 C3.352,8.750 4.350,7.774 4.371,6.601 C4.375,6.380 4.346,6.167 4.289,5.964 C4.261,5.867 4.302,5.765 4.389,5.714 L7.838,3.724 C7.922,3.675 8.030,3.688 8.101,3.757 C8.497,4.141 9.037,4.376 9.634,4.373 C10.814,4.367 11.785,3.415 11.810,2.235 C11.834,1.019 10.869,0.022 9.665,-0.002 L9.665,-0.002 ZM2.183,7.873 C1.460,7.873 0.871,7.283 0.871,6.560 C0.871,5.837 1.460,5.248 2.183,5.248 C2.906,5.248 3.496,5.837 3.496,6.560 C3.496,7.283 2.906,7.873 2.183,7.873 L2.183,7.873 Z"/>
</svg>
