<svg 
 xmlns="http://www.w3.org/2000/svg"
 xmlns:xlink="http://www.w3.org/1999/xlink"
 width="16px" height="16px">
<path fill-rule="evenodd"  fill="rgb(203, 203, 203)"
 d="M10.400,4.800 L8.013,4.800 C7.571,4.800 7.213,5.158 7.213,5.600 C7.213,6.042 7.571,6.400 8.013,6.400 L9.600,6.400 L9.600,14.400 L1.600,14.400 L1.600,6.400 L3.462,6.400 C3.904,6.400 4.262,6.042 4.262,5.600 C4.262,5.158 3.904,4.800 3.462,4.800 L0.800,4.800 C0.358,4.800 0.000,5.158 0.000,5.600 L0.000,15.200 C-0.000,15.412 0.084,15.616 0.234,15.766 C0.384,15.916 0.588,16.000 0.800,16.000 L10.400,16.000 C10.842,16.000 11.200,15.642 11.200,15.200 L11.200,5.600 C11.200,5.158 10.842,4.800 10.400,4.800 L10.400,4.800 ZM15.200,-0.000 L5.600,-0.000 C5.158,-0.000 4.800,0.358 4.800,0.800 L4.800,10.400 C4.800,10.612 4.884,10.816 5.034,10.966 C5.184,11.116 5.388,11.200 5.600,11.200 L8.163,11.200 C8.604,11.200 8.963,10.843 8.963,10.401 C8.964,9.959 8.606,9.600 8.164,9.600 L6.400,9.600 L6.400,1.600 L14.400,1.600 L14.400,9.600 L12.738,9.600 C12.296,9.600 11.937,9.958 11.937,10.399 C11.937,10.841 12.295,11.200 12.736,11.200 L15.201,11.200 C15.642,11.200 16.000,10.842 16.000,10.400 L16.000,0.800 C16.000,0.588 15.916,0.384 15.766,0.234 C15.616,0.084 15.412,-0.000 15.200,-0.000 L15.200,-0.000 Z"/>
</svg>
