<svg 
 version="1.1"
   id="svg2"
   width="1024"
   height="1024"
   viewBox="0 0 1024 1024"
   sodipodi:docname="CrealityPrint_gradient.svg"
   inkscape:version="1.2.2 (732a01da63, 2022-12-09)"
   xmlns:inkscape="http://www.inkscape.org/namespaces/inkscape"
   xmlns:sodipodi="http://sodipodi.sourceforge.net/DTD/sodipodi-0.dtd"
   xmlns:xlink="http://www.w3.org/1999/xlink"
   xmlns="http://www.w3.org/2000/svg"
   xmlns:svg="http://www.w3.org/2000/svg">
<defs>
<linearGradient id="PSgrad_0" x1="0%" x2="0%" y1="100%" y2="0%">
  <stop offset="59%" stop-color="rgb(138,176,51)" stop-opacity="1" />
  <stop offset="100%" stop-color="rgb(20,87,49)" stop-opacity="1" />
</linearGradient>
<linearGradient id="PSgrad_1" x1="0%" x2="0%" y1="100%" y2="0%">
  <stop offset="0%" stop-color="rgb(19,91,49)" stop-opacity="1" />
  <stop offset="100%" stop-color="rgb(50,151,64)" stop-opacity="1" />
</linearGradient>
<linearGradient id="PSgrad_2" x1="0%" x2="0%" y1="100%" y2="0%">
  <stop offset="25%" stop-color="rgb(138,176,51)" stop-opacity="1" />
  <stop offset="100%" stop-color="rgb(20,87,49)" stop-opacity="1" />
</linearGradient>

</defs>
<path fill-rule="evenodd"  fill="url(#PSgrad_0)"
 d="M505.937,487.410 C501.861,492.095 496.072,495.000 489.653,495.000 C486.603,495.000 483.702,494.332 481.055,493.136 L480.891,493.066 L296.441,413.607 C283.996,408.254 270.333,405.274 256.122,405.274 L256.004,405.274 L255.996,405.274 L255.879,405.274 C241.667,405.274 228.004,408.254 215.559,413.607 L31.109,493.066 L30.946,493.136 C28.299,494.332 25.396,495.000 22.348,495.000 C8.720,495.000 -0.000,482.799 -0.000,470.885 C-0.000,466.645 1.030,462.635 2.807,459.172 L219.566,40.028 C219.567,40.028 219.597,40.025 219.602,40.024 C226.785,26.308 240.378,17.033 255.996,17.001 L255.996,17.000 C255.997,17.000 255.999,17.001 256.000,17.001 C256.001,17.001 256.002,17.000 256.004,17.000 L256.004,17.001 C271.621,17.033 285.213,26.308 292.399,40.024 C292.404,40.025 292.434,40.028 292.434,40.028 L509.194,459.172 C510.971,462.635 512.000,466.645 512.000,470.885 C512.000,477.283 509.701,483.093 505.937,487.410 ZM359.384,336.450 L270.546,144.562 C267.815,138.848 262.363,134.902 256.000,134.901 C249.638,134.902 244.186,138.848 241.455,144.562 L152.617,336.450 C151.981,337.841 151.613,339.412 151.613,341.069 C151.613,346.825 155.933,351.492 161.259,351.492 C162.970,351.492 164.578,351.011 165.972,350.165 C165.972,350.165 219.631,318.057 223.184,315.932 C223.305,315.859 237.503,306.695 256.000,306.695 C274.636,306.695 288.817,315.932 289.166,316.141 C294.969,319.613 346.028,350.165 346.028,350.165 C347.422,351.011 349.029,351.492 350.741,351.492 C356.068,351.492 360.387,346.825 360.387,341.069 C360.387,339.412 360.019,337.841 359.384,336.450 Z"/>
<path fill-rule="evenodd"  fill="url(#PSgrad_1)"
 d="M350.701,356.106 C347.816,356.106 345.139,355.159 342.915,353.538 L293.849,319.178 C292.167,317.969 290.414,316.868 288.631,315.821 C286.240,314.417 283.762,313.163 281.210,312.068 C286.073,314.142 289.010,316.048 289.166,316.141 C294.969,319.613 346.028,350.165 346.028,350.165 C347.422,351.011 349.029,351.492 350.741,351.492 C356.068,351.492 360.387,346.825 360.387,341.069 C360.387,339.412 360.019,337.841 359.384,336.450 L270.546,144.562 C267.815,138.848 262.363,134.902 256.000,134.901 C249.638,134.902 244.186,138.848 241.455,144.562 L152.617,336.450 C151.981,337.841 151.613,339.412 151.613,341.069 C151.613,346.825 155.933,351.492 161.259,351.492 C162.970,351.492 164.578,351.011 165.972,350.165 C165.972,350.165 219.631,318.057 223.184,315.932 C223.238,315.899 226.060,314.081 230.792,312.067 C228.240,313.163 225.761,314.417 223.368,315.821 C221.587,316.868 219.833,317.969 218.151,319.178 L169.086,353.538 C166.862,355.159 164.184,356.106 161.300,356.106 C153.592,356.106 147.344,349.354 147.344,341.025 C147.344,339.225 147.639,337.499 148.175,335.898 C148.555,334.727 148.967,333.533 149.441,332.293 L243.140,61.850 C244.962,56.246 249.821,52.201 255.579,51.976 C255.718,51.971 255.856,51.956 255.996,51.956 C255.997,51.956 255.999,51.956 256.000,51.956 C256.001,51.956 256.002,51.956 256.004,51.956 C256.155,51.957 256.302,51.971 256.452,51.978 C256.671,51.987 256.891,51.990 257.106,52.010 C257.139,52.013 257.170,52.020 257.202,52.023 C262.616,52.566 267.121,56.501 268.861,61.850 L362.559,332.293 C363.033,333.533 363.445,334.727 363.826,335.898 C364.362,337.499 364.656,339.225 364.656,341.025 C364.656,349.354 358.407,356.106 350.701,356.106 ZM277.158,310.485 C270.523,308.150 263.445,306.880 256.089,306.880 L256.000,306.882 L255.911,306.880 C248.590,306.880 241.547,308.140 234.941,310.453 C240.578,308.464 247.873,306.695 256.000,306.695 C264.174,306.695 271.489,308.472 277.158,310.485 ZM281.010,311.983 C281.076,312.011 281.143,312.039 281.210,312.068 C281.144,312.040 281.076,312.011 281.010,311.983 ZM277.253,310.519 C278.605,311.001 279.858,311.496 281.010,311.983 C279.774,311.458 278.522,310.968 277.253,310.519 ZM277.158,310.485 C277.190,310.496 277.221,310.508 277.253,310.519 C277.220,310.508 277.190,310.496 277.158,310.485 ZM234.595,310.579 C234.710,310.537 234.825,310.494 234.941,310.453 C234.823,310.495 234.711,310.537 234.595,310.579 ZM231.011,311.975 C232.110,311.512 233.307,311.041 234.595,310.579 C233.385,311.010 232.190,311.474 231.011,311.975 ZM230.792,312.067 C230.865,312.036 230.938,312.006 231.011,311.975 C230.939,312.005 230.864,312.036 230.792,312.067 Z"/>
<path fill-rule="evenodd"  fill="url(#PSgrad_2)"
 d="M489.685,495.000 C486.635,495.000 483.733,494.332 481.085,493.137 L480.922,493.068 L296.446,413.657 C284.000,408.307 270.335,405.329 256.122,405.329 L256.004,405.329 L255.996,405.329 L255.879,405.329 C241.665,405.329 228.000,408.307 215.553,413.657 L31.078,493.068 L30.916,493.137 C28.268,494.332 25.365,495.000 22.316,495.000 C15.894,495.000 10.106,492.097 6.029,487.415 L43.194,462.456 L233.793,334.620 L233.870,334.616 C240.268,330.209 247.846,327.622 255.996,327.611 C255.997,327.611 255.999,327.611 256.000,327.611 C256.001,327.611 256.002,327.611 256.004,327.611 C264.155,327.622 271.733,330.209 278.129,334.616 L278.206,334.620 L468.806,462.456 L505.972,487.415 C501.895,492.097 496.105,495.000 489.685,495.000 Z"/>
<path fill-rule="evenodd"  fill="none"
 d="M0.000,0.000 L512.000,0.000 L512.000,512.000 L0.000,512.000 L0.000,0.000 Z"/>
</svg>
