<svg 
 xmlns="http://www.w3.org/2000/svg"
 xmlns:xlink="http://www.w3.org/1999/xlink"
 width="25.5px" height="25.5px">
<path fill-rule="evenodd"  fill="rgb(51, 51, 51)"
 d="M12.492,19.498 C8.627,19.498 5.492,16.363 5.492,12.497 C5.492,8.632 8.627,5.498 12.492,5.498 C16.358,5.498 19.492,8.632 19.492,12.497 C19.492,16.363 16.358,19.498 12.492,19.498 ZM16.736,8.255 C16.185,7.704 15.543,7.271 14.829,6.970 C14.088,6.655 13.305,6.498 12.492,6.498 C11.682,6.498 10.896,6.655 10.156,6.970 C9.444,7.271 8.800,7.704 8.249,8.255 C7.697,8.807 7.264,9.449 6.964,10.163 C6.649,10.902 6.490,11.688 6.490,12.499 C6.490,13.310 6.652,14.096 6.964,14.835 C7.264,15.549 7.697,16.192 8.249,16.743 C8.800,17.295 9.444,17.727 10.156,18.029 C10.896,18.343 11.682,18.501 12.492,18.501 C13.305,18.501 14.088,18.341 14.829,18.029 C15.543,17.727 16.185,17.295 16.736,16.743 C17.288,16.192 17.721,15.549 18.023,14.835 C18.338,14.096 18.493,13.310 18.493,12.499 C18.493,11.688 18.335,10.902 18.023,10.163 C17.721,9.449 17.288,8.807 16.736,8.255 ZM15.493,13.498 L9.493,13.498 C8.942,13.498 8.494,13.047 8.494,12.497 C8.494,11.948 8.942,11.498 9.493,11.498 L15.493,11.498 C16.042,11.498 16.493,11.948 16.493,12.497 C16.493,13.047 16.042,13.498 15.493,13.498 Z"/>
<path fill-rule="evenodd"  stroke="rgb(23, 204, 95)" stroke-width="1px" stroke-linecap="butt" stroke-linejoin="miter" fill="none"
 d="M5.500,0.500 L19.500,0.500 C22.261,0.500 24.500,2.739 24.500,5.500 L24.500,19.500 C24.500,22.261 22.261,24.500 19.500,24.500 L5.500,24.500 C2.739,24.500 0.500,22.261 0.500,19.500 L0.500,5.500 C0.500,2.739 2.739,0.500 5.500,0.500 Z"/>
</svg>
