<svg 
 xmlns="http://www.w3.org/2000/svg"
 xmlns:xlink="http://www.w3.org/1999/xlink"
 width="16px" height="16px">
<path fill-rule="evenodd"  fill="rgb(51, 51, 51)"
 d="M15.990,14.993 C15.990,14.993 15.991,14.992 15.991,14.992 L15.991,14.995 C15.991,14.994 15.990,14.994 15.990,14.993 ZM14.625,15.990 L1.355,15.990 C0.445,15.990 -0.008,15.657 -0.008,14.993 C-0.008,14.329 0.445,13.998 1.355,13.998 L14.625,13.998 C15.535,13.998 15.989,14.329 15.990,14.993 C15.989,15.657 15.535,15.990 14.625,15.990 ZM-0.009,14.992 C-0.009,14.992 -0.008,14.993 -0.008,14.993 C-0.008,14.994 -0.009,14.994 -0.009,14.995 L-0.009,14.992 ZM14.625,8.989 L1.355,8.989 C0.445,8.989 -0.008,8.657 -0.008,7.994 C-0.008,7.330 0.445,6.997 1.355,6.997 L14.625,6.997 C15.535,6.997 15.989,7.330 15.990,7.994 C15.989,8.657 15.535,8.989 14.625,8.989 ZM-0.009,7.992 C-0.009,7.993 -0.008,7.993 -0.008,7.994 C-0.008,7.994 -0.009,7.994 -0.009,7.995 L-0.009,7.992 ZM15.991,7.992 L15.991,7.995 C15.991,7.994 15.990,7.994 15.990,7.994 C15.990,7.993 15.991,7.993 15.991,7.992 ZM14.625,1.989 L1.355,1.989 C0.445,1.989 -0.008,1.657 -0.009,0.993 C-0.008,0.329 0.445,-0.003 1.355,-0.003 L14.625,-0.003 C15.535,-0.003 15.990,0.329 15.990,0.993 C15.990,1.657 15.535,1.989 14.625,1.989 ZM-0.009,0.992 C-0.009,0.993 -0.009,0.993 -0.009,0.993 C-0.009,0.994 -0.009,0.994 -0.009,0.995 L-0.009,0.992 ZM15.991,0.992 L15.991,0.995 C15.991,0.994 15.990,0.994 15.990,0.993 C15.990,0.993 15.991,0.993 15.991,0.992 Z"/>
</svg>
