<svg 
 xmlns="http://www.w3.org/2000/svg"
 xmlns:xlink="http://www.w3.org/1999/xlink"
 width="16px" height="16px">
<path fill-rule="evenodd"  fill="rgb(255, 255, 255)"
 d="M14.615,8.410 C14.431,7.410 13.829,6.517 12.941,5.927 L7.089,2.046 L4.303,0.201 C4.066,-0.001 3.724,-0.057 3.427,0.058 C3.131,0.172 2.932,0.437 2.918,0.736 C2.904,1.034 3.078,1.313 3.363,1.451 L4.614,2.326 L0.767,7.274 C-0.554,8.992 -0.134,11.379 1.708,12.615 L5.734,15.282 C7.583,16.509 10.151,16.119 11.482,14.408 L13.872,11.287 C14.524,10.459 14.792,9.423 14.615,8.410 L14.615,8.410 ZM2.112,8.166 L5.941,3.174 L10.061,5.901 L11.944,7.169 C12.715,7.705 13.082,8.609 12.884,9.485 C11.067,9.826 9.223,10.022 7.371,10.071 C5.461,10.119 3.551,9.987 1.670,9.678 C1.619,9.141 1.775,8.605 2.112,8.166 L2.112,8.166 ZM14.747,11.427 C14.747,11.427 11.999,15.623 14.747,15.999 C14.747,15.999 17.560,15.885 14.747,11.427 L14.747,11.427 Z"/>
</svg>
