<svg 
 xmlns="http://www.w3.org/2000/svg"
 xmlns:xlink="http://www.w3.org/1999/xlink"
 width="25.5px" height="25.5px">
<path fill-rule="evenodd"  fill="rgb(51, 51, 51)"
 d="M11.226,8.501 L11.848,8.501 L11.848,7.777 L10.135,7.777 C9.841,7.777 9.574,7.656 9.379,7.448 L9.360,7.426 C9.179,7.226 9.065,6.946 9.065,6.638 C9.065,6.322 9.187,6.043 9.379,5.835 L9.399,5.813 C9.594,5.620 9.849,5.498 10.129,5.498 L14.590,5.498 C14.878,5.498 15.152,5.627 15.346,5.828 C15.540,6.043 15.660,6.322 15.660,6.630 C15.660,6.953 15.540,7.240 15.346,7.440 C15.159,7.648 14.885,7.771 14.590,7.771 L12.892,7.771 L12.899,7.821 L12.899,8.495 L13.514,8.495 C13.728,8.495 13.935,8.538 14.136,8.637 C14.323,8.717 14.503,8.845 14.644,9.003 L14.644,9.010 C14.792,9.168 14.912,9.348 14.985,9.548 L14.998,9.577 L15.019,9.634 L18.966,9.634 C19.261,9.634 19.493,9.885 19.493,10.193 L19.493,12.753 C19.493,13.061 19.261,13.319 18.966,13.319 L15.024,13.319 L14.992,13.405 C14.912,13.598 14.792,13.792 14.649,13.942 L14.644,13.950 C14.497,14.100 14.330,14.230 14.143,14.308 C13.943,14.394 13.734,14.444 13.520,14.444 L11.226,14.444 C11.019,14.444 10.804,14.394 10.612,14.308 C10.417,14.222 10.237,14.093 10.089,13.942 C9.949,13.785 9.828,13.591 9.748,13.383 L9.687,13.405 C9.541,13.470 9.413,13.570 9.300,13.691 C9.187,13.806 9.092,13.950 9.039,14.100 C8.980,14.258 8.952,14.423 8.952,14.594 C8.952,14.910 8.712,15.154 8.423,15.154 L6.022,15.154 C5.741,15.154 5.494,14.903 5.494,14.594 L5.494,14.580 C5.499,13.914 5.627,13.276 5.855,12.695 C6.089,12.079 6.443,11.534 6.864,11.082 L6.899,11.061 C7.314,10.609 7.815,10.250 8.370,10.007 C8.792,9.820 9.247,9.699 9.714,9.648 C9.721,9.613 9.741,9.577 9.754,9.541 C9.835,9.333 9.949,9.147 10.089,8.996 C10.237,8.845 10.417,8.709 10.612,8.631 C10.804,8.544 11.019,8.501 11.226,8.501 L11.226,8.501 ZM8.304,18.724 C8.242,18.882 8.163,19.018 8.048,19.140 C7.942,19.254 7.815,19.347 7.675,19.405 C7.535,19.469 7.379,19.498 7.225,19.498 C7.079,19.498 6.926,19.469 6.798,19.419 L6.777,19.405 C6.637,19.347 6.503,19.254 6.397,19.140 C6.289,19.018 6.203,18.882 6.142,18.724 C6.096,18.580 6.055,18.416 6.055,18.251 C6.055,17.656 6.417,17.197 6.765,16.760 L6.785,16.738 L6.985,16.480 C6.999,16.466 7.012,16.444 7.025,16.430 C7.167,16.315 7.360,16.337 7.468,16.480 L7.574,16.609 L7.668,16.731 L7.675,16.731 L7.695,16.745 C7.849,16.953 8.009,17.161 8.149,17.383 L8.156,17.398 C8.304,17.656 8.403,17.935 8.403,18.243 C8.390,18.416 8.357,18.580 8.304,18.724 L8.304,18.724 ZM7.661,16.731 L7.668,16.738 L7.661,16.731 Z"/>
<path fill-rule="evenodd"  stroke="rgb(23, 204, 95)" stroke-width="1px" stroke-linecap="butt" stroke-linejoin="miter" fill="none"
 d="M5.500,0.500 L19.500,0.500 C22.261,0.500 24.500,2.739 24.500,5.500 L24.500,19.500 C24.500,22.261 22.261,24.500 19.500,24.500 L5.500,24.500 C2.739,24.500 0.500,22.261 0.500,19.500 L0.500,5.500 C0.500,2.739 2.739,0.500 5.500,0.500 Z"/>
</svg>
