<svg 
 xmlns="http://www.w3.org/2000/svg"
 xmlns:xlink="http://www.w3.org/1999/xlink"
 width="14px" height="14px">
<path fill-rule="evenodd"  fill="rgb(51, 51, 51)"
 d="M5.729,3.003 L6.352,3.003 L6.352,2.278 L4.639,2.278 C4.345,2.278 4.077,2.157 3.883,1.949 L3.863,1.927 C3.683,1.726 3.569,1.447 3.569,1.139 C3.569,0.823 3.690,0.544 3.883,0.336 L3.903,0.314 C4.097,0.121 4.352,-0.001 4.633,-0.001 L9.094,-0.001 C9.382,-0.001 9.655,0.128 9.850,0.329 C10.044,0.544 10.165,0.823 10.165,1.131 C10.165,1.454 10.044,1.741 9.850,1.942 C9.663,2.149 9.389,2.271 9.094,2.271 L7.396,2.271 L7.402,2.322 L7.402,2.995 L8.017,2.995 C8.231,2.995 8.439,3.039 8.640,3.139 C8.827,3.218 9.007,3.346 9.147,3.504 L9.147,3.512 C9.295,3.669 9.415,3.849 9.488,4.049 L9.502,4.078 L9.522,4.135 L13.469,4.135 C13.763,4.135 13.997,4.386 13.997,4.694 L13.997,7.253 C13.997,7.562 13.763,7.820 13.469,7.820 L9.528,7.820 L9.495,7.906 C9.415,8.099 9.295,8.293 9.154,8.444 L9.147,8.450 C9.001,8.601 8.833,8.730 8.646,8.809 C8.446,8.895 8.238,8.945 8.024,8.945 L5.729,8.945 C5.522,8.945 5.308,8.895 5.114,8.809 C4.920,8.723 4.740,8.594 4.593,8.444 C4.452,8.285 4.331,8.092 4.251,7.884 L4.191,7.906 C4.044,7.970 3.917,8.070 3.803,8.192 C3.690,8.307 3.596,8.450 3.543,8.601 C3.482,8.759 3.455,8.924 3.455,9.096 C3.455,9.411 3.215,9.655 2.927,9.655 L0.525,9.655 C0.245,9.655 -0.002,9.404 -0.002,9.096 L-0.002,9.081 C0.004,8.415 0.130,7.777 0.358,7.196 C0.593,6.580 0.947,6.035 1.368,5.583 L1.402,5.562 C1.817,5.110 2.319,4.752 2.873,4.508 C3.295,4.322 3.750,4.200 4.218,4.149 C4.225,4.114 4.245,4.078 4.258,4.042 C4.338,3.834 4.452,3.648 4.593,3.497 C4.740,3.346 4.920,3.210 5.114,3.132 C5.308,3.045 5.522,3.003 5.729,3.003 L5.729,3.003 ZM2.806,13.225 C2.746,13.383 2.666,13.519 2.552,13.641 C2.445,13.755 2.319,13.848 2.178,13.906 C2.038,13.970 1.884,13.999 1.730,13.999 C1.583,13.999 1.429,13.970 1.302,13.920 L1.281,13.906 C1.141,13.848 1.007,13.755 0.900,13.641 C0.793,13.519 0.706,13.383 0.646,13.225 C0.599,13.081 0.559,12.917 0.559,12.752 C0.559,12.157 0.920,11.698 1.268,11.261 L1.288,11.239 L1.489,10.981 C1.503,10.967 1.516,10.945 1.529,10.931 C1.670,10.816 1.863,10.838 1.971,10.981 L2.077,11.110 L2.171,11.232 L2.178,11.232 L2.199,11.246 C2.352,11.454 2.512,11.662 2.653,11.884 L2.659,11.899 C2.806,12.157 2.906,12.436 2.906,12.744 C2.894,12.917 2.861,13.081 2.806,13.225 L2.806,13.225 ZM2.164,11.232 L2.171,11.239 L2.164,11.232 Z"/>
</svg>
