<svg 
 xmlns="http://www.w3.org/2000/svg"
 xmlns:xlink="http://www.w3.org/1999/xlink"
 width="16px" height="16px">
<path fill-rule="evenodd"  fill="rgb(51, 51, 51)"
 d="M15.539,15.999 L9.416,15.999 C9.260,16.002 9.112,15.940 9.026,15.835 C8.945,15.731 8.931,15.602 8.989,15.490 L10.684,12.175 L8.212,10.832 C8.039,10.739 7.963,10.562 8.028,10.401 L9.466,7.255 C9.530,7.102 9.706,6.999 9.903,7.000 L15.539,7.000 C15.793,7.000 15.998,7.168 15.998,7.375 L15.998,15.625 C15.998,15.832 15.793,15.999 15.539,15.999 ZM12.485,4.999 C9.156,4.588 12.485,-0.002 12.485,-0.002 C15.892,4.875 12.485,4.999 12.485,4.999 ZM8.484,4.999 C5.156,4.588 8.484,-0.002 8.484,-0.002 C11.893,4.875 8.484,4.999 8.484,4.999 ZM7.009,7.510 L5.313,10.825 L7.785,12.167 C7.959,12.260 8.035,12.437 7.969,12.598 L6.531,15.745 C6.468,15.897 6.292,16.000 6.094,16.000 L0.458,16.000 C0.204,16.000 -0.001,15.832 -0.001,15.625 L-0.001,7.375 C-0.001,7.168 0.204,7.000 0.458,7.000 L6.582,7.000 C6.738,6.997 6.885,7.059 6.972,7.165 C7.053,7.268 7.066,7.397 7.009,7.510 ZM4.485,4.999 C1.157,4.588 4.485,-0.002 4.485,-0.002 C7.893,4.875 4.485,4.999 4.485,4.999 Z"/>
</svg>
