<svg 
 xmlns="http://www.w3.org/2000/svg"
 xmlns:xlink="http://www.w3.org/1999/xlink"
 width="28px" height="28px">
<path fill-rule="evenodd"  fill="rgb(23, 204, 95)"
 d="M5.000,-0.000 L23.000,-0.000 C25.761,-0.000 28.000,2.239 28.000,5.000 L28.000,23.000 C28.000,25.761 25.761,28.000 23.000,28.000 L5.000,28.000 C2.239,28.000 -0.000,25.761 -0.000,23.000 L-0.000,5.000 C-0.000,2.239 2.239,-0.000 5.000,-0.000 Z"/>
<path fill-rule="evenodd"  fill="rgb(255, 255, 255)"
 d="M10.135,19.770 C10.413,19.920 10.724,19.999 11.041,20.000 C11.429,19.997 11.808,19.883 12.132,19.671 L17.977,15.872 C18.623,15.451 19.008,14.735 19.000,13.971 C19.011,13.228 18.638,12.530 18.009,12.121 L12.111,8.329 C11.515,7.928 10.741,7.890 10.107,8.230 C9.400,8.641 8.976,9.399 9.000,10.207 L9.000,17.794 C8.979,18.608 9.416,19.368 10.135,19.770 L10.135,19.770 Z"/>
</svg>
