<svg 
 xmlns="http://www.w3.org/2000/svg"
 xmlns:xlink="http://www.w3.org/1999/xlink"
 width="28px" height="28px">
<path fill-rule="evenodd"  fill="rgb(23, 204, 95)"
 d="M5.000,-0.000 L23.000,-0.000 C25.761,-0.000 28.000,2.239 28.000,5.000 L28.000,23.000 C28.000,25.761 25.761,28.000 23.000,28.000 L5.000,28.000 C2.239,28.000 -0.000,25.761 -0.000,23.000 L-0.000,5.000 C-0.000,2.239 2.239,-0.000 5.000,-0.000 Z"/>
<path fill-rule="evenodd"  fill="rgb(255, 255, 255)"
 d="M12.986,19.308 C12.986,19.688 12.703,20.000 12.357,20.000 L8.629,20.000 C8.283,20.000 8.000,19.688 8.000,19.308 L8.000,8.692 C8.000,8.311 8.283,8.000 8.629,8.000 L12.357,8.000 C12.703,8.000 12.986,8.311 12.986,8.692 L12.986,19.308 ZM20.000,19.308 C20.000,19.688 19.717,20.000 19.371,20.000 L15.642,20.000 C15.296,20.000 15.013,19.688 15.013,19.308 L15.013,8.692 C15.013,8.311 15.296,8.000 15.642,8.000 L19.371,8.000 C19.717,8.000 20.000,8.311 20.000,8.692 L20.000,19.308 Z"/>
</svg>
