<svg 
 xmlns="http://www.w3.org/2000/svg"
 xmlns:xlink="http://www.w3.org/1999/xlink"
 width="8px" height="16px">
<path fill-rule="evenodd"  fill="rgb(255, 255, 255)"
 d="M1.554,11.120 L3.081,12.722 L3.081,3.305 L1.598,4.862 C1.242,5.235 0.665,5.235 0.308,4.862 C-0.048,4.487 -0.048,3.881 0.308,3.507 L3.134,0.541 C3.178,0.445 3.228,0.351 3.305,0.271 C3.494,0.073 3.744,-0.012 3.993,-0.000 C4.241,-0.013 4.492,0.073 4.681,0.272 C4.757,0.352 4.810,0.444 4.851,0.540 L7.677,3.507 C8.034,3.881 8.034,4.487 7.677,4.862 C7.321,5.235 6.744,5.235 6.388,4.862 L4.905,3.305 L4.905,12.722 L6.431,11.120 C6.788,10.746 7.365,10.747 7.721,11.120 C8.078,11.494 8.078,12.100 7.721,12.474 L4.638,15.709 C4.282,16.083 3.704,16.084 3.349,15.709 L0.265,12.474 C-0.091,12.100 -0.091,11.494 0.265,11.120 C0.621,10.747 1.198,10.747 1.554,11.120 L1.554,11.120 Z"/>
</svg>
