<svg 
 xmlns="http://www.w3.org/2000/svg"
 xmlns:xlink="http://www.w3.org/1999/xlink"
 width="8px" height="16px">
<path fill-rule="evenodd"  fill="rgb(51, 51, 51)"
 d="M1.557,11.121 L3.083,12.723 L3.083,3.305 L1.600,4.862 C1.244,5.235 0.667,5.236 0.311,4.862 C-0.045,4.488 -0.045,3.882 0.311,3.508 L3.137,0.542 C3.180,0.446 3.231,0.352 3.307,0.272 C3.497,0.073 3.747,-0.011 3.995,0.001 C4.243,-0.012 4.494,0.073 4.684,0.272 C4.760,0.352 4.812,0.445 4.853,0.541 L7.680,3.508 C8.036,3.882 8.036,4.488 7.680,4.862 C7.323,5.235 6.746,5.236 6.390,4.862 L4.907,3.305 L4.907,12.723 L6.433,11.121 C6.790,10.746 7.368,10.747 7.724,11.121 C8.080,11.495 8.080,12.101 7.724,12.474 L4.641,15.710 C4.284,16.084 3.707,16.085 3.351,15.710 L0.268,12.474 C-0.089,12.101 -0.089,11.494 0.268,11.121 C0.623,10.747 1.201,10.747 1.557,11.121 L1.557,11.121 Z"/>
</svg>
