<svg 
 xmlns="http://www.w3.org/2000/svg"
 xmlns:xlink="http://www.w3.org/1999/xlink"
 width="25px" height="20px">
<defs>
<linearGradient id="PSgrad_0" x1="0%" x2="0%" y1="100%" y2="0%">
  <stop offset="59%" stop-color="rgb(138,176,51)" stop-opacity="1" />
  <stop offset="100%" stop-color="rgb(20,87,49)" stop-opacity="1" />
</linearGradient>
<linearGradient id="PSgrad_1" x1="0%" x2="0%" y1="100%" y2="0%">
  <stop offset="0%" stop-color="rgb(19,91,49)" stop-opacity="1" />
  <stop offset="100%" stop-color="rgb(50,151,64)" stop-opacity="1" />
</linearGradient>
<linearGradient id="PSgrad_2" x1="0%" x2="0%" y1="100%" y2="0%">
  <stop offset="25%" stop-color="rgb(138,176,51)" stop-opacity="1" />
  <stop offset="100%" stop-color="rgb(20,87,49)" stop-opacity="1" />
</linearGradient>

</defs>
<path fill-rule="evenodd"  fill="none"
 d="M-0.000,0.000 L25.000,0.000 L25.000,20.000 L-0.000,20.000 L-0.000,0.000 Z"/>
<path fill-rule="evenodd"  fill="url(#PSgrad_0)"
 d="M24.739,19.682 C24.564,19.878 24.316,20.000 24.040,20.000 C23.909,20.000 23.784,19.972 23.670,19.922 L23.663,19.919 L15.738,16.594 C15.203,16.370 14.616,16.246 14.005,16.246 L14.000,16.246 L14.000,16.246 L13.995,16.246 C13.384,16.246 12.797,16.370 12.262,16.594 L4.337,19.919 L4.330,19.922 C4.216,19.972 4.091,20.000 3.960,20.000 C3.375,20.000 3.000,19.489 3.000,18.991 C3.000,18.814 3.044,18.646 3.121,18.501 L12.434,0.964 C12.435,0.964 12.436,0.963 12.436,0.963 C12.745,0.389 13.329,0.001 14.000,0.000 L14.000,-0.000 C14.000,-0.000 14.000,0.000 14.000,0.000 C14.000,0.000 14.000,-0.000 14.000,-0.000 L14.000,0.000 C14.671,0.001 15.255,0.389 15.564,0.963 C15.564,0.963 15.566,0.964 15.566,0.964 L24.879,18.501 C24.956,18.646 25.000,18.814 25.000,18.991 C25.000,19.259 24.901,19.502 24.739,19.682 ZM18.442,13.366 L14.625,5.337 C14.508,5.098 14.273,4.933 14.000,4.933 C13.727,4.933 13.492,5.098 13.375,5.337 L9.558,13.366 C9.530,13.424 9.515,13.490 9.515,13.559 C9.515,13.800 9.700,13.995 9.929,13.995 C10.003,13.995 10.072,13.975 10.132,13.940 C10.132,13.940 12.437,12.597 12.590,12.508 C12.595,12.505 13.205,12.121 14.000,12.121 C14.801,12.121 15.410,12.508 15.425,12.516 C15.674,12.662 17.868,13.940 17.868,13.940 C17.928,13.975 17.997,13.995 18.071,13.995 C18.300,13.995 18.485,13.800 18.485,13.559 C18.485,13.490 18.470,13.424 18.442,13.366 Z"/>
<path fill-rule="evenodd"  fill="url(#PSgrad_1)"
 d="M18.069,14.189 C17.945,14.189 17.830,14.149 17.735,14.081 L15.626,12.643 C15.556,12.594 15.483,12.550 15.409,12.508 C15.411,12.509 15.425,12.516 15.425,12.516 C15.674,12.662 17.868,13.940 17.868,13.940 C17.928,13.975 17.997,13.995 18.071,13.995 C18.300,13.995 18.485,13.800 18.485,13.559 C18.485,13.490 18.470,13.424 18.442,13.366 L14.625,5.337 C14.508,5.098 14.273,4.933 14.000,4.933 C13.727,4.933 13.492,5.098 13.375,5.337 L9.558,13.366 C9.530,13.424 9.515,13.490 9.515,13.559 C9.515,13.800 9.700,13.995 9.929,13.995 C10.003,13.995 10.072,13.975 10.132,13.940 C10.132,13.940 12.437,12.597 12.590,12.508 C12.590,12.508 12.595,12.505 12.595,12.505 C12.519,12.548 12.445,12.593 12.374,12.643 L10.265,14.081 C10.170,14.149 10.055,14.189 9.931,14.189 C9.600,14.189 9.331,13.906 9.331,13.558 C9.331,13.482 9.344,13.410 9.367,13.343 C9.383,13.294 9.401,13.244 9.421,13.192 L13.447,1.877 C13.507,1.698 13.655,1.584 13.825,1.523 C13.884,1.502 13.935,1.463 14.000,1.463 C14.000,1.463 14.000,1.463 14.000,1.463 C14.000,1.463 14.000,1.463 14.000,1.463 C14.072,1.463 14.129,1.504 14.193,1.529 C14.242,1.548 14.300,1.548 14.342,1.580 C14.438,1.653 14.512,1.756 14.553,1.877 L18.579,13.192 C18.599,13.244 18.617,13.294 18.633,13.343 C18.656,13.410 18.669,13.482 18.669,13.558 C18.669,13.906 18.400,14.189 18.069,14.189 ZM12.599,12.502 C12.599,12.503 12.595,12.505 12.595,12.505 C12.596,12.504 12.597,12.504 12.598,12.503 C12.598,12.503 12.599,12.503 12.599,12.502 ZM14.687,12.220 C14.468,12.164 14.240,12.129 14.004,12.129 L14.000,12.129 L13.996,12.129 C13.760,12.129 13.533,12.164 13.314,12.220 C13.518,12.166 13.743,12.121 14.000,12.121 C14.258,12.121 14.483,12.166 14.687,12.220 ZM15.409,12.508 C15.408,12.507 15.401,12.503 15.399,12.502 C15.400,12.502 15.401,12.502 15.402,12.503 C15.405,12.504 15.407,12.506 15.409,12.508 ZM14.807,12.256 C15.135,12.358 15.354,12.475 15.399,12.502 C15.214,12.396 15.013,12.318 14.807,12.256 ZM14.687,12.220 C14.728,12.230 14.767,12.244 14.807,12.256 C14.767,12.243 14.730,12.231 14.687,12.220 ZM13.194,12.256 C13.234,12.243 13.273,12.230 13.314,12.220 C13.271,12.231 13.233,12.243 13.194,12.256 ZM12.599,12.502 C12.617,12.491 12.849,12.363 13.194,12.256 C12.986,12.318 12.785,12.396 12.599,12.502 Z"/>
<path fill-rule="evenodd"  fill="url(#PSgrad_2)"
 d="M24.041,20.000 C23.910,20.000 23.785,19.972 23.672,19.922 L23.665,19.919 L15.738,16.597 C15.203,16.373 14.616,16.248 14.005,16.248 L14.000,16.248 L14.000,16.248 L13.995,16.248 C13.384,16.248 12.797,16.373 12.262,16.597 L4.335,19.919 L4.328,19.922 C4.215,19.972 4.090,20.000 3.959,20.000 C3.683,20.000 3.434,19.879 3.259,19.683 L4.856,18.638 L13.046,13.290 L13.049,13.289 C13.324,13.105 13.650,12.997 14.000,12.996 C14.000,12.996 14.000,12.996 14.000,12.996 C14.000,12.996 14.000,12.996 14.000,12.996 C14.350,12.997 14.676,13.105 14.951,13.289 L14.954,13.290 L23.144,18.638 L24.741,19.683 C24.566,19.879 24.317,20.000 24.041,20.000 Z"/>
</svg>
