<svg width="32" height="32" viewBox="0 0 32 32" fill="none" xmlns="http://www.w3.org/2000/svg">
<g id="Group 5124">
<g id="Group 5123">
<rect id="Rectangle 3821" x="8.92578" y="14.7439" width="0.767186" height="11.5078" fill="#15C059"/>
<rect id="Rectangle 3822" x="21.9766" y="14.7439" width="0.767186" height="11.5078" fill="#15C059"/>
<rect id="Rectangle 3823" x="19.709" y="17.8125" width="0.767186" height="8.43904" fill="#15C059"/>
<path id="Rectangle 3824" d="M17.4072 19.1372H18.1744V26.253H17.4072L17.4072 19.1372Z" fill="#15C059"/>
<path id="Rectangle 3825" d="M13.5713 19.1372H14.3385V26.2534H13.5713V19.1372Z" fill="#15C059"/>
<path id="Rectangle 3827" d="M15.4893 19.7649H16.2564V26.2529H15.4893V19.7649Z" fill="#15C059"/>
<rect id="Rectangle 3826" x="11.2705" y="17.8125" width="0.767186" height="8.43904" fill="#15C059"/>
<g id="&#230;&#139;&#183;&#232;&#180;&#157; 2">
<g id="Clip path group">
<mask id="mask0_3842_450088" style="mask-type:luminance" maskUnits="userSpaceOnUse" x="6" y="25" width="20" height="2">
<g id="clip">
<path id="fill" d="M24.4887 25.4841H7.25773C6.93147 25.4841 6.66699 25.7486 6.66699 26.0749C6.66699 26.4011 6.93147 26.6656 7.25773 26.6656H24.4887C24.815 26.6656 25.0795 26.4011 25.0795 26.0749C25.0795 25.7486 24.815 25.4841 24.4887 25.4841Z" fill="white"/>
</g>
</mask>
<g mask="url(#mask0_3842_450088)">
<path id="Vector" d="M6.66699 25.9751H25.0795M24.389 25.4841V26.6656M25.0795 26.1746H6.66699M7.35746 26.6656V25.4841" stroke="#4E5969" stroke-width="1.8"/>
</g>
</g>
</g>
<path id="Vector_2" d="M16.2592 19.3857L21.6016 16.3494C21.6902 16.2953 21.7565 16.2302 21.8007 16.1542C21.845 16.0784 21.8671 15.9971 21.8671 15.9103V9.92241L16.2592 13.105V19.3857ZM15.8278 12.3782L21.371 9.23785L16.0933 6.24381C16.0048 6.18969 15.9163 6.16263 15.8278 6.16263C15.7394 6.16263 15.6509 6.18969 15.5623 6.24381L10.2846 9.23785L15.8278 12.3782ZM9.62267 17.0976C9.40468 16.9751 9.23407 16.8086 9.11084 16.5982C8.98747 16.3879 8.92578 16.1602 8.92578 15.9151V9.81036C8.92578 9.56526 8.98747 9.33757 9.11084 9.12728C9.23407 8.91685 9.40468 8.7504 9.62267 8.62792L15.1309 5.51697C15.3489 5.39449 15.5812 5.33325 15.8278 5.33325C16.0744 5.33325 16.3067 5.39449 16.5247 5.51697L22.033 8.62792C22.251 8.7504 22.4216 8.91685 22.5448 9.12728C22.6682 9.33757 22.7299 9.56526 22.7299 9.81036V15.9151C22.7299 16.1602 22.6682 16.3879 22.5448 16.5982C22.4216 16.8086 22.251 16.9751 22.033 17.0976L16.5247 20.2085C16.3067 20.331 16.0744 20.3922 15.8278 20.3922C15.5812 20.3922 15.3489 20.331 15.1309 20.2085L9.62267 17.0976Z" fill="#4E5969"/>
</g>
</g>
</svg>
