<svg 
 xmlns="http://www.w3.org/2000/svg"
 xmlns:xlink="http://www.w3.org/1999/xlink"
 width="20px" height="20px">
<path fill-rule="evenodd"  fill="rgb(57, 212, 119)"
 d="M10.000,20.000 C5.581,20.000 1.999,16.947 1.999,13.182 C1.999,13.037 2.015,12.751 2.015,12.751 L4.666,2.727 C4.666,2.727 4.771,2.646 4.944,2.532 C5.633,1.067 7.623,-0.000 10.000,-0.000 C12.279,-0.000 14.209,0.979 14.973,2.350 C15.192,2.567 15.333,2.727 15.333,2.727 L17.987,12.790 C17.987,12.790 18.000,13.050 18.000,13.182 C18.000,16.947 14.418,20.000 10.000,20.000 Z"/>
<path fill-rule="evenodd"  fill="rgb(86, 255, 154)"
 d="M10.000,-0.000 C12.761,-0.000 15.000,1.343 15.000,3.000 C15.000,4.657 12.761,6.000 10.000,6.000 C7.238,6.000 5.000,4.657 5.000,3.000 C5.000,1.343 7.238,-0.000 10.000,-0.000 Z"/>
<path fill-rule="evenodd"  fill="none"
 d="M0.000,0.000 L20.000,0.000 L20.000,20.000 L0.000,20.000 L0.000,0.000 Z"/>
</svg>
