<svg 
 xmlns="http://www.w3.org/2000/svg"
 xmlns:xlink="http://www.w3.org/1999/xlink"
 width="20px" height="20px">
<path fill-rule="evenodd"  fill="rgb(57, 212, 119)"
 d="M18.000,4.545 C18.000,4.545 18.000,12.238 18.000,15.000 C18.000,17.761 14.642,20.000 10.500,20.000 C6.357,20.000 3.000,17.761 3.000,15.000 C3.000,13.007 3.000,4.545 3.000,4.545 L18.000,4.545 Z"/>
<path fill-rule="evenodd"  fill="rgb(86, 255, 154)"
 d="M10.500,-0.000 C14.642,-0.000 18.000,2.238 18.000,5.000 C18.000,7.761 14.642,10.000 10.500,10.000 C6.358,10.000 3.000,7.761 3.000,5.000 C3.000,2.238 6.358,-0.000 10.500,-0.000 Z"/>
<path fill-rule="evenodd"  fill="none"
 d="M0.000,0.000 L20.000,0.000 L20.000,20.000 L0.000,20.000 L0.000,0.000 Z"/>
</svg>
