<svg 
 xmlns="http://www.w3.org/2000/svg"
 xmlns:xlink="http://www.w3.org/1999/xlink"
 width="13px" height="5px">
<path fill-rule="evenodd"  fill="none"
 d="M-0.000,-0.000 L13.000,-0.000 L13.000,5.000 L-0.000,5.000 L-0.000,-0.000 Z"/>
<path fill-rule="evenodd"  fill="rgb(188, 188, 188)"
 d="M7.980,4.999 C7.801,4.999 7.622,4.939 7.485,4.819 L3.195,1.051 C2.921,0.812 2.921,0.423 3.195,0.184 C3.468,-0.056 3.908,-0.056 4.183,0.184 L7.980,3.517 L11.775,0.184 C12.049,-0.056 12.491,-0.056 12.764,0.184 C13.036,0.423 13.036,0.812 12.764,1.052 L8.473,4.820 C8.337,4.939 8.158,4.999 7.980,4.999 L7.980,4.999 Z"/>
</svg>
