<svg 
 xmlns="http://www.w3.org/2000/svg"
 xmlns:xlink="http://www.w3.org/1999/xlink"
 width="20px" height="20px">
<path fill-rule="evenodd"  fill="rgb(48, 156, 91)"
 d="M10.000,6.000 C14.970,6.000 19.000,8.238 19.000,11.000 C19.000,13.761 14.970,16.000 10.000,16.000 C5.029,16.000 1.000,13.761 1.000,11.000 C1.000,8.238 5.029,6.000 10.000,6.000 Z"/>
<path fill-rule="evenodd"  fill="rgb(57, 212, 119)"
 d="M10.000,4.000 C14.970,4.000 19.000,6.239 19.000,9.000 C19.000,11.761 14.970,14.000 10.000,14.000 C5.029,14.000 1.000,11.761 1.000,9.000 C1.000,6.239 5.029,4.000 10.000,4.000 Z"/>
<path fill-rule="evenodd"  fill="none"
 d="M0.000,0.000 L20.000,0.000 L20.000,20.000 L0.000,20.000 L0.000,0.000 Z"/>
</svg>
