<svg width="40" height="40" viewBox="0 0 40 40" fill="none" xmlns="http://www.w3.org/2000/svg">
<path d="M20.002 11.4004C16.818 11.4004 18.1437 19.6504 14.4287 18.6934C9.31571 17.3764 7 18.8794 7 22.2004C7 28.1654 12.821 33.0004 20 33.0004C27.179 33.0004 33 28.1644 33 22.2004C33 16.2364 27.18 11.4004 20 11.4004H20.002ZM14.502 26.0004C14.2053 26.0004 13.9151 25.9124 13.6685 25.7476C13.4218 25.5828 13.2297 25.3485 13.1162 25.0744C13.0027 24.8003 12.9729 24.4987 13.0308 24.2078C13.0886 23.9168 13.2316 23.6495 13.4414 23.4397C13.6512 23.2299 13.9185 23.0871 14.2095 23.0292C14.5004 22.9713 14.8021 23.001 15.0762 23.1146C15.3503 23.2281 15.5842 23.4204 15.749 23.6671C15.9138 23.9137 16.002 24.2037 16.002 24.5004C16.002 24.8982 15.8438 25.2798 15.5625 25.5611C15.2812 25.8424 14.8998 26.0004 14.502 26.0004Z" stroke="#CBCBCB" stroke-width="1.5"/>
<path d="M23.478 17.7591C23.8882 16.3824 24.693 15.1561 25.793 14.2321C28.543 11.6031 32.7389 9.78513 32.9829 10.0181C33.2269 10.2511 31.2441 14.3441 28.5771 16.8941C27.5828 17.9733 26.2978 18.7424 24.877 19.1091C24.9213 19.4991 24.8702 19.894 24.728 20.2598C24.5859 20.6257 24.3571 20.9515 24.061 21.2091C23.247 21.9901 21.1952 21.9901 19.9922 21.9901C21.7362 20.9911 20.342 17.8721 23.478 17.7591Z" fill="#17CC5F"/>
</svg>
