<svg 
 xmlns="http://www.w3.org/2000/svg"
 xmlns:xlink="http://www.w3.org/1999/xlink"
 width="24px" height="24px">
<path fill-rule="evenodd"  fill="rgb(116, 206, 255)"
 d="M24.000,4.554 L18.008,8.869 L17.992,19.795 L24.000,15.582 L24.000,4.554 Z"/>
<path fill-rule="evenodd"  fill="rgb(170, 225, 255)"
 d="M18.008,8.869 L12.017,13.313 L12.015,24.000 L17.992,19.795 L18.008,8.869 Z"/>
<path fill-rule="evenodd"  fill="rgb(213, 246, 255)"
 d="M12.015,24.000 L12.015,24.000 L6.008,19.748 L6.008,8.771 L12.015,4.544 L12.015,24.000 Z"/>
<path fill-rule="evenodd"  fill="rgb(235, 251, 255)"
 d="M-0.000,15.600 L-0.000,4.544 L6.008,8.981 L6.008,19.748 L-0.000,15.600 Z"/>
<path fill-rule="evenodd"  fill="rgb(168, 228, 255)"
 d="M18.008,8.869 L12.015,4.444 L17.997,-0.000 L24.000,4.554 L18.008,8.869 Z"/>
<path fill-rule="evenodd"  fill="rgb(223, 249, 255)"
 d="M18.008,8.869 L12.017,13.313 L6.008,8.981 L12.015,4.444 L18.008,8.869 Z"/>
<path fill-rule="evenodd"  fill="rgb(242, 255, 254)"
 d="M6.008,8.981 L0.000,4.570 L6.015,0.113 L12.015,4.444 L6.008,8.981 Z"/>
</svg>
