<svg 
 xmlns="http://www.w3.org/2000/svg"
 xmlns:xlink="http://www.w3.org/1999/xlink"
 width="16px" height="16px">
<path fill-rule="evenodd"  fill="rgb(255, 255, 255)"
 d="M15.115,6.713 L14.073,6.313 L12.120,7.074 L14.514,7.991 L8.007,10.507 L1.499,7.991 L3.883,7.070 L1.927,6.309 L0.884,6.709 C0.630,6.787 0.406,6.954 0.246,7.185 C0.086,7.416 -0.000,7.698 -0.000,7.988 C-0.000,8.277 0.086,8.559 0.246,8.790 C0.406,9.021 0.630,9.188 0.884,9.266 L7.486,11.824 C7.813,11.951 8.172,11.951 8.500,11.824 L15.101,9.266 C15.356,9.188 15.580,9.021 15.740,8.790 C15.899,8.559 15.986,8.277 15.986,7.988 C15.986,7.698 15.899,7.416 15.740,7.185 C15.580,6.954 15.356,6.787 15.101,6.709 L15.115,6.713 ZM15.115,10.774 L14.073,10.374 L12.120,11.135 L14.500,12.056 L8.007,14.568 L1.510,12.052 L3.893,11.131 L1.937,10.370 L0.895,10.770 C0.640,10.848 0.416,11.015 0.256,11.246 C0.097,11.477 0.010,11.759 0.010,12.049 C0.010,12.338 0.097,12.620 0.256,12.851 C0.416,13.082 0.640,13.249 0.895,13.327 L7.496,15.885 C7.824,16.012 8.183,16.012 8.510,15.885 L15.112,13.327 C15.366,13.249 15.590,13.082 15.750,12.851 C15.910,12.620 15.996,12.338 15.996,12.049 C15.996,11.759 15.910,11.477 15.750,11.246 C15.590,11.015 15.366,10.848 15.112,10.770 L15.115,10.774 Z"/>
<path fill-rule="evenodd"  fill="rgb(23, 204, 95)"
 d="M8.007,7.862 C7.834,7.863 7.662,7.830 7.500,7.767 L0.898,5.209 C0.644,5.131 0.419,4.964 0.260,4.733 C0.100,4.502 0.014,4.220 0.014,3.930 C0.014,3.641 0.100,3.359 0.260,3.128 C0.419,2.897 0.644,2.730 0.898,2.652 L7.500,0.094 C7.828,-0.032 8.186,-0.032 8.514,0.094 L15.115,2.652 C15.370,2.730 15.594,2.897 15.753,3.128 C15.913,3.359 16.000,3.641 16.000,3.930 C16.000,4.220 15.913,4.502 15.753,4.733 C15.594,4.964 15.370,5.131 15.115,5.209 L8.514,7.767 C8.351,7.830 8.180,7.863 8.007,7.862 L8.007,7.862 Z"/>
</svg>
