<svg 
 xmlns="http://www.w3.org/2000/svg"
 xmlns:xlink="http://www.w3.org/1999/xlink"
 width="120px" height="24px">
<path fill-rule="evenodd"  fill="rgb(255, 255, 255)"
 d="M-0.000,-0.000 L120.000,-0.000 L120.000,24.000 L-0.000,24.000 L-0.000,-0.000 Z"/>
<path fill-rule="evenodd"  fill="rgb(255, 255, 255)"
 d="M24.000,24.000 L18.000,24.000 L18.000,18.000 L24.000,18.000 L24.000,24.000 ZM12.000,18.000 L12.000,12.000 L18.000,12.000 L18.000,18.000 L12.000,18.000 ZM6.000,12.000 L6.000,6.000 L12.000,6.000 L12.000,12.000 L6.000,12.000 ZM12.000,24.000 L6.000,24.000 L6.000,18.000 L12.000,18.000 L12.000,24.000 ZM-0.000,18.000 L-0.000,12.000 L6.000,12.000 L6.000,18.000 L-0.000,18.000 ZM-0.000,-0.000 L6.000,-0.000 L6.000,6.000 L-0.000,6.000 L-0.000,-0.000 ZM12.000,-0.000 L18.000,-0.000 L18.000,6.000 L12.000,6.000 L12.000,-0.000 ZM24.000,6.000 L24.000,12.000 L18.000,12.000 L18.000,6.000 L24.000,6.000 Z"/>
<path fill-rule="evenodd"  fill="rgb(202, 202, 202)"
 d="M12.000,12.000 L12.000,6.000 L18.000,6.000 L18.000,12.000 L12.000,12.000 ZM12.000,18.000 L6.000,18.000 L6.000,12.000 L12.000,12.000 L12.000,18.000 ZM24.000,12.000 L24.000,18.000 L18.000,18.000 L18.000,12.000 L24.000,12.000 ZM18.000,24.000 L12.000,24.000 L12.000,18.000 L18.000,18.000 L18.000,24.000 ZM-0.000,24.000 L-0.000,18.000 L6.000,18.000 L6.000,24.000 L-0.000,24.000 ZM-0.000,12.000 L-0.000,6.000 L6.000,6.000 L6.000,12.000 L-0.000,12.000 ZM6.000,-0.000 L12.000,-0.000 L12.000,6.000 L6.000,6.000 L6.000,-0.000 ZM24.000,-0.000 L24.000,6.000 L18.000,6.000 L18.000,-0.000 L24.000,-0.000 Z"/>
<path fill-rule="evenodd"  fill="rgb(255, 255, 255)"
 d="M48.000,24.000 L42.000,24.000 L42.000,18.000 L48.000,18.000 L48.000,24.000 ZM36.000,18.000 L36.000,12.000 L42.000,12.000 L42.000,18.000 L36.000,18.000 ZM30.000,12.000 L30.000,6.000 L36.000,6.000 L36.000,12.000 L30.000,12.000 ZM36.000,24.000 L30.000,24.000 L30.000,18.000 L36.000,18.000 L36.000,24.000 ZM24.000,18.000 L24.000,12.000 L30.000,12.000 L30.000,18.000 L24.000,18.000 ZM24.000,-0.000 L30.000,-0.000 L30.000,6.000 L24.000,6.000 L24.000,-0.000 ZM36.000,-0.000 L42.000,-0.000 L42.000,6.000 L36.000,6.000 L36.000,-0.000 ZM48.000,6.000 L48.000,12.000 L42.000,12.000 L42.000,6.000 L48.000,6.000 Z"/>
<path fill-rule="evenodd"  fill="rgb(202, 202, 202)"
 d="M36.000,12.000 L36.000,6.000 L42.000,6.000 L42.000,12.000 L36.000,12.000 ZM36.000,18.000 L30.000,18.000 L30.000,12.000 L36.000,12.000 L36.000,18.000 ZM48.000,12.000 L48.000,18.000 L42.000,18.000 L42.000,12.000 L48.000,12.000 ZM42.000,24.000 L36.000,24.000 L36.000,18.000 L42.000,18.000 L42.000,24.000 ZM24.000,24.000 L24.000,18.000 L30.000,18.000 L30.000,24.000 L24.000,24.000 ZM24.000,12.000 L24.000,6.000 L30.000,6.000 L30.000,12.000 L24.000,12.000 ZM30.000,-0.000 L36.000,-0.000 L36.000,6.000 L30.000,6.000 L30.000,-0.000 ZM48.000,-0.000 L48.000,6.000 L42.000,6.000 L42.000,-0.000 L48.000,-0.000 Z"/>
<path fill-rule="evenodd"  fill="rgb(255, 255, 255)"
 d="M72.000,24.000 L66.000,24.000 L66.000,18.000 L72.000,18.000 L72.000,24.000 ZM60.000,18.000 L60.000,12.000 L66.000,12.000 L66.000,18.000 L60.000,18.000 ZM54.000,12.000 L54.000,6.000 L60.000,6.000 L60.000,12.000 L54.000,12.000 ZM60.000,24.000 L54.000,24.000 L54.000,18.000 L60.000,18.000 L60.000,24.000 ZM48.000,18.000 L48.000,12.000 L54.000,12.000 L54.000,18.000 L48.000,18.000 ZM48.000,-0.000 L54.000,-0.000 L54.000,6.000 L48.000,6.000 L48.000,-0.000 ZM60.000,-0.000 L66.000,-0.000 L66.000,6.000 L60.000,6.000 L60.000,-0.000 ZM72.000,6.000 L72.000,12.000 L66.000,12.000 L66.000,6.000 L72.000,6.000 Z"/>
<path fill-rule="evenodd"  fill="rgb(202, 202, 202)"
 d="M60.000,12.000 L60.000,6.000 L66.000,6.000 L66.000,12.000 L60.000,12.000 ZM60.000,18.000 L54.000,18.000 L54.000,12.000 L60.000,12.000 L60.000,18.000 ZM72.000,12.000 L72.000,18.000 L66.000,18.000 L66.000,12.000 L72.000,12.000 ZM66.000,24.000 L60.000,24.000 L60.000,18.000 L66.000,18.000 L66.000,24.000 ZM48.000,24.000 L48.000,18.000 L54.000,18.000 L54.000,24.000 L48.000,24.000 ZM48.000,12.000 L48.000,6.000 L54.000,6.000 L54.000,12.000 L48.000,12.000 ZM54.000,-0.000 L60.000,-0.000 L60.000,6.000 L54.000,6.000 L54.000,-0.000 ZM72.000,-0.000 L72.000,6.000 L66.000,6.000 L66.000,-0.000 L72.000,-0.000 Z"/>
<path fill-rule="evenodd"  fill="rgb(255, 255, 255)"
 d="M96.000,24.000 L90.000,24.000 L90.000,18.000 L96.000,18.000 L96.000,24.000 ZM84.000,18.000 L84.000,12.000 L90.000,12.000 L90.000,18.000 L84.000,18.000 ZM78.000,12.000 L78.000,6.000 L84.000,6.000 L84.000,12.000 L78.000,12.000 ZM84.000,24.000 L78.000,24.000 L78.000,18.000 L84.000,18.000 L84.000,24.000 ZM72.000,18.000 L72.000,12.000 L78.000,12.000 L78.000,18.000 L72.000,18.000 ZM72.000,-0.000 L78.000,-0.000 L78.000,6.000 L72.000,6.000 L72.000,-0.000 ZM84.000,-0.000 L90.000,-0.000 L90.000,6.000 L84.000,6.000 L84.000,-0.000 ZM96.000,6.000 L96.000,12.000 L90.000,12.000 L90.000,6.000 L96.000,6.000 Z"/>
<path fill-rule="evenodd"  fill="rgb(202, 202, 202)"
 d="M84.000,12.000 L84.000,6.000 L90.000,6.000 L90.000,12.000 L84.000,12.000 ZM84.000,18.000 L78.000,18.000 L78.000,12.000 L84.000,12.000 L84.000,18.000 ZM96.000,12.000 L96.000,18.000 L90.000,18.000 L90.000,12.000 L96.000,12.000 ZM90.000,24.000 L84.000,24.000 L84.000,18.000 L90.000,18.000 L90.000,24.000 ZM72.000,24.000 L72.000,18.000 L78.000,18.000 L78.000,24.000 L72.000,24.000 ZM72.000,12.000 L72.000,6.000 L78.000,6.000 L78.000,12.000 L72.000,12.000 ZM78.000,-0.000 L84.000,-0.000 L84.000,6.000 L78.000,6.000 L78.000,-0.000 ZM96.000,-0.000 L96.000,6.000 L90.000,6.000 L90.000,-0.000 L96.000,-0.000 Z"/>
<path fill-rule="evenodd"  fill="rgb(255, 255, 255)"
 d="M120.000,24.000 L114.000,24.000 L114.000,18.000 L120.000,18.000 L120.000,24.000 ZM108.000,18.000 L108.000,12.000 L114.000,12.000 L114.000,18.000 L108.000,18.000 ZM102.000,12.000 L102.000,6.000 L108.000,6.000 L108.000,12.000 L102.000,12.000 ZM108.000,24.000 L102.000,24.000 L102.000,18.000 L108.000,18.000 L108.000,24.000 ZM96.000,18.000 L96.000,12.000 L102.000,12.000 L102.000,18.000 L96.000,18.000 ZM96.000,-0.000 L102.000,-0.000 L102.000,6.000 L96.000,6.000 L96.000,-0.000 ZM108.000,-0.000 L114.000,-0.000 L114.000,6.000 L108.000,6.000 L108.000,-0.000 ZM120.000,6.000 L120.000,12.000 L114.000,12.000 L114.000,6.000 L120.000,6.000 Z"/>
<path fill-rule="evenodd"  fill="rgb(202, 202, 202)"
 d="M108.000,12.000 L108.000,6.000 L114.000,6.000 L114.000,12.000 L108.000,12.000 ZM108.000,18.000 L102.000,18.000 L102.000,12.000 L108.000,12.000 L108.000,18.000 ZM120.000,12.000 L120.000,18.000 L114.000,18.000 L114.000,12.000 L120.000,12.000 ZM114.000,24.000 L108.000,24.000 L108.000,18.000 L114.000,18.000 L114.000,24.000 ZM96.000,24.000 L96.000,18.000 L102.000,18.000 L102.000,24.000 L96.000,24.000 ZM96.000,12.000 L96.000,6.000 L102.000,6.000 L102.000,12.000 L96.000,12.000 ZM102.000,-0.000 L108.000,-0.000 L108.000,6.000 L102.000,6.000 L102.000,-0.000 ZM120.000,-0.000 L120.000,6.000 L114.000,6.000 L114.000,-0.000 L120.000,-0.000 Z"/>
</svg>
