<svg 
 xmlns="http://www.w3.org/2000/svg"
 xmlns:xlink="http://www.w3.org/1999/xlink"
 width="577.9px" height="40.9px">
<path fill-rule="evenodd"  fill="none"
 d="M-0.000,-0.000 L540.000,-0.000 L540.000,40.000 L-0.000,40.000 L-0.000,-0.000 Z"/>
<path fill-rule="evenodd"  fill="rgb(23, 204, 95)"
 d="M193.646,35.910 L193.646,33.131 L192.187,32.235 L192.187,31.563 L194.175,32.739 L194.702,35.910 L193.646,35.910 ZM191.010,34.698 L191.070,33.747 L191.404,32.739 L191.963,34.082 L192.065,35.874 L191.010,35.874 L191.010,34.698 ZM188.900,33.915 L188.900,35.874 L187.844,35.874 L187.844,33.915 L188.900,33.131 L189.729,32.738 L189.534,33.191 L188.900,33.915 ZM186.262,33.131 L186.262,35.874 L185.207,35.874 L185.207,33.915 L186.262,32.035 L187.316,31.635 L187.052,32.235 L186.262,33.131 Z"/>
<path fill-rule="evenodd"  stroke="rgb(51, 51, 51)" stroke-width="1.8px" stroke-linecap="butt" stroke-linejoin="miter" fill="none"
 d="M183.437,36.124 L196.487,36.124 C196.728,36.124 196.925,36.320 196.925,36.561 C196.925,36.803 196.728,36.999 196.487,36.999 L183.437,36.999 C183.195,36.999 182.998,36.803 182.998,36.561 C182.998,36.320 183.195,36.124 183.437,36.124 Z"/>
<path fill-rule="evenodd"  stroke="rgb(51, 51, 51)" stroke-width="1px" stroke-linecap="butt" stroke-linejoin="miter" fill="none"
 d="M191.108,23.473 L194.696,26.993 C195.337,27.622 195.337,28.642 194.696,29.271 L191.108,32.791 C190.468,33.419 189.428,33.419 188.787,32.791 L185.199,29.271 C184.558,28.642 184.558,27.622 185.199,26.993 L188.787,23.473 C189.428,22.845 190.468,22.845 191.108,23.473 Z"/>
<path fill-rule="evenodd"  fill="rgb(51, 51, 51)"
 d="M215.594,23.874 C215.784,23.874 215.967,24.005 216.002,24.210 L216.007,24.281 L216.007,33.308 C216.007,33.383 215.986,33.456 215.947,33.520 L215.900,33.580 L213.414,36.294 C213.336,36.380 213.224,36.429 213.107,36.429 L203.657,36.429 C203.428,36.429 203.243,36.246 203.243,36.021 L203.243,26.727 C203.243,26.600 203.300,26.487 203.394,26.412 L206.386,23.967 C206.442,23.922 206.507,23.892 206.578,23.880 L206.650,23.874 L215.594,23.874 L215.594,23.874 ZM212.693,27.135 L204.072,27.135 L204.072,35.614 L212.693,35.614 L212.693,27.135 ZM215.179,25.342 L213.521,27.151 L213.521,34.960 L215.179,33.150 L215.179,25.342 ZM214.661,24.688 L206.799,24.690 L204.803,26.319 L213.107,26.320 C213.127,26.320 213.144,26.322 213.163,26.324 L214.661,24.688 Z"/>
<path fill-rule="evenodd"  stroke="rgb(23, 204, 95)" stroke-width="1px" stroke-linecap="butt" stroke-linejoin="miter" fill="none"
 d="M207.885,27.297 L207.304,28.439 L209.045,29.010 L207.304,30.151 L209.045,30.722 L207.885,31.863 L209.625,31.863 L209.045,33.575 L211.367,33.575 L210.785,35.858 "/>
<path fill-rule="evenodd"  stroke="rgb(51, 51, 51)" stroke-width="1px" stroke-linecap="butt" stroke-linejoin="miter" fill="none"
 d="M230.450,24.671 C228.603,24.671 229.372,29.379 227.217,28.833 C224.250,28.082 222.906,28.940 222.906,30.835 C222.906,34.239 226.284,36.999 230.450,36.999 C234.615,36.999 237.993,34.239 237.993,30.835 C237.993,27.431 234.615,24.671 230.450,24.671 L230.450,24.671 ZM227.261,33.007 C226.780,33.007 226.390,32.624 226.390,32.151 C226.390,31.678 226.780,31.294 227.261,31.294 C227.742,31.294 228.132,31.678 228.132,32.151 C228.132,32.624 227.742,33.007 227.261,33.007 L227.261,33.007 Z"/>
<path fill-rule="evenodd"  fill="rgb(23, 204, 95)"
 d="M237.987,23.884 C238.129,24.017 236.978,26.352 235.430,27.808 C234.756,28.442 234.026,28.947 233.283,29.071 C233.320,29.371 233.280,29.831 232.810,30.273 C232.339,30.718 231.148,30.718 230.449,30.718 C231.462,30.146 230.651,28.364 232.474,28.301 C232.608,27.619 233.146,26.917 233.816,26.288 C235.411,24.788 237.845,23.751 237.987,23.884 Z"/>
<path fill-rule="evenodd"  fill="rgb(51, 51, 51)"
 d="M172.224,30.497 L173.847,32.123 C173.896,32.172 173.934,32.229 173.959,32.293 C173.985,32.356 173.997,32.421 173.997,32.486 C173.997,32.553 173.985,32.616 173.959,32.678 C173.934,32.739 173.896,32.796 173.847,32.845 C173.746,32.948 173.627,33.000 173.486,33.000 C173.346,33.000 173.227,32.948 173.126,32.845 L171.159,30.890 C171.109,30.840 171.070,30.781 171.043,30.712 C171.016,30.643 171.001,30.573 170.998,30.502 C170.994,30.431 171.002,30.364 171.022,30.300 C171.042,30.236 171.076,30.183 171.127,30.141 L173.126,28.154 C173.227,28.051 173.346,27.999 173.486,27.999 C173.627,27.999 173.746,28.051 173.847,28.154 C173.947,28.252 173.997,28.373 173.997,28.512 C173.997,28.652 173.947,28.771 173.847,28.871 L172.224,30.497 ZM169.959,32.293 C169.984,32.356 169.997,32.421 169.997,32.486 C169.997,32.553 169.984,32.616 169.959,32.678 C169.935,32.739 169.897,32.796 169.847,32.845 C169.747,32.948 169.626,33.000 169.486,33.000 C169.347,33.000 169.226,32.948 169.126,32.845 L167.159,30.890 C167.109,30.840 167.071,30.781 167.043,30.712 C167.016,30.643 167.002,30.573 166.998,30.502 C166.994,30.431 167.002,30.364 167.022,30.300 C167.042,30.236 167.077,30.183 167.126,30.141 L169.126,28.154 C169.226,28.051 169.347,27.999 169.486,27.999 C169.626,27.999 169.747,28.051 169.847,28.154 C169.946,28.252 169.997,28.373 169.997,28.512 C169.997,28.652 169.946,28.771 169.847,28.871 L168.223,30.497 L169.847,32.123 C169.897,32.172 169.935,32.229 169.959,32.293 Z"/>
<path fill-rule="evenodd"  fill="rgb(51, 51, 51)"
 d="M151.188,23.996 L151.374,25.297 L151.451,25.834 L151.936,26.059 C152.137,26.159 152.348,26.271 152.536,26.396 L152.972,26.684 L153.461,26.496 L154.734,25.997 L155.919,27.984 L154.872,28.784 L154.433,29.121 L154.483,29.671 C154.496,29.784 154.496,29.896 154.496,29.996 C154.496,30.096 154.496,30.209 154.483,30.321 L154.433,30.871 L154.872,31.209 L155.919,32.009 L154.747,33.996 L153.461,33.497 L152.972,33.309 L152.536,33.597 C152.336,33.734 152.137,33.846 151.936,33.934 L151.451,34.159 L151.374,34.683 L151.188,35.997 L148.789,35.997 L148.602,34.697 L148.526,34.159 L148.039,33.934 C147.839,33.834 147.627,33.722 147.440,33.597 L147.002,33.309 L146.516,33.497 L145.241,33.996 L144.054,32.009 L145.103,31.209 L145.542,30.871 L145.491,30.321 C145.478,30.209 145.478,30.096 145.478,29.996 C145.478,29.896 145.478,29.784 145.491,29.671 L145.542,29.121 L145.103,28.784 L144.054,27.984 L145.229,25.997 L146.516,26.496 L147.002,26.684 L147.440,26.396 C147.640,26.259 147.839,26.146 148.039,26.059 L148.526,25.834 L148.602,25.309 L148.789,23.996 L151.188,23.996 M151.324,22.997 L148.651,22.997 C148.226,22.997 147.877,23.297 147.814,23.697 L147.613,25.146 C147.365,25.259 147.127,25.396 146.877,25.559 L145.465,25.009 C145.367,24.972 145.267,24.959 145.165,24.959 C144.865,24.959 144.579,25.109 144.442,25.372 L143.106,27.622 C142.893,27.972 142.980,28.434 143.305,28.684 L144.492,29.584 C144.481,29.734 144.468,29.871 144.468,29.996 C144.468,30.121 144.468,30.259 144.492,30.409 L143.305,31.309 C142.980,31.559 142.893,31.996 143.106,32.372 L144.429,34.609 C144.579,34.871 144.865,35.034 145.165,35.034 C145.267,35.034 145.352,35.021 145.455,34.984 L146.866,34.434 C147.102,34.597 147.352,34.734 147.601,34.847 L147.814,36.284 C147.864,36.684 148.226,36.997 148.651,36.997 L151.324,36.997 C151.750,36.997 152.100,36.696 152.162,36.297 L152.374,34.847 C152.623,34.734 152.860,34.597 153.110,34.434 L154.522,34.984 C154.623,35.021 154.721,35.034 154.821,35.034 C155.121,35.034 155.408,34.884 155.547,34.622 L156.884,32.359 C157.080,31.996 156.995,31.559 156.670,31.309 L155.483,30.409 C155.496,30.284 155.509,30.146 155.509,29.996 C155.509,29.847 155.496,29.709 155.483,29.584 L156.670,28.684 C156.995,28.434 157.080,27.997 156.870,27.622 L155.547,25.384 C155.396,25.121 155.109,24.959 154.810,24.959 C154.709,24.959 154.623,24.972 154.522,25.009 L153.110,25.559 C152.873,25.396 152.623,25.259 152.374,25.146 L152.162,23.709 C152.100,23.297 151.750,22.997 151.324,22.997 L151.324,22.997 ZM149.987,27.997 C151.088,27.997 151.987,28.897 151.987,29.996 C151.987,31.096 151.088,31.996 149.987,31.996 C148.888,31.996 147.989,31.096 147.989,29.996 C147.989,28.897 148.888,27.997 149.987,27.997 M149.987,26.996 C148.340,26.996 146.991,28.347 146.991,29.996 C146.991,31.647 148.340,32.996 149.987,32.996 C151.637,32.996 152.987,31.647 152.987,29.996 C152.987,28.347 151.637,26.996 149.987,26.996 L149.987,26.996 Z"/>
<path fill-rule="evenodd"  fill="rgb(51, 51, 51)"
 d="M126.984,27.992 L126.984,28.993 L127.984,28.993 L127.984,29.993 L128.982,29.993 L128.982,30.992 L129.984,30.992 L129.984,31.993 L130.983,31.993 L130.983,30.992 L131.983,30.992 L131.983,29.993 L132.983,29.993 L132.983,28.993 L133.984,28.993 L133.984,27.992 L126.984,27.992 Z"/>
<path fill-rule="evenodd"  fill="rgb(51, 51, 51)"
 d="M95.869,25.499 C95.905,25.581 95.934,25.677 95.957,25.786 C95.980,25.896 95.990,26.010 95.990,26.129 C95.990,26.248 95.968,26.367 95.924,26.486 C95.877,26.604 95.805,26.719 95.706,26.828 C95.595,26.938 95.498,27.035 95.411,27.117 C95.324,27.199 95.248,27.272 95.186,27.335 C95.112,27.409 95.045,27.473 94.981,27.528 L92.429,24.964 C92.538,24.863 92.668,24.742 92.818,24.601 C92.967,24.459 93.094,24.347 93.194,24.265 C93.321,24.164 93.453,24.093 93.589,24.052 C93.726,24.011 93.859,23.993 93.991,23.997 C94.123,24.002 94.252,24.022 94.372,24.059 C94.497,24.096 94.603,24.136 94.695,24.182 C94.885,24.283 95.097,24.459 95.329,24.710 C95.561,24.962 95.741,25.225 95.869,25.499 L95.869,25.499 ZM85.235,32.189 C85.291,32.135 85.418,32.005 85.618,31.799 C85.818,31.593 86.068,31.340 86.370,31.038 L91.405,25.979 L93.958,28.556 L91.022,31.504 L89.932,32.615 C89.568,32.971 89.239,33.298 88.948,33.595 C88.658,33.892 88.414,34.137 88.225,34.328 C88.034,34.521 87.920,34.630 87.885,34.658 C87.793,34.740 87.688,34.826 87.570,34.918 C87.452,35.010 87.329,35.082 87.201,35.138 C87.075,35.201 86.888,35.279 86.643,35.371 C86.396,35.462 86.139,35.551 85.872,35.638 C85.600,35.725 85.347,35.800 85.107,35.864 C84.865,35.928 84.686,35.970 84.568,35.988 C84.323,36.015 84.157,35.979 84.077,35.878 C83.994,35.777 83.971,35.609 84.007,35.371 C84.027,35.243 84.069,35.058 84.138,34.816 C84.204,34.573 84.278,34.321 84.356,34.061 C84.433,33.801 84.507,33.561 84.580,33.342 C84.652,33.122 84.714,32.971 84.758,32.889 C84.813,32.761 84.874,32.644 84.943,32.539 C85.011,32.434 85.109,32.318 85.235,32.189 L85.235,32.189 Z"/>
<path fill-rule="evenodd"  fill="rgb(51, 51, 51)"
 d="M75.830,31.256 C75.727,31.350 75.589,31.404 75.443,31.405 C75.298,31.405 75.159,31.353 75.055,31.260 L73.641,29.967 C73.378,30.133 73.097,30.281 72.804,30.408 L73.666,32.097 C73.791,32.348 73.673,32.645 73.397,32.762 C73.268,32.819 73.116,32.825 72.980,32.781 C72.843,32.736 72.732,32.643 72.669,32.523 L71.770,30.761 C71.384,30.859 70.989,30.926 70.586,30.959 L70.586,32.498 C70.585,32.774 70.339,32.996 70.038,32.996 C69.732,32.996 69.487,32.773 69.487,32.498 L69.487,30.970 C69.023,30.941 68.570,30.870 68.135,30.759 L67.237,32.523 C67.175,32.643 67.064,32.736 66.926,32.781 C66.790,32.825 66.638,32.819 66.509,32.762 C66.233,32.645 66.115,32.349 66.239,32.098 L67.102,30.406 C66.827,30.287 66.577,30.132 66.327,29.977 L64.924,31.260 C64.822,31.353 64.682,31.406 64.539,31.405 C64.392,31.404 64.253,31.350 64.150,31.256 C63.938,31.061 63.935,30.746 64.146,30.549 L65.479,29.330 C65.384,29.243 65.273,29.171 65.184,29.078 C64.790,28.663 64.482,28.186 64.274,27.672 C64.170,27.411 64.315,27.123 64.600,27.027 C64.887,26.931 65.202,27.065 65.307,27.326 C65.470,27.728 65.711,28.099 66.019,28.423 C66.928,29.392 68.375,29.980 69.956,29.980 C71.537,29.980 72.985,29.392 73.895,28.423 C74.203,28.099 74.443,27.728 74.606,27.326 C74.711,27.065 75.027,26.931 75.312,27.027 C75.597,27.123 75.744,27.411 75.639,27.672 C75.431,28.186 75.123,28.663 74.730,29.078 C74.653,29.161 74.569,29.241 74.488,29.319 L75.834,30.549 C76.045,30.746 76.041,31.061 75.830,31.256 Z"/>
<path fill-rule="evenodd"  fill="rgb(51, 51, 51)"
 d="M55.944,30.641 C55.929,30.687 55.929,30.736 55.901,30.777 C54.445,32.822 52.294,33.997 49.989,33.997 C47.686,33.997 45.533,32.822 44.079,30.777 C44.050,30.736 44.050,30.686 44.035,30.640 C44.024,30.606 44.008,30.580 44.005,30.544 C43.993,30.430 44.009,30.314 44.079,30.215 C45.533,28.170 47.686,26.996 49.989,26.996 C52.294,26.996 54.445,28.170 55.901,30.215 C55.970,30.314 55.986,30.429 55.974,30.544 C55.971,30.580 55.955,30.607 55.944,30.641 ZM54.730,30.312 C54.654,30.221 54.577,30.131 54.498,30.045 C54.401,29.939 54.300,29.839 54.198,29.741 C54.118,29.664 54.039,29.586 53.956,29.514 C53.847,29.419 53.735,29.331 53.621,29.244 C53.538,29.181 53.456,29.115 53.371,29.056 C53.251,28.973 53.128,28.899 53.004,28.825 C52.919,28.774 52.835,28.720 52.748,28.674 C52.618,28.604 52.484,28.545 52.351,28.486 C52.265,28.448 52.180,28.405 52.093,28.371 C51.952,28.316 51.807,28.273 51.663,28.229 C51.578,28.203 51.496,28.172 51.410,28.150 C51.252,28.110 51.090,28.083 50.928,28.056 C50.854,28.044 50.782,28.025 50.707,28.016 C50.470,27.986 50.230,27.969 49.989,27.969 C49.748,27.969 49.508,27.986 49.272,28.016 C49.195,28.025 49.120,28.045 49.044,28.058 C48.885,28.084 48.726,28.110 48.569,28.150 C48.481,28.173 48.396,28.205 48.309,28.231 C48.168,28.275 48.026,28.316 47.888,28.370 C47.798,28.405 47.711,28.449 47.622,28.489 C47.491,28.547 47.360,28.605 47.232,28.673 C47.143,28.721 47.058,28.776 46.970,28.828 C46.849,28.901 46.727,28.973 46.609,29.055 C46.522,29.116 46.438,29.182 46.353,29.247 C46.242,29.333 46.132,29.419 46.025,29.512 C45.939,29.587 45.857,29.667 45.775,29.746 C45.676,29.841 45.579,29.938 45.484,30.040 C45.401,30.131 45.320,30.226 45.240,30.322 C45.191,30.381 45.144,30.442 45.096,30.503 C46.351,32.109 48.119,33.023 49.989,33.023 C51.859,33.023 53.627,32.109 54.882,30.504 C54.831,30.439 54.782,30.374 54.730,30.312 ZM49.989,32.316 C48.980,32.316 48.158,31.500 48.158,30.496 C48.158,29.493 48.980,28.676 49.989,28.676 C51.000,28.676 51.822,29.493 51.822,30.496 C51.822,31.500 51.000,32.316 49.989,32.316 Z"/>
<path fill-rule="evenodd"  stroke="rgb(51, 51, 51)" stroke-width="1px" stroke-linecap="butt" stroke-linejoin="miter" fill="none"
 d="M26.993,23.998 L33.993,23.998 C35.651,23.998 36.993,25.341 36.993,26.998 L36.993,33.998 C36.993,35.655 35.651,36.998 33.993,36.998 L26.993,36.998 C25.336,36.998 23.993,35.655 23.993,33.998 L23.993,26.998 C23.993,25.341 25.336,23.998 26.993,23.998 Z"/>
<path fill-rule="evenodd"  fill="rgb(51, 51, 51)"
 d="M26.993,29.998 L33.993,29.998 L33.993,30.998 L26.993,30.998 L26.993,29.998 Z"/>
<path fill-rule="evenodd"  stroke="rgb(51, 51, 51)" stroke-width="1px" stroke-linecap="butt" stroke-linejoin="miter" fill="none"
 d="M6.993,23.998 L13.993,23.998 C15.651,23.998 16.993,25.341 16.993,26.998 L16.993,33.998 C16.993,35.655 15.651,36.998 13.993,36.998 L6.993,36.998 C5.335,36.998 3.993,35.655 3.993,33.998 L3.993,26.998 C3.993,25.341 5.335,23.998 6.993,23.998 Z"/>
<path fill-rule="evenodd"  fill="rgb(51, 51, 51)"
 d="M13.993,30.998 L10.993,30.998 L10.993,33.498 C10.993,33.774 10.770,33.998 10.493,33.998 C10.217,33.998 9.994,33.774 9.994,33.498 L9.994,30.998 L6.993,30.998 L6.993,29.998 L9.994,29.998 L9.994,27.498 C9.994,27.222 10.217,26.998 10.493,26.998 C10.770,26.998 10.993,27.222 10.993,27.498 L10.993,29.998 L13.993,29.998 L13.993,30.998 Z"/>
<path fill-rule="evenodd"  stroke="rgb(51, 51, 51)" stroke-width="1px" stroke-linecap="butt" stroke-linejoin="miter" fill="none"
 d="M364.922,23.000 C364.922,23.000 364.922,24.851 364.922,26.000 C364.922,26.535 365.602,27.186 366.768,28.000 C368.105,28.932 369.980,30.000 370.461,30.000 C370.901,30.000 372.209,28.858 373.230,28.000 C374.301,27.099 375.076,26.469 375.076,26.000 C375.076,25.083 375.076,23.000 375.076,23.000 "/>
<path fill-rule="evenodd"  stroke="rgb(23, 204, 95)" stroke-width="1px" stroke-dasharray="2, 1" stroke-linecap="butt" stroke-linejoin="miter" fill="none"
 d="M363.999,29.000 L369.538,32.999 L370.461,32.999 L375.999,29.000 L375.999,36.999 L363.999,36.999 L363.999,29.000 Z"/>
<path fill-rule="evenodd"  stroke="rgb(51, 51, 51)" stroke-width="1px" stroke-linecap="butt" stroke-linejoin="miter" fill="none"
 d="M384.923,23.000 C384.923,23.000 384.923,24.851 384.923,26.000 C384.923,26.535 385.601,27.185 386.768,27.999 C388.105,28.932 389.979,30.000 390.461,30.000 C390.901,30.000 392.209,28.858 393.230,27.999 C394.301,27.099 395.076,26.469 395.076,26.000 C395.076,25.083 395.076,23.000 395.076,23.000 "/>
<path fill-rule="evenodd"  stroke="rgb(23, 204, 95)" stroke-width="1px" stroke-linecap="butt" stroke-linejoin="miter" fill="none"
 d="M384.000,29.000 L389.538,32.999 L390.461,32.999 L395.999,29.000 L395.999,36.999 L384.000,36.999 L384.000,29.000 Z"/>
<path fill-rule="evenodd"  fill="rgb(51, 51, 51)"
 d="M314.999,31.999 L314.999,35.000 C314.999,36.656 313.656,38.000 311.999,38.000 L305.999,38.000 C304.342,38.000 302.999,36.656 302.999,35.000 L302.999,29.000 C302.999,27.343 304.342,26.000 305.999,26.000 L308.999,26.000 L308.988,27.000 L305.999,27.000 C304.895,27.000 303.999,27.895 303.999,29.000 L303.999,35.000 C303.999,36.104 304.895,36.999 305.999,36.999 L311.999,36.999 C313.104,36.999 313.999,36.104 313.999,35.000 L313.999,31.999 L314.999,31.999 Z"/>
<path fill-rule="evenodd"  fill="rgb(23, 204, 95)"
 d="M317.999,27.000 L314.999,27.000 L314.999,30.000 L313.999,30.000 L313.999,27.000 L310.999,27.000 L310.999,26.000 L313.999,26.000 L313.999,22.999 L314.999,22.999 L314.999,26.000 L317.999,26.000 L317.999,27.000 Z"/>
<path fill-rule="evenodd"  fill="rgb(51, 51, 51)"
 d="M335.000,31.999 L335.000,34.999 C335.000,36.656 333.656,37.999 332.000,37.999 L325.999,37.999 C324.343,37.999 323.000,36.656 323.000,34.999 L323.000,29.000 C323.000,27.343 324.343,25.999 325.999,25.999 L328.999,25.999 L328.988,27.000 L325.999,27.000 C324.895,27.000 324.000,27.895 324.000,29.000 L324.000,34.999 C324.000,36.104 324.895,37.000 325.999,37.000 L332.000,37.000 C333.104,37.000 334.000,36.104 334.000,34.999 L334.000,31.999 L335.000,31.999 Z"/>
<path fill-rule="evenodd"  fill="rgb(23, 204, 95)"
 d="M331.000,25.999 L337.999,25.999 L337.999,27.000 L331.000,27.000 L331.000,25.999 Z"/>
<path fill-rule="evenodd"  fill="rgb(51, 51, 51)"
 d="M354.999,31.999 L354.999,35.000 C354.999,36.656 353.656,37.999 351.999,37.999 L346.000,37.999 C344.343,37.999 343.000,36.656 343.000,35.000 L343.000,29.000 C343.000,27.343 344.343,26.000 346.000,26.000 L348.999,26.000 L348.988,27.000 L346.000,27.000 C344.895,27.000 343.999,27.895 343.999,29.000 L343.999,35.000 C343.999,36.104 344.895,37.000 346.000,37.000 L351.999,37.000 C353.104,37.000 353.999,36.104 353.999,35.000 L353.999,31.999 L354.999,31.999 Z"/>
<path fill-rule="evenodd"  fill="rgb(23, 204, 95)"
 d="M353.999,23.000 C356.208,23.000 358.000,24.790 358.000,27.000 C358.000,29.209 356.208,30.999 353.999,30.999 C351.790,30.999 349.999,29.209 349.999,27.000 C349.999,24.790 351.790,23.000 353.999,23.000 Z"/>
<path fill-rule="evenodd"  fill="rgb(51, 51, 51)"
 d="M283.000,26.000 L283.999,26.000 L283.999,25.000 L283.999,25.000 L288.000,25.000 L288.000,36.000 L289.000,36.000 L289.000,25.000 L293.000,25.000 L293.000,26.000 L294.000,26.000 L294.000,23.999 L283.000,23.999 L283.000,26.000 Z"/>
<path fill-rule="evenodd"  fill="rgb(23, 204, 95)"
 d="M298.000,32.999 L294.999,32.999 L294.999,35.999 L294.000,35.999 L294.000,32.999 L290.999,32.999 L290.999,31.999 L294.000,31.999 L294.000,28.999 L294.999,28.999 L294.999,31.999 L298.000,31.999 L298.000,32.999 Z"/>
<path fill-rule="evenodd"  fill="rgb(51, 51, 51)"
 d="M263.000,26.000 L264.000,26.000 L264.000,25.000 L264.000,25.000 L268.000,25.000 L268.000,35.999 L268.999,35.999 L268.999,25.000 L273.000,25.000 L273.000,26.000 L274.000,26.000 L274.000,23.999 L263.000,23.999 L263.000,26.000 Z"/>
<path fill-rule="evenodd"  fill="rgb(23, 204, 95)"
 d="M271.000,31.999 L277.999,31.999 L277.999,32.999 L271.000,32.999 L271.000,31.999 Z"/>
<path fill-rule="evenodd"  fill="rgb(51, 51, 51)"
 d="M242.999,26.000 L243.999,26.000 L243.999,25.000 L243.999,25.000 L248.000,25.000 L248.000,35.999 L248.999,35.999 L248.999,25.000 L253.000,25.000 L253.000,26.000 L254.000,26.000 L254.000,23.999 L242.999,23.999 L242.999,26.000 Z"/>
<path fill-rule="evenodd"  fill="rgb(23, 204, 95)"
 d="M254.000,27.999 C256.209,27.999 258.000,29.790 258.000,31.999 C258.000,34.208 256.209,35.999 254.000,35.999 C251.791,35.999 250.000,34.208 250.000,31.999 C250.000,29.790 251.791,27.999 254.000,27.999 Z"/>
<path fill-rule="evenodd"  fill="rgb(51, 51, 51)"
 d="M196.486,16.999 L183.436,16.999 C183.194,16.999 182.998,16.803 182.998,16.561 C182.998,16.320 183.194,16.124 183.436,16.124 L196.486,16.124 C196.727,16.124 196.924,16.320 196.924,16.561 C196.924,16.803 196.727,16.999 196.486,16.999 ZM193.645,13.131 L192.186,12.235 L192.186,11.563 L194.175,12.739 L194.702,15.910 L193.645,15.910 L193.645,13.131 ZM191.009,14.698 L191.069,13.746 L191.404,12.739 L191.962,14.082 L192.065,15.874 L191.009,15.874 L191.009,14.698 ZM188.900,13.914 L188.900,15.874 L187.843,15.874 L187.843,13.914 L188.900,13.131 L189.729,12.738 L189.533,13.191 L188.900,13.914 ZM186.261,13.131 L186.261,15.874 L185.207,15.874 L185.207,13.914 L186.261,12.035 L187.316,11.635 L187.052,12.235 L186.261,13.131 Z"/>
<path fill-rule="evenodd"  stroke="rgb(51, 51, 51)" stroke-width="1px" stroke-linecap="butt" stroke-linejoin="miter" fill="none"
 d="M191.107,3.473 L194.695,6.993 C195.336,7.622 195.336,8.642 194.695,9.271 L191.107,12.791 C190.467,13.419 189.428,13.419 188.786,12.791 L185.199,9.271 C184.557,8.642 184.557,7.622 185.199,6.993 L188.786,3.473 C189.428,2.845 190.467,2.845 191.107,3.473 Z"/>
<path fill-rule="evenodd"  stroke="rgb(51, 51, 51)" stroke-width="1px" stroke-linecap="butt" stroke-linejoin="miter" fill="none"
 d="M215.594,3.874 C215.783,3.874 215.966,4.004 216.002,4.210 L216.007,4.281 L216.007,13.308 C216.007,13.383 215.986,13.456 215.946,13.520 L215.900,13.580 L213.414,16.294 C213.335,16.380 213.223,16.429 213.106,16.429 L203.656,16.429 C203.428,16.429 203.243,16.246 203.243,16.021 L203.243,6.727 C203.243,6.600 203.300,6.487 203.393,6.412 L206.386,3.967 C206.442,3.922 206.507,3.892 206.578,3.880 L206.650,3.873 L215.594,3.873 L215.594,3.874 ZM212.692,7.135 L204.071,7.135 L204.071,15.614 L212.692,15.614 L212.692,7.135 ZM215.178,5.342 L213.521,7.152 L213.521,14.960 L215.178,13.150 L215.178,5.342 ZM214.661,4.689 L206.799,4.689 L204.803,6.319 L213.106,6.320 C213.126,6.320 213.144,6.322 213.163,6.324 L214.661,4.689 Z"/>
<path fill-rule="evenodd"  stroke="rgb(51, 51, 51)" stroke-width="1px" stroke-linecap="butt" stroke-linejoin="miter" fill="none"
 d="M207.885,7.297 L207.304,8.439 L209.044,9.010 L207.304,10.151 L209.044,10.722 L207.885,11.863 L209.625,11.863 L209.044,13.575 L211.366,13.575 L210.784,15.858 "/>
<path fill-rule="evenodd"  stroke="rgb(51, 51, 51)" stroke-width="1px" stroke-linecap="butt" stroke-linejoin="miter" fill="none"
 d="M230.449,4.671 C228.602,4.671 229.372,9.379 227.216,8.833 C224.249,8.082 222.905,8.939 222.905,10.834 C222.905,14.239 226.284,16.999 230.449,16.999 C234.615,16.999 237.992,14.239 237.992,10.834 C237.992,7.430 234.615,4.671 230.449,4.671 L230.449,4.671 ZM227.260,13.007 C226.780,13.007 226.390,12.624 226.390,12.151 C226.390,11.678 226.780,11.294 227.260,11.294 C227.742,11.294 228.132,11.678 228.132,12.151 C228.132,12.624 227.742,13.007 227.260,13.007 L227.260,13.007 Z"/>
<path fill-rule="evenodd"  fill="rgb(51, 51, 51)"
 d="M237.986,3.883 C238.128,4.017 236.978,6.351 235.430,7.807 C234.755,8.442 234.025,8.947 233.283,9.071 C233.320,9.371 233.279,9.830 232.810,10.273 C232.338,10.718 231.147,10.718 230.449,10.718 C231.461,10.146 230.651,8.364 232.473,8.301 C232.608,7.618 233.146,6.917 233.815,6.288 C235.410,4.788 237.845,3.751 237.986,3.883 Z"/>
<path fill-rule="evenodd"  stroke="rgb(51, 51, 51)" stroke-width="1px" stroke-linecap="butt" stroke-linejoin="miter" fill="none"
 d="M364.922,2.999 C364.922,2.999 364.922,4.850 364.922,5.999 C364.922,6.535 365.601,7.185 366.768,7.999 C368.105,8.931 369.980,9.999 370.461,9.999 C370.901,9.999 372.209,8.858 373.230,7.999 C374.301,7.099 375.076,6.469 375.076,5.999 C375.076,5.082 375.076,2.999 375.076,2.999 "/>
<path fill-rule="evenodd"  stroke="rgb(51, 51, 51)" stroke-width="1px" stroke-dasharray="2, 1" stroke-linecap="butt" stroke-linejoin="miter" fill="none"
 d="M363.999,8.999 L369.538,12.999 L370.461,12.999 L375.999,8.999 L375.999,16.999 L363.999,16.999 L363.999,8.999 Z"/>
<path fill-rule="evenodd"  stroke="rgb(51, 51, 51)" stroke-width="1px" stroke-linecap="butt" stroke-linejoin="miter" fill="none"
 d="M384.922,2.999 C384.922,2.999 384.922,4.850 384.922,5.999 C384.922,6.535 385.601,7.185 386.768,7.999 C388.104,8.931 389.979,9.999 390.461,9.999 C390.901,9.999 392.208,8.858 393.229,7.999 C394.300,7.099 395.076,6.469 395.076,5.999 C395.076,5.082 395.076,2.999 395.076,2.999 "/>
<path fill-rule="evenodd"  stroke="rgb(51, 51, 51)" stroke-width="1px" stroke-linecap="butt" stroke-linejoin="miter" fill="none"
 d="M383.999,8.999 L389.537,12.999 L390.461,12.999 L395.999,8.999 L395.999,16.999 L383.999,16.999 L383.999,8.999 Z"/>
<path fill-rule="evenodd"  fill="rgb(51, 51, 51)"
 d="M314.999,11.999 L314.999,14.999 C314.999,16.656 313.656,17.999 311.999,17.999 L305.999,17.999 C304.342,17.999 302.999,16.656 302.999,14.999 L302.999,8.999 C302.999,7.342 304.342,5.999 305.999,5.999 L308.999,5.999 L308.988,6.999 L305.999,6.999 C304.894,6.999 303.999,7.894 303.999,8.999 L303.999,14.999 C303.999,16.104 304.894,16.999 305.999,16.999 L311.999,16.999 C313.104,16.999 313.999,16.104 313.999,14.999 L313.999,11.999 L314.999,11.999 Z"/>
<path fill-rule="evenodd"  fill="rgb(51, 51, 51)"
 d="M317.999,6.999 L314.999,6.999 L314.999,9.999 L313.999,9.999 L313.999,6.999 L310.999,6.999 L310.999,5.999 L313.999,5.999 L313.999,2.999 L314.999,2.999 L314.999,5.999 L317.999,5.999 L317.999,6.999 Z"/>
<path fill-rule="evenodd"  fill="rgb(51, 51, 51)"
 d="M334.999,11.999 L334.999,14.999 C334.999,16.656 333.656,17.999 331.999,17.999 L325.999,17.999 C324.342,17.999 323.000,16.656 323.000,14.999 L323.000,8.999 C323.000,7.342 324.342,5.999 325.999,5.999 L328.999,5.999 L328.988,6.999 L325.999,6.999 C324.895,6.999 323.999,7.894 323.999,8.999 L323.999,14.999 C323.999,16.104 324.895,16.999 325.999,16.999 L331.999,16.999 C333.104,16.999 334.000,16.104 334.000,14.999 L334.000,11.999 L334.999,11.999 Z"/>
<path fill-rule="evenodd"  fill="rgb(51, 51, 51)"
 d="M330.999,5.999 L337.999,5.999 L337.999,6.999 L330.999,6.999 L330.999,5.999 Z"/>
<path fill-rule="evenodd"  fill="rgb(51, 51, 51)"
 d="M354.999,11.999 L354.999,14.999 C354.999,16.656 353.656,17.999 351.999,17.999 L345.999,17.999 C344.343,17.999 342.999,16.656 342.999,14.999 L342.999,8.999 C342.999,7.342 344.343,5.999 345.999,5.999 L348.999,5.999 L348.988,6.999 L345.999,6.999 C344.895,6.999 343.999,7.894 343.999,8.999 L343.999,14.999 C343.999,16.104 344.895,16.999 345.999,16.999 L351.999,16.999 C353.104,16.999 353.999,16.104 353.999,14.999 L353.999,11.999 L354.999,11.999 Z"/>
<path fill-rule="evenodd"  fill="rgb(51, 51, 51)"
 d="M353.999,2.999 C356.208,2.999 357.999,4.790 357.999,6.999 C357.999,9.208 356.208,10.999 353.999,10.999 C351.790,10.999 349.999,9.208 349.999,6.999 C349.999,4.790 351.790,2.999 353.999,2.999 Z"/>
<path fill-rule="evenodd"  fill="rgb(51, 51, 51)"
 d="M282.999,5.999 L283.999,5.999 L283.999,4.999 L283.999,4.999 L288.000,4.999 L288.000,15.999 L288.999,15.999 L288.999,4.999 L292.999,4.999 L292.999,5.999 L293.999,5.999 L293.999,3.999 L282.999,3.999 L282.999,5.999 Z"/>
<path fill-rule="evenodd"  fill="rgb(51, 51, 51)"
 d="M297.999,12.999 L294.999,12.999 L294.999,15.999 L293.999,15.999 L293.999,12.999 L290.999,12.999 L290.999,11.999 L293.999,11.999 L293.999,8.999 L294.999,8.999 L294.999,11.999 L297.999,11.999 L297.999,12.999 Z"/>
<path fill-rule="evenodd"  fill="rgb(51, 51, 51)"
 d="M263.000,5.999 L263.999,5.999 L263.999,4.999 L263.999,4.999 L267.999,4.999 L267.999,15.999 L268.999,15.999 L268.999,4.999 L272.999,4.999 L272.999,5.999 L274.000,5.999 L274.000,3.999 L263.000,3.999 L263.000,5.999 Z"/>
<path fill-rule="evenodd"  fill="rgb(51, 51, 51)"
 d="M270.999,11.999 L277.999,11.999 L277.999,12.999 L270.999,12.999 L270.999,11.999 Z"/>
<path fill-rule="evenodd"  fill="rgb(51, 51, 51)"
 d="M242.999,5.999 L243.999,5.999 L243.999,4.999 L243.999,4.999 L247.999,4.999 L247.999,15.999 L248.999,15.999 L248.999,4.999 L253.000,4.999 L253.000,5.999 L254.000,5.999 L254.000,3.999 L242.999,3.999 L242.999,5.999 Z"/>
<path fill-rule="evenodd"  fill="rgb(51, 51, 51)"
 d="M254.000,7.999 C256.209,7.999 257.999,9.790 257.999,11.999 C257.999,14.208 256.209,15.999 254.000,15.999 C251.790,15.999 249.999,14.208 249.999,11.999 C249.999,9.790 251.790,7.999 254.000,7.999 Z"/>
<path fill-rule="evenodd"  fill="rgb(51, 51, 51)"
 d="M107.015,32.008 L107.015,31.007 L108.015,31.007 L108.015,30.007 L109.014,30.007 L109.014,29.007 L110.015,29.007 L110.015,28.007 L111.014,28.007 L111.014,29.007 L112.015,29.007 L112.015,30.007 L113.015,30.007 L113.015,31.007 L114.015,31.007 L114.015,32.008 L107.015,32.008 Z"/>
<path fill-rule="evenodd"  fill="rgb(23, 204, 95)"
 d="M127.015,7.992 L127.015,8.993 L128.015,8.993 L128.015,9.993 L129.013,9.993 L129.013,10.992 L130.015,10.992 L130.015,11.992 L131.014,11.992 L131.014,10.992 L132.014,10.992 L132.014,9.993 L133.014,9.993 L133.014,8.993 L134.015,8.993 L134.015,7.992 L127.015,7.992 Z"/>
<path fill-rule="evenodd"  fill="rgb(23, 204, 95)"
 d="M107.015,12.008 L107.015,11.007 L108.015,11.007 L108.015,10.007 L109.014,10.007 L109.014,9.007 L110.015,9.007 L110.015,8.007 L111.014,8.007 L111.014,9.007 L112.015,9.007 L112.015,10.007 L113.015,10.007 L113.015,11.007 L114.015,11.007 L114.015,12.008 L107.015,12.008 Z"/>
<path fill-rule="evenodd"  fill="rgb(51, 51, 51)"
 d="M455.765,13.654 L455.759,13.658 L450.240,16.906 C450.093,16.993 449.914,16.994 449.766,16.911 L449.759,16.906 L444.239,13.658 C444.093,13.571 444.002,13.413 443.999,13.241 L443.999,6.736 C443.999,6.564 444.088,6.404 444.234,6.316 L444.239,6.313 L449.758,3.065 C449.904,2.979 450.084,2.978 450.231,3.061 L450.233,3.061 L450.240,3.065 L455.759,6.313 C455.905,6.399 455.997,6.557 455.999,6.730 L455.999,13.233 C455.999,13.406 455.910,13.565 455.765,13.654 ZM454.918,7.091 L449.998,4.195 L445.079,7.091 L445.079,12.880 L449.998,15.776 L454.918,12.881 L454.918,7.091 ZM447.109,10.499 C447.039,10.428 446.999,10.330 446.999,10.229 C446.999,10.127 447.039,10.029 447.109,9.958 C447.256,9.808 447.491,9.808 447.637,9.958 L449.660,12.029 L449.660,6.333 C449.660,6.170 449.788,6.037 449.946,6.037 L450.098,6.037 C450.256,6.037 450.384,6.170 450.384,6.333 L450.384,11.930 L452.380,9.885 C452.522,9.740 452.751,9.740 452.893,9.885 C452.961,9.954 453.000,10.049 453.000,10.148 C453.000,10.247 452.961,10.341 452.893,10.411 L450.382,12.984 C450.374,13.068 450.338,13.147 450.281,13.207 C450.135,13.357 449.899,13.357 449.752,13.207 L447.109,10.499 Z"/>
<path fill-rule="evenodd"  fill="rgb(51, 51, 51)"
 d="M477.000,10.346 C477.000,10.551 476.908,10.748 476.745,10.892 L471.066,16.000 L469.271,16.000 L469.271,14.386 L473.736,10.367 L474.951,9.279 C475.286,8.977 475.830,8.977 476.166,9.279 L476.165,9.279 L476.745,9.800 C476.908,9.944 477.000,10.141 477.000,10.346 ZM474.363,10.947 L470.676,14.258 L470.676,14.737 L471.206,14.737 L474.892,11.423 L474.363,10.947 ZM471.680,7.600 L468.393,9.324 L468.393,12.737 L469.271,12.281 L469.271,13.376 L467.866,14.105 L462.999,11.579 L462.999,6.526 L467.866,4.000 L472.734,6.526 L472.734,9.098 L471.680,10.045 L471.680,7.600 ZM464.052,11.031 L467.340,12.737 L467.340,9.324 L464.052,7.600 L464.052,11.031 ZM467.866,5.094 L464.598,6.790 L467.866,8.504 L471.135,6.790 L467.866,5.094 Z"/>
<path fill-rule="evenodd"  fill="rgb(51, 51, 51)"
 d="M450.233,23.061 L450.240,23.065 L455.759,26.313 C455.905,26.399 455.997,26.557 455.999,26.729 L455.999,33.233 C455.999,33.406 455.910,33.565 455.765,33.654 L455.759,33.658 L450.240,36.906 C450.093,36.993 449.914,36.994 449.766,36.910 L449.759,36.906 L444.239,33.658 C444.093,33.571 444.002,33.413 443.999,33.241 L443.999,26.736 C443.999,26.564 444.088,26.404 444.234,26.316 L444.239,26.313 L449.758,23.065 C449.904,22.979 450.084,22.978 450.231,23.061 L450.233,23.061 ZM449.998,24.195 L445.079,27.091 L445.079,32.880 L449.998,35.776 L454.918,32.881 L454.918,27.091 L449.998,24.195 Z"/>
<path fill-rule="evenodd"  fill="rgb(23, 204, 95)"
 d="M452.893,30.411 L450.382,32.984 C450.374,33.068 450.338,33.147 450.281,33.207 C450.135,33.357 449.899,33.357 449.752,33.207 L447.109,30.499 C447.039,30.428 446.999,30.330 446.999,30.229 C446.999,30.127 447.039,30.029 447.109,29.958 C447.256,29.808 447.491,29.808 447.637,29.958 L449.660,32.029 L449.660,26.333 C449.660,26.170 449.788,26.037 449.946,26.037 L450.098,26.037 C450.256,26.037 450.384,26.170 450.384,26.333 L450.384,31.930 L452.380,29.885 C452.522,29.740 452.751,29.740 452.893,29.885 C452.961,29.954 453.000,30.049 453.000,30.148 C453.000,30.247 452.961,30.341 452.893,30.411 L452.893,30.411 Z"/>
<path fill-rule="evenodd"  fill="rgb(51, 51, 51)"
 d="M467.866,24.000 L472.734,26.526 L472.734,29.098 L471.680,30.045 L471.680,27.600 L468.393,29.324 L468.393,32.737 L469.271,32.281 L469.271,33.376 L467.866,34.105 L462.999,31.579 L462.999,26.526 L467.866,24.000 ZM464.052,27.600 L464.052,31.031 L467.340,32.737 L467.340,29.324 L464.052,27.600 ZM467.866,25.094 L464.598,26.790 L467.866,28.504 L471.135,26.790 L467.866,25.094 Z"/>
<path fill-rule="evenodd"  fill="rgb(23, 204, 95)"
 d="M476.165,29.279 L476.745,29.800 C476.908,29.944 477.000,30.141 477.000,30.346 C477.000,30.551 476.908,30.748 476.745,30.892 L471.066,36.000 L469.271,36.000 L469.271,34.386 L473.736,30.367 L474.951,29.279 C475.286,28.977 475.830,28.977 476.166,29.279 L476.165,29.279 ZM470.676,34.737 L471.206,34.737 L474.892,31.423 L474.363,30.947 L470.676,34.258 L470.676,34.737 Z"/>
<path fill-rule="evenodd"  fill="rgb(51, 51, 51)"
 d="M423.999,11.999 L423.999,15.000 C423.999,16.104 424.895,17.000 425.999,17.000 L434.999,17.000 C436.103,17.000 436.999,16.104 436.999,15.000 L436.999,12.000 L437.999,12.000 L437.999,15.000 C437.999,16.656 436.656,18.000 434.999,18.000 L425.999,18.000 C424.342,18.000 422.999,16.656 422.999,15.000 L422.999,11.999 L423.999,11.999 Z"/>
<path fill-rule="evenodd"  fill="rgb(51, 51, 51)"
 d="M423.999,11.000 L423.999,6.000 C423.999,4.896 424.895,4.000 425.999,4.000 L434.999,4.000 C436.103,4.000 436.999,4.896 436.999,6.000 L436.999,11.000 L437.999,11.000 L437.999,6.000 C437.999,4.344 436.656,3.000 434.999,3.000 L425.999,3.000 C424.342,3.000 422.999,4.344 422.999,6.000 L422.999,11.000 L423.999,11.000 Z"/>
<path fill-rule="evenodd"  fill="rgb(51, 51, 51)"
 d="M422.999,12.000 L426.992,12.000 L426.999,7.000 L433.999,7.000 L433.999,12.000 L437.999,12.000 L437.999,13.000 L432.999,13.000 L432.999,8.000 L427.999,7.981 L427.999,12.000 L427.999,13.000 L422.999,13.000 L422.999,12.000 Z"/>
<path fill-rule="evenodd"  fill="rgb(51, 51, 51)"
 d="M423.999,31.999 L423.999,35.000 C423.999,36.104 424.895,37.000 425.999,37.000 L434.999,37.000 C436.103,37.000 436.999,36.104 436.999,35.000 L436.999,31.999 L437.999,31.999 L437.999,35.000 C437.999,36.656 436.656,37.999 434.999,37.999 L425.999,37.999 C424.342,37.999 422.999,36.656 422.999,35.000 L422.999,31.999 L423.999,31.999 Z"/>
<path fill-rule="evenodd"  fill="rgb(51, 51, 51)"
 d="M423.999,31.000 L423.999,26.000 C423.999,24.896 424.895,24.000 425.999,24.000 L434.999,24.000 C436.103,24.000 436.999,24.896 436.999,26.000 L436.999,31.000 L437.999,31.000 L437.999,26.000 C437.999,24.344 436.656,23.000 434.999,23.000 L425.999,23.000 C424.342,23.000 422.999,24.344 422.999,26.000 L422.999,31.000 L423.999,31.000 Z"/>
<path fill-rule="evenodd"  fill="rgb(23, 204, 95)"
 d="M422.999,32.000 L426.992,32.000 L426.999,27.000 L433.999,27.000 L433.999,32.000 L437.999,32.000 L437.999,33.000 L432.999,33.000 L432.999,28.000 L427.999,27.981 L427.999,32.000 L427.999,33.000 L422.999,33.000 L422.999,32.000 Z"/>
<path fill-rule="evenodd"  fill="rgb(51, 51, 51)"
 d="M403.999,30.999 L403.999,35.000 C403.999,36.104 404.895,37.000 405.999,37.000 L414.999,37.000 C416.103,37.000 416.999,36.104 416.999,35.000 L416.999,30.999 L417.999,30.999 L417.999,35.000 C417.999,36.656 416.656,37.999 414.999,37.999 L405.999,37.999 C404.342,37.999 402.999,36.656 402.999,35.000 L402.999,30.999 L403.999,30.999 Z"/>
<path fill-rule="evenodd"  fill="rgb(51, 51, 51)"
 d="M403.999,29.000 L403.999,26.000 C403.999,24.896 404.895,24.000 405.999,24.000 L414.999,24.000 C416.103,24.000 416.999,24.896 416.999,26.000 L416.999,29.000 L417.999,29.000 L417.999,26.000 C417.999,24.344 416.656,23.000 414.999,23.000 L405.999,23.000 C404.342,23.000 402.999,24.344 402.999,26.000 L402.999,29.000 L403.999,29.000 Z"/>
<path fill-rule="evenodd"  fill="rgb(23, 204, 95)"
 d="M413.999,31.000 L413.999,30.000 L418.000,30.000 L418.000,31.000 L413.999,31.000 ZM408.000,30.000 L412.999,30.000 L412.999,31.000 L408.000,31.000 L408.000,30.000 ZM402.999,30.000 L407.000,30.000 L407.000,31.000 L402.999,31.000 L402.999,30.000 Z"/>
<path fill-rule="evenodd"  fill="rgb(51, 51, 51)"
 d="M403.999,10.999 L403.999,15.000 C403.999,16.104 404.895,16.999 405.999,16.999 L414.999,16.999 C416.103,16.999 416.999,16.104 416.999,15.000 L416.999,10.999 L417.999,10.999 L417.999,15.000 C417.999,16.656 416.656,18.000 414.999,18.000 L405.999,18.000 C404.342,18.000 402.999,16.656 402.999,15.000 L402.999,10.999 L403.999,10.999 Z"/>
<path fill-rule="evenodd"  fill="rgb(51, 51, 51)"
 d="M403.999,9.000 L403.999,6.000 C403.999,4.896 404.895,4.000 405.999,4.000 L414.999,4.000 C416.103,4.000 416.999,4.896 416.999,6.000 L416.999,9.000 L417.999,9.000 L417.999,6.000 C417.999,4.343 416.656,3.000 414.999,3.000 L405.999,3.000 C404.342,3.000 402.999,4.343 402.999,6.000 L402.999,9.000 L403.999,9.000 Z"/>
<path fill-rule="evenodd"  fill="rgb(51, 51, 51)"
 d="M413.999,11.000 L413.999,10.000 L418.000,10.000 L418.000,11.000 L413.999,11.000 ZM408.000,10.000 L412.999,10.000 L412.999,11.000 L408.000,11.000 L408.000,10.000 ZM402.999,10.000 L407.000,10.000 L407.000,11.000 L402.999,11.000 L402.999,10.000 Z"/>
<path fill-rule="evenodd"  fill="rgb(51, 51, 51)"
 d="M496.188,10.863 C495.452,10.860 494.788,11.282 494.504,11.931 C494.220,12.580 494.374,13.328 494.893,13.826 C495.413,14.325 496.195,14.474 496.875,14.206 C497.556,13.938 497.999,13.304 497.999,12.600 C497.999,11.643 497.189,10.867 496.188,10.863 L496.188,10.863 ZM490.485,5.488 C491.225,5.493 491.895,5.071 492.182,4.419 C492.469,3.767 492.315,3.014 491.793,2.513 C491.270,2.012 490.483,1.862 489.799,2.133 C489.116,2.405 488.671,3.043 488.674,3.751 C488.674,4.707 489.484,5.484 490.485,5.488 L490.485,5.488 ZM496.531,9.807 C496.927,9.854 497.308,9.979 497.650,10.175 L497.650,10.100 C497.644,7.382 495.969,4.920 493.372,3.812 C493.367,4.183 493.282,4.550 493.123,4.888 C495.109,5.815 496.413,7.698 496.531,9.807 L496.531,9.807 ZM486.621,12.580 C486.617,11.629 485.810,10.859 484.815,10.857 C483.819,10.854 483.009,11.620 482.999,12.571 C482.990,13.522 483.786,14.302 484.781,14.317 C485.267,14.323 485.735,14.142 486.081,13.816 C486.427,13.489 486.621,13.044 486.621,12.580 L486.621,12.580 ZM484.439,9.807 C484.552,7.702 485.844,5.819 487.819,4.881 C487.659,4.545 487.574,4.181 487.569,3.812 C484.972,4.920 483.297,7.382 483.291,10.100 C483.308,10.131 483.329,10.159 483.356,10.182 C483.685,9.985 484.055,9.858 484.439,9.807 L484.439,9.807 ZM490.485,15.939 C489.125,15.938 487.805,15.496 486.742,14.685 C486.444,14.939 486.095,15.132 485.715,15.250 C488.427,17.583 492.543,17.583 495.254,15.250 C494.875,15.132 494.525,14.939 494.228,14.685 C493.163,15.491 491.843,15.928 490.485,15.925 L490.485,15.939 Z"/>
<path fill-rule="evenodd"  fill="rgb(51, 51, 51)"
 d="M496.188,30.863 C495.452,30.861 494.788,31.282 494.504,31.931 C494.220,32.580 494.374,33.328 494.893,33.826 C495.413,34.325 496.195,34.474 496.875,34.206 C497.556,33.938 497.999,33.304 497.999,32.600 C497.999,31.644 497.189,30.867 496.188,30.863 L496.188,30.863 ZM490.485,25.488 C491.225,25.494 491.895,25.071 492.182,24.419 C492.469,23.767 492.315,23.014 491.793,22.513 C491.270,22.012 490.483,21.862 489.799,22.133 C489.116,22.405 488.671,23.044 488.674,23.751 C488.674,24.708 489.484,25.484 490.485,25.488 L490.485,25.488 ZM486.621,32.580 C486.617,31.629 485.810,30.859 484.815,30.857 C483.819,30.854 483.009,31.620 482.999,32.571 C482.990,33.522 483.786,34.302 484.781,34.317 C485.267,34.323 485.735,34.142 486.081,33.816 C486.427,33.489 486.621,33.044 486.621,32.580 L486.621,32.580 Z"/>
<path fill-rule="evenodd"  fill="rgb(23, 204, 95)"
 d="M496.531,29.807 C496.927,29.854 497.308,29.979 497.650,30.175 L497.650,30.100 C497.644,27.382 495.969,24.920 493.372,23.812 C493.367,24.183 493.282,24.550 493.123,24.888 C495.109,25.815 496.413,27.698 496.531,29.807 L496.531,29.807 ZM484.439,29.807 C484.552,27.703 485.844,25.819 487.819,24.882 C487.659,24.545 487.574,24.181 487.569,23.812 C484.972,24.920 483.297,27.382 483.291,30.100 C483.308,30.131 483.329,30.159 483.356,30.182 C483.685,29.985 484.055,29.858 484.439,29.807 L484.439,29.807 ZM490.485,35.939 C489.125,35.938 487.805,35.496 486.742,34.685 C486.444,34.939 486.095,35.132 485.715,35.251 C488.427,37.583 492.543,37.583 495.254,35.251 C494.875,35.132 494.525,34.939 494.228,34.685 C493.163,35.491 491.843,35.928 490.485,35.925 L490.485,35.939 Z"/>
<path fill-rule="evenodd"  fill="rgb(252, 225, 0)"
 d="M509.999,1.999 L501.997,17.999 L517.998,17.999 L509.999,1.999 Z"/>
<path fill-rule="evenodd"  fill="rgb(26, 23, 0)"
 d="M509.998,12.561 C509.445,12.561 508.998,12.100 508.998,11.530 L508.998,9.030 C508.998,8.461 509.445,7.999 509.998,7.999 C510.550,7.999 510.997,8.461 510.997,9.030 L510.997,11.530 C510.997,12.100 510.550,12.561 509.998,12.561 M509.998,13.937 C510.550,13.937 510.997,14.398 510.997,14.968 C510.997,15.537 510.550,15.999 509.998,15.999 C509.445,15.999 508.998,15.537 508.998,14.968 C508.998,14.398 509.445,13.937 509.998,13.937 "/>
<path fill-rule="evenodd"  fill="rgb(51, 51, 51)"
 d="M522.999,10.397 L523.937,9.781 L530.499,13.890 L536.124,10.397 L537.062,9.781 L538.000,10.397 L530.499,15.123 L522.999,10.397 ZM522.999,7.726 L530.499,3.000 L538.000,7.726 L530.499,12.452 L522.999,7.726 ZM530.499,4.233 L524.874,7.726 L530.499,11.219 L536.124,7.726 L530.499,4.233 ZM530.499,16.870 L530.499,16.767 L536.124,13.274 L537.062,12.657 L538.000,13.274 L530.499,18.000 L522.999,13.274 L523.937,12.760 L530.499,16.870 Z"/>
<path fill-rule="evenodd"  fill="rgb(51, 51, 51)"
 d="M522.999,27.726 L530.499,23.000 L538.000,27.726 L530.499,32.452 L522.999,27.726 ZM530.499,24.233 L524.874,27.726 L530.499,31.219 L536.124,27.726 L530.499,24.233 ZM530.499,36.870 L530.499,36.767 L536.124,33.274 L537.062,32.657 L538.000,33.274 L530.499,38.000 L522.999,33.274 L523.937,32.760 L530.499,36.870 Z"/>
<path fill-rule="evenodd"  fill="rgb(23, 204, 95)"
 d="M537.062,29.781 L536.124,30.397 L530.499,33.890 L523.937,29.781 L522.999,30.397 L530.499,35.123 L538.000,30.397 L537.062,29.781 Z"/>
<path fill-rule="evenodd"  fill="rgb(255, 125, 0)"
 d="M550.000,37.000 C546.134,37.000 543.000,33.866 543.000,30.000 C543.000,26.134 546.134,23.000 550.000,23.000 C553.866,23.000 557.000,26.134 557.000,30.000 C557.000,33.866 553.866,37.000 550.000,37.000 ZM551.000,26.000 L549.000,26.000 L549.000,31.000 L551.000,31.000 L551.000,26.000 ZM551.000,32.000 L549.000,32.000 L549.000,34.000 L551.000,34.000 L551.000,32.000 Z"/>
<path fill-rule="evenodd"  fill="rgb(23, 204, 95)"
 d="M570.000,37.000 C566.134,37.000 563.000,33.866 563.000,30.000 C563.000,26.134 566.134,23.000 570.000,23.000 C573.866,23.000 577.000,26.134 577.000,30.000 C577.000,33.866 573.866,37.000 570.000,37.000 ZM572.802,27.000 L569.395,30.523 L567.198,28.251 L566.000,29.490 L569.395,33.000 L574.000,28.240 L572.802,27.000 Z"/>
<path fill-rule="evenodd"  fill="rgb(255, 255, 255)"
 d="M570.000,17.000 C566.134,17.000 563.000,13.866 563.000,10.000 C563.000,6.134 566.134,3.000 570.000,3.000 C573.866,3.000 577.000,6.134 577.000,10.000 C577.000,13.866 573.866,17.000 570.000,17.000 ZM572.802,7.000 L569.395,10.523 L567.198,8.251 L566.000,9.490 L569.395,13.000 L574.000,8.240 L572.802,7.000 Z"/>
</svg>
