<svg 
 xmlns="http://www.w3.org/2000/svg"
 xmlns:xlink="http://www.w3.org/1999/xlink"
 width="19px" height="16px">
<path fill-rule="evenodd"  fill="none"
 d="M-0.000,-0.000 L19.000,-0.000 L19.000,16.000 L-0.000,16.000 L-0.000,-0.000 Z"/>
<path fill-rule="evenodd"  fill="rgb(188, 188, 188)"
 d="M16.950,14.293 C16.817,14.715 16.432,14.999 15.996,14.999 L3.999,14.999 C3.446,14.999 2.998,14.546 2.997,13.984 L2.997,2.014 C2.998,1.454 3.446,0.999 3.997,0.999 L8.998,0.999 C9.261,0.999 9.517,1.106 9.703,1.296 C9.891,1.486 9.996,1.744 9.996,2.014 C9.996,2.576 10.443,3.030 10.996,3.030 L15.996,3.030 C16.549,3.032 16.996,3.486 16.996,4.049 L16.996,5.566 L16.992,5.566 C16.992,5.569 16.994,5.571 16.994,5.573 C16.994,5.852 16.772,6.080 16.495,6.080 C16.221,6.080 15.999,5.855 15.996,5.578 L15.996,4.049 L10.996,4.049 C9.892,4.049 8.998,3.139 8.998,2.015 L3.997,2.015 L3.997,10.853 L5.044,7.574 C5.176,7.154 5.561,6.868 5.996,6.868 L17.996,6.868 C18.550,6.870 18.995,7.324 18.997,7.885 L16.950,14.293 Z"/>
</svg>
