<svg 
 xmlns="http://www.w3.org/2000/svg"
 xmlns:xlink="http://www.w3.org/1999/xlink"
 width="16px" height="16px">
<path fill-rule="evenodd"  fill="rgb(51, 51, 51)"
 d="M15.023,6.224 L15.023,3.884 C15.023,3.512 14.903,3.156 14.691,2.895 C14.479,2.633 14.192,2.487 13.893,2.489 L7.652,2.489 L7.258,0.979 C7.112,0.398 6.679,0.001 6.189,-0.000 L1.131,-0.000 C0.831,-0.003 0.542,0.145 0.330,0.408 C0.118,0.672 -0.000,1.030 0.002,1.402 L0.002,14.772 C-0.001,14.827 -0.001,14.882 0.002,14.938 L0.002,15.170 C0.070,15.403 0.188,15.610 0.342,15.767 L0.416,15.767 C0.567,15.896 0.742,15.976 0.924,16.000 L13.459,16.000 C13.977,16.000 14.429,15.562 14.555,14.938 L15.991,7.784 C16.066,7.022 15.635,6.327 15.023,6.224 L15.023,6.224 ZM1.131,1.402 L6.182,1.402 L6.851,3.892 L13.893,3.892 L13.893,6.216 L2.534,6.216 C2.028,6.234 1.594,6.668 1.472,7.278 L1.124,9.004 L1.131,1.402 Z"/>
</svg>
