<svg 
 xmlns="http://www.w3.org/2000/svg"
 xmlns:xlink="http://www.w3.org/1999/xlink"
 width="24px" height="22px">
<path fill-rule="evenodd"  fill="rgb(23, 204, 95)"
 d="M19.999,22.000 L3.999,22.000 C2.343,22.000 1.000,20.657 1.000,19.000 L1.000,3.000 C1.000,1.343 2.343,-0.000 3.999,-0.000 L19.999,-0.000 C21.656,-0.000 23.000,1.343 23.000,3.000 L23.000,19.000 C23.000,20.657 21.656,22.000 19.999,22.000 ZM22.000,3.000 C22.000,1.895 21.104,1.000 19.999,1.000 L3.999,1.000 C2.895,1.000 2.000,1.895 2.000,3.000 L2.000,19.000 C2.000,20.104 2.895,21.000 3.999,21.000 L19.999,21.000 C21.104,21.000 22.000,20.104 22.000,19.000 L22.000,3.000 Z"/>
<path fill-rule="evenodd"  fill="rgb(23, 204, 95)"
 d="M4.575,0.368 L23.131,18.924 L22.424,19.632 L3.868,1.075 L4.575,0.368 Z"/>
<path fill-rule="evenodd"  fill="rgb(23, 204, 95)"
 d="M21.308,-0.007 L0.993,19.309 L1.691,20.006 L22.007,0.691 L21.308,-0.007 Z"/>
<path fill-rule="evenodd"  fill="rgb(23, 204, 95)"
 d="M22.308,3.993 L3.993,21.309 L4.692,22.006 L23.007,4.691 L22.308,3.993 Z"/>
<path fill-rule="evenodd"  fill="rgb(23, 204, 95)"
 d="M1.575,3.368 L21.131,20.924 L20.424,21.632 L0.868,4.075 L1.575,3.368 Z"/>
<path fill-rule="evenodd"  fill="rgb(23, 204, 95)"
 d="M14.575,0.368 L23.131,7.925 L22.424,8.632 L13.868,1.075 L14.575,0.368 Z"/>
<path fill-rule="evenodd"  fill="rgb(23, 204, 95)"
 d="M1.575,13.368 L10.131,20.924 L9.424,21.632 L0.868,14.075 L1.575,13.368 Z"/>
<path fill-rule="evenodd"  fill="rgb(23, 204, 95)"
 d="M11.316,-0.007 L0.993,9.318 L1.683,10.006 L12.006,0.681 L11.316,-0.007 Z"/>
<path fill-rule="evenodd"  fill="rgb(23, 204, 95)"
 d="M22.317,12.993 L13.993,21.318 L14.683,22.006 L23.006,13.681 L22.317,12.993 Z"/>
<path fill-rule="evenodd"  fill="rgb(23, 204, 95)"
 d="M22.317,16.993 L17.993,21.318 L18.683,22.006 L23.006,17.681 L22.317,16.993 Z"/>
<path fill-rule="evenodd"  fill="rgb(23, 204, 95)"
 d="M19.575,0.368 L23.131,4.924 L22.424,5.631 L18.868,1.075 L19.575,0.368 Z"/>
<path fill-rule="evenodd"  fill="rgb(23, 204, 95)"
 d="M1.575,17.368 L6.132,20.924 L5.425,21.632 L0.868,18.075 L1.575,17.368 Z"/>
<path fill-rule="evenodd"  fill="rgb(23, 204, 95)"
 d="M6.333,-0.007 L0.993,5.333 L1.667,6.006 L7.006,0.667 L6.333,-0.007 Z"/>
</svg>
