<svg 
 xmlns="http://www.w3.org/2000/svg"
 xmlns:xlink="http://www.w3.org/1999/xlink"
 width="14px" height="14px">
<path fill-rule="evenodd"  fill="rgb(23, 204, 95)"
 d="M13.727,4.587 L7.253,8.175 C7.176,8.218 7.089,8.241 7.000,8.241 C6.911,8.241 6.824,8.219 6.746,8.175 L0.273,4.587 C0.104,4.494 -0.000,4.315 -0.000,4.121 C-0.000,3.926 0.104,3.747 0.273,3.654 L6.747,0.065 C6.905,-0.022 7.096,-0.022 7.253,0.065 L13.727,3.654 C13.895,3.748 14.000,3.926 14.000,4.120 C14.000,4.314 13.895,4.493 13.727,4.587 ZM7.000,1.140 L1.622,4.120 L7.001,7.102 L12.379,4.120 L7.000,1.140 ZM7.000,8.241 C7.000,8.241 7.000,8.241 7.000,8.241 C7.000,8.241 7.000,8.241 7.000,8.241 L7.000,8.241 ZM0.780,6.533 L7.000,9.980 L13.220,6.533 C13.474,6.402 13.785,6.499 13.922,6.751 C14.059,7.003 13.973,7.320 13.727,7.466 L7.253,11.055 C7.176,11.098 7.088,11.120 7.000,11.120 C6.911,11.120 6.824,11.098 6.746,11.055 L0.273,7.466 C0.027,7.320 -0.059,7.003 0.079,6.751 C0.215,6.499 0.527,6.402 0.780,6.533 ZM7.000,11.120 C7.000,11.120 7.000,11.120 7.000,11.120 C7.000,11.120 7.000,11.120 7.000,11.120 L7.000,11.120 ZM0.780,9.412 L7.000,12.860 L13.220,9.412 C13.473,9.288 13.778,9.386 13.913,9.635 C14.049,9.884 13.967,10.196 13.727,10.345 L7.253,13.934 C7.175,13.977 7.088,13.999 7.000,13.999 L7.000,14.000 C6.911,14.000 6.824,13.977 6.746,13.934 L0.273,10.346 C0.027,10.200 -0.059,9.883 0.079,9.631 C0.215,9.378 0.527,9.282 0.780,9.412 Z"/>
</svg>
