<svg 
 xmlns="http://www.w3.org/2000/svg"
 xmlns:xlink="http://www.w3.org/1999/xlink"
 width="14px" height="14px">
<path fill-rule="evenodd"  fill="rgb(255, 255, 255)"
 d="M9.734,7.912 C7.717,7.912 6.082,6.277 6.082,4.260 C6.082,2.243 7.717,0.607 9.734,0.607 C11.751,0.607 13.386,2.243 13.386,4.260 C13.386,6.277 11.751,7.912 9.734,7.912 ZM12.168,3.651 L10.343,3.651 L10.343,1.825 L9.124,1.825 L9.124,3.651 L7.298,3.651 L7.298,4.868 L9.124,4.868 L9.124,6.694 L10.343,6.694 L10.343,4.868 L12.168,4.868 L12.168,3.651 ZM5.482,1.808 L5.482,3.675 L5.532,3.675 C5.505,3.868 5.473,4.059 5.473,4.260 C5.473,4.289 5.481,4.316 5.482,4.345 L5.482,6.096 L5.904,6.096 C6.007,6.309 6.120,6.516 6.255,6.708 L5.482,6.708 L5.482,8.546 L7.290,8.546 L7.290,7.742 C7.482,7.877 7.689,7.989 7.902,8.092 L7.902,8.546 L9.740,8.546 L9.740,8.520 C9.939,8.520 10.131,8.488 10.323,8.461 L10.323,8.546 L12.190,8.546 L12.190,7.732 C12.398,7.585 12.595,7.422 12.773,7.241 L12.773,13.387 L12.190,13.387 L12.190,11.579 L10.323,11.579 L10.323,13.387 L12.190,13.387 L12.190,14.000 L0.610,14.000 L0.610,13.387 L2.418,13.387 L2.418,11.579 L0.610,11.579 L0.610,12.775 L0.610,13.387 L-0.002,13.387 L-0.002,12.775 L-0.002,1.808 L0.610,1.808 L0.610,3.675 L2.418,3.675 L2.418,1.808 L0.610,1.808 L0.610,1.254 L6.715,1.254 C6.546,1.424 6.396,1.612 6.258,1.808 L5.482,1.808 ZM10.323,10.966 L12.190,10.966 L12.190,9.129 L10.323,9.129 L10.323,10.966 ZM7.902,13.387 L9.740,13.387 L9.740,11.579 L7.902,11.579 L7.902,13.387 ZM7.902,10.966 L9.740,10.966 L9.740,9.129 L7.902,9.129 L7.902,10.966 ZM5.482,13.387 L7.290,13.387 L7.290,11.579 L5.482,11.579 L5.482,13.387 ZM5.482,10.966 L7.290,10.966 L7.290,9.129 L5.482,9.129 L5.482,10.966 ZM2.418,4.258 L0.610,4.258 L0.610,6.096 L1.252,6.096 L2.418,6.096 L2.418,4.258 ZM2.418,6.708 L1.252,6.708 L0.610,6.708 L0.610,8.546 L2.418,8.546 L2.418,6.708 ZM2.418,9.129 L0.610,9.129 L0.610,10.966 L2.418,10.966 L2.418,9.129 ZM4.869,1.808 L3.032,1.808 L3.032,3.675 L4.869,3.675 L4.869,1.808 ZM4.869,4.258 L3.032,4.258 L3.032,6.096 L4.869,6.096 L4.869,4.258 ZM4.869,6.708 L3.032,6.708 L3.032,8.546 L4.869,8.546 L4.869,6.708 ZM4.869,9.129 L3.032,9.129 L3.032,10.966 L4.869,10.966 L4.869,9.129 ZM4.869,11.579 L3.032,11.579 L3.032,13.387 L4.869,13.387 L4.869,11.579 Z"/>
</svg>
