<svg 
 xmlns="http://www.w3.org/2000/svg"
 xmlns:xlink="http://www.w3.org/1999/xlink"
 width="19px" height="16px">
<path fill-rule="evenodd"  fill="none"
 d="M-0.000,-0.000 L19.000,-0.000 L19.000,16.000 L-0.000,16.000 L-0.000,-0.000 Z"/>
<path fill-rule="evenodd"  fill="rgb(203, 203, 203)"
 d="M16.864,6.408 C16.864,5.700 17.189,5.067 17.693,4.658 C17.934,4.464 17.993,4.116 17.829,3.852 C17.517,3.349 17.155,2.880 16.748,2.457 C16.530,2.231 16.180,2.218 15.937,2.414 C15.542,2.737 15.035,2.926 14.482,2.904 C13.369,2.864 12.452,1.961 12.372,0.828 C12.368,0.768 12.368,0.712 12.368,0.653 C12.371,0.335 12.129,0.074 11.821,0.042 C11.548,0.011 11.270,-0.002 10.993,-0.002 C10.700,-0.002 10.411,0.014 10.130,0.044 C9.821,0.079 9.593,0.349 9.593,0.663 L9.593,0.669 C9.593,1.902 8.609,2.904 7.399,2.904 C6.884,2.904 6.409,2.724 6.036,2.420 C5.794,2.223 5.445,2.242 5.228,2.468 C4.821,2.891 4.461,3.359 4.152,3.866 C3.989,4.127 4.046,4.471 4.283,4.668 C4.784,5.078 5.103,5.705 5.103,6.408 C5.103,7.453 4.397,8.331 3.445,8.576 C3.152,8.651 2.961,8.939 2.998,9.246 C3.069,9.815 3.196,10.367 3.375,10.892 C3.472,11.194 3.783,11.366 4.087,11.293 C4.283,11.245 4.485,11.223 4.697,11.234 C5.850,11.286 6.773,12.255 6.793,13.429 C6.798,13.790 6.722,14.132 6.576,14.436 C6.442,14.725 6.541,15.069 6.806,15.233 C7.280,15.527 7.784,15.772 8.313,15.964 C8.597,16.066 8.908,15.939 9.045,15.670 C9.412,14.953 10.145,14.463 10.993,14.463 C11.843,14.463 12.577,14.953 12.941,15.670 C13.077,15.939 13.393,16.066 13.677,15.964 C14.234,15.764 14.763,15.503 15.253,15.188 C15.512,15.024 15.607,14.687 15.479,14.407 C15.339,14.102 15.268,13.760 15.275,13.402 C15.308,12.231 16.243,11.272 17.393,11.232 C17.575,11.226 17.754,11.242 17.923,11.280 C18.222,11.345 18.521,11.170 18.621,10.873 C18.797,10.353 18.921,9.812 18.987,9.252 C19.025,8.945 18.832,8.654 18.537,8.581 C17.580,8.345 16.864,7.461 16.864,6.408 L16.864,6.408 ZM11.024,11.326 C9.236,11.342 7.784,9.860 7.801,8.040 C7.816,6.271 9.233,4.825 10.969,4.811 C12.757,4.795 14.211,6.276 14.194,8.097 C14.178,9.863 12.757,11.310 11.024,11.326 L11.024,11.326 Z"/>
</svg>
