<svg 
 xmlns="http://www.w3.org/2000/svg"
 xmlns:xlink="http://www.w3.org/1999/xlink"
 width="16px" height="16px">
<path fill-rule="evenodd"  fill="rgb(51, 51, 51)"
 d="M13.864,6.408 C13.864,5.699 14.188,5.066 14.692,4.657 C14.932,4.463 14.992,4.116 14.828,3.852 C14.515,3.348 14.154,2.879 13.748,2.457 C13.531,2.230 13.178,2.217 12.935,2.413 C12.541,2.736 12.033,2.926 11.482,2.904 C10.367,2.863 9.451,1.961 9.373,0.827 C9.369,0.767 9.369,0.711 9.369,0.652 C9.370,0.335 9.129,0.073 8.819,0.041 C8.548,0.011 8.270,-0.002 7.993,-0.002 C7.698,-0.002 7.411,0.014 7.129,0.044 C6.820,0.079 6.592,0.348 6.592,0.663 L6.592,0.668 C6.592,1.902 5.607,2.904 4.399,2.904 C3.883,2.904 3.409,2.723 3.034,2.419 C2.794,2.222 2.445,2.241 2.228,2.468 C1.821,2.891 1.460,3.359 1.150,3.865 C0.989,4.126 1.047,4.471 1.282,4.667 C1.785,5.077 2.101,5.704 2.101,6.408 C2.101,7.452 1.396,8.330 0.443,8.575 C0.151,8.651 -0.040,8.939 -0.003,9.246 C0.069,9.814 0.196,10.367 0.373,10.891 C0.472,11.193 0.781,11.366 1.086,11.293 C1.282,11.244 1.484,11.223 1.697,11.233 C2.849,11.285 3.772,12.254 3.792,13.429 C3.797,13.790 3.723,14.132 3.576,14.435 C3.442,14.724 3.539,15.069 3.806,15.233 C4.279,15.526 4.785,15.771 5.313,15.963 C5.596,16.065 5.906,15.938 6.043,15.669 C6.410,14.953 7.143,14.462 7.993,14.462 C8.842,14.462 9.576,14.953 9.940,15.669 C10.077,15.938 10.392,16.065 10.676,15.963 C11.233,15.763 11.761,15.502 12.253,15.187 C12.513,15.023 12.606,14.686 12.478,14.406 C12.337,14.102 12.267,13.759 12.274,13.401 C12.306,12.230 13.242,11.271 14.392,11.231 C14.573,11.225 14.754,11.241 14.923,11.279 C15.222,11.344 15.520,11.169 15.620,10.873 C15.795,10.352 15.920,9.811 15.988,9.252 C16.025,8.945 15.832,8.653 15.536,8.580 C14.579,8.344 13.864,7.460 13.864,6.408 L13.864,6.408 ZM8.024,11.325 C6.235,11.341 4.785,9.859 4.801,8.039 C4.814,6.270 6.232,4.824 7.968,4.810 C9.757,4.794 11.209,6.276 11.194,8.096 C11.177,9.862 9.757,11.309 8.024,11.325 L8.024,11.325 Z"/>
</svg>
