<svg 
 xmlns="http://www.w3.org/2000/svg"
 xmlns:xlink="http://www.w3.org/1999/xlink"
 width="34px" height="34px">
<path fill-rule="evenodd"  fill="rgb(51, 51, 51)"
 d="M26.164,5.999 L7.831,5.999 C6.822,5.999 5.997,6.825 5.997,7.833 L5.997,26.166 C5.997,27.175 6.822,28.000 7.831,28.000 L26.164,28.000 C27.172,28.000 27.997,27.175 27.997,26.166 L27.997,7.833 C27.997,6.825 27.172,5.999 26.164,5.999 L26.164,5.999 ZM23.305,23.810 L26.164,23.416 L26.164,26.166 L7.831,26.166 L7.831,23.416 L10.690,23.810 L10.690,22.601 L7.831,21.583 L7.831,12.500 L14.247,12.500 L15.347,13.966 C15.512,14.204 15.788,14.333 16.081,14.333 L16.081,15.249 C16.081,15.762 16.484,16.166 16.997,16.166 C17.510,16.166 17.914,15.762 17.914,15.249 L17.914,14.333 C18.207,14.333 18.482,14.204 18.647,13.966 L19.748,12.500 L26.164,12.500 L26.164,21.583 L23.305,22.601 M25.998,10.999 L7.997,10.999 L7.831,7.833 L26.164,7.833 L25.998,10.999 Z"/>
<path fill-rule="evenodd"  fill="rgb(23, 204, 95)"
 d="M10.690,23.810 L10.690,24.149 C10.690,24.306 10.853,24.427 11.068,24.452 L16.926,25.008 C16.926,25.008 17.015,25.020 17.069,25.008 L22.925,24.452 C23.141,24.427 23.305,24.306 23.305,24.149 L23.305,23.810 L23.305,22.601 L23.305,20.411 C23.305,20.278 23.178,20.158 22.980,20.121 L17.123,18.996 C17.123,18.996 16.961,18.984 16.871,18.996 L11.014,20.121 C10.816,20.158 10.690,20.278 10.690,20.411 L10.690,22.601 M12.492,23.363 L12.492,21.089 L16.097,20.399 L16.097,23.714 L12.492,23.363 ZM20.024,20.811 L20.908,20.980 L18.619,23.641 L17.898,23.714 L17.898,23.278 L20.024,20.811 ZM17.898,20.859 L17.898,20.399 L18.241,20.472 L17.898,20.859 ZM21.503,22.710 L21.503,23.363 L20.890,23.423 L21.503,22.710 Z"/>
<path fill-rule="evenodd"  fill="none"
 d="M-0.000,-0.000 L34.000,-0.000 L34.000,34.000 L-0.000,34.000 L-0.000,-0.000 Z"/>
</svg>
