<svg 
 xmlns="http://www.w3.org/2000/svg"
 xmlns:xlink="http://www.w3.org/1999/xlink"
 width="14px" height="14px">
<path fill-rule="evenodd"  fill="rgb(255, 255, 255)"
 d="M12.829,-0.001 L1.163,-0.001 C0.521,-0.001 -0.004,0.524 -0.004,1.166 L-0.004,12.833 C-0.004,13.474 0.521,14.000 1.163,14.000 L12.829,14.000 C13.471,14.000 13.996,13.474 13.996,12.833 L13.996,1.166 C13.996,0.524 13.471,-0.001 12.829,-0.001 L12.829,-0.001 ZM12.829,12.833 L1.163,12.833 L1.163,11.083 L2.982,11.334 L2.982,11.549 C2.982,11.649 3.086,11.726 3.223,11.742 L6.951,12.096 C6.951,12.096 7.007,12.104 7.042,12.096 L10.769,11.742 C10.906,11.726 11.009,11.649 11.009,11.549 L11.009,11.334 L12.829,11.083 L12.829,12.833 ZM4.129,11.049 L4.129,9.602 L6.423,9.163 L6.423,11.272 L4.129,11.049 ZM8.922,9.425 L9.484,9.533 L8.028,11.226 L7.569,11.272 L7.569,10.995 L8.922,9.425 ZM7.569,9.456 L7.569,9.163 L7.787,9.209 L7.569,9.456 ZM9.863,10.633 L9.863,11.049 L9.473,11.087 L9.863,10.633 ZM12.829,9.916 L11.009,10.564 L11.009,9.171 C11.009,9.086 10.929,9.009 10.803,8.986 L7.076,8.270 C7.076,8.270 6.974,8.262 6.915,8.270 L3.188,8.986 C3.063,9.009 2.982,9.086 2.982,9.171 L2.982,10.564 L1.163,9.916 L1.163,4.136 L5.246,4.136 L5.946,5.069 C6.051,5.221 6.226,5.303 6.412,5.303 L6.412,5.886 C6.412,6.212 6.669,6.469 6.996,6.469 C7.322,6.469 7.579,6.212 7.579,5.886 L7.579,5.303 C7.766,5.303 7.941,5.221 8.046,5.069 L8.746,4.136 L12.829,4.136 L12.829,9.916 ZM12.723,3.181 L1.269,3.181 L1.163,1.166 L12.829,1.166 L12.723,3.181 Z"/>
</svg>
