<svg 
 xmlns="http://www.w3.org/2000/svg"
 xmlns:xlink="http://www.w3.org/1999/xlink"
 width="26px" height="26px">
<path fill-rule="evenodd"  fill="none"
 d="M0.000,0.000 L26.000,0.000 L26.000,26.000 L0.000,26.000 L0.000,0.000 Z"/>
<path fill-rule="evenodd"  fill="rgb(255, 108, 0)"
 d="M18.165,21.080 L7.832,21.080 C6.175,21.080 4.832,19.737 4.832,18.080 L4.832,7.827 C4.832,6.170 6.175,4.827 7.832,4.827 L18.165,4.827 C19.822,4.827 21.165,6.170 21.165,7.827 L21.165,18.080 C21.165,19.737 19.822,21.080 18.165,21.080 ZM19.998,7.988 C19.998,6.884 19.103,5.988 17.998,5.988 L7.998,5.988 C6.894,5.988 5.998,6.884 5.998,7.988 L5.998,17.919 C5.998,19.024 6.894,19.919 7.998,19.919 L17.998,19.919 C19.103,19.919 19.998,19.024 19.998,17.919 L19.998,7.988 ZM16.499,15.276 L17.665,15.276 L17.665,17.597 L16.499,17.597 L16.499,15.276 ZM16.499,11.793 L17.665,11.793 L17.665,14.115 L16.499,14.115 L16.499,11.793 ZM16.499,8.310 L17.665,8.310 L17.665,10.632 L16.499,10.632 L16.499,8.310 ZM11.832,16.436 L14.165,16.436 L14.165,17.597 L11.832,17.597 L11.832,16.436 ZM11.832,8.310 L14.165,8.310 L14.165,9.471 L11.832,9.471 L11.832,8.310 ZM8.332,15.276 L9.498,15.276 L9.498,17.597 L8.332,17.597 L8.332,15.276 ZM8.332,11.793 L9.498,11.793 L9.498,14.115 L8.332,14.115 L8.332,11.793 ZM8.332,8.310 L9.498,8.310 L9.498,10.632 L8.332,10.632 L8.332,8.310 Z"/>
</svg>
