<svg 
 xmlns="http://www.w3.org/2000/svg"
 xmlns:xlink="http://www.w3.org/1999/xlink"
 width="26px" height="26px">
<path fill-rule="evenodd"  fill="none"
 d="M0.000,0.000 L26.000,0.000 L26.000,26.000 L0.000,26.000 L0.000,0.000 Z"/>
<path fill-rule="evenodd"  fill="rgb(51, 51, 51)"
 d="M20.979,13.190 C20.874,14.040 20.610,14.857 20.198,15.619 L19.082,15.112 C19.428,14.469 19.651,13.779 19.740,13.060 C19.820,12.411 19.790,11.765 19.654,11.141 L19.622,11.198 C19.234,11.006 18.532,10.716 18.195,10.939 C18.073,11.021 17.977,11.451 17.913,11.737 C17.768,12.386 17.587,13.195 16.759,13.502 C15.985,13.789 15.316,13.287 14.727,12.841 C14.133,12.392 13.716,12.108 13.351,12.247 C13.054,12.361 13.009,12.607 13.017,13.336 C13.023,13.964 13.031,14.749 12.313,15.202 C11.728,15.571 11.139,15.546 10.708,15.529 C10.570,15.523 10.340,15.514 10.288,15.543 C10.288,15.543 10.244,15.579 10.195,15.735 C10.138,15.926 10.159,15.990 10.159,15.990 C10.175,16.015 10.268,16.080 10.331,16.123 C10.615,16.321 11.093,16.655 11.148,17.447 C11.169,17.721 11.189,18.037 11.161,18.326 C11.510,18.418 11.871,18.484 12.243,18.524 C12.956,18.598 13.672,18.570 14.368,18.441 L14.617,19.560 C14.091,19.657 13.558,19.707 13.023,19.707 C12.716,19.707 12.409,19.691 12.102,19.659 C7.709,19.198 4.546,15.545 5.050,11.516 C5.293,9.564 6.352,7.818 8.028,6.596 C9.706,5.374 11.800,4.823 13.928,5.048 C16.055,5.273 17.959,6.242 19.292,7.780 C20.624,9.319 21.224,11.240 20.979,13.190 ZM11.699,6.261 C10.653,6.449 9.662,6.864 8.803,7.491 C8.340,7.828 7.936,8.212 7.586,8.635 C8.577,9.690 9.422,10.162 9.983,9.962 C10.590,9.747 10.604,9.557 10.635,9.174 C10.655,8.955 10.674,8.708 10.809,8.460 C10.997,8.123 11.244,7.959 11.444,7.828 C11.639,7.698 11.779,7.603 11.936,7.287 C12.068,7.019 11.985,6.674 11.699,6.261 ZM18.316,8.492 C17.191,7.194 15.583,6.373 13.785,6.185 C13.536,6.158 13.286,6.147 13.037,6.145 C13.303,6.718 13.316,7.257 13.070,7.755 C12.778,8.351 12.428,8.584 12.173,8.753 C12.023,8.852 11.968,8.890 11.921,8.976 C11.898,9.020 11.888,9.151 11.879,9.258 C11.840,9.741 11.775,10.552 10.433,11.028 C10.191,11.114 9.947,11.156 9.695,11.156 C8.841,11.156 7.921,10.657 6.912,9.656 C6.585,10.283 6.372,10.956 6.288,11.647 C5.957,14.284 7.492,16.731 9.924,17.883 C9.921,17.784 9.918,17.666 9.908,17.523 C9.889,17.252 9.798,17.190 9.577,17.036 C9.250,16.805 8.699,16.422 8.996,15.434 C9.327,14.334 10.262,14.370 10.764,14.391 C11.139,14.404 11.380,14.408 11.610,14.261 C11.779,14.155 11.775,13.745 11.771,13.349 C11.765,12.662 11.752,11.622 12.871,11.194 C13.957,10.779 14.859,11.461 15.520,11.959 C15.759,12.139 16.159,12.441 16.302,12.441 L16.305,12.441 C16.504,12.365 16.610,11.891 16.695,11.508 C16.815,10.967 16.951,10.354 17.469,10.014 C17.930,9.707 18.509,9.638 19.192,9.808 C18.964,9.343 18.671,8.902 18.316,8.492 ZM15.781,16.428 L17.303,16.428 C17.471,16.428 17.606,16.554 17.608,16.708 L17.608,18.104 C17.608,18.258 17.471,18.383 17.303,18.383 L15.781,18.383 C15.613,18.383 15.476,18.258 15.476,18.104 L15.476,16.708 C15.476,16.554 15.613,16.428 15.781,16.428 ZM15.781,19.044 L17.303,19.044 C17.471,19.044 17.606,19.168 17.608,19.324 L17.608,20.719 C17.608,20.874 17.471,20.999 17.303,20.999 L15.781,20.999 C15.613,20.999 15.476,20.874 15.476,20.719 L15.476,19.324 C15.476,19.170 15.613,19.044 15.781,19.044 ZM18.998,16.428 L20.520,16.428 C20.687,16.428 20.826,16.554 20.826,16.708 L20.826,18.104 C20.826,18.258 20.687,18.383 20.520,18.383 L18.998,18.383 C18.831,18.383 18.693,18.258 18.693,18.104 L18.693,16.708 C18.693,16.554 18.831,16.428 18.998,16.428 ZM18.998,19.044 L20.520,19.044 C20.687,19.044 20.826,19.168 20.826,19.324 L20.826,20.719 C20.826,20.874 20.687,20.999 20.520,20.999 L18.998,20.999 C18.831,20.999 18.693,20.874 18.693,20.719 L18.693,19.324 C18.693,19.170 18.831,19.044 18.998,19.044 Z"/>
</svg>
