<svg 
 xmlns="http://www.w3.org/2000/svg"
 xmlns:xlink="http://www.w3.org/1999/xlink"
 width="26.65px" height="26.65px">
<path fill-rule="evenodd"  fill="none"
 d="M0.000,0.000 L26.000,0.000 L26.000,26.000 L0.000,26.000 L0.000,0.000 Z"/>
<path fill-rule="evenodd"  fill="rgb(255, 210, 0)"
 d="M20.470,20.156 L5.529,20.156 C5.150,20.156 4.843,19.849 4.843,19.470 L4.843,19.249 C4.843,18.870 5.150,18.562 5.529,18.562 L6.299,18.562 L6.299,15.393 L7.785,11.596 L9.269,10.788 L8.899,12.000 L7.785,13.809 L7.785,18.562 L10.012,18.562 L10.012,15.393 L11.499,13.809 L12.666,13.015 L12.392,13.931 L11.499,15.393 L11.499,18.562 L14.467,18.562 L14.467,16.976 L14.551,15.054 L15.025,13.017 L15.808,15.732 L15.921,18.562 L20.470,18.562 C20.848,18.562 21.155,18.870 21.155,19.249 L21.155,19.470 C21.155,19.849 20.848,20.156 20.470,20.156 ZM18.178,13.809 L16.122,12.000 L16.122,10.642 L18.922,13.017 L19.664,18.560 L18.178,18.560 L18.178,13.809 Z"/>
<path fill-rule="evenodd"  stroke="rgb(255, 210, 0)" stroke-width="1.3px" stroke-linecap="butt" stroke-linejoin="miter" fill="none"
 d="M10.478,5.176 L16.525,9.771 C17.191,10.279 17.348,11.268 16.872,11.979 L14.718,15.203 C14.240,15.915 13.313,16.081 12.644,15.573 L6.600,10.978 C5.935,10.471 5.776,9.482 6.253,8.771 L8.409,5.547 C8.883,4.834 9.811,4.669 10.478,5.176 Z"/>
</svg>
