<svg 
 xmlns="http://www.w3.org/2000/svg"
 xmlns:xlink="http://www.w3.org/1999/xlink"
 width="26px" height="26px">
<path fill-rule="evenodd"  fill="none"
 d="M-0.000,-0.000 L26.000,-0.000 L26.000,26.000 L-0.000,26.000 L-0.000,-0.000 Z"/>
<path fill-rule="evenodd"  fill="rgb(255, 108, 0)"
 d="M17.700,19.438 C18.714,19.459 19.734,19.648 20.705,20.065 C21.118,20.252 21.040,20.933 20.782,20.988 C20.477,21.052 19.789,20.778 19.789,20.778 C18.403,20.299 16.912,20.227 15.563,20.555 C14.754,20.831 13.891,20.988 12.991,20.988 C8.583,20.988 5.000,17.403 5.000,12.994 C5.000,8.584 8.583,5.000 12.991,5.000 C17.398,5.000 20.981,8.584 20.981,12.994 C20.981,15.640 19.685,17.983 17.700,19.438 ZM17.888,12.478 L19.924,12.478 C19.667,9.048 16.934,6.315 13.506,6.057 L13.506,8.094 C13.506,8.378 13.274,8.610 12.991,8.610 C12.707,8.610 12.475,8.378 12.475,8.094 L12.475,6.057 C9.047,6.315 6.315,9.048 6.057,12.478 L8.093,12.478 C8.377,12.478 8.609,12.710 8.609,12.994 C8.609,13.277 8.377,13.510 8.093,13.510 L6.057,13.510 C6.315,16.939 9.047,19.672 12.475,19.930 L12.475,17.893 C12.475,17.610 12.707,17.377 12.991,17.377 C13.274,17.377 13.506,17.610 13.506,17.893 L13.506,19.930 C16.934,19.672 19.667,16.939 19.924,13.510 L17.888,13.510 C17.605,13.510 17.373,13.277 17.373,12.994 C17.373,12.710 17.605,12.478 17.888,12.478 ZM12.991,16.346 C11.135,16.346 9.640,14.850 9.640,12.994 C9.640,11.137 11.135,9.642 12.991,9.642 C14.847,9.642 16.342,11.137 16.342,12.994 C16.342,14.850 14.847,16.346 12.991,16.346 ZM12.991,10.673 C11.702,10.673 10.671,11.704 10.671,12.994 C10.671,14.283 11.702,15.315 12.991,15.315 C14.279,15.315 15.310,14.283 15.310,12.994 C15.310,11.704 14.279,10.673 12.991,10.673 Z"/>
</svg>
