<svg 
 xmlns="http://www.w3.org/2000/svg"
 xmlns:xlink="http://www.w3.org/1999/xlink"
 width="26px" height="26px">
<path fill-rule="evenodd"  fill="none"
 d="M0.000,0.000 L26.000,0.000 L26.000,26.000 L0.000,26.000 L0.000,0.000 Z"/>
<path fill-rule="evenodd"  fill="rgb(255, 108, 0)"
 d="M20.999,22.000 L5.999,22.000 C5.447,22.000 5.000,21.552 5.000,21.000 L5.000,17.000 C5.000,16.448 5.447,16.000 5.999,16.000 L20.999,16.000 C21.551,16.000 21.999,16.448 21.999,17.000 L21.999,21.000 C21.999,21.552 21.551,22.000 20.999,22.000 ZM20.999,17.000 L5.999,17.000 L5.999,21.000 L20.999,21.000 L20.999,17.000 ZM14.999,13.000 L5.999,13.000 C5.447,13.000 5.000,12.552 5.000,12.000 L5.000,10.000 C5.000,9.448 5.447,9.000 5.999,9.000 L14.999,9.000 C15.552,9.000 15.999,9.448 15.999,10.000 L15.999,12.000 C15.999,12.552 15.552,13.000 14.999,13.000 ZM14.999,10.000 L5.999,10.000 L5.999,12.000 L14.999,12.000 L14.999,10.000 ZM8.999,6.000 L5.999,6.000 C5.447,6.000 5.000,5.552 5.000,5.000 C5.000,4.448 5.447,4.000 5.999,4.000 L8.999,4.000 C9.551,4.000 9.999,4.448 9.999,5.000 C9.999,5.552 9.551,6.000 8.999,6.000 Z"/>
</svg>
