<svg 
 xmlns="http://www.w3.org/2000/svg"
 xmlns:xlink="http://www.w3.org/1999/xlink"
 width="18px" height="18px">
<path fill-rule="evenodd"  fill="rgb(23, 204, 95)"
 d="M8.998,-0.000 C13.968,-0.000 17.997,4.029 17.997,9.000 C17.997,13.970 13.968,18.000 8.998,18.000 C4.027,18.000 -0.002,13.970 -0.002,9.000 C-0.002,4.029 4.027,-0.000 8.998,-0.000 Z"/>
<path fill-rule="evenodd"  fill="rgb(255, 255, 255)"
 d="M9.175,13.999 L9.378,13.999 C9.881,13.999 10.288,13.537 10.288,12.967 C10.288,12.396 9.881,11.933 9.378,11.933 L9.175,11.933 C8.673,11.933 8.266,12.396 8.266,12.967 C8.266,13.537 8.673,13.999 9.175,13.999 L9.175,13.999 ZM9.196,11.302 C9.020,11.302 8.844,11.240 8.693,11.110 C8.326,10.794 8.254,10.200 8.533,9.784 L10.170,7.335 C10.354,7.061 10.381,6.695 10.240,6.405 C10.075,6.065 9.680,5.892 9.072,5.892 C8.531,5.892 8.148,6.035 7.929,6.315 C7.619,6.716 7.668,7.351 7.669,7.358 C7.726,7.876 7.404,8.350 6.946,8.416 C6.490,8.482 6.073,8.116 6.015,7.597 C5.998,7.447 5.872,6.102 6.678,5.064 C6.940,4.726 7.270,4.464 7.656,4.285 C8.064,4.096 8.542,4.000 9.072,4.000 C10.643,4.000 11.368,4.809 11.699,5.488 C12.161,6.434 12.082,7.609 11.499,8.480 L9.861,10.928 C9.697,11.173 9.448,11.302 9.196,11.302 L9.196,11.302 Z"/>
</svg>
