<svg 
 xmlns="http://www.w3.org/2000/svg"
 xmlns:xlink="http://www.w3.org/1999/xlink"
 width="40px" height="20px">
<path fill-rule="evenodd"  fill="rgb(255, 255, 255)"
 d="M10.000,0.000 L30.000,0.000 C35.523,0.000 40.000,4.477 40.000,10.000 C40.000,15.523 35.523,20.000 30.000,20.000 L10.000,20.000 C4.477,20.000 0.000,15.523 0.000,10.000 C0.000,4.477 4.477,0.000 10.000,0.000 Z"/>
<path fill-rule="evenodd"  fill="rgb(202, 202, 202)"
 d="M29.000,10.000 L29.000,4.000 L35.000,4.000 L35.000,10.000 L29.000,10.000 ZM17.000,10.000 L17.000,4.000 L23.000,4.000 L23.000,10.000 L17.000,10.000 ZM5.000,10.000 L5.000,4.000 L11.000,4.000 L11.000,10.000 L5.000,10.000 ZM17.000,10.000 L17.000,16.000 L11.000,16.000 L11.000,10.000 L17.000,10.000 ZM29.000,10.000 L29.000,16.000 L23.000,16.000 L23.000,10.000 L29.000,10.000 ZM40.000,10.000 L40.000,13.031 L38.013,16.000 L35.000,16.000 L35.000,10.000 L40.000,10.000 ZM35.000,18.996 L33.054,20.000 L29.000,20.000 L29.000,16.000 L35.000,16.000 L35.000,18.996 ZM23.000,20.000 L17.000,20.000 L17.000,16.000 L23.000,16.000 L23.000,20.000 ZM11.000,20.000 L7.024,20.000 L5.000,18.034 L5.000,16.000 L11.000,16.000 L11.000,20.000 ZM2.985,16.000 L0.000,13.035 L0.000,10.000 L5.000,10.000 L5.000,16.000 L2.985,16.000 ZM5.000,0.999 L5.000,4.000 L1.959,4.000 L5.000,0.999 ZM11.000,0.000 L17.000,0.000 L17.000,4.000 L11.000,4.000 L11.000,0.000 ZM23.000,0.000 L29.000,0.000 L29.000,4.000 L23.000,4.000 L23.000,0.000 ZM37.981,4.000 L35.000,4.000 L35.000,1.059 L37.981,4.000 Z"/>
</svg>
