<svg 
 xmlns="http://www.w3.org/2000/svg"
 xmlns:xlink="http://www.w3.org/1999/xlink"
 width="25.5px" height="25.5px">
<path fill-rule="evenodd"  stroke="rgb(23, 204, 95)" stroke-width="1px" stroke-linecap="butt" stroke-linejoin="miter" fill="none"
 d="M5.500,0.500 L19.500,0.500 C22.261,0.500 24.500,2.739 24.500,5.500 L24.500,19.500 C24.500,22.261 22.261,24.500 19.500,24.500 L5.500,24.500 C2.739,24.500 0.500,22.261 0.500,19.500 L0.500,5.500 C0.500,2.739 2.739,0.500 5.500,0.500 Z"/>
<path fill-rule="evenodd"  fill="rgb(255, 255, 255)"
 d="M17.733,19.497 L7.252,19.497 C6.283,19.495 5.493,18.706 5.492,17.737 L5.492,7.259 C5.492,6.288 6.283,5.498 7.252,5.497 L17.733,5.497 C18.702,5.498 19.493,6.288 19.493,7.258 L19.493,17.737 C19.493,18.706 18.702,19.495 17.733,19.497 ZM15.813,6.839 L9.173,6.839 L9.173,11.539 L15.813,11.539 L15.813,6.839 ZM18.149,7.259 C18.149,7.028 17.963,6.841 17.733,6.840 L17.156,6.840 L17.156,12.159 C17.156,12.529 16.854,12.900 16.483,12.900 L8.502,12.900 C8.133,12.900 7.832,12.529 7.832,12.159 L7.832,6.840 L7.253,6.840 C7.022,6.840 6.836,7.028 6.836,7.259 L6.836,17.738 C6.836,17.968 7.022,18.156 7.252,18.156 L8.222,18.156 L17.733,18.155 C17.963,18.155 18.149,17.967 18.149,17.737 L18.149,7.259 ZM14.541,7.751 C14.813,7.751 15.037,7.967 15.037,8.249 L15.037,9.973 C15.037,10.245 14.821,10.470 14.541,10.470 C14.268,10.470 14.043,10.245 14.034,9.973 L14.034,8.249 C14.034,7.975 14.259,7.751 14.541,7.751 Z"/>
</svg>
