<svg 
 xmlns="http://www.w3.org/2000/svg"
 xmlns:xlink="http://www.w3.org/1999/xlink"
 width="25.5px" height="25.5px">
<path fill-rule="evenodd"  stroke="rgb(23, 204, 95)" stroke-width="1px" stroke-linecap="butt" stroke-linejoin="miter" fill="none"
 d="M5.500,0.500 L19.500,0.500 C22.261,0.500 24.500,2.739 24.500,5.500 L24.500,19.500 C24.500,22.261 22.261,24.500 19.500,24.500 L5.500,24.500 C2.739,24.500 0.500,22.261 0.500,19.500 L0.500,5.500 C0.500,2.739 2.739,0.500 5.500,0.500 Z"/>
<path fill-rule="evenodd"  fill="rgb(255, 255, 255)"
 d="M19.280,19.281 C19.141,19.425 18.959,19.497 18.775,19.497 C18.589,19.497 18.408,19.425 18.266,19.281 L16.774,17.749 C15.574,18.823 14.025,19.497 12.312,19.497 C8.551,19.497 5.491,16.357 5.491,12.497 C5.491,8.636 8.551,5.497 12.312,5.497 C16.075,5.497 19.134,8.636 19.134,12.497 C19.134,14.068 18.609,15.504 17.754,16.673 L19.280,18.240 C19.561,18.528 19.561,18.993 19.280,19.281 ZM12.312,6.970 C9.342,6.970 6.929,9.449 6.929,12.497 C6.929,15.544 9.342,18.023 12.312,18.023 C15.281,18.023 17.697,15.544 17.697,12.497 C17.697,9.449 15.281,6.970 12.312,6.970 Z"/>
</svg>
