<svg 
 xmlns="http://www.w3.org/2000/svg"
 xmlns:xlink="http://www.w3.org/1999/xlink"
 width="14px" height="14px">
<path fill-rule="evenodd"  fill="rgb(255, 255, 255)"
 d="M8.194,0.999 L8.381,2.299 L8.457,2.836 L8.943,3.061 C9.144,3.161 9.355,3.273 9.543,3.398 L9.979,3.686 L10.467,3.498 L11.741,2.999 L12.928,4.986 L11.879,5.786 L11.440,6.124 L11.491,6.674 C11.503,6.786 11.503,6.898 11.503,6.998 C11.503,7.098 11.503,7.211 11.491,7.323 L11.440,7.873 L11.879,8.211 L12.928,9.011 L11.754,10.998 L10.467,10.499 L9.979,10.311 L9.543,10.599 C9.343,10.736 9.144,10.849 8.943,10.936 L8.457,11.161 L8.381,11.686 L8.194,12.999 L5.797,12.999 L5.608,11.698 L5.533,11.161 L5.046,10.936 C4.846,10.835 4.634,10.724 4.447,10.599 L4.009,10.311 L3.523,10.499 L2.248,10.998 L1.061,9.011 L2.110,8.211 L2.549,7.873 L2.498,7.323 C2.484,7.211 2.484,7.098 2.484,6.998 C2.484,6.898 2.484,6.786 2.498,6.674 L2.549,6.124 L2.110,5.786 L1.061,4.986 L2.236,2.999 L3.523,3.498 L4.009,3.686 L4.447,3.398 C4.647,3.261 4.846,3.148 5.046,3.061 L5.533,2.836 L5.608,2.311 L5.797,0.999 L8.194,0.999 M8.331,-0.001 L5.658,-0.001 C5.234,-0.001 4.884,0.298 4.822,0.699 L4.620,2.148 C4.372,2.261 4.134,2.399 3.884,2.561 L2.472,2.011 C2.373,1.974 2.273,1.961 2.173,1.961 C1.873,1.961 1.586,2.111 1.448,2.374 L0.113,4.624 C-0.100,4.974 -0.013,5.436 0.311,5.686 L1.498,6.586 C1.487,6.736 1.474,6.873 1.474,6.998 C1.474,7.123 1.474,7.261 1.498,7.411 L0.311,8.311 C-0.013,8.561 -0.100,8.999 0.113,9.374 L1.436,11.611 C1.586,11.874 1.873,12.036 2.173,12.036 C2.273,12.036 2.360,12.023 2.461,11.986 L3.872,11.436 C4.109,11.598 4.359,11.736 4.609,11.849 L4.822,13.286 C4.871,13.686 5.234,13.999 5.658,13.999 L8.331,13.999 C8.756,13.999 9.106,13.698 9.168,13.299 L9.380,11.849 C9.630,11.736 9.867,11.598 10.117,11.436 L11.529,11.986 C11.630,12.023 11.728,12.036 11.828,12.036 C12.129,12.036 12.415,11.886 12.553,11.624 L13.890,9.361 C14.089,8.999 14.002,8.561 13.677,8.311 L12.490,7.411 C12.503,7.286 12.516,7.148 12.516,6.998 C12.516,6.848 12.503,6.711 12.490,6.586 L13.677,5.686 C14.002,5.436 14.089,4.998 13.877,4.624 L12.553,2.386 C12.403,2.123 12.115,1.961 11.816,1.961 C11.716,1.961 11.630,1.974 11.529,2.011 L10.117,2.561 C9.880,2.399 9.630,2.261 9.380,2.148 L9.168,0.711 C9.106,0.298 8.756,-0.001 8.331,-0.001 L8.331,-0.001 ZM6.994,4.998 C8.094,4.998 8.993,5.899 8.993,6.998 C8.993,8.099 8.094,8.999 6.994,8.999 C5.895,8.999 4.996,8.099 4.996,6.998 C4.996,5.899 5.895,4.998 6.994,4.998 M6.994,3.998 C5.346,3.998 3.996,5.349 3.996,6.998 C3.996,8.649 5.346,9.998 6.994,9.998 C8.643,9.998 9.993,8.649 9.993,6.998 C9.993,5.349 8.643,3.998 6.994,3.998 L6.994,3.998 Z"/>
</svg>
