<svg 
 xmlns="http://www.w3.org/2000/svg"
 xmlns:xlink="http://www.w3.org/1999/xlink"
 width="25.5px" height="25.5px">
<path fill-rule="evenodd"  fill="rgb(51, 51, 51)"
 d="M13.691,6.498 L13.878,7.798 L13.954,8.335 L14.440,8.560 C14.641,8.660 14.852,8.772 15.039,8.897 L15.476,9.185 L15.965,8.997 L17.239,8.498 L18.423,10.485 L17.376,11.285 L16.937,11.623 L16.988,12.173 C17.000,12.285 17.000,12.397 17.000,12.497 C17.000,12.597 17.000,12.710 16.988,12.822 L16.937,13.373 L17.376,13.710 L18.423,14.510 L17.251,16.497 L15.965,15.998 L15.476,15.810 L15.039,16.098 C14.840,16.235 14.641,16.347 14.440,16.435 L13.954,16.660 L13.878,17.185 L13.691,18.498 L11.293,18.498 L11.105,17.197 L11.030,16.660 L10.543,16.435 C10.343,16.334 10.131,16.223 9.944,16.098 L9.506,15.810 L9.020,15.998 L7.745,16.497 L6.557,14.510 L7.607,13.710 L8.046,13.373 L7.995,12.822 C7.982,12.710 7.982,12.597 7.982,12.497 C7.982,12.397 7.982,12.285 7.995,12.173 L8.046,11.623 L7.607,11.285 L6.557,10.485 L7.734,8.498 L9.020,8.997 L9.506,9.185 L9.944,8.897 C10.144,8.760 10.343,8.647 10.543,8.560 L11.030,8.335 L11.105,7.810 L11.293,6.498 L13.691,6.498 M13.828,5.498 L11.155,5.498 C10.730,5.498 10.381,5.798 10.318,6.198 L10.116,7.647 C9.869,7.760 9.631,7.897 9.382,8.060 L7.969,7.510 C7.870,7.473 7.770,7.460 7.669,7.460 C7.369,7.460 7.084,7.610 6.945,7.873 L5.610,10.123 C5.397,10.473 5.484,10.935 5.809,11.185 L6.995,12.085 C6.984,12.235 6.971,12.373 6.971,12.497 C6.971,12.622 6.971,12.760 6.995,12.910 L5.809,13.810 C5.484,14.060 5.397,14.497 5.610,14.873 L6.932,17.110 C7.084,17.373 7.369,17.535 7.669,17.535 C7.770,17.535 7.856,17.523 7.958,17.485 L9.369,16.935 C9.607,17.098 9.856,17.235 10.105,17.348 L10.318,18.785 C10.368,19.185 10.730,19.498 11.155,19.498 L13.828,19.498 C14.254,19.498 14.604,19.197 14.665,18.798 L14.878,17.348 C15.127,17.235 15.363,17.098 15.614,16.935 L17.026,17.485 C17.127,17.523 17.225,17.535 17.325,17.535 C17.624,17.535 17.912,17.385 18.050,17.123 L19.387,14.860 C19.586,14.497 19.499,14.060 19.174,13.810 L17.987,12.910 C18.000,12.785 18.013,12.647 18.013,12.497 C18.013,12.347 18.000,12.210 17.987,12.085 L19.174,11.185 C19.499,10.935 19.586,10.498 19.374,10.123 L18.050,7.885 C17.900,7.622 17.613,7.460 17.314,7.460 C17.213,7.460 17.127,7.473 17.026,7.510 L15.614,8.060 C15.377,7.897 15.127,7.760 14.878,7.647 L14.665,6.210 C14.604,5.798 14.254,5.498 13.828,5.498 L13.828,5.498 ZM12.491,10.498 C13.592,10.498 14.491,11.398 14.491,12.497 C14.491,13.598 13.592,14.497 12.491,14.497 C11.392,14.497 10.493,13.598 10.493,12.497 C10.493,11.398 11.392,10.498 12.491,10.498 M12.491,9.497 C10.844,9.497 9.494,10.848 9.494,12.497 C9.494,14.148 10.844,15.497 12.491,15.497 C14.141,15.497 15.491,14.148 15.491,12.497 C15.491,10.848 14.141,9.497 12.491,9.497 L12.491,9.497 Z"/>
<path fill-rule="evenodd"  stroke="rgb(23, 204, 95)" stroke-width="1px" stroke-linecap="butt" stroke-linejoin="miter" fill="none"
 d="M5.500,0.500 L19.500,0.500 C22.261,0.500 24.500,2.739 24.500,5.500 L24.500,19.500 C24.500,22.261 22.261,24.500 19.500,24.500 L5.500,24.500 C2.739,24.500 0.500,22.261 0.500,19.500 L0.500,5.500 C0.500,2.739 2.739,0.500 5.500,0.500 Z"/>
</svg>
