<svg 
 xmlns="http://www.w3.org/2000/svg"
 xmlns:xlink="http://www.w3.org/1999/xlink"
 width="12px" height="12px">
<path fill-rule="evenodd"  fill="rgb(255, 255, 255)"
 d="M4.986,11.308 C4.986,11.688 4.703,12.000 4.358,12.000 L0.629,12.000 C0.283,12.000 -0.000,11.688 -0.000,11.308 L-0.000,0.692 C-0.000,0.312 0.283,0.000 0.629,0.000 L4.358,0.000 C4.703,0.000 4.986,0.312 4.986,0.692 L4.986,11.308 ZM12.000,11.308 C12.000,11.688 11.717,12.000 11.372,12.000 L7.642,12.000 C7.297,12.000 7.014,11.688 7.014,11.308 L7.014,0.692 C7.014,0.312 7.297,0.000 7.642,0.000 L11.372,0.000 C11.717,0.000 12.000,0.312 12.000,0.692 L12.000,11.308 Z"/>
</svg>
