<svg 
 xmlns="http://www.w3.org/2000/svg"
 xmlns:xlink="http://www.w3.org/1999/xlink"
 width="833.5px" height="885.5px">
<path fill-rule="evenodd"  fill="none"
 d="M-0.000,-0.000 L832.000,-0.000 L832.000,884.000 L-0.000,884.000 L-0.000,-0.000 Z"/>
<path fill-rule="evenodd"  stroke="rgb(143, 143, 152)" stroke-width="1.5px" stroke-linecap="butt" stroke-linejoin="miter" fill="none"
 d="M69.734,873.624 C69.734,873.624 76.366,873.626 76.786,873.641 C78.630,873.706 80.098,873.137 81.112,870.600 C82.128,868.063 88.063,850.673 88.304,849.917 C88.716,848.621 89.759,845.355 83.978,845.355 C82.698,845.355 70.668,845.370 70.668,845.370 M37.422,845.341 C37.422,845.341 22.326,845.339 21.119,845.355 C17.517,845.405 17.168,848.092 17.658,849.917 C18.148,851.741 24.726,869.048 24.984,869.840 C25.620,871.782 26.749,873.576 29.310,873.641 C29.954,873.658 36.711,873.659 36.711,873.659 "/>
<path fill-rule="evenodd"  fill="rgb(168, 168, 178)"
 d="M36.871,849.126 C37.142,848.652 37.752,848.487 38.233,848.755 C38.712,849.023 38.882,849.623 38.610,850.096 C36.909,853.043 35.996,856.428 35.996,859.957 C35.996,860.468 36.016,860.979 36.053,861.488 C36.095,862.030 35.681,862.502 35.129,862.542 C34.578,862.583 34.100,862.176 34.058,861.634 C34.018,861.076 33.996,860.517 33.996,859.957 C33.996,856.087 34.999,852.367 36.871,849.126 L36.871,849.126 ZM73.205,865.812 C73.060,866.336 72.511,866.645 71.978,866.502 C71.445,866.359 71.131,865.819 71.275,865.294 C71.754,863.576 71.997,861.783 71.997,859.957 C71.997,856.108 70.910,852.434 68.909,849.318 C68.633,848.860 68.777,848.270 69.236,847.985 C69.693,847.701 70.297,847.826 70.599,848.268 C72.803,851.697 73.995,855.736 73.995,859.957 C73.995,861.959 73.728,863.924 73.205,865.812 L73.205,865.812 ZM67.646,844.638 C67.907,844.885 68.011,845.250 67.921,845.594 C67.830,845.938 67.558,846.208 67.209,846.298 C66.859,846.389 66.487,846.287 66.236,846.032 C62.926,842.795 58.595,840.965 53.995,840.965 C49.067,840.965 44.454,843.064 41.084,846.727 C40.712,847.129 40.080,847.161 39.669,846.796 C39.260,846.431 39.229,845.809 39.601,845.406 C43.343,841.341 48.489,838.998 53.995,838.998 C59.135,838.998 63.970,841.038 67.645,844.638 L67.646,844.638 ZM48.095,844.948 C48.603,844.737 49.190,844.970 49.406,845.471 C49.621,845.971 49.383,846.548 48.874,846.760 C44.053,848.768 40.853,853.428 40.848,858.759 C40.489,862.591 39.349,865.394 37.377,867.129 C36.962,867.473 36.346,867.431 35.985,867.033 C35.624,866.637 35.650,866.029 36.044,865.663 C37.585,864.306 38.541,861.958 38.854,858.668 C38.852,852.685 42.492,847.281 48.095,844.948 L48.095,844.948 ZM66.675,874.563 C66.518,874.880 66.199,875.089 65.840,875.112 C65.481,875.134 65.138,874.966 64.941,874.670 C64.745,874.375 64.723,873.998 64.886,873.683 C65.277,872.914 65.617,872.112 65.905,871.278 C67.087,867.852 67.338,864.671 67.182,860.247 L67.153,859.387 C67.142,859.088 67.139,858.864 67.139,858.668 C67.139,858.125 67.586,857.685 68.138,857.685 C68.690,857.685 69.138,858.125 69.138,858.668 C69.138,858.840 69.143,859.046 69.152,859.325 L69.182,860.180 C69.344,864.823 69.077,868.205 67.797,871.910 C67.482,872.827 67.107,873.712 66.675,874.563 L66.675,874.563 ZM68.285,853.725 C68.468,854.238 68.195,854.799 67.673,854.979 C67.153,855.160 66.582,854.891 66.397,854.378 C64.455,848.954 59.103,845.443 53.264,845.762 C52.713,845.792 52.240,845.377 52.212,844.834 C52.180,844.291 52.603,843.827 53.155,843.798 C59.881,843.429 66.047,847.475 68.285,853.725 L68.285,853.725 ZM56.517,848.425 C57.062,848.515 57.430,849.022 57.338,849.558 C57.247,850.093 56.733,850.455 56.187,850.365 C53.330,849.896 50.735,850.593 48.335,852.481 C46.830,853.665 46.178,854.946 45.847,856.898 C45.785,857.272 45.744,857.559 45.658,858.275 C45.414,860.232 45.222,861.125 44.675,862.199 C44.517,862.517 44.199,862.726 43.840,862.748 C43.481,862.770 43.139,862.602 42.942,862.306 C42.745,862.011 42.725,861.635 42.886,861.320 C43.297,860.513 43.457,859.773 43.670,858.035 C43.766,857.291 43.805,856.986 43.877,856.575 C44.280,854.180 45.153,852.467 47.085,850.946 C49.923,848.713 53.089,847.864 56.517,848.425 L56.517,848.425 ZM41.262,865.312 C41.442,864.804 42.003,864.533 42.523,864.703 C43.041,864.873 43.324,865.422 43.159,865.935 C42.582,867.638 41.449,869.308 39.774,870.956 C39.383,871.340 38.751,871.340 38.360,870.956 C37.969,870.572 37.969,869.949 38.359,869.565 C39.830,868.120 40.790,866.701 41.262,865.312 L41.262,865.312 ZM60.361,853.182 C59.970,852.797 59.970,852.174 60.361,851.790 C60.750,851.406 61.384,851.406 61.774,851.790 C63.555,853.542 64.424,856.108 64.424,859.441 C64.424,867.721 62.641,873.956 58.693,878.617 C58.339,879.035 57.709,879.092 57.284,878.743 C56.859,878.396 56.802,877.775 57.157,877.358 C60.765,873.096 62.424,867.299 62.424,859.441 C62.424,856.591 61.723,854.523 60.361,853.182 L60.361,853.182 ZM59.709,858.679 C59.704,859.222 59.251,859.658 58.698,859.652 C58.147,859.646 57.703,859.201 57.709,858.657 C57.739,856.116 56.620,855.016 53.995,855.016 C51.371,855.016 50.252,856.117 50.278,858.733 C49.735,866.763 46.695,872.469 41.153,875.740 C40.846,875.932 40.457,875.947 40.136,875.776 C39.816,875.605 39.616,875.277 39.613,874.918 C39.611,874.560 39.806,874.229 40.123,874.054 C45.058,871.142 47.781,866.030 48.282,858.679 C48.239,855.038 50.263,853.049 53.995,853.049 C57.727,853.049 59.751,855.038 59.709,858.679 L59.709,858.679 ZM52.996,858.668 C52.996,858.125 53.443,857.685 53.995,857.685 C54.547,857.685 54.995,858.125 54.995,858.668 C54.995,866.666 52.263,873.117 46.807,877.945 C46.395,878.296 45.774,878.258 45.410,877.860 C45.045,877.462 45.072,876.850 45.469,876.484 C50.490,872.040 52.996,866.126 52.996,858.668 L52.996,858.668 ZM57.720,863.155 C57.805,862.619 58.315,862.250 58.863,862.333 C59.407,862.415 59.783,862.917 59.699,863.455 C58.616,870.367 56.157,875.473 52.288,878.734 C52.019,878.979 51.637,879.059 51.289,878.944 C50.943,878.828 50.687,878.535 50.624,878.180 C50.562,877.825 50.702,877.465 50.989,877.241 C54.452,874.320 56.707,869.639 57.720,863.155 L57.720,863.155 Z"/>
<path fill-rule="evenodd"  stroke="rgb(143, 143, 152)" stroke-width="1.5px" stroke-linecap="butt" stroke-linejoin="miter" fill="none"
 d="M762.266,873.624 C762.266,873.624 755.634,873.626 755.213,873.641 C753.370,873.706 751.902,873.137 750.888,870.600 C749.872,868.063 743.936,850.673 743.696,849.917 C743.284,848.621 742.241,845.355 748.021,845.355 C749.301,845.355 761.332,845.370 761.332,845.370 M794.578,845.341 C794.578,845.341 809.673,845.339 810.880,845.355 C814.482,845.405 814.832,848.092 814.341,849.917 C813.852,851.741 807.273,869.048 807.016,869.840 C806.380,871.782 805.251,873.576 802.689,873.641 C802.046,873.658 795.289,873.659 795.289,873.659 "/>
<path fill-rule="evenodd"  fill="rgb(168, 168, 178)"
 d="M795.129,849.126 C794.858,848.652 794.248,848.487 793.767,848.755 C793.287,849.023 793.118,849.623 793.390,850.096 C795.091,853.043 796.004,856.428 796.004,859.957 C796.004,860.468 795.984,860.979 795.947,861.488 C795.904,862.030 796.318,862.502 796.870,862.542 C797.421,862.583 797.900,862.176 797.941,861.634 C797.982,861.076 798.003,860.517 798.003,859.957 C798.003,856.087 797.000,852.367 795.129,849.126 L795.129,849.126 ZM758.795,865.812 C758.939,866.336 759.488,866.645 760.021,866.502 C760.554,866.359 760.869,865.819 760.725,865.294 C760.246,863.576 760.003,861.783 760.003,859.957 C760.003,856.108 761.089,852.434 763.090,849.318 C763.367,848.860 763.222,848.270 762.764,847.985 C762.306,847.701 761.703,847.826 761.400,848.268 C759.197,851.697 758.005,855.736 758.005,859.957 C758.005,861.959 758.271,863.924 758.795,865.812 L758.795,865.812 ZM764.354,844.638 C764.092,844.885 763.988,845.250 764.079,845.594 C764.169,845.938 764.441,846.208 764.790,846.298 C765.140,846.389 765.512,846.287 765.764,846.032 C769.074,842.795 773.404,840.965 778.005,840.965 C782.933,840.965 787.545,843.064 790.916,846.727 C791.287,847.129 791.919,847.161 792.330,846.796 C792.739,846.431 792.771,845.809 792.399,845.406 C788.657,841.341 783.510,838.998 778.005,838.998 C772.864,838.998 768.030,841.038 764.354,844.638 L764.354,844.638 ZM783.904,844.948 C783.396,844.737 782.810,844.970 782.593,845.471 C782.378,845.971 782.616,846.548 783.125,846.760 C787.946,848.768 791.146,853.428 791.151,858.759 C791.510,862.591 792.650,865.394 794.623,867.129 C795.037,867.473 795.654,867.431 796.014,867.033 C796.376,866.637 796.350,866.029 795.955,865.663 C794.414,864.306 793.459,861.958 793.146,858.668 C793.147,852.685 789.508,847.281 783.904,844.948 L783.904,844.948 ZM765.324,874.563 C765.482,874.880 765.800,875.089 766.159,875.112 C766.518,875.134 766.861,874.966 767.058,874.670 C767.254,874.375 767.276,873.998 767.113,873.683 C766.723,872.914 766.382,872.112 766.094,871.278 C764.913,867.852 764.661,864.671 764.817,860.247 L764.847,859.387 C764.858,859.088 764.861,858.864 764.861,858.668 C764.861,858.125 764.414,857.685 763.861,857.685 C763.309,857.685 762.862,858.125 762.862,858.668 C762.862,858.840 762.856,859.046 762.847,859.325 L762.817,860.180 C762.655,864.823 762.922,868.205 764.202,871.910 C764.517,872.827 764.892,873.712 765.324,874.563 L765.324,874.563 ZM763.714,853.725 C763.532,854.238 763.805,854.799 764.327,854.979 C764.847,855.160 765.418,854.891 765.603,854.378 C767.545,848.954 772.897,845.443 778.735,845.762 C779.287,845.792 779.759,845.377 779.788,844.834 C779.819,844.291 779.396,843.827 778.845,843.798 C772.118,843.429 765.953,847.475 763.714,853.725 L763.714,853.725 ZM775.483,848.425 C774.937,848.515 774.570,849.022 774.661,849.558 C774.752,850.093 775.267,850.455 775.812,850.365 C778.670,849.896 781.265,850.593 783.665,852.481 C785.170,853.665 785.821,854.946 786.152,856.898 C786.215,857.272 786.255,857.559 786.341,858.275 C786.586,860.232 786.778,861.125 787.324,862.199 C787.483,862.517 787.801,862.726 788.160,862.748 C788.518,862.770 788.861,862.602 789.058,862.306 C789.255,862.011 789.275,861.635 789.114,861.320 C788.702,860.513 788.542,859.773 788.329,858.035 C788.234,857.291 788.194,856.986 788.123,856.575 C787.719,854.180 786.846,852.467 784.914,850.946 C782.077,848.713 778.910,847.864 775.483,848.425 L775.483,848.425 ZM790.737,865.312 C790.558,864.804 789.997,864.533 789.477,864.703 C788.958,864.873 788.675,865.422 788.840,865.935 C789.418,867.638 790.551,869.308 792.225,870.956 C792.616,871.340 793.248,871.340 793.640,870.956 C794.030,870.572 794.030,869.949 793.641,869.565 C792.170,868.120 791.209,866.701 790.737,865.312 L790.737,865.312 ZM771.639,853.182 C772.030,852.797 772.030,852.174 771.639,851.790 C771.249,851.406 770.616,851.406 770.225,851.790 C768.444,853.542 767.576,856.108 767.576,859.441 C767.576,867.721 769.358,873.956 773.306,878.617 C773.661,879.035 774.291,879.092 774.715,878.743 C775.140,878.396 775.198,877.775 774.843,877.358 C771.234,873.096 769.575,867.299 769.575,859.441 C769.575,856.591 770.277,854.523 771.639,853.182 L771.639,853.182 ZM772.290,858.679 C772.295,859.222 772.749,859.658 773.301,859.652 C773.853,859.646 774.296,859.201 774.291,858.657 C774.260,856.116 775.380,855.016 778.005,855.016 C780.628,855.016 781.747,856.117 781.721,858.733 C782.265,866.763 785.305,872.469 790.847,875.740 C791.154,875.932 791.543,875.947 791.864,875.776 C792.183,875.605 792.383,875.277 792.387,874.918 C792.388,874.560 792.193,874.229 791.876,874.054 C786.942,871.142 784.218,866.030 783.718,858.679 C783.760,855.038 781.737,853.049 778.005,853.049 C774.272,853.049 772.248,855.038 772.290,858.679 L772.290,858.679 ZM779.003,858.668 C779.003,858.125 778.556,857.685 778.005,857.685 C777.452,857.685 777.004,858.125 777.004,858.668 C777.004,866.666 779.736,873.117 785.192,877.945 C785.604,878.296 786.226,878.258 786.589,877.860 C786.954,877.462 786.927,876.850 786.530,876.484 C781.510,872.040 779.003,866.126 779.003,858.668 L779.003,858.668 ZM774.279,863.155 C774.194,862.619 773.684,862.250 773.137,862.333 C772.592,862.415 772.217,862.917 772.301,863.455 C773.383,870.367 775.842,875.473 779.711,878.734 C779.980,878.979 780.363,879.059 780.710,878.944 C781.057,878.828 781.312,878.535 781.376,878.180 C781.438,877.825 781.297,877.465 781.011,877.241 C777.547,874.320 775.293,869.639 774.279,863.155 L774.279,863.155 Z"/>
<path fill-rule="evenodd"  fill="rgb(255, 255, 255)"
 d="M355.953,68.195 L347.673,68.195 C347.961,70.447 349.401,71.622 351.393,71.622 C352.497,71.622 353.457,71.279 354.417,70.667 L355.617,72.870 C354.297,73.800 352.593,74.387 350.913,74.387 C347.169,74.387 344.240,71.720 344.240,67.216 C344.240,62.762 347.289,59.996 350.505,59.996 C354.201,59.996 356.121,62.762 356.121,66.555 C356.121,67.216 356.049,67.877 355.953,68.195 ZM350.553,62.786 C349.137,62.786 347.889,63.814 347.625,65.821 L353.097,65.821 C353.097,63.961 352.281,62.786 350.553,62.786 ZM340.857,71.548 C341.289,71.548 341.817,71.402 342.177,71.255 L342.753,73.873 C342.033,74.118 341.097,74.387 339.921,74.387 C336.729,74.387 335.504,72.332 335.504,69.248 L335.504,63.178 L333.608,63.178 L333.608,60.510 L335.672,60.339 L336.081,56.668 L339.033,56.668 L339.033,60.339 L342.345,60.339 L342.345,63.178 L339.033,63.178 L339.033,69.248 C339.033,70.814 339.657,71.548 340.857,71.548 ZM328.257,72.576 L328.185,72.576 C327.009,73.604 325.665,74.387 324.129,74.387 C321.729,74.387 320.145,72.650 320.145,70.325 C320.145,67.388 322.473,65.846 327.873,65.258 C327.825,63.912 327.249,62.884 325.593,62.884 C324.345,62.884 323.145,63.447 321.897,64.181 L320.625,61.807 C322.209,60.804 324.129,59.996 326.241,59.996 C329.649,59.996 331.402,62.076 331.402,66.041 L331.402,74.045 L328.521,74.045 L328.257,72.576 ZM327.873,67.461 C324.609,67.902 323.505,68.807 323.505,70.031 C323.505,71.108 324.249,71.573 325.281,71.573 C326.289,71.573 327.033,71.083 327.873,70.227 L327.873,67.461 ZM316.569,74.387 C314.121,74.387 313.257,72.748 313.257,70.202 L313.257,54.514 L316.761,54.514 L316.761,70.374 C316.761,71.181 317.145,71.450 317.481,71.450 C317.625,71.450 317.721,71.450 317.961,71.402 L318.393,74.069 C317.985,74.241 317.385,74.387 316.569,74.387 ZM303.466,67.608 L301.090,67.608 L301.090,74.045 L297.537,74.045 L297.537,55.933 L303.370,55.933 C307.306,55.933 310.330,57.328 310.330,61.611 C310.330,65.748 307.282,67.608 303.466,67.608 ZM303.106,58.797 L301.090,58.797 L301.090,64.744 L303.226,64.744 C305.674,64.744 306.850,63.692 306.850,61.611 C306.850,59.507 305.554,58.797 303.106,58.797 ZM284.170,55.933 L287.722,55.933 L287.722,74.045 L284.170,74.045 L284.170,55.933 ZM269.410,55.933 L280.307,55.933 L280.307,58.944 L272.962,58.944 L272.962,63.129 L279.203,63.129 L279.203,66.164 L272.962,66.164 L272.962,71.010 L280.571,71.010 L280.571,74.045 L269.410,74.045 L269.410,55.933 ZM259.331,67.608 L256.955,67.608 L256.955,74.045 L253.402,74.045 L253.402,55.933 L259.235,55.933 C263.171,55.933 266.195,57.328 266.195,61.611 C266.195,65.748 263.147,67.608 259.331,67.608 ZM258.971,58.797 L256.955,58.797 L256.955,64.744 L259.091,64.744 C261.539,64.744 262.715,63.692 262.715,61.611 C262.715,59.507 261.419,58.797 258.971,58.797 ZM240.515,65.944 C240.515,63.839 239.939,63.080 238.619,63.080 C237.515,63.080 236.819,63.618 235.811,64.622 L235.811,74.045 L232.306,74.045 L232.306,54.514 L235.811,54.514 L235.811,59.433 L235.667,62.003 C236.747,60.975 238.067,59.996 239.891,59.996 C242.795,59.996 244.043,62.052 244.043,65.503 L244.043,74.045 L240.515,74.045 L240.515,65.944 ZM228.083,71.548 C228.515,71.548 229.043,71.402 229.403,71.255 L229.979,73.873 C229.259,74.118 228.323,74.387 227.147,74.387 C223.955,74.387 222.731,72.332 222.731,69.248 L222.731,63.178 L220.834,63.178 L220.834,60.510 L222.899,60.339 L223.307,56.668 L226.259,56.668 L226.259,60.339 L229.571,60.339 L229.571,63.178 L226.259,63.178 L226.259,69.248 C226.259,70.814 226.883,71.548 228.083,71.548 ZM212.819,74.387 C209.459,74.387 206.363,71.744 206.363,67.216 C206.363,62.639 209.459,59.996 212.819,59.996 C216.179,59.996 219.276,62.639 219.276,67.216 C219.276,71.744 216.179,74.387 212.819,74.387 ZM212.819,62.933 C210.995,62.933 209.963,64.622 209.963,67.216 C209.963,69.786 210.995,71.450 212.819,71.450 C214.643,71.450 215.675,69.786 215.675,67.216 C215.675,64.622 214.643,62.933 212.819,62.933 ZM197.795,74.387 C194.435,74.387 191.339,71.744 191.339,67.216 C191.339,62.639 194.435,59.996 197.795,59.996 C201.156,59.996 204.252,62.639 204.252,67.216 C204.252,71.744 201.156,74.387 197.795,74.387 ZM197.795,62.933 C195.971,62.933 194.939,64.622 194.939,67.216 C194.939,69.786 195.971,71.450 197.795,71.450 C199.620,71.450 200.652,69.786 200.652,67.216 C200.652,64.622 199.620,62.933 197.795,62.933 ZM185.005,65.944 C185.005,63.839 184.404,63.080 183.132,63.080 C182.364,63.080 181.500,63.594 180.540,64.622 L180.540,74.045 L177.012,74.045 L177.012,65.944 C177.012,63.839 176.412,63.080 175.140,63.080 C174.372,63.080 173.508,63.594 172.547,64.622 L172.547,74.045 L169.043,74.045 L169.043,60.339 L171.923,60.339 L172.163,62.174 L172.259,62.174 C173.388,60.975 174.636,59.996 176.388,59.996 C178.308,59.996 179.436,60.877 180.084,62.395 C181.308,61.073 182.604,59.996 184.356,59.996 C187.213,59.996 188.533,62.052 188.533,65.503 L188.533,74.045 L185.005,74.045 L185.005,65.944 ZM162.612,63.986 C164.772,64.891 166.188,66.286 166.188,68.905 C166.188,71.867 163.764,74.387 159.660,74.387 C157.284,74.387 154.907,73.433 153.179,71.744 L155.219,69.248 C156.492,70.447 158.172,71.255 159.732,71.255 C161.580,71.255 162.564,70.447 162.564,69.174 C162.564,67.828 161.484,67.412 159.900,66.727 L157.524,65.699 C155.723,64.940 153.923,63.472 153.923,60.828 C153.923,57.867 156.468,55.591 160.068,55.591 C162.132,55.591 164.196,56.423 165.636,57.916 L163.836,60.192 C162.708,59.237 161.532,58.699 160.068,58.699 C158.508,58.699 157.500,59.409 157.500,60.608 C157.500,61.905 158.772,62.370 160.284,62.982 L162.612,63.986 ZM136.020,79.552 C135.228,79.552 134.700,79.454 134.172,79.282 L134.820,76.517 C135.060,76.590 135.444,76.688 135.756,76.688 C137.124,76.688 137.892,75.807 138.276,74.608 L138.516,73.800 L133.284,60.339 L136.836,60.339 L138.972,66.702 C139.380,67.926 139.716,69.248 140.100,70.569 L140.220,70.569 C140.532,69.297 140.868,67.975 141.180,66.702 L143.029,60.339 L146.413,60.339 L141.636,74.461 C140.460,77.692 139.020,79.552 136.020,79.552 ZM130.620,71.548 C131.052,71.548 131.580,71.402 131.940,71.255 L132.517,73.873 C131.796,74.118 130.860,74.387 129.684,74.387 C126.492,74.387 125.268,72.332 125.268,69.248 L125.268,63.178 L123.372,63.178 L123.372,60.510 L125.436,60.339 L125.844,56.668 L128.796,56.668 L128.796,60.339 L132.108,60.339 L132.108,63.178 L128.796,63.178 L128.796,69.248 C128.796,70.814 129.420,71.548 130.620,71.548 ZM119.244,58.136 C118.020,58.136 117.132,57.304 117.132,56.178 C117.132,55.003 118.020,54.220 119.244,54.220 C120.444,54.220 121.333,55.003 121.333,56.178 C121.333,57.304 120.444,58.136 119.244,58.136 ZM113.221,74.387 C110.773,74.387 109.908,72.748 109.908,70.202 L109.908,54.514 L113.413,54.514 L113.413,70.374 C113.413,71.181 113.797,71.450 114.133,71.450 C114.277,71.450 114.373,71.450 114.613,71.402 L115.045,74.069 C114.637,74.241 114.037,74.387 113.221,74.387 ZM103.165,72.576 L103.093,72.576 C101.917,73.604 100.573,74.387 99.037,74.387 C96.637,74.387 95.053,72.650 95.053,70.325 C95.053,67.388 97.381,65.846 102.781,65.258 C102.733,63.912 102.157,62.884 100.501,62.884 C99.253,62.884 98.053,63.447 96.805,64.181 L95.533,61.807 C97.117,60.804 99.037,59.996 101.149,59.996 C104.558,59.996 106.310,62.076 106.310,66.041 L106.310,74.045 L103.429,74.045 L103.165,72.576 ZM102.781,67.461 C99.517,67.902 98.413,68.807 98.413,70.031 C98.413,71.108 99.157,71.573 100.189,71.573 C101.197,71.573 101.941,71.083 102.781,70.227 L102.781,67.461 ZM84.373,68.195 C84.661,70.447 86.101,71.622 88.093,71.622 C89.198,71.622 90.158,71.279 91.118,70.667 L92.318,72.870 C90.998,73.800 89.294,74.387 87.613,74.387 C83.869,74.387 80.941,71.720 80.941,67.216 C80.941,62.762 83.989,59.996 87.205,59.996 C90.902,59.996 92.822,62.762 92.822,66.555 C92.822,67.216 92.750,67.877 92.654,68.195 L84.373,68.195 ZM87.253,62.786 C85.837,62.786 84.589,63.814 84.325,65.821 L89.798,65.821 C89.798,63.961 88.982,62.786 87.253,62.786 ZM77.918,63.178 C76.862,63.178 75.590,63.888 74.821,65.870 L74.821,74.045 L71.317,74.045 L71.317,60.339 L74.197,60.339 L74.437,62.762 L74.533,62.762 C75.518,60.975 76.958,59.996 78.350,59.996 C79.094,59.996 79.526,60.118 79.934,60.290 L79.310,63.398 C78.854,63.251 78.470,63.178 77.918,63.178 ZM63.206,71.255 C64.718,71.255 65.918,70.520 66.878,69.468 L68.750,71.720 C67.286,73.457 65.390,74.387 63.086,74.387 C58.598,74.387 54.949,71.108 54.949,65.062 C54.949,59.091 58.718,55.591 63.206,55.591 C65.462,55.591 67.262,56.692 68.414,57.916 L66.542,60.216 C65.654,59.335 64.622,58.699 63.278,58.699 C60.590,58.699 58.574,61.049 58.574,64.940 C58.574,68.881 60.398,71.255 63.206,71.255 ZM120.972,74.045 L117.468,74.045 L117.468,60.339 L120.972,60.339 L120.972,74.045 Z"/>
<path fill-rule="evenodd"  fill="rgb(200, 200, 200)"
 d="M493.997,820.998 C493.997,820.998 487.668,798.937 487.406,798.089 C486.762,796.013 485.617,794.095 483.018,794.025 C482.366,794.008 477.542,794.006 477.542,794.006 L354.192,794.005 C354.192,794.005 349.451,794.008 348.809,794.024 C346.255,794.092 345.130,795.941 344.496,797.943 C344.238,798.760 337.997,820.998 337.997,820.998 L493.997,820.998 Z"/>
<path fill-rule="evenodd"  fill="rgb(74, 74, 79)"
 d="M477.971,800.174 L470.319,809.612 C470.298,809.636 470.288,809.667 470.288,809.699 L470.288,815.860 C470.288,815.934 470.228,815.996 470.156,815.996 L467.420,815.996 C467.348,815.996 467.289,815.935 467.289,815.861 L467.289,809.699 C467.289,809.667 467.278,809.636 467.259,809.612 L462.017,803.147 C461.992,803.116 461.954,803.098 461.915,803.098 L455.900,803.098 C455.828,803.098 455.768,803.159 455.768,803.234 L455.768,815.860 C455.768,815.934 455.709,815.996 455.637,815.996 L452.902,815.996 C452.829,815.996 452.770,815.935 452.770,815.861 L452.770,803.233 C452.770,803.159 452.712,803.098 452.640,803.098 L446.662,803.098 C446.591,803.098 446.532,803.038 446.532,802.963 L446.532,800.134 C446.532,800.060 446.588,799.999 446.660,799.999 C451.100,799.998 462.528,800.000 463.330,800.000 C463.361,800.000 463.390,800.014 463.409,800.038 L468.688,806.548 C468.740,806.613 468.837,806.613 468.890,806.548 L474.167,800.038 C474.187,800.014 474.216,800.000 474.246,800.000 L477.892,800.000 C477.979,800.000 478.026,800.106 477.971,800.174 ZM442.242,815.996 C442.186,815.996 442.141,815.948 442.141,815.890 L442.141,800.135 C442.141,800.060 442.199,800.000 442.271,800.000 L445.006,800.000 C445.079,800.000 445.138,800.062 445.138,800.137 L445.138,815.861 C445.138,815.935 445.080,815.996 445.007,815.996 L442.242,815.996 ZM429.221,815.996 C428.249,815.996 427.461,815.182 427.461,814.178 L427.461,800.135 C427.461,800.060 427.520,800.000 427.592,800.000 L430.356,800.000 C430.413,800.000 430.459,800.047 430.459,800.106 L430.459,812.758 C430.459,812.833 430.518,812.894 430.591,812.894 L440.269,812.894 C440.341,812.894 440.400,812.955 440.400,813.029 L440.400,815.860 C440.400,815.934 440.341,815.996 440.269,815.996 L429.221,815.996 ZM414.394,815.994 C414.292,815.994 414.231,815.881 414.282,815.791 L415.867,812.948 C415.885,812.915 415.920,812.895 415.956,812.895 L420.750,812.895 C420.829,812.895 420.877,812.805 420.838,812.735 L417.166,806.145 C417.127,806.075 417.028,806.075 416.988,806.145 L411.521,815.943 C411.503,815.976 411.468,815.997 411.431,815.997 L408.208,815.997 C408.130,815.997 408.080,815.908 408.118,815.837 L416.899,800.101 C416.978,799.959 417.175,799.959 417.256,800.101 C417.256,800.101 425.080,814.138 426.026,815.837 C426.064,815.908 426.015,815.997 425.935,815.997 C424.677,815.997 417.053,815.995 414.394,815.994 ZM397.911,815.996 C393.825,815.996 390.470,812.716 390.182,808.572 C389.857,803.862 393.555,799.995 398.128,799.995 L406.563,799.995 C406.635,799.995 406.693,800.055 406.693,800.130 L406.693,802.993 C406.693,803.051 406.647,803.099 406.592,803.099 L397.911,803.099 C395.888,803.099 394.156,804.415 393.477,806.261 C393.445,806.349 393.511,806.444 393.602,806.444 L406.563,806.444 C406.635,806.444 406.693,806.505 406.693,806.579 L406.693,809.412 C406.693,809.487 406.635,809.547 406.563,809.547 L393.602,809.547 C393.511,809.547 393.445,809.643 393.477,809.730 C394.156,811.577 395.888,812.894 397.911,812.894 L406.563,812.894 C406.635,812.894 406.693,812.954 406.693,813.029 L406.693,815.861 C406.693,815.935 406.635,815.996 406.563,815.996 L397.911,815.996 ZM385.185,815.997 C385.151,815.997 385.117,815.982 385.092,815.956 L376.067,806.614 C376.001,806.548 376.046,806.433 376.139,806.433 L384.071,806.425 C384.976,806.425 385.710,805.645 385.677,804.700 C385.646,803.799 384.901,803.099 384.028,803.099 L375.761,803.099 C375.689,803.099 375.630,803.159 375.630,803.235 L375.630,815.861 C375.630,815.935 375.571,815.997 375.499,815.997 L372.764,815.997 C372.691,815.997 372.632,815.935 372.632,815.860 L372.632,800.131 C372.632,800.056 372.691,799.995 372.763,799.995 L383.998,799.995 C386.527,799.995 388.640,802.074 388.676,804.691 C388.714,807.352 386.633,809.529 384.071,809.529 L383.127,809.529 C383.127,809.529 383.126,809.532 383.129,809.535 L389.148,815.764 C389.230,815.850 389.171,815.997 389.054,815.997 L385.185,815.997 ZM361.796,815.996 C357.425,815.996 353.865,812.294 353.997,807.772 C354.119,803.571 357.393,800.175 361.449,800.038 L370.606,799.996 C370.665,799.995 370.710,800.043 370.710,800.101 L370.710,802.993 C370.710,803.052 370.665,803.099 370.607,803.099 L361.706,803.137 C359.083,803.137 356.955,805.363 356.993,808.087 C357.031,810.766 359.191,812.894 361.780,812.894 L370.579,812.894 C370.652,812.894 370.710,812.955 370.710,813.029 L370.710,815.861 C370.710,815.935 370.652,815.996 370.580,815.996 L361.796,815.996 Z"/>
<path fill-rule="evenodd"  fill="rgb(200, 200, 200)"
 d="M132.998,822.999 L699.998,822.999 L699.998,826.999 L132.998,826.999 L132.998,822.999 Z"/>
<path fill-rule="evenodd"  fill="rgb(200, 200, 200)"
 d="M112.998,816.998 L157.998,816.998 L161.998,826.999 L108.998,826.999 L112.998,816.998 Z"/>
<path fill-rule="evenodd"  fill="rgb(200, 200, 200)"
 d="M674.997,816.998 L719.998,816.998 L723.998,826.999 L670.998,826.999 L674.997,816.998 Z"/>
<path fill-rule="evenodd"  stroke="rgb(200, 200, 200)" stroke-width="3px" stroke-linecap="butt" stroke-linejoin="miter" fill="none"
 d="M37.810,761.362 L16.269,800.493 C12.720,806.450 17.017,813.999 23.956,813.999 L67.038,813.999 C73.977,813.999 78.275,806.450 74.725,800.495 L53.185,761.362 C49.717,755.543 41.278,755.543 37.810,761.362 L37.810,761.362 Z"/>
<path fill-rule="evenodd"  fill="rgb(200, 200, 200)"
 d="M45.486,765.999 L23.998,805.999 L67.998,805.999 L45.486,765.999 Z"/>
<path fill-rule="evenodd"  fill="rgb(99, 99, 103)"
 d="M30.998,802.999 L30.998,801.999 L60.998,801.999 L60.998,802.999 L30.998,802.999 ZM33.998,798.999 L57.998,798.999 L57.998,799.998 L33.998,799.998 L33.998,798.999 ZM36.998,795.999 L54.997,795.999 L54.997,796.999 L36.998,796.999 L36.998,795.999 ZM51.998,789.921 C51.998,792.641 50.072,793.842 49.990,793.893 C49.884,793.957 49.763,793.992 49.639,793.993 L49.650,793.999 C49.351,793.999 49.088,793.803 49.007,793.518 C48.924,793.233 49.043,792.930 49.298,792.774 C49.322,792.765 50.661,791.913 50.661,789.927 C50.661,788.687 50.208,787.665 49.807,786.762 C49.472,786.003 49.182,785.354 49.182,784.679 C49.182,782.108 50.771,781.130 50.837,781.090 C51.151,780.908 51.554,781.006 51.746,781.311 C51.940,781.620 51.846,782.025 51.535,782.220 C51.493,782.251 50.518,782.891 50.518,784.679 C50.518,785.072 50.755,785.606 51.030,786.224 C51.460,787.195 51.998,788.404 51.998,789.921 ZM47.004,789.921 C47.004,792.641 45.077,793.842 44.995,793.893 C44.890,793.957 44.770,793.991 44.647,793.993 L44.658,793.999 C44.359,794.000 44.096,793.806 44.012,793.522 C43.929,793.238 44.046,792.933 44.299,792.776 C44.354,792.741 45.667,791.889 45.667,789.927 C45.667,788.687 45.213,787.665 44.812,786.762 C44.477,786.003 44.187,785.354 44.187,784.679 C44.187,782.108 45.776,781.130 45.843,781.090 C46.157,780.908 46.559,781.006 46.751,781.311 C46.946,781.620 46.851,782.025 46.542,782.220 C46.499,782.251 45.523,782.891 45.523,784.679 C45.523,785.072 45.761,785.606 46.035,786.224 C46.465,787.195 47.004,788.404 47.004,789.921 ZM42.007,789.921 C42.007,792.641 40.081,793.842 39.999,793.893 C39.893,793.957 39.774,793.991 39.650,793.993 L39.662,793.999 C39.362,794.000 39.099,793.806 39.015,793.522 C38.932,793.238 39.049,792.933 39.302,792.776 C39.358,792.741 40.670,791.889 40.670,789.927 C40.670,788.687 40.217,787.665 39.816,786.762 C39.480,786.003 39.191,785.354 39.191,784.679 C39.191,782.108 40.780,781.130 40.847,781.090 C41.159,780.908 41.563,781.006 41.755,781.311 C41.949,781.620 41.856,782.025 41.544,782.220 C41.502,782.251 40.527,782.891 40.527,784.679 C40.527,785.072 40.764,785.606 41.038,786.224 C41.469,787.195 42.007,788.404 42.007,789.921 Z"/>
<path fill-rule="evenodd"  fill="rgb(255, 255, 255)"
 d="M104.594,824.049 L100.798,824.049 C100.930,825.081 101.591,825.621 102.504,825.621 C103.009,825.621 103.450,825.463 103.889,825.183 L104.439,826.193 C103.834,826.619 103.053,826.889 102.283,826.889 C100.567,826.889 99.226,825.665 99.226,823.600 C99.226,821.557 100.622,820.289 102.097,820.289 C103.790,820.289 104.670,821.557 104.670,823.297 C104.670,823.600 104.637,823.903 104.594,824.049 ZM102.118,821.569 C101.469,821.569 100.897,822.040 100.776,822.961 L103.284,822.961 C103.284,822.107 102.910,821.569 102.118,821.569 ZM97.157,825.542 C97.597,825.542 98.015,825.329 98.356,825.037 L98.994,826.125 C98.411,826.653 97.663,826.889 96.981,826.889 C95.277,826.889 93.978,825.677 93.978,823.600 C93.978,821.501 95.452,820.289 97.125,820.289 C97.883,820.289 98.466,820.592 98.917,820.985 L98.147,822.051 C97.839,821.782 97.553,821.636 97.202,821.636 C96.266,821.636 95.628,822.410 95.628,823.600 C95.628,824.779 96.266,825.542 97.157,825.542 ZM91.822,826.058 L91.790,826.058 C91.251,826.529 90.634,826.889 89.931,826.889 C88.831,826.889 88.105,826.092 88.105,825.026 C88.105,823.679 89.172,822.971 91.647,822.702 C91.625,822.085 91.361,821.614 90.602,821.614 C90.029,821.614 89.480,821.871 88.907,822.208 L88.324,821.119 C89.050,820.660 89.931,820.289 90.898,820.289 C92.461,820.289 93.264,821.243 93.264,823.061 L93.264,826.731 L91.944,826.731 L91.822,826.058 ZM91.647,823.712 C90.151,823.915 89.645,824.330 89.645,824.891 C89.645,825.385 89.986,825.598 90.458,825.598 C90.920,825.598 91.261,825.374 91.647,824.981 L91.647,823.712 ZM87.511,818.920 C87.027,818.920 86.763,819.211 86.763,819.908 L86.763,820.446 L87.918,820.446 L87.918,821.748 L86.763,821.748 L86.763,826.731 L85.146,826.731 L85.146,821.748 L84.321,821.748 L84.321,821.686 L84.288,821.849 C84.078,821.782 83.902,821.748 83.650,821.748 C83.166,821.748 82.583,822.074 82.231,822.983 L82.231,826.731 L80.625,826.731 L80.625,820.446 L81.945,820.446 L82.055,821.557 L82.099,821.557 C82.550,820.738 83.210,820.289 83.848,820.289 C84.189,820.289 84.387,820.345 84.573,820.424 L84.557,820.505 L85.146,820.457 L85.146,819.941 C85.146,818.628 85.739,817.618 87.291,817.618 C87.763,817.618 88.182,817.730 88.457,817.842 L88.160,819.054 C87.950,818.976 87.708,818.920 87.511,818.920 ZM78.007,825.834 L77.963,825.834 C77.435,826.473 76.841,826.889 75.994,826.889 C74.673,826.889 74.102,825.946 74.102,824.374 L74.102,820.446 L75.719,820.446 L75.719,824.161 C75.719,825.138 75.983,825.475 76.577,825.475 C77.083,825.475 77.413,825.250 77.830,824.689 L77.830,820.446 L79.448,820.446 L79.448,826.731 L78.128,826.731 L78.007,825.834 ZM73.486,824.902 C73.486,826.002 72.639,826.889 71.033,826.889 C70.208,826.889 69.295,826.518 68.690,826.002 L69.427,824.969 C69.977,825.407 70.505,825.654 71.078,825.654 C71.693,825.654 71.968,825.385 71.968,824.992 C71.968,824.520 71.330,824.307 70.680,824.049 C69.900,823.746 68.998,823.263 68.998,822.220 C68.998,821.086 69.900,820.289 71.286,820.289 C72.187,820.289 72.870,820.671 73.387,821.063 L72.660,822.062 C72.220,821.748 71.792,821.524 71.330,821.524 C70.780,821.524 70.515,821.771 70.515,822.130 C70.515,822.590 71.121,822.758 71.770,823.005 C72.584,823.320 73.486,823.735 73.486,824.902 ZM65.940,825.586 C66.138,825.586 66.380,825.519 66.545,825.452 L66.809,826.653 C66.479,826.765 66.050,826.889 65.511,826.889 C64.048,826.889 63.487,825.946 63.487,824.532 L63.487,821.748 L62.618,821.748 L62.618,820.525 L63.564,820.446 L63.751,818.763 L65.104,818.763 L65.104,820.446 L66.622,820.446 L66.622,821.748 L65.104,821.748 L65.104,824.532 C65.104,825.250 65.390,825.586 65.940,825.586 ZM59.494,826.889 C57.954,826.889 56.536,825.677 56.536,823.600 C56.536,821.501 57.954,820.289 59.494,820.289 C61.034,820.289 62.453,821.501 62.453,823.600 C62.453,825.677 61.034,826.889 59.494,826.889 ZM60.803,823.600 C60.803,822.410 60.330,821.636 59.494,821.636 C58.659,821.636 58.185,822.410 58.185,823.600 C58.185,824.779 58.659,825.542 59.494,825.542 C60.330,825.542 60.803,824.779 60.803,823.600 ZM54.192,823.017 C54.192,822.051 53.928,821.703 53.323,821.703 C52.817,821.703 52.498,821.950 52.036,822.410 L52.036,826.731 L50.430,826.731 L50.430,817.775 L52.036,817.775 L52.036,820.031 L51.970,821.209 C52.465,820.738 53.070,820.289 53.906,820.289 C55.237,820.289 55.809,821.232 55.809,822.814 L55.809,826.731 L54.192,826.731 L54.192,823.017 ZM44.475,825.014 L45.468,825.014 C46.879,825.014 47.642,825.462 47.642,826.507 C47.642,827.712 46.419,828.630 44.464,828.630 C43.084,828.630 42.018,828.150 42.018,827.094 C42.018,826.593 42.321,826.166 42.855,825.857 L42.855,825.803 C42.551,825.601 42.321,825.291 42.321,824.800 C42.321,824.353 42.625,823.937 42.970,823.681 L42.970,823.638 C42.573,823.340 42.196,822.774 42.196,822.081 C42.196,820.673 43.315,819.916 44.558,819.916 C44.883,819.916 45.196,819.980 45.436,820.065 L47.548,820.065 L47.548,821.217 L46.544,821.217 C46.701,821.420 46.816,821.750 46.816,822.124 C46.816,823.467 45.813,824.150 44.558,824.150 C44.328,824.150 44.057,824.097 43.806,824.012 C43.639,824.150 43.555,824.289 43.555,824.523 C43.555,824.843 43.785,825.014 44.475,825.014 ZM44.558,823.180 C45.071,823.180 45.468,822.785 45.468,822.081 C45.468,821.377 45.081,820.982 44.558,820.982 C44.036,820.982 43.639,821.377 43.639,822.081 C43.639,822.785 44.046,823.180 44.558,823.180 ZM43.680,826.155 C43.419,826.369 43.294,826.603 43.294,826.849 C43.294,827.350 43.837,827.638 44.694,827.638 C45.572,827.638 46.178,827.243 46.178,826.774 C46.178,826.347 45.833,826.241 45.207,826.241 L44.496,826.241 C44.140,826.241 43.890,826.209 43.680,826.155 ZM39.282,822.507 C39.282,821.590 39.031,821.260 38.456,821.260 C37.975,821.260 37.672,821.494 37.233,821.932 L37.233,826.038 L35.707,826.038 L35.707,820.065 L36.961,820.065 L37.066,820.854 L37.108,820.854 C37.619,820.342 38.215,819.916 39.010,819.916 C40.275,819.916 40.818,820.811 40.818,822.316 L40.818,826.038 L39.282,826.038 L39.282,822.507 ZM33.304,819.105 C32.770,819.105 32.384,818.743 32.384,818.252 C32.384,817.740 32.770,817.399 33.304,817.399 C33.826,817.399 34.213,817.740 34.213,818.252 C34.213,818.743 33.826,819.105 33.304,819.105 ZM29.407,822.507 C29.407,821.590 29.156,821.260 28.581,821.260 C28.100,821.260 27.797,821.494 27.358,821.932 L27.358,826.038 L25.832,826.038 L25.832,820.065 L27.086,820.065 L27.191,820.854 L27.233,820.854 C27.744,820.342 28.340,819.916 29.135,819.916 C30.400,819.916 30.943,820.811 30.943,822.316 L30.943,826.038 L29.407,826.038 L29.407,822.507 ZM24.150,821.302 C23.690,821.302 23.136,821.611 22.802,822.476 L22.802,826.038 L21.276,826.038 L21.276,820.065 L22.530,820.065 L22.635,821.121 L22.676,821.121 C23.105,820.342 23.732,819.916 24.338,819.916 C24.663,819.916 24.850,819.969 25.028,820.044 L24.756,821.398 C24.558,821.334 24.390,821.302 24.150,821.302 ZM18.340,825.398 L18.309,825.398 C17.796,825.846 17.211,826.187 16.542,826.187 C15.497,826.187 14.808,825.430 14.808,824.417 C14.808,823.137 15.821,822.465 18.173,822.209 C18.152,821.622 17.901,821.174 17.180,821.174 C16.637,821.174 16.114,821.420 15.571,821.740 L15.017,820.705 C15.706,820.268 16.542,819.916 17.462,819.916 C18.947,819.916 19.709,820.822 19.709,822.550 L19.709,826.038 L18.455,826.038 L18.340,825.398 ZM18.173,823.169 C16.751,823.361 16.271,823.756 16.271,824.289 C16.271,824.758 16.594,824.961 17.044,824.961 C17.483,824.961 17.807,824.747 18.173,824.374 L18.173,823.169 ZM10.713,826.038 L9.845,822.134 C9.719,821.516 9.604,820.908 9.510,820.311 L9.468,820.311 C9.364,820.908 9.259,821.516 9.134,822.134 L8.287,826.038 L6.395,826.038 L4.901,818.145 L6.479,818.145 L7.096,821.996 C7.211,822.827 7.336,823.670 7.451,824.513 L7.493,824.513 C7.650,823.670 7.817,822.817 7.984,821.996 L8.883,818.145 L10.201,818.145 L11.099,821.996 C11.266,822.806 11.423,823.660 11.590,824.513 L11.643,824.513 C11.758,823.660 11.873,822.817 11.987,821.996 L12.594,818.145 L14.068,818.145 L12.635,826.038 L10.713,826.038 ZM34.056,826.038 L32.530,826.038 L32.530,820.065 L34.056,820.065 L34.056,826.038 Z"/>
<path fill-rule="evenodd"  stroke="rgb(200, 200, 200)" stroke-width="2px" stroke-linecap="butt" stroke-linejoin="miter" fill="none"
 d="M9.998,800.998 L9.998,781.999 L26.998,754.999 L26.998,505.999 L7.998,500.999 L18.998,498.998 L10.998,495.998 "/>
<path fill-rule="evenodd"  stroke="rgb(200, 200, 200)" stroke-width="2px" stroke-linecap="butt" stroke-linejoin="miter" fill="none"
 d="M11.998,768.999 L23.998,750.999 "/>
<path fill-rule="evenodd"  stroke="rgb(200, 200, 200)" stroke-width="2px" stroke-linecap="butt" stroke-linejoin="miter" fill="none"
 d="M11.998,760.998 L23.998,742.999 "/>
<path fill-rule="evenodd"  stroke="rgb(200, 200, 200)" stroke-width="2px" stroke-linecap="butt" stroke-linejoin="miter" fill="none"
 d="M12.998,493.960 L18.117,493.960 L16.198,492.941 "/>
<path fill-rule="evenodd"  fill="rgb(200, 200, 200)"
 d="M17.964,490.998 C17.752,490.998 17.556,490.903 17.418,490.740 L11.982,484.255 L8.778,484.255 C8.385,484.255 8.065,483.931 8.051,483.520 C7.926,479.672 8.040,479.516 8.193,479.296 C8.331,479.101 8.546,478.987 8.778,478.987 L11.582,478.987 L11.582,469.259 C11.582,469.141 11.608,469.027 11.658,468.925 L12.364,467.425 C12.488,467.162 12.743,466.999 13.020,466.999 L22.912,466.999 C23.187,466.999 23.443,467.162 23.563,467.425 L24.269,468.925 C24.319,469.027 24.346,469.145 24.346,469.259 L24.346,478.987 L27.148,478.987 C27.516,478.987 27.822,479.273 27.869,479.649 C28.157,481.971 27.873,483.570 27.862,483.638 C27.797,483.996 27.497,484.258 27.148,484.258 L23.945,484.258 L18.513,490.740 C18.375,490.903 18.175,490.998 17.964,490.998 L17.964,490.998 ZM9.485,482.732 L12.310,482.732 C12.521,482.732 12.717,482.827 12.856,482.991 L17.959,489.080 L23.064,482.991 C23.202,482.827 23.402,482.732 23.610,482.732 L26.497,482.732 C26.537,482.234 26.563,481.461 26.486,480.510 L23.610,480.510 C23.210,480.510 22.882,480.167 22.882,479.749 L22.882,469.434 L22.455,468.521 L13.471,468.521 L13.041,469.434 L13.041,479.749 C13.041,480.167 12.714,480.510 12.314,480.510 L9.460,480.510 C9.452,480.921 9.456,481.606 9.485,482.732 L9.485,482.732 Z"/>
<path fill-rule="evenodd"  fill="rgb(200, 200, 200)"
 d="M17.998,471.999 C18.550,471.999 18.998,472.446 18.998,472.998 L18.998,480.999 C18.998,481.551 18.550,481.999 17.998,481.999 C17.446,481.999 16.998,481.551 16.998,480.999 L16.998,472.998 C16.998,472.446 17.446,471.999 17.998,471.999 Z"/>
<path fill-rule="evenodd"  stroke="rgb(200, 200, 200)" stroke-width="3px" stroke-linecap="butt" stroke-linejoin="miter" fill="none"
 d="M780.810,761.362 L759.270,800.493 C755.721,806.450 760.017,813.999 766.957,813.999 L810.039,813.999 C816.978,813.999 821.276,806.450 817.725,800.495 L796.186,761.362 C792.718,755.543 784.278,755.543 780.810,761.362 L780.810,761.362 Z"/>
<path fill-rule="evenodd"  fill="rgb(200, 200, 200)"
 d="M788.487,765.999 L766.998,805.999 L810.998,805.999 L788.487,765.999 Z"/>
<path fill-rule="evenodd"  fill="rgb(99, 99, 103)"
 d="M773.998,802.999 L773.998,801.999 L803.998,801.999 L803.998,802.999 L773.998,802.999 ZM776.998,798.999 L800.998,798.999 L800.998,799.998 L776.998,799.998 L776.998,798.999 ZM779.998,795.999 L797.998,795.999 L797.998,796.999 L779.998,796.999 L779.998,795.999 ZM794.998,789.921 C794.998,792.641 793.073,793.842 792.990,793.893 C792.885,793.957 792.763,793.992 792.640,793.993 L792.651,793.999 C792.352,793.999 792.088,793.803 792.007,793.518 C791.925,793.233 792.044,792.930 792.299,792.774 C792.323,792.765 793.662,791.913 793.662,789.927 C793.662,788.687 793.209,787.665 792.807,786.762 C792.472,786.003 792.182,785.354 792.182,784.679 C792.182,782.108 793.771,781.130 793.837,781.090 C794.152,780.908 794.555,781.006 794.747,781.311 C794.941,781.620 794.847,782.025 794.537,782.220 C794.494,782.251 793.519,782.891 793.519,784.679 C793.519,785.072 793.755,785.606 794.030,786.224 C794.460,787.195 794.998,788.404 794.998,789.921 ZM790.004,789.921 C790.004,792.641 788.078,793.842 787.996,793.893 C787.891,793.957 787.771,793.991 787.647,793.993 L787.659,793.999 C787.359,794.000 787.097,793.806 787.012,793.522 C786.929,793.238 787.046,792.933 787.299,792.776 C787.355,792.741 788.667,791.889 788.667,789.927 C788.667,788.687 788.215,787.665 787.812,786.762 C787.478,786.003 787.188,785.354 787.188,784.679 C787.188,782.108 788.776,781.130 788.844,781.090 C789.157,780.908 789.560,781.006 789.752,781.311 C789.946,781.620 789.853,782.025 789.542,782.220 C789.500,782.251 788.525,782.891 788.525,784.679 C788.525,785.072 788.761,785.606 789.035,786.224 C789.466,787.195 790.004,788.404 790.004,789.921 ZM785.007,789.921 C785.007,792.641 783.082,793.842 782.999,793.893 C782.895,793.957 782.774,793.991 782.651,793.993 L782.662,793.999 C782.363,794.000 782.099,793.806 782.016,793.522 C781.932,793.238 782.050,792.933 782.302,792.776 C782.359,792.741 783.671,791.889 783.671,789.927 C783.671,788.687 783.218,787.665 782.816,786.762 C782.481,786.003 782.191,785.354 782.191,784.679 C782.191,782.108 783.780,781.130 783.846,781.090 C784.160,780.908 784.563,781.006 784.755,781.311 C784.949,781.620 784.856,782.025 784.545,782.220 C784.503,782.251 783.528,782.891 783.528,784.679 C783.528,785.072 783.764,785.606 784.039,786.224 C784.469,787.195 785.007,788.404 785.007,789.921 Z"/>
<path fill-rule="evenodd"  fill="rgb(255, 255, 255)"
 d="M826.594,824.049 L822.798,824.049 C822.930,825.081 823.591,825.621 824.503,825.621 C825.009,825.621 825.450,825.463 825.889,825.183 L826.439,826.193 C825.834,826.619 825.053,826.889 824.284,826.889 C822.567,826.889 821.226,825.665 821.226,823.600 C821.226,821.557 822.622,820.289 824.097,820.289 C825.790,820.289 826.670,821.557 826.670,823.297 C826.670,823.600 826.637,823.903 826.594,824.049 ZM824.118,821.569 C823.469,821.569 822.897,822.040 822.776,822.961 L825.284,822.961 C825.284,822.107 824.910,821.569 824.118,821.569 ZM819.157,825.542 C819.597,825.542 820.015,825.329 820.356,825.037 L820.995,826.125 C820.411,826.653 819.664,826.889 818.982,826.889 C817.277,826.889 815.978,825.677 815.978,823.600 C815.978,821.501 817.452,820.289 819.124,820.289 C819.883,820.289 820.466,820.592 820.917,820.985 L820.148,822.051 C819.840,821.782 819.554,821.636 819.201,821.636 C818.266,821.636 817.629,822.410 817.629,823.600 C817.629,824.779 818.266,825.542 819.157,825.542 ZM813.822,826.058 L813.790,826.058 C813.250,826.529 812.635,826.889 811.931,826.889 C810.831,826.889 810.105,826.092 810.105,825.026 C810.105,823.679 811.172,822.971 813.647,822.702 C813.625,822.085 813.361,821.614 812.602,821.614 C812.029,821.614 811.480,821.871 810.908,822.208 L810.324,821.119 C811.050,820.660 811.931,820.289 812.898,820.289 C814.461,820.289 815.264,821.243 815.264,823.061 L815.264,826.731 L813.944,826.731 L813.822,826.058 ZM813.647,823.712 C812.151,823.915 811.645,824.330 811.645,824.891 C811.645,825.385 811.986,825.598 812.459,825.598 C812.921,825.598 813.261,825.374 813.647,824.981 L813.647,823.712 ZM809.511,818.920 C809.027,818.920 808.762,819.211 808.762,819.908 L808.762,820.446 L809.918,820.446 L809.918,821.748 L808.762,821.748 L808.762,826.731 L807.146,826.731 L807.146,821.748 L806.321,821.748 L806.321,821.686 L806.288,821.849 C806.078,821.782 805.903,821.748 805.649,821.748 C805.166,821.748 804.582,822.074 804.231,822.983 L804.231,826.731 L802.624,826.731 L802.624,820.446 L803.945,820.446 L804.055,821.557 L804.099,821.557 C804.550,820.738 805.209,820.289 805.848,820.289 C806.189,820.289 806.387,820.345 806.574,820.424 L806.557,820.505 L807.146,820.457 L807.146,819.941 C807.146,818.628 807.739,817.618 809.291,817.618 C809.764,817.618 810.182,817.730 810.456,817.842 L810.160,819.054 C809.951,818.976 809.708,818.920 809.511,818.920 ZM800.007,825.834 L799.963,825.834 C799.435,826.473 798.840,826.889 797.994,826.889 C796.673,826.889 796.102,825.946 796.102,824.374 L796.102,820.446 L797.718,820.446 L797.718,824.161 C797.718,825.138 797.983,825.475 798.576,825.475 C799.083,825.475 799.412,825.250 799.830,824.689 L799.830,820.446 L801.447,820.446 L801.447,826.731 L800.128,826.731 L800.007,825.834 ZM795.486,824.902 C795.486,826.002 794.638,826.889 793.033,826.889 C792.207,826.889 791.295,826.518 790.690,826.002 L791.427,824.969 C791.977,825.407 792.505,825.654 793.077,825.654 C793.693,825.654 793.968,825.385 793.968,824.992 C793.968,824.520 793.330,824.307 792.680,824.049 C791.900,823.746 790.998,823.263 790.998,822.220 C790.998,821.086 791.900,820.289 793.286,820.289 C794.187,820.289 794.870,820.671 795.387,821.063 L794.660,822.062 C794.220,821.748 793.792,821.524 793.330,821.524 C792.779,821.524 792.515,821.771 792.515,822.130 C792.515,822.590 793.121,822.758 793.770,823.005 C794.584,823.320 795.486,823.735 795.486,824.902 ZM787.940,825.586 C788.138,825.586 788.380,825.519 788.545,825.452 L788.809,826.653 C788.479,826.765 788.050,826.889 787.511,826.889 C786.047,826.889 785.487,825.946 785.487,824.532 L785.487,821.748 L784.618,821.748 L784.618,820.525 L785.564,820.446 L785.751,818.763 L787.104,818.763 L787.104,820.446 L788.622,820.446 L788.622,821.748 L787.104,821.748 L787.104,824.532 C787.104,825.250 787.390,825.586 787.940,825.586 ZM781.495,826.889 C779.954,826.889 778.535,825.677 778.535,823.600 C778.535,821.501 779.954,820.289 781.495,820.289 C783.035,820.289 784.452,821.501 784.452,823.600 C784.452,825.677 783.035,826.889 781.495,826.889 ZM782.803,823.600 C782.803,822.410 782.330,821.636 781.495,821.636 C780.659,821.636 780.185,822.410 780.185,823.600 C780.185,824.779 780.659,825.542 781.495,825.542 C782.330,825.542 782.803,824.779 782.803,823.600 ZM776.192,823.017 C776.192,822.051 775.928,821.703 775.323,821.703 C774.817,821.703 774.498,821.950 774.036,822.410 L774.036,826.731 L772.430,826.731 L772.430,817.775 L774.036,817.775 L774.036,820.031 L773.970,821.209 C774.465,820.738 775.070,820.289 775.906,820.289 C777.237,820.289 777.809,821.232 777.809,822.814 L777.809,826.731 L776.192,826.731 L776.192,823.017 ZM766.475,825.014 L767.468,825.014 C768.879,825.014 769.641,825.462 769.641,826.507 C769.641,827.712 768.419,828.630 766.465,828.630 C765.085,828.630 764.019,828.150 764.019,827.094 C764.019,826.593 764.321,826.166 764.855,825.857 L764.855,825.803 C764.552,825.601 764.321,825.291 764.321,824.800 C764.321,824.353 764.625,823.937 764.970,823.681 L764.970,823.638 C764.573,823.340 764.196,822.774 764.196,822.081 C764.196,820.673 765.315,819.916 766.558,819.916 C766.883,819.916 767.196,819.980 767.436,820.065 L769.547,820.065 L769.547,821.217 L768.544,821.217 C768.701,821.420 768.816,821.750 768.816,822.124 C768.816,823.467 767.813,824.150 766.558,824.150 C766.329,824.150 766.057,824.097 765.806,824.012 C765.639,824.150 765.555,824.289 765.555,824.523 C765.555,824.843 765.785,825.014 766.475,825.014 ZM766.558,823.180 C767.071,823.180 767.468,822.785 767.468,822.081 C767.468,821.377 767.081,820.982 766.558,820.982 C766.036,820.982 765.639,821.377 765.639,822.081 C765.639,822.785 766.046,823.180 766.558,823.180 ZM765.681,826.155 C765.419,826.369 765.294,826.603 765.294,826.849 C765.294,827.350 765.837,827.638 766.694,827.638 C767.572,827.638 768.178,827.243 768.178,826.774 C768.178,826.347 767.833,826.241 767.207,826.241 L766.496,826.241 C766.141,826.241 765.890,826.209 765.681,826.155 ZM761.282,822.507 C761.282,821.590 761.031,821.260 760.456,821.260 C759.975,821.260 759.672,821.494 759.233,821.932 L759.233,826.038 L757.707,826.038 L757.707,820.065 L758.961,820.065 L759.066,820.854 L759.108,820.854 C759.620,820.342 760.216,819.916 761.010,819.916 C762.274,819.916 762.818,820.811 762.818,822.316 L762.818,826.038 L761.282,826.038 L761.282,822.507 ZM755.304,819.105 C754.770,819.105 754.384,818.743 754.384,818.252 C754.384,817.740 754.770,817.399 755.304,817.399 C755.826,817.399 756.213,817.740 756.213,818.252 C756.213,818.743 755.826,819.105 755.304,819.105 ZM751.407,822.507 C751.407,821.590 751.156,821.260 750.581,821.260 C750.100,821.260 749.797,821.494 749.358,821.932 L749.358,826.038 L747.832,826.038 L747.832,820.065 L749.086,820.065 L749.191,820.854 L749.233,820.854 C749.745,820.342 750.341,819.916 751.135,819.916 C752.399,819.916 752.943,820.811 752.943,822.316 L752.943,826.038 L751.407,826.038 L751.407,822.507 ZM746.150,821.302 C745.690,821.302 745.137,821.611 744.802,822.476 L744.802,826.038 L743.276,826.038 L743.276,820.065 L744.530,820.065 L744.635,821.121 L744.677,821.121 C745.104,820.342 745.732,819.916 746.338,819.916 C746.663,819.916 746.851,819.969 747.028,820.044 L746.756,821.398 C746.558,821.334 746.391,821.302 746.150,821.302 ZM740.340,825.398 L740.309,825.398 C739.797,825.846 739.212,826.187 738.543,826.187 C737.497,826.187 736.807,825.430 736.807,824.417 C736.807,823.137 737.821,822.465 740.173,822.209 C740.152,821.622 739.901,821.174 739.179,821.174 C738.637,821.174 738.113,821.420 737.571,821.740 L737.016,820.705 C737.706,820.268 738.543,819.916 739.463,819.916 C740.947,819.916 741.709,820.822 741.709,822.550 L741.709,826.038 L740.455,826.038 L740.340,825.398 ZM740.173,823.169 C738.752,823.361 738.270,823.756 738.270,824.289 C738.270,824.758 738.594,824.961 739.044,824.961 C739.483,824.961 739.807,824.747 740.173,824.374 L740.173,823.169 ZM732.712,826.038 L731.845,822.134 C731.719,821.516 731.604,820.908 731.510,820.311 L731.468,820.311 C731.364,820.908 731.259,821.516 731.134,822.134 L730.287,826.038 L728.395,826.038 L726.901,818.145 L728.479,818.145 L729.095,821.996 C729.210,822.827 729.336,823.670 729.451,824.513 L729.492,824.513 C729.650,823.670 729.816,822.817 729.984,821.996 L730.883,818.145 L732.200,818.145 L733.099,821.996 C733.266,822.806 733.423,823.660 733.590,824.513 L733.642,824.513 C733.757,823.660 733.873,822.817 733.987,821.996 L734.593,818.145 L736.068,818.145 L734.635,826.038 L732.712,826.038 ZM756.057,826.038 L754.530,826.038 L754.530,820.065 L756.057,820.065 L756.057,826.038 Z"/>
<path fill-rule="evenodd"  fill="rgb(200, 200, 200)"
 d="M155.998,27.999 L675.998,27.999 L675.998,29.999 L155.998,29.999 L155.998,27.999 Z"/>
<path fill-rule="evenodd"  stroke="rgb(200, 200, 200)" stroke-width="2px" stroke-linecap="butt" stroke-linejoin="miter" fill="none"
 d="M14.998,4.999 L181.998,4.999 C186.291,4.999 186.285,6.133 190.998,11.999 L204.998,29.999 L4.998,29.999 C4.998,29.999 4.998,27.522 4.998,21.999 L4.998,14.999 C4.998,9.476 9.475,4.999 14.998,4.999 Z"/>
<path fill-rule="evenodd"  fill="rgb(200, 200, 200)"
 d="M17.998,29.999 L17.998,4.999 L172.997,4.999 C177.291,4.999 177.286,6.133 181.998,11.999 L195.998,29.999 L17.998,29.999 ZM14.998,5.999 L16.998,5.999 L16.998,29.999 L14.998,29.999 L14.998,5.999 Z"/>
<path fill-rule="evenodd"  fill="rgb(99, 99, 103)"
 d="M140.514,21.169 L133.613,21.169 C133.853,23.046 135.053,24.025 136.713,24.025 C137.634,24.025 138.434,23.740 139.234,23.229 L140.234,25.066 C139.134,25.841 137.714,26.330 136.313,26.330 C133.193,26.330 130.752,24.107 130.752,20.353 C130.752,16.640 133.293,14.335 135.973,14.335 C139.054,14.335 140.654,16.640 140.654,19.802 C140.654,20.353 140.594,20.904 140.514,21.169 ZM136.013,16.660 C134.833,16.660 133.793,17.517 133.573,19.190 L138.134,19.190 C138.134,17.640 137.454,16.660 136.013,16.660 ZM125.933,23.964 C126.294,23.964 126.734,23.842 127.034,23.719 L127.514,25.902 C126.914,26.106 126.133,26.330 125.153,26.330 C122.493,26.330 121.472,24.617 121.472,22.046 L121.472,16.987 L119.892,16.987 L119.892,14.763 L121.613,14.620 L121.953,11.560 L124.413,11.560 L124.413,14.620 L127.174,14.620 L127.174,16.987 L124.413,16.987 L124.413,22.046 C124.413,23.352 124.933,23.964 125.933,23.964 ZM113.434,24.821 L113.374,24.821 C112.394,25.678 111.273,26.330 109.993,26.330 C107.993,26.330 106.673,24.882 106.673,22.944 C106.673,20.496 108.613,19.210 113.114,18.721 C113.074,17.599 112.594,16.742 111.213,16.742 C110.173,16.742 109.173,17.211 108.133,17.823 L107.073,15.844 C108.393,15.008 109.993,14.335 111.754,14.335 C114.594,14.335 116.055,16.069 116.055,19.374 L116.055,26.045 L113.654,26.045 L113.434,24.821 ZM113.114,20.557 C110.393,20.924 109.473,21.679 109.473,22.699 C109.473,23.597 110.093,23.984 110.953,23.984 C111.794,23.984 112.414,23.576 113.114,22.862 L113.114,20.557 ZM101.693,26.330 C99.653,26.330 98.933,24.964 98.933,22.842 L98.933,9.765 L101.854,9.765 L101.854,22.985 C101.854,23.658 102.174,23.882 102.454,23.882 C102.574,23.882 102.654,23.882 102.854,23.842 L103.214,26.065 C102.874,26.208 102.374,26.330 101.693,26.330 ZM88.774,20.679 L86.794,20.679 L86.794,26.045 L83.833,26.045 L83.833,10.948 L88.694,10.948 C91.975,10.948 94.495,12.111 94.495,15.681 C94.495,19.129 91.955,20.679 88.774,20.679 ZM88.474,13.335 L86.794,13.335 L86.794,18.292 L88.574,18.292 C90.615,18.292 91.595,17.415 91.595,15.681 C91.595,13.927 90.515,13.335 88.474,13.335 ZM69.415,22.169 L64.614,22.169 L63.574,26.045 L60.573,26.045 L65.314,10.948 L68.795,10.948 L73.556,26.045 L70.455,26.045 L69.415,22.169 ZM68.335,18.170 C67.875,16.599 67.475,14.865 67.034,13.233 L66.954,13.233 C66.574,14.885 66.134,16.599 65.694,18.170 L65.254,19.823 L68.775,19.823 L68.335,18.170 Z"/>
<path fill-rule="evenodd"  stroke="rgb(200, 200, 200)" stroke-width="2px" stroke-linecap="butt" stroke-linejoin="miter" fill="none"
 d="M816.998,4.999 L651.998,4.999 C647.704,4.999 647.709,6.133 642.998,11.999 L628.998,29.999 L826.998,29.999 C826.998,29.999 826.998,27.522 826.998,21.999 L826.998,14.999 C826.998,9.476 822.521,4.999 816.998,4.999 Z"/>
<path fill-rule="evenodd"  fill="rgb(200, 200, 200)"
 d="M814.998,29.999 L814.998,5.999 L816.998,5.999 L816.998,29.999 L814.998,29.999 ZM651.998,11.999 C656.710,6.133 656.704,4.999 660.997,4.999 L813.999,4.999 L813.999,29.999 L637.998,29.999 L651.998,11.999 Z"/>
<path fill-rule="evenodd"  fill="rgb(99, 99, 103)"
 d="M772.514,21.169 L765.613,21.169 C765.853,23.046 767.053,24.025 768.713,24.025 C769.634,24.025 770.434,23.740 771.234,23.229 L772.234,25.066 C771.134,25.841 769.714,26.330 768.313,26.330 C765.193,26.330 762.752,24.107 762.752,20.353 C762.752,16.640 765.293,14.335 767.973,14.335 C771.054,14.335 772.654,16.640 772.654,19.802 C772.654,20.353 772.594,20.904 772.514,21.169 ZM768.013,16.660 C766.833,16.660 765.793,17.517 765.573,19.190 L770.134,19.190 C770.134,17.640 769.454,16.660 768.013,16.660 ZM757.933,23.964 C758.294,23.964 758.734,23.842 759.034,23.719 L759.514,25.902 C758.914,26.106 758.133,26.330 757.153,26.330 C754.493,26.330 753.472,24.617 753.472,22.046 L753.472,16.987 L751.892,16.987 L751.892,14.763 L753.613,14.620 L753.953,11.560 L756.413,11.560 L756.413,14.620 L759.174,14.620 L759.174,16.987 L756.413,16.987 L756.413,22.046 C756.413,23.352 756.933,23.964 757.933,23.964 ZM745.434,24.821 L745.374,24.821 C744.394,25.678 743.273,26.330 741.993,26.330 C739.993,26.330 738.673,24.882 738.673,22.944 C738.673,20.496 740.613,19.210 745.114,18.721 C745.074,17.599 744.594,16.742 743.213,16.742 C742.173,16.742 741.173,17.211 740.133,17.823 L739.073,15.844 C740.393,15.008 741.993,14.335 743.754,14.335 C746.594,14.335 748.055,16.069 748.055,19.374 L748.055,26.045 L745.654,26.045 L745.434,24.821 ZM745.114,20.557 C742.393,20.924 741.473,21.679 741.473,22.699 C741.473,23.597 742.093,23.984 742.953,23.984 C743.794,23.984 744.414,23.576 745.114,22.862 L745.114,20.557 ZM733.693,26.330 C731.653,26.330 730.933,24.964 730.933,22.842 L730.933,9.765 L733.854,9.765 L733.854,22.985 C733.854,23.658 734.174,23.882 734.454,23.882 C734.574,23.882 734.654,23.882 734.854,23.842 L735.214,26.065 C734.874,26.208 734.374,26.330 733.693,26.330 ZM720.774,20.679 L718.794,20.679 L718.794,26.045 L715.833,26.045 L715.833,10.948 L720.694,10.948 C723.975,10.948 726.495,12.111 726.495,15.681 C726.495,19.129 723.955,20.679 720.774,20.679 ZM720.474,13.335 L718.794,13.335 L718.794,18.292 L720.574,18.292 C722.615,18.292 723.595,17.415 723.595,15.681 C723.595,13.927 722.515,13.335 720.474,13.335 ZM701.415,22.169 L696.614,22.169 L695.574,26.045 L692.573,26.045 L697.314,10.948 L700.795,10.948 L705.556,26.045 L702.455,26.045 L701.415,22.169 ZM700.335,18.170 C699.875,16.599 699.475,14.865 699.034,13.233 L698.954,13.233 C698.574,14.885 698.134,16.599 697.694,18.170 L697.254,19.823 L700.775,19.823 L700.335,18.170 Z"/>
<path fill-rule="evenodd"  fill="rgb(255, 255, 255)"
 d="M529.100,17.447 C529.100,18.622 529.568,19.172 530.468,19.172 C530.793,19.172 531.189,19.062 531.459,18.952 L531.891,20.916 C531.351,21.100 530.648,21.302 529.766,21.302 C527.371,21.302 526.453,19.760 526.453,17.447 L526.453,12.895 L525.031,12.895 L525.031,10.894 L526.579,10.765 L526.885,8.012 L529.100,8.012 L529.100,10.765 L531.585,10.765 L531.585,12.895 L529.100,12.895 L529.100,17.447 ZM520.695,14.969 C520.695,13.390 520.263,12.821 519.273,12.821 C518.444,12.821 517.922,13.225 517.166,13.978 L517.166,21.045 L514.537,21.045 L514.537,10.765 L516.698,10.765 L516.878,12.124 L516.950,12.124 C517.832,11.243 518.859,10.508 520.227,10.508 C522.406,10.508 523.342,12.050 523.342,14.638 L523.342,21.045 L520.695,21.045 L520.695,14.969 ZM510.398,9.113 C509.480,9.113 508.813,8.489 508.813,7.645 C508.813,6.764 509.480,6.176 510.398,6.176 C511.298,6.176 511.964,6.764 511.964,7.645 C511.964,8.489 511.298,9.113 510.398,9.113 ZM506.169,12.895 C505.377,12.895 504.423,13.427 503.846,14.914 L503.846,21.045 L501.218,21.045 L501.218,10.765 L503.378,10.765 L503.558,12.583 L503.630,12.583 C504.369,11.243 505.449,10.508 506.493,10.508 C507.051,10.508 507.376,10.600 507.682,10.729 L507.214,13.060 C506.871,12.950 506.583,12.895 506.169,12.895 ZM494.685,21.302 C493.803,21.302 492.957,20.898 492.183,20.182 L492.255,21.871 L492.255,24.991 L489.626,24.991 L489.626,10.765 L491.786,10.765 L491.966,11.830 L492.038,11.830 C492.885,11.096 493.929,10.508 495.009,10.508 C497.494,10.508 498.971,12.583 498.971,15.740 C498.971,19.264 496.900,21.302 494.685,21.302 ZM494.253,12.729 C493.569,12.729 492.957,13.078 492.255,13.794 L492.255,18.310 C492.903,18.879 493.551,19.081 494.091,19.081 C495.315,19.081 496.252,18.016 496.252,15.777 C496.252,13.812 495.640,12.729 494.253,12.729 ZM477.027,16.658 C477.243,18.346 478.323,19.228 479.817,19.228 C480.646,19.228 481.366,18.971 482.086,18.512 L482.986,20.164 C481.996,20.861 480.718,21.302 479.457,21.302 C476.649,21.302 474.452,19.301 474.452,15.923 C474.452,12.583 476.739,10.508 479.151,10.508 C481.924,10.508 483.365,12.583 483.365,15.428 C483.365,15.923 483.311,16.419 483.238,16.658 L477.027,16.658 ZM479.187,12.601 C478.125,12.601 477.189,13.372 476.991,14.877 L481.096,14.877 C481.096,13.482 480.484,12.601 479.187,12.601 ZM472.186,12.895 C471.393,12.895 470.439,13.427 469.863,14.914 L469.863,21.045 L467.234,21.045 L467.234,10.765 L469.395,10.765 L469.575,12.583 L469.647,12.583 C470.385,11.243 471.466,10.508 472.510,10.508 C473.068,10.508 473.392,10.600 473.698,10.729 L473.230,13.060 C472.888,12.950 472.600,12.895 472.186,12.895 ZM460.180,21.302 C457.659,21.302 455.336,19.319 455.336,15.923 C455.336,12.491 457.659,10.508 460.180,10.508 C462.700,10.508 465.023,12.491 465.023,15.923 C465.023,19.319 462.700,21.302 460.180,21.302 ZM460.180,12.711 C458.811,12.711 458.037,13.978 458.037,15.923 C458.037,17.851 458.811,19.099 460.180,19.099 C461.548,19.099 462.322,17.851 462.322,15.923 C462.322,13.978 461.548,12.711 460.180,12.711 ZM453.592,8.269 C452.800,8.269 452.367,8.746 452.367,9.884 L452.367,10.765 L454.258,10.765 L454.258,12.895 L452.367,12.895 L452.367,21.045 L449.721,21.045 L449.721,12.895 L448.370,12.895 L448.370,10.894 L449.721,10.784 L449.721,9.939 C449.721,7.792 450.693,6.139 453.232,6.139 C454.006,6.139 454.690,6.323 455.140,6.507 L454.654,8.489 C454.312,8.361 453.916,8.269 453.592,8.269 ZM440.757,16.658 C440.973,18.346 442.054,19.228 443.548,19.228 C444.376,19.228 445.096,18.971 445.817,18.512 L446.717,20.164 C445.727,20.861 444.448,21.302 443.188,21.302 C440.379,21.302 438.182,19.301 438.182,15.923 C438.182,12.583 440.469,10.508 442.882,10.508 C445.655,10.508 447.095,12.583 447.095,15.428 C447.095,15.923 447.041,16.419 446.969,16.658 L440.757,16.658 ZM442.918,12.601 C441.856,12.601 440.919,13.372 440.721,14.877 L444.826,14.877 C444.826,13.482 444.214,12.601 442.918,12.601 ZM432.280,21.302 C431.380,21.302 430.408,20.825 429.579,19.962 L429.525,19.962 L429.291,21.045 L427.221,21.045 L427.221,6.396 L429.849,6.396 L429.849,10.086 L429.795,11.738 C430.588,11.004 431.596,10.508 432.586,10.508 C435.071,10.508 436.565,12.583 436.565,15.721 C436.565,19.264 434.495,21.302 432.280,21.302 ZM431.848,12.729 C431.164,12.729 430.552,13.078 429.849,13.794 L429.849,18.310 C430.480,18.879 431.146,19.081 431.686,19.081 C432.910,19.081 433.847,18.016 433.847,15.777 C433.847,13.812 433.234,12.729 431.848,12.729 ZM414.622,16.658 C414.838,18.346 415.918,19.228 417.412,19.228 C418.241,19.228 418.961,18.971 419.681,18.512 L420.581,20.164 C419.591,20.861 418.313,21.302 417.052,21.302 C414.243,21.302 412.047,19.301 412.047,15.923 C412.047,12.583 414.333,10.508 416.746,10.508 C419.519,10.508 420.959,12.583 420.959,15.428 C420.959,15.923 420.905,16.419 420.833,16.658 L414.622,16.658 ZM416.782,12.601 C415.720,12.601 414.784,13.372 414.586,14.877 L418.691,14.877 C418.691,13.482 418.079,12.601 416.782,12.601 ZM407.495,19.576 L407.423,19.576 C406.559,20.623 405.586,21.302 404.200,21.302 C402.039,21.302 401.103,19.760 401.103,17.190 L401.103,10.765 L403.750,10.765 L403.750,16.841 C403.750,18.438 404.182,18.989 405.154,18.989 C405.983,18.989 406.523,18.622 407.207,17.704 L407.207,10.765 L409.854,10.765 L409.854,21.045 L407.693,21.045 L407.495,19.576 ZM398.026,21.302 C396.190,21.302 395.541,20.072 395.541,18.163 L395.541,6.396 L398.170,6.396 L398.170,18.291 C398.170,18.897 398.458,19.099 398.710,19.099 C398.818,19.099 398.890,19.099 399.070,19.062 L399.394,21.063 C399.088,21.192 398.638,21.302 398.026,21.302 ZM388.361,19.283 L390.071,19.283 C392.502,19.283 393.816,20.054 393.816,21.852 C393.816,23.927 391.710,25.505 388.343,25.505 C385.966,25.505 384.129,24.679 384.129,22.862 C384.129,21.999 384.652,21.265 385.570,20.733 L385.570,20.641 C385.048,20.292 384.652,19.760 384.652,18.915 C384.652,18.145 385.174,17.429 385.768,16.988 L385.768,16.915 C385.084,16.401 384.435,15.428 384.435,14.235 C384.435,11.812 386.362,10.508 388.505,10.508 C389.063,10.508 389.603,10.618 390.017,10.765 L393.654,10.765 L393.654,12.748 L391.926,12.748 C392.196,13.097 392.394,13.666 392.394,14.308 C392.394,16.621 390.665,17.796 388.505,17.796 C388.109,17.796 387.640,17.704 387.208,17.557 C386.920,17.796 386.776,18.034 386.776,18.438 C386.776,18.989 387.172,19.283 388.361,19.283 ZM388.505,16.125 C389.387,16.125 390.071,15.446 390.071,14.235 C390.071,13.023 389.405,12.344 388.505,12.344 C387.604,12.344 386.920,13.023 386.920,14.235 C386.920,15.446 387.622,16.125 388.505,16.125 ZM386.992,21.247 C386.542,21.614 386.326,22.018 386.326,22.440 C386.326,23.303 387.262,23.798 388.739,23.798 C390.251,23.798 391.296,23.119 391.296,22.311 C391.296,21.577 390.701,21.394 389.621,21.394 L388.397,21.394 C387.784,21.394 387.352,21.339 386.992,21.247 ZM371.260,25.175 C370.666,25.175 370.270,25.102 369.874,24.973 L370.360,22.899 C370.540,22.954 370.828,23.027 371.062,23.027 C372.088,23.027 372.665,22.366 372.953,21.467 L373.133,20.861 L369.208,10.765 L371.872,10.765 L373.475,15.538 C373.781,16.456 374.033,17.447 374.321,18.438 L374.411,18.438 C374.645,17.484 374.897,16.492 375.131,15.538 L376.518,10.765 L379.057,10.765 L375.473,21.357 C374.591,23.780 373.511,25.175 371.260,25.175 ZM367.193,21.302 C365.356,21.302 364.708,20.072 364.708,18.163 L364.708,6.396 L367.337,6.396 L367.337,18.291 C367.337,18.897 367.625,19.099 367.877,19.099 C367.985,19.099 368.057,19.099 368.237,19.062 L368.561,21.063 C368.255,21.192 367.805,21.302 367.193,21.302 ZM358.176,21.302 C357.293,21.302 356.447,20.898 355.673,20.182 L355.745,21.871 L355.745,24.991 L353.116,24.991 L353.116,10.765 L355.277,10.765 L355.457,11.830 L355.529,11.830 C356.375,11.096 357.420,10.508 358.500,10.508 C360.985,10.508 362.461,12.583 362.461,15.740 C362.461,19.264 360.390,21.302 358.176,21.302 ZM357.744,12.729 C357.059,12.729 356.447,13.078 355.745,13.794 L355.745,18.310 C356.393,18.879 357.041,19.081 357.582,19.081 C358.806,19.081 359.742,18.016 359.742,15.777 C359.742,13.812 359.130,12.729 357.744,12.729 ZM346.584,21.302 C345.702,21.302 344.855,20.898 344.081,20.182 L344.153,21.871 L344.153,24.991 L341.524,24.991 L341.524,10.765 L343.685,10.765 L343.865,11.830 L343.937,11.830 C344.783,11.096 345.828,10.508 346.908,10.508 C349.393,10.508 350.869,12.583 350.869,15.740 C350.869,19.264 348.798,21.302 346.584,21.302 ZM346.152,12.729 C345.467,12.729 344.855,13.078 344.153,13.794 L344.153,18.310 C344.801,18.879 345.449,19.081 345.990,19.081 C347.214,19.081 348.150,18.016 348.150,15.777 C348.150,13.812 347.538,12.729 346.152,12.729 ZM336.468,19.943 L336.414,19.943 C335.532,20.714 334.524,21.302 333.371,21.302 C331.571,21.302 330.382,19.999 330.382,18.255 C330.382,16.052 332.129,14.895 336.180,14.455 C336.144,13.445 335.712,12.674 334.470,12.674 C333.533,12.674 332.633,13.097 331.697,13.647 L330.742,11.867 C331.931,11.114 333.371,10.508 334.956,10.508 C337.512,10.508 338.827,12.069 338.827,15.042 L338.827,21.045 L336.666,21.045 L336.468,19.943 ZM336.180,16.107 C333.731,16.437 332.903,17.117 332.903,18.034 C332.903,18.842 333.461,19.191 334.236,19.191 C334.992,19.191 335.550,18.824 336.180,18.181 L336.180,16.107 ZM318.287,16.658 C318.503,18.346 319.584,19.228 321.078,19.228 C321.906,19.228 322.627,18.971 323.347,18.512 L324.247,20.164 C323.257,20.861 321.978,21.302 320.718,21.302 C317.909,21.302 315.713,19.301 315.713,15.923 C315.713,12.583 317.999,10.508 320.412,10.508 C323.185,10.508 324.625,12.583 324.625,15.428 C324.625,15.923 324.571,16.419 324.499,16.658 L318.287,16.658 ZM320.448,12.601 C319.386,12.601 318.449,13.372 318.251,14.877 L322.357,14.877 C322.357,13.482 321.744,12.601 320.448,12.601 ZM314.329,18.053 C314.329,19.852 312.943,21.302 310.314,21.302 C308.963,21.302 307.469,20.696 306.479,19.852 L307.685,18.163 C308.585,18.879 309.449,19.283 310.386,19.283 C311.394,19.283 311.844,18.842 311.844,18.200 C311.844,17.429 310.800,17.080 309.738,16.658 C308.459,16.162 306.983,15.373 306.983,13.666 C306.983,11.812 308.459,10.508 310.728,10.508 C312.204,10.508 313.321,11.132 314.167,11.775 L312.979,13.409 C312.258,12.895 311.556,12.527 310.800,12.527 C309.900,12.527 309.467,12.931 309.467,13.519 C309.467,14.271 310.458,14.547 311.520,14.951 C312.853,15.464 314.329,16.144 314.329,18.053 ZM302.377,19.943 L302.323,19.943 C301.440,20.714 300.432,21.302 299.280,21.302 C297.479,21.302 296.291,19.999 296.291,18.255 C296.291,16.052 298.037,14.895 302.089,14.455 C302.053,13.445 301.621,12.674 300.378,12.674 C299.442,12.674 298.542,13.097 297.605,13.647 L296.651,11.867 C297.839,11.114 299.280,10.508 300.864,10.508 C303.421,10.508 304.735,12.069 304.735,15.042 L304.735,21.045 L302.575,21.045 L302.377,19.943 ZM302.089,16.107 C299.640,16.437 298.812,17.117 298.812,18.034 C298.812,18.842 299.370,19.191 300.144,19.191 C300.900,19.191 301.458,18.824 302.089,18.181 L302.089,16.107 ZM288.282,16.658 C288.498,18.346 289.578,19.228 291.073,19.228 C291.901,19.228 292.621,18.971 293.341,18.512 L294.242,20.164 C293.251,20.861 291.973,21.302 290.713,21.302 C287.904,21.302 285.707,19.301 285.707,15.923 C285.707,12.583 287.994,10.508 290.406,10.508 C293.179,10.508 294.620,12.583 294.620,15.428 C294.620,15.923 294.566,16.419 294.494,16.658 L288.282,16.658 ZM290.442,12.601 C289.380,12.601 288.444,13.372 288.246,14.877 L292.351,14.877 C292.351,13.482 291.739,12.601 290.442,12.601 ZM283.152,21.302 C281.316,21.302 280.667,20.072 280.667,18.163 L280.667,6.396 L283.296,6.396 L283.296,18.291 C283.296,18.897 283.584,19.099 283.836,19.099 C283.944,19.099 284.016,19.099 284.197,19.062 L284.521,21.063 C284.215,21.192 283.764,21.302 283.152,21.302 ZM274.135,21.302 C273.253,21.302 272.406,20.898 271.632,20.182 L271.704,21.871 L271.704,24.991 L269.076,24.991 L269.076,10.765 L271.236,10.765 L271.416,11.830 L271.488,11.830 C272.334,11.096 273.379,10.508 274.459,10.508 C276.944,10.508 278.420,12.583 278.420,15.740 C278.420,19.264 276.350,21.302 274.135,21.302 ZM273.703,12.729 C273.019,12.729 272.406,13.078 271.704,13.794 L271.704,18.310 C272.352,18.879 273.001,19.081 273.541,19.081 C274.765,19.081 275.701,18.016 275.701,15.777 C275.701,13.812 275.089,12.729 273.703,12.729 ZM511.694,21.045 L509.066,21.045 L509.066,10.765 L511.694,10.765 L511.694,21.045 Z"/>
<path fill-rule="evenodd"  fill="rgb(255, 255, 255)"
 d="M548.484,25.012 L561.859,15.357 C562.000,15.256 562.024,15.060 561.913,14.930 L555.224,7.112 C555.113,6.982 554.912,6.972 554.787,7.089 L538.071,22.728 C537.956,22.836 537.946,23.012 538.047,23.131 L539.568,24.907 L541.942,24.936 L540.511,23.264 C540.409,23.145 540.419,22.969 540.535,22.861 L542.332,21.180 C542.458,21.062 542.658,21.074 542.769,21.203 L545.601,24.514 C545.713,24.644 545.689,24.840 545.549,24.940 L545.485,24.987 L548.484,25.012 ZM559.248,15.051 L547.486,23.542 C547.358,23.634 547.180,23.613 547.078,23.495 L544.049,19.954 C543.947,19.836 543.958,19.659 544.072,19.552 L554.640,9.664 C554.767,9.547 554.967,9.558 555.078,9.688 L559.302,14.624 C559.413,14.754 559.388,14.950 559.248,15.051 Z"/>
</svg>
