<svg width="40" height="40" viewBox="0 0 40 40" fill="none" xmlns="http://www.w3.org/2000/svg">
<path d="M20.0078 33V29H21.0078V33H20.0078ZM20.0078 27V23H21.0078V27H20.0078ZM29.0078 21V20H33.0078V21H29.0078ZM23.0078 21V20H27.0078V21H23.0078ZM20.0078 21V20H21.0078V21H20.0078ZM14.0078 21V20H18.0078V21H14.0078ZM8.00781 21V20H12.0078V21H8.00781ZM20.0078 18V14H21.0078V18H20.0078ZM20.0078 12V8H21.0078V12H20.0078Z" fill="#CBCBCB"/>
<path d="M8.32472 13.5516C8.519 13.4752 8.68566 13.3418 8.80289 13.169C8.92011 12.9963 8.98243 12.7921 8.98169 12.5833V12.5775C8.98278 12.3687 8.9208 12.1645 8.80387 11.9915C8.68694 11.8185 8.5205 11.6849 8.32635 11.6081C8.06444 11.5035 7.9339 11.2035 8.0354 10.9395C8.20972 10.486 8.45518 10.0633 8.76255 9.68711C8.84882 9.58161 8.97308 9.51421 9.10856 9.49942C9.24404 9.48464 9.3799 9.52366 9.4869 9.60807C9.65052 9.73728 9.84914 9.81441 10.0571 9.8295C10.265 9.84459 10.4727 9.79694 10.6532 9.69271C10.8336 9.58941 10.9787 9.43435 11.0699 9.2476C11.1611 9.06085 11.1941 8.85103 11.1646 8.64531C11.1452 8.50946 11.18 8.37139 11.2615 8.261C11.3431 8.15061 11.4648 8.07677 11.6004 8.05547C12.079 7.98073 12.5663 7.98152 13.0446 8.05781C13.1119 8.06846 13.1763 8.09236 13.2342 8.12812C13.2922 8.16389 13.3424 8.2108 13.382 8.26615C13.462 8.37655 13.4957 8.51381 13.476 8.6487C13.4549 8.79638 13.4658 8.94686 13.5079 9.08997C13.55 9.23308 13.6223 9.36549 13.72 9.47825C13.8176 9.59102 13.9384 9.68151 14.074 9.74362C14.2096 9.80573 14.357 9.83801 14.5062 9.83828C14.7398 9.83799 14.9667 9.75965 15.1507 9.61569C15.2579 9.53147 15.394 9.49275 15.5295 9.50789C15.665 9.52303 15.7892 9.5908 15.8752 9.69661C16.1815 10.0735 16.4258 10.4969 16.5989 10.9507C16.6997 11.2149 16.5683 11.5145 16.3059 11.6185C16.112 11.6954 15.9456 11.8288 15.8284 12.0013C15.7111 12.1739 15.6483 12.3776 15.6481 12.5862C15.6479 12.7948 15.7104 12.9987 15.8274 13.1714C15.9444 13.3442 16.1105 13.4778 16.3043 13.5551C16.5663 13.6592 16.6971 13.9593 16.5958 14.2234C16.4219 14.677 16.1768 15.1 15.8697 15.4764C15.8269 15.5292 15.7741 15.573 15.7143 15.6052C15.6545 15.6374 15.5889 15.6574 15.5213 15.6641C15.386 15.6781 15.2506 15.6388 15.1437 15.5546C14.9802 15.4263 14.782 15.3499 14.5746 15.3351C14.3672 15.3204 14.1602 15.368 13.9801 15.4718C13.8 15.5756 13.6551 15.731 13.564 15.9178C13.4728 16.1047 13.4397 16.3145 13.4688 16.5204C13.4884 16.6562 13.4537 16.7943 13.3722 16.9048C13.2907 17.0153 13.169 17.0892 13.0334 17.1106C12.556 17.1856 12.0698 17.1853 11.5924 17.11C11.4568 17.0884 11.3352 17.0144 11.2538 16.9038C11.1724 16.7933 11.1378 16.6551 11.1575 16.5193C11.1873 16.3136 11.1547 16.1036 11.0639 15.9167C10.9731 15.7297 10.8281 15.5743 10.648 15.4707C10.4681 15.3659 10.2609 15.3176 10.0532 15.3321C9.84553 15.3466 9.64703 15.4232 9.48351 15.5521C9.37654 15.6363 9.24093 15.6755 9.10552 15.6613C9.03793 15.6545 8.97236 15.6344 8.9126 15.6021C8.85284 15.5698 8.80007 15.526 8.75734 15.4732C8.45068 15.0966 8.206 14.6735 8.03254 14.2199C7.93156 13.9555 8.06261 13.6559 8.32472 13.5516ZM10.3145 12.584C10.3145 13.2732 10.6532 14.584 12.3145 14.584C13.6467 14.584 14.3145 13.7005 14.3145 12.584C14.3145 11.4675 13.564 10.584 12.3145 10.584C11.065 10.584 10.3145 11.584 10.3145 12.584Z" fill="#CBCBCB"/>
<path d="M8.32472 29.5516C8.519 29.4752 8.68566 29.3418 8.80289 29.169C8.92011 28.9963 8.98243 28.7921 8.98169 28.5833V28.5775C8.98278 28.3687 8.9208 28.1645 8.80387 27.9915C8.68694 27.8185 8.5205 27.6849 8.32635 27.6081C8.06444 27.5035 7.9339 27.2035 8.0354 26.9395C8.20972 26.486 8.45518 26.0633 8.76255 25.6871C8.84882 25.5816 8.97308 25.5142 9.10856 25.4994C9.24404 25.4846 9.3799 25.5237 9.4869 25.6081C9.65052 25.7373 9.84914 25.8144 10.0571 25.8295C10.265 25.8446 10.4727 25.7969 10.6532 25.6927C10.8336 25.5894 10.9787 25.4343 11.0699 25.2476C11.1611 25.0609 11.1941 24.851 11.1646 24.6453C11.1452 24.5095 11.18 24.3714 11.2615 24.261C11.3431 24.1506 11.4648 24.0768 11.6004 24.0555C12.079 23.9807 12.5663 23.9815 13.0446 24.0578C13.1119 24.0685 13.1763 24.0924 13.2342 24.1281C13.2922 24.1639 13.3424 24.2108 13.382 24.2661C13.462 24.3766 13.4957 24.5138 13.476 24.6487C13.4549 24.7964 13.4658 24.9469 13.5079 25.09C13.55 25.2331 13.6223 25.3655 13.72 25.4783C13.8176 25.591 13.9384 25.6815 14.074 25.7436C14.2096 25.8057 14.357 25.838 14.5062 25.8383C14.7398 25.838 14.9667 25.7596 15.1507 25.6157C15.2579 25.5315 15.394 25.4928 15.5295 25.5079C15.665 25.523 15.7892 25.5908 15.8752 25.6966C16.1815 26.0735 16.4258 26.4969 16.5989 26.9507C16.6997 27.2149 16.5683 27.5145 16.3059 27.6185C16.112 27.6954 15.9456 27.8288 15.8284 28.0013C15.7111 28.1739 15.6483 28.3776 15.6481 28.5862C15.6479 28.7948 15.7104 28.9987 15.8274 29.1714C15.9444 29.3442 16.1105 29.4778 16.3043 29.5551C16.5663 29.6592 16.6971 29.9593 16.5958 30.2234C16.4219 30.677 16.1768 31.1 15.8697 31.4764C15.8269 31.5292 15.7741 31.573 15.7143 31.6052C15.6545 31.6374 15.5889 31.6574 15.5213 31.6641C15.386 31.6781 15.2506 31.6388 15.1437 31.5546C14.9802 31.4263 14.782 31.3499 14.5746 31.3351C14.3672 31.3204 14.1602 31.368 13.9801 31.4718C13.8 31.5756 13.6551 31.731 13.564 31.9178C13.4728 32.1047 13.4397 32.3145 13.4688 32.5204C13.4884 32.6562 13.4537 32.7943 13.3722 32.9048C13.2907 33.0153 13.169 33.0892 13.0334 33.1106C12.556 33.1856 12.0698 33.1854 11.5924 33.11C11.4568 33.0884 11.3352 33.0144 11.2538 32.9038C11.1724 32.7933 11.1378 32.6551 11.1575 32.5193C11.1873 32.3136 11.1547 32.1036 11.0639 31.9167C10.9731 31.7297 10.8281 31.5743 10.648 31.4707C10.4681 31.3659 10.2609 31.3176 10.0532 31.3321C9.84553 31.3466 9.64703 31.4232 9.48351 31.5521C9.37654 31.6363 9.24093 31.6755 9.10552 31.6613C9.03793 31.6545 8.97236 31.6344 8.9126 31.6021C8.85284 31.5698 8.80007 31.526 8.75734 31.4732C8.45068 31.0966 8.206 30.6735 8.03254 30.2199C7.93156 29.9555 8.06261 29.6559 8.32472 29.5516ZM10.3145 28.584C10.3145 29.2732 10.6532 30.584 12.3145 30.584C13.6467 30.584 14.3145 29.7005 14.3145 28.584C14.3145 27.4675 13.564 26.584 12.3145 26.584C11.065 26.584 10.3145 27.584 10.3145 28.584Z" fill="#CBCBCB"/>
<path d="M24.3247 13.5516C24.519 13.4752 24.6857 13.3418 24.8029 13.169C24.9201 12.9963 24.9824 12.7921 24.9817 12.5833V12.5775C24.9828 12.3687 24.9208 12.1645 24.8039 11.9915C24.6869 11.8185 24.5205 11.6849 24.3264 11.6081C24.0644 11.5035 23.9339 11.2035 24.0354 10.9395C24.2097 10.486 24.4552 10.0633 24.7625 9.68711C24.8488 9.58161 24.9731 9.51421 25.1086 9.49942C25.244 9.48464 25.3799 9.52366 25.4869 9.60807C25.6505 9.73728 25.8491 9.81441 26.0571 9.8295C26.265 9.84459 26.4727 9.79694 26.6532 9.69271C26.8336 9.58941 26.9787 9.43435 27.0699 9.2476C27.1611 9.06085 27.1941 8.85103 27.1646 8.64531C27.1452 8.50946 27.18 8.37139 27.2615 8.261C27.3431 8.15061 27.4648 8.07677 27.6004 8.05547C28.079 7.98073 28.5663 7.98152 29.0446 8.05781C29.1119 8.06846 29.1763 8.09236 29.2342 8.12812C29.2922 8.16389 29.3424 8.2108 29.382 8.26615C29.462 8.37655 29.4957 8.51381 29.476 8.6487C29.4549 8.79638 29.4658 8.94686 29.5079 9.08997C29.55 9.23308 29.6223 9.36549 29.72 9.47825C29.8176 9.59102 29.9384 9.68151 30.074 9.74362C30.2096 9.80573 30.357 9.83801 30.5062 9.83828C30.7398 9.83799 30.9667 9.75965 31.1507 9.61569C31.2579 9.53147 31.394 9.49275 31.5295 9.50789C31.665 9.52303 31.7892 9.5908 31.8752 9.69661C32.1815 10.0735 32.4258 10.4969 32.5989 10.9507C32.6997 11.2149 32.5683 11.5145 32.3059 11.6185C32.112 11.6954 31.9456 11.8288 31.8284 12.0013C31.7111 12.1739 31.6483 12.3776 31.6481 12.5862C31.6479 12.7949 31.7104 12.9987 31.8274 13.1714C31.9444 13.3442 32.1105 13.4778 32.3043 13.5551C32.5663 13.6592 32.6971 13.9593 32.5958 14.2234C32.4219 14.677 32.1768 15.1 31.8697 15.4764C31.8269 15.5292 31.7741 15.573 31.7143 15.6052C31.6545 15.6374 31.5889 15.6574 31.5213 15.6641C31.386 15.6781 31.2506 15.6388 31.1437 15.5546C30.9802 15.4263 30.782 15.3499 30.5746 15.3351C30.3672 15.3204 30.1602 15.368 29.9801 15.4718C29.8 15.5756 29.6551 15.731 29.564 15.9178C29.4728 16.1047 29.4397 16.3145 29.4688 16.5204C29.4884 16.6562 29.4537 16.7943 29.3722 16.9048C29.2907 17.0153 29.169 17.0892 29.0334 17.1106C28.556 17.1856 28.0698 17.1854 27.5924 17.11C27.4568 17.0884 27.3352 17.0144 27.2538 16.9038C27.1724 16.7933 27.1378 16.6551 27.1575 16.5193C27.1873 16.3136 27.1547 16.1036 27.0639 15.9167C26.9731 15.7297 26.8281 15.5743 26.648 15.4707C26.4681 15.3659 26.2609 15.3176 26.0532 15.3321C25.8455 15.3466 25.647 15.4232 25.4835 15.5521C25.3765 15.6363 25.2409 15.6755 25.1055 15.6613C25.0379 15.6545 24.9724 15.6344 24.9126 15.6021C24.8528 15.5698 24.8001 15.526 24.7573 15.4732C24.4507 15.0966 24.206 14.6735 24.0325 14.2199C23.9316 13.9555 24.0626 13.6559 24.3247 13.5516ZM26.3145 12.584C26.3145 13.2732 26.6532 14.584 28.3145 14.584C29.6467 14.584 30.3145 13.7005 30.3145 12.584C30.3145 11.4675 29.564 10.584 28.3145 10.584C27.065 10.584 26.3145 11.584 26.3145 12.584Z" fill="#17CC5F"/>
<path d="M24.3247 29.5516C24.519 29.4752 24.6857 29.3418 24.8029 29.169C24.9201 28.9963 24.9824 28.7921 24.9817 28.5833V28.5775C24.9828 28.3687 24.9208 28.1645 24.8039 27.9915C24.6869 27.8185 24.5205 27.6849 24.3264 27.6081C24.0644 27.5035 23.9339 27.2035 24.0354 26.9395C24.2097 26.486 24.4552 26.0633 24.7625 25.6871C24.8488 25.5816 24.9731 25.5142 25.1086 25.4994C25.244 25.4846 25.3799 25.5237 25.4869 25.6081C25.6505 25.7373 25.8491 25.8144 26.0571 25.8295C26.265 25.8446 26.4727 25.7969 26.6532 25.6927C26.8336 25.5894 26.9787 25.4343 27.0699 25.2476C27.1611 25.0609 27.1941 24.851 27.1646 24.6453C27.1452 24.5095 27.18 24.3714 27.2615 24.261C27.3431 24.1506 27.4648 24.0768 27.6004 24.0555C28.079 23.9807 28.5663 23.9815 29.0446 24.0578C29.1119 24.0685 29.1763 24.0924 29.2342 24.1281C29.2922 24.1639 29.3424 24.2108 29.382 24.2661C29.462 24.3766 29.4957 24.5138 29.476 24.6487C29.4549 24.7964 29.4658 24.9469 29.5079 25.09C29.55 25.2331 29.6223 25.3655 29.72 25.4783C29.8176 25.591 29.9384 25.6815 30.074 25.7436C30.2096 25.8057 30.357 25.838 30.5062 25.8383C30.7398 25.838 30.9667 25.7596 31.1507 25.6157C31.2579 25.5315 31.394 25.4928 31.5295 25.5079C31.665 25.523 31.7892 25.5908 31.8752 25.6966C32.1815 26.0735 32.4258 26.4969 32.5989 26.9507C32.6997 27.2149 32.5683 27.5145 32.3059 27.6185C32.112 27.6954 31.9456 27.8288 31.8284 28.0013C31.7111 28.1739 31.6483 28.3776 31.6481 28.5862C31.6479 28.7948 31.7104 28.9987 31.8274 29.1714C31.9444 29.3442 32.1105 29.4778 32.3043 29.5551C32.5663 29.6592 32.6971 29.9593 32.5958 30.2234C32.4219 30.677 32.1768 31.1 31.8697 31.4764C31.8269 31.5292 31.7741 31.573 31.7143 31.6052C31.6545 31.6374 31.5889 31.6574 31.5213 31.6641C31.386 31.6781 31.2506 31.6388 31.1437 31.5546C30.9802 31.4263 30.782 31.3499 30.5746 31.3351C30.3672 31.3204 30.1602 31.368 29.9801 31.4718C29.8 31.5756 29.6551 31.731 29.564 31.9178C29.4728 32.1047 29.4397 32.3145 29.4688 32.5204C29.4884 32.6562 29.4537 32.7943 29.3722 32.9048C29.2907 33.0153 29.169 33.0892 29.0334 33.1106C28.556 33.1856 28.0698 33.1854 27.5924 33.11C27.4568 33.0884 27.3352 33.0144 27.2538 32.9038C27.1724 32.7933 27.1378 32.6551 27.1575 32.5193C27.1873 32.3136 27.1547 32.1036 27.0639 31.9167C26.9731 31.7297 26.8281 31.5743 26.648 31.4707C26.4681 31.3659 26.2609 31.3176 26.0532 31.3321C25.8455 31.3466 25.647 31.4232 25.4835 31.5521C25.3765 31.6363 25.2409 31.6755 25.1055 31.6613C25.0379 31.6545 24.9724 31.6344 24.9126 31.6021C24.8528 31.5698 24.8001 31.526 24.7573 31.4732C24.4507 31.0966 24.206 30.6735 24.0325 30.2199C23.9316 29.9555 24.0626 29.6559 24.3247 29.5516ZM26.3145 28.584C26.3145 29.2732 26.6532 30.584 28.3145 30.584C29.6467 30.584 30.3145 29.7005 30.3145 28.584C30.3145 27.4675 29.564 26.584 28.3145 26.584C27.065 26.584 26.3145 27.584 26.3145 28.584Z" fill="#CBCBCB"/>
</svg>
