<svg width="40" height="40" viewBox="0 0 40 40" fill="none" xmlns="http://www.w3.org/2000/svg">
<path d="M20.0078 33V29H21.0078V33H20.0078ZM20.0078 27V23H21.0078V27H20.0078ZM29.0078 21V20H33.0078V21H29.0078ZM23.0078 21V20H27.0078V21H23.0078ZM20.0078 21V20H21.0078V21H20.0078ZM14.0078 21V20H18.0078V21H14.0078ZM8.00781 21V20H12.0078V21H8.00781ZM20.0078 18V14H21.0078V18H20.0078ZM20.0078 12V8H21.0078V12H20.0078Z" fill="#333333"/>
<rect x="8.75" y="8.75" width="8.5" height="8.5" rx="1.25" stroke="#333333" stroke-width="1.5"/>
<rect x="8.75" y="23.75" width="8.5" height="8.5" rx="1.25" stroke="#333333" stroke-width="1.5"/>
<rect x="23.75" y="23.75" width="8.5" height="8.5" rx="1.25" stroke="#333333" stroke-width="1.5"/>
<rect x="23.75" y="8.75" width="8.5" height="8.5" rx="1.25" stroke="#17CC5F" stroke-width="1.5"/>
</svg>
