<svg 
 xmlns="http://www.w3.org/2000/svg"
 xmlns:xlink="http://www.w3.org/1999/xlink"
 width="25.5px" height="25.5px">
<path fill-rule="evenodd"  fill="rgb(51, 51, 51)"
 d="M17.162,5.498 C18.483,5.498 19.495,6.509 19.495,7.831 L19.495,17.164 C19.495,18.487 18.483,19.498 17.162,19.498 L7.828,19.498 C6.506,19.498 5.495,18.487 5.495,17.164 L5.495,7.831 C5.495,6.509 6.506,5.498 7.828,5.498 L17.162,5.498 ZM17.495,6.498 L7.494,6.498 C7.028,6.498 6.494,7.031 6.494,7.498 L6.494,17.498 C6.494,17.965 7.028,18.498 7.494,18.498 L17.495,18.498 C17.961,18.498 18.494,17.965 18.494,17.498 L18.494,7.498 C18.494,7.031 17.961,6.498 17.495,6.498 L17.495,6.498 ZM15.605,13.276 C15.916,13.276 16.226,13.509 16.226,13.898 C16.226,14.209 15.994,14.442 15.760,14.442 L10.782,14.442 L11.717,15.376 C11.949,15.609 11.949,15.920 11.793,16.154 L11.717,16.231 C11.483,16.465 11.171,16.465 10.938,16.309 L10.938,16.231 L8.995,14.287 C8.605,13.898 8.838,13.354 9.305,13.276 L15.605,13.276 ZM13.972,8.687 L15.994,10.709 C16.305,11.020 16.149,11.642 15.682,11.720 L9.383,11.720 C9.071,11.720 8.760,11.487 8.760,11.098 C8.760,10.787 8.995,10.554 9.226,10.554 L14.128,10.554 L13.273,9.620 C13.038,9.387 13.038,9.076 13.194,8.842 L13.273,8.765 C13.427,8.609 13.816,8.532 13.972,8.687 L13.972,8.687 Z"/>
<path fill-rule="evenodd"  stroke="rgb(23, 204, 95)" stroke-width="1px" stroke-linecap="butt" stroke-linejoin="miter" fill="none"
 d="M5.500,0.500 L19.500,0.500 C22.261,0.500 24.500,2.739 24.500,5.500 L24.500,19.500 C24.500,22.261 22.261,24.500 19.500,24.500 L5.500,24.500 C2.739,24.500 0.500,22.261 0.500,19.500 L0.500,5.500 C0.500,2.739 2.739,0.500 5.500,0.500 Z"/>
</svg>
