<svg 
 xmlns="http://www.w3.org/2000/svg"
 xmlns:xlink="http://www.w3.org/1999/xlink"
 width="24px" height="24px">
<path fill-rule="evenodd"  fill="rgb(255, 255, 255)"
 d="M18.000,8.000 L9.000,8.000 L9.000,6.000 L18.000,6.000 C18.552,6.000 19.000,6.448 19.000,7.000 C19.000,7.552 18.552,8.000 18.000,8.000 ZM5.000,17.000 C5.000,16.448 5.448,16.000 6.000,16.000 L8.000,16.000 L8.000,18.000 L6.000,18.000 C5.448,18.000 5.000,17.552 5.000,17.000 ZM5.000,12.000 C5.000,11.448 5.448,11.000 6.000,11.000 L8.000,11.000 L8.000,13.000 L6.000,13.000 C5.448,13.000 5.000,12.552 5.000,12.000 ZM5.000,7.000 C5.000,6.448 5.448,6.000 6.000,6.000 L8.000,6.000 L8.000,8.000 L6.000,8.000 C5.448,8.000 5.000,7.552 5.000,7.000 ZM18.000,12.000 C18.000,12.552 17.552,13.000 17.000,13.000 L9.000,13.000 L9.000,11.000 L17.000,11.000 C17.552,11.000 18.000,11.448 18.000,12.000 ZM17.000,17.000 C17.000,17.552 16.552,18.000 16.000,18.000 L9.000,18.000 L9.000,16.000 L16.000,16.000 C16.552,16.000 17.000,16.448 17.000,17.000 Z"/>
<path fill-rule="evenodd"  fill="rgb(23, 204, 95)"
 d="M19.000,24.000 L5.000,24.000 C2.239,24.000 -0.000,21.761 -0.000,19.000 L-0.000,5.000 C-0.000,2.239 2.239,-0.000 5.000,-0.000 L19.000,-0.000 C21.761,-0.000 24.000,2.239 24.000,5.000 L24.000,19.000 C24.000,21.761 21.761,24.000 19.000,24.000 ZM23.000,5.500 C23.000,3.015 20.985,1.000 18.500,1.000 L5.500,1.000 C3.015,1.000 1.000,3.015 1.000,5.500 L1.000,18.500 C1.000,20.985 3.015,23.000 5.500,23.000 L18.500,23.000 C20.985,23.000 23.000,20.985 23.000,18.500 L23.000,5.500 Z"/>
</svg>
