<svg 
 xmlns="http://www.w3.org/2000/svg"
 xmlns:xlink="http://www.w3.org/1999/xlink"
 width="24px" height="24px">
<path fill-rule="evenodd"  fill="none"
 d="M2.989,-0.005 L20.989,-0.005 C22.645,-0.005 23.988,1.338 23.988,2.995 L23.988,20.996 C23.988,22.652 22.645,23.995 20.989,23.995 L2.989,23.995 C1.332,23.995 -0.011,22.652 -0.011,20.996 L-0.011,2.995 C-0.011,1.338 1.332,-0.005 2.989,-0.005 Z"/>
<path fill-rule="evenodd"  fill="rgb(255, 255, 255)"
 d="M19.889,10.011 L17.675,13.842 C17.527,14.137 17.232,14.284 16.937,14.284 L14.871,14.284 L15.314,14.579 L14.871,15.316 L15.166,15.758 L15.756,15.168 L16.347,15.611 L15.756,16.200 L16.347,16.790 L14.280,19.000 L13.690,18.410 L13.100,19.000 L12.509,18.410 L12.805,17.674 L12.509,17.379 L11.919,17.968 L11.329,17.379 L11.772,16.642 L11.329,16.200 L10.738,16.790 L10.296,16.200 L10.738,15.611 L10.296,15.168 L9.705,15.758 L9.115,15.168 L9.705,14.432 L9.262,13.989 L8.672,14.579 L8.082,13.989 L8.377,13.400 L8.082,12.958 L7.492,13.547 L6.901,12.958 L6.458,13.547 C6.163,13.842 5.573,13.842 5.425,13.547 L4.245,12.368 C3.949,12.074 3.949,11.632 4.097,11.337 L8.525,6.916 C8.967,6.621 9.410,6.621 9.705,6.916 L10.443,7.653 L11.772,5.295 C11.919,5.147 12.214,5.000 12.509,5.000 L16.937,5.000 C17.232,5.000 17.527,5.147 17.675,5.295 L19.889,9.274 C20.036,9.421 20.036,9.716 19.889,10.011 ZM14.133,17.821 L15.166,16.790 L14.428,16.053 L13.690,17.526 L14.133,17.821 ZM14.428,14.284 L13.838,14.284 L14.133,14.579 L14.428,14.284 ZM13.247,16.937 L13.985,15.611 L13.395,15.021 L12.657,16.495 L13.247,16.937 ZM12.067,15.905 L12.805,14.432 L12.214,13.842 L11.476,15.316 L12.067,15.905 ZM11.034,14.726 L11.772,13.400 L11.181,12.811 L10.443,14.284 L11.034,14.726 ZM8.820,12.516 L9.558,11.042 L9.115,10.747 L8.082,11.779 L8.820,12.516 ZM10.000,8.242 L9.410,7.653 C9.262,7.505 8.967,7.505 8.820,7.653 L4.982,11.484 C4.835,11.632 4.835,11.926 4.982,12.074 L5.573,12.663 C5.720,12.811 6.016,12.811 6.163,12.663 L10.000,8.832 C10.148,8.684 10.148,8.389 10.000,8.242 ZM9.410,13.105 L9.853,13.695 L10.738,12.221 L10.148,11.632 L9.410,13.105 ZM16.937,5.737 L12.509,5.737 L11.034,8.242 C11.181,8.537 11.181,8.832 10.886,9.126 L10.296,9.716 L10.886,10.158 L10.738,10.453 L11.034,11.042 L11.329,10.747 L11.919,11.189 L11.624,11.926 L11.772,12.221 L11.919,12.368 L12.509,11.779 L12.952,12.368 L12.657,13.105 L12.952,13.547 L13.543,12.958 L14.133,13.547 L16.937,13.547 L19.151,9.568 L16.937,5.737 ZM14.723,11.926 C13.395,11.926 12.362,10.895 12.362,9.568 C12.362,8.242 13.395,7.210 14.723,7.210 C16.052,7.210 17.085,8.242 17.085,9.568 C17.085,10.895 16.052,11.926 14.723,11.926 ZM14.723,7.947 C13.838,7.947 13.100,8.684 13.100,9.568 C13.100,10.453 13.838,11.189 14.723,11.189 C15.609,11.189 16.199,10.453 16.347,9.568 C16.347,8.684 15.609,7.947 14.723,7.947 Z"/>
</svg>
