<svg width="40" height="40" viewBox="0 0 40 40" fill="none" xmlns="http://www.w3.org/2000/svg">
<path d="M22.6699 8.75L22.6705 8.75C22.7473 8.74994 22.8235 8.76503 22.8948 8.79451C22.966 8.82397 23.0307 8.86716 23.0851 8.92152C23.1395 8.97591 23.1827 9.04044 23.2122 9.1116C23.2416 9.18272 23.2568 9.25905 23.2568 9.33606V22.663V22.6635C23.2569 22.7404 23.2418 22.8167 23.2123 22.8881C23.1828 22.9592 23.1397 23.0238 23.0851 23.0783C23.0306 23.1328 22.966 23.176 22.8949 23.2054C22.8235 23.235 22.7473 23.2501 22.6705 23.25H22.6699H9.34431C9.18883 23.2499 9.03978 23.1881 8.9297 23.0779C8.8196 22.9677 8.75781 22.8184 8.75781 22.663V9.33606C8.75781 9.18071 8.81955 9.03163 8.9295 8.92169C9.0395 8.81169 9.18848 8.75 9.34375 8.75L22.6699 8.75Z" stroke="#CBCBCB" stroke-width="1.5"/>
<path d="M30.6709 16.75L30.6715 16.75C30.7486 16.7499 30.8248 16.7651 30.8959 16.7945C30.967 16.8239 31.0316 16.867 31.0861 16.9216C31.1405 16.9759 31.1837 17.0407 31.2132 17.112C31.2427 17.1833 31.2579 17.2596 31.2578 17.3365V17.337L31.2578 30.6639L31.2578 30.6651C31.2579 30.7418 31.2429 30.8181 31.2134 30.8894C31.184 30.9606 31.1408 31.0253 31.0864 31.0797C31.0317 31.1343 30.9672 31.1774 30.8964 31.2067C30.8253 31.236 30.7491 31.2511 30.672 31.251H30.6709H17.3447C17.1891 31.251 17.0399 31.1892 16.9297 31.079C16.8197 30.969 16.7578 30.8196 16.7578 30.6639V17.337C16.7578 17.1813 16.8197 17.032 16.9297 16.9219C17.0399 16.8118 17.1891 16.75 17.3447 16.75L30.6709 16.75Z" stroke="#CBCBCB" stroke-width="1.5"/>
<path d="M23.2578 22.6639V22.6645C23.2579 22.7414 23.2427 22.8177 23.2132 22.889C23.1838 22.9601 23.1406 23.0248 23.0861 23.0793C23.0316 23.1338 22.967 23.177 22.8959 23.2064C22.8245 23.2359 22.7483 23.251 22.6715 23.251H22.6709H17.3447C17.1891 23.251 17.0399 23.1892 16.9297 23.079C16.8197 22.969 16.7578 22.8196 16.7578 22.6639V17.337C16.7578 17.1813 16.8197 17.032 16.9297 16.9219C17.0399 16.8118 17.1891 16.75 17.3447 16.75H22.6709C22.8265 16.75 22.9758 16.8118 23.0859 16.9219C23.196 17.032 23.2578 17.1813 23.2578 17.337V22.6639Z" stroke="#17CC5F" stroke-width="1.5"/>
</svg>
