<svg width="40" height="40" viewBox="0 0 40 40" fill="none" xmlns="http://www.w3.org/2000/svg">
<path d="M27.9912 30.2464H16.2612L30.2538 16.2526L30.2407 27.996V27.9968C30.2407 29.2366 29.2308 30.2464 27.9912 30.2464ZM24.6546 9.74609L10.7422 23.6572V11.9957C10.7422 10.7559 11.7521 9.74609 12.9917 9.74609H24.6546Z" stroke="#CBCBCB" stroke-width="1.5"/>
<path d="M10.2887 29.7407C9.99549 29.4481 9.99501 28.9733 10.2876 28.6801L12.5834 26.3796L13.6451 27.4392L11.3493 29.7397C11.0567 30.0328 10.5819 30.0333 10.2887 29.7407Z" fill="#17CC5F"/>
<path d="M13.9961 24.964L16.8217 22.1327L17.8834 23.1923L15.0579 26.0236L13.9961 24.964Z" fill="#17CC5F"/>
<path d="M18.2345 20.717L21.7664 17.1779L22.8281 18.2375L19.2962 21.7766L18.2345 20.717Z" fill="#17CC5F"/>
<path d="M23.1792 15.7623L26.0047 12.931L27.0665 13.9905L24.2409 16.8218L23.1792 15.7623Z" fill="#17CC5F"/>
<path d="M27.4175 11.5153L29.7133 9.21488C30.0059 8.92169 30.4807 8.9212 30.7739 9.2138C31.0671 9.5064 31.0676 9.98127 30.775 10.2745L28.4792 12.5749L27.4175 11.5153Z" fill="#17CC5F"/>
</svg>
