<svg 
 xmlns="http://www.w3.org/2000/svg"
 xmlns:xlink="http://www.w3.org/1999/xlink"
 width="16px" height="16px">
<path fill-rule="evenodd"  fill="rgb(51, 51, 51)"
 d="M8.000,16.000 C3.582,16.000 -0.000,12.418 -0.000,8.000 C-0.000,3.582 3.582,-0.000 8.000,-0.000 C12.418,-0.000 16.000,3.582 16.000,8.000 C16.000,12.418 12.418,16.000 8.000,16.000 L8.000,16.000 ZM14.268,8.354 C11.301,8.771 9.043,11.227 8.875,14.218 C11.841,13.800 14.100,11.345 14.268,8.354 L14.268,8.354 ZM2.031,6.039 C5.037,6.454 7.910,4.661 8.859,1.778 C5.848,1.343 2.963,3.143 2.030,6.039 L2.031,6.039 ZM10.509,2.240 C9.321,5.974 5.604,8.297 1.728,7.730 C1.724,7.820 1.714,7.908 1.714,8.000 C1.716,11.145 4.043,13.804 7.160,14.222 C7.329,10.334 10.274,7.133 14.134,6.642 C13.697,4.680 12.350,3.045 10.509,2.240 L10.509,2.240 Z"/>
</svg>
