<svg 
 xmlns="http://www.w3.org/2000/svg"
 xmlns:xlink="http://www.w3.org/1999/xlink"
 width="20px" height="16px">
<path fill-rule="evenodd"  fill="rgb(255, 255, 255)"
 d="M19.866,9.658 C19.577,11.919 17.687,13.610 15.454,13.606 L14.563,13.606 C14.465,13.606 14.385,13.524 14.385,13.424 L14.385,12.063 C14.385,11.963 14.465,11.883 14.563,11.883 L15.454,11.883 C16.184,11.884 16.884,11.588 17.399,11.059 C17.919,10.529 18.206,9.821 18.206,9.070 C18.206,7.796 17.363,6.679 16.159,6.346 L15.321,6.120 L15.013,5.291 C14.627,4.255 13.945,3.361 13.057,2.722 C12.143,2.068 11.070,1.721 9.947,1.721 C8.834,1.719 7.748,2.069 6.838,2.724 C5.950,3.362 5.268,4.257 4.881,5.293 L4.572,6.123 L3.731,6.346 C3.151,6.503 2.633,6.854 2.261,7.339 C1.612,8.186 1.492,9.337 1.954,10.304 C2.416,11.271 3.378,11.884 4.431,11.883 L5.322,11.883 C5.420,11.883 5.499,11.963 5.501,12.063 L5.501,13.424 C5.501,13.524 5.421,13.606 5.322,13.606 L4.431,13.606 C2.202,13.600 0.321,11.908 0.035,9.651 C-0.251,7.394 1.147,5.270 3.301,4.684 C4.347,1.865 6.993,-0.000 9.947,-0.000 C12.901,0.001 15.546,1.867 16.593,4.688 C18.754,5.268 20.154,7.397 19.866,9.658 ZM9.813,6.079 C9.894,5.978 10.048,5.978 10.128,6.079 L12.938,9.553 C12.985,9.612 12.994,9.692 12.961,9.759 C12.927,9.827 12.857,9.870 12.781,9.870 L10.922,9.870 L10.922,15.811 C10.922,15.919 10.831,16.007 10.721,16.007 L9.216,16.007 C9.105,16.007 9.016,15.919 9.016,15.811 L9.016,9.870 L7.161,9.870 C7.084,9.870 7.015,9.827 6.981,9.759 C6.948,9.692 6.957,9.612 7.004,9.553 L9.813,6.079 Z"/>
</svg>
