<svg width="40" height="40" viewBox="0 0 40 40" fill="none" xmlns="http://www.w3.org/2000/svg">
<path d="M17.5 14L16 17L19 18L16 20L19 21L17 23H20L19 26H23L22 30" stroke="#17CC5F"/>
<path d="M30.2861 9C30.4534 9.0003 30.6152 9.0595 30.7432 9.16721C30.8712 9.27491 30.9569 9.42424 30.9858 9.589L30.9961 9.713V25.53C30.995 25.661 30.9584 25.7892 30.8901 25.901L30.812 26.007L26.5259 30.763C26.4591 30.8373 26.3774 30.8968 26.2861 30.9374C26.1948 30.9781 26.0961 30.9991 25.9961 30.999H9.70996C9.5206 30.999 9.33898 30.9238 9.20508 30.7899C9.07118 30.656 8.9961 30.4744 8.9961 30.285V14C8.99583 13.8946 9.019 13.7905 9.06397 13.6952C9.10894 13.5999 9.17435 13.5158 9.25586 13.449L14.4131 9.16499C14.509 9.08601 14.6237 9.03329 14.7461 9.01199L14.8682 9.00101H30.2817L30.2861 9ZM25.2861 14.714H10.4292V29.571H25.2861V14.714ZM29.5718 11.572L26.7148 14.742V28.423L29.5718 25.253V11.572ZM28.6802 10.426H15.1289L11.6899 13.282H26.001C26.0344 13.282 26.0679 13.2844 26.1011 13.289L28.6802 10.426Z" fill="#333333"/>
</svg>
