<svg width="40" height="40" viewBox="0 0 40 40" fill="none" xmlns="http://www.w3.org/2000/svg">
<path d="M8.29688 35H30.4969" stroke="#CBCBCB" stroke-width="1.5" stroke-linecap="round"/>
<path d="M27.9593 29.653V28.773C27.9613 28.4445 27.8987 28.1189 27.7747 27.8147C27.6508 27.5105 27.4681 27.2337 27.2371 27.0001C27.0062 26.7666 26.7313 26.5808 26.4285 26.4535C26.1257 26.3261 25.801 26.2597 25.4725 26.258H25.4822C25.3368 26.2348 25.2056 26.1573 25.1151 26.0411C25.0245 25.9249 24.9815 25.7787 24.9945 25.632C24.9823 25.4848 25.0253 25.3383 25.1156 25.2213C25.2058 25.1044 25.3367 25.0255 25.4822 25H25.4886C26.4795 25.0119 27.4254 25.4153 28.1199 26.1222C28.8145 26.8291 29.2008 27.782 29.1951 28.773V29.653L29.9676 28.931C30.0998 28.8452 30.2568 28.806 30.4139 28.8196C30.5709 28.8332 30.7188 28.8988 30.8343 29.006C31.045 29.2227 31.045 29.5143 30.8343 29.881L28.6873 31.939C28.668 31.9585 28.6453 31.9739 28.6199 31.9844C28.5946 31.9949 28.5673 32.0004 28.5399 32.0004C28.5125 32.0004 28.4851 31.9949 28.4598 31.9844C28.4345 31.9739 28.4117 31.9585 28.3924 31.939L26.3724 29.885C26.2862 29.7554 26.2401 29.6032 26.2401 29.4475C26.2401 29.2918 26.2862 29.1396 26.3724 29.01C26.5434 28.81 26.8173 28.781 27.1883 28.935L27.9593 29.657V29.653Z" fill="#17CC5F"/>
<path d="M26.9106 7.15353C26.9106 4.69653 28.2598 3.26953 30.2188 3.26953C32.1777 3.26953 33.5273 4.70653 33.5273 7.15353C33.5273 9.60053 32.1787 11.0985 30.2188 11.0985C28.2588 11.0985 26.9106 9.59953 26.9106 7.15353ZM28.4185 7.15353C28.4185 8.76453 29.1187 9.79352 30.2188 9.79352C31.3188 9.79352 32.0186 8.76453 32.0186 7.15353C32.0186 5.54253 31.3188 4.56454 30.2188 4.56454C29.1187 4.56454 28.4185 5.53253 28.4185 7.15353ZM13.5098 7.56152V3.41254H14.9897V7.69354C14.9897 9.26354 15.5186 9.79352 16.3896 9.79352C17.2606 9.79352 17.8296 9.26354 17.8296 7.69354V3.41254H19.2476V7.56152C19.2476 10.0685 18.1986 11.0985 16.3896 11.0985C14.5806 11.0985 13.5098 10.0675 13.5098 7.56152ZM22.4995 10.9555V4.66754H20.4175V3.41354H26.0737V4.66754H23.9736V10.9555H22.4995ZM11.1274 10.9555L10.6074 9.01953H8.20752L7.6875 10.9555H6.1875L8.55566 3.41354H10.2944L12.6733 10.9555H11.1274ZM8.74854 7.01953L8.52979 7.84552H10.2886L10.0684 7.01953C9.83936 6.23453 9.63746 5.36752 9.41846 4.55252H9.37842C9.18942 5.38052 8.96854 6.23553 8.74854 7.01953Z" fill="#17CC5F"/>
<rect x="9.02846" y="25.5414" width="15.4608" height="11.8939" rx="1.25" transform="rotate(-59.1537 9.02846 25.5414)" stroke="#CBCBCB" stroke-width="1.5"/>
</svg>
