<svg width="40" height="40" viewBox="0 0 40 40" fill="none" xmlns="http://www.w3.org/2000/svg">
<path d="M20.1016 7L20.6319 6.46967C20.339 6.17678 19.8641 6.17678 19.5712 6.46967L20.1016 7ZM14.6016 12.5L14.0712 11.9697C13.8567 12.1842 13.7926 12.5068 13.9087 12.787C14.0247 13.0673 14.2982 13.25 14.6016 13.25V12.5ZM18.6016 12.5H19.3516V11.75H18.6016V12.5ZM18.6016 16H17.8516C17.8516 16.4142 18.1873 16.75 18.6016 16.75V16ZM21.6016 16V16.75C22.0158 16.75 22.3516 16.4142 22.3516 16H21.6016ZM21.6016 12.5V11.75H20.8516V12.5H21.6016ZM25.6016 12.5V13.25C25.9049 13.25 26.1784 13.0673 26.2945 12.787C26.4106 12.5068 26.3464 12.1842 26.1319 11.9697L25.6016 12.5ZM19.5712 6.46967L14.0712 11.9697L15.1319 13.0303L20.6319 7.53033L19.5712 6.46967ZM14.6016 13.25H18.6016V11.75H14.6016V13.25ZM17.8516 12.5V16H19.3516V12.5H17.8516ZM18.6016 16.75H21.6016V15.25H18.6016V16.75ZM22.3516 16V12.5H20.8516V16H22.3516ZM21.6016 13.25H25.6016V11.75H21.6016V13.25ZM26.1319 11.9697L20.6319 6.46967L19.5712 7.53033L25.0712 13.0303L26.1319 11.9697Z" fill="#CBCBCB"/>
<path d="M20.1016 32L20.6319 32.5303C20.339 32.8232 19.8641 32.8232 19.5712 32.5303L20.1016 32ZM14.6016 26.5L14.0712 27.0303C13.8567 26.8158 13.7926 26.4932 13.9087 26.213C14.0247 25.9327 14.2982 25.75 14.6016 25.75V26.5ZM18.6016 26.5H19.3516V27.25H18.6016V26.5ZM18.6016 23H17.8516C17.8516 22.5858 18.1873 22.25 18.6016 22.25V23ZM21.6016 23V22.25C22.0158 22.25 22.3516 22.5858 22.3516 23H21.6016ZM21.6016 26.5V27.25H20.8516V26.5H21.6016ZM25.6016 26.5V25.75C25.9049 25.75 26.1784 25.9327 26.2945 26.213C26.4106 26.4932 26.3464 26.8158 26.1319 27.0303L25.6016 26.5ZM19.5712 32.5303L14.0712 27.0303L15.1319 25.9697L20.6319 31.4697L19.5712 32.5303ZM14.6016 25.75H18.6016V27.25H14.6016V25.75ZM17.8516 26.5V23H19.3516V26.5H17.8516ZM18.6016 22.25H21.6016V23.75H18.6016V22.25ZM22.3516 23V26.5H20.8516V23H22.3516ZM21.6016 25.75H25.6016V27.25H21.6016V25.75ZM26.1319 27.0303L20.6319 32.5303L19.5712 31.4697L25.0712 25.9697L26.1319 27.0303Z" fill="#CBCBCB"/>
<path d="M7.60156 19.5L7.07123 18.9697C6.77834 19.2626 6.77834 19.7374 7.07123 20.0303L7.60156 19.5ZM13.1016 25L12.5712 25.5303C12.7857 25.7448 13.1083 25.809 13.3886 25.6929C13.6688 25.5768 13.8516 25.3033 13.8516 25L13.1016 25ZM13.1016 21L13.1016 20.25H12.3516L12.3516 21H13.1016ZM16.6016 21V21.75C17.0158 21.75 17.3516 21.4142 17.3516 21H16.6016ZM16.6016 18H17.3516C17.3516 17.5858 17.0158 17.25 16.6016 17.25V18ZM13.1016 18H12.3516V18.75H13.1016V18ZM13.1016 14H13.8516C13.8516 13.6967 13.6688 13.4232 13.3886 13.3071C13.1083 13.191 12.7857 13.2552 12.5712 13.4697L13.1016 14ZM7.07123 20.0303L12.5712 25.5303L13.6319 24.4697L8.13189 18.9697L7.07123 20.0303ZM13.8516 25V21H12.3516V25L13.8516 25ZM13.1016 21.75L16.6016 21.75V20.25L13.1016 20.25L13.1016 21.75ZM17.3516 21V18H15.8516V21H17.3516ZM16.6016 17.25L13.1016 17.25L13.1016 18.75L16.6016 18.75V17.25ZM13.8516 18L13.8516 14H12.3516L12.3516 18H13.8516ZM12.5712 13.4697L7.07123 18.9697L8.13189 20.0303L13.6319 14.5303L12.5712 13.4697Z" fill="#CBCBCB"/>
<path d="M32.6016 19.5L33.1319 18.9697C33.4248 19.2626 33.4248 19.7374 33.1319 20.0303L32.6016 19.5ZM27.1016 25L27.6319 25.5303C27.4174 25.7448 27.0948 25.809 26.8145 25.6929C26.5343 25.5768 26.3516 25.3033 26.3516 25L27.1016 25ZM27.1016 21V20.25H27.8516V21H27.1016ZM23.6016 21V21.75C23.1873 21.75 22.8516 21.4142 22.8516 21H23.6016ZM23.6016 18H22.8516C22.8516 17.5858 23.1873 17.25 23.6016 17.25V18ZM27.1016 18H27.8516V18.75H27.1016V18ZM27.1016 14H26.3516C26.3516 13.6967 26.5343 13.4232 26.8145 13.3071C27.0948 13.191 27.4174 13.2552 27.6319 13.4697L27.1016 14ZM33.1319 20.0303L27.6319 25.5303L26.5712 24.4697L32.0712 18.9697L33.1319 20.0303ZM26.3516 25V21H27.8516V25L26.3516 25ZM27.1016 21.75L23.6016 21.75V20.25L27.1016 20.25V21.75ZM22.8516 21V18H24.3516V21H22.8516ZM23.6016 17.25L27.1016 17.25L27.1016 18.75L23.6016 18.75V17.25ZM26.3516 18L26.3516 14H27.8516L27.8516 18H26.3516ZM27.6319 13.4697L33.1319 18.9697L32.0712 20.0303L26.5712 14.5303L27.6319 13.4697Z" fill="#17CC5F"/>
<circle cx="20.1016" cy="19.5" r="1.5" fill="#17CC5F"/>
</svg>
