<svg width="40" height="40" viewBox="0 0 40 40" fill="none" xmlns="http://www.w3.org/2000/svg">
<rect x="9.02846" y="21.3031" width="15.4608" height="11.8939" rx="1.25" transform="rotate(-59.1537 9.02846 21.3031)" stroke="#CBCBCB" stroke-width="1.5"/>
<path d="M9.30078 31H31.5008" stroke="#CBCBCB" stroke-width="1.5" stroke-linecap="round"/>
<path d="M28.9593 25.653V24.773C28.9613 24.4445 28.8987 24.1189 28.7747 23.8147C28.6508 23.5105 28.4681 23.2337 28.2371 23.0001C28.0062 22.7666 27.7313 22.5808 27.4285 22.4535C27.1257 22.3261 26.801 22.2597 26.4725 22.258H26.4822C26.3368 22.2348 26.2056 22.1573 26.1151 22.0411C26.0245 21.9249 25.9815 21.7787 25.9945 21.632C25.9823 21.4848 26.0253 21.3383 26.1156 21.2213C26.2058 21.1044 26.3367 21.0255 26.4822 21H26.4886C27.4795 21.0119 28.4254 21.4153 29.1199 22.1222C29.8145 22.8291 30.2008 23.782 30.1951 24.773V25.653L30.9676 24.931C31.0998 24.8452 31.2568 24.806 31.4139 24.8196C31.5709 24.8332 31.7188 24.8988 31.8343 25.006C32.045 25.2227 32.045 25.5143 31.8343 25.881L29.6873 27.939C29.668 27.9585 29.6453 27.9739 29.6199 27.9844C29.5946 27.9949 29.5673 28.0004 29.5399 28.0004C29.5125 28.0004 29.4851 27.9949 29.4598 27.9844C29.4345 27.9739 29.4117 27.9585 29.3924 27.939L27.3724 25.885C27.2862 25.7554 27.2401 25.6032 27.2401 25.4475C27.2401 25.2918 27.2862 25.1396 27.3724 25.01C27.5434 24.81 27.8173 24.781 28.1883 24.935L28.9593 25.657V25.653Z" fill="#17CC5F"/>
</svg>
