<svg width="40" height="40" viewBox="0 0 40 40" fill="none" xmlns="http://www.w3.org/2000/svg">
<path d="M8.5 14.5L19 20.0004M19 20.0004V31.7073M19 20.0004L22.1534 18.3812M22.5 9.92479L21 9.09988L19.8192 8.45051C19.3091 8.16998 18.6909 8.16998 18.1808 8.45051L8.88081 13.565C8.33754 13.8637 8 14.4346 8 15.0546V24.991C8 25.6131 8.33982 26.1855 8.88597 26.4834L18.186 31.556C18.6934 31.8328 19.3066 31.8328 19.814 31.556L29.114 26.4834C29.6602 26.1855 30 25.6131 30 24.991V20.1947V18.2436V17.7558" stroke="#333333" stroke-width="1.5"/>
<path d="M31.2484 14.4391C31.2484 17.402 28.7812 19.8353 25.6984 19.8353C22.6157 19.8353 20.1484 17.402 20.1484 14.4391C20.1484 11.4763 22.6157 9.04297 25.6984 9.04297C28.7812 9.04297 31.2484 11.4763 31.2484 14.4391Z" stroke="#17CC5F" stroke-width="1.5"/>
<rect x="25" y="11.0234" width="1.5" height="6.82905" rx="0.75" fill="#17CC5F"/>
<rect x="22.1992" y="13.5605" width="7" height="1.5" rx="0.75" fill="#17CC5F"/>
</svg>
