<svg 
 xmlns="http://www.w3.org/2000/svg"
 xmlns:xlink="http://www.w3.org/1999/xlink"
 width="18px" height="16px">
<path fill-rule="evenodd"  fill="rgb(51, 51, 51)"
 d="M9.538,6.790 L12.148,9.502 C12.507,9.876 12.507,10.437 12.148,10.811 C11.788,11.185 11.338,11.185 10.978,10.905 L9.898,9.782 L9.898,15.064 C9.898,15.625 9.538,16.000 8.998,16.000 C8.548,16.000 8.188,15.625 8.098,15.158 L8.098,9.782 L7.108,10.811 C6.748,11.185 6.298,11.185 5.938,10.905 L5.848,10.811 C5.488,10.437 5.488,9.970 5.758,9.595 L8.368,6.884 C8.638,6.510 9.178,6.510 9.538,6.790 L9.538,6.790 ZM8.998,-0.001 C11.878,-0.001 14.308,2.244 14.668,5.236 C16.558,5.609 17.997,7.387 17.997,9.444 C17.997,11.875 16.108,13.745 13.858,13.745 C13.318,13.745 12.959,13.371 12.959,12.810 C12.959,12.249 13.318,11.875 13.858,11.875 C15.118,11.875 16.198,10.753 16.198,9.444 C16.198,8.134 15.118,7.012 13.858,7.012 C13.318,7.012 12.959,6.639 12.959,6.077 C12.959,3.740 11.158,1.963 8.998,1.963 C6.837,1.963 5.038,3.833 5.038,6.077 C5.038,6.639 4.678,7.012 4.138,7.012 C2.878,7.012 1.798,8.134 1.798,9.444 C1.798,10.753 2.878,11.875 4.138,11.875 C4.678,11.875 5.038,12.249 5.038,12.810 C5.038,13.371 4.678,13.745 4.138,13.745 C1.888,13.745 -0.002,11.781 -0.002,9.444 C-0.002,7.387 1.438,5.609 3.327,5.236 C3.688,2.244 6.118,-0.001 8.998,-0.001 L8.998,-0.001 Z"/>
</svg>
