<svg width="40" height="40" viewBox="0 0 40 40" fill="none" xmlns="http://www.w3.org/2000/svg">
<path d="M31.25 20H25.25C25.1119 20 25 20.1119 25 20.25V31.25C25 31.3881 25.1119 31.5 25.25 31.5H31.25C31.3881 31.5 31.5 31.3881 31.5 31.25V20.25C31.5 20.1119 31.3881 20 31.25 20Z" stroke="#CBCBCB" stroke-width="1.5"/>
<path d="M31.25 9H9.25C9.11193 9 9 9.11193 9 9.25V17.25C9 17.3881 9.11193 17.5 9.25 17.5H31.25C31.3881 17.5 31.5 17.3881 31.5 17.25V9.25C31.5 9.11193 31.3881 9 31.25 9Z" stroke="#CBCBCB" stroke-width="1.5"/>
<path d="M22.25 27H9.25C9.11193 27 9 27.1119 9 27.25V31.25C9 31.3881 9.11193 31.5 9.25 31.5H22.25C22.3881 31.5 22.5 31.3881 22.5 31.25V27.25C22.5 27.1119 22.3881 27 22.25 27Z" stroke="#CBCBCB" stroke-width="1.5"/>
<path d="M22.25 20H9.25C9.11193 20 9 20.1119 9 20.25V24.25C9 24.3881 9.11193 24.5 9.25 24.5H22.25C22.3881 24.5 22.5 24.3881 22.5 24.25V20.25C22.5 20.1119 22.3881 20 22.25 20Z" stroke="#17CC5F" stroke-width="1.5"/>
</svg>
