<svg width="40" height="40" viewBox="0 0 40 40" fill="none" xmlns="http://www.w3.org/2000/svg">
<path d="M21.5 29.3125V33.3125" stroke="#17CC5F"/>
<path d="M12.4844 23.9316V27.5145C12.4844 27.6885 12.5749 27.8501 12.7234 27.9409L21.242 33.1546C21.4006 33.2517 21.6 33.2527 21.7596 33.1572L27.2762 29.858C27.4271 29.7678 27.5195 29.6048 27.5195 29.4289V26.3116" stroke="#17CC5F"/>
<path d="M15.8008 15.8125L18.5008 14.3125M18.5008 14.3125L24.7 18.1125M18.5008 14.3125V11" stroke="#17CC5F" stroke-dasharray="1 1"/>
<path d="M7 12.8125L20.999 21.9842C21.3074 22.1863 21.7021 22.2023 22.0258 22.0257L32.5 16.3125M21.5 28.8125V22.8125" stroke="#333333" stroke-width="1.5"/>
<path d="M17.4512 7.62928L7.514 12.8392C7.32695 12.9373 7.22264 13.1414 7.25196 13.3505L8.36087 21.2592C8.3813 21.4049 8.4648 21.5341 8.5892 21.6126L21.3176 29.644C21.3739 29.6795 21.4282 29.6874 21.4868 29.6559C22.3778 29.1778 30.0659 24.7504 31.3443 23.9857C31.4619 23.9153 31.5285 23.7985 31.5399 23.662L32.1362 16.5601C32.1521 16.3708 32.0593 16.1888 31.8967 16.0905L17.939 7.64596C17.7893 7.55536 17.6062 7.54801 17.4512 7.62928Z" stroke="#333333" stroke-width="1.5"/>
<path d="M12.6475 13.7346L18.4498 10.6401C18.4809 10.6235 18.5185 10.6245 18.5487 10.6428L27.7516 16.2233C27.8175 16.2633 27.8153 16.3596 27.7477 16.3965L21.5531 19.7842C21.5205 19.8021 21.4806 19.8003 21.4496 19.7797L12.6391 13.906C12.5762 13.8641 12.5808 13.7702 12.6475 13.7346Z" stroke="#17CC5F"/>
</svg>
