<svg 
 xmlns="http://www.w3.org/2000/svg"
 xmlns:xlink="http://www.w3.org/1999/xlink"
 width="16px" height="16px">
<path fill-rule="evenodd"  fill="rgb(255, 255, 255)"
 d="M7.997,15.999 C3.579,15.999 -0.003,12.418 -0.003,7.999 C-0.003,3.581 3.579,-0.001 7.997,-0.001 C12.415,-0.001 15.997,3.581 15.997,7.999 C15.997,12.418 12.415,15.999 7.997,15.999 L7.997,15.999 ZM14.265,8.353 C11.298,8.770 9.040,11.226 8.872,14.217 C11.839,13.800 14.097,11.344 14.265,8.353 L14.265,8.353 ZM2.028,6.038 C5.034,6.453 7.907,4.661 8.856,1.778 C5.845,1.342 2.960,3.143 2.028,6.038 L2.028,6.038 ZM10.506,2.240 C9.318,5.973 5.601,8.297 1.725,7.729 C1.721,7.819 1.711,7.908 1.711,7.999 C1.713,11.144 4.041,13.803 7.157,14.222 C7.326,10.334 10.272,7.132 14.131,6.641 C13.694,4.680 12.348,3.044 10.506,2.240 L10.506,2.240 Z"/>
</svg>
