<svg width="40" height="40" viewBox="0 0 40 40" fill="none" xmlns="http://www.w3.org/2000/svg">
<path d="M30.5195 9.51953H9.51953V30.5195H30.5195V9.51953Z" stroke="#CBCBCB" stroke-dasharray="2 2"/>
<path d="M18.7695 21H9.76953C9.63146 21 9.51953 21.1119 9.51953 21.25V30.25C9.51953 30.3881 9.63146 30.5 9.76953 30.5H18.7695C18.9076 30.5 19.0195 30.3881 19.0195 30.25V21.25C19.0195 21.1119 18.9076 21 18.7695 21Z" stroke="#CBCBCB" stroke-width="1.5"/>
<path d="M21 14H26M26 14V19M26 14L21 19" stroke="#17CC5F" stroke-width="1.5" stroke-linecap="round"/>
<path d="M9.51953 7.51953H8.51953C7.96725 7.51953 7.51953 7.96725 7.51953 8.51953V9.51953C7.51953 10.0718 7.96725 10.5195 8.51953 10.5195H9.51953C10.0718 10.5195 10.5195 10.0718 10.5195 9.51953V8.51953C10.5195 7.96725 10.0718 7.51953 9.51953 7.51953Z" stroke="#CBCBCB"/>
<path d="M31.5195 7.51953H30.5195C29.9672 7.51953 29.5195 7.96725 29.5195 8.51953V9.51953C29.5195 10.0718 29.9672 10.5195 30.5195 10.5195H31.5195C32.0718 10.5195 32.5195 10.0718 32.5195 9.51953V8.51953C32.5195 7.96725 32.0718 7.51953 31.5195 7.51953Z" stroke="#CBCBCB"/>
<path d="M31.5195 29.5195H30.5195C29.9672 29.5195 29.5195 29.9672 29.5195 30.5195V31.5195C29.5195 32.0718 29.9672 32.5195 30.5195 32.5195H31.5195C32.0718 32.5195 32.5195 32.0718 32.5195 31.5195V30.5195C32.5195 29.9672 32.0718 29.5195 31.5195 29.5195Z" stroke="#CBCBCB"/>
<path d="M9.51953 29.5195H8.51953C7.96725 29.5195 7.51953 29.9672 7.51953 30.5195V31.5195C7.51953 32.0718 7.96725 32.5195 8.51953 32.5195H9.51953C10.0718 32.5195 10.5195 32.0718 10.5195 31.5195V30.5195C10.5195 29.9672 10.0718 29.5195 9.51953 29.5195Z" stroke="#CBCBCB"/>
</svg>
