<svg width="40" height="40" viewBox="0 0 40 40" fill="none" xmlns="http://www.w3.org/2000/svg">
<path d="M12.4417 31.5C12.1084 30.3333 11.6417 27.5 12.4417 25.5C13.2417 23.5 15.1084 23 15.9417 23H16.5" stroke="#333333" stroke-width="1.5"/>
<path d="M27.0583 31.5C27.3916 30.3333 27.8583 27.5 27.0583 25.5C26.2583 23.5 24.3916 23 23.5583 23H23" stroke="#333333" stroke-width="1.5"/>
<path d="M18.4982 25C17.9982 25.1667 16.8982 25.8 16.4982 27C16.0982 28.2 16.3315 31.1667 16.4982 32" stroke="#333333" stroke-width="1.5"/>
<path d="M21.0018 25C21.5018 25.1667 22.6018 25.8 23.0018 27C23.4018 28.2 23.1685 31.1667 23.0018 32" stroke="#333333" stroke-width="1.5"/>
<path d="M8 31.6406H32" stroke="#333333" stroke-width="1.5" stroke-linecap="round"/>
<path d="M21.4513 9.36338L21.4514 9.36347L27.634 15.5309L27.6341 15.531C28.4452 16.3398 28.4453 17.6505 27.634 18.4597L27.634 18.4597L21.4514 24.627L21.4513 24.6271C21.0455 25.0322 20.5149 25.2347 19.9811 25.2347C19.4472 25.2347 18.916 25.0321 18.5097 24.6269L12.3272 18.4597L12.3271 18.4597C11.5159 17.6505 11.516 16.3398 12.3271 15.531L12.3272 15.5309L18.5096 9.36361C18.5097 9.36356 18.5097 9.36352 18.5098 9.36347C18.9161 8.95841 19.4472 8.75586 19.9811 8.75586C20.5149 8.75586 21.0455 8.95839 21.4513 9.36338Z" stroke="#333333" stroke-width="1.5"/>
</svg>
