<svg 
 xmlns="http://www.w3.org/2000/svg"
 xmlns:xlink="http://www.w3.org/1999/xlink"
 width="18px" height="16px">
<path fill-rule="evenodd"  fill="rgb(85, 85, 85)"
 d="M9.538,6.791 L12.148,9.502 C12.508,9.876 12.508,10.437 12.148,10.811 C11.788,11.185 11.338,11.185 10.978,10.905 L9.898,9.783 L9.898,15.065 C9.898,15.626 9.538,16.000 8.998,16.000 C8.548,16.000 8.188,15.626 8.098,15.158 L8.098,9.783 L7.109,10.811 C6.749,11.185 6.298,11.185 5.938,10.905 L5.849,10.811 C5.489,10.437 5.489,9.970 5.758,9.596 L8.368,6.884 C8.639,6.510 9.178,6.510 9.538,6.791 L9.538,6.791 ZM8.998,-0.000 C11.878,-0.000 14.308,2.244 14.669,5.236 C16.558,5.610 17.998,7.387 17.998,9.444 C17.998,11.875 16.108,13.745 13.858,13.745 C13.319,13.745 12.959,13.371 12.959,12.810 C12.959,12.249 13.319,11.875 13.858,11.875 C15.118,11.875 16.199,10.753 16.199,9.444 C16.199,8.135 15.118,7.013 13.858,7.013 C13.319,7.013 12.959,6.639 12.959,6.078 C12.959,3.740 11.159,1.963 8.998,1.963 C6.838,1.963 5.038,3.833 5.038,6.078 C5.038,6.639 4.678,7.013 4.139,7.013 C2.878,7.013 1.798,8.135 1.798,9.444 C1.798,10.753 2.878,11.875 4.139,11.875 C4.678,11.875 5.038,12.249 5.038,12.810 C5.038,13.371 4.678,13.745 4.139,13.745 C1.888,13.745 -0.001,11.781 -0.001,9.444 C-0.001,7.387 1.439,5.610 3.328,5.236 C3.688,2.244 6.118,-0.000 8.998,-0.000 L8.998,-0.000 Z"/>
</svg>
