<svg width="40" height="40" viewBox="0 0 40 40" fill="none" xmlns="http://www.w3.org/2000/svg">
<path d="M26.1128 29.7766V27.9436C26.1128 27.7814 26.0488 27.6258 25.9341 27.5111C25.8195 27.3965 25.6637 27.332 25.5015 27.332C25.3393 27.332 25.1836 27.3965 25.0689 27.5111C24.9542 27.6258 24.8902 27.7814 24.8902 27.9436V29.7766H22.4449V27.9436C22.4449 27.7815 22.3807 27.6261 22.2662 27.5115C22.1516 27.3969 21.9961 27.3326 21.834 27.3326C21.672 27.3326 21.5165 27.3969 21.4019 27.5115C21.2873 27.6261 21.2232 27.7815 21.2232 27.9436V29.7766H18.7779V27.9436C18.7779 27.7815 18.7138 27.6261 18.5992 27.5115C18.4846 27.3969 18.3291 27.3326 18.167 27.3326C18.005 27.3326 17.8495 27.3969 17.7349 27.5115C17.6203 27.6261 17.5562 27.7815 17.5562 27.9436V29.7766H15.1119V27.9436C15.1119 27.7814 15.0473 27.6258 14.9327 27.5111C14.818 27.3965 14.6627 27.332 14.5005 27.332C14.3384 27.332 14.1826 27.3965 14.0679 27.5111C13.9532 27.6258 13.8892 27.7814 13.8892 27.9436V29.7766H12.0562C11.8151 29.7832 11.5752 29.7375 11.3536 29.6425C11.1319 29.5476 10.9335 29.4056 10.772 29.2265C10.5978 29.0614 10.4589 28.8625 10.3643 28.6419C10.2697 28.4212 10.2217 28.1836 10.2222 27.9436V24.8886H12.0562C12.2182 24.8886 12.3733 24.8242 12.4878 24.7096C12.6024 24.595 12.667 24.4396 12.667 24.2776C12.667 24.1155 12.6024 23.9601 12.4878 23.8455C12.3733 23.7309 12.2182 23.6665 12.0562 23.6665H10.2222V21.2215H12.0562C12.2182 21.2215 12.3733 21.1572 12.4878 21.0426C12.6024 20.928 12.667 20.7726 12.667 20.6105C12.667 20.4485 12.6024 20.2931 12.4878 20.1785C12.3733 20.0639 12.2182 19.9996 12.0562 19.9996H10.2222V17.5556H12.0562C12.2182 17.5556 12.3733 17.4912 12.4878 17.3766C12.6024 17.262 12.667 17.1066 12.667 16.9446C12.667 16.7825 12.6024 16.6271 12.4878 16.5125C12.3733 16.3979 12.2182 16.3336 12.0562 16.3336H10.2222V13.8896H12.0562C12.2184 13.8896 12.3737 13.8251 12.4883 13.7105C12.603 13.5958 12.6675 13.4402 12.6675 13.2781C12.6675 13.1159 12.603 12.9603 12.4883 12.8457C12.3737 12.731 12.2184 12.6665 12.0562 12.6665H10.2222V10.8336C10.2222 10.4676 10.008 28.6866 10 29.0006C9.99205 29.3146 10.968 29.8616 12 30.0006C13.032 30.1396 26 30.0006 26 30.0006L26.1128 29.7766Z" fill="#17CC5F"/>
<path d="M15.5833 23.6663V24.4163H16.3333H28.8489L28.8556 24.4232L29.1812 24.4172C29.3223 24.4146 29.4623 24.4404 29.5933 24.4932C29.7244 24.5461 29.8435 24.6249 29.9431 24.7245C30.0429 24.8244 30.1216 24.9433 30.1744 25.0742C30.2272 25.205 30.2531 25.3452 30.2504 25.4864L30.2503 25.4864V25.5003V29.1673H30.2502L30.2504 29.1812C30.2531 29.3224 30.2272 29.4626 30.1744 29.5934C30.1216 29.7244 30.0429 29.8433 29.9431 29.9431C29.8435 30.0427 29.7244 30.1215 29.5933 30.1744C29.4623 30.2272 29.3223 30.253 29.1812 30.2504L29.1812 30.2503H29.1673H12.0662C11.4574 30.2334 10.8778 29.9839 10.4471 29.5533C10.0165 29.1226 9.76726 28.5434 9.75031 27.9346V10.8333H9.75044L9.75018 10.8194C9.74757 10.6782 9.77343 10.538 9.82622 10.4072C9.87904 10.2762 9.95771 10.1573 10.0575 10.0575C10.1571 9.95791 10.2762 9.87916 10.4074 9.82625C10.5383 9.77341 10.6784 9.74757 10.8194 9.75018L10.8194 9.75031H10.8333H14.5003V9.75044L14.5142 9.75018C14.6553 9.74757 14.7953 9.77341 14.9263 9.82625C15.0574 9.87916 15.1765 9.95791 15.2761 10.0575C15.3759 10.1573 15.4546 10.2762 15.5074 10.4072C15.5602 10.538 15.5861 10.6782 15.5834 10.8194L15.5833 10.8194V10.8333V23.6663Z" stroke="#CBCBCB" stroke-width="1.5"/>
</svg>
