<svg width="40" height="40" viewBox="0 0 40 40" fill="none" xmlns="http://www.w3.org/2000/svg">
<path d="M30.0016 26.5996H10.0016C9.78065 26.5996 9.60156 26.7787 9.60156 26.9996V29.9996C9.60156 30.2205 9.78065 30.3996 10.0016 30.3996H30.0016C30.2225 30.3996 30.4016 30.2205 30.4016 29.9996V26.9996C30.4016 26.7787 30.2225 26.5996 30.0016 26.5996Z" stroke="#CBCBCB" stroke-width="1.5"/>
<path d="M30.0016 16.5996H10.0016C9.78065 16.5996 9.60156 16.7787 9.60156 16.9996V18.9996C9.60156 19.2205 9.78065 19.3996 10.0016 19.3996H30.0016C30.2225 19.3996 30.4016 19.2205 30.4016 18.9996V16.9996C30.4016 16.7787 30.2225 16.5996 30.0016 16.5996Z" stroke="#CBCBCB" stroke-width="1.5"/>
<path d="M30.0016 12.5996H10.0016C9.78065 12.5996 9.60156 12.7787 9.60156 12.9996V13.9996C9.60156 14.2205 9.78065 14.3996 10.0016 14.3996H30.0016C30.2225 14.3996 30.4016 14.2205 30.4016 13.9996V12.9996C30.4016 12.7787 30.2225 12.5996 30.0016 12.5996Z" stroke="#17CC5F" stroke-width="1.5"/>
<path d="M30.3016 9.59961H9.70156C9.64633 9.59961 9.60156 9.64438 9.60156 9.69961V10.2996C9.60156 10.3548 9.64633 10.3996 9.70156 10.3996H30.3016C30.3568 10.3996 30.4016 10.3548 30.4016 10.2996V9.69961C30.4016 9.64438 30.3568 9.59961 30.3016 9.59961Z" stroke="#CBCBCB" stroke-width="1.5"/>
<path d="M30.0016 21.5996H10.0016C9.78065 21.5996 9.60156 21.7787 9.60156 21.9996V23.9996C9.60156 24.2205 9.78065 24.3996 10.0016 24.3996H30.0016C30.2225 24.3996 30.4016 24.2205 30.4016 23.9996V21.9996C30.4016 21.7787 30.2225 21.5996 30.0016 21.5996Z" stroke="#CBCBCB" stroke-width="1.5"/>
</svg>
