<svg width="40" height="40" viewBox="0 0 40 40" fill="none" xmlns="http://www.w3.org/2000/svg">
<path d="M29.8906 8H10.1094C8.94627 8 8 8.94627 8 10.1094V29.8906C8 31.0537 8.94627 32 10.1094 32H29.8906C31.0537 32 32 31.0537 32 29.8906V10.1094C32 8.94627 31.0537 8 29.8906 8ZM9.40625 10.1094C9.40625 9.72167 9.72167 9.40625 10.1094 9.40625H19.2969V12.9688C19.2969 13.4974 19.8537 13.8275 20.3144 13.5977L20.512 13.4989C21.1867 13.1615 22.0836 13.5805 22.1087 14.3367C22.1356 15.1423 21.3013 15.6458 20.6114 15.3009L20.3145 15.1524C19.8555 14.9229 19.2969 15.2524 19.2969 15.7812V19.2969H16.7584C16.9362 17.8935 15.9157 16.5343 14.4602 16.4858C12.8799 16.4337 11.7307 17.8369 11.9598 19.2969H9.40625V10.1094ZM19.2969 30.5938H10.1094C9.72167 30.5938 9.40625 30.2783 9.40625 29.8906V20.7031H12.9688C13.4902 20.7031 13.8313 20.153 13.5977 19.6856L13.4492 19.3886C13.1039 18.6979 13.6089 17.8647 14.4133 17.8913C15.1706 17.9165 15.5881 18.8139 15.2511 19.488L15.1524 19.6856C14.9183 20.1537 15.2608 20.7031 15.7812 20.7031H19.2969V23.2098C17.8357 22.9802 16.4332 24.1318 16.4858 25.7102C16.5343 27.1664 17.8942 28.1861 19.2969 28.0084V30.5938ZM30.5938 29.8906C30.5938 30.2783 30.2783 30.5938 29.8906 30.5938H20.7031V27.0312C20.7031 26.5079 20.151 26.1695 19.6856 26.4023L19.488 26.5011C18.8132 26.8384 17.9165 26.4196 17.8913 25.6633C17.8645 24.8568 18.6995 24.3545 19.3887 24.6992L19.6856 24.8476C20.1528 25.0813 20.7031 24.7403 20.7031 24.2188V20.6984H23.2107C23.1198 21.2774 23.2408 21.879 23.5702 22.3926C24.0239 23.1002 24.7874 23.5156 25.6254 23.5156C25.6535 23.5156 25.6819 23.5152 25.7102 23.5142C26.5116 23.4875 27.2415 23.0493 27.6626 22.3419C27.9627 21.8376 28.078 21.2622 28.0072 20.7032H30.5938V29.8906ZM30.5938 19.2969H28.0312C27.5018 19.2969 27.1732 19.856 27.4024 20.3144C27.6316 20.7729 27.5011 20.512 27.5011 20.512C27.674 20.8579 26.6561 21.2834 26.4542 21.6225C26.3499 21.7978 26.1085 22.0939 25.6633 22.1087C25.2867 22.1213 24.9556 21.948 24.754 21.6335C24.5549 21.323 23.5344 20.941 23.6992 20.6114L23.8477 20.3145C24.0816 19.8466 23.7365 19.2969 23.2188 19.2969H20.7031V16.7893C20.8271 16.8088 20.9519 16.8193 21.0765 16.8193C22.3917 16.8193 23.5624 15.7354 23.5142 14.2898C23.466 12.8433 22.1177 11.8137 20.7031 11.9928V9.40625H29.8906C30.2783 9.40625 30.5938 9.72167 30.5938 10.1094V19.2969Z" fill="#CBCBCB"/>
<path d="M31.2581 10.1097V19.959H28.0152C27.7999 19.959 27.5951 20.0514 27.4527 20.2128C27.3103 20.3743 27.2442 20.589 27.271 20.8026C27.3217 21.2056 27.2358 21.614 27.0269 21.9624L27.0269 21.9624L27.0221 21.9705C26.8854 22.2052 26.6915 22.4016 26.4584 22.5416C26.2291 22.6792 25.9693 22.7577 25.7024 22.77H25.6335C25.3894 22.7699 25.1482 22.7169 24.9262 22.6147C24.7042 22.5126 24.5069 22.3636 24.3481 22.1782C24.1891 21.9927 24.0722 21.7751 24.0052 21.5403C23.9383 21.3054 23.9229 21.0589 23.9602 20.8175C23.9936 20.6011 23.9309 20.381 23.7884 20.2148C23.6459 20.0486 23.4379 19.953 23.219 19.953H20.0552V15.8562L20.2883 15.9712C20.5648 16.1103 20.8727 16.1749 21.1816 16.159C21.4923 16.1431 21.7931 16.0461 22.0544 15.8781C22.3161 15.71 22.529 15.4764 22.6724 15.2008C22.8158 14.9252 22.8849 14.6169 22.8725 14.306C22.8717 14.2878 22.8703 14.2695 22.8683 14.2513C22.8343 13.9526 22.7276 13.6666 22.5577 13.4186C22.3876 13.1705 22.1595 12.9679 21.8932 12.8284C21.6268 12.6889 21.3303 12.6168 21.0297 12.6183C20.733 12.6198 20.4412 12.693 20.1791 12.8315L20.0552 12.8934L20.0548 8.75H29.8988C30.2591 8.75043 30.6044 8.89372 30.8593 9.14862C31.1143 9.4036 31.2577 9.7493 31.2581 10.1097Z" stroke="#17CC5F" stroke-width="1.5" stroke-linejoin="round"/>
</svg>
