<svg width="40" height="40" viewBox="0 0 40 40" fill="none" xmlns="http://www.w3.org/2000/svg">
<path d="M29.5568 21.9389L29.5569 21.939C30.473 22.8089 30.4731 24.2028 29.5569 25.073L29.5568 25.0731L22.6892 31.5977C22.2241 32.0394 21.6087 32.2659 20.9835 32.2659C20.3583 32.2659 19.7429 32.0394 19.2778 31.5977L12.4103 25.0731L12.4101 25.0729C11.4935 24.2027 11.4936 22.8089 12.41 21.9391L12.4103 21.9389L19.2778 15.4143C19.2779 15.4142 19.2779 15.4142 19.2779 15.4142C19.743 14.9725 20.3583 14.7461 20.9835 14.7461C21.6087 14.7461 22.224 14.9725 22.6891 15.4142C22.6891 15.4142 22.6892 15.4142 22.6892 15.4143L29.5568 21.9389Z" stroke="#CBCBCB" stroke-width="1.5"/>
<path d="M8.78743 23.6277C8.99541 23.9859 9.4544 24.1077 9.81261 23.8997C10.1708 23.6918 10.2926 23.2328 10.0846 22.8746L8.78743 23.6277ZM8 17.9101L7.25001 17.8991L7.25 17.9096L8 17.9101ZM19.23 7.00113L19.2193 7.75117L19.2325 7.75113L19.23 7.00113ZM10.0846 22.8746C9.20925 21.3668 8.74874 19.6541 8.75 17.9107L7.25 17.9096C7.24855 19.918 7.77904 21.8909 8.78743 23.6277L10.0846 22.8746ZM8.74992 17.9212C8.79018 15.1844 9.91576 12.5756 11.879 10.6685L10.8339 9.59255C8.58534 11.7768 7.29619 14.7646 7.25008 17.8991L8.74992 17.9212ZM11.879 10.6685C13.8423 8.76133 16.4825 7.71195 19.2193 7.75106L19.2407 6.25121C16.1062 6.20642 13.0824 7.40829 10.8339 9.59255L11.879 10.6685ZM19.2325 7.75113C21.8747 7.74211 24.4255 8.71821 26.3866 10.4888L27.3918 9.37546C25.1537 7.35478 22.2427 6.24084 19.2274 6.25114L19.2325 7.75113Z" fill="#17CC5F"/>
<path d="M28.2648 7.54117C28.3503 7.45009 28.4584 7.38356 28.5782 7.34848C28.6981 7.31339 28.8253 7.31105 28.9464 7.34166C29.0675 7.37227 29.1784 7.43473 29.2672 7.52257C29.356 7.6104 29.4198 7.72041 29.4518 7.84117L30.9747 13.4972C31.0416 13.7504 31.0062 14.0197 30.8766 14.2472C30.747 14.4748 30.5337 14.6424 30.2819 14.7142C30.1286 14.7569 29.9671 14.7617 29.8116 14.7282L24.1056 13.4942C24.0153 13.4745 23.9299 13.4372 23.8541 13.3844C23.7784 13.3316 23.7138 13.2643 23.6642 13.1864C23.6145 13.1085 23.5809 13.0215 23.5651 12.9305C23.5492 12.8395 23.5516 12.7463 23.5719 12.6562C23.6 12.5302 23.6612 12.4141 23.7496 12.3202L28.2648 7.54117Z" stroke="#17CC5F" stroke-width="1.5"/>
</svg>
