<svg 
 xmlns="http://www.w3.org/2000/svg"
 xmlns:xlink="http://www.w3.org/1999/xlink"
 width="16px" height="16px">
<path fill-rule="evenodd"  fill="none"
 d="M-0.000,-0.000 L16.000,-0.000 L16.000,16.000 L-0.000,16.000 L-0.000,-0.000 Z"/>
<path fill-rule="evenodd"  fill="rgb(165, 165, 169)"
 d="M13.236,14.998 L2.755,14.998 C1.786,14.997 0.996,14.208 0.995,13.238 L0.995,2.760 C0.995,1.790 1.785,0.999 2.755,0.999 L13.236,0.999 C14.205,0.999 14.995,1.789 14.995,2.759 L14.995,13.238 C14.995,14.208 14.205,14.997 13.236,14.998 ZM10.541,3.750 C10.541,3.469 10.316,3.252 10.043,3.252 C9.762,3.252 9.538,3.477 9.538,3.750 L9.538,5.474 C9.546,5.747 9.771,5.971 10.043,5.971 C10.325,5.971 10.541,5.747 10.541,5.474 L10.541,3.750 ZM13.653,2.760 C13.653,2.529 13.467,2.342 13.236,2.341 L12.659,2.341 L12.659,7.660 C12.659,8.030 12.357,8.401 11.986,8.401 L4.005,8.401 C3.635,8.401 3.334,8.030 3.334,7.660 L3.334,2.341 L2.756,2.341 C2.525,2.341 2.338,2.529 2.338,2.760 L2.338,13.239 C2.338,13.470 2.525,13.657 2.755,13.657 L3.726,13.657 L13.236,13.656 C13.467,13.656 13.653,13.469 13.653,13.238 L13.653,2.760 Z"/>
</svg>
