<svg 
 xmlns="http://www.w3.org/2000/svg"
 xmlns:xlink="http://www.w3.org/1999/xlink"
 width="17px" height="16px">
<path fill-rule="evenodd"  fill="none"
 d="M-0.000,-0.000 L17.000,-0.000 L17.000,16.000 L-0.000,16.000 L-0.000,-0.000 Z"/>
<path fill-rule="evenodd"  fill="rgb(188, 188, 188)"
 d="M15.235,14.998 L4.755,14.998 C3.785,14.996 2.995,14.207 2.994,13.238 L2.994,2.760 C2.994,1.789 3.784,0.999 4.755,0.998 L15.235,0.998 C16.205,0.999 16.995,1.789 16.995,2.758 L16.995,13.238 C16.995,14.207 16.205,14.996 15.235,14.998 ZM12.541,3.749 C12.541,3.469 12.316,3.252 12.042,3.252 C11.762,3.252 11.537,3.477 11.537,3.749 L11.537,5.474 C11.545,5.747 11.771,5.971 12.042,5.971 C12.324,5.971 12.541,5.747 12.541,5.474 L12.541,3.749 ZM15.653,2.760 C15.653,2.529 15.466,2.342 15.235,2.341 L14.659,2.341 L14.659,7.660 C14.659,8.030 14.356,8.401 13.986,8.401 L6.005,8.401 C5.635,8.401 5.334,8.030 5.334,7.660 L5.334,2.341 L4.755,2.341 C4.525,2.341 4.337,2.529 4.337,2.760 L4.337,13.239 C4.337,13.470 4.525,13.657 4.755,13.657 L5.726,13.657 L15.235,13.656 C15.466,13.656 15.653,13.468 15.653,13.238 L15.653,2.760 Z"/>
</svg>
