<svg 
 xmlns="http://www.w3.org/2000/svg"
 xmlns:xlink="http://www.w3.org/1999/xlink"
 width="19px" height="16px">
<path fill-rule="evenodd"  fill="none"
 d="M-0.000,-0.000 L19.000,-0.000 L19.000,16.000 L-0.000,16.000 L-0.000,-0.000 Z"/>
<path fill-rule="evenodd"  fill="rgb(203, 203, 203)"
 d="M3.156,6.037 C3.050,6.147 2.987,6.302 2.987,6.461 C2.987,6.622 3.050,6.775 3.156,6.886 L9.191,12.851 C9.423,13.083 9.789,12.893 9.789,12.541 L9.789,8.744 C9.789,8.744 18.579,6.487 17.807,15.749 C17.786,16.011 18.096,16.096 18.179,15.852 C19.337,12.299 20.925,2.898 9.663,3.642 L9.760,0.420 C9.770,0.065 9.402,-0.137 9.162,0.097 L3.156,6.037 Z"/>
</svg>
