<svg 
 xmlns="http://www.w3.org/2000/svg"
 xmlns:xlink="http://www.w3.org/1999/xlink"
 width="14px" height="14px">
<path fill-rule="evenodd"  fill="none"
 d="M-0.000,-0.000 L14.000,-0.000 L14.000,14.000 L-0.000,14.000 L-0.000,-0.000 Z"/>
<path fill-rule="evenodd"  fill="rgb(255, 255, 255)"
 d="M12.829,8.256 C12.726,8.350 12.588,8.404 12.443,8.404 C12.297,8.405 12.158,8.352 12.054,8.259 L10.640,6.967 C10.377,7.133 10.096,7.280 9.804,7.408 L10.666,9.097 C10.790,9.348 10.672,9.645 10.396,9.761 C10.267,9.818 10.115,9.825 9.979,9.780 C9.842,9.736 9.731,9.643 9.668,9.523 L8.769,7.760 C8.384,7.859 7.988,7.926 7.586,7.959 L7.586,9.498 C7.584,9.774 7.338,9.996 7.037,9.996 C6.731,9.996 6.486,9.773 6.486,9.498 L6.486,7.970 C6.022,7.941 5.569,7.869 5.134,7.759 L4.236,9.523 C4.175,9.643 4.063,9.736 3.925,9.780 C3.790,9.825 3.637,9.818 3.508,9.761 C3.232,9.645 3.114,9.349 3.238,9.097 L4.101,7.405 C3.826,7.287 3.576,7.132 3.326,6.977 L1.924,8.259 C1.821,8.353 1.681,8.405 1.538,8.405 C1.391,8.404 1.252,8.350 1.149,8.256 C0.937,8.061 0.934,7.745 1.146,7.549 L2.478,6.330 C2.383,6.243 2.272,6.171 2.182,6.077 C1.790,5.663 1.481,5.186 1.273,4.672 C1.169,4.411 1.315,4.123 1.599,4.027 C1.886,3.931 2.201,4.065 2.306,4.326 C2.469,4.727 2.710,5.099 3.018,5.423 C3.927,6.391 5.375,6.980 6.955,6.980 C8.536,6.980 9.984,6.391 10.894,5.423 C11.202,5.099 11.442,4.727 11.606,4.326 C11.710,4.065 12.027,3.931 12.311,4.027 C12.596,4.123 12.744,4.411 12.638,4.672 C12.430,5.186 12.123,5.663 11.728,6.077 C11.652,6.161 11.569,6.241 11.487,6.319 L12.833,7.549 C13.044,7.745 13.040,8.061 12.829,8.256 Z"/>
</svg>
