<svg 
 xmlns="http://www.w3.org/2000/svg"
 xmlns:xlink="http://www.w3.org/1999/xlink"
 width="14px" height="14px">
<path fill-rule="evenodd"  fill="rgb(51, 51, 51)"
 d="M3.024,12.613 C0.169,10.690 -0.813,6.965 0.708,3.885 C2.432,0.443 6.605,-0.970 10.064,0.698 C13.498,2.325 14.966,6.441 13.323,9.870 C12.650,11.268 11.532,12.412 10.132,13.097 C9.782,13.272 9.364,13.138 9.190,12.788 C9.015,12.452 9.149,12.035 9.499,11.860 L9.513,11.860 C12.245,10.515 13.377,7.220 12.031,4.490 C11.478,3.374 10.576,2.487 9.459,1.948 C6.686,0.604 3.360,1.747 1.974,4.490 C0.682,7.113 1.664,10.273 4.208,11.712 L4.208,10.529 C4.208,10.139 4.519,9.829 4.908,9.829 C5.300,9.829 5.608,10.139 5.608,10.529 L5.608,13.313 C5.608,13.702 5.300,14.012 4.908,13.999 L2.108,13.999 C1.718,13.999 1.408,13.689 1.408,13.313 C1.408,12.922 1.718,12.613 2.108,12.627 L3.024,12.627 L3.024,12.613 Z"/>
</svg>
