<svg 
 xmlns="http://www.w3.org/2000/svg"
 xmlns:xlink="http://www.w3.org/1999/xlink"
 width="14px" height="14px">
<path fill-rule="evenodd"  fill="rgb(255, 255, 255)"
 d="M2.250,13.995 C1.653,13.995 1.081,13.758 0.659,13.336 C0.237,12.914 0.000,12.341 0.000,11.744 L0.000,7.249 C0.000,6.834 0.336,6.498 0.750,6.498 C1.164,6.498 1.500,6.834 1.500,7.249 L1.500,11.749 C1.500,11.948 1.579,12.139 1.720,12.279 C1.860,12.420 2.051,12.499 2.250,12.499 L11.750,12.499 C12.164,12.499 12.500,12.163 12.500,11.749 L12.500,7.253 C12.500,6.839 12.836,6.503 13.250,6.503 C13.664,6.503 14.000,6.839 14.000,7.253 L14.000,11.749 C14.000,12.346 13.763,12.918 13.341,13.341 C12.919,13.763 12.347,14.000 11.750,14.000 L2.250,13.995 ZM6.250,9.498 L6.250,2.561 L5.280,3.531 C4.985,3.804 4.527,3.794 4.242,3.510 C3.957,3.226 3.948,2.768 4.220,2.471 L6.470,0.220 C6.610,0.079 6.801,-0.000 7.000,-0.000 C7.199,-0.000 7.390,0.079 7.531,0.220 L9.606,2.294 C9.811,2.480 9.897,2.764 9.829,3.033 C9.762,3.301 9.552,3.511 9.283,3.578 C9.015,3.645 8.731,3.558 8.546,3.353 L7.750,2.563 L7.750,9.498 C7.750,9.766 7.607,10.013 7.375,10.147 C7.143,10.281 6.857,10.281 6.625,10.147 C6.393,10.013 6.250,9.766 6.250,9.498 L6.250,9.498 Z"/>
</svg>
