<svg 
 xmlns="http://www.w3.org/2000/svg"
 xmlns:xlink="http://www.w3.org/1999/xlink"
 width="14px" height="14px">
<path fill-rule="evenodd"  fill="none"
 d="M-0.000,-0.000 L14.000,-0.000 L14.000,14.000 L-0.000,14.000 L-0.000,-0.000 Z"/>
<path fill-rule="evenodd"  fill="rgb(255, 255, 255)"
 d="M12.942,6.642 C12.927,6.688 12.928,6.736 12.899,6.777 C11.444,8.822 9.293,9.996 6.988,9.996 C4.685,9.996 2.533,8.822 1.078,6.777 C1.049,6.736 1.049,6.685 1.034,6.639 C1.023,6.605 1.008,6.580 1.004,6.545 C0.992,6.430 1.008,6.315 1.078,6.215 C2.533,4.170 4.685,2.996 6.988,2.996 C9.293,2.996 11.444,4.170 12.899,6.215 C12.969,6.313 12.986,6.429 12.974,6.544 C12.970,6.581 12.954,6.607 12.942,6.642 ZM11.732,6.315 C11.655,6.222 11.577,6.130 11.496,6.043 C11.400,5.938 11.300,5.839 11.199,5.742 C11.118,5.665 11.038,5.586 10.955,5.514 C10.846,5.419 10.734,5.331 10.621,5.244 C10.538,5.181 10.456,5.115 10.370,5.056 C10.250,4.973 10.126,4.898 10.002,4.824 C9.917,4.774 9.834,4.720 9.748,4.674 C9.617,4.604 9.482,4.545 9.348,4.485 C9.263,4.447 9.179,4.405 9.092,4.371 C8.950,4.316 8.805,4.272 8.660,4.228 C8.576,4.203 8.494,4.172 8.410,4.150 C8.250,4.110 8.088,4.083 7.925,4.056 C7.852,4.044 7.780,4.025 7.706,4.016 C7.469,3.986 7.229,3.969 6.988,3.969 C6.746,3.969 6.507,3.986 6.271,4.016 C6.193,4.025 6.118,4.045 6.042,4.058 C5.883,4.084 5.724,4.110 5.569,4.150 C5.479,4.173 5.393,4.205 5.304,4.232 C5.165,4.275 5.025,4.317 4.888,4.370 C4.796,4.406 4.706,4.451 4.616,4.491 C4.487,4.549 4.359,4.605 4.234,4.672 C4.142,4.721 4.053,4.778 3.963,4.832 C3.844,4.903 3.726,4.974 3.611,5.053 C3.521,5.116 3.434,5.185 3.346,5.252 C3.238,5.335 3.131,5.419 3.026,5.510 C2.939,5.586 2.855,5.668 2.770,5.750 C2.673,5.843 2.577,5.938 2.485,6.038 C2.401,6.130 2.320,6.225 2.239,6.322 C2.190,6.381 2.143,6.442 2.096,6.503 C3.351,8.109 5.118,9.023 6.988,9.023 C8.859,9.023 10.626,8.109 11.881,6.504 C11.832,6.440 11.783,6.376 11.732,6.315 ZM6.988,8.316 C5.979,8.316 5.158,7.500 5.158,6.496 C5.158,5.493 5.979,4.676 6.988,4.676 C7.999,4.676 8.821,5.493 8.821,6.496 C8.821,7.500 7.999,8.316 6.988,8.316 Z"/>
</svg>
