<svg 
 xmlns="http://www.w3.org/2000/svg"
 xmlns:xlink="http://www.w3.org/1999/xlink"
 width="280px" height="211px">
<defs>
<linearGradient id="PSgrad_0" x1="0%" x2="0%" y1="100%" y2="0%">
  <stop offset="0%" stop-color="rgb(214,214,214)" stop-opacity="1" />
  <stop offset="100%" stop-color="rgb(245,245,245)" stop-opacity="1" />
</linearGradient>

</defs>
<path fill-rule="evenodd"  fill="none"
 d="M-0.009,0.091 L279.981,0.091 L279.981,210.090 L-0.009,210.090 L-0.009,0.091 Z"/>
<path fill-rule="evenodd"  fill="rgb(197, 197, 197)"
 d="M74.144,87.000 L51.072,87.000 C47.667,87.000 44.999,84.251 44.999,80.748 C44.999,77.249 47.667,74.500 51.072,74.500 L52.527,74.500 C53.498,70.248 57.383,67.000 62.001,67.000 C67.341,67.000 71.714,71.501 71.714,76.998 L74.144,76.998 C76.811,76.998 78.999,79.248 78.999,82.000 C78.999,84.749 76.811,87.000 74.144,87.000 "/>
<path fill-rule="evenodd"  fill="rgb(202, 202, 202)"
 d="M241.714,136.000 L216.608,136.000 C212.903,136.000 209.999,133.114 209.999,129.435 C209.999,125.761 212.903,122.876 216.608,122.876 L218.191,122.876 C219.248,118.411 223.476,115.000 228.502,115.000 C234.312,115.000 239.071,119.726 239.071,125.498 L241.714,125.498 C244.618,125.498 246.999,127.861 246.999,130.751 C246.999,133.637 244.618,136.000 241.714,136.000 "/>
<path fill-rule="evenodd"  fill="rgb(202, 202, 202)"
 d="M56.715,173.000 L31.608,173.000 C27.902,173.000 24.999,169.976 24.999,166.123 C24.999,162.274 27.902,159.251 31.608,159.251 L33.191,159.251 C34.248,154.573 38.476,151.000 43.501,151.000 C49.312,151.000 54.070,155.951 54.070,161.998 L56.715,161.998 C59.619,161.998 61.999,164.473 61.999,167.500 C61.999,170.524 59.619,173.000 56.715,173.000 "/>
<path fill-rule="evenodd"  fill="url(#PSgrad_0)"
 d="M180.953,53.000 L99.133,53.000 C93.005,53.000 87.999,58.005 87.999,64.134 L89.999,139.000 L119.000,104.000 L147.000,133.000 L166.000,114.000 L190.000,133.000 L192.000,64.134 C192.086,58.005 187.081,53.000 180.953,53.000 L180.953,53.000 Z"/>
<path fill-rule="evenodd"  fill="rgb(197, 197, 197)"
 d="M183.315,50.000 L96.776,50.000 C90.293,50.000 84.999,55.294 84.999,61.776 L84.999,148.224 C84.999,154.705 90.293,160.000 96.776,160.000 L183.224,160.000 C189.705,160.000 195.000,154.705 195.000,148.224 L195.000,61.776 C195.091,55.294 189.797,50.000 183.315,50.000 L183.315,50.000 ZM96.776,57.851 L183.224,57.851 C185.414,57.851 187.150,59.585 187.150,61.776 L187.150,125.767 L168.070,109.884 C166.519,108.606 164.237,108.697 162.776,110.157 L146.161,126.771 L121.331,100.390 C120.510,99.568 119.414,99.112 118.228,99.203 C117.041,99.294 116.037,99.842 115.307,100.755 L92.850,130.058 L92.850,61.776 C92.850,59.676 94.676,57.851 96.776,57.851 L96.776,57.851 ZM183.315,152.240 L96.776,152.240 C94.585,152.240 92.850,150.506 92.850,148.315 L92.850,140.464 C94.037,140.464 95.224,139.917 95.954,138.912 L118.775,109.153 L142.327,134.166 C142.510,134.622 142.784,134.987 143.149,135.353 C143.423,135.627 143.788,135.900 144.153,136.083 L148.991,141.195 C150.452,142.747 153.008,142.838 154.560,141.377 C156.112,139.917 156.203,137.360 154.742,135.809 L151.639,132.522 L165.879,118.281 L186.693,135.627 C186.875,135.809 187.059,135.900 187.240,135.992 L187.240,148.315 C187.240,150.414 185.414,152.240 183.315,152.240 L183.315,152.240 Z"/>
<path fill-rule="evenodd"  fill="rgb(214, 214, 214)"
 d="M165.606,65.701 C158.029,65.701 151.822,71.817 151.822,79.485 C151.822,87.062 157.938,93.269 165.606,93.269 C173.182,93.269 179.390,87.153 179.390,79.485 C179.390,71.909 173.182,65.701 165.606,65.701 L165.606,65.701 Z"/>
</svg>
