<?xml version="1.0" standalone="no"?><!DOCTYPE svg PUBLIC "-//W3C//DTD SVG 1.1//EN" "http://www.w3.org/Graphics/SVG/1.1/DTD/svg11.dtd"><svg t="1725696517791" class="icon" viewBox="0 0 1024 1024" version="1.1" xmlns="http://www.w3.org/2000/svg" p-id="4266" xmlns:xlink="http://www.w3.org/1999/xlink" width="200" height="200"><path d="M691.157333 260.821333h176.938667c15.402667 0 27.904 11.904 27.904 26.538667 0 14.634667-12.501333 26.538667-27.904 26.538667h-65.066667v461.44c0 42.837333-35.413333 77.994667-79.744 77.994666H343.381333c-44.330667 0-79.744-35.157333-79.744-77.994666V313.898667H198.570667c-15.402667 0-27.904-11.904-27.904-26.538667 0-14.634667 12.501333-26.538667 27.904-26.538667h195.541333C398.933333 186.154667 464 128 542.592 128c78.677333 0 143.744 58.197333 148.565333 132.821333z m-55.978666 0c-4.778667-45.184-44.8-79.573333-92.586667-79.573333-47.701333 0-87.722667 34.389333-92.501333 79.573333h185.088z m112.042666 53.077334H319.445333v461.44c0 14.037333 10.965333 24.917333 23.893334 24.917333h379.946666c12.928 0 23.893333-10.88 23.893334-24.917333V313.898667zM412.458667 425.770667c0-14.677333 12.458667-26.538667 27.904-26.538667 15.36 0 27.861333 11.861333 27.861333 26.538667v257.536c0 14.677333-12.458667 26.538667-27.861333 26.538666-15.445333 0-27.904-11.861333-27.904-26.538666V425.813333z m185.984 0c0-14.677333 12.458667-26.538667 27.861333-26.538667 15.445333 0 27.904 11.861333 27.904 26.538667v257.536c0 14.677333-12.458667 26.538667-27.904 26.538666-15.36 0-27.861333-11.861333-27.861333-26.538666V425.813333z" fill="#000000" p-id="4267"></path></svg>