<svg 
 xmlns="http://www.w3.org/2000/svg"
 xmlns:xlink="http://www.w3.org/1999/xlink"
 width="16px" height="16px">
<path fill-rule="evenodd"  fill="rgb(51, 51, 51)"
 d="M14.617,8.411 C14.433,7.410 13.831,6.518 12.943,5.928 L7.091,2.046 L4.306,0.202 C4.069,-0.000 3.727,-0.056 3.430,0.059 C3.132,0.173 2.933,0.437 2.920,0.736 C2.906,1.035 3.080,1.314 3.365,1.452 L4.617,2.326 L0.769,7.274 C-0.552,8.992 -0.132,11.379 1.710,12.616 L5.736,15.283 C7.585,16.510 10.153,16.119 11.484,14.408 L13.874,11.287 C14.526,10.460 14.794,9.423 14.617,8.411 L14.617,8.411 ZM2.114,8.166 L5.943,3.174 L10.063,5.902 L11.946,7.170 C12.718,7.705 13.085,8.610 12.886,9.486 C11.070,9.826 9.225,10.023 7.373,10.072 C5.463,10.119 3.553,9.987 1.672,9.679 C1.621,9.142 1.777,8.605 2.114,8.166 L2.114,8.166 ZM14.749,11.427 C14.749,11.427 12.002,15.623 14.749,15.999 C14.749,15.999 17.562,15.886 14.749,11.427 L14.749,11.427 Z"/>
</svg>
