<svg 
 xmlns="http://www.w3.org/2000/svg"
 xmlns:xlink="http://www.w3.org/1999/xlink"
 width="16px" height="16px">
<path fill-rule="evenodd"  fill="rgb(203, 203, 203)"
 d="M15.540,16.000 L9.416,16.000 C9.261,16.002 9.113,15.940 9.026,15.835 C8.945,15.731 8.932,15.603 8.989,15.490 L10.684,12.175 L8.213,10.832 C8.039,10.739 7.963,10.562 8.029,10.401 L9.467,7.255 C9.530,7.102 9.706,6.999 9.903,7.000 L15.540,7.000 C15.794,7.000 15.999,7.168 15.999,7.375 L15.999,15.625 C15.999,15.832 15.794,16.000 15.540,16.000 ZM12.485,4.999 C9.156,4.588 12.485,-0.002 12.485,-0.002 C15.893,4.875 12.485,4.999 12.485,4.999 ZM8.485,4.999 C5.157,4.588 8.485,-0.002 8.485,-0.002 C11.893,4.875 8.485,4.999 8.485,4.999 ZM7.009,7.510 L5.314,10.825 L7.785,12.167 C7.960,12.261 8.035,12.437 7.969,12.599 L6.532,15.745 C6.468,15.898 6.293,16.000 6.094,16.000 L0.459,16.000 C0.205,16.000 -0.001,15.832 -0.001,15.625 L-0.001,7.375 C-0.001,7.168 0.205,7.000 0.459,7.000 L6.582,7.000 C6.738,6.997 6.885,7.059 6.972,7.165 C7.053,7.268 7.066,7.397 7.009,7.510 ZM4.485,4.999 C1.157,4.588 4.485,-0.002 4.485,-0.002 C7.893,4.875 4.485,4.999 4.485,4.999 Z"/>
</svg>
