<svg 
 xmlns="http://www.w3.org/2000/svg"
 xmlns:xlink="http://www.w3.org/1999/xlink"
 width="34.6px" height="34.6px">
<path fill-rule="evenodd"  stroke="rgb(85, 85, 85)" stroke-width="1.2px" stroke-linecap="butt" stroke-linejoin="miter" fill="none"
 d="M6.999,23.000 L26.999,23.000 C27.551,23.000 27.999,23.447 27.999,24.000 L27.999,27.000 C27.999,27.552 27.551,28.000 26.999,28.000 L6.999,28.000 C6.446,28.000 5.999,27.552 5.999,27.000 L5.999,24.000 C5.999,23.447 6.446,23.000 6.999,23.000 Z"/>
<path fill-rule="evenodd"  stroke="rgb(85, 85, 85)" stroke-width="1.2px" stroke-linecap="butt" stroke-linejoin="miter" fill="none"
 d="M6.999,13.000 L26.999,13.000 C27.551,13.000 27.999,13.447 27.999,14.000 L27.999,16.000 C27.999,16.552 27.551,16.999 26.999,16.999 L6.999,16.999 C6.446,16.999 5.999,16.552 5.999,16.000 L5.999,14.000 C5.999,13.447 6.446,13.000 6.999,13.000 Z"/>
<path fill-rule="evenodd"  stroke="rgb(85, 85, 85)" stroke-width="1.2px" stroke-linecap="butt" stroke-linejoin="miter" fill="none"
 d="M6.999,8.999 L26.999,8.999 C27.551,8.999 27.999,9.447 27.999,10.000 L27.999,11.000 C27.999,11.552 27.551,12.000 26.999,12.000 L6.999,12.000 C6.446,12.000 5.999,11.552 5.999,11.000 L5.999,10.000 C5.999,9.447 6.446,8.999 6.999,8.999 Z"/>
<path fill-rule="evenodd"  stroke="rgb(85, 85, 85)" stroke-width="1.2px" stroke-linecap="butt" stroke-linejoin="miter" fill="none"
 d="M6.499,6.000 L27.499,6.000 C27.774,6.000 27.999,6.223 27.999,6.500 L27.999,7.500 C27.999,7.776 27.774,8.000 27.499,8.000 L6.499,8.000 C6.223,8.000 5.999,7.776 5.999,7.500 L5.999,6.500 C5.999,6.223 6.223,6.000 6.499,6.000 Z"/>
<path fill-rule="evenodd"  stroke="rgb(85, 85, 85)" stroke-width="1.2px" stroke-linecap="butt" stroke-linejoin="miter" fill="none"
 d="M6.999,18.000 L26.999,18.000 C27.551,18.000 27.999,18.447 27.999,19.000 L27.999,21.000 C27.999,21.552 27.551,22.000 26.999,22.000 L6.999,22.000 C6.446,22.000 5.999,21.552 5.999,21.000 L5.999,19.000 C5.999,18.447 6.446,18.000 6.999,18.000 Z"/>
<path fill-rule="evenodd"  fill="none"
 d="M0.000,0.000 L34.000,0.000 L34.000,34.000 L0.000,34.000 L0.000,0.000 Z"/>
</svg>
