<svg 
 xmlns="http://www.w3.org/2000/svg"
 xmlns:xlink="http://www.w3.org/1999/xlink"
 width="34px" height="34px">
<path fill-rule="evenodd"  fill="rgb(203, 203, 203)"
 d="M22.690,17.564 C19.232,17.564 16.428,14.760 16.428,11.302 C16.428,7.845 19.232,5.041 22.690,5.041 C26.148,5.041 28.951,7.845 28.951,11.302 C28.951,14.760 26.148,17.564 22.690,17.564 ZM26.864,10.259 L23.734,10.259 L23.734,7.128 L21.646,7.128 L21.646,10.259 L18.515,10.259 L18.515,12.346 L21.646,12.346 L21.646,15.476 L23.734,15.476 L23.734,12.346 L26.864,12.346 L26.864,10.259 ZM16.434,7.093 L15.371,7.093 L15.371,8.156 L16.124,8.156 C15.961,8.496 15.834,8.851 15.724,9.218 L15.371,9.218 L15.371,10.281 L15.489,10.281 C15.442,10.610 15.389,10.938 15.388,11.281 L15.371,11.281 L15.371,12.343 L15.491,12.343 C15.542,12.697 15.620,13.039 15.720,13.374 L15.371,13.374 L15.371,14.437 L16.118,14.437 C16.471,15.176 16.927,15.857 17.496,16.433 L17.496,16.499 L17.563,16.499 C18.140,17.068 18.820,17.524 19.559,17.877 L19.559,18.624 L20.622,18.624 L20.622,18.274 C20.958,18.373 21.299,18.452 21.653,18.503 L21.653,18.624 L22.715,18.624 L22.715,18.605 C23.057,18.604 23.386,18.551 23.716,18.504 L23.716,18.624 L24.778,18.624 L24.778,18.268 C25.145,18.158 25.500,18.030 25.840,17.867 L25.840,18.624 L26.902,18.624 L26.902,17.562 L26.401,17.562 C26.934,17.245 27.437,16.885 27.871,16.448 L27.871,26.937 L26.902,26.937 L26.902,25.874 L25.840,25.874 L25.840,26.937 L26.902,26.937 L26.902,27.999 L7.060,27.999 L7.060,26.937 L8.121,26.937 L8.121,25.874 L7.060,25.874 L7.060,26.937 L5.997,26.937 L5.997,25.874 L5.997,7.093 L7.060,7.093 L7.060,8.156 L8.121,8.156 L8.121,7.093 L7.060,7.093 L7.060,6.124 L17.541,6.124 C17.107,6.556 16.750,7.056 16.434,7.585 L16.434,7.093 ZM25.840,24.906 L26.902,24.906 L26.902,23.843 L25.840,23.843 L25.840,24.906 ZM25.840,22.781 L26.902,22.781 L26.902,21.718 L25.840,21.718 L25.840,22.781 ZM25.840,20.656 L26.902,20.656 L26.902,19.656 L25.840,19.656 L25.840,20.656 ZM23.716,26.937 L24.778,26.937 L24.778,25.874 L23.716,25.874 L23.716,26.937 ZM23.716,24.906 L24.778,24.906 L24.778,23.843 L23.716,23.843 L23.716,24.906 ZM23.716,22.781 L24.778,22.781 L24.778,21.718 L23.716,21.718 L23.716,22.781 ZM23.716,20.656 L24.778,20.656 L24.778,19.656 L23.716,19.656 L23.716,20.656 ZM21.653,26.937 L22.715,26.937 L22.715,25.874 L21.653,25.874 L21.653,26.937 ZM21.653,24.906 L22.715,24.906 L22.715,23.843 L21.653,23.843 L21.653,24.906 ZM21.653,22.781 L22.715,22.781 L22.715,21.718 L21.653,21.718 L21.653,22.781 ZM21.653,20.656 L22.715,20.656 L22.715,19.656 L21.653,19.656 L21.653,20.656 ZM19.559,26.937 L20.622,26.937 L20.622,25.874 L19.559,25.874 L19.559,26.937 ZM19.559,24.906 L20.622,24.906 L20.622,23.843 L19.559,23.843 L19.559,24.906 ZM19.559,22.781 L20.622,22.781 L20.622,21.718 L19.559,21.718 L19.559,22.781 ZM19.559,20.656 L20.622,20.656 L20.622,19.656 L19.559,19.656 L19.559,20.656 ZM17.496,26.937 L18.496,26.937 L18.496,25.874 L17.496,25.874 L17.496,26.937 ZM17.496,24.906 L18.496,24.906 L18.496,23.843 L17.496,23.843 L17.496,24.906 ZM17.496,22.781 L18.496,22.781 L18.496,21.718 L17.496,21.718 L17.496,22.781 ZM17.496,20.656 L18.496,20.656 L18.496,19.656 L17.496,19.656 L17.496,20.656 ZM17.496,18.624 L18.496,18.624 L18.496,17.562 L17.496,17.562 L17.496,18.624 ZM15.371,26.937 L16.434,26.937 L16.434,25.874 L15.371,25.874 L15.371,26.937 ZM15.371,24.906 L16.434,24.906 L16.434,23.843 L15.371,23.843 L15.371,24.906 ZM15.371,22.781 L16.434,22.781 L16.434,21.718 L15.371,21.718 L15.371,22.781 ZM15.371,20.656 L16.434,20.656 L16.434,19.656 L15.371,19.656 L15.371,20.656 ZM15.371,18.624 L16.434,18.624 L16.434,17.562 L15.371,17.562 L15.371,18.624 ZM15.371,16.499 L16.434,16.499 L16.434,15.499 L15.371,15.499 L15.371,16.499 ZM8.121,9.218 L7.060,9.218 L7.060,10.281 L8.121,10.281 L8.121,9.218 ZM8.121,11.281 L7.060,11.281 L7.060,12.343 L8.121,12.343 L8.121,11.281 ZM8.121,13.374 L7.060,13.374 L7.060,14.437 L8.121,14.437 L8.121,13.374 ZM8.121,15.499 L7.060,15.499 L7.060,16.499 L8.121,16.499 L8.121,15.499 ZM8.121,17.562 L7.060,17.562 L7.060,18.624 L8.121,18.624 L8.121,17.562 ZM8.121,19.656 L7.060,19.656 L7.060,20.656 L8.121,20.656 L8.121,19.656 ZM8.121,21.718 L7.060,21.718 L7.060,22.781 L8.121,22.781 L8.121,21.718 ZM8.121,23.843 L7.060,23.843 L7.060,24.906 L8.121,24.906 L8.121,23.843 ZM10.153,7.093 L9.090,7.093 L9.090,8.156 L10.153,8.156 L10.153,7.093 ZM10.153,9.218 L9.090,9.218 L9.090,10.281 L10.153,10.281 L10.153,9.218 ZM10.153,11.281 L9.090,11.281 L9.090,12.343 L10.153,12.343 L10.153,11.281 ZM10.153,13.374 L9.090,13.374 L9.090,14.437 L10.153,14.437 L10.153,13.374 ZM10.153,15.499 L9.090,15.499 L9.090,16.499 L10.153,16.499 L10.153,15.499 ZM10.153,17.562 L9.090,17.562 L9.090,18.624 L10.153,18.624 L10.153,17.562 ZM10.153,19.656 L9.090,19.656 L9.090,20.656 L10.153,20.656 L10.153,19.656 ZM10.153,21.718 L9.090,21.718 L9.090,22.781 L10.153,22.781 L10.153,21.718 ZM10.153,23.843 L9.090,23.843 L9.090,24.906 L10.153,24.906 L10.153,23.843 ZM10.153,25.874 L9.090,25.874 L9.090,26.937 L10.153,26.937 L10.153,25.874 ZM12.278,7.093 L11.216,7.093 L11.216,8.156 L12.278,8.156 L12.278,7.093 ZM12.278,9.218 L11.216,9.218 L11.216,10.281 L12.278,10.281 L12.278,9.218 ZM12.278,11.281 L11.216,11.281 L11.216,12.343 L12.278,12.343 L12.278,11.281 ZM12.278,13.374 L11.216,13.374 L11.216,14.437 L12.278,14.437 L12.278,13.374 ZM12.278,15.499 L11.216,15.499 L11.216,16.499 L12.278,16.499 L12.278,15.499 ZM12.278,17.562 L11.216,17.562 L11.216,18.624 L12.278,18.624 L12.278,17.562 ZM12.278,19.656 L11.216,19.656 L11.216,20.656 L12.278,20.656 L12.278,19.656 ZM12.278,21.718 L11.216,21.718 L11.216,22.781 L12.278,22.781 L12.278,21.718 ZM12.278,23.843 L11.216,23.843 L11.216,24.906 L12.278,24.906 L12.278,23.843 ZM12.278,25.874 L11.216,25.874 L11.216,26.937 L12.278,26.937 L12.278,25.874 ZM14.341,7.093 L13.341,7.093 L13.341,8.156 L14.341,8.156 L14.341,7.093 ZM14.341,9.218 L13.341,9.218 L13.341,10.281 L14.341,10.281 L14.341,9.218 ZM14.341,11.281 L13.341,11.281 L13.341,12.343 L14.341,12.343 L14.341,11.281 ZM14.341,13.374 L13.341,13.374 L13.341,14.437 L14.341,14.437 L14.341,13.374 ZM14.341,15.499 L13.341,15.499 L13.341,16.499 L14.341,16.499 L14.341,15.499 ZM14.341,17.562 L13.341,17.562 L13.341,18.624 L14.341,18.624 L14.341,17.562 ZM14.341,19.656 L13.341,19.656 L13.341,20.656 L14.341,20.656 L14.341,19.656 ZM14.341,21.718 L13.341,21.718 L13.341,22.781 L14.341,22.781 L14.341,21.718 ZM14.341,23.843 L13.341,23.843 L13.341,24.906 L14.341,24.906 L14.341,23.843 ZM14.341,25.874 L13.341,25.874 L13.341,26.937 L14.341,26.937 L14.341,25.874 Z"/>
<path fill-rule="evenodd"  fill="rgb(23, 204, 95)"
 d="M22.690,5.041 C19.232,5.041 16.428,7.845 16.428,11.302 C16.428,14.760 19.232,17.564 22.690,17.564 C26.148,17.564 28.951,14.760 28.951,11.302 C28.951,7.845 26.148,5.041 22.690,5.041 L22.690,5.041 ZM26.864,12.346 L23.734,12.346 L23.734,15.476 L21.646,15.476 L21.646,12.346 L18.515,12.346 L18.515,10.259 L21.646,10.259 L21.646,7.128 L23.734,7.128 L23.734,10.259 L26.864,10.259 L26.864,12.346 Z"/>
<path fill-rule="evenodd"  fill="none"
 d="M0.000,0.000 L34.000,0.000 L34.000,34.000 L0.000,34.000 L0.000,0.000 Z"/>
</svg>
