<svg 
 xmlns="http://www.w3.org/2000/svg"
 xmlns:xlink="http://www.w3.org/1999/xlink"
 width="34px" height="34px">
<path fill-rule="evenodd"  fill="rgb(203, 203, 203)"
 d="M7.547,11.289 C7.547,9.995 7.784,9.717 9.084,9.717 L10.632,9.717 L10.632,22.713 C10.632,24.442 12.014,25.856 13.705,25.856 L21.829,25.856 C21.826,26.721 22.015,27.423 20.292,27.423 L9.084,27.423 C7.698,27.423 7.547,27.051 7.547,25.852 L7.547,11.289 ZM5.999,25.856 C5.999,28.550 6.841,29.000 9.071,29.000 L20.292,29.000 C23.429,29.000 23.365,28.184 23.365,25.856 L24.926,25.856 C27.407,25.856 27.999,25.066 27.999,22.713 L27.999,9.715 L23.365,5.000 L13.705,5.000 C11.266,5.000 10.632,5.785 10.632,8.143 L9.074,8.143 C6.531,8.143 6.001,8.641 6.001,11.286 L5.999,25.856 ZM23.367,6.557 L26.433,9.707 L24.900,9.707 C24.054,9.707 23.363,9.000 23.363,8.136 L23.363,6.557 L23.367,6.557 ZM24.904,24.297 L13.683,24.297 C12.838,24.297 12.146,23.590 12.146,22.726 L12.146,8.128 C12.146,6.761 12.547,6.557 13.683,6.557 L21.803,6.557 L21.803,8.121 C21.803,9.850 23.185,11.264 24.875,11.264 L26.441,11.264 L26.441,22.726 C26.441,23.798 26.449,24.286 25.339,24.290 L24.904,24.297 Z"/>
<path fill-rule="evenodd"  fill="rgb(23, 204, 95)"
 d="M23.510,15.498 L15.040,15.447 C14.696,15.444 14.415,15.786 14.415,16.208 C14.415,16.630 14.696,16.977 15.040,16.979 L23.510,17.030 C23.853,17.033 24.134,16.692 24.134,16.269 C24.134,15.847 23.853,15.501 23.510,15.498 L23.510,15.498 ZM23.510,18.617 L15.040,18.565 C14.696,18.563 14.415,18.904 14.415,19.327 C14.415,19.749 14.696,20.095 15.040,20.098 L23.510,20.149 C23.853,20.154 24.134,19.810 24.134,19.388 C24.134,18.965 23.853,18.619 23.510,18.617 L23.510,18.617 Z"/>
<path fill-rule="evenodd"  fill="none"
 d="M0.000,0.000 L34.000,0.000 L34.000,34.000 L0.000,34.000 L0.000,0.000 Z"/>
</svg>
