<svg 
 xmlns="http://www.w3.org/2000/svg"
 xmlns:xlink="http://www.w3.org/1999/xlink"
 width="34.75px" height="34.75px">
<path fill-rule="evenodd"  stroke="rgb(51, 51, 51)" stroke-width="1.5px" stroke-linecap="butt" stroke-linejoin="miter" fill="none"
 d="M16.995,8.397 C13.811,8.397 15.137,16.647 11.422,15.690 C6.309,14.374 3.994,15.877 3.994,19.197 C3.994,25.162 9.815,29.999 16.995,29.999 C24.174,29.999 29.994,25.162 29.994,19.197 C29.994,13.233 24.174,8.397 16.995,8.397 L16.995,8.397 ZM11.500,23.004 C10.670,23.004 9.999,22.332 9.999,21.503 C9.999,20.675 10.670,20.003 11.500,20.003 C12.327,20.003 13.000,20.675 13.000,21.503 C13.000,22.332 12.327,23.004 11.500,23.004 L11.500,23.004 Z"/>
<path fill-rule="evenodd"  fill="rgb(23, 204, 95)"
 d="M25.577,13.893 C24.415,15.005 23.158,15.890 21.877,16.108 C21.941,16.634 21.871,17.438 21.062,18.213 C20.249,18.993 18.198,18.993 16.994,18.993 C18.738,17.990 17.342,14.869 20.482,14.758 C20.714,13.562 21.641,12.333 22.794,11.231 C25.544,8.602 29.740,6.784 29.983,7.018 C30.228,7.251 28.245,11.342 25.577,13.893 Z"/>
<path fill-rule="evenodd"  fill="none"
 d="M0.000,0.000 L34.000,0.000 L34.000,34.000 L0.000,34.000 L0.000,0.000 Z"/>
</svg>
