<svg 
 xmlns="http://www.w3.org/2000/svg"
 xmlns:xlink="http://www.w3.org/1999/xlink"
 width="34.75px" height="34.75px">
<path fill-rule="evenodd"  stroke="rgb(51, 51, 51)" stroke-width="1.5px" stroke-linecap="butt" stroke-linejoin="miter" fill="none"
 d="M26.013,6.245 C26.456,6.453 26.851,6.777 27.170,7.182 L26.013,6.245 ZM6.993,22.466 L6.993,8.996 C6.993,7.340 8.335,5.996 9.991,5.996 L23.464,5.996 L6.993,22.466 ZM28.006,11.439 L27.991,24.996 C27.991,26.652 26.648,27.996 24.991,27.996 L11.451,27.996 L28.006,11.439 Z"/>
<path fill-rule="evenodd"  stroke="rgb(23, 204, 95)" stroke-width="1.5px" stroke-linecap="butt" stroke-linejoin="miter" fill="none"
 d="M25.269,9.425 L24.561,8.718 L27.391,5.890 L28.098,6.596 L25.269,9.425 ZM20.319,12.960 L23.147,10.131 L23.855,10.839 L21.027,13.668 L20.319,12.960 ZM15.370,17.910 L18.906,14.375 L19.612,15.081 L16.078,18.617 L15.370,17.910 ZM11.128,22.153 L13.956,19.324 L14.663,20.032 L11.835,22.860 L11.128,22.153 ZM6.886,26.395 L9.713,23.567 L10.419,24.274 L7.591,27.102 L6.886,26.395 Z"/>
<path fill-rule="evenodd"  fill="none"
 d="M0.000,0.000 L34.000,0.000 L34.000,34.000 L0.000,34.000 L0.000,0.000 Z"/>
</svg>
