<svg 
 xmlns="http://www.w3.org/2000/svg"
 xmlns:xlink="http://www.w3.org/1999/xlink"
 width="34.9px" height="34.9px">
<path fill-rule="evenodd"  stroke="rgb(51, 51, 51)" stroke-width="1.8px" stroke-linecap="butt" stroke-linejoin="miter" fill="none"
 d="M28.230,28.537 L5.767,28.537 C5.343,28.537 4.998,28.193 4.998,27.768 C4.998,27.344 5.343,27.000 5.767,27.000 L28.230,27.000 C28.655,27.000 28.998,27.344 28.998,27.768 C28.998,28.193 28.655,28.537 28.230,28.537 ZM16.592,24.290 C16.055,25.183 14.925,25.456 14.070,24.895 L5.861,19.848 C5.002,19.288 4.744,18.111 5.280,17.218 L12.080,5.895 C12.616,5.002 13.744,4.730 14.601,5.290 L22.809,10.337 C23.667,10.896 23.927,12.074 23.391,12.967 L16.592,24.290 Z"/>
<path fill-rule="evenodd"  fill="rgb(23, 204, 95)"
 d="M24.961,22.651 L24.961,21.771 C24.961,20.387 23.848,19.256 22.475,19.256 L22.485,19.256 C22.159,19.177 21.996,18.969 21.996,18.630 C21.996,18.293 22.159,18.081 22.485,17.998 L22.490,17.998 C24.529,17.998 26.197,19.697 26.197,21.771 L26.197,22.651 L26.969,21.929 C27.335,21.763 27.622,21.787 27.836,22.004 C28.047,22.221 28.047,22.512 27.836,22.880 L25.689,24.938 C25.606,25.019 25.476,25.017 25.394,24.933 L23.374,22.880 C23.201,22.499 23.201,22.208 23.374,22.004 C23.546,21.800 23.819,21.775 24.190,21.930 L24.961,22.651 L24.961,22.651 Z"/>
<path fill-rule="evenodd"  fill="none"
 d="M0.000,0.000 L34.000,0.000 L34.000,34.000 L0.000,34.000 L0.000,0.000 Z"/>
</svg>
