<svg 
 xmlns="http://www.w3.org/2000/svg"
 xmlns:xlink="http://www.w3.org/1999/xlink"
 width="34.9px" height="34.9px">
<path fill-rule="evenodd"  stroke="rgb(203, 203, 203)" stroke-width="1.8px" stroke-linecap="butt" stroke-linejoin="miter" fill="none"
 d="M28.231,32.537 L5.767,32.537 C5.343,32.537 4.999,32.193 4.999,31.768 C4.999,31.344 5.343,31.000 5.767,31.000 L28.231,31.000 C28.655,31.000 28.999,31.344 28.999,31.768 C28.999,32.193 28.655,32.537 28.231,32.537 ZM16.592,28.290 C16.055,29.183 14.925,29.456 14.070,28.895 L5.861,23.848 C5.002,23.288 4.744,22.111 5.281,21.218 L12.080,9.895 C12.616,9.002 13.745,8.730 14.601,9.290 L22.809,14.337 C23.667,14.896 23.927,16.074 23.391,16.967 L16.592,28.290 Z"/>
<path fill-rule="evenodd"  fill="rgb(23, 204, 95)"
 d="M24.961,26.651 L24.961,25.771 C24.961,24.387 23.848,23.256 22.475,23.256 L22.485,23.256 C22.159,23.177 21.996,22.969 21.996,22.630 C21.996,22.293 22.159,22.081 22.485,21.998 L22.491,21.998 C24.529,21.998 26.197,23.697 26.197,25.771 L26.197,26.651 L26.970,25.929 C27.335,25.763 27.622,25.787 27.836,26.004 C28.047,26.221 28.047,26.512 27.836,26.880 L25.689,28.938 C25.606,29.019 25.476,29.017 25.394,28.933 L23.374,26.880 C23.202,26.499 23.202,26.208 23.374,26.004 C23.546,25.800 23.819,25.775 24.191,25.930 L24.961,26.651 L24.961,26.651 Z"/>
<path fill-rule="evenodd"  fill="rgb(23, 204, 95)"
 d="M27.201,8.078 C25.242,8.078 23.893,6.580 23.893,4.134 C23.893,1.677 25.242,0.250 27.201,0.250 C29.160,0.250 30.509,1.687 30.509,4.134 C30.509,6.580 29.160,8.078 27.201,8.078 ZM27.201,1.545 C26.101,1.545 25.402,2.513 25.402,4.134 C25.402,5.744 26.101,6.773 27.201,6.773 C28.300,6.773 29.000,5.744 29.000,4.134 C29.000,2.513 28.300,1.545 27.201,1.545 ZM20.961,7.935 L19.482,7.935 L19.482,1.647 L17.403,1.647 L17.403,0.393 L23.060,0.393 L23.060,1.647 L20.961,1.647 L20.961,7.935 ZM13.372,8.078 C11.572,8.078 10.493,7.049 10.493,4.541 L10.493,0.393 L11.972,0.393 L11.972,4.674 C11.972,6.243 12.501,6.773 13.372,6.773 C14.251,6.773 14.810,6.243 14.810,4.674 L14.810,0.393 L16.230,0.393 L16.230,4.541 C16.230,7.049 15.180,8.078 13.372,8.078 ZM7.591,5.999 L5.192,5.999 L4.673,7.935 L3.173,7.935 L5.542,0.393 L7.281,0.393 L9.660,7.935 L8.111,7.935 L7.591,5.999 ZM7.051,4.001 C6.822,3.216 6.622,2.350 6.402,1.534 L6.362,1.534 C6.172,2.360 5.952,3.216 5.732,4.001 L5.512,4.827 L7.271,4.827 L7.051,4.001 Z"/>
<path fill-rule="evenodd"  fill="none"
 d="M0.000,0.000 L34.000,0.000 L34.000,34.000 L0.000,34.000 L0.000,0.000 Z"/>
</svg>
