<svg 
 xmlns="http://www.w3.org/2000/svg"
 xmlns:xlink="http://www.w3.org/1999/xlink"
 width="34.75px" height="34.75px">
<path fill-rule="evenodd"  stroke="rgb(51, 51, 51)" stroke-width="1.5px" stroke-linecap="butt" stroke-linejoin="miter" fill="none"
 d="M5.998,5.000 L27.998,5.000 C28.551,5.000 28.998,5.447 28.998,5.999 L28.998,14.000 C28.998,14.552 28.551,15.000 27.998,15.000 L5.998,15.000 C5.446,15.000 4.998,14.552 4.998,14.000 L4.998,5.999 C4.998,5.447 5.446,5.000 5.998,5.000 Z"/>
<path fill-rule="evenodd"  stroke="rgb(51, 51, 51)" stroke-width="1.5px" stroke-linecap="butt" stroke-linejoin="miter" fill="none"
 d="M5.998,23.000 L18.999,23.000 C19.551,23.000 19.999,23.447 19.999,24.000 L19.999,28.000 C19.999,28.552 19.551,29.000 18.999,29.000 L5.998,29.000 C5.446,29.000 4.998,28.552 4.998,28.000 L4.998,24.000 C4.998,23.447 5.446,23.000 5.998,23.000 Z"/>
<path fill-rule="evenodd"  stroke="rgb(51, 51, 51)" stroke-width="1.5px" stroke-linecap="butt" stroke-linejoin="miter" fill="none"
 d="M21.998,16.000 L27.998,16.000 C28.551,16.000 28.998,16.447 28.998,17.000 L28.998,28.000 C28.998,28.552 28.551,29.000 27.998,29.000 L21.998,29.000 C21.446,29.000 20.999,28.552 20.999,28.000 L20.999,17.000 C20.999,16.447 21.446,16.000 21.998,16.000 Z"/>
<path fill-rule="evenodd"  stroke="rgb(23, 204, 95)" stroke-width="1.5px" stroke-linecap="butt" stroke-linejoin="miter" fill="none"
 d="M5.998,16.000 L18.999,16.000 C19.551,16.000 19.999,16.448 19.999,17.000 L19.999,21.000 C19.999,21.552 19.551,22.000 18.999,22.000 L5.998,22.000 C5.446,22.000 4.998,21.552 4.998,21.000 L4.998,17.000 C4.998,16.448 5.446,16.000 5.998,16.000 Z"/>
<path fill-rule="evenodd"  fill="none"
 d="M0.000,0.000 L34.000,0.000 L34.000,34.000 L0.000,34.000 L0.000,0.000 Z"/>
</svg>
