<svg 
 xmlns="http://www.w3.org/2000/svg"
 xmlns:xlink="http://www.w3.org/1999/xlink"
 width="34.75px" height="34.75px">
<path fill-rule="evenodd"  stroke="rgb(255, 255, 255)" stroke-width="1.5px" stroke-linecap="butt" stroke-linejoin="miter" fill="none"
 d="M16.165,10.790 L16.165,27.548 C16.164,27.669 16.116,27.784 16.030,27.869 C15.944,27.953 15.828,28.001 15.707,28.000 L12.874,27.954 C12.753,27.955 12.637,27.908 12.551,27.823 C12.465,27.738 12.416,27.623 12.416,27.502 L12.416,10.744 L6.457,10.744 C6.336,10.745 6.220,10.697 6.134,10.613 C6.048,10.528 5.999,10.413 5.999,10.292 L5.999,6.451 C5.999,6.201 6.204,6.000 6.457,6.000 L22.040,6.000 C22.293,6.000 22.499,6.202 22.499,6.451 L22.499,10.292 C22.498,10.413 22.450,10.528 22.364,10.613 C22.277,10.697 22.161,10.745 22.040,10.744 L16.165,10.790 Z"/>
<path fill-rule="evenodd"  stroke="rgb(255, 255, 255)" stroke-width="1.5px" stroke-linecap="butt" stroke-linejoin="miter" fill="none"
 d="M25.249,19.502 L25.249,27.463 C25.248,27.584 25.199,27.699 25.114,27.784 C25.027,27.869 24.911,27.916 24.791,27.915 L22.957,27.915 C22.836,27.916 22.720,27.869 22.634,27.784 C22.548,27.699 22.499,27.584 22.499,27.463 L22.499,19.502 L20.208,19.502 C20.086,19.503 19.970,19.455 19.884,19.371 C19.798,19.286 19.750,19.171 19.748,19.050 L19.748,17.566 C19.748,17.317 19.954,17.114 20.208,17.114 L27.541,17.114 C27.793,17.114 27.999,17.315 27.999,17.566 L27.999,19.050 C27.998,19.171 27.949,19.286 27.863,19.371 C27.777,19.455 27.661,19.503 27.541,19.502 L25.249,19.502 Z"/>
<path fill-rule="evenodd"  fill="none"
 d="M0.000,0.000 L34.000,0.000 L34.000,34.000 L0.000,34.000 L0.000,0.000 Z"/>
</svg>
