<svg 
 xmlns="http://www.w3.org/2000/svg"
 xmlns:xlink="http://www.w3.org/1999/xlink"
 width="34px" height="34px">
<path fill-rule="evenodd"  fill="rgb(51, 51, 51)"
 d="M28.739,27.987 L21.268,27.987 C20.574,27.987 20.008,27.452 20.008,26.794 L20.008,7.187 C20.008,6.529 20.574,5.994 21.268,5.994 C21.499,5.994 21.717,6.097 21.856,6.272 L29.853,26.378 C29.947,26.499 29.999,26.645 29.999,26.795 C29.999,27.452 29.433,27.987 28.739,27.987 ZM21.477,8.111 L21.477,26.598 L28.192,26.598 L21.477,8.111 ZM13.729,27.987 L6.259,27.987 C5.564,27.987 4.999,27.452 4.999,26.795 C4.999,26.645 5.050,26.499 5.145,26.378 L13.142,6.272 C13.280,6.097 13.498,5.994 13.730,5.994 C14.425,5.994 14.990,6.529 14.990,7.187 L14.990,26.794 C14.990,27.452 14.425,27.987 13.729,27.987 ZM13.521,8.111 L6.806,26.598 L13.521,26.598 L13.521,8.111 Z"/>
<path fill-rule="evenodd"  fill="rgb(23, 204, 95)"
 d="M17.499,5.000 C17.775,5.000 17.999,5.224 17.999,5.500 L17.999,28.500 C17.999,28.776 17.775,29.000 17.499,29.000 C17.222,29.000 16.999,28.776 16.999,28.500 L16.999,5.500 C16.999,5.224 17.222,5.000 17.499,5.000 Z"/>
<path fill-rule="evenodd"  fill="none"
 d="M0.000,0.000 L34.000,0.000 L34.000,34.000 L0.000,34.000 L0.000,0.000 Z"/>
</svg>
