<svg 
 xmlns="http://www.w3.org/2000/svg"
 xmlns:xlink="http://www.w3.org/1999/xlink"
 width="34.75px" height="34.75px">
<path fill-rule="evenodd"  stroke="rgb(85, 85, 85)" stroke-width="1.5px" stroke-linecap="butt" stroke-linejoin="miter" fill="none"
 d="M16.756,14.024 L18.232,14.024 C18.555,14.024 18.810,13.769 18.810,13.447 L18.810,10.549 L21.882,10.549 C22.403,10.549 22.659,9.925 22.288,9.564 L17.898,5.173 C17.677,4.947 17.313,4.941 17.088,5.161 L17.076,5.173 L12.687,9.564 C12.464,9.790 12.464,10.158 12.694,10.380 C12.801,10.489 12.952,10.549 13.106,10.546 L16.177,10.546 L16.177,13.443 C16.177,13.769 16.431,14.021 16.756,14.024 L16.756,14.024 ZM13.440,16.181 L10.543,16.181 L10.543,13.109 C10.543,12.588 9.919,12.332 9.558,12.702 L5.170,17.090 C4.944,17.310 4.938,17.675 5.158,17.901 L5.170,17.913 L9.561,22.304 C9.919,22.662 10.545,22.409 10.545,21.885 L10.545,18.813 L13.443,18.813 C13.766,18.813 14.022,18.557 14.022,18.235 L14.022,16.759 C14.025,16.443 13.769,16.184 13.452,16.181 L13.440,16.181 ZM18.232,20.973 L16.756,20.973 C16.439,20.970 16.181,21.226 16.177,21.542 L16.177,24.448 L13.106,24.448 C12.585,24.448 12.329,25.071 12.699,25.433 L17.089,29.825 C17.310,30.051 17.674,30.056 17.900,29.836 L22.304,25.433 C22.527,25.208 22.527,24.840 22.298,24.617 C22.189,24.512 22.048,24.452 21.897,24.452 L18.816,24.452 L18.816,21.554 C18.819,21.238 18.563,20.979 18.247,20.976 C18.238,20.973 18.235,20.973 18.232,20.973 L18.232,20.973 Z"/>
<path fill-rule="evenodd"  stroke="rgb(85, 85, 85)" stroke-width="1.5px" stroke-linecap="butt" stroke-linejoin="miter" fill="none"
 d="M29.830,17.094 L25.438,12.702 C25.216,12.473 24.848,12.467 24.620,12.691 C24.508,12.799 24.446,12.949 24.446,13.106 L24.446,16.178 L21.547,16.178 C21.231,16.176 20.972,16.431 20.970,16.747 L20.970,18.232 C20.970,18.557 21.226,18.810 21.547,18.810 L24.446,18.810 L24.446,21.888 C24.446,22.409 25.068,22.665 25.430,22.295 L29.821,17.904 C30.047,17.687 30.055,17.325 29.840,17.096 C29.833,17.096 29.830,17.094 29.830,17.094 L29.830,17.094 Z"/>
<path fill-rule="evenodd"  fill="rgb(85, 85, 85)"
 d="M17.499,16.000 C18.328,16.000 18.999,16.671 18.999,17.500 C18.999,18.328 18.328,19.000 17.499,19.000 C16.671,19.000 15.998,18.328 15.998,17.500 C15.998,16.671 16.671,16.000 17.499,16.000 Z"/>
<path fill-rule="evenodd"  fill="none"
 d="M0.000,0.000 L34.000,0.000 L34.000,34.000 L0.000,34.000 L0.000,0.000 Z"/>
</svg>
