<svg 
 xmlns="http://www.w3.org/2000/svg"
 xmlns:xlink="http://www.w3.org/1999/xlink"
 width="34px" height="34px">
<path fill-rule="evenodd"  fill="rgb(51, 51, 51)"
 d="M17.999,15.000 L17.100,16.062 C17.065,16.081 17.033,16.105 16.999,16.127 C16.965,16.105 16.934,16.081 16.899,16.062 L8.470,11.375 L17.040,6.557 C17.040,6.557 17.243,6.670 17.588,6.862 C17.641,6.892 17.698,6.923 17.758,6.956 L18.809,5.704 C18.809,5.704 18.670,5.626 18.605,5.590 C18.144,5.334 17.866,5.179 17.866,5.179 C17.359,4.897 16.730,4.899 16.225,5.183 L6.855,10.440 C6.356,10.720 6.045,11.239 6.043,11.795 L5.999,22.239 C5.998,22.803 6.311,23.327 6.817,23.609 L16.133,28.789 C16.385,28.929 16.668,29.000 16.951,29.000 C17.235,29.000 17.521,28.928 17.774,28.786 L27.144,23.528 C27.643,23.249 27.954,22.729 27.957,22.173 C27.957,22.173 27.967,19.619 27.978,17.037 L26.327,17.784 L26.312,22.153 L17.846,26.912 L17.825,21.970 L17.844,17.645 C17.844,17.608 17.838,17.572 17.836,17.536 C17.856,17.496 17.886,17.462 17.927,17.440 C17.927,17.440 18.180,17.298 18.601,17.065 C18.640,17.042 19.218,16.348 19.000,16.000 C18.791,15.667 17.999,15.000 17.999,15.000 ZM7.652,22.245 L7.684,12.775 L16.072,17.440 C16.112,17.462 16.142,17.496 16.162,17.535 C16.160,17.572 16.155,17.608 16.155,17.645 L16.173,21.970 L16.153,26.963 L7.652,22.245 Z"/>
<path fill-rule="evenodd"  fill="rgb(203, 203, 203)"
 d="M23.691,5.041 C20.233,5.041 17.430,7.845 17.430,11.302 C17.430,14.760 20.233,17.563 23.691,17.563 C27.148,17.563 29.952,14.760 29.952,11.302 C29.952,7.845 27.148,5.041 23.691,5.041 L23.691,5.041 ZM27.865,12.346 L24.734,12.346 L24.734,15.476 L22.647,15.476 L22.647,12.346 L19.516,12.346 L19.516,10.259 L22.647,10.259 L22.647,7.128 L24.734,7.128 L24.734,10.259 L27.865,10.259 L27.865,12.346 Z"/>
<path fill-rule="evenodd"  fill="rgb(23, 204, 95)"
 d="M23.691,5.041 C20.233,5.041 17.430,7.845 17.430,11.302 C17.430,14.760 20.233,17.563 23.691,17.563 C27.148,17.563 29.952,14.760 29.952,11.302 C29.952,7.845 27.148,5.041 23.691,5.041 L23.691,5.041 ZM27.865,12.346 L24.734,12.346 L24.734,15.476 L22.647,15.476 L22.647,12.346 L19.516,12.346 L19.516,10.259 L22.647,10.259 L22.647,7.128 L24.734,7.128 L24.734,10.259 L27.865,10.259 L27.865,12.346 Z"/>
<path fill-rule="evenodd"  fill="none"
 d="M0.000,0.000 L34.000,0.000 L34.000,34.000 L0.000,34.000 L0.000,0.000 Z"/>
</svg>
