<svg 
 xmlns="http://www.w3.org/2000/svg"
 xmlns:xlink="http://www.w3.org/1999/xlink"
 width="34px" height="34px">
<path fill-rule="evenodd"  fill="rgb(203, 203, 203)"
 d="M17.999,15.000 L17.100,16.062 C17.065,16.081 17.033,16.105 16.999,16.127 C16.966,16.105 16.934,16.081 16.899,16.062 L8.470,11.375 L17.040,6.558 C17.040,6.558 17.244,6.671 17.588,6.862 C17.641,6.892 17.698,6.923 17.758,6.957 L18.810,5.704 C18.810,5.704 18.670,5.626 18.605,5.591 C18.144,5.334 17.866,5.180 17.866,5.180 C17.359,4.897 16.730,4.899 16.225,5.183 L6.855,10.440 C6.356,10.720 6.045,11.240 6.043,11.795 L5.999,22.239 C5.998,22.803 6.311,23.327 6.817,23.609 L16.133,28.789 C16.385,28.930 16.668,29.000 16.951,29.000 C17.236,29.000 17.521,28.928 17.774,28.786 L27.144,23.529 C27.643,23.249 27.954,22.730 27.957,22.174 C27.957,22.174 27.967,19.620 27.978,17.037 L26.327,17.784 L26.312,22.153 L17.846,26.913 L17.826,21.970 L17.844,17.646 C17.844,17.609 17.839,17.572 17.836,17.536 C17.857,17.497 17.886,17.462 17.927,17.440 C17.927,17.440 18.181,17.298 18.601,17.065 C18.640,17.043 19.218,16.348 19.000,16.000 C18.791,15.667 17.999,15.000 17.999,15.000 ZM7.652,22.245 L7.684,12.775 L16.072,17.440 C16.113,17.462 16.142,17.497 16.163,17.536 C16.160,17.572 16.155,17.608 16.155,17.645 L16.173,21.970 L16.153,26.964 L7.652,22.245 Z"/>
<path fill-rule="evenodd"  fill="rgb(203, 203, 203)"
 d="M23.691,5.041 C20.233,5.041 17.430,7.845 17.430,11.302 C17.430,14.761 20.233,17.563 23.691,17.563 C27.149,17.563 29.952,14.761 29.952,11.302 C29.952,7.845 27.149,5.041 23.691,5.041 L23.691,5.041 ZM27.865,12.346 L24.735,12.346 L24.735,15.477 L22.647,15.477 L22.647,12.346 L19.516,12.346 L19.516,10.259 L22.647,10.259 L22.647,7.128 L24.735,7.128 L24.735,10.259 L27.865,10.259 L27.865,12.346 Z"/>
<path fill-rule="evenodd"  fill="rgb(23, 204, 95)"
 d="M23.691,5.041 C20.233,5.041 17.430,7.845 17.430,11.302 C17.430,14.761 20.233,17.563 23.691,17.563 C27.149,17.563 29.952,14.761 29.952,11.302 C29.952,7.845 27.149,5.041 23.691,5.041 L23.691,5.041 ZM27.865,12.346 L24.735,12.346 L24.735,15.477 L22.647,15.477 L22.647,12.346 L19.516,12.346 L19.516,10.259 L22.647,10.259 L22.647,7.128 L24.735,7.128 L24.735,10.259 L27.865,10.259 L27.865,12.346 Z"/>
<path fill-rule="evenodd"  fill="none"
 d="M0.000,0.000 L34.000,0.000 L34.000,34.000 L0.000,34.000 L0.000,0.000 Z"/>
</svg>
