<svg 
 xmlns="http://www.w3.org/2000/svg"
 xmlns:xlink="http://www.w3.org/1999/xlink"
 width="34px" height="34px">
<path fill-rule="evenodd"  fill="rgb(255, 255, 255)"
 d="M23.691,17.563 C20.233,17.563 17.430,14.760 17.430,11.302 C17.430,7.845 20.233,5.041 23.691,5.041 C27.149,5.041 29.952,7.845 29.952,11.302 C29.952,14.760 27.149,17.563 23.691,17.563 ZM27.865,10.259 L24.735,10.259 L24.735,7.129 L22.647,7.129 L22.647,10.259 L19.516,10.259 L19.516,12.346 L22.647,12.346 L22.647,15.477 L24.735,15.477 L24.735,12.346 L27.865,12.346 L27.865,10.259 ZM17.588,6.862 C17.244,6.671 17.040,6.558 17.040,6.558 L8.470,11.375 L16.899,16.062 C16.934,16.081 16.966,16.105 16.999,16.127 C17.033,16.105 17.065,16.082 17.100,16.062 L17.653,15.409 C17.989,15.903 18.401,16.335 18.846,16.732 C18.736,16.910 18.618,17.055 18.601,17.065 C18.181,17.298 17.927,17.440 17.927,17.440 C17.886,17.462 17.857,17.497 17.836,17.536 C17.839,17.572 17.844,17.609 17.844,17.646 L17.826,21.970 L17.846,26.913 L26.312,22.153 L26.326,18.098 C26.920,17.867 27.470,17.563 27.977,17.193 C27.966,19.721 27.957,22.174 27.957,22.174 C27.954,22.729 27.643,23.249 27.144,23.529 L17.774,28.786 C17.521,28.929 17.236,29.000 16.951,29.000 C16.668,29.000 16.385,28.930 16.133,28.789 L6.817,23.609 C6.311,23.327 5.998,22.803 5.999,22.240 L6.043,11.795 C6.045,11.239 6.356,10.720 6.855,10.440 L16.225,5.183 C16.730,4.899 17.359,4.897 17.866,5.180 C17.866,5.180 18.144,5.334 18.605,5.591 C18.670,5.626 18.810,5.704 18.810,5.704 L17.758,6.957 C17.698,6.923 17.641,6.892 17.588,6.862 ZM7.652,22.245 L16.153,26.963 L16.173,21.970 L16.155,17.645 C16.155,17.608 16.160,17.572 16.163,17.536 C16.142,17.497 16.113,17.462 16.072,17.440 L7.684,12.775 L7.652,22.245 Z"/>
<path fill-rule="evenodd"  fill="none"
 d="M0.000,0.000 L34.000,0.000 L34.000,34.000 L0.000,34.000 L0.000,0.000 Z"/>
</svg>
