<svg 
 xmlns="http://www.w3.org/2000/svg"
 xmlns:xlink="http://www.w3.org/1999/xlink"
 width="34px" height="34px">
<path fill-rule="evenodd"  fill="rgb(255, 255, 255)"
 d="M23.111,26.777 L23.111,24.944 C23.111,24.577 22.866,24.333 22.499,24.333 C22.132,24.333 21.888,24.577 21.888,24.944 L21.888,26.777 L19.444,26.777 L19.444,24.944 C19.444,24.577 19.199,24.333 18.833,24.333 C18.466,24.333 18.222,24.577 18.222,24.944 L18.222,26.777 L15.777,26.777 L15.777,24.944 C15.777,24.577 15.532,24.333 15.166,24.333 C14.800,24.333 14.555,24.577 14.555,24.944 L14.555,26.777 L12.111,26.777 L12.111,24.944 C12.111,24.577 11.866,24.333 11.499,24.333 C11.132,24.333 10.888,24.577 10.888,24.944 L10.888,26.777 L9.055,26.777 C8.566,26.777 8.077,26.594 7.771,26.227 C7.405,25.861 7.221,25.433 7.221,24.944 L7.221,21.889 L9.055,21.889 C9.422,21.889 9.666,21.644 9.666,21.278 C9.666,20.911 9.422,20.666 9.055,20.666 L7.221,20.666 L7.221,18.222 L9.055,18.222 C9.422,18.222 9.666,17.978 9.666,17.611 C9.666,17.244 9.422,17.000 9.055,17.000 L7.221,17.000 L7.221,14.555 L9.055,14.555 C9.422,14.555 9.666,14.311 9.666,13.944 C9.666,13.578 9.422,13.333 9.055,13.333 L7.221,13.333 L7.221,10.889 L9.055,10.889 C9.422,10.889 9.666,10.644 9.666,10.277 C9.666,9.911 9.422,9.666 9.055,9.666 L7.221,9.666 L7.221,7.833 C7.221,7.466 7.007,25.686 6.999,26.000 C6.992,26.313 7.967,26.861 8.999,27.000 C10.031,27.138 22.999,27.000 22.999,27.000 L23.111,26.777 Z"/>
<path fill-rule="evenodd"  fill="rgb(255, 255, 255)"
 d="M26.166,20.666 L13.333,20.666 L13.333,7.833 C13.333,6.794 12.538,6.000 11.499,6.000 L7.832,6.000 C6.794,6.000 5.999,6.794 5.999,7.833 L5.999,24.944 C5.999,25.739 6.305,26.533 6.916,27.083 C7.466,27.694 8.260,28.000 9.055,28.000 L26.166,28.000 C27.205,28.000 28.000,27.206 28.000,26.166 L28.000,22.500 C28.000,21.461 27.205,20.666 26.166,20.666 L26.166,20.666 ZM10.888,26.777 L9.055,26.777 C8.566,26.777 8.077,26.594 7.771,26.227 C7.405,25.861 7.221,25.433 7.221,24.944 L7.221,21.889 L7.221,9.666 L7.221,7.833 C7.221,7.466 7.466,7.222 7.832,7.222 L11.499,7.222 C11.866,7.222 12.111,7.466 12.111,7.833 L12.111,21.278 C12.111,21.644 12.355,21.889 12.722,21.889 L26.166,21.889 C26.533,21.889 26.777,22.133 26.777,22.500 L26.777,26.166 C26.777,26.533 26.533,26.777 26.166,26.777 L23.111,26.777 "/>
<path fill-rule="evenodd"  fill="none"
 d="M0.000,0.000 L34.000,0.000 L34.000,34.000 L0.000,34.000 L0.000,0.000 Z"/>
</svg>
