<svg 
 xmlns="http://www.w3.org/2000/svg"
 xmlns:xlink="http://www.w3.org/1999/xlink"
 width="34.75px" height="34.75px">
<path fill-rule="evenodd"  fill="rgb(203, 203, 203)"
 d="M27.285,6.001 C27.611,6.001 27.927,6.230 27.988,6.590 L27.999,6.714 L27.999,22.531 C27.998,22.662 27.962,22.791 27.893,22.903 L27.815,23.008 L23.529,27.764 C23.393,27.914 23.201,28.000 22.999,28.000 L6.713,28.000 C6.318,28.000 5.999,27.680 5.999,27.285 L5.999,11.000 C5.999,10.778 6.099,10.580 6.259,10.448 L11.416,6.164 C11.512,6.085 11.627,6.032 11.749,6.011 L11.870,6.000 L27.285,6.000 L27.285,6.001 ZM22.284,11.716 L7.427,11.716 L7.427,26.573 L22.284,26.573 L22.284,11.716 ZM26.570,8.574 L23.713,11.744 L23.713,25.425 L26.570,22.255 L26.570,8.574 ZM25.679,7.428 L12.127,7.430 L8.689,10.286 L22.999,10.287 C23.031,10.287 23.064,10.290 23.096,10.294 L25.679,7.428 Z"/>
<path fill-rule="evenodd"  stroke="rgb(23, 204, 95)" stroke-width="1.5px" stroke-linecap="butt" stroke-linejoin="miter" fill="none"
 d="M14.999,14.000 C17.760,14.000 19.998,16.238 19.998,19.000 C19.998,21.761 17.760,24.000 14.999,24.000 C12.237,24.000 9.999,21.761 9.999,19.000 C9.999,16.238 12.237,14.000 14.999,14.000 Z"/>
<path fill-rule="evenodd"  fill="none"
 d="M0.000,0.000 L34.000,0.000 L34.000,34.000 L0.000,34.000 L0.000,0.000 Z"/>
</svg>
