<svg 
 xmlns="http://www.w3.org/2000/svg"
 xmlns:xlink="http://www.w3.org/1999/xlink"
 width="34.6px" height="34.6px">
<path fill-rule="evenodd"  stroke="rgb(23, 204, 95)" stroke-width="1px" stroke-linecap="butt" stroke-linejoin="miter" fill="none"
 d="M16.554,6.052 L25.850,12.196 C25.993,12.280 26.038,12.460 25.949,12.597 L19.552,15.856 C19.464,15.993 19.275,16.036 19.132,15.951 L10.142,10.098 C9.998,10.014 9.953,9.834 10.041,9.697 L16.134,6.147 C16.222,6.010 16.411,5.968 16.554,6.052 Z"/>
<path fill-rule="evenodd"  stroke="rgb(23, 204, 95)" stroke-width="1px" stroke-linecap="butt" stroke-linejoin="miter" fill="none"
 d="M18.996,26.007 L18.996,30.006 "/>
<path fill-rule="evenodd"  stroke="rgb(23, 204, 95)" stroke-width="1px" stroke-linecap="butt" stroke-linejoin="miter" fill="none"
 d="M9.985,20.619 L9.985,23.482 C9.985,23.482 18.261,29.151 18.405,29.208 C18.548,29.264 25.003,25.153 25.020,25.171 C25.037,25.190 25.020,20.998 25.020,20.998 "/>
<path fill-rule="evenodd"  stroke="rgb(23, 204, 95)" stroke-width="1px" stroke-dasharray="2, 2" stroke-linecap="butt" stroke-linejoin="miter" fill="none"
 d="M12.999,12.000 L15.999,10.000 L21.999,14.000 "/>
<path fill-rule="evenodd"  stroke="rgb(23, 204, 95)" stroke-width="1px" stroke-dasharray="2, 2" stroke-linecap="butt" stroke-linejoin="miter" fill="none"
 d="M16.996,8.004 L16.996,10.591 "/>
<path fill-rule="evenodd"  stroke="rgb(51, 51, 51)" stroke-width="1.2px" stroke-linecap="butt" stroke-linejoin="miter" fill="none"
 d="M19.997,19.011 L19.997,25.479 "/>
<path fill-rule="evenodd"  stroke="rgb(51, 51, 51)" stroke-width="1.2px" stroke-linecap="butt" stroke-linejoin="miter" fill="none"
 d="M15.734,3.061 L29.536,12.405 C29.719,12.517 29.776,12.757 29.663,12.939 L19.169,18.829 C19.056,19.012 18.816,19.069 18.632,18.956 L4.831,9.224 C4.648,9.112 4.591,8.873 4.704,8.690 L15.198,3.188 C15.311,3.006 15.551,2.949 15.734,3.061 Z"/>
<path fill-rule="evenodd"  stroke="rgb(51, 51, 51)" stroke-width="1.2px" stroke-linecap="butt" stroke-linejoin="miter" fill="none"
 d="M5.894,9.027 C5.894,9.027 5.894,16.950 5.894,17.177 C5.894,17.404 6.441,17.627 7.062,17.954 C7.683,18.280 18.845,25.377 18.905,25.387 C18.967,25.396 27.857,17.699 28.024,17.565 C28.191,17.432 28.024,12.520 28.024,12.520 "/>
<path fill-rule="evenodd"  fill="none"
 d="M0.000,0.000 L34.000,0.000 L34.000,34.000 L0.000,34.000 L0.000,0.000 Z"/>
</svg>
