<svg 
 xmlns="http://www.w3.org/2000/svg"
 xmlns:xlink="http://www.w3.org/1999/xlink"
 width="34.9px" height="34.9px">
<path fill-rule="evenodd"  fill="rgb(23, 204, 95)"
 d="M23.355,27.624 L23.355,22.754 L20.837,21.184 L20.837,20.007 L24.266,22.067 L25.173,27.624 L23.355,27.624 ZM18.811,25.500 L18.914,23.833 L19.493,22.067 L20.454,24.421 L20.629,27.560 L18.811,27.560 L18.811,25.500 ZM15.175,24.127 L15.175,27.560 L13.354,27.560 L13.354,24.127 L15.175,22.754 L16.604,22.065 L16.268,22.860 L15.175,24.127 ZM10.628,22.754 L10.628,27.560 L8.810,27.560 L8.810,24.127 L10.628,20.834 L12.446,20.133 L11.992,21.184 L10.628,22.754 Z"/>
<path fill-rule="evenodd"  stroke="rgb(203, 203, 203)" stroke-width="1.8px" stroke-linecap="butt" stroke-linejoin="miter" fill="none"
 d="M5.767,28.000 L28.230,28.000 C28.655,28.000 28.999,28.344 28.999,28.768 C28.999,29.192 28.655,29.537 28.230,29.537 L5.767,29.537 C5.342,29.537 4.999,29.192 4.999,28.768 C4.999,28.344 5.342,28.000 5.767,28.000 Z"/>
<path fill-rule="evenodd"  stroke="rgb(203, 203, 203)" stroke-width="1.5px" stroke-linecap="butt" stroke-linejoin="miter" fill="none"
 d="M18.981,5.832 L25.164,12.000 C26.269,13.102 26.269,14.888 25.164,15.990 L18.981,22.158 C17.876,23.260 16.085,23.260 14.980,22.158 L8.797,15.990 C7.692,14.888 7.692,13.102 8.797,12.000 L14.980,5.832 C16.085,4.730 17.876,4.730 18.981,5.832 Z"/>
<path fill-rule="evenodd"  fill="none"
 d="M0.000,0.000 L34.000,0.000 L34.000,34.000 L0.000,34.000 L0.000,0.000 Z"/>
</svg>
