<svg 
 xmlns="http://www.w3.org/2000/svg"
 xmlns:xlink="http://www.w3.org/1999/xlink"
 width="20px" height="20px">
<path fill-rule="evenodd"  fill="rgb(252, 225, 0)"
 d="M10.000,0.000 C15.523,0.000 20.000,4.477 20.000,10.000 C20.000,15.523 15.523,20.000 10.000,20.000 C4.477,20.000 0.000,15.523 0.000,10.000 C0.000,4.477 4.477,0.000 10.000,0.000 Z"/>
<path fill-rule="evenodd"  fill="rgb(0, 0, 0)"
 d="M11.555,15.538 C11.328,15.785 11.067,15.935 10.777,15.992 C10.684,15.997 10.594,16.000 10.499,16.000 C10.404,16.000 10.313,15.997 10.220,15.992 C9.928,15.935 9.669,15.783 9.442,15.538 C9.147,15.215 9.000,14.830 9.000,14.371 C9.000,13.918 9.147,13.524 9.442,13.195 C9.737,12.867 10.091,12.701 10.499,12.701 C10.906,12.701 11.260,12.867 11.555,13.195 C11.851,13.524 11.997,13.918 11.997,14.371 C12.000,14.827 11.853,15.218 11.555,15.538 L11.555,15.538 ZM11.216,11.702 L9.808,11.702 C9.637,9.384 9.003,6.196 9.003,5.762 C9.003,5.265 9.142,4.847 9.422,4.510 C9.705,4.171 10.062,4.000 10.501,4.000 C10.938,4.000 11.297,4.168 11.580,4.502 C11.860,4.839 12.000,5.257 12.000,5.762 C12.000,6.196 11.414,9.384 11.216,11.702 L11.216,11.702 Z"/>
</svg>
