<svg 
 xmlns="http://www.w3.org/2000/svg"
 xmlns:xlink="http://www.w3.org/1999/xlink"
 width="16px" height="16px">
<path fill-rule="evenodd"  fill="rgb(255, 255, 255)"
 d="M15.752,15.764 C15.599,15.915 15.389,16.000 15.170,16.000 L0.820,16.000 C0.526,16.000 0.254,15.846 0.107,15.597 C-0.040,15.349 -0.040,15.042 0.107,14.793 C0.254,14.544 0.526,14.391 0.820,14.391 L15.170,14.391 C15.389,14.391 15.599,14.476 15.752,14.626 C15.907,14.777 15.993,14.982 15.993,15.195 C15.993,15.408 15.907,15.613 15.752,15.764 ZM5.470,11.869 C5.310,12.026 5.108,12.137 4.888,12.189 L1.891,12.900 C1.455,13.003 0.996,12.867 0.692,12.544 C0.387,12.222 0.286,11.763 0.427,11.347 L1.325,8.706 C1.386,8.528 1.488,8.366 1.624,8.234 L9.449,0.588 C10.253,-0.197 11.555,-0.197 12.359,0.588 L13.232,1.441 C13.620,1.818 13.835,2.330 13.835,2.863 C13.835,3.396 13.620,3.908 13.232,4.285 L5.470,11.869 ZM2.224,11.165 L4.387,10.652 L9.986,5.181 L8.532,3.760 L2.857,9.304 L2.224,11.165 ZM12.068,2.578 L11.196,1.726 C11.035,1.569 10.775,1.569 10.613,1.726 L9.695,2.623 L11.150,4.044 L12.068,3.147 C12.230,2.990 12.230,2.736 12.068,2.578 Z"/>
</svg>
