<svg 
 xmlns="http://www.w3.org/2000/svg"
 xmlns:xlink="http://www.w3.org/1999/xlink"
 width="14px" height="14px">
<path fill-rule="evenodd"  fill="rgb(173, 173, 179)"
 d="M13.350,13.314 L13.350,11.358 L11.296,11.358 L11.296,13.314 L13.350,13.314 L13.350,14.000 L0.685,14.000 L0.685,13.314 L2.636,13.314 L2.636,11.358 L0.685,11.358 L0.685,12.662 L0.685,13.314 L-0.000,13.314 L-0.000,12.662 L-0.000,0.618 L0.685,0.618 L0.685,2.676 L2.636,2.676 L2.636,0.618 L0.685,0.618 L0.685,-0.000 L13.350,-0.000 L13.350,0.618 L11.296,0.618 L11.296,2.676 L13.350,2.676 L13.350,0.618 L14.000,0.618 L14.000,5.319 L14.000,6.005 L14.000,13.314 L13.350,13.314 ZM2.636,3.294 L0.685,3.294 L0.685,5.319 L1.369,5.319 L2.636,5.319 L2.636,3.294 ZM2.636,6.005 L1.369,6.005 L0.685,6.005 L0.685,7.995 L2.636,7.995 L2.636,6.005 ZM2.636,8.647 L0.685,8.647 L0.685,10.672 L2.636,10.672 L2.636,8.647 ZM5.340,0.618 L3.320,0.618 L3.320,2.676 L5.340,2.676 L5.340,0.618 ZM5.340,3.294 L3.320,3.294 L3.320,5.319 L5.340,5.319 L5.340,3.294 ZM5.340,6.005 L3.320,6.005 L3.320,7.995 L5.340,7.995 L5.340,6.005 ZM5.340,8.647 L3.320,8.647 L3.320,10.672 L5.340,10.672 L5.340,8.647 ZM5.340,11.358 L3.320,11.358 L3.320,13.314 L5.340,13.314 L5.340,11.358 ZM7.976,0.618 L5.990,0.618 L5.990,2.676 L7.976,2.676 L7.976,0.618 ZM7.976,3.294 L5.990,3.294 L5.990,5.319 L7.976,5.319 L7.976,3.294 ZM7.976,6.005 L5.990,6.005 L5.990,7.995 L7.976,7.995 L7.976,6.005 ZM7.976,8.647 L5.990,8.647 L5.990,10.672 L7.976,10.672 L7.976,8.647 ZM7.976,11.358 L5.990,11.358 L5.990,13.314 L7.976,13.314 L7.976,11.358 ZM10.680,0.618 L8.660,0.618 L8.660,2.676 L10.680,2.676 L10.680,0.618 ZM10.680,3.294 L8.660,3.294 L8.660,5.319 L10.680,5.319 L10.680,3.294 ZM10.680,6.005 L8.660,6.005 L8.660,7.995 L10.680,7.995 L10.680,6.005 ZM10.680,8.647 L8.660,8.647 L8.660,10.672 L10.680,10.672 L10.680,8.647 ZM10.680,11.358 L8.660,11.358 L8.660,13.314 L10.680,13.314 L10.680,11.358 ZM13.350,3.294 L11.296,3.294 L11.296,5.319 L13.350,5.319 L13.350,3.294 ZM13.350,6.005 L11.296,6.005 L11.296,7.995 L13.350,7.995 L13.350,6.005 ZM13.350,8.647 L11.296,8.647 L11.296,10.672 L13.350,10.672 L13.350,8.647 Z"/>
</svg>
