<svg 
 xmlns="http://www.w3.org/2000/svg"
 xmlns:xlink="http://www.w3.org/1999/xlink"
 width="90px" height="80px">
<path fill-rule="evenodd"  fill="rgb(72, 72, 74)"
 d="M44.997,64.996 L45.019,64.996 C47.516,64.996 49.919,65.495 52.106,66.391 L84.557,79.704 C84.946,79.871 85.400,79.981 85.880,80.004 C86.517,80.035 86.772,79.173 86.222,78.843 L49.859,56.728 C48.359,55.833 46.677,55.385 44.997,55.385 L44.992,55.385 L44.992,55.385 C43.312,55.385 41.631,55.833 40.131,56.728 L3.767,78.844 C3.217,79.173 3.473,80.036 4.109,80.004 C4.590,79.981 5.044,79.871 5.432,79.704 L37.883,66.391 C40.072,65.495 42.473,64.997 44.971,64.997 L44.992,64.997 L44.997,64.997 L44.997,64.996 ZM44.992,8.963 L44.997,8.963 C45.554,8.939 46.176,9.357 46.378,9.892 L59.749,41.292 C60.933,44.072 62.949,48.959 64.187,51.712 L64.505,52.439 L64.810,53.205 L64.960,53.626 L65.084,54.013 L65.191,54.392 L65.277,54.763 L65.343,55.130 L65.386,55.515 L65.395,55.860 L65.377,56.124 L65.338,56.354 L65.280,56.551 L65.205,56.719 L65.111,56.869 L64.988,57.012 L64.809,57.165 L64.597,57.299 L64.338,57.424 L63.974,57.510 L63.605,57.550 L63.220,57.542 L62.837,57.487 L62.456,57.384 L62.083,57.237 L61.719,57.047 L61.366,56.815 L60.634,56.286 L59.733,55.626 L58.437,54.670 C58.320,54.599 58.281,54.384 58.366,54.275 C58.431,54.152 58.638,54.104 58.747,54.187 L61.125,55.670 C61.633,56.029 62.499,55.940 62.928,55.484 C63.405,55.081 63.561,54.200 63.255,53.650 L47.554,21.355 C47.074,20.399 46.116,19.738 44.997,19.738 L44.997,19.738 L44.992,19.738 C43.874,19.738 42.915,20.399 42.435,21.355 L26.735,53.650 C26.428,54.200 26.585,55.081 27.061,55.484 C27.490,55.940 28.356,56.030 28.864,55.670 L31.242,54.187 C31.351,54.104 31.559,54.152 31.623,54.275 C31.708,54.384 31.670,54.600 31.552,54.670 L30.257,55.626 L29.355,56.286 L28.623,56.815 L28.271,57.047 L27.906,57.237 L27.533,57.384 L27.153,57.487 L26.769,57.542 L26.384,57.550 L26.015,57.510 L25.652,57.424 L25.393,57.299 L25.181,57.165 L25.001,57.012 L24.878,56.869 L24.784,56.719 L24.710,56.551 L24.651,56.355 L24.612,56.124 L24.594,55.860 L24.604,55.515 L24.647,55.130 L24.712,54.763 L24.799,54.393 L24.906,54.013 L25.029,53.626 L25.180,53.205 L25.485,52.439 L25.802,51.713 C27.040,48.959 29.056,44.072 30.240,41.292 L43.612,9.892 C43.813,9.358 44.435,8.939 44.992,8.964 L44.992,8.963 ZM44.997,5.688 L44.997,5.688 L44.992,5.688 C43.975,5.656 42.964,6.324 42.564,7.296 L42.181,8.193 L40.672,11.754 C36.314,21.974 24.434,51.062 24.434,51.062 C23.326,53.527 21.747,57.525 25.152,58.889 C26.714,59.391 28.275,58.970 29.489,58.085 C31.996,56.292 39.574,50.584 40.672,49.918 C41.160,49.640 41.677,49.412 42.214,49.230 C43.112,48.926 44.052,48.774 44.992,48.775 L44.992,48.774 C45.934,48.774 46.875,48.926 47.775,49.230 C48.312,49.412 48.829,49.639 49.317,49.918 C50.416,50.583 57.993,56.291 60.501,58.085 C61.714,58.969 63.276,59.391 64.837,58.889 C68.242,57.524 66.663,53.526 65.555,51.061 C65.555,51.061 53.675,21.974 49.317,11.754 L47.808,8.193 L47.425,7.295 C47.026,6.324 46.015,5.656 44.997,5.688 M44.992,51.742 C43.487,51.734 41.926,52.205 40.662,53.047 L2.156,78.424 C1.898,78.593 1.548,78.649 1.253,78.569 C0.955,78.497 0.672,78.277 0.523,78.003 C-0.166,76.861 -0.179,75.159 0.493,74.007 L38.578,3.875 C39.727,1.587 42.491,-0.082 44.992,0.002 L44.992,0.002 L44.997,0.002 C47.499,-0.082 50.263,1.587 51.411,3.875 L89.497,74.007 C90.168,75.159 90.156,76.861 89.467,78.003 C89.317,78.277 89.034,78.497 88.736,78.569 C88.442,78.649 88.091,78.593 87.834,78.424 L49.327,53.047 C48.064,52.205 46.503,51.734 44.997,51.742 L44.997,51.742 L44.992,51.742 Z"/>
</svg>
