<svg 
 xmlns="http://www.w3.org/2000/svg"
 xmlns:xlink="http://www.w3.org/1999/xlink"
 width="18px" height="18px">
<path fill-rule="evenodd"  fill="rgb(23, 204, 95)"
 d="M8.999,-0.000 C13.969,-0.000 17.999,4.029 17.999,8.999 C17.999,13.970 13.969,17.999 8.999,17.999 C4.028,17.999 -0.001,13.970 -0.001,8.999 C-0.001,4.029 4.028,-0.000 8.999,-0.000 Z"/>
<path fill-rule="evenodd"  fill="rgb(255, 255, 255)"
 d="M7.744,10.715 L9.846,10.715 C9.670,8.718 11.987,8.098 11.987,5.996 C11.987,3.893 10.672,3.001 8.991,3.001 C7.771,3.001 6.741,3.636 5.995,4.589 L7.324,5.951 C7.744,5.481 8.138,5.164 8.693,5.164 C9.249,5.164 9.670,5.512 9.670,6.178 C9.670,7.418 7.419,8.386 7.744,10.715 ZM8.788,15.011 C9.614,15.011 10.225,14.270 10.225,13.333 C10.225,12.410 9.614,11.668 8.788,11.668 C7.947,11.668 7.351,12.410 7.351,13.333 C7.351,14.270 7.947,15.011 8.788,15.011 Z"/>
</svg>
