<svg 
 xmlns="http://www.w3.org/2000/svg"
 xmlns:xlink="http://www.w3.org/1999/xlink"
 width="14px" height="14px">
<path fill-rule="evenodd"  fill="rgb(255, 255, 255)"
 d="M13.992,10.085 C13.992,11.548 13.297,12.851 12.217,13.691 C12.157,13.738 12.095,13.784 12.033,13.827 C11.274,14.358 10.753,13.445 11.335,13.040 C11.399,12.995 11.460,12.948 11.523,12.899 C12.332,12.253 12.850,11.264 12.850,10.155 C12.850,9.442 12.630,8.782 12.262,8.228 C12.176,10.704 9.473,12.696 6.135,12.696 C2.742,12.696 -0.008,10.642 -0.008,8.110 C-0.008,7.358 0.246,6.653 0.676,6.026 C0.257,5.463 -0.002,4.835 -0.002,4.162 C-0.002,1.863 2.746,-0.000 6.137,-0.000 C9.527,-0.000 12.275,1.863 12.275,4.162 C12.275,4.836 12.016,5.464 11.596,6.028 C11.616,6.059 11.642,6.087 11.662,6.118 C13.051,6.911 13.992,8.386 13.992,10.085 ZM10.451,5.309 L8.278,4.370 L8.531,6.627 C9.375,6.320 10.054,5.864 10.451,5.309 ZM6.135,10.297 C8.265,10.297 9.992,9.002 9.992,7.404 C9.992,7.397 9.989,7.385 9.989,7.377 C8.933,7.960 7.604,8.323 6.137,8.323 C4.668,8.323 3.337,7.959 2.281,7.376 C2.281,7.384 2.278,7.396 2.278,7.404 C2.278,9.002 4.005,10.297 6.135,10.297 ZM7.517,6.900 L7.278,5.358 L4.625,6.875 C5.102,6.975 5.605,7.041 6.137,7.041 C6.620,7.041 7.078,6.983 7.517,6.900 ZM3.428,6.510 L4.706,5.500 L1.710,5.113 C2.039,5.681 2.638,6.169 3.428,6.510 ZM1.473,3.826 L4.134,4.089 L2.564,2.279 C1.969,2.706 1.581,3.237 1.473,3.826 ZM3.469,1.765 L4.421,3.242 L5.471,1.296 C4.737,1.361 4.053,1.518 3.469,1.765 ZM5.002,4.162 C5.002,4.591 5.510,4.939 6.137,4.939 C6.764,4.939 7.272,4.591 7.272,4.162 C7.272,3.732 6.764,3.384 6.137,3.384 C5.510,3.384 5.002,3.732 5.002,4.162 ZM7.226,1.340 L6.278,2.678 L8.957,1.842 C8.448,1.607 7.865,1.433 7.226,1.340 ZM10.439,2.973 L7.706,3.242 L10.847,4.187 C10.847,4.173 10.853,4.161 10.853,4.148 C10.853,3.728 10.701,3.332 10.439,2.973 Z"/>
</svg>
