<svg 
 xmlns="http://www.w3.org/2000/svg"
 xmlns:xlink="http://www.w3.org/1999/xlink"
 width="18px" height="18px">
<path fill-rule="evenodd"  fill="rgb(110, 110, 115)"
 d="M8.998,-0.001 C13.968,-0.001 17.999,4.029 17.999,8.999 C17.999,13.970 13.968,17.999 8.998,17.999 C4.027,17.999 -0.002,13.970 -0.002,8.999 C-0.002,4.029 4.027,-0.001 8.998,-0.001 Z"/>
<path fill-rule="evenodd"  fill="rgb(255, 255, 255)"
 d="M8.452,10.429 L10.204,10.429 C10.057,8.765 11.989,8.249 11.989,6.496 C11.989,4.744 10.893,4.001 9.492,4.001 C8.475,4.001 7.617,4.530 6.995,5.324 L8.102,6.459 C8.452,6.068 8.781,5.803 9.243,5.803 C9.707,5.803 10.057,6.093 10.057,6.648 C10.057,7.682 8.182,8.488 8.452,10.429 ZM9.323,14.010 C10.011,14.010 10.521,13.392 10.521,12.610 C10.521,11.841 10.011,11.223 9.323,11.223 C8.622,11.223 8.125,11.841 8.125,12.610 C8.125,13.392 8.622,14.010 9.323,14.010 Z"/>
</svg>
