<svg 
 xmlns="http://www.w3.org/2000/svg"
 xmlns:xlink="http://www.w3.org/1999/xlink"
 width="138.5px" height="101.5px">
<path fill-rule="evenodd"  stroke="rgb(110, 110, 115)" stroke-width="1px" stroke-linecap="butt" stroke-linejoin="miter" fill="rgb(79, 79, 83)"
 d="M22.820,0.500 L115.180,0.500 C119.431,0.500 123.274,2.985 123.771,6.102 L137.393,91.433 C138.185,96.393 134.374,100.500 128.863,100.500 L9.137,100.500 C3.626,100.500 -0.185,96.393 0.607,91.433 L14.229,6.102 C14.726,2.985 18.569,0.500 22.820,0.500 Z"/>
<path fill-rule="evenodd"  fill="rgb(104, 104, 107)"
 d="M136.764,90.547 L126.526,90.547 L127.804,100.038 C127.838,100.293 127.642,100.500 127.367,100.500 C127.091,100.500 126.841,100.293 126.807,100.038 L125.551,90.547 L116.776,90.547 L117.837,100.038 C117.865,100.293 117.665,100.500 117.390,100.500 C117.114,100.500 116.868,100.293 116.840,100.038 L115.801,90.547 L106.051,90.547 L106.873,100.038 C106.896,100.293 106.690,100.500 106.415,100.500 C106.139,100.500 105.898,100.293 105.877,100.038 L105.076,90.547 L95.326,90.547 L95.910,100.038 C95.926,100.293 95.715,100.500 95.440,100.500 C95.164,100.500 94.929,100.293 94.913,100.038 L94.351,90.547 L85.575,90.547 L85.943,100.038 C85.953,100.293 85.738,100.500 85.462,100.500 C85.187,100.500 84.956,100.293 84.947,100.038 L84.600,90.547 L74.850,90.547 L74.980,100.038 C74.984,100.293 74.763,100.500 74.487,100.500 C74.212,100.500 73.986,100.293 73.983,100.038 L73.875,90.547 L64.125,90.547 L64.017,100.038 C64.014,100.293 63.788,100.500 63.513,100.500 C63.237,100.500 63.016,100.293 63.020,100.038 L63.150,90.547 L53.400,90.547 L53.053,100.038 C53.044,100.293 52.813,100.500 52.538,100.500 C52.262,100.500 52.047,100.293 52.057,100.038 L52.425,90.547 L43.649,90.547 L43.087,100.038 C43.071,100.293 42.836,100.500 42.560,100.500 C42.285,100.500 42.074,100.293 42.090,100.038 L42.674,90.547 L32.924,90.547 L32.123,100.038 C32.102,100.293 31.861,100.500 31.585,100.500 C31.310,100.500 31.104,100.293 31.127,100.038 L31.949,90.547 L22.199,90.547 L21.160,100.038 C21.132,100.293 20.886,100.500 20.610,100.500 C20.335,100.500 20.135,100.293 20.163,100.038 L21.224,90.547 L12.449,90.547 L11.193,100.038 C11.159,100.293 10.909,100.500 10.633,100.500 C10.358,100.500 10.162,100.293 10.196,100.038 L11.474,90.547 L1.236,90.547 C0.967,90.547 0.780,90.349 0.819,90.105 C0.858,89.861 1.107,89.664 1.376,89.664 L11.592,89.664 L12.639,81.883 L2.609,81.883 C2.345,81.883 2.162,81.693 2.199,81.459 C2.236,81.225 2.480,81.036 2.743,81.036 L12.753,81.036 L13.868,72.750 L4.056,72.750 C3.798,72.750 3.618,72.568 3.654,72.344 C3.690,72.120 3.927,71.939 4.185,71.939 L13.977,71.939 L15.045,64.006 L5.442,64.006 C5.190,64.006 5.013,63.832 5.047,63.618 C5.081,63.403 5.313,63.230 5.565,63.230 L15.149,63.230 L16.071,56.375 L6.652,56.375 C6.404,56.375 6.230,56.208 6.263,56.001 C6.296,55.795 6.523,55.628 6.770,55.628 L16.172,55.628 L17.156,48.310 L7.930,48.310 C7.687,48.310 7.516,48.149 7.548,47.951 C7.580,47.753 7.801,47.593 8.044,47.593 L17.253,47.593 L18.198,40.568 L9.157,40.568 C8.919,40.568 8.751,40.414 8.782,40.224 C8.812,40.034 9.029,39.880 9.266,39.880 L18.291,39.880 L19.199,33.132 L10.336,33.132 C10.103,33.132 9.937,32.984 9.966,32.801 C9.996,32.618 10.208,32.471 10.441,32.471 L19.288,32.471 L20.075,26.621 L11.368,26.621 C11.139,26.621 10.976,26.478 11.004,26.302 C11.032,26.126 11.240,25.983 11.469,25.983 L20.161,25.983 L21.003,19.719 L12.462,19.719 C12.237,19.719 12.077,19.581 12.104,19.412 C12.131,19.242 12.335,19.105 12.559,19.105 L21.086,19.105 L21.897,13.074 L13.515,13.074 C13.294,13.074 13.137,12.941 13.163,12.778 C13.189,12.615 13.389,12.482 13.609,12.482 L21.977,12.482 L22.682,7.244 L14.439,7.244 C14.222,7.244 14.067,7.116 14.092,6.958 C14.117,6.800 14.313,6.672 14.529,6.672 L22.759,6.672 L23.552,0.776 C23.573,0.623 23.762,0.500 23.974,0.500 C24.187,0.500 24.343,0.623 24.322,0.776 L23.543,6.672 L30.596,6.672 L31.255,0.776 C31.272,0.623 31.458,0.500 31.671,0.500 C31.883,0.500 32.042,0.623 32.026,0.776 L31.380,6.672 L39.218,6.672 L39.729,0.776 C39.742,0.623 39.925,0.500 40.137,0.500 C40.350,0.500 40.512,0.623 40.499,0.776 L40.001,6.672 L47.839,6.672 L48.202,0.776 C48.211,0.623 48.391,0.500 48.604,0.500 C48.816,0.500 48.981,0.623 48.972,0.776 L48.623,6.672 L55.676,6.672 L55.905,0.776 C55.911,0.623 56.088,0.500 56.300,0.500 C56.513,0.500 56.681,0.623 56.675,0.776 L56.460,6.672 L64.298,6.672 L64.378,0.776 C64.380,0.623 64.554,0.500 64.767,0.500 C64.979,0.500 65.150,0.623 65.148,0.776 L65.081,6.672 L72.919,6.672 L72.852,0.776 C72.850,0.623 73.021,0.500 73.233,0.500 C73.446,0.500 73.620,0.623 73.622,0.776 L73.702,6.672 L81.540,6.672 L81.325,0.776 C81.319,0.623 81.487,0.500 81.700,0.500 C81.912,0.500 82.089,0.623 82.095,0.776 L82.324,6.672 L89.377,6.672 L89.028,0.776 C89.019,0.623 89.184,0.500 89.396,0.500 C89.609,0.500 89.789,0.623 89.798,0.776 L90.161,6.672 L97.999,6.672 L97.501,0.776 C97.488,0.623 97.650,0.500 97.863,0.500 C98.075,0.500 98.258,0.623 98.271,0.776 L98.782,6.672 L106.620,6.672 L105.974,0.776 C105.958,0.623 106.117,0.500 106.329,0.500 C106.542,0.500 106.728,0.623 106.745,0.776 L107.404,6.672 L114.457,6.672 L113.678,0.776 C113.657,0.623 113.813,0.500 114.026,0.500 C114.238,0.500 114.427,0.623 114.448,0.776 L115.241,6.672 L123.471,6.672 C123.687,6.672 123.883,6.800 123.908,6.958 C123.933,7.116 123.778,7.244 123.561,7.244 L115.318,7.244 L116.023,12.482 L124.391,12.482 C124.611,12.482 124.811,12.615 124.837,12.778 C124.863,12.941 124.706,13.074 124.485,13.074 L116.103,13.074 L116.914,19.105 L125.441,19.105 C125.665,19.105 125.869,19.242 125.896,19.412 C125.923,19.581 125.763,19.719 125.538,19.719 L116.997,19.719 L117.839,25.983 L126.531,25.983 C126.760,25.983 126.968,26.126 126.996,26.302 C127.024,26.478 126.861,26.621 126.632,26.621 L117.925,26.621 L118.712,32.471 L127.559,32.471 C127.792,32.471 128.004,32.618 128.034,32.801 C128.063,32.984 127.897,33.132 127.664,33.132 L118.801,33.132 L119.709,39.880 L128.734,39.880 C128.971,39.880 129.188,40.034 129.218,40.224 C129.249,40.414 129.081,40.568 128.843,40.568 L119.802,40.568 L120.747,47.593 L129.956,47.593 C130.199,47.593 130.420,47.753 130.452,47.951 C130.484,48.149 130.313,48.310 130.070,48.310 L120.844,48.310 L121.828,55.628 L131.230,55.628 C131.477,55.628 131.704,55.795 131.737,56.001 C131.770,56.208 131.596,56.375 131.348,56.375 L121.929,56.375 L122.851,63.230 L132.435,63.230 C132.687,63.230 132.919,63.403 132.953,63.618 C132.987,63.832 132.810,64.006 132.558,64.006 L122.955,64.006 L124.023,71.939 L133.815,71.939 C134.073,71.939 134.310,72.120 134.346,72.344 C134.382,72.568 134.202,72.750 133.944,72.750 L124.132,72.750 L125.247,81.036 L135.257,81.036 C135.520,81.036 135.764,81.225 135.801,81.459 C135.838,81.693 135.655,81.883 135.391,81.883 L125.361,81.883 L126.408,89.664 L136.624,89.664 C136.893,89.664 137.142,89.861 137.181,90.105 C137.220,90.349 137.033,90.547 136.764,90.547 ZM115.705,89.664 L114.853,81.883 L105.300,81.883 L105.974,89.664 L115.705,89.664 ZM103.506,71.939 L102.836,64.006 L93.691,64.006 L94.180,71.939 L103.506,71.939 ZM94.230,72.750 L94.740,81.036 L104.273,81.036 L103.574,72.750 L94.230,72.750 ZM74.487,64.006 L74.596,71.939 L83.921,71.939 L83.632,64.006 L74.487,64.006 ZM83.604,63.230 L83.354,56.375 L74.383,56.375 L74.476,63.230 L83.604,63.230 ZM83.910,47.593 L91.804,47.593 L91.387,40.568 L83.638,40.568 L83.910,47.593 ZM83.938,48.310 L84.222,55.628 L92.280,55.628 L91.846,48.310 L83.938,48.310 ZM92.206,39.880 L100.801,39.880 L100.231,33.132 L91.790,33.132 L92.206,39.880 ZM92.248,40.568 L92.681,47.593 L101.452,47.593 L100.859,40.568 L92.248,40.568 ZM92.725,48.310 L93.176,55.628 L102.130,55.628 L101.512,48.310 L92.725,48.310 ZM93.222,56.375 L93.644,63.230 L102.771,63.230 L102.193,56.375 L93.222,56.375 ZM93.295,72.750 L84.885,72.750 L85.207,81.036 L93.787,81.036 L93.295,72.750 ZM93.247,71.939 L92.777,64.006 L84.546,64.006 L84.854,71.939 L93.247,71.939 ZM92.731,63.230 L92.325,56.375 L84.251,56.375 L84.516,63.230 L92.731,63.230 ZM83.951,72.750 L74.607,72.750 L74.720,81.036 L84.253,81.036 L83.951,72.750 ZM74.157,39.880 L82.752,39.880 L82.505,33.132 L74.065,33.132 L74.157,39.880 ZM74.166,40.568 L74.262,47.593 L83.033,47.593 L82.777,40.568 L74.166,40.568 ZM74.272,48.310 L74.372,55.628 L83.326,55.628 L83.059,48.310 L74.272,48.310 ZM83.324,32.471 L90.907,32.471 L90.560,26.621 L83.097,26.621 L83.324,32.471 ZM83.350,33.132 L83.611,39.880 L91.346,39.880 L90.946,33.132 L83.350,33.132 ZM91.350,25.983 L99.628,25.983 L99.100,19.719 L90.965,19.719 L91.350,25.983 ZM91.390,26.621 L91.750,32.471 L100.176,32.471 L99.682,26.621 L91.390,26.621 ZM100.456,25.983 L108.734,25.983 L108.048,19.719 L99.913,19.719 L100.456,25.983 ZM100.511,26.621 L101.018,32.471 L109.444,32.471 L108.804,26.621 L100.511,26.621 ZM101.075,33.132 L101.660,39.880 L110.255,39.880 L109.516,33.132 L101.075,33.132 ZM101.720,40.568 L102.329,47.593 L111.099,47.593 L110.330,40.568 L101.720,40.568 ZM102.391,48.310 L103.025,55.628 L111.979,55.628 L111.178,48.310 L102.391,48.310 ZM103.090,56.375 L103.684,63.230 L112.811,63.230 L112.061,56.375 L103.090,56.375 ZM103.751,64.006 L104.438,71.939 L113.764,71.939 L112.896,64.006 L103.751,64.006 ZM104.509,72.750 L105.227,81.036 L114.760,81.036 L113.853,72.750 L104.509,72.750 ZM105.001,89.664 L104.345,81.883 L94.792,81.883 L95.271,89.664 L105.001,89.664 ZM94.298,89.664 L93.837,81.883 L85.240,81.883 L85.541,89.664 L94.298,89.664 ZM84.568,89.664 L84.284,81.883 L74.732,81.883 L74.838,89.664 L84.568,89.664 ZM73.865,89.664 L73.776,81.883 L64.224,81.883 L64.135,89.664 L73.865,89.664 ZM33.562,71.939 L34.249,64.006 L25.104,64.006 L24.236,71.939 L33.562,71.939 ZM24.147,72.750 L23.240,81.036 L32.773,81.036 L33.491,72.750 L24.147,72.750 ZM54.368,64.006 L54.079,71.939 L63.404,71.939 L63.513,64.006 L54.368,64.006 ZM63.524,63.230 L63.617,56.375 L54.646,56.375 L54.396,63.230 L63.524,63.230 ZM44.824,55.628 L45.275,48.310 L36.488,48.310 L35.870,55.628 L44.824,55.628 ZM35.807,56.375 L35.229,63.230 L44.356,63.230 L44.778,56.375 L35.807,56.375 ZM45.319,47.593 L45.752,40.568 L37.141,40.568 L36.548,47.593 L45.319,47.593 ZM45.720,55.628 L53.778,55.628 L54.062,48.310 L46.154,48.310 L45.720,55.628 ZM45.794,39.880 L46.210,33.132 L37.769,33.132 L37.199,39.880 L45.794,39.880 ZM46.196,47.593 L54.090,47.593 L54.362,40.568 L46.613,40.568 L46.196,47.593 ZM54.049,72.750 L53.747,81.036 L63.280,81.036 L63.393,72.750 L54.049,72.750 ZM53.749,56.375 L45.675,56.375 L45.269,63.230 L53.484,63.230 L53.749,56.375 ZM45.223,64.006 L44.753,71.939 L53.146,71.939 L53.454,64.006 L45.223,64.006 ZM53.115,72.750 L44.705,72.750 L44.213,81.036 L52.793,81.036 L53.115,72.750 ZM44.309,64.006 L35.164,64.006 L34.494,71.939 L43.820,71.939 L44.309,64.006 ZM34.426,72.750 L33.727,81.036 L43.260,81.036 L43.770,72.750 L34.426,72.750 ZM34.316,63.230 L34.910,56.375 L25.939,56.375 L25.189,63.230 L34.316,63.230 ZM34.975,55.628 L35.609,48.310 L26.822,48.310 L26.021,55.628 L34.975,55.628 ZM35.671,47.593 L36.280,40.568 L27.670,40.568 L26.901,47.593 L35.671,47.593 ZM36.340,39.880 L36.925,33.132 L28.484,33.132 L27.745,39.880 L36.340,39.880 ZM36.982,32.471 L37.489,26.621 L29.196,26.621 L28.556,32.471 L36.982,32.471 ZM37.544,25.983 L38.087,19.719 L29.952,19.719 L29.266,25.983 L37.544,25.983 ZM37.824,32.471 L46.250,32.471 L46.610,26.621 L38.318,26.621 L37.824,32.471 ZM46.650,25.983 L47.035,19.719 L38.900,19.719 L38.372,25.983 L46.650,25.983 ZM46.654,39.880 L54.389,39.880 L54.650,33.132 L47.054,33.132 L46.654,39.880 ZM54.676,32.471 L54.903,26.621 L47.440,26.621 L47.093,32.471 L54.676,32.471 ZM54.674,55.628 L63.628,55.628 L63.728,48.310 L54.941,48.310 L54.674,55.628 ZM63.738,47.593 L63.834,40.568 L55.223,40.568 L54.967,47.593 L63.738,47.593 ZM63.843,39.880 L63.935,33.132 L55.495,33.132 L55.248,39.880 L63.843,39.880 ZM63.162,89.664 L63.268,81.883 L53.716,81.883 L53.432,89.664 L63.162,89.664 ZM52.459,89.664 L52.760,81.883 L44.163,81.883 L43.702,89.664 L52.459,89.664 ZM42.729,89.664 L43.208,81.883 L33.655,81.883 L32.999,89.664 L42.729,89.664 ZM32.026,89.664 L32.700,81.883 L23.147,81.883 L22.295,89.664 L32.026,89.664 ZM12.565,89.664 L21.322,89.664 L22.192,81.883 L13.594,81.883 L12.565,89.664 ZM13.707,81.036 L22.287,81.036 L23.212,72.750 L14.803,72.750 L13.707,81.036 ZM14.910,71.939 L23.303,71.939 L24.190,64.006 L15.959,64.006 L14.910,71.939 ZM16.062,63.230 L24.276,63.230 L25.042,56.375 L16.968,56.375 L16.062,63.230 ZM17.067,55.628 L25.126,55.628 L25.944,48.310 L18.035,48.310 L17.067,55.628 ZM18.130,47.593 L26.024,47.593 L26.809,40.568 L19.059,40.568 L18.130,47.593 ZM20.043,33.132 L19.150,39.880 L26.885,39.880 L27.640,33.132 L20.043,33.132 ZM20.130,32.471 L27.713,32.471 L28.367,26.621 L20.904,26.621 L20.130,32.471 ZM21.817,19.719 L20.988,25.983 L28.438,25.983 L29.138,19.719 L21.817,19.719 ZM22.696,13.074 L21.898,19.105 L29.207,19.105 L29.881,13.074 L22.696,13.074 ZM23.467,7.244 L22.774,12.482 L29.947,12.482 L30.532,7.244 L23.467,7.244 ZM30.019,19.105 L38.140,19.105 L38.663,13.074 L30.679,13.074 L30.019,19.105 ZM31.317,7.244 L30.744,12.482 L38.714,12.482 L39.168,7.244 L31.317,7.244 ZM38.952,19.105 L47.073,19.105 L47.445,13.074 L39.461,13.074 L38.952,19.105 ZM39.953,7.244 L39.511,12.482 L47.481,12.482 L47.804,7.244 L39.953,7.244 ZM47.478,25.983 L54.928,25.983 L55.170,19.719 L47.849,19.719 L47.478,25.983 ZM47.885,19.105 L55.194,19.105 L55.428,13.074 L48.243,13.074 L47.885,19.105 ZM48.589,7.244 L48.278,12.482 L55.451,12.482 L55.654,7.244 L48.589,7.244 ZM55.519,32.471 L63.945,32.471 L64.025,26.621 L55.732,26.621 L55.519,32.471 ZM55.755,25.983 L64.033,25.983 L64.119,19.719 L55.984,19.719 L55.755,25.983 ZM56.006,19.105 L64.127,19.105 L64.210,13.074 L56.226,13.074 L56.006,19.105 ZM56.439,7.244 L56.248,12.482 L64.218,12.482 L64.290,7.244 L56.439,7.244 ZM72.925,7.244 L65.075,7.244 L65.015,12.482 L72.985,12.482 L72.925,7.244 ZM72.992,13.074 L65.008,13.074 L64.939,19.105 L73.061,19.105 L72.992,13.074 ZM73.068,19.719 L64.932,19.719 L64.861,25.983 L73.139,25.983 L73.068,19.719 ZM73.146,26.621 L64.854,26.621 L64.787,32.471 L73.213,32.471 L73.146,26.621 ZM73.220,33.132 L64.780,33.132 L64.703,39.880 L73.297,39.880 L73.220,33.132 ZM73.305,40.568 L64.695,40.568 L64.615,47.593 L73.385,47.593 L73.305,40.568 ZM73.394,48.310 L64.606,48.310 L64.523,55.628 L73.477,55.628 L73.394,48.310 ZM73.485,56.375 L64.515,56.375 L64.436,63.230 L73.564,63.230 L73.485,56.375 ZM73.572,64.006 L64.428,64.006 L64.337,71.939 L73.663,71.939 L73.572,64.006 ZM73.672,72.750 L64.328,72.750 L64.233,81.036 L73.767,81.036 L73.672,72.750 ZM81.561,7.244 L73.710,7.244 L73.782,12.482 L81.752,12.482 L81.561,7.244 ZM81.774,13.074 L73.790,13.074 L73.873,19.105 L81.994,19.105 L81.774,13.074 ZM82.016,19.719 L73.881,19.719 L73.967,25.983 L82.245,25.983 L82.016,19.719 ZM82.268,26.621 L73.975,26.621 L74.055,32.471 L82.481,32.471 L82.268,26.621 ZM89.411,7.244 L82.346,7.244 L82.549,12.482 L89.722,12.482 L89.411,7.244 ZM89.757,13.074 L82.572,13.074 L82.806,19.105 L90.115,19.105 L89.757,13.074 ZM90.151,19.719 L82.830,19.719 L83.072,25.983 L90.522,25.983 L90.151,19.719 ZM98.047,7.244 L90.196,7.244 L90.519,12.482 L98.489,12.482 L98.047,7.244 ZM98.539,13.074 L90.555,13.074 L90.927,19.105 L99.048,19.105 L98.539,13.074 ZM106.683,7.244 L98.832,7.244 L99.286,12.482 L107.256,12.482 L106.683,7.244 ZM107.321,13.074 L99.337,13.074 L99.860,19.105 L107.981,19.105 L107.321,13.074 ZM114.533,7.244 L107.468,7.244 L108.053,12.482 L115.226,12.482 L114.533,7.244 ZM115.304,13.074 L108.119,13.074 L108.793,19.105 L116.102,19.105 L115.304,13.074 ZM116.183,19.719 L108.862,19.719 L109.562,25.983 L117.012,25.983 L116.183,19.719 ZM117.096,26.621 L109.633,26.621 L110.287,32.471 L117.870,32.471 L117.096,26.621 ZM117.957,33.132 L110.360,33.132 L111.115,39.880 L118.850,39.880 L117.957,33.132 ZM118.941,40.568 L111.191,40.568 L111.976,47.593 L119.870,47.593 L118.941,40.568 ZM119.965,48.310 L112.056,48.310 L112.874,55.628 L120.933,55.628 L119.965,48.310 ZM121.032,56.375 L112.958,56.375 L113.724,63.230 L121.938,63.230 L121.032,56.375 ZM122.041,64.006 L113.810,64.006 L114.697,71.939 L123.090,71.939 L122.041,64.006 ZM123.197,72.750 L114.788,72.750 L115.713,81.036 L124.293,81.036 L123.197,72.750 ZM124.406,81.883 L115.808,81.883 L116.678,89.664 L125.435,89.664 L124.406,81.883 Z"/>
<path fill-rule="evenodd"  fill="rgb(23, 204, 95)"
 d="M64.877,44.046 L45.257,36.965 C44.224,36.516 42.950,36.516 41.856,36.965 C40.695,37.447 39.914,38.379 39.815,39.402 L38.353,58.268 C38.255,59.480 39.003,60.591 40.275,61.115 L61.132,69.162 C61.670,69.396 62.265,69.519 62.872,69.523 C63.544,69.504 64.201,69.342 64.786,69.053 C65.997,68.474 66.760,67.391 66.794,66.214 L66.902,46.577 C66.842,45.491 66.066,44.524 64.877,44.046 L64.877,44.046 ZM94.101,32.437 C94.818,31.095 93.900,29.532 92.060,28.943 L71.689,22.007 C69.972,21.430 68.020,21.430 66.304,22.007 L45.936,28.943 C45.128,29.196 44.453,29.669 44.042,30.272 C43.147,31.608 43.852,33.189 45.631,33.792 L67.256,41.548 C67.792,41.764 68.388,41.885 69.005,41.895 C69.610,41.877 70.204,41.759 70.749,41.548 L92.374,33.792 C93.154,33.528 93.768,33.046 94.101,32.437 L94.101,32.437 ZM99.648,58.272 L98.186,39.409 C98.083,38.386 97.303,37.457 96.145,36.972 C95.083,36.517 93.835,36.494 92.807,36.909 L73.052,44.046 C71.883,44.535 71.135,45.503 71.099,46.581 L71.207,66.279 C71.231,67.437 71.983,68.508 73.215,69.115 C73.803,69.383 74.462,69.527 75.129,69.527 C75.737,69.527 76.338,69.410 76.869,69.166 L97.810,61.119 C99.047,60.575 99.760,59.468 99.648,58.272 L99.648,58.272 Z"/>
</svg>
