<svg 
 xmlns="http://www.w3.org/2000/svg"
 xmlns:xlink="http://www.w3.org/1999/xlink"
 width="14px" height="14px">
<path fill-rule="evenodd"  fill="rgb(255, 255, 255)"
 d="M12.871,11.321 L12.871,13.691 C12.871,13.894 12.756,13.996 12.530,13.996 L11.533,13.996 C11.305,13.996 11.190,13.894 11.190,13.691 L11.190,11.321 C10.531,11.039 10.072,10.443 10.072,9.747 C10.072,9.050 10.531,8.453 11.190,8.172 L11.190,0.301 C11.190,0.098 11.305,-0.004 11.533,-0.004 L12.530,-0.004 C12.756,-0.004 12.871,0.098 12.871,0.301 L12.871,8.171 C13.532,8.452 13.992,9.049 13.992,9.747 C13.992,10.443 13.532,11.040 12.871,11.321 ZM7.830,5.759 L7.830,13.691 C7.830,13.894 7.717,13.996 7.490,13.996 L6.493,13.996 C6.265,13.996 6.150,13.894 6.150,13.691 L6.150,5.758 C5.491,5.476 5.032,4.880 5.032,4.184 C5.032,3.488 5.491,2.891 6.150,2.609 L6.150,0.301 C6.150,0.098 6.265,-0.004 6.493,-0.004 L7.490,-0.004 C7.717,-0.004 7.830,0.098 7.830,0.301 L7.830,2.608 C8.491,2.889 8.952,3.487 8.952,4.184 C8.952,4.881 8.491,5.478 7.830,5.759 ZM2.791,11.322 L2.791,13.691 C2.791,13.894 2.677,13.996 2.449,13.996 L1.454,13.996 C1.226,13.996 1.112,13.894 1.112,13.691 L1.112,11.322 C0.451,11.040 -0.009,10.443 -0.009,9.747 C-0.009,9.049 0.451,8.452 1.112,8.171 L1.112,0.301 C1.112,0.098 1.226,-0.004 1.454,-0.004 L2.449,-0.004 C2.677,-0.004 2.791,0.098 2.791,0.301 L2.791,8.171 C3.451,8.452 3.911,9.049 3.911,9.747 C3.911,10.443 3.451,11.040 2.791,11.322 Z"/>
</svg>
