<svg 
 xmlns="http://www.w3.org/2000/svg"
 xmlns:xlink="http://www.w3.org/1999/xlink"
 width="22px" height="22px">
<path fill-rule="evenodd"  fill="rgb(102, 102, 102)"
 d="M15.999,11.999 C12.686,11.999 9.999,9.313 9.999,6.000 C9.999,2.686 12.686,-0.001 15.999,-0.001 C19.313,-0.001 21.999,2.686 21.999,6.000 C21.999,9.313 19.313,11.999 15.999,11.999 ZM19.999,4.999 L16.999,4.999 L16.999,1.999 L14.999,1.999 L14.999,4.999 L11.999,4.999 L11.999,7.000 L14.999,7.000 L14.999,9.999 L16.999,9.999 L16.999,7.000 L19.999,7.000 L19.999,4.999 ZM9.999,1.999 L8.999,1.999 L8.999,3.000 L9.698,3.000 C9.546,3.320 9.427,3.655 9.324,3.999 L8.999,3.999 L8.999,4.999 L9.100,4.999 C9.052,5.329 8.999,5.657 8.999,6.000 L8.999,7.000 L9.100,7.000 C9.149,7.343 9.226,7.674 9.324,7.999 L8.999,7.999 L8.999,8.999 L9.698,8.999 C10.032,9.698 10.464,10.341 10.999,10.888 L10.999,10.999 L11.110,10.999 C11.658,11.535 12.300,11.966 12.999,12.300 L12.999,12.999 L13.999,12.999 L13.999,12.674 C14.325,12.772 14.655,12.849 14.999,12.899 L14.999,12.999 L15.996,12.999 C15.997,12.999 15.998,12.999 15.999,12.999 C16.342,12.999 16.670,12.946 16.999,12.899 L16.999,12.999 L17.999,12.999 L17.999,12.674 C18.344,12.571 18.679,12.453 18.999,12.300 L18.999,12.999 L19.999,12.999 L19.999,11.999 L19.553,11.999 C20.080,11.686 20.573,11.324 20.999,10.888 L20.999,21.000 L19.999,21.000 L19.999,20.000 L18.999,20.000 L18.999,21.000 L19.999,21.000 L19.999,21.999 L0.999,21.999 L0.999,21.000 L1.999,21.000 L1.999,20.000 L0.999,20.000 L0.999,21.000 L-0.001,21.000 L-0.001,20.000 L-0.001,1.999 L0.999,1.999 L0.999,3.000 L1.999,3.000 L1.999,1.999 L0.999,1.999 L0.999,0.999 L11.110,0.999 C10.674,1.426 10.312,1.919 9.999,2.446 L9.999,1.999 ZM18.999,19.000 L19.999,19.000 L19.999,18.000 L18.999,18.000 L18.999,19.000 ZM18.999,17.000 L19.999,17.000 L19.999,15.999 L18.999,15.999 L18.999,17.000 ZM18.999,14.999 L19.999,14.999 L19.999,13.999 L18.999,13.999 L18.999,14.999 ZM16.999,21.000 L17.999,21.000 L17.999,20.000 L16.999,20.000 L16.999,21.000 ZM16.999,19.000 L17.999,19.000 L17.999,18.000 L16.999,18.000 L16.999,19.000 ZM16.999,17.000 L17.999,17.000 L17.999,15.999 L16.999,15.999 L16.999,17.000 ZM16.999,14.999 L17.999,14.999 L17.999,13.999 L16.999,13.999 L16.999,14.999 ZM14.999,21.000 L15.999,21.000 L15.999,20.000 L14.999,20.000 L14.999,21.000 ZM14.999,19.000 L15.999,19.000 L15.999,18.000 L14.999,18.000 L14.999,19.000 ZM14.999,17.000 L15.999,17.000 L15.999,15.999 L14.999,15.999 L14.999,17.000 ZM14.999,14.999 L15.999,14.999 L15.999,13.999 L14.999,13.999 L14.999,14.999 ZM12.999,21.000 L13.999,21.000 L13.999,20.000 L12.999,20.000 L12.999,21.000 ZM12.999,19.000 L13.999,19.000 L13.999,18.000 L12.999,18.000 L12.999,19.000 ZM12.999,17.000 L13.999,17.000 L13.999,15.999 L12.999,15.999 L12.999,17.000 ZM12.999,14.999 L13.999,14.999 L13.999,13.999 L12.999,13.999 L12.999,14.999 ZM10.999,21.000 L11.999,21.000 L11.999,20.000 L10.999,20.000 L10.999,21.000 ZM10.999,19.000 L11.999,19.000 L11.999,18.000 L10.999,18.000 L10.999,19.000 ZM10.999,17.000 L11.999,17.000 L11.999,15.999 L10.999,15.999 L10.999,17.000 ZM10.999,14.999 L11.999,14.999 L11.999,13.999 L10.999,13.999 L10.999,14.999 ZM10.999,12.999 L11.999,12.999 L11.999,11.999 L10.999,11.999 L10.999,12.999 ZM8.999,21.000 L9.999,21.000 L9.999,20.000 L8.999,20.000 L8.999,21.000 ZM8.999,19.000 L9.999,19.000 L9.999,18.000 L8.999,18.000 L8.999,19.000 ZM8.999,17.000 L9.999,17.000 L9.999,15.999 L8.999,15.999 L8.999,17.000 ZM8.999,14.999 L9.999,14.999 L9.999,13.999 L8.999,13.999 L8.999,14.999 ZM8.999,12.999 L9.999,12.999 L9.999,11.999 L8.999,11.999 L8.999,12.999 ZM8.999,10.999 L9.999,10.999 L9.999,9.999 L8.999,9.999 L8.999,10.999 ZM1.999,3.999 L0.999,3.999 L0.999,4.999 L1.999,4.999 L1.999,3.999 ZM1.999,6.000 L0.999,6.000 L0.999,7.000 L1.999,7.000 L1.999,6.000 ZM1.999,7.999 L0.999,7.999 L0.999,8.999 L1.999,8.999 L1.999,7.999 ZM1.999,9.999 L0.999,9.999 L0.999,10.999 L1.999,10.999 L1.999,9.999 ZM1.999,11.999 L0.999,11.999 L0.999,12.999 L1.999,12.999 L1.999,11.999 ZM1.999,13.999 L0.999,13.999 L0.999,14.999 L1.999,14.999 L1.999,13.999 ZM1.999,15.999 L0.999,15.999 L0.999,17.000 L1.999,17.000 L1.999,15.999 ZM1.999,18.000 L0.999,18.000 L0.999,19.000 L1.999,19.000 L1.999,18.000 ZM3.999,1.999 L2.999,1.999 L2.999,3.000 L3.999,3.000 L3.999,1.999 ZM3.999,3.999 L2.999,3.999 L2.999,4.999 L3.999,4.999 L3.999,3.999 ZM3.999,6.000 L2.999,6.000 L2.999,7.000 L3.999,7.000 L3.999,6.000 ZM3.999,7.999 L2.999,7.999 L2.999,8.999 L3.999,8.999 L3.999,7.999 ZM3.999,9.999 L2.999,9.999 L2.999,10.999 L3.999,10.999 L3.999,9.999 ZM3.999,11.999 L2.999,11.999 L2.999,12.999 L3.999,12.999 L3.999,11.999 ZM3.999,13.999 L2.999,13.999 L2.999,14.999 L3.999,14.999 L3.999,13.999 ZM3.999,15.999 L2.999,15.999 L2.999,17.000 L3.999,17.000 L3.999,15.999 ZM3.999,18.000 L2.999,18.000 L2.999,19.000 L3.999,19.000 L3.999,18.000 ZM3.999,20.000 L2.999,20.000 L2.999,21.000 L3.999,21.000 L3.999,20.000 ZM5.999,1.999 L4.999,1.999 L4.999,3.000 L5.999,3.000 L5.999,1.999 ZM5.999,3.999 L4.999,3.999 L4.999,4.999 L5.999,4.999 L5.999,3.999 ZM5.999,6.000 L4.999,6.000 L4.999,7.000 L5.999,7.000 L5.999,6.000 ZM5.999,7.999 L4.999,7.999 L4.999,8.999 L5.999,8.999 L5.999,7.999 ZM5.999,9.999 L4.999,9.999 L4.999,10.999 L5.999,10.999 L5.999,9.999 ZM5.999,11.999 L4.999,11.999 L4.999,12.999 L5.999,12.999 L5.999,11.999 ZM5.999,13.999 L4.999,13.999 L4.999,14.999 L5.999,14.999 L5.999,13.999 ZM5.999,15.999 L4.999,15.999 L4.999,17.000 L5.999,17.000 L5.999,15.999 ZM5.999,18.000 L4.999,18.000 L4.999,19.000 L5.999,19.000 L5.999,18.000 ZM5.999,20.000 L4.999,20.000 L4.999,21.000 L5.999,21.000 L5.999,20.000 ZM7.999,1.999 L6.999,1.999 L6.999,3.000 L7.999,3.000 L7.999,1.999 ZM7.999,3.999 L6.999,3.999 L6.999,4.999 L7.999,4.999 L7.999,3.999 ZM7.999,6.000 L6.999,6.000 L6.999,7.000 L7.999,7.000 L7.999,6.000 ZM7.999,7.999 L6.999,7.999 L6.999,8.999 L7.999,8.999 L7.999,7.999 ZM7.999,9.999 L6.999,9.999 L6.999,10.999 L7.999,10.999 L7.999,9.999 ZM7.999,11.999 L6.999,11.999 L6.999,12.999 L7.999,12.999 L7.999,11.999 ZM7.999,13.999 L6.999,13.999 L6.999,14.999 L7.999,14.999 L7.999,13.999 ZM7.999,15.999 L6.999,15.999 L6.999,17.000 L7.999,17.000 L7.999,15.999 ZM7.999,18.000 L6.999,18.000 L6.999,19.000 L7.999,19.000 L7.999,18.000 ZM7.999,20.000 L6.999,20.000 L6.999,21.000 L7.999,21.000 L7.999,20.000 Z"/>
</svg>
