<svg 
 xmlns="http://www.w3.org/2000/svg"
 xmlns:xlink="http://www.w3.org/1999/xlink"
 width="22px" height="22px">
<path fill-rule="evenodd"  fill="rgb(255, 255, 255)"
 d="M16.000,12.000 C12.685,12.000 9.999,9.314 9.999,6.000 C9.999,2.686 12.685,-0.000 16.000,-0.000 C19.313,-0.000 21.999,2.686 21.999,6.000 C21.999,9.314 19.313,12.000 16.000,12.000 ZM19.999,5.000 L16.999,5.000 L16.999,2.000 L14.999,2.000 L14.999,5.000 L11.999,5.000 L11.999,7.000 L14.999,7.000 L14.999,10.000 L16.999,10.000 L16.999,7.000 L19.999,7.000 L19.999,5.000 ZM9.999,2.000 L8.999,2.000 L8.999,3.000 L9.699,3.000 C9.546,3.320 9.428,3.655 9.324,4.000 L8.999,4.000 L8.999,5.000 L9.100,5.000 C9.053,5.329 8.999,5.657 8.999,6.000 L8.999,7.000 L9.100,7.000 C9.150,7.343 9.227,7.674 9.324,8.000 L8.999,8.000 L8.999,9.000 L9.699,9.000 C10.032,9.699 10.464,10.341 10.999,10.889 L10.999,11.000 L11.110,11.000 C11.658,11.535 12.300,11.966 12.999,12.300 L12.999,13.000 L13.999,13.000 L13.999,12.675 C14.325,12.772 14.656,12.849 14.999,12.899 L14.999,13.000 L15.998,13.000 C15.998,13.000 15.999,13.000 16.000,13.000 C16.342,13.000 16.670,12.947 16.999,12.899 L16.999,13.000 L17.999,13.000 L17.999,12.675 C18.344,12.571 18.679,12.453 18.999,12.300 L18.999,13.000 L19.999,13.000 L19.999,12.000 L19.553,12.000 C20.080,11.687 20.573,11.325 20.999,10.889 L20.999,21.000 L19.999,21.000 L19.999,20.000 L18.999,20.000 L18.999,21.000 L19.999,21.000 L19.999,22.000 L0.999,22.000 L0.999,21.000 L1.999,21.000 L1.999,20.000 L0.999,20.000 L0.999,21.000 L-0.001,21.000 L-0.001,20.000 L-0.001,2.000 L0.999,2.000 L0.999,3.000 L1.999,3.000 L1.999,2.000 L0.999,2.000 L0.999,1.000 L11.110,1.000 C10.674,1.426 10.312,1.919 9.999,2.447 L9.999,2.000 ZM18.999,19.000 L19.999,19.000 L19.999,18.000 L18.999,18.000 L18.999,19.000 ZM18.999,17.000 L19.999,17.000 L19.999,16.000 L18.999,16.000 L18.999,17.000 ZM18.999,15.000 L19.999,15.000 L19.999,14.000 L18.999,14.000 L18.999,15.000 ZM16.999,21.000 L17.999,21.000 L17.999,20.000 L16.999,20.000 L16.999,21.000 ZM16.999,19.000 L17.999,19.000 L17.999,18.000 L16.999,18.000 L16.999,19.000 ZM16.999,17.000 L17.999,17.000 L17.999,16.000 L16.999,16.000 L16.999,17.000 ZM16.999,15.000 L17.999,15.000 L17.999,14.000 L16.999,14.000 L16.999,15.000 ZM14.999,21.000 L16.000,21.000 L16.000,20.000 L14.999,20.000 L14.999,21.000 ZM14.999,19.000 L16.000,19.000 L16.000,18.000 L14.999,18.000 L14.999,19.000 ZM14.999,17.000 L16.000,17.000 L16.000,16.000 L14.999,16.000 L14.999,17.000 ZM14.999,15.000 L16.000,15.000 L16.000,14.000 L14.999,14.000 L14.999,15.000 ZM12.999,21.000 L13.999,21.000 L13.999,20.000 L12.999,20.000 L12.999,21.000 ZM12.999,19.000 L13.999,19.000 L13.999,18.000 L12.999,18.000 L12.999,19.000 ZM12.999,17.000 L13.999,17.000 L13.999,16.000 L12.999,16.000 L12.999,17.000 ZM12.999,15.000 L13.999,15.000 L13.999,14.000 L12.999,14.000 L12.999,15.000 ZM10.999,21.000 L11.999,21.000 L11.999,20.000 L10.999,20.000 L10.999,21.000 ZM10.999,19.000 L11.999,19.000 L11.999,18.000 L10.999,18.000 L10.999,19.000 ZM10.999,17.000 L11.999,17.000 L11.999,16.000 L10.999,16.000 L10.999,17.000 ZM10.999,15.000 L11.999,15.000 L11.999,14.000 L10.999,14.000 L10.999,15.000 ZM10.999,13.000 L11.999,13.000 L11.999,12.000 L10.999,12.000 L10.999,13.000 ZM8.999,21.000 L9.999,21.000 L9.999,20.000 L8.999,20.000 L8.999,21.000 ZM8.999,19.000 L9.999,19.000 L9.999,18.000 L8.999,18.000 L8.999,19.000 ZM8.999,17.000 L9.999,17.000 L9.999,16.000 L8.999,16.000 L8.999,17.000 ZM8.999,15.000 L9.999,15.000 L9.999,14.000 L8.999,14.000 L8.999,15.000 ZM8.999,13.000 L9.999,13.000 L9.999,12.000 L8.999,12.000 L8.999,13.000 ZM8.999,11.000 L9.999,11.000 L9.999,10.000 L8.999,10.000 L8.999,11.000 ZM1.999,4.000 L0.999,4.000 L0.999,5.000 L1.999,5.000 L1.999,4.000 ZM1.999,6.000 L0.999,6.000 L0.999,7.000 L1.999,7.000 L1.999,6.000 ZM1.999,8.000 L0.999,8.000 L0.999,9.000 L1.999,9.000 L1.999,8.000 ZM1.999,10.000 L0.999,10.000 L0.999,11.000 L1.999,11.000 L1.999,10.000 ZM1.999,12.000 L0.999,12.000 L0.999,13.000 L1.999,13.000 L1.999,12.000 ZM1.999,14.000 L0.999,14.000 L0.999,15.000 L1.999,15.000 L1.999,14.000 ZM1.999,16.000 L0.999,16.000 L0.999,17.000 L1.999,17.000 L1.999,16.000 ZM1.999,18.000 L0.999,18.000 L0.999,19.000 L1.999,19.000 L1.999,18.000 ZM3.999,2.000 L2.999,2.000 L2.999,3.000 L3.999,3.000 L3.999,2.000 ZM3.999,4.000 L2.999,4.000 L2.999,5.000 L3.999,5.000 L3.999,4.000 ZM3.999,6.000 L2.999,6.000 L2.999,7.000 L3.999,7.000 L3.999,6.000 ZM3.999,8.000 L2.999,8.000 L2.999,9.000 L3.999,9.000 L3.999,8.000 ZM3.999,10.000 L2.999,10.000 L2.999,11.000 L3.999,11.000 L3.999,10.000 ZM3.999,12.000 L2.999,12.000 L2.999,13.000 L3.999,13.000 L3.999,12.000 ZM3.999,14.000 L2.999,14.000 L2.999,15.000 L3.999,15.000 L3.999,14.000 ZM3.999,16.000 L2.999,16.000 L2.999,17.000 L3.999,17.000 L3.999,16.000 ZM3.999,18.000 L2.999,18.000 L2.999,19.000 L3.999,19.000 L3.999,18.000 ZM3.999,20.000 L2.999,20.000 L2.999,21.000 L3.999,21.000 L3.999,20.000 ZM5.999,2.000 L4.999,2.000 L4.999,3.000 L5.999,3.000 L5.999,2.000 ZM5.999,4.000 L4.999,4.000 L4.999,5.000 L5.999,5.000 L5.999,4.000 ZM5.999,6.000 L4.999,6.000 L4.999,7.000 L5.999,7.000 L5.999,6.000 ZM5.999,8.000 L4.999,8.000 L4.999,9.000 L5.999,9.000 L5.999,8.000 ZM5.999,10.000 L4.999,10.000 L4.999,11.000 L5.999,11.000 L5.999,10.000 ZM5.999,12.000 L4.999,12.000 L4.999,13.000 L5.999,13.000 L5.999,12.000 ZM5.999,14.000 L4.999,14.000 L4.999,15.000 L5.999,15.000 L5.999,14.000 ZM5.999,16.000 L4.999,16.000 L4.999,17.000 L5.999,17.000 L5.999,16.000 ZM5.999,18.000 L4.999,18.000 L4.999,19.000 L5.999,19.000 L5.999,18.000 ZM5.999,20.000 L4.999,20.000 L4.999,21.000 L5.999,21.000 L5.999,20.000 ZM7.999,2.000 L6.999,2.000 L6.999,3.000 L7.999,3.000 L7.999,2.000 ZM7.999,4.000 L6.999,4.000 L6.999,5.000 L7.999,5.000 L7.999,4.000 ZM7.999,6.000 L6.999,6.000 L6.999,7.000 L7.999,7.000 L7.999,6.000 ZM7.999,8.000 L6.999,8.000 L6.999,9.000 L7.999,9.000 L7.999,8.000 ZM7.999,10.000 L6.999,10.000 L6.999,11.000 L7.999,11.000 L7.999,10.000 ZM7.999,12.000 L6.999,12.000 L6.999,13.000 L7.999,13.000 L7.999,12.000 ZM7.999,14.000 L6.999,14.000 L6.999,15.000 L7.999,15.000 L7.999,14.000 ZM7.999,16.000 L6.999,16.000 L6.999,17.000 L7.999,17.000 L7.999,16.000 ZM7.999,18.000 L6.999,18.000 L6.999,19.000 L7.999,19.000 L7.999,18.000 ZM7.999,20.000 L6.999,20.000 L6.999,21.000 L7.999,21.000 L7.999,20.000 Z"/>
</svg>
