<svg 
 xmlns="http://www.w3.org/2000/svg"
 xmlns:xlink="http://www.w3.org/1999/xlink"
 width="163px" height="163px">
<path fill-rule="evenodd"  stroke="rgb(125, 125, 125)" stroke-width="2px" stroke-linecap="butt" stroke-linejoin="miter" fill="rgb(255, 255, 255)"
 d="M10.999,1.000 L150.999,1.000 C156.523,1.000 160.999,5.477 160.999,11.000 L160.999,151.000 C160.999,156.523 156.523,161.000 150.999,161.000 L10.999,161.000 C5.476,161.000 0.999,156.523 0.999,151.000 L0.999,11.000 C0.999,5.477 5.476,1.000 10.999,1.000 Z"/>
<path fill-rule="evenodd"  fill="rgb(77, 78, 79)"
 d="M142.000,160.000 L137.000,160.000 L160.000,136.000 L160.000,142.000 L142.000,160.000 ZM117.000,160.000 L160.000,117.000 L160.000,123.000 L122.000,160.000 L117.000,160.000 ZM98.000,160.000 L160.000,97.000 L160.000,103.000 L103.000,160.000 L98.000,160.000 ZM79.000,160.000 L160.000,77.000 L160.000,83.000 L84.000,160.000 L79.000,160.000 ZM59.000,160.000 L160.000,58.000 L160.000,64.000 L64.000,160.000 L59.000,160.000 ZM39.000,160.000 L160.000,39.000 L160.000,45.000 L44.000,160.000 L39.000,160.000 ZM20.000,160.000 L160.000,19.000 L160.000,25.000 L25.000,160.000 L20.000,160.000 ZM3.912,155.524 L154.959,3.569 L159.849,4.334 L6.803,158.290 L3.912,155.524 ZM1.912,138.524 L136.959,1.569 L141.849,2.334 L1.803,144.290 L1.912,138.524 ZM1.912,118.524 L117.959,1.569 L122.849,2.334 L1.803,124.290 L1.912,118.524 ZM1.912,99.524 L97.959,1.569 L102.849,2.334 L1.803,105.290 L1.912,99.524 ZM1.912,80.524 L78.959,1.569 L83.849,2.334 L1.803,86.290 L1.912,80.524 ZM1.912,60.524 L58.959,1.569 L63.849,2.334 L1.803,66.290 L1.912,60.524 ZM1.912,41.524 L39.959,1.569 L44.849,2.334 L1.803,47.290 L1.912,41.524 ZM1.912,21.524 L20.959,1.569 L23.849,4.334 L1.803,27.290 L1.912,21.524 Z"/>
<path fill-rule="evenodd"  fill="rgb(77, 78, 79)"
 d="M155.000,124.000 L155.000,104.000 L159.000,104.000 L159.000,124.000 L155.000,124.000 ZM155.000,64.000 L159.000,64.000 L159.000,84.000 L155.000,84.000 L155.000,64.000 ZM155.000,26.000 L159.000,26.000 L159.000,46.000 L155.000,46.000 L155.000,26.000 ZM137.000,3.000 L157.000,3.000 L157.000,7.000 L137.000,7.000 L137.000,3.000 ZM142.000,159.000 L122.000,159.000 L122.000,155.000 L142.000,155.000 L142.000,159.000 ZM98.000,3.000 L118.000,3.000 L118.000,7.000 L98.000,7.000 L98.000,3.000 ZM104.000,159.000 L84.000,159.000 L84.000,155.000 L104.000,155.000 L104.000,159.000 ZM59.000,3.000 L79.000,3.000 L79.000,7.000 L59.000,7.000 L59.000,3.000 ZM65.000,159.000 L45.000,159.000 L45.000,155.000 L65.000,155.000 L65.000,159.000 ZM21.000,3.000 L41.000,3.000 L41.000,7.000 L21.000,7.000 L21.000,3.000 ZM3.000,119.000 L7.000,119.000 L7.000,139.000 L3.000,139.000 L3.000,119.000 ZM3.000,80.000 L7.000,80.000 L7.000,100.000 L3.000,100.000 L3.000,80.000 ZM3.000,41.000 L7.000,41.000 L7.000,61.000 L3.000,61.000 L3.000,41.000 ZM25.000,159.000 L5.000,159.000 L5.000,155.000 L25.000,155.000 L25.000,159.000 Z"/>
</svg>
