<svg 
 xmlns="http://www.w3.org/2000/svg"
 xmlns:xlink="http://www.w3.org/1999/xlink"
 width="32px" height="28px">
<path fill-rule="evenodd"  fill="rgb(182, 182, 189)"
 d="M27.200,-0.000 L4.800,-0.000 C2.150,-0.000 -0.000,2.213 -0.000,4.942 L-0.000,23.058 C-0.000,25.787 2.150,28.000 4.800,28.000 L27.200,28.000 C29.850,28.000 32.000,25.787 32.000,23.058 L32.000,4.942 C32.000,2.213 29.850,-0.000 27.200,-0.000 L27.200,-0.000 ZM6.800,4.942 C7.905,4.942 8.799,5.862 8.799,7.000 C8.799,8.138 7.905,9.058 6.800,9.058 C5.695,9.058 4.800,8.138 4.800,7.000 C4.800,5.862 5.695,4.942 6.800,4.942 L6.800,4.942 ZM28.784,25.529 L3.294,25.529 C1.960,25.529 1.213,23.942 2.039,22.863 L8.617,14.265 C9.257,13.429 10.491,13.429 11.132,14.265 L13.868,17.844 L19.183,8.270 C19.799,7.162 21.348,7.162 21.963,8.270 L30.176,23.066 C30.784,24.163 30.015,25.529 28.784,25.529 L28.784,25.529 Z"/>
</svg>
