<svg 
 xmlns="http://www.w3.org/2000/svg"
 xmlns:xlink="http://www.w3.org/1999/xlink"
 width="14px" height="14px">
<path fill-rule="evenodd"  fill="rgb(201, 201, 210)"
 d="M12.000,14.000 L12.000,13.000 L14.000,13.000 L14.000,14.000 L12.000,14.000 ZM10.999,12.000 L2.999,12.000 C1.342,12.000 -0.001,10.657 -0.001,9.000 L-0.000,7.000 L0.999,7.007 L0.999,9.000 C0.999,10.104 1.895,11.000 2.999,11.000 L10.999,11.000 C12.104,11.000 12.999,10.104 12.999,9.000 L13.000,7.000 L14.000,7.000 L13.999,9.000 C13.999,10.657 12.656,12.000 10.999,12.000 ZM7.468,9.847 C7.338,9.968 7.167,9.994 6.998,9.970 C6.830,9.993 6.659,9.967 6.530,9.847 L4.163,7.642 C3.945,7.439 3.945,7.110 4.163,6.907 C4.380,6.704 4.734,6.704 4.952,6.907 L6.413,8.267 L5.999,-0.000 L7.999,-0.000 L7.586,8.267 L9.046,6.907 C9.264,6.704 9.618,6.704 9.836,6.907 C10.053,7.110 10.053,7.439 9.836,7.642 L7.468,9.847 ZM2.000,14.000 L-0.000,14.000 L-0.000,13.000 L2.000,13.000 L2.000,14.000 ZM5.000,14.000 L3.000,14.000 L3.000,13.000 L5.000,13.000 L5.000,14.000 ZM7.999,14.000 L5.999,14.000 L5.999,13.000 L7.999,13.000 L7.999,14.000 ZM10.999,14.000 L8.999,14.000 L8.999,13.000 L10.999,13.000 L10.999,14.000 Z"/>
</svg>
