<svg 
 xmlns="http://www.w3.org/2000/svg"
 xmlns:xlink="http://www.w3.org/1999/xlink"
 width="15px" height="14px">
<path fill-rule="evenodd"  fill="rgb(255, 255, 255)"
 d="M3.793,7.264 C3.049,6.843 2.354,6.868 1.734,7.363 C1.138,7.808 0.890,8.426 0.989,9.169 C1.089,9.812 1.312,10.430 1.684,11.000 C2.057,11.593 2.478,12.014 2.974,12.261 C4.314,12.954 5.481,12.756 6.498,11.668 C6.821,11.321 7.069,10.925 7.292,10.430 C7.540,9.886 7.689,9.391 7.714,8.897 C7.714,8.649 7.838,8.525 8.037,8.525 C8.236,8.525 8.360,8.624 8.459,8.798 C8.756,9.664 8.707,10.480 8.285,11.222 C7.863,11.964 7.913,12.657 8.360,13.251 C8.806,13.845 9.427,14.092 10.171,13.969 C10.816,13.870 11.436,13.647 12.007,13.276 C12.603,12.905 13.024,12.484 13.272,11.989 C13.967,10.653 13.769,9.490 12.652,8.501 C12.305,8.179 11.908,7.907 11.412,7.684 C10.865,7.437 10.369,7.288 9.873,7.264 C9.624,7.264 9.500,7.140 9.500,6.942 C9.500,6.744 9.600,6.595 9.799,6.546 C10.146,6.422 10.493,6.348 10.865,6.348 C11.337,6.348 11.784,6.472 12.206,6.695 C12.950,7.115 13.645,7.090 14.265,6.620 C14.860,6.175 15.109,5.557 15.010,4.814 C14.911,4.171 14.687,3.552 14.315,2.983 C13.943,2.390 13.521,1.969 13.024,1.722 C11.685,1.029 10.518,1.227 9.500,2.315 C9.178,2.662 8.930,3.082 8.707,3.552 C8.459,4.097 8.309,4.616 8.285,5.086 C8.285,5.309 8.161,5.433 7.962,5.457 C7.764,5.482 7.615,5.358 7.540,5.185 C7.416,4.839 7.367,4.493 7.367,4.097 C7.367,3.627 7.491,3.181 7.714,2.761 C8.136,2.018 8.086,1.326 7.640,0.732 C7.193,0.138 6.598,-0.109 5.853,-0.010 C5.208,0.088 4.587,0.311 4.016,0.682 C3.421,1.053 3.000,1.474 2.726,1.969 C2.032,3.305 2.230,4.468 3.346,5.482 C3.694,5.804 4.116,6.076 4.587,6.299 C5.133,6.546 5.630,6.670 6.126,6.695 C6.374,6.695 6.498,6.818 6.498,7.016 C6.498,7.214 6.399,7.363 6.200,7.437 C5.357,7.734 4.538,7.684 3.793,7.264 M8.533,6.472 C8.681,6.620 8.732,6.769 8.732,6.967 C8.732,7.165 8.657,7.338 8.533,7.486 C8.384,7.610 8.236,7.684 8.037,7.684 C7.838,7.684 7.665,7.610 7.516,7.486 C7.367,7.338 7.317,7.165 7.317,6.967 C7.317,6.769 7.392,6.595 7.516,6.472 C7.665,6.323 7.838,6.249 8.037,6.249 C8.236,6.274 8.384,6.323 8.533,6.472 L8.533,6.472 Z"/>
</svg>
