<svg 
 xmlns="http://www.w3.org/2000/svg"
 xmlns:xlink="http://www.w3.org/1999/xlink"
 width="14px" height="12px">
<path fill-rule="evenodd"  fill="rgb(201, 201, 210)"
 d="M12.000,4.000 L11.000,6.000 L10.000,4.000 C8.895,4.000 8.000,3.104 8.000,2.000 C8.000,0.895 8.895,-0.000 10.000,-0.000 L12.000,-0.000 C13.104,-0.000 14.000,0.895 14.000,2.000 C14.000,3.104 13.104,4.000 12.000,4.000 ZM13.000,1.000 L9.000,1.000 L9.000,3.000 L13.000,3.000 L13.000,1.000 ZM10.999,9.000 L11.000,7.000 L12.000,7.000 L11.999,9.000 C11.999,10.656 10.656,11.999 8.999,11.999 L7.999,11.999 L7.999,11.000 L8.999,11.000 C10.104,11.000 10.999,10.104 10.999,9.000 ZM4.000,4.000 L3.000,6.000 L2.000,4.000 C0.895,4.000 -0.000,3.104 -0.000,2.000 C-0.000,0.895 0.895,-0.000 2.000,-0.000 L4.000,-0.000 C5.104,-0.000 5.999,0.895 5.999,2.000 C5.999,3.104 5.104,4.000 4.000,4.000 ZM5.000,1.000 L1.000,1.000 L1.000,3.000 L5.000,3.000 L5.000,1.000 ZM2.999,9.000 L3.000,7.000 L4.000,7.000 L3.999,9.000 C3.999,10.656 2.656,11.999 0.999,11.999 L-0.001,11.999 L-0.001,11.000 L0.999,11.000 C2.104,11.000 2.999,10.104 2.999,9.000 Z"/>
</svg>
