<svg 
 xmlns="http://www.w3.org/2000/svg"
 xmlns:xlink="http://www.w3.org/1999/xlink"
 width="13px" height="14px">
<path fill-rule="evenodd"  fill="rgb(255, 255, 255)"
 d="M12.892,12.479 C13.116,13.056 12.830,13.703 12.253,13.925 C12.124,13.974 11.988,14.000 11.850,14.000 L1.117,14.000 C0.501,14.000 -0.000,13.499 -0.000,12.883 C-0.000,12.745 0.026,12.609 0.075,12.479 L3.266,4.224 L3.266,1.187 L2.013,1.187 L2.013,-0.000 L10.954,-0.000 L10.954,1.187 L9.702,1.187 L9.702,4.224 L12.892,12.479 ZM1.218,12.813 L11.748,12.813 L10.692,10.076 C10.182,9.769 9.599,9.603 8.988,9.603 C8.202,9.603 7.461,9.877 6.869,10.369 C6.064,11.041 5.051,11.416 3.983,11.416 C3.263,11.416 2.570,11.247 1.947,10.931 L1.218,12.813 ZM8.514,4.446 L8.514,1.222 L4.453,1.222 L4.453,4.446 L2.378,9.814 C2.862,10.083 3.410,10.228 3.981,10.228 C4.767,10.228 5.508,9.953 6.100,9.461 C6.905,8.789 7.917,8.414 8.986,8.414 C9.367,8.414 9.740,8.461 10.102,8.554 L8.514,4.446 ZM7.182,7.017 C6.796,7.017 6.484,6.705 6.484,6.319 C6.484,5.933 6.796,5.621 7.182,5.621 C7.568,5.621 7.881,5.933 7.881,6.319 C7.881,6.705 7.568,7.017 7.182,7.017 Z"/>
</svg>
