<svg 
 xmlns="http://www.w3.org/2000/svg"
 xmlns:xlink="http://www.w3.org/1999/xlink"
 width="14px" height="14px">
<path fill-rule="evenodd"  fill="rgb(201, 201, 210)"
 d="M12.000,4.000 L10.000,6.000 L8.000,4.000 C6.895,4.000 6.000,3.104 6.000,2.000 C6.000,0.895 6.895,-0.000 8.000,-0.000 L12.000,-0.000 C13.104,-0.000 13.999,0.895 13.999,2.000 C13.999,3.104 13.104,4.000 12.000,4.000 ZM12.000,1.000 L8.000,1.000 L8.000,3.000 L12.000,3.000 L12.000,1.000 ZM8.000,8.000 L2.500,8.000 C2.224,8.000 1.000,8.099 1.000,9.000 C1.000,9.929 2.224,10.000 2.500,10.000 L11.593,10.000 C12.922,10.000 14.000,9.988 14.000,12.000 C14.000,14.012 12.922,14.000 11.593,14.000 L1.000,14.000 C0.013,14.000 0.022,13.000 1.000,13.000 L11.593,13.000 C11.859,13.000 13.000,13.094 13.000,12.000 C13.000,10.982 11.859,11.000 11.593,11.000 L2.500,11.000 C1.119,11.000 -0.000,10.979 -0.000,9.000 C-0.000,6.994 1.119,7.000 2.500,7.000 L8.000,7.000 C9.014,7.000 9.017,8.000 8.000,8.000 Z"/>
</svg>
