<svg 
 xmlns="http://www.w3.org/2000/svg"
 xmlns:xlink="http://www.w3.org/1999/xlink"
 width="14px" height="14px">
<path fill-rule="evenodd"  fill="rgb(255, 255, 255)"
 d="M11.307,7.696 L11.307,6.304 L6.303,11.308 L7.696,11.308 L11.307,7.696 ZM11.307,8.457 L8.457,11.308 L11.307,11.308 L11.307,8.457 ZM11.307,5.542 L11.307,3.073 L3.073,11.308 L5.542,11.308 L11.307,5.542 ZM10.927,2.692 L8.996,2.692 L2.692,8.996 L2.692,10.927 L10.927,2.692 ZM8.234,2.692 L6.303,2.692 L2.692,6.304 L2.692,8.235 L8.234,2.692 ZM5.542,2.692 L2.692,2.692 L2.692,5.542 L5.542,2.692 ZM2.153,0.538 L0.538,0.538 L0.538,2.154 L2.153,2.154 L2.153,0.538 ZM2.692,0.538 L2.692,2.154 L11.307,2.154 L11.307,0.538 L2.692,0.538 ZM11.846,0.538 L11.846,2.154 L13.461,2.154 L13.461,0.538 L11.846,0.538 ZM13.461,2.692 L11.846,2.692 L11.846,11.308 L13.461,11.308 L13.461,2.692 ZM13.461,11.846 L11.846,11.846 L11.846,13.461 L13.461,13.461 L13.461,11.846 ZM11.307,13.461 L11.307,11.846 L2.692,11.846 L2.692,13.461 L11.307,13.461 ZM2.153,13.461 L2.153,11.846 L0.538,11.846 L0.538,13.461 L2.153,13.461 ZM0.538,11.308 L2.153,11.308 L2.153,2.692 L0.538,2.692 L0.538,11.308 ZM0.538,-0.000 L13.461,-0.000 C13.759,-0.000 14.000,0.241 14.000,0.538 L14.000,13.461 C14.000,13.759 13.759,14.000 13.461,14.000 L0.538,14.000 C0.241,14.000 -0.000,13.759 -0.000,13.461 L-0.000,0.538 C-0.000,0.241 0.241,-0.000 0.538,-0.000 L0.538,-0.000 ZM5.384,1.077 L9.153,1.077 L9.153,1.615 L5.384,1.615 L5.384,1.077 ZM5.384,12.384 L9.153,12.384 L9.153,12.923 L5.384,12.923 L5.384,12.384 ZM1.077,5.384 L1.615,5.384 L1.615,9.154 L1.077,9.154 L1.077,5.384 ZM12.384,5.384 L12.923,5.384 L12.923,9.154 L12.384,9.154 L12.384,5.384 Z"/>
</svg>
