<svg 
 xmlns="http://www.w3.org/2000/svg"
 xmlns:xlink="http://www.w3.org/1999/xlink"
 width="14px" height="14px">
<path fill-rule="evenodd"  fill="rgb(255, 255, 255)"
 d="M7.000,14.000 C4.437,14.000 2.220,12.608 1.000,10.554 L1.000,14.000 L-0.000,14.000 L-0.000,7.000 C-0.000,3.134 3.134,-0.000 7.000,-0.000 C10.866,-0.000 14.000,3.134 14.000,7.000 C14.000,10.866 10.866,14.000 7.000,14.000 ZM7.000,1.000 C3.686,1.000 1.000,3.686 1.000,7.000 C1.000,10.314 3.686,13.000 7.000,13.000 C10.314,13.000 13.000,10.314 13.000,7.000 C13.000,3.686 10.314,1.000 7.000,1.000 ZM10.358,4.998 C10.358,4.998 10.354,4.934 10.354,4.901 C10.354,4.201 9.775,3.634 9.061,3.634 C9.039,3.634 8.996,3.632 8.996,3.632 L8.996,3.001 C8.996,3.001 9.038,3.000 9.061,3.000 C10.132,3.000 11.000,3.851 11.000,4.901 C11.000,4.923 10.999,4.965 10.999,4.965 L10.358,4.998 ZM10.000,7.000 C10.000,8.657 8.657,10.000 7.000,10.000 C5.343,10.000 4.000,8.657 4.000,7.000 C4.000,5.343 5.343,4.000 7.000,4.000 C8.657,4.000 10.000,5.343 10.000,7.000 ZM7.000,5.000 C5.895,5.000 5.000,5.895 5.000,7.000 C5.000,8.105 5.895,9.000 7.000,9.000 C8.105,9.000 9.000,8.105 9.000,7.000 C9.000,5.895 8.105,5.000 7.000,5.000 Z"/>
</svg>
