<svg 
 xmlns="http://www.w3.org/2000/svg"
 xmlns:xlink="http://www.w3.org/1999/xlink"
 width="14px" height="13px">
<path fill-rule="evenodd"  fill="rgb(201, 201, 210)"
 d="M12.076,13.000 L11.918,13.000 C11.629,13.000 11.394,12.752 11.394,12.447 C11.394,12.142 11.629,11.894 11.918,11.894 L12.076,11.894 C12.557,11.894 12.950,11.481 12.950,10.973 L12.950,2.027 C12.950,1.519 12.557,1.106 12.076,1.106 L1.924,1.106 C1.442,1.106 1.050,1.519 1.050,2.027 L1.050,10.973 C1.050,11.481 1.442,11.894 1.924,11.894 L8.817,11.894 C9.107,11.894 9.341,12.142 9.341,12.447 C9.341,12.752 9.107,13.000 8.817,13.000 L1.924,13.000 C0.862,12.999 0.001,12.092 -0.000,10.973 L-0.000,2.027 C0.001,0.908 0.862,0.001 1.924,-0.000 L12.074,-0.000 C13.137,0.001 13.998,0.908 14.000,2.027 L14.000,10.973 C13.999,12.092 13.138,12.999 12.076,13.000 ZM7.524,7.052 L7.524,8.866 C7.524,9.171 7.289,9.419 6.999,9.419 C6.710,9.419 6.475,9.171 6.475,8.866 L6.475,7.052 L4.753,7.052 C4.463,7.052 4.228,6.805 4.228,6.499 C4.228,6.194 4.463,5.946 4.753,5.946 L6.475,5.946 L6.475,4.133 C6.475,3.828 6.710,3.580 6.999,3.580 C7.289,3.580 7.524,3.828 7.524,4.133 L7.524,5.946 L9.245,5.946 C9.536,5.946 9.770,6.194 9.770,6.499 C9.770,6.805 9.536,7.052 9.245,7.052 L7.524,7.052 ZM11.564,2.792 C11.774,2.920 11.903,3.156 11.903,3.411 C11.903,3.667 11.774,3.903 11.564,4.030 C11.354,4.158 11.095,4.158 10.885,4.030 C10.675,3.903 10.546,3.667 10.546,3.411 C10.546,3.156 10.675,2.920 10.885,2.792 C11.095,2.664 11.354,2.664 11.564,2.792 Z"/>
</svg>
