<svg 
 xmlns="http://www.w3.org/2000/svg"
 xmlns:xlink="http://www.w3.org/1999/xlink"
 width="14px" height="14px">
<path fill-rule="evenodd"  fill="rgb(201, 201, 210)"
 d="M13.000,14.000 L1.000,14.000 C0.448,14.000 -0.000,13.552 -0.000,13.000 L-0.000,10.000 C-0.000,9.448 0.448,9.000 1.000,9.000 L13.000,9.000 C13.552,9.000 14.000,9.448 14.000,10.000 L14.000,13.000 C14.000,13.552 13.552,14.000 13.000,14.000 ZM8.000,7.000 L1.000,7.000 C0.448,7.000 -0.000,6.552 -0.000,6.000 L-0.000,5.000 C-0.000,4.448 0.448,4.000 1.000,4.000 L8.000,4.000 C8.552,4.000 9.000,4.448 9.000,5.000 L9.000,6.000 C9.000,6.552 8.552,7.000 8.000,7.000 ZM3.000,2.000 L1.000,2.000 C0.448,2.000 -0.000,1.552 -0.000,1.000 C-0.000,0.448 0.448,-0.000 1.000,-0.000 L3.000,-0.000 C3.552,-0.000 4.000,0.448 4.000,1.000 C4.000,1.552 3.552,2.000 3.000,2.000 Z"/>
</svg>
