<svg 
 xmlns="http://www.w3.org/2000/svg"
 xmlns:xlink="http://www.w3.org/1999/xlink"
 width="14px" height="14px">
<path fill-rule="evenodd"  fill="rgb(255, 255, 255)"
 d="M11.000,14.000 L3.000,14.000 C1.343,14.000 -0.000,12.657 -0.000,11.000 L-0.000,3.000 C-0.000,1.343 1.343,-0.000 3.000,-0.000 L11.000,-0.000 C12.656,-0.000 14.000,1.343 14.000,3.000 L14.000,11.000 C14.000,12.657 12.656,14.000 11.000,14.000 ZM13.000,3.000 C13.000,1.895 12.104,1.000 11.000,1.000 L3.000,1.000 C1.895,1.000 1.000,1.895 1.000,3.000 L1.000,11.000 C1.000,12.104 1.895,13.000 3.000,13.000 L11.000,13.000 C12.104,13.000 13.000,12.104 13.000,11.000 L13.000,3.000 ZM10.000,6.000 L11.000,6.000 L11.000,8.000 L10.000,8.000 L10.000,6.000 ZM10.000,3.000 L11.000,3.000 L11.000,5.000 L10.000,5.000 L10.000,3.000 ZM6.000,10.000 L8.000,10.000 L8.000,11.000 L6.000,11.000 L6.000,10.000 ZM6.000,3.000 L8.000,3.000 L8.000,4.000 L6.000,4.000 L6.000,3.000 ZM3.000,6.000 L4.000,6.000 L4.000,8.000 L3.000,8.000 L3.000,6.000 ZM3.000,3.000 L4.000,3.000 L4.000,5.000 L3.000,5.000 L3.000,3.000 ZM4.000,11.000 L3.000,11.000 L3.000,9.000 L4.000,9.000 L4.000,11.000 ZM11.000,11.000 L10.000,11.000 L10.000,9.000 L11.000,9.000 L11.000,11.000 Z"/>
</svg>
