<svg 
 xmlns="http://www.w3.org/2000/svg"
 xmlns:xlink="http://www.w3.org/1999/xlink"
 width="14px" height="14px">
<path fill-rule="evenodd"  fill="rgb(255, 255, 255)"
 d="M13.736,6.217 L11.002,9.001 L11.647,12.933 C11.703,13.275 11.569,13.621 11.300,13.825 C11.147,13.941 10.967,14.000 10.786,14.000 C10.644,14.000 10.505,13.964 10.380,13.895 L7.000,12.039 L3.620,13.895 C3.495,13.964 3.355,14.000 3.213,14.000 C3.032,14.000 2.852,13.941 2.700,13.825 C2.430,13.621 2.296,13.275 2.352,12.933 L2.997,9.001 L0.264,6.217 C0.026,5.974 -0.060,5.612 0.043,5.281 C0.145,4.950 0.418,4.710 0.748,4.660 L4.527,4.086 L6.216,0.509 C6.363,0.197 6.667,-0.000 7.000,-0.000 C7.333,-0.000 7.636,0.197 7.784,0.509 L9.473,4.086 L13.252,4.660 C13.581,4.710 13.854,4.950 13.957,5.281 C14.060,5.612 13.974,5.974 13.736,6.217 ZM8.893,4.920 L7.000,0.912 L5.107,4.920 L0.873,5.563 L3.937,8.682 L3.213,13.087 L7.000,11.007 L10.786,13.087 L10.063,8.682 L13.126,5.563 L8.893,4.920 ZM10.150,12.175 L7.000,10.444 L4.371,11.888 C4.331,11.910 4.285,11.924 4.236,11.924 C4.074,11.924 3.943,11.788 3.943,11.619 C3.943,11.491 4.018,11.382 4.124,11.336 L7.000,9.757 L9.377,11.063 L8.923,8.297 L10.846,6.338 L10.641,6.307 C10.499,6.286 10.388,6.160 10.388,6.005 C10.388,5.836 10.520,5.699 10.681,5.699 C10.703,5.699 10.725,5.702 10.746,5.708 L12.098,5.913 L9.549,8.509 L10.150,12.175 ZM9.201,6.086 C9.191,6.086 9.182,6.084 9.173,6.083 L9.173,6.084 L9.155,6.081 C9.149,6.080 9.143,6.080 9.139,6.079 L8.188,5.935 L7.000,3.418 L5.811,5.935 L3.153,6.338 L5.076,8.297 L4.779,10.109 L4.778,10.108 C4.754,10.252 4.635,10.363 4.490,10.363 C4.329,10.363 4.198,10.226 4.198,10.057 C4.198,10.028 4.203,10.000 4.210,9.974 L4.451,8.509 L1.901,5.913 L5.424,5.378 L7.000,2.043 L8.576,5.378 L9.233,5.478 C9.379,5.495 9.493,5.623 9.493,5.780 C9.493,5.949 9.363,6.086 9.201,6.086 Z"/>
</svg>
