<svg 
 xmlns="http://www.w3.org/2000/svg"
 xmlns:xlink="http://www.w3.org/1999/xlink"
 width="15px" height="12px">
<path fill-rule="evenodd"  fill="rgb(201, 201, 210)"
 d="M15.000,7.483 C15.000,7.579 14.965,7.663 14.918,7.739 C14.733,9.280 14.063,10.728 12.944,11.828 C12.821,11.970 12.629,12.030 12.447,11.985 C12.367,11.965 12.300,11.920 12.241,11.868 C12.210,11.849 12.171,11.855 12.144,11.828 L11.644,11.329 C11.448,11.134 11.448,10.817 11.644,10.621 C11.841,10.425 12.159,10.425 12.355,10.621 L12.521,10.787 C13.223,9.984 13.704,9.023 13.894,7.982 L13.500,7.982 C13.223,7.982 13.000,7.758 13.000,7.483 C13.000,7.207 13.223,6.984 13.500,6.984 L13.994,6.984 C13.994,6.965 14.000,6.948 14.000,6.929 C14.000,5.471 13.456,4.153 12.588,3.114 L12.355,3.347 C12.159,3.543 11.841,3.543 11.644,3.347 C11.448,3.152 11.448,2.834 11.644,2.639 L11.883,2.400 C10.955,1.607 9.789,1.101 8.498,0.993 C8.498,0.994 8.499,0.996 8.499,0.997 L8.499,1.995 C8.499,2.271 8.276,2.494 7.999,2.494 C7.723,2.494 7.499,2.271 7.499,1.995 L7.499,0.997 C7.499,0.996 7.500,0.994 7.500,0.993 C6.210,1.101 5.044,1.607 4.116,2.401 L4.354,2.639 C4.551,2.834 4.551,3.152 4.354,3.347 C4.158,3.543 3.840,3.543 3.644,3.347 L3.411,3.114 C2.543,4.153 2.000,5.471 2.000,6.929 C2.000,6.948 2.005,6.965 2.005,6.984 L2.500,6.984 C2.775,6.984 3.000,7.207 3.000,7.483 C3.000,7.758 2.775,7.982 2.500,7.982 L2.105,7.982 C2.295,9.023 2.776,9.984 3.478,10.787 L3.644,10.621 C3.840,10.425 4.158,10.425 4.354,10.621 C4.551,10.817 4.551,11.134 4.354,11.329 L3.854,11.828 C3.746,11.937 3.602,11.971 3.460,11.959 C3.440,11.961 3.420,11.971 3.399,11.971 C3.266,11.971 3.138,11.917 3.045,11.823 C1.909,10.696 1.245,9.240 1.067,7.719 C1.027,7.647 0.999,7.570 0.999,7.483 C0.999,7.441 1.013,7.404 1.023,7.365 C0.955,6.321 1.117,5.256 1.539,4.249 C2.626,1.654 5.180,-0.026 7.999,-0.000 C11.844,-0.001 14.969,3.093 15.000,6.929 C15.000,7.054 14.969,7.175 14.962,7.299 C14.985,7.356 15.000,7.418 15.000,7.483 ZM8.580,5.557 L9.080,5.422 C9.474,5.323 9.895,5.223 10.315,5.128 L10.719,5.033 L10.880,4.998 C11.087,4.952 11.300,5.041 11.413,5.221 C11.525,5.400 11.512,5.631 11.380,5.797 C11.380,5.822 11.330,5.867 11.279,5.921 L11.014,6.251 C10.734,6.590 10.454,6.929 10.185,7.248 L10.064,7.388 C9.678,7.892 9.234,8.350 8.744,8.755 C8.398,8.972 7.975,9.032 7.581,8.919 C7.187,8.807 6.859,8.533 6.679,8.166 C6.285,7.420 6.518,6.497 7.219,6.026 C7.653,5.816 8.109,5.659 8.580,5.557 ZM7.575,7.702 C7.624,7.823 7.724,7.916 7.848,7.956 C7.972,7.996 8.108,7.980 8.219,7.912 C8.614,7.550 8.980,7.158 9.315,6.740 L9.434,6.605 L9.685,6.305 L9.340,6.390 L8.840,6.525 C8.473,6.611 8.113,6.727 7.764,6.869 C7.503,7.061 7.422,7.416 7.575,7.702 Z"/>
</svg>
