<svg 
 xmlns="http://www.w3.org/2000/svg"
 xmlns:xlink="http://www.w3.org/1999/xlink"
 width="14px" height="14px">
<path fill-rule="evenodd"  fill="rgb(201, 201, 210)"
 d="M13.314,14.000 L0.686,14.000 C0.307,14.000 -0.000,13.693 -0.000,13.314 L-0.000,13.311 C-0.000,12.932 0.307,12.625 0.686,12.625 L1.267,12.625 L1.267,9.906 L2.540,6.635 L3.011,6.378 L1.524,5.242 C0.954,4.805 0.819,3.953 1.227,3.340 L3.074,0.563 C3.481,-0.050 4.277,-0.193 4.849,0.244 L10.032,4.202 C10.603,4.639 10.737,5.491 10.330,6.104 L10.220,6.269 L12.086,7.860 L12.721,12.625 L13.314,12.625 C13.693,12.625 14.000,12.932 14.000,13.311 L14.000,13.314 C14.000,13.693 13.693,14.000 13.314,14.000 ZM3.553,6.791 L3.495,6.983 L2.540,8.542 L2.540,12.625 L4.449,12.625 L4.449,9.906 L5.723,8.542 L5.788,8.498 L3.553,6.791 ZM8.482,8.881 C8.075,9.494 7.279,9.637 6.707,9.200 L6.328,8.911 L5.723,9.906 L5.723,12.625 L8.268,12.625 L8.268,11.269 L8.341,9.614 L8.525,8.817 L8.482,8.881 ZM11.449,8.542 L9.723,7.016 L8.871,8.296 L9.418,10.198 L9.513,12.625 L11.449,12.625 L11.449,8.542 Z"/>
</svg>
