<svg 
 xmlns="http://www.w3.org/2000/svg"
 xmlns:xlink="http://www.w3.org/1999/xlink"
 width="14px" height="12px">
<path fill-rule="evenodd"  fill="rgb(255, 255, 255)"
 d="M13.330,8.679 L7.341,8.679 C6.972,8.679 6.672,8.379 6.672,8.009 C6.672,7.639 6.972,7.339 7.341,7.339 L13.330,7.339 C13.700,7.339 14.000,7.639 14.000,8.009 C14.000,8.379 13.700,8.679 13.330,8.679 ZM13.330,4.661 L7.341,4.661 C6.972,4.661 6.672,4.361 6.672,3.991 C6.672,3.621 6.972,3.321 7.341,3.321 L13.330,3.321 C13.700,3.321 14.000,3.621 14.000,3.991 C14.000,4.361 13.700,4.661 13.330,4.661 ZM13.330,1.339 L7.341,1.339 C6.972,1.339 6.672,1.039 6.672,0.670 C6.672,0.300 6.972,-0.000 7.341,-0.000 L13.330,-0.000 C13.700,-0.000 14.000,0.300 14.000,0.670 C14.000,1.039 13.700,1.339 13.330,1.339 ZM3.332,12.000 L2.000,12.000 C0.895,12.000 -0.000,11.105 -0.000,10.000 L-0.000,8.670 C-0.000,7.565 0.895,6.670 2.000,6.670 L3.332,6.670 C4.437,6.670 5.332,7.565 5.332,8.670 L5.332,10.000 C5.332,11.105 4.437,12.000 3.332,12.000 ZM3.332,5.330 L2.000,5.330 C0.895,5.330 -0.000,4.435 -0.000,3.330 L-0.000,2.000 C-0.000,0.895 0.895,-0.000 2.000,-0.000 L3.332,-0.000 C4.437,-0.000 5.332,0.895 5.332,2.000 L5.332,3.330 C5.332,4.435 4.437,5.330 3.332,5.330 ZM7.341,10.661 L13.330,10.661 C13.700,10.661 14.000,10.960 14.000,11.330 C14.000,11.700 13.700,12.000 13.330,12.000 L7.341,12.000 C6.972,12.000 6.672,11.700 6.672,11.330 C6.672,10.960 6.972,10.661 7.341,10.661 Z"/>
</svg>
