<svg 
 xmlns="http://www.w3.org/2000/svg"
 xmlns:xlink="http://www.w3.org/1999/xlink"
 width="20px" height="20px">
<path fill-rule="evenodd"  fill="rgb(57, 212, 119)"
 d="M10.428,-0.000 L18.976,12.688 C18.976,12.688 19.000,13.016 19.000,13.182 C19.000,16.947 14.970,20.000 9.999,20.000 C5.029,20.000 1.000,16.947 1.000,13.182 C1.000,13.019 1.022,12.698 1.022,12.698 L9.571,-0.000 L10.428,-0.000 Z"/>
<path fill-rule="evenodd"  fill="rgb(62, 162, 102)"
 d="M10.428,-0.000 L18.976,12.688 C18.976,12.688 19.000,13.016 19.000,13.182 C19.000,15.505 17.466,17.556 15.124,18.787 C14.878,18.917 14.360,19.148 14.360,19.148 C14.360,19.148 16.569,15.770 16.000,13.000 C14.835,7.328 10.428,-0.000 10.428,-0.000 Z"/>
<path fill-rule="evenodd"  fill="none"
 d="M-0.000,-0.000 L20.000,-0.000 L20.000,20.000 L-0.000,20.000 L-0.000,-0.000 Z"/>
</svg>
