<svg 
 xmlns="http://www.w3.org/2000/svg"
 xmlns:xlink="http://www.w3.org/1999/xlink"
 width="14px" height="14px">
<path fill-rule="evenodd"  fill="rgb(255, 255, 255)"
 d="M9.737,7.912 C7.720,7.912 6.084,6.277 6.084,4.260 C6.084,2.243 7.720,0.608 9.737,0.608 C11.754,0.608 13.389,2.243 13.389,4.260 C13.389,6.277 11.754,7.912 9.737,7.912 ZM11.888,2.963 L11.028,2.102 L9.736,3.393 L8.445,2.102 L7.584,2.962 L8.876,4.254 L7.584,5.546 L8.445,6.406 L9.736,5.115 L11.028,6.406 L11.889,5.546 L10.597,4.254 L11.888,2.963 ZM6.099,1.801 L5.481,1.801 L5.481,2.419 L5.910,2.419 C5.814,2.617 5.740,2.823 5.676,3.037 L5.481,3.037 L5.481,3.654 L5.537,3.654 C5.508,3.854 5.476,4.052 5.476,4.260 C5.476,4.278 5.481,4.295 5.481,4.314 L5.481,4.864 L5.537,4.864 C5.567,5.076 5.615,5.281 5.675,5.482 L5.481,5.482 L5.481,6.099 L5.909,6.099 C6.117,6.531 6.383,6.929 6.717,7.264 L6.717,7.283 L6.736,7.283 C7.072,7.616 7.469,7.883 7.901,8.090 L7.901,8.544 L8.544,8.544 L8.544,8.331 C8.737,8.387 8.933,8.432 9.136,8.460 L9.136,8.544 L9.754,8.544 L9.754,8.519 C9.956,8.519 10.151,8.488 10.345,8.460 L10.345,8.544 L10.963,8.544 L10.963,8.320 C11.176,8.256 11.383,8.181 11.581,8.086 L11.581,8.544 L12.198,8.544 L12.198,7.901 L11.921,7.901 C12.227,7.717 12.515,7.507 12.765,7.255 L12.765,13.382 L12.198,13.382 L12.198,12.765 L11.581,12.765 L11.581,13.382 L12.198,13.382 L12.198,14.000 L0.618,14.000 L0.618,13.382 L1.235,13.382 L1.235,12.765 L0.618,12.765 L0.618,13.382 L-0.000,13.382 L-0.000,12.765 L-0.000,1.801 L0.618,1.801 L0.618,2.419 L1.235,2.419 L1.235,1.801 L0.618,1.801 L0.618,1.235 L6.738,1.235 C6.489,1.483 6.282,1.768 6.099,2.070 L6.099,1.801 ZM11.581,12.198 L12.198,12.198 L12.198,11.581 L11.581,11.581 L11.581,12.198 ZM11.581,10.963 L12.198,10.963 L12.198,10.346 L11.581,10.346 L11.581,10.963 ZM11.581,9.728 L12.198,9.728 L12.198,9.136 L11.581,9.136 L11.581,9.728 ZM10.345,13.382 L10.963,13.382 L10.963,12.765 L10.345,12.765 L10.345,13.382 ZM10.345,12.198 L10.963,12.198 L10.963,11.581 L10.345,11.581 L10.345,12.198 ZM10.345,10.963 L10.963,10.963 L10.963,10.346 L10.345,10.346 L10.345,10.963 ZM10.345,9.728 L10.963,9.728 L10.963,9.136 L10.345,9.136 L10.345,9.728 ZM9.136,13.382 L9.754,13.382 L9.754,12.765 L9.136,12.765 L9.136,13.382 ZM9.136,12.198 L9.754,12.198 L9.754,11.581 L9.136,11.581 L9.136,12.198 ZM9.136,10.963 L9.754,10.963 L9.754,10.346 L9.136,10.346 L9.136,10.963 ZM9.136,9.728 L9.754,9.728 L9.754,9.136 L9.136,9.136 L9.136,9.728 ZM7.901,13.382 L8.544,13.382 L8.544,12.765 L7.901,12.765 L7.901,13.382 ZM7.901,12.198 L8.544,12.198 L8.544,11.581 L7.901,11.581 L7.901,12.198 ZM7.901,10.963 L8.544,10.963 L8.544,10.346 L7.901,10.346 L7.901,10.963 ZM7.901,9.728 L8.544,9.728 L8.544,9.136 L7.901,9.136 L7.901,9.728 ZM6.717,13.382 L7.283,13.382 L7.283,12.765 L6.717,12.765 L6.717,13.382 ZM6.717,12.198 L7.283,12.198 L7.283,11.581 L6.717,11.581 L6.717,12.198 ZM6.717,10.963 L7.283,10.963 L7.283,10.346 L6.717,10.346 L6.717,10.963 ZM6.717,9.728 L7.283,9.728 L7.283,9.136 L6.717,9.136 L6.717,9.728 ZM6.717,8.544 L7.283,8.544 L7.283,7.901 L6.717,7.901 L6.717,8.544 ZM5.481,13.382 L6.099,13.382 L6.099,12.765 L5.481,12.765 L5.481,13.382 ZM5.481,12.198 L6.099,12.198 L6.099,11.581 L5.481,11.581 L5.481,12.198 ZM5.481,10.963 L6.099,10.963 L6.099,10.346 L5.481,10.346 L5.481,10.963 ZM5.481,9.728 L6.099,9.728 L6.099,9.136 L5.481,9.136 L5.481,9.728 ZM5.481,8.544 L6.099,8.544 L6.099,7.901 L5.481,7.901 L5.481,8.544 ZM5.481,7.283 L6.099,7.283 L6.099,6.717 L5.481,6.717 L5.481,7.283 ZM1.235,3.037 L0.618,3.037 L0.618,3.654 L1.235,3.654 L1.235,3.037 ZM1.235,4.246 L0.618,4.246 L0.618,4.864 L1.235,4.864 L1.235,4.246 ZM1.235,5.482 L0.618,5.482 L0.618,6.099 L1.235,6.099 L1.235,5.482 ZM1.235,6.717 L0.618,6.717 L0.618,7.283 L1.235,7.283 L1.235,6.717 ZM1.235,7.901 L0.618,7.901 L0.618,8.544 L1.235,8.544 L1.235,7.901 ZM1.235,9.136 L0.618,9.136 L0.618,9.728 L1.235,9.728 L1.235,9.136 ZM1.235,10.346 L0.618,10.346 L0.618,10.963 L1.235,10.963 L1.235,10.346 ZM1.235,11.581 L0.618,11.581 L0.618,12.198 L1.235,12.198 L1.235,11.581 ZM2.419,1.801 L1.801,1.801 L1.801,2.419 L2.419,2.419 L2.419,1.801 ZM2.419,3.037 L1.801,3.037 L1.801,3.654 L2.419,3.654 L2.419,3.037 ZM2.419,4.246 L1.801,4.246 L1.801,4.864 L2.419,4.864 L2.419,4.246 ZM2.419,5.482 L1.801,5.482 L1.801,6.099 L2.419,6.099 L2.419,5.482 ZM2.419,6.717 L1.801,6.717 L1.801,7.283 L2.419,7.283 L2.419,6.717 ZM2.419,7.901 L1.801,7.901 L1.801,8.544 L2.419,8.544 L2.419,7.901 ZM2.419,9.136 L1.801,9.136 L1.801,9.728 L2.419,9.728 L2.419,9.136 ZM2.419,10.346 L1.801,10.346 L1.801,10.963 L2.419,10.963 L2.419,10.346 ZM2.419,11.581 L1.801,11.581 L1.801,12.198 L2.419,12.198 L2.419,11.581 ZM2.419,12.765 L1.801,12.765 L1.801,13.382 L2.419,13.382 L2.419,12.765 ZM3.654,1.801 L3.037,1.801 L3.037,2.419 L3.654,2.419 L3.654,1.801 ZM3.654,3.037 L3.037,3.037 L3.037,3.654 L3.654,3.654 L3.654,3.037 ZM3.654,4.246 L3.037,4.246 L3.037,4.864 L3.654,4.864 L3.654,4.246 ZM3.654,5.482 L3.037,5.482 L3.037,6.099 L3.654,6.099 L3.654,5.482 ZM3.654,6.717 L3.037,6.717 L3.037,7.283 L3.654,7.283 L3.654,6.717 ZM3.654,7.901 L3.037,7.901 L3.037,8.544 L3.654,8.544 L3.654,7.901 ZM3.654,9.136 L3.037,9.136 L3.037,9.728 L3.654,9.728 L3.654,9.136 ZM3.654,10.346 L3.037,10.346 L3.037,10.963 L3.654,10.963 L3.654,10.346 ZM3.654,11.581 L3.037,11.581 L3.037,12.198 L3.654,12.198 L3.654,11.581 ZM3.654,12.765 L3.037,12.765 L3.037,13.382 L3.654,13.382 L3.654,12.765 ZM4.864,1.801 L4.272,1.801 L4.272,2.419 L4.864,2.419 L4.864,1.801 ZM4.864,3.037 L4.272,3.037 L4.272,3.654 L4.864,3.654 L4.864,3.037 ZM4.864,4.246 L4.272,4.246 L4.272,4.864 L4.864,4.864 L4.864,4.246 ZM4.864,5.482 L4.272,5.482 L4.272,6.099 L4.864,6.099 L4.864,5.482 ZM4.864,6.717 L4.272,6.717 L4.272,7.283 L4.864,7.283 L4.864,6.717 ZM4.864,7.901 L4.272,7.901 L4.272,8.544 L4.864,8.544 L4.864,7.901 ZM4.864,9.136 L4.272,9.136 L4.272,9.728 L4.864,9.728 L4.864,9.136 ZM4.864,10.346 L4.272,10.346 L4.272,10.963 L4.864,10.963 L4.864,10.346 ZM4.864,11.581 L4.272,11.581 L4.272,12.198 L4.864,12.198 L4.864,11.581 ZM4.864,12.765 L4.272,12.765 L4.272,13.382 L4.864,13.382 L4.864,12.765 Z"/>
</svg>
