<svg 
 xmlns="http://www.w3.org/2000/svg"
 xmlns:xlink="http://www.w3.org/1999/xlink"
 width="12px" height="13px">
<path fill-rule="evenodd"  fill="rgb(255, 255, 255)"
 d="M11.076,10.214 L11.076,1.857 C11.076,1.346 10.661,0.928 10.153,0.928 L3.691,0.928 L3.691,-0.000 L10.153,-0.000 C11.168,-0.000 11.999,0.835 11.999,1.857 L11.999,10.214 L11.076,10.214 ZM10.153,3.714 L10.153,11.142 C10.153,12.164 9.322,13.000 8.307,13.000 L1.845,13.000 C0.829,13.000 -0.001,12.164 -0.001,11.142 L-0.001,3.714 C-0.001,2.693 0.829,1.857 1.845,1.857 L8.307,1.857 C9.322,1.857 10.153,2.693 10.153,3.714 ZM1.194,3.059 C1.019,3.235 0.922,3.468 0.922,3.714 L0.922,11.142 C0.922,11.388 1.019,11.621 1.194,11.797 C1.369,11.974 1.601,12.071 1.845,12.071 L8.307,12.071 C8.551,12.071 8.782,11.974 8.958,11.797 C9.133,11.621 9.230,11.388 9.230,11.142 L9.230,3.714 C9.230,3.468 9.133,3.235 8.958,3.059 C8.782,2.882 8.551,2.785 8.307,2.785 L1.845,2.785 C1.601,2.785 1.369,2.882 1.194,3.059 ZM7.250,9.616 C7.071,9.796 6.778,9.796 6.598,9.616 L5.076,8.085 L3.554,9.616 C3.375,9.796 3.081,9.796 2.901,9.616 C2.722,9.435 2.722,9.140 2.901,8.959 L4.423,7.428 L2.901,5.897 C2.722,5.717 2.722,5.421 2.901,5.241 C3.081,5.060 3.375,5.060 3.554,5.241 L5.076,6.772 L6.598,5.241 C6.778,5.060 7.071,5.060 7.250,5.241 C7.430,5.421 7.430,5.717 7.250,5.897 L5.729,7.428 L7.250,8.959 C7.430,9.140 7.430,9.435 7.250,9.616 Z"/>
</svg>
