<svg 
 xmlns="http://www.w3.org/2000/svg"
 xmlns:xlink="http://www.w3.org/1999/xlink"
 width="14px" height="14px">
<path fill-rule="evenodd"  fill="rgb(255, 255, 255)"
 d="M13.333,1.350 L12.126,1.350 C12.105,1.348 12.087,1.344 12.065,1.344 C12.043,1.344 12.024,1.349 12.003,1.350 L7.851,1.352 L7.853,0.640 C7.853,0.286 7.545,-0.000 7.177,-0.000 C7.117,-0.000 7.067,0.005 7.015,0.009 C6.958,0.005 6.904,-0.000 6.839,-0.000 C6.471,-0.000 6.172,0.286 6.172,0.640 L6.175,1.353 L2.126,1.355 C2.078,1.343 2.028,1.334 1.972,1.334 C1.916,1.334 1.865,1.343 1.817,1.355 L0.624,1.356 C0.256,1.356 -0.000,1.497 -0.000,1.851 C-0.000,2.204 0.256,2.398 0.624,2.398 L1.398,2.398 L1.404,12.773 C1.434,13.452 1.969,13.994 2.685,13.994 L3.352,13.994 L3.352,14.000 L10.695,13.996 L10.695,13.994 L11.362,13.994 C12.098,13.994 12.622,13.423 12.624,12.718 L12.618,2.393 L13.333,2.393 C13.701,2.393 14.000,2.199 14.000,1.845 C14.000,1.492 13.701,1.350 13.333,1.350 L13.333,1.350 ZM11.496,11.650 C11.500,12.491 11.332,12.800 10.739,12.894 L3.155,12.898 C2.784,12.822 2.604,12.639 2.530,12.248 L2.525,2.398 L11.496,2.393 L11.501,12.893 L11.496,11.650 ZM5.334,3.494 C5.024,3.494 4.773,3.735 4.773,4.032 L4.773,11.292 C4.773,11.589 5.024,11.830 5.334,11.830 C5.643,11.830 5.894,11.589 5.894,11.292 L5.894,4.032 C5.894,3.735 5.643,3.494 5.334,3.494 L5.334,3.494 ZM8.698,3.494 C8.388,3.494 8.138,3.735 8.138,4.032 L8.138,11.292 C8.138,11.589 8.388,11.830 8.698,11.830 C9.008,11.830 9.259,11.589 9.259,11.292 L9.259,4.032 C9.259,3.735 9.008,3.494 8.698,3.494 L8.698,3.494 Z"/>
</svg>
