<svg 
 xmlns="http://www.w3.org/2000/svg"
 xmlns:xlink="http://www.w3.org/1999/xlink"
 width="12px" height="16px">
<path fill-rule="evenodd"  fill="rgb(51, 51, 51)"
 d="M11.456,8.341 C10.822,7.783 9.844,7.844 9.281,8.473 L7.507,10.467 L7.507,2.892 C7.507,2.846 7.502,2.796 7.499,2.749 C7.502,2.699 7.507,2.645 7.507,2.592 L7.507,1.508 C7.507,0.678 6.822,-0.003 5.983,-0.003 C5.146,-0.003 4.461,0.678 4.461,1.508 L4.461,2.592 C4.461,2.649 4.465,2.702 4.472,2.760 C4.468,2.802 4.465,2.846 4.465,2.892 L4.465,10.463 L2.690,8.473 C2.127,7.844 1.148,7.783 0.514,8.341 C-0.121,8.900 -0.182,9.869 0.380,10.499 L4.830,15.486 C4.979,15.654 5.153,15.780 5.348,15.866 C5.352,15.866 5.355,15.869 5.360,15.869 L5.414,15.891 C5.420,15.894 5.429,15.897 5.435,15.897 C5.450,15.905 5.463,15.909 5.479,15.912 C5.489,15.916 5.500,15.919 5.507,15.923 C5.518,15.926 5.533,15.930 5.543,15.933 C5.554,15.938 5.569,15.941 5.580,15.945 C5.590,15.948 5.601,15.952 5.613,15.952 C5.626,15.954 5.641,15.958 5.651,15.962 C5.662,15.966 5.674,15.966 5.680,15.969 C5.695,15.973 5.709,15.977 5.724,15.977 C5.735,15.977 5.743,15.980 5.752,15.980 C5.767,15.983 5.783,15.983 5.796,15.987 C5.807,15.987 5.817,15.991 5.824,15.991 C5.840,15.991 5.853,15.994 5.868,15.994 C5.879,15.994 5.890,15.994 5.900,15.998 L6.052,15.998 C6.063,15.998 6.075,15.998 6.085,15.994 C6.099,15.994 6.114,15.991 6.128,15.991 C6.139,15.991 6.149,15.987 6.157,15.987 C6.171,15.987 6.186,15.983 6.200,15.980 C6.211,15.980 6.218,15.977 6.230,15.977 C6.244,15.973 6.258,15.973 6.272,15.969 C6.284,15.966 6.294,15.966 6.302,15.962 C6.316,15.958 6.330,15.954 6.342,15.952 C6.352,15.948 6.362,15.948 6.373,15.945 C6.385,15.941 6.398,15.938 6.410,15.933 C6.421,15.930 6.435,15.926 6.445,15.923 C6.457,15.919 6.467,15.916 6.475,15.912 C6.489,15.909 6.504,15.902 6.518,15.897 C6.524,15.894 6.532,15.891 6.539,15.891 L6.593,15.869 C6.597,15.869 6.602,15.866 6.604,15.866 C6.795,15.780 6.976,15.654 7.123,15.486 L11.576,10.499 C12.154,9.869 12.092,8.896 11.456,8.341 L11.456,8.341 Z"/>
</svg>
