<svg 
 xmlns="http://www.w3.org/2000/svg"
 xmlns:xlink="http://www.w3.org/1999/xlink"
 width="12px" height="16px">
<path fill-rule="evenodd"  fill="rgb(51, 51, 51)"
 d="M11.452,8.341 C10.818,7.782 9.840,7.843 9.277,8.473 L7.503,10.466 L7.503,2.891 C7.503,2.845 7.497,2.795 7.494,2.749 C7.497,2.698 7.503,2.645 7.503,2.591 L7.503,1.507 C7.503,0.677 6.818,-0.004 5.978,-0.004 C5.142,-0.004 4.456,0.677 4.456,1.507 L4.456,2.591 C4.456,2.648 4.461,2.701 4.468,2.759 C4.464,2.802 4.461,2.845 4.461,2.891 L4.461,10.462 L2.686,8.473 C2.123,7.843 1.144,7.782 0.510,8.341 C-0.125,8.899 -0.186,9.869 0.376,10.498 L4.826,15.486 C4.974,15.654 5.150,15.779 5.344,15.865 C5.348,15.865 5.351,15.869 5.356,15.869 L5.410,15.890 C5.416,15.893 5.425,15.896 5.431,15.896 C5.446,15.904 5.460,15.908 5.475,15.911 C5.484,15.915 5.496,15.918 5.502,15.922 C5.514,15.926 5.529,15.929 5.539,15.932 C5.551,15.937 5.564,15.940 5.576,15.944 C5.587,15.947 5.598,15.951 5.608,15.951 C5.622,15.954 5.636,15.958 5.647,15.962 C5.657,15.965 5.669,15.965 5.676,15.969 C5.691,15.973 5.704,15.976 5.720,15.976 C5.730,15.976 5.740,15.979 5.747,15.979 C5.762,15.983 5.779,15.983 5.792,15.986 C5.802,15.986 5.813,15.991 5.819,15.991 C5.836,15.991 5.850,15.994 5.865,15.994 C5.875,15.994 5.887,15.994 5.896,15.998 L6.048,15.998 C6.059,15.998 6.071,15.998 6.081,15.994 C6.095,15.994 6.110,15.991 6.125,15.991 C6.136,15.991 6.146,15.986 6.153,15.986 C6.166,15.986 6.182,15.983 6.196,15.979 C6.207,15.979 6.214,15.976 6.226,15.976 C6.238,15.973 6.255,15.973 6.268,15.969 C6.279,15.965 6.290,15.965 6.298,15.962 C6.313,15.958 6.326,15.954 6.338,15.951 C6.348,15.947 6.358,15.947 6.369,15.944 C6.381,15.940 6.394,15.937 6.406,15.932 C6.417,15.929 6.430,15.926 6.442,15.922 C6.453,15.918 6.464,15.915 6.470,15.911 C6.485,15.908 6.500,15.901 6.514,15.896 C6.520,15.893 6.529,15.890 6.535,15.890 L6.590,15.869 C6.593,15.869 6.598,15.865 6.600,15.865 C6.791,15.779 6.973,15.654 7.118,15.486 L11.572,10.498 C12.150,9.869 12.088,8.895 11.452,8.341 L11.452,8.341 Z"/>
</svg>
