<svg 
 xmlns="http://www.w3.org/2000/svg"
 xmlns:xlink="http://www.w3.org/1999/xlink"
 width="16px" height="16px">
<path fill-rule="evenodd"  fill="rgb(203, 203, 203)"
 d="M16.000,14.996 C16.000,14.996 16.000,14.995 16.000,14.995 L16.000,14.997 C16.000,14.997 16.000,14.996 16.000,14.996 ZM14.635,15.992 L1.365,15.992 C0.456,15.992 0.001,15.660 0.000,14.996 C0.001,14.332 0.456,14.000 1.365,14.000 L14.635,14.000 C15.544,14.000 15.999,14.332 16.000,14.996 C15.999,15.660 15.544,15.992 14.635,15.992 ZM-0.000,14.995 C-0.000,14.995 0.000,14.996 0.000,14.996 C0.000,14.996 -0.000,14.997 -0.000,14.997 L-0.000,14.995 ZM14.635,8.992 L1.365,8.992 C0.456,8.992 0.001,8.660 0.000,7.996 C0.001,7.332 0.456,7.000 1.365,7.000 L14.635,7.000 C15.544,7.000 15.999,7.332 16.000,7.996 C15.999,8.660 15.544,8.992 14.635,8.992 ZM-0.000,7.995 C-0.000,7.995 0.000,7.996 0.000,7.996 C0.000,7.996 -0.000,7.997 -0.000,7.997 L-0.000,7.995 ZM16.000,7.995 L16.000,7.997 C16.000,7.997 16.000,7.996 16.000,7.996 C16.000,7.996 16.000,7.995 16.000,7.995 ZM14.635,1.992 L1.365,1.992 C0.456,1.992 0.001,1.660 0.000,0.996 C0.001,0.332 0.456,-0.000 1.365,-0.000 L14.635,-0.000 C15.544,-0.000 15.999,0.332 16.000,0.996 C15.999,1.660 15.544,1.992 14.635,1.992 ZM-0.000,0.995 C-0.000,0.995 0.000,0.996 0.000,0.996 C0.000,0.996 -0.000,0.997 -0.000,0.997 L-0.000,0.995 ZM16.000,0.995 L16.000,0.997 C16.000,0.997 16.000,0.996 16.000,0.996 C16.000,0.996 16.000,0.995 16.000,0.995 Z"/>
</svg>
