<svg 
 xmlns="http://www.w3.org/2000/svg"
 xmlns:xlink="http://www.w3.org/1999/xlink"
 width="14px" height="14px">
<path fill-rule="evenodd"  fill="rgb(51, 51, 51)"
 d="M11.712,13.998 L2.284,13.998 C1.021,13.998 -0.002,12.975 -0.002,11.713 L-0.002,6.814 C-0.002,6.628 0.097,6.457 0.258,6.364 C0.417,6.272 0.615,6.272 0.776,6.364 C0.936,6.457 1.035,6.628 1.035,6.814 L1.035,11.713 C1.035,12.402 1.594,12.961 2.284,12.961 L11.712,12.961 C12.043,12.961 12.360,12.830 12.595,12.596 C12.829,12.361 12.960,12.044 12.960,11.713 L12.960,2.285 C12.960,1.953 12.829,1.636 12.595,1.401 C12.360,1.167 12.043,1.035 11.712,1.035 L7.207,1.035 C6.921,1.035 6.689,0.803 6.689,0.517 C6.689,0.231 6.921,-0.001 7.207,-0.001 L11.712,-0.001 C12.974,-0.001 13.998,1.022 13.998,2.285 L13.998,11.713 C13.998,12.975 12.974,13.998 11.712,13.998 ZM8.874,5.069 C9.030,4.829 9.351,4.760 9.592,4.916 C9.832,5.072 9.900,5.393 9.745,5.633 L8.261,7.928 C8.021,8.298 7.536,8.421 7.149,8.210 L4.775,6.912 C4.527,6.772 4.438,6.460 4.575,6.212 C4.710,5.963 5.021,5.869 5.271,6.001 L6.885,6.884 C6.212,3.996 3.730,1.857 0.728,1.696 L0.489,1.683 L0.489,1.684 C0.202,1.668 -0.016,1.424 -0.001,1.138 C0.013,0.851 0.258,0.632 0.544,0.647 L0.784,0.660 C4.233,0.845 7.089,3.294 7.881,6.605 L8.874,5.069 Z"/>
</svg>
