<svg 
 xmlns="http://www.w3.org/2000/svg"
 xmlns:xlink="http://www.w3.org/1999/xlink"
 width="11px" height="14px">
<path fill-rule="evenodd"  fill="rgb(51, 51, 51)"
 d="M9.536,5.410 L9.440,5.410 L9.440,3.296 C9.440,1.478 7.917,-0.001 6.046,-0.001 L4.959,-0.001 C3.087,-0.001 1.564,1.478 1.564,3.296 L1.564,5.004 C1.564,5.378 1.876,5.680 2.260,5.680 C2.645,5.680 2.957,5.378 2.957,5.004 L2.957,3.296 C2.958,2.223 3.853,1.353 4.959,1.352 L6.046,1.352 C7.151,1.353 8.046,2.223 8.048,3.296 L8.048,5.410 L1.459,5.410 C0.653,5.412 0.000,6.047 -0.002,6.830 L-0.002,12.579 C0.000,13.363 0.653,13.997 1.459,13.999 L9.536,13.999 C10.342,13.997 10.995,13.363 10.998,12.579 L10.998,6.830 C10.995,6.047 10.342,5.412 9.536,5.410 L9.536,5.410 ZM6.332,10.259 L6.542,11.885 L4.453,11.885 L4.662,10.259 C4.094,9.900 3.836,9.220 4.029,8.588 C4.222,7.957 4.818,7.523 5.497,7.523 C6.175,7.523 6.773,7.957 6.965,8.588 C7.158,9.220 6.901,9.900 6.332,10.259 L6.332,10.259 Z"/>
</svg>
