<svg 
 xmlns="http://www.w3.org/2000/svg"
 xmlns:xlink="http://www.w3.org/1999/xlink"
 width="14px" height="16px">
<path fill-rule="evenodd"  fill="rgb(159, 159, 162)"
 d="M10.643,7.939 C9.709,8.760 8.471,9.264 7.108,9.264 C5.720,9.264 4.461,8.742 3.523,7.895 C1.346,8.465 -0.003,10.413 -0.003,12.735 L-0.003,13.922 C-0.003,16.690 13.997,16.690 13.997,13.922 L13.997,12.735 C13.999,10.473 12.720,8.562 10.643,7.939 L10.643,7.939 ZM7.108,8.423 C9.522,8.423 11.484,6.538 11.484,4.210 C11.484,1.883 9.525,-0.002 7.108,-0.002 C4.691,-0.002 2.732,1.883 2.732,4.210 C2.732,6.538 4.691,8.423 7.108,8.423 L7.108,8.423 Z"/>
</svg>
