<svg 
 xmlns="http://www.w3.org/2000/svg"
 xmlns:xlink="http://www.w3.org/1999/xlink"
 width="14px" height="16px">
<path fill-rule="evenodd"  fill="rgb(203, 203, 203)"
 d="M10.638,7.938 C9.705,8.759 8.467,9.263 7.103,9.263 C5.715,9.263 4.456,8.742 3.517,7.894 C1.341,8.464 -0.008,10.413 -0.008,12.734 L-0.008,13.922 C-0.008,16.689 13.992,16.689 13.992,13.922 L13.992,12.734 C13.994,10.472 12.715,8.561 10.638,7.938 L10.638,7.938 ZM7.103,8.422 C9.518,8.422 11.479,6.537 11.479,4.210 C11.479,1.882 9.520,-0.002 7.103,-0.002 C4.686,-0.002 2.728,1.882 2.728,4.210 C2.728,6.537 4.686,8.422 7.103,8.422 L7.103,8.422 Z"/>
</svg>
