<svg 
 xmlns="http://www.w3.org/2000/svg"
 xmlns:xlink="http://www.w3.org/1999/xlink"
 width="14px" height="14px">
<path fill-rule="evenodd"  fill="rgb(255, 255, 255)"
 d="M6.024,5.054 L7.971,5.054 C8.151,5.054 8.294,4.911 8.294,4.730 L8.294,3.107 L9.455,3.107 C9.746,3.107 9.890,2.758 9.682,2.556 L7.224,0.097 C7.100,-0.030 6.896,-0.033 6.770,0.090 L6.763,0.097 L4.306,2.556 C4.181,2.683 4.181,2.888 4.309,3.013 C4.370,3.074 4.454,3.107 4.540,3.106 L5.701,3.106 L5.701,4.728 C5.701,4.911 5.842,5.052 6.024,5.054 L6.024,5.054 ZM4.728,5.701 L3.105,5.701 L3.105,4.541 C3.105,4.249 2.756,4.106 2.554,4.313 L0.096,6.771 C-0.031,6.894 -0.034,7.098 0.089,7.225 L0.096,7.231 L2.555,9.690 C2.756,9.891 3.106,9.749 3.106,9.456 L3.106,8.296 L4.729,8.296 C4.910,8.296 5.053,8.152 5.053,7.972 L5.053,6.025 C5.055,5.848 4.911,5.703 4.734,5.701 L4.728,5.701 ZM13.906,6.772 L11.447,4.313 C11.322,4.185 11.116,4.182 10.988,4.307 C10.925,4.367 10.890,4.452 10.890,4.539 L10.890,5.700 L9.267,5.700 C9.090,5.698 8.945,5.841 8.944,6.019 L8.944,7.970 C8.944,8.152 9.087,8.294 9.267,8.294 L10.890,8.294 L10.890,9.458 C10.890,9.749 11.239,9.893 11.442,9.685 L13.901,7.226 C14.027,7.105 14.032,6.902 13.911,6.774 C13.907,6.774 13.906,6.772 13.906,6.772 L13.906,6.772 ZM7.971,8.945 L6.024,8.945 C5.847,8.943 5.702,9.086 5.701,9.264 L5.701,10.891 L4.540,10.891 C4.248,10.891 4.105,11.240 4.313,11.443 L6.771,13.902 C6.895,14.028 7.099,14.032 7.225,13.908 L9.691,11.443 C9.816,11.316 9.816,11.110 9.688,10.986 C9.627,10.927 9.548,10.893 9.463,10.893 L8.298,10.893 L8.298,9.271 C8.300,9.093 8.156,8.948 7.979,8.947 C7.974,8.945 7.972,8.945 7.971,8.945 L7.971,8.945 Z"/>
</svg>
