<svg 
 xmlns="http://www.w3.org/2000/svg"
 xmlns:xlink="http://www.w3.org/1999/xlink"
 width="20px" height="17px">
<path fill-rule="evenodd"  fill="rgb(51, 51, 51)"
 d="M17.439,16.142 C17.272,16.654 16.791,16.999 16.247,16.999 L1.249,16.999 C0.558,16.999 -0.001,16.449 -0.002,15.767 L-0.002,1.231 C-0.001,0.551 0.558,-0.001 1.247,-0.001 L7.499,-0.001 C7.828,-0.001 8.147,0.129 8.380,0.360 C8.614,0.591 8.747,0.904 8.747,1.231 C8.747,1.914 9.305,2.466 9.996,2.466 L16.247,2.466 C16.937,2.467 17.496,3.019 17.496,3.702 L17.496,5.545 L17.492,5.545 C17.492,5.548 17.494,5.551 17.494,5.553 C17.494,5.892 17.216,6.169 16.870,6.169 C16.527,6.169 16.250,5.896 16.247,5.559 L16.247,3.702 L9.996,3.702 C8.616,3.702 7.499,2.598 7.499,1.233 L1.247,1.233 L1.247,11.965 L2.555,7.983 C2.722,7.473 3.203,7.126 3.747,7.126 L18.747,7.126 C19.438,7.128 19.995,7.680 19.997,8.360 L17.439,16.142 Z"/>
</svg>
