<svg 
 xmlns="http://www.w3.org/2000/svg"
 xmlns:xlink="http://www.w3.org/1999/xlink"
 width="16px" height="21px">
<path fill-rule="evenodd"  fill="rgb(51, 51, 51)"
 d="M14.068,4.599 C12.920,4.599 12.130,3.718 12.130,2.281 C12.130,0.838 12.920,0.000 14.068,0.000 C15.216,0.000 16.006,0.844 16.006,2.281 C16.006,3.718 15.216,4.599 14.068,4.599 ZM14.068,0.761 C13.424,0.761 13.014,1.329 13.014,2.281 C13.014,3.227 13.424,3.832 14.068,3.832 C14.712,3.832 15.122,3.227 15.122,2.281 C15.122,1.329 14.712,0.761 14.068,0.761 ZM10.412,4.515 L9.546,4.515 L9.546,0.820 L8.328,0.820 L8.328,0.084 L11.642,0.084 L11.642,0.820 L10.412,0.820 L10.412,4.515 ZM5.966,4.599 C4.912,4.599 4.280,3.994 4.280,2.521 L4.280,0.084 L5.147,0.084 L5.147,2.599 C5.147,3.521 5.457,3.832 5.966,3.832 C6.482,3.832 6.809,3.521 6.809,2.599 L6.809,0.084 L7.641,0.084 L7.641,2.521 C7.641,3.994 7.026,4.599 5.966,4.599 ZM2.580,3.377 L1.175,3.377 L0.871,4.515 L-0.008,4.515 L1.380,0.084 L2.399,0.084 L3.792,4.515 L2.885,4.515 L2.580,3.377 ZM2.264,2.204 C2.129,1.743 2.012,1.234 1.883,0.755 L1.860,0.755 C1.749,1.240 1.620,1.743 1.491,2.204 L1.362,2.689 L2.393,2.689 L2.264,2.204 ZM1.646,19.824 L14.534,19.824 C14.793,19.824 15.119,20.152 15.119,20.411 C15.119,20.671 14.790,20.998 14.531,20.998 L1.548,20.998 C1.289,20.998 1.060,20.671 1.060,20.411 C1.060,20.152 1.387,19.824 1.646,19.824 ZM6.683,17.646 C6.369,18.171 5.707,18.331 5.206,18.002 L1.568,15.624 C1.066,15.296 0.914,14.604 1.228,14.079 L5.211,7.428 C5.525,6.903 6.187,6.744 6.688,7.073 L10.325,9.451 C10.827,9.778 10.980,10.470 10.666,10.995 L6.683,17.646 ZM13.715,16.212 L13.715,16.877 L14.319,16.332 C14.604,16.206 14.828,16.225 14.995,16.389 C15.161,16.552 15.161,16.772 14.995,17.049 L13.319,18.604 C13.253,18.665 13.152,18.664 13.088,18.600 L11.511,17.049 C11.375,16.762 11.375,16.542 11.511,16.389 C11.645,16.234 11.858,16.215 12.148,16.332 L12.750,16.877 L12.750,16.212 C12.750,15.167 11.881,14.313 10.807,14.313 L10.816,14.313 C10.560,14.253 10.433,14.096 10.433,13.840 C10.433,13.585 10.560,13.425 10.816,13.363 L10.820,13.363 C12.413,13.363 13.715,14.646 13.715,16.212 Z"/>
</svg>
