<svg 
 xmlns="http://www.w3.org/2000/svg"
 xmlns:xlink="http://www.w3.org/1999/xlink"
 width="17px" height="17px">
<path fill-rule="evenodd"  fill="rgb(51, 51, 51)"
 d="M14.737,6.810 C14.737,6.058 15.082,5.385 15.619,4.950 C15.874,4.744 15.936,4.375 15.762,4.095 C15.431,3.560 15.046,3.062 14.614,2.612 C14.383,2.372 14.010,2.358 13.751,2.567 C13.333,2.910 12.794,3.110 12.207,3.087 C11.022,3.045 10.050,2.086 9.966,0.881 C9.960,0.818 9.960,0.758 9.960,0.695 C9.963,0.358 9.707,0.080 9.379,0.046 C9.090,0.014 8.795,-0.000 8.500,-0.000 C8.188,-0.000 7.882,0.017 7.582,0.049 C7.253,0.086 7.011,0.372 7.011,0.707 L7.011,0.712 C7.011,2.023 5.967,3.087 4.680,3.087 C4.133,3.087 3.630,2.896 3.231,2.572 C2.976,2.364 2.605,2.384 2.375,2.624 C1.942,3.073 1.558,3.571 1.229,4.109 C1.058,4.387 1.120,4.753 1.370,4.962 C1.903,5.397 2.240,6.063 2.240,6.810 C2.240,7.921 1.490,8.853 0.480,9.114 C0.168,9.194 -0.034,9.500 0.005,9.826 C0.081,10.430 0.216,11.017 0.404,11.575 C0.510,11.895 0.839,12.078 1.162,12.001 C1.370,11.949 1.586,11.927 1.811,11.938 C3.035,11.992 4.015,13.023 4.037,14.270 C4.043,14.654 3.962,15.017 3.807,15.340 C3.664,15.647 3.768,16.013 4.051,16.187 C4.554,16.499 5.091,16.760 5.652,16.963 C5.953,17.071 6.284,16.937 6.430,16.651 C6.818,15.890 7.598,15.369 8.500,15.369 C9.401,15.369 10.182,15.890 10.569,16.651 C10.715,16.937 11.050,17.071 11.350,16.963 C11.943,16.751 12.505,16.474 13.027,16.139 C13.302,15.964 13.403,15.606 13.265,15.309 C13.117,14.985 13.041,14.622 13.049,14.242 C13.083,12.997 14.077,11.978 15.299,11.935 C15.492,11.930 15.683,11.947 15.863,11.987 C16.180,12.055 16.498,11.869 16.605,11.555 C16.790,11.002 16.922,10.427 16.995,9.832 C17.034,9.506 16.829,9.197 16.514,9.119 C15.498,8.868 14.737,7.929 14.737,6.810 L14.737,6.810 ZM8.534,12.035 C6.632,12.053 5.091,10.479 5.108,8.544 C5.124,6.664 6.629,5.128 8.475,5.113 C10.376,5.096 11.917,6.670 11.901,8.604 C11.883,10.482 10.376,12.018 8.534,12.035 L8.534,12.035 Z"/>
</svg>
