<svg 
 xmlns="http://www.w3.org/2000/svg"
 xmlns:xlink="http://www.w3.org/1999/xlink"
 width="20px" height="20px">
<path fill-rule="evenodd"  fill="rgb(57, 212, 119)"
 d="M10.443,16.960 C4.914,17.282 0.234,14.426 -0.010,10.582 C-0.255,6.739 4.028,3.362 9.556,3.040 C15.085,2.718 19.765,5.574 20.009,9.417 C20.254,13.261 15.971,16.638 10.443,16.960 ZM9.622,6.548 C6.100,6.866 3.414,9.002 3.623,10.432 C3.832,11.861 6.856,13.769 10.378,13.452 C13.899,13.134 16.585,10.998 16.376,9.568 C16.167,8.138 13.143,6.230 9.622,6.548 Z"/>
<path fill-rule="evenodd"  fill="none"
 d="M0.000,0.000 L20.000,0.000 L20.000,20.000 L0.000,20.000 L0.000,0.000 Z"/>
</svg>
