<svg 
 xmlns="http://www.w3.org/2000/svg"
 xmlns:xlink="http://www.w3.org/1999/xlink"
 width="14px" height="14px">
<path fill-rule="evenodd"  fill="rgb(51, 51, 51)"
 d="M6.531,2.909 L6.855,3.232 C7.121,3.506 7.117,3.941 6.847,4.209 C6.577,4.478 6.140,4.482 5.865,4.218 L4.353,2.712 C4.080,2.440 4.080,1.998 4.353,1.726 L5.874,0.212 C6.050,0.031 6.310,-0.042 6.555,0.021 C6.800,0.085 6.990,0.275 7.055,0.519 C7.119,0.763 7.046,1.022 6.864,1.197 L6.552,1.507 C10.743,1.979 13.998,5.519 13.998,9.817 C13.998,10.202 13.685,10.514 13.298,10.514 C12.912,10.514 12.599,10.202 12.599,9.817 C12.599,6.283 9.955,3.363 6.531,2.909 L6.531,2.909 ZM2.098,5.636 L7.698,5.636 C8.255,5.636 8.789,5.856 9.183,6.248 C9.577,6.640 9.798,7.172 9.798,7.727 L9.798,11.908 C9.798,13.063 8.858,13.999 7.698,13.999 L2.098,13.999 C1.541,13.999 1.008,13.779 0.613,13.387 C0.219,12.994 -0.002,12.462 -0.002,11.908 L-0.002,7.727 C-0.002,6.571 0.938,5.636 2.098,5.636 L2.098,5.636 Z"/>
</svg>
