<svg 
 xmlns="http://www.w3.org/2000/svg"
 xmlns:xlink="http://www.w3.org/1999/xlink"
 width="17px" height="17px">
<path fill-rule="evenodd"  fill="rgb(51, 51, 51)"
 d="M14.859,16.998 L2.132,16.998 C0.955,16.996 -0.004,16.038 -0.005,14.860 L-0.005,2.137 C-0.005,0.959 0.954,-0.000 2.132,-0.002 L14.859,-0.002 C16.036,-0.000 16.995,0.958 16.995,2.135 L16.995,14.860 C16.995,16.038 16.036,16.996 14.859,16.998 ZM11.586,3.339 C11.586,2.998 11.313,2.735 10.981,2.735 C10.640,2.735 10.368,3.007 10.368,3.339 L10.368,5.433 C10.378,5.764 10.651,6.037 10.981,6.037 C11.324,6.037 11.586,5.764 11.586,5.433 L11.586,3.339 ZM15.365,2.137 C15.365,1.857 15.138,1.630 14.859,1.629 L14.158,1.629 L14.158,8.087 C14.158,8.537 13.791,8.987 13.341,8.987 L3.649,8.987 C3.201,8.987 2.835,8.537 2.835,8.087 L2.835,1.629 L2.133,1.629 C1.852,1.629 1.625,1.857 1.625,2.137 L1.625,14.862 C1.625,15.142 1.852,15.370 2.132,15.370 L3.311,15.370 L14.859,15.369 C15.138,15.368 15.365,15.140 15.365,14.860 L15.365,2.137 Z"/>
</svg>
