<svg 
 xmlns="http://www.w3.org/2000/svg"
 xmlns:xlink="http://www.w3.org/1999/xlink"
 width="14px" height="14px">
<path fill-rule="evenodd"  fill="rgb(255, 255, 255)"
 d="M13.990,12.595 C13.990,13.368 13.496,13.998 12.723,13.998 L7.633,13.998 L7.633,12.726 L12.723,12.726 L12.723,1.271 L1.269,1.271 L1.269,6.362 L-0.004,6.362 L-0.010,1.395 C-0.010,0.621 0.496,-0.002 1.269,-0.002 L12.591,-0.005 C13.364,-0.005 13.996,0.497 13.996,1.271 L13.990,12.595 ZM2.000,7.629 L4.371,7.629 C5.476,7.629 6.371,8.524 6.371,9.629 L6.371,12.000 C6.371,13.105 5.476,14.000 4.371,14.000 L2.000,14.000 C0.895,14.000 -0.000,13.105 -0.000,12.000 L-0.000,9.629 C-0.000,8.524 0.895,7.629 2.000,7.629 ZM10.178,3.816 L10.178,6.998 L9.542,5.726 L6.996,8.271 L5.723,6.998 L8.269,4.453 L6.996,3.816 L10.178,3.816 Z"/>
</svg>
