<svg 
 xmlns="http://www.w3.org/2000/svg"
 xmlns:xlink="http://www.w3.org/1999/xlink"
 width="20px" height="20px">
<path fill-rule="evenodd"  fill="rgb(57, 212, 119)"
 d="M10.000,1.000 C14.970,1.000 19.000,5.029 19.000,10.000 C19.000,14.970 14.970,19.000 10.000,19.000 C5.029,19.000 1.000,14.970 1.000,10.000 C1.000,5.029 5.029,1.000 10.000,1.000 Z"/>
<path fill-rule="evenodd"  fill="rgb(62, 162, 102)"
 d="M15.361,2.770 C15.361,2.770 15.607,2.958 15.726,3.056 C17.726,4.707 19.000,7.205 19.000,10.000 C19.000,14.970 14.970,19.000 10.000,19.000 C7.714,19.000 5.627,18.148 4.040,16.744 C3.916,16.634 3.677,16.405 3.677,16.405 C3.677,16.405 11.209,16.511 14.000,13.000 C16.815,9.459 15.340,2.746 15.361,2.770 Z"/>
<path fill-rule="evenodd"  fill="none"
 d="M-0.000,-0.000 L20.000,-0.000 L20.000,20.000 L-0.000,20.000 L-0.000,-0.000 Z"/>
</svg>
