<svg 
 xmlns="http://www.w3.org/2000/svg"
 xmlns:xlink="http://www.w3.org/1999/xlink"
 width="14px" height="12px">
<path fill-rule="evenodd"  fill="rgb(51, 51, 51)"
 d="M13.903,4.295 L11.966,7.579 C11.836,7.831 11.578,7.958 11.320,7.958 L9.512,7.958 L9.899,8.210 L9.512,8.842 L9.770,9.221 L10.287,8.716 L10.803,9.095 L10.287,9.600 L10.803,10.105 L8.995,12.000 L8.479,11.495 L7.962,12.000 L7.446,11.495 L7.704,10.863 L7.446,10.611 L6.929,11.116 L6.413,10.611 L6.800,9.979 L6.413,9.600 L5.896,10.105 L5.509,9.600 L5.896,9.095 L5.509,8.716 L4.992,9.221 L4.476,8.716 L4.992,8.084 L4.605,7.705 L4.088,8.210 L3.571,7.705 L3.830,7.200 L3.571,6.821 L3.055,7.326 L2.538,6.821 L2.151,7.326 C1.893,7.579 1.376,7.579 1.247,7.326 L0.214,6.316 C-0.044,6.063 -0.044,5.684 0.085,5.432 L3.959,1.642 C4.346,1.389 4.734,1.389 4.992,1.642 L5.638,2.274 L6.800,0.253 C6.929,0.126 7.187,-0.000 7.446,-0.000 L11.320,-0.000 C11.578,-0.000 11.836,0.126 11.966,0.253 L13.903,3.663 C14.032,3.789 14.032,4.042 13.903,4.295 ZM8.866,10.989 L9.770,10.105 L9.124,9.474 L8.479,10.737 L8.866,10.989 ZM9.124,7.958 L8.608,7.958 L8.866,8.210 L9.124,7.958 ZM8.091,10.231 L8.737,9.095 L8.220,8.589 L7.575,9.852 L8.091,10.231 ZM7.058,9.347 L7.704,8.084 L7.187,7.579 L6.542,8.842 L7.058,9.347 ZM6.154,8.337 L6.800,7.200 L6.283,6.695 L5.638,7.958 L6.154,8.337 ZM4.217,6.442 L4.863,5.179 L4.476,4.926 L3.571,5.811 L4.217,6.442 ZM5.250,2.779 L4.734,2.274 C4.605,2.147 4.346,2.147 4.217,2.274 L0.859,5.558 C0.731,5.684 0.731,5.937 0.859,6.063 L1.376,6.568 C1.505,6.695 1.764,6.695 1.893,6.568 L5.250,3.284 C5.379,3.158 5.379,2.905 5.250,2.779 ZM4.734,6.947 L5.121,7.453 L5.896,6.189 L5.379,5.684 L4.734,6.947 ZM11.320,0.632 L7.446,0.632 L6.154,2.779 C6.283,3.031 6.283,3.284 6.025,3.537 L5.509,4.042 L6.025,4.421 L5.896,4.674 L6.154,5.179 L6.413,4.926 L6.929,5.305 L6.671,5.937 L6.800,6.189 L6.929,6.316 L7.446,5.811 L7.833,6.316 L7.575,6.947 L7.833,7.326 L8.350,6.821 L8.866,7.326 L11.320,7.326 L13.257,3.916 L11.320,0.632 ZM9.383,5.937 C8.220,5.937 7.316,5.053 7.316,3.916 C7.316,2.779 8.220,1.895 9.383,1.895 C10.545,1.895 11.449,2.779 11.449,3.916 C11.449,5.053 10.545,5.937 9.383,5.937 ZM9.383,2.526 C8.608,2.526 7.962,3.158 7.962,3.916 C7.962,4.674 8.608,5.305 9.383,5.305 C10.158,5.305 10.674,4.674 10.803,3.916 C10.803,3.158 10.158,2.526 9.383,2.526 Z"/>
</svg>
