<svg 
 xmlns="http://www.w3.org/2000/svg"
 xmlns:xlink="http://www.w3.org/1999/xlink"
 width="14px" height="14px">
<path fill-rule="evenodd"  fill="rgb(255, 255, 255)"
 d="M12.549,10.986 C12.289,10.986 12.047,11.057 11.837,11.180 L10.756,10.217 L10.756,5.985 L7.430,4.154 L7.430,3.102 C8.054,2.902 8.508,2.299 8.508,1.587 C8.508,0.711 7.823,-0.000 6.979,-0.000 C6.136,-0.000 5.451,0.711 5.451,1.587 C5.451,2.280 5.881,2.871 6.479,3.086 L6.479,4.178 L3.201,5.985 L3.201,10.221 L2.234,11.224 C2.008,11.073 1.739,10.986 1.451,10.986 C0.650,10.986 -0.000,11.663 -0.000,12.492 C-0.000,13.322 0.652,13.998 1.451,13.998 C2.252,13.998 2.902,13.322 2.902,12.492 C2.902,12.321 2.875,12.157 2.824,12.004 L4.074,10.707 L6.978,12.308 L9.861,10.720 L11.207,11.919 C11.136,12.096 11.098,12.290 11.098,12.494 C11.098,13.325 11.750,14.000 12.549,14.000 C13.348,14.000 14.000,13.323 14.000,12.494 C14.000,11.664 13.350,10.986 12.549,10.986 L12.549,10.986 ZM6.902,7.525 L4.848,6.379 L6.979,5.205 L8.982,6.308 L6.902,7.525 ZM7.430,8.347 L9.647,7.049 L9.647,9.534 L7.430,10.756 L7.430,8.347 ZM6.981,0.985 C7.301,0.985 7.560,1.255 7.560,1.587 C7.560,1.918 7.301,2.188 6.981,2.188 C6.661,2.188 6.402,1.918 6.402,1.587 C6.402,1.256 6.661,0.985 6.981,0.985 L6.981,0.985 ZM1.451,13.014 C1.174,13.014 0.949,12.781 0.949,12.494 C0.949,12.206 1.174,11.973 1.451,11.973 C1.728,11.973 1.952,12.206 1.952,12.494 C1.952,12.781 1.728,13.014 1.451,13.014 L1.451,13.014 ZM4.308,7.199 L6.481,8.409 L6.481,10.731 L4.308,9.536 L4.308,7.199 ZM12.549,13.014 C12.272,13.014 12.047,12.781 12.047,12.494 C12.047,12.206 12.272,11.973 12.549,11.973 C12.826,11.973 13.051,12.206 13.051,12.494 C13.051,12.781 12.826,13.014 12.549,13.014 L12.549,13.014 Z"/>
</svg>
