<svg 
 xmlns="http://www.w3.org/2000/svg"
 xmlns:xlink="http://www.w3.org/1999/xlink"
 width="14px" height="14px">
<path fill-rule="evenodd"  fill="rgb(255, 255, 255)"
 d="M13.250,0.520 L13.250,3.480 C13.250,3.767 13.017,4.000 12.729,4.000 L1.270,4.000 C0.983,4.000 0.750,3.767 0.750,3.480 L0.750,0.520 C0.750,0.233 0.983,-0.000 1.270,-0.000 L1.271,-0.000 C1.559,-0.000 1.792,0.233 1.792,0.520 L1.792,2.480 C1.792,2.767 2.025,3.000 2.312,3.000 L11.688,3.000 C11.976,3.000 12.209,2.767 12.209,2.480 L12.209,0.520 C12.209,0.233 12.442,-0.000 12.729,-0.000 L12.729,-0.000 C13.017,-0.000 13.250,0.233 13.250,0.520 ZM0.750,13.479 L0.750,10.520 C0.750,10.233 0.983,10.000 1.270,10.000 L12.729,10.000 C13.017,10.000 13.250,10.233 13.250,10.520 L13.250,13.479 C13.250,13.767 13.017,14.000 12.729,14.000 L12.729,14.000 C12.442,14.000 12.209,13.767 12.209,13.479 L12.209,11.520 C12.209,11.233 11.976,11.000 11.688,11.000 L2.312,11.000 C2.025,11.000 1.792,11.233 1.792,11.520 L1.792,13.479 C1.792,13.767 1.559,14.000 1.271,14.000 L1.270,14.000 C0.983,14.000 0.750,13.767 0.750,13.479 ZM0.520,6.000 L1.479,6.000 C1.767,6.000 2.000,6.233 2.000,6.520 L2.000,7.479 C2.000,7.767 1.767,8.000 1.479,8.000 L0.520,8.000 C0.233,8.000 -0.000,7.767 -0.000,7.479 L-0.000,6.520 C-0.000,6.233 0.233,6.000 0.520,6.000 ZM12.520,6.000 L13.479,6.000 C13.767,6.000 14.000,6.233 14.000,6.520 L14.000,7.479 C14.000,7.767 13.767,8.000 13.479,8.000 L12.520,8.000 C12.233,8.000 12.000,7.767 12.000,7.479 L12.000,6.520 C12.000,6.233 12.233,6.000 12.520,6.000 ZM3.520,6.000 L4.479,6.000 C4.767,6.000 5.000,6.233 5.000,6.520 L5.000,7.479 C5.000,7.767 4.767,8.000 4.479,8.000 L3.520,8.000 C3.233,8.000 3.000,7.767 3.000,7.479 L3.000,6.520 C3.000,6.233 3.233,6.000 3.520,6.000 ZM6.520,6.000 L7.480,6.000 C7.767,6.000 8.000,6.233 8.000,6.520 L8.000,7.479 C8.000,7.767 7.767,8.000 7.480,8.000 L6.520,8.000 C6.233,8.000 6.000,7.767 6.000,7.479 L6.000,6.520 C6.000,6.233 6.233,6.000 6.520,6.000 ZM9.520,6.000 L10.479,6.000 C10.767,6.000 11.000,6.233 11.000,6.520 L11.000,7.479 C11.000,7.767 10.767,8.000 10.479,8.000 L9.520,8.000 C9.233,8.000 9.000,7.767 9.000,7.479 L9.000,6.520 C9.000,6.233 9.233,6.000 9.520,6.000 Z"/>
</svg>
