<svg 
 xmlns="http://www.w3.org/2000/svg"
 xmlns:xlink="http://www.w3.org/1999/xlink"
 width="28px" height="32px">
<defs>
<filter id="Filter_0">
                <feOffset in="SourceAlpha" dx="0" dy="2" />
                <feGaussianBlur result="blurOut" stdDeviation="2.828" />
                <feFlood flood-color="rgb(118, 59, 7)" result="floodOut" />
                <feComposite operator="out" in="floodOut" in2="blurOut" result="compOut" />
                <feComposite operator="in" in="compOut" in2="SourceAlpha" />
                <feComponentTransfer><feFuncA type="linear" slope="1"/></feComponentTransfer>
                <feBlend mode="normal" in2="SourceGraphic" />
            </filter>

</defs>
<g filter="url(#Filter_0)">
<path fill-rule="evenodd"  fill="rgb(245, 130, 29)"
 d="M14.000,27.000 C9.029,27.000 5.000,23.642 5.000,19.500 C5.000,19.341 5.018,19.027 5.018,19.027 L8.000,8.000 C8.000,8.000 8.118,7.911 8.312,7.786 C9.087,6.174 11.326,5.000 14.000,5.000 C16.563,5.000 18.734,6.076 19.594,7.584 C19.842,7.823 20.000,8.000 20.000,8.000 L22.985,19.070 C22.985,19.070 23.000,19.356 23.000,19.500 C23.000,23.642 18.971,27.000 14.000,27.000 Z"/>
</g>
<path fill-rule="evenodd"  fill="rgb(245, 130, 29)"
 d="M14.000,5.000 C17.314,5.000 20.000,6.791 20.000,9.000 C20.000,11.209 17.314,13.000 14.000,13.000 C10.686,13.000 8.000,11.209 8.000,9.000 C8.000,6.791 10.686,5.000 14.000,5.000 Z"/>
</svg>
