<svg 
 xmlns="http://www.w3.org/2000/svg"
 xmlns:xlink="http://www.w3.org/1999/xlink"
 width="14px" height="16px">
<path fill-rule="evenodd"  fill="rgb(159, 159, 162)"
 d="M10.641,7.938 C9.707,8.759 8.470,9.263 7.106,9.263 C5.718,9.263 4.460,8.742 3.521,7.895 C1.344,8.464 -0.005,10.413 -0.005,12.734 L-0.005,13.922 C-0.005,16.690 13.995,16.690 13.995,13.922 L13.995,12.734 C13.997,10.472 12.718,8.561 10.641,7.938 L10.641,7.938 ZM7.106,8.423 C9.521,8.423 11.482,6.538 11.482,4.210 C11.482,1.882 9.523,-0.002 7.106,-0.002 C4.690,-0.002 2.730,1.882 2.730,4.210 C2.730,6.538 4.690,8.423 7.106,8.423 L7.106,8.423 Z"/>
</svg>
