<svg 
 xmlns="http://www.w3.org/2000/svg"
 xmlns:xlink="http://www.w3.org/1999/xlink"
 width="15px" height="16px">
<path fill-rule="evenodd"  fill="rgb(203, 203, 203)"
 d="M10.516,14.608 C10.463,15.070 10.130,15.453 9.675,15.574 L8.201,15.963 C7.593,16.119 6.972,15.762 6.809,15.163 C6.647,14.564 7.004,13.947 7.609,13.782 L9.083,13.393 C9.467,13.291 9.878,13.394 10.166,13.665 C11.280,13.223 12.216,12.433 12.830,11.416 L12.456,11.416 C11.332,11.416 10.421,10.517 10.421,9.409 L10.421,7.401 C10.421,6.293 11.332,5.394 12.456,5.394 L12.964,5.394 C13.037,5.394 13.109,5.398 13.181,5.406 C12.404,3.145 10.157,1.505 7.498,1.505 C4.839,1.505 2.592,3.145 1.814,5.406 C1.886,5.398 1.959,5.394 2.031,5.394 L2.540,5.394 C3.662,5.394 4.574,6.293 4.574,7.401 L4.574,9.409 C4.574,10.517 3.662,11.416 2.540,11.416 L2.031,11.416 C0.908,11.416 -0.002,10.517 -0.002,9.409 L-0.002,7.401 C-0.002,7.349 -0.000,7.297 0.003,7.246 C-0.001,7.214 -0.002,7.182 -0.002,7.150 C-0.002,3.195 3.362,-0.000 7.498,-0.000 C11.632,-0.000 14.997,3.195 14.997,7.150 C14.997,7.183 14.996,7.215 14.992,7.246 C14.996,7.297 14.997,7.349 14.997,7.401 L14.997,9.409 C14.997,10.079 14.664,10.673 14.152,11.038 C13.487,12.669 12.172,13.960 10.516,14.608 L10.516,14.608 Z"/>
</svg>
