<svg 
 xmlns="http://www.w3.org/2000/svg"
 xmlns:xlink="http://www.w3.org/1999/xlink"
 width="14px" height="16px">
<path fill-rule="evenodd"  fill="rgb(51, 51, 51)"
 d="M10.642,7.939 C9.708,8.759 8.471,9.264 7.107,9.264 C5.719,9.264 4.461,8.742 3.522,7.895 C1.346,8.465 -0.004,10.413 -0.004,12.735 L-0.004,13.922 C-0.004,16.690 13.996,16.690 13.996,13.922 L13.996,12.735 C13.999,10.473 12.719,8.562 10.642,7.939 L10.642,7.939 ZM7.107,8.423 C9.522,8.423 11.483,6.538 11.483,4.210 C11.483,1.883 9.524,-0.002 7.107,-0.002 C4.690,-0.002 2.732,1.883 2.732,4.210 C2.732,6.538 4.690,8.423 7.107,8.423 L7.107,8.423 Z"/>
</svg>
