<svg 
 xmlns="http://www.w3.org/2000/svg"
 xmlns:xlink="http://www.w3.org/1999/xlink"
 width="209px" height="148px">
<path fill-rule="evenodd"  fill="none"
 d="M-0.000,136.000 L10.999,136.000 L10.999,147.000 L-0.000,147.000 L-0.000,136.000 Z"/>
<path fill-rule="evenodd"  stroke="rgb(28, 227, 107)" stroke-width="2px" stroke-linecap="butt" stroke-linejoin="miter" fill="none"
 d="M176.838,96.132 C179.816,94.517 181.228,91.717 180.958,89.074 C181.247,86.274 179.816,83.629 176.838,82.015 L112.642,47.366 C109.799,45.752 106.396,45.013 102.992,45.013 C99.587,45.013 96.163,45.752 93.321,47.366 L29.126,81.879 C26.147,83.493 24.871,86.292 25.005,88.937 C24.871,91.736 26.147,94.517 29.126,96.132 L93.321,130.663 C96.163,132.277 99.568,133.016 102.992,133.016 C106.396,133.016 109.799,132.277 112.642,130.663 L176.838,96.132 Z"/>
<path fill-rule="evenodd"  stroke="rgb(28, 227, 107)" stroke-width="2px" stroke-linecap="butt" stroke-linejoin="miter" fill="none"
 d="M173.998,94.616 C176.861,93.112 178.219,91.516 177.960,89.054 C178.238,86.446 176.861,84.994 173.998,83.491 L112.271,50.204 C109.538,48.700 106.265,48.012 102.992,48.012 C99.718,48.012 96.426,48.700 93.693,50.204 L31.967,83.364 C29.103,84.868 27.876,86.463 28.005,88.926 C27.876,91.534 29.103,93.112 31.967,94.616 L93.693,127.794 C96.426,129.298 99.700,129.985 102.992,129.985 C106.265,129.985 109.538,129.298 112.271,127.794 L173.998,94.616 Z"/>
<path fill-rule="evenodd"  stroke="rgb(28, 227, 107)" stroke-width="2px" stroke-linecap="butt" stroke-linejoin="miter" fill="none"
 d="M168.318,94.205 C170.952,92.811 175.201,91.332 174.963,89.050 C175.219,86.633 170.952,85.287 168.318,83.894 L111.530,53.042 C109.015,51.649 106.003,51.011 102.992,51.011 C99.980,51.011 96.952,51.649 94.438,53.042 L37.650,83.777 C35.014,85.170 30.886,86.648 31.005,88.932 C30.886,91.349 35.014,92.811 37.650,94.205 L94.438,124.955 C96.952,126.349 99.964,126.986 102.992,126.986 C106.003,126.986 109.015,126.349 111.530,124.955 L168.318,94.205 Z"/>
<path fill-rule="evenodd"  stroke="rgb(28, 227, 107)" stroke-width="2px" stroke-linecap="butt" stroke-linejoin="miter" fill="none"
 d="M162.902,93.794 C165.317,92.510 171.213,91.148 170.994,89.046 C171.229,86.820 165.317,85.580 162.902,84.297 L110.835,55.881 C108.529,54.597 105.768,54.010 103.007,54.010 C100.246,54.010 97.469,54.597 95.164,55.881 L43.097,84.189 C40.681,85.472 34.895,86.834 35.004,88.937 C34.895,91.163 40.681,92.510 43.097,93.794 L95.164,122.116 C97.469,123.400 100.231,123.987 103.007,123.987 C105.768,123.987 108.529,123.400 110.835,122.116 L162.902,93.794 Z"/>
<path fill-rule="evenodd"  fill="rgb(127, 127, 127)"
 d="M156.011,93.154 C158.149,92.005 159.163,90.012 158.969,88.129 C159.177,86.136 158.149,84.252 156.011,83.103 L109.922,58.433 C107.881,57.284 105.438,56.758 102.994,56.758 C100.549,56.758 98.091,57.284 96.050,58.433 L49.962,83.007 C47.823,84.156 46.907,86.149 47.004,88.032 C46.907,90.025 47.823,92.005 49.962,93.154 L96.050,117.741 C98.091,118.890 100.536,119.416 102.994,119.416 C105.438,119.416 107.881,118.890 109.922,117.741 L156.011,93.154 Z"/>
<path fill-rule="evenodd"  fill="rgb(98, 98, 98)"
 d="M156.011,88.420 C158.149,87.271 159.163,85.278 158.969,83.395 C159.177,81.401 158.149,79.518 156.011,78.369 L109.922,53.699 C107.881,52.550 105.438,52.024 102.994,52.024 C100.549,52.024 98.091,52.550 96.050,53.699 L49.962,78.272 C47.823,79.421 46.907,81.415 47.004,83.298 C46.907,85.291 47.823,87.271 49.962,88.420 L96.050,113.007 C98.091,114.156 100.536,114.682 102.994,114.682 C105.438,114.682 107.881,114.156 109.922,113.007 L156.011,88.420 Z"/>
<path fill-rule="evenodd"  fill="rgb(127, 127, 127)"
 d="M156.011,87.154 C158.149,86.005 159.163,84.012 158.969,82.129 C159.177,80.136 158.149,78.252 156.011,77.103 L109.922,52.433 C107.881,51.284 105.438,50.758 102.994,50.758 C100.549,50.758 98.091,51.284 96.050,52.433 L49.962,77.006 C47.823,78.156 46.907,80.149 47.004,82.031 C46.907,84.025 47.823,86.005 49.962,87.154 L96.050,111.741 C98.091,112.890 100.536,113.416 102.994,113.416 C105.438,113.416 107.881,112.890 109.922,111.741 L156.011,87.154 Z"/>
<path fill-rule="evenodd"  fill="rgb(98, 98, 98)"
 d="M156.011,83.420 C158.149,82.271 159.163,80.278 158.969,78.395 C159.177,76.401 158.149,74.518 156.011,73.369 L109.922,48.699 C107.881,47.550 105.438,47.024 102.994,47.024 C100.549,47.024 98.091,47.550 96.050,48.699 L49.962,73.272 C47.823,74.421 46.907,76.415 47.004,78.298 C46.907,80.291 47.823,82.271 49.962,83.420 L96.050,108.007 C98.091,109.156 100.536,109.682 102.994,109.682 C105.438,109.682 107.881,109.156 109.922,108.007 L156.011,83.420 Z"/>
<path fill-rule="evenodd"  fill="rgb(127, 127, 127)"
 d="M156.011,82.154 C158.149,81.005 159.163,79.012 158.969,77.129 C159.177,75.136 158.149,73.252 156.011,72.103 L109.922,47.433 C107.881,46.284 105.438,45.758 102.994,45.758 C100.549,45.758 98.091,46.284 96.050,47.433 L49.962,72.007 C47.823,73.155 46.907,75.149 47.004,77.031 C46.907,79.025 47.823,81.005 49.962,82.154 L96.050,106.741 C98.091,107.890 100.536,108.416 102.994,108.416 C105.438,108.416 107.881,107.890 109.922,106.741 L156.011,82.154 Z"/>
<path fill-rule="evenodd"  fill="rgb(98, 98, 98)"
 d="M156.011,78.420 C158.149,77.271 159.163,75.277 158.969,73.395 C159.177,71.402 158.149,69.518 156.011,68.369 L109.922,43.699 C107.881,42.550 105.438,42.024 102.994,42.024 C100.549,42.024 98.091,42.550 96.050,43.699 L49.962,68.272 C47.823,69.421 46.907,71.415 47.004,73.298 C46.907,75.291 47.823,77.271 49.962,78.420 L96.050,103.007 C98.091,104.156 100.536,104.682 102.994,104.682 C105.438,104.682 107.881,104.156 109.922,103.007 L156.011,78.420 Z"/>
<path fill-rule="evenodd"  fill="rgb(127, 127, 127)"
 d="M156.011,77.154 C158.149,76.005 159.163,74.012 158.969,72.129 C159.177,70.136 158.149,68.252 156.011,67.103 L109.922,42.433 C107.881,41.284 105.438,40.758 102.994,40.758 C100.549,40.758 98.091,41.284 96.050,42.433 L49.962,67.007 C47.823,68.155 46.907,70.149 47.004,72.032 C46.907,74.025 47.823,76.005 49.962,77.154 L96.050,101.741 C98.091,102.890 100.536,103.416 102.994,103.416 C105.438,103.416 107.881,102.890 109.922,101.741 L156.011,77.154 Z"/>
<path fill-rule="evenodd"  fill="rgb(98, 98, 98)"
 d="M156.011,73.420 C158.149,72.271 159.163,70.277 158.969,68.395 C159.177,66.401 158.149,64.518 156.011,63.369 L109.922,38.699 C107.881,37.550 105.438,37.023 102.994,37.023 C100.549,37.023 98.091,37.550 96.050,38.699 L49.962,63.272 C47.823,64.422 46.907,66.415 47.004,68.298 C46.907,70.291 47.823,72.271 49.962,73.420 L96.050,98.007 C98.091,99.156 100.536,99.682 102.994,99.682 C105.438,99.682 107.881,99.156 109.922,98.007 L156.011,73.420 Z"/>
<path fill-rule="evenodd"  fill="rgb(127, 127, 127)"
 d="M156.011,72.154 C158.149,71.005 159.163,69.012 158.969,67.129 C159.177,65.136 158.149,63.252 156.011,62.103 L109.922,37.433 C107.881,36.284 105.438,35.758 102.994,35.758 C100.549,35.758 98.091,36.284 96.050,37.433 L49.962,62.006 C47.823,63.155 46.907,65.149 47.004,67.032 C46.907,69.025 47.823,71.005 49.962,72.154 L96.050,96.741 C98.091,97.890 100.536,98.416 102.994,98.416 C105.438,98.416 107.881,97.890 109.922,96.741 L156.011,72.154 Z"/>
<path fill-rule="evenodd"  fill="rgb(98, 98, 98)"
 d="M156.011,68.420 C158.149,67.271 159.163,65.278 158.969,63.395 C159.177,61.401 158.149,59.518 156.011,58.369 L109.922,33.699 C107.881,32.549 105.438,32.024 102.994,32.024 C100.549,32.024 98.091,32.549 96.050,33.699 L49.962,58.272 C47.823,59.422 46.907,61.415 47.004,63.297 C46.907,65.291 47.823,67.271 49.962,68.420 L96.050,93.007 C98.091,94.156 100.536,94.682 102.994,94.682 C105.438,94.682 107.881,94.156 109.922,93.007 L156.011,68.420 Z"/>
<path fill-rule="evenodd"  fill="rgb(127, 127, 127)"
 d="M156.011,67.154 C158.149,66.005 159.163,64.012 158.969,62.129 C159.177,60.136 158.149,58.253 156.011,57.103 L109.922,32.433 C107.881,31.284 105.438,30.758 102.994,30.758 C100.549,30.758 98.091,31.284 96.050,32.433 L49.962,57.007 C47.823,58.156 46.907,60.149 47.004,62.032 C46.907,64.025 47.823,66.005 49.962,67.154 L96.050,91.741 C98.091,92.890 100.536,93.416 102.994,93.416 C105.438,93.416 107.881,92.890 109.922,91.741 L156.011,67.154 Z"/>
<path fill-rule="evenodd"  fill="rgb(98, 98, 98)"
 d="M156.011,63.420 C158.149,62.271 159.163,60.277 158.969,58.395 C159.177,56.401 158.149,54.518 156.011,53.368 L109.922,28.699 C107.881,27.549 105.438,27.024 102.994,27.024 C100.549,27.024 98.091,27.549 96.050,28.699 L49.962,53.272 C47.823,54.421 46.907,56.415 47.004,58.298 C46.907,60.291 47.823,62.271 49.962,63.420 L96.050,88.007 C98.091,89.156 100.536,89.682 102.994,89.682 C105.438,89.682 107.881,89.156 109.922,88.007 L156.011,63.420 Z"/>
<path fill-rule="evenodd"  fill="rgb(127, 127, 127)"
 d="M156.011,62.154 C158.149,61.005 159.163,59.011 158.969,57.129 C159.177,55.136 158.149,53.252 156.011,52.103 L109.922,27.433 C107.881,26.284 105.438,25.758 102.994,25.758 C100.549,25.758 98.091,26.284 96.050,27.433 L49.962,52.006 C47.823,53.156 46.907,55.149 47.004,57.032 C46.907,59.025 47.823,61.005 49.962,62.154 L96.050,86.741 C98.091,87.890 100.536,88.416 102.994,88.416 C105.438,88.416 107.881,87.890 109.922,86.741 L156.011,62.154 Z"/>
<path fill-rule="evenodd"  fill="rgb(98, 98, 98)"
 d="M156.011,58.420 C158.149,57.271 159.163,55.278 158.969,53.395 C159.177,51.401 158.149,49.518 156.011,48.369 L109.922,23.699 C107.881,22.550 105.438,22.024 102.994,22.024 C100.549,22.024 98.091,22.550 96.050,23.699 L49.962,48.272 C47.823,49.421 46.907,51.415 47.004,53.298 C46.907,55.291 47.823,57.271 49.962,58.420 L96.050,83.007 C98.091,84.156 100.536,84.682 102.994,84.682 C105.438,84.682 107.881,84.156 109.922,83.007 L156.011,58.420 Z"/>
<path fill-rule="evenodd"  fill="rgb(127, 127, 127)"
 d="M156.011,57.154 C158.149,56.005 159.163,54.011 158.969,52.129 C159.177,50.136 158.149,48.252 156.011,47.103 L109.922,22.433 C107.881,21.284 105.438,20.758 102.994,20.758 C100.549,20.758 98.091,21.284 96.050,22.433 L49.962,47.006 C47.823,48.155 46.907,50.149 47.004,52.032 C46.907,54.025 47.823,56.005 49.962,57.154 L96.050,81.741 C98.091,82.890 100.536,83.416 102.994,83.416 C105.438,83.416 107.881,82.890 109.922,81.741 L156.011,57.154 Z"/>
<path fill-rule="evenodd"  fill="rgb(98, 98, 98)"
 d="M156.011,53.420 C158.149,52.271 159.163,50.278 158.969,48.395 C159.177,46.401 158.149,44.518 156.011,43.369 L109.922,18.699 C107.881,17.550 105.438,17.024 102.994,17.024 C100.549,17.024 98.091,17.550 96.050,18.699 L49.962,43.273 C47.823,44.421 46.907,46.415 47.004,48.298 C46.907,50.291 47.823,52.271 49.962,53.420 L96.050,78.006 C98.091,79.156 100.536,79.682 102.994,79.682 C105.438,79.682 107.881,79.156 109.922,78.006 L156.011,53.420 Z"/>
<path fill-rule="evenodd"  fill="rgb(127, 127, 127)"
 d="M156.011,52.154 C158.149,51.005 159.163,49.011 158.969,47.129 C159.177,45.135 158.149,43.252 156.011,42.103 L109.922,17.433 C107.881,16.284 105.438,15.758 102.994,15.758 C100.549,15.758 98.091,16.284 96.050,17.433 L49.962,42.006 C47.823,43.156 46.907,45.149 47.004,47.032 C46.907,49.025 47.823,51.005 49.962,52.154 L96.050,76.741 C98.091,77.890 100.536,78.416 102.994,78.416 C105.438,78.416 107.881,77.890 109.922,76.741 L156.011,52.154 Z"/>
<path fill-rule="evenodd"  fill="rgb(98, 98, 98)"
 d="M156.011,48.420 C158.149,47.271 159.163,45.277 158.969,43.395 C159.177,41.402 158.149,39.518 156.011,38.369 L109.922,13.699 C107.881,12.550 105.438,12.024 102.994,12.024 C100.549,12.024 98.091,12.550 96.050,13.699 L49.962,38.272 C47.823,39.421 46.907,41.415 47.004,43.298 C46.907,45.291 47.823,47.271 49.962,48.420 L96.050,73.007 C98.091,74.156 100.536,74.682 102.994,74.682 C105.438,74.682 107.881,74.156 109.922,73.007 L156.011,48.420 Z"/>
<path fill-rule="evenodd"  fill="rgb(127, 127, 127)"
 d="M156.011,47.154 C158.149,46.005 159.163,44.012 158.969,42.129 C159.177,40.135 158.149,38.252 156.011,37.103 L109.922,12.433 C107.881,11.284 105.438,10.758 102.994,10.758 C100.549,10.758 98.091,11.284 96.050,12.433 L49.962,37.006 C47.823,38.156 46.907,40.149 47.004,42.032 C46.907,44.025 47.823,46.005 49.962,47.154 L96.050,71.741 C98.091,72.890 100.536,73.416 102.994,73.416 C105.438,73.416 107.881,72.890 109.922,71.741 L156.011,47.154 Z"/>
<path fill-rule="evenodd"  fill="rgb(98, 98, 98)"
 d="M156.011,43.420 C158.149,42.271 159.163,40.278 158.969,38.395 C159.177,36.402 158.149,34.518 156.011,33.369 L109.922,8.699 C107.881,7.550 105.438,7.024 102.994,7.024 C100.549,7.024 98.091,7.550 96.050,8.699 L49.962,33.272 C47.823,34.421 46.907,36.415 47.004,38.297 C46.907,40.291 47.823,42.271 49.962,43.420 L96.050,68.007 C98.091,69.156 100.536,69.682 102.994,69.682 C105.438,69.682 107.881,69.156 109.922,68.007 L156.011,43.420 Z"/>
<path fill-rule="evenodd"  fill="rgb(127, 127, 127)"
 d="M156.011,42.154 C158.149,41.005 159.163,39.012 158.969,37.129 C159.177,35.135 158.149,33.252 156.011,32.103 L109.922,7.433 C107.881,6.284 105.438,5.758 102.994,5.758 C100.549,5.758 98.091,6.284 96.050,7.433 L49.962,32.006 C47.823,33.156 46.907,35.149 47.004,37.032 C46.907,39.025 47.823,41.005 49.962,42.154 L96.050,66.741 C98.091,67.890 100.536,68.416 102.994,68.416 C105.438,68.416 107.881,67.890 109.922,66.741 L156.011,42.154 Z"/>
<path fill-rule="evenodd"  fill="rgb(108, 108, 108)"
 d="M156.011,38.420 C158.149,37.271 159.163,35.277 158.969,33.395 C159.177,31.401 158.149,29.518 156.011,28.369 L109.922,3.699 C107.881,2.550 105.438,2.024 102.994,2.024 C100.549,2.024 98.091,2.550 96.050,3.699 L49.962,28.272 C47.823,29.421 46.907,31.415 47.004,33.298 C46.907,35.291 47.823,37.271 49.962,38.420 L96.050,63.007 C98.091,64.156 100.536,64.682 102.994,64.682 C105.438,64.682 107.881,64.156 109.922,63.007 L156.011,38.420 Z"/>
<path fill-rule="evenodd"  fill="rgb(127, 127, 127)"
 d="M156.011,37.154 C158.149,36.005 159.163,34.012 158.969,32.129 C159.177,30.136 158.149,28.252 156.011,27.103 L109.922,2.433 C107.881,1.284 105.438,0.758 102.994,0.758 C100.549,0.758 98.091,1.284 96.050,2.433 L49.962,27.007 C47.823,28.156 46.907,30.149 47.004,32.032 C46.907,34.025 47.823,36.005 49.962,37.154 L96.050,61.741 C98.091,62.890 100.536,63.416 102.994,63.416 C105.438,63.416 107.881,62.890 109.922,61.741 L156.011,37.154 Z"/>
<path fill-rule="evenodd"  stroke="rgb(109, 109, 109)" stroke-width="1px" stroke-linecap="butt" stroke-linejoin="miter" fill="none"
 d="M144.686,36.051 C146.366,35.133 147.163,33.543 147.011,32.040 C147.174,30.450 146.366,28.946 144.686,28.029 L108.458,8.342 C106.854,7.426 104.933,7.006 103.012,7.006 C101.091,7.006 99.159,7.426 97.554,8.342 L61.327,27.952 C59.647,28.869 58.926,30.460 59.002,31.963 C58.926,33.553 59.647,35.133 61.327,36.051 L97.554,55.671 C99.159,56.588 101.080,57.007 103.012,57.007 C104.933,57.007 106.854,56.588 108.458,55.671 L144.686,36.051 Z"/>
<path fill-rule="evenodd"  stroke="rgb(109, 109, 109)" stroke-width="1px" stroke-linecap="butt" stroke-linejoin="miter" fill="none"
 d="M105.457,12.249 L103.853,11.540 L100.108,13.195 L107.597,13.195 L108.934,14.141 L97.433,14.141 L95.025,15.324 L112.144,15.324 L114.284,16.743 L92.618,16.743 L90.746,17.925 L117.226,17.925 L119.901,19.345 L87.536,19.345 L85.129,20.764 L123.111,20.764 L125.251,22.183 L82.187,22.183 L80.314,23.366 L128.728,23.602 L130.868,24.785 L76.570,25.021 L74.430,26.204 L134.345,26.440 L136.217,27.623 L71.487,27.859 L69.347,29.279 L139.100,29.279 L141.241,30.698 L65.603,30.698 L64.634,31.880 L142.519,32.353 L141.776,33.773 L66.137,33.773 L68.010,34.955 L137.822,35.428 L135.682,36.848 L72.290,36.848 L74.162,38.030 L133.007,38.030 L131.403,39.449 L77.640,39.449 L79.244,40.632 L127.123,40.868 L125.251,42.287 L82.989,42.287 L84.861,43.470 L121.774,43.470 L119.901,44.889 L88.339,45.125 L90.211,46.308 L115.622,46.544 L113.749,47.963 L94.758,47.963 L96.630,49.383 L110.272,49.146 L108.667,50.565 L100.643,50.802 L103.853,52.458 L105.725,51.748 "/>
<path fill-rule="evenodd"  opacity="0.302" fill="rgb(0, 0, 0)"
 d="M159.094,90.767 C159.094,90.495 159.096,90.220 159.097,89.942 C159.193,69.474 159.180,30.644 158.969,32.129 C159.163,35.088 158.137,36.850 155.999,37.999 L114.999,59.999 C112.958,61.148 105.022,64.288 103.999,63.999 C103.989,63.996 104.969,65.686 104.939,66.927 C104.924,67.532 103.907,68.268 103.889,69.118 C103.875,69.781 104.859,70.513 104.842,71.306 C104.827,72.039 103.811,72.825 103.794,73.658 C103.778,74.421 104.762,75.223 104.746,76.060 C104.729,76.874 103.713,77.721 103.695,78.596 C103.677,79.536 104.658,80.509 104.639,81.509 C104.623,82.301 103.608,83.111 103.592,83.935 C103.574,84.813 104.558,85.707 104.540,86.615 C104.530,87.188 103.518,87.767 103.507,88.350 C103.490,89.270 104.472,90.201 104.454,91.139 C104.438,91.989 103.422,92.846 103.406,93.706 C103.389,94.588 104.373,95.474 104.356,96.362 C104.340,97.255 103.323,98.151 103.306,99.045 C103.290,99.895 104.275,100.744 104.259,101.590 C104.245,102.336 103.231,103.080 103.218,103.821 C103.204,104.600 104.189,105.375 104.175,106.145 C104.158,107.032 103.142,107.912 103.126,108.782 C103.110,109.662 104.094,110.532 104.078,111.389 C104.064,112.184 103.049,112.969 103.035,113.739 C103.019,114.589 104.005,115.422 103.989,116.236 C103.975,117.049 102.960,117.844 102.946,118.615 C102.928,119.597 103.952,119.097 104.000,120.000 C104.001,120.032 105.000,119.967 104.999,120.000 C104.987,120.671 148.893,97.882 156.999,92.999 C157.807,92.513 159.094,90.827 159.094,90.767 Z"/>
<path fill-rule="evenodd"  fill="rgb(255, 255, 255)"
 d="M207.347,78.226 L192.961,89.515 C192.589,89.807 192.066,89.762 191.793,89.415 C191.520,89.067 191.601,88.549 191.973,88.256 L206.359,76.967 C206.731,76.676 207.254,76.720 207.527,77.068 C207.800,77.415 207.718,77.934 207.347,78.226 ZM199.056,81.941 C198.998,82.038 198.924,82.123 198.836,82.192 C198.836,82.192 198.836,82.192 198.836,82.192 C198.833,82.194 198.829,82.195 198.826,82.197 C198.740,82.262 198.645,82.314 198.541,82.345 C198.432,82.379 198.320,82.391 198.211,82.381 L194.321,82.048 C193.879,81.994 193.583,81.601 193.652,81.161 C193.721,80.719 194.129,80.388 194.576,80.410 L196.476,80.573 L190.135,72.493 L189.842,74.378 C189.765,74.824 189.341,75.151 188.891,75.111 C188.440,75.073 188.128,74.683 188.190,74.236 L188.792,70.373 C188.862,69.922 189.289,69.587 189.745,69.625 L193.639,69.960 C194.081,70.013 194.377,70.406 194.308,70.847 C194.239,71.288 193.830,71.620 193.384,71.597 L191.485,71.435 L197.824,79.513 L198.118,77.629 C198.196,77.183 198.619,76.856 199.070,76.896 C199.520,76.934 199.831,77.325 199.770,77.772 L199.169,81.633 C199.152,81.740 199.113,81.844 199.056,81.941 ZM181.602,75.040 C181.229,75.332 180.707,75.287 180.434,74.939 C180.161,74.592 180.242,74.073 180.614,73.781 L195.000,62.492 C195.372,62.200 195.895,62.245 196.168,62.592 C196.440,62.940 196.359,63.459 195.988,63.751 L181.602,75.040 Z"/>
</svg>
