<svg 
 xmlns="http://www.w3.org/2000/svg"
 xmlns:xlink="http://www.w3.org/1999/xlink"
 width="197.5px" height="147.5px">
<defs>
<filter id="Filter_0">
                <feOffset in="SourceAlpha" dx="0" dy="-4" />
                <feGaussianBlur result="blurOut" stdDeviation="1" />
                <feFlood flood-color="rgb(44, 44, 46)" result="floodOut" />
                <feComposite operator="out" in="floodOut" in2="blurOut" result="compOut" />
                <feComposite operator="in" in="compOut" in2="SourceAlpha" />
                <feComponentTransfer><feFuncA type="linear" slope="1"/></feComponentTransfer>
                <feBlend mode="normal" in2="SourceGraphic" />
            </filter>

</defs>
<path fill-rule="evenodd"  fill="none"
 d="M88.000,-0.000 L105.000,-0.000 L105.000,11.000 L88.000,11.000 L88.000,-0.000 Z"/>
<path fill-rule="evenodd"  fill="none"
 d="M168.000,132.000 L196.999,132.000 L196.999,147.000 L168.000,147.000 L168.000,132.000 Z"/>
<path fill-rule="evenodd"  fill="rgb(40, 40, 42)"
 d="M98.000,121.000 C106.284,121.000 112.999,124.134 112.999,128.000 C112.999,131.865 106.284,134.999 98.000,134.999 C89.715,134.999 82.999,131.865 82.999,128.000 C82.999,124.134 89.715,121.000 98.000,121.000 Z"/>
<path fill-rule="evenodd"  fill="rgb(40, 40, 42)"
 d="M12.000,76.000 C18.074,76.000 22.999,79.134 22.999,83.000 C22.999,86.866 18.074,90.000 12.000,90.000 C5.924,90.000 1.000,86.866 1.000,83.000 C1.000,79.134 5.924,76.000 12.000,76.000 Z"/>
<path fill-rule="evenodd"  fill="rgb(40, 40, 42)"
 d="M184.000,76.000 C190.074,76.000 194.999,79.134 194.999,83.000 C194.999,86.866 190.074,90.000 184.000,90.000 C177.924,90.000 172.999,86.866 172.999,83.000 C172.999,79.134 177.924,76.000 184.000,76.000 Z"/>
<g filter="url(#Filter_0)">
<path fill-rule="evenodd"  fill="rgb(56, 56, 58)"
 d="M189.828,85.889 C193.532,83.871 195.288,80.371 194.952,77.066 C195.313,73.566 193.532,70.260 189.828,68.243 L109.994,24.932 C106.459,22.914 102.225,21.991 97.992,21.991 C93.757,21.991 89.500,22.914 85.965,24.932 L6.131,68.073 C2.427,70.091 0.839,73.590 1.007,76.896 C0.839,80.396 2.427,83.871 6.131,85.889 L85.965,129.053 C89.500,131.071 93.734,131.994 97.992,131.994 C102.225,131.994 106.459,131.071 109.994,129.053 L189.828,85.889 Z"/>
</g>
<path fill-rule="evenodd"  fill="rgb(28, 227, 107)"
 d="M126.473,29.179 L127.000,35.000 L161.000,49.000 L170.000,45.000 L170.098,42.538 L134.756,25.129 L126.473,29.179 Z"/>
<path fill-rule="evenodd"  fill="rgb(23, 204, 95)"
 d="M126.000,29.000 L160.868,47.437 L160.868,74.999 L126.000,57.000 L126.000,29.000 Z"/>
<path fill-rule="evenodd"  fill="rgb(16, 142, 66)"
 d="M160.868,47.437 L170.077,42.548 L169.903,70.314 L160.868,74.999 L160.868,47.437 Z"/>
<path fill-rule="evenodd"  fill="rgb(204, 198, 23)"
 d="M126.000,49.000 L160.868,67.437 L160.868,76.999 L126.000,59.000 L126.000,49.000 Z"/>
<path fill-rule="evenodd"  fill="rgb(143, 139, 17)"
 d="M160.868,67.437 L170.077,62.549 L169.903,72.314 L160.868,76.999 L160.868,67.437 Z"/>
<path fill-rule="evenodd"  fill="rgb(127, 127, 127)"
 d="M115.401,90.131 C116.489,89.534 117.004,88.497 116.905,87.518 C117.011,86.481 116.489,85.501 115.401,84.903 L91.978,72.073 C90.941,71.475 89.698,71.201 88.456,71.201 C87.214,71.201 85.965,71.475 84.928,72.073 L61.504,84.853 C60.417,85.451 59.951,86.488 60.001,87.467 C59.951,88.504 60.417,89.534 61.504,90.131 L84.928,102.919 C85.965,103.517 87.207,103.790 88.456,103.790 C89.698,103.790 90.941,103.517 91.978,102.919 L115.401,90.131 Z"/>
<path fill-rule="evenodd"  fill="rgb(98, 98, 98)"
 d="M115.401,88.400 C116.489,87.802 117.004,86.765 116.905,85.786 C117.011,84.749 116.489,83.770 115.401,83.172 L91.978,70.341 C90.941,69.743 89.698,69.470 88.456,69.470 C87.214,69.470 85.965,69.743 84.928,70.341 L61.504,83.122 C60.417,83.719 59.951,84.756 60.001,85.735 C59.951,86.772 60.417,87.802 61.504,88.400 L84.928,101.188 C85.965,101.785 87.207,102.059 88.456,102.059 C89.698,102.059 90.941,101.785 91.978,101.188 L115.401,88.400 Z"/>
<path fill-rule="evenodd"  fill="rgb(127, 127, 127)"
 d="M115.401,87.741 C116.489,87.144 117.004,86.107 116.905,85.128 C117.011,84.091 116.489,83.111 115.401,82.514 L91.978,69.683 C90.941,69.085 89.698,68.811 88.456,68.811 C87.214,68.811 85.965,69.085 84.928,69.683 L61.504,82.463 C60.417,83.061 59.951,84.098 60.001,85.077 C59.951,86.114 60.417,87.144 61.504,87.741 L84.928,100.529 C85.965,101.127 87.207,101.400 88.456,101.400 C89.698,101.400 90.941,101.127 91.978,100.529 L115.401,87.741 Z"/>
<path fill-rule="evenodd"  fill="rgb(98, 98, 98)"
 d="M115.401,85.799 C116.489,85.202 117.004,84.165 116.905,83.185 C117.011,82.149 116.489,81.169 115.401,80.571 L91.978,67.740 C90.941,67.142 89.698,66.869 88.456,66.869 C87.214,66.869 85.965,67.142 84.928,67.740 L61.504,80.521 C60.417,81.119 59.951,82.156 60.001,83.135 C59.951,84.172 60.417,85.202 61.504,85.799 L84.928,98.587 C85.965,99.185 87.207,99.458 88.456,99.458 C89.698,99.458 90.941,99.185 91.978,98.587 L115.401,85.799 Z"/>
<path fill-rule="evenodd"  fill="rgb(127, 127, 127)"
 d="M115.401,85.140 C116.489,84.543 117.004,83.506 116.905,82.527 C117.011,81.490 116.489,80.511 115.401,79.913 L91.978,67.082 C90.941,66.484 89.698,66.211 88.456,66.211 C87.214,66.211 85.965,66.484 84.928,67.082 L61.504,79.863 C60.417,80.461 59.951,81.497 60.001,82.476 C59.951,83.513 60.417,84.543 61.504,85.140 L84.928,97.928 C85.965,98.526 87.207,98.800 88.456,98.800 C89.698,98.800 90.941,98.526 91.978,97.928 L115.401,85.140 Z"/>
<path fill-rule="evenodd"  fill="rgb(98, 98, 98)"
 d="M115.401,83.198 C116.489,82.601 117.004,81.564 116.905,80.585 C117.011,79.548 116.489,78.568 115.401,77.971 L91.978,65.140 C90.941,64.542 89.698,64.268 88.456,64.268 C87.214,64.268 85.965,64.542 84.928,65.140 L61.504,77.921 C60.417,78.518 59.951,79.555 60.001,80.534 C59.951,81.571 60.417,82.601 61.504,83.198 L84.928,95.986 C85.965,96.584 87.207,96.858 88.456,96.858 C89.698,96.858 90.941,96.584 91.978,95.986 L115.401,83.198 Z"/>
<path fill-rule="evenodd"  fill="rgb(127, 127, 127)"
 d="M115.401,82.540 C116.489,81.943 117.004,80.906 116.905,79.927 C117.011,78.890 116.489,77.910 115.401,77.312 L91.978,64.482 C90.941,63.884 89.698,63.610 88.456,63.610 C87.214,63.610 85.965,63.884 84.928,64.482 L61.504,77.262 C60.417,77.860 59.951,78.897 60.001,79.876 C59.951,80.913 60.417,81.943 61.504,82.540 L84.928,95.328 C85.965,95.926 87.207,96.199 88.456,96.199 C89.698,96.199 90.941,95.926 91.978,95.328 L115.401,82.540 Z"/>
<path fill-rule="evenodd"  fill="rgb(98, 98, 98)"
 d="M115.401,80.598 C116.489,80.000 117.004,78.964 116.905,77.984 C117.011,76.947 116.489,75.968 115.401,75.370 L91.978,62.539 C90.941,61.941 89.698,61.668 88.456,61.668 C87.214,61.668 85.965,61.941 84.928,62.539 L61.504,75.320 C60.417,75.918 59.951,76.955 60.001,77.934 C59.951,78.970 60.417,80.000 61.504,80.598 L84.928,93.386 C85.965,93.984 87.207,94.257 88.456,94.257 C89.698,94.257 90.941,93.984 91.978,93.386 L115.401,80.598 Z"/>
<path fill-rule="evenodd"  fill="rgb(127, 127, 127)"
 d="M115.401,79.940 C116.489,79.342 117.004,78.305 116.905,77.326 C117.011,76.289 116.489,75.310 115.401,74.712 L91.978,61.881 C90.941,61.283 89.698,61.010 88.456,61.010 C87.214,61.010 85.965,61.283 84.928,61.881 L61.504,74.662 C60.417,75.260 59.951,76.296 60.001,77.275 C59.951,78.312 60.417,79.342 61.504,79.940 L84.928,92.727 C85.965,93.325 87.207,93.599 88.456,93.599 C89.698,93.599 90.941,93.325 91.978,92.727 L115.401,79.940 Z"/>
<path fill-rule="evenodd"  fill="rgb(98, 98, 98)"
 d="M115.401,77.998 C116.489,77.400 117.004,76.363 116.905,75.384 C117.011,74.347 116.489,73.368 115.401,72.770 L91.978,59.939 C90.941,59.341 89.698,59.068 88.456,59.068 C87.214,59.068 85.965,59.341 84.928,59.939 L61.504,72.720 C60.417,73.317 59.951,74.354 60.001,75.333 C59.951,76.370 60.417,77.400 61.504,77.998 L84.928,90.785 C85.965,91.383 87.207,91.656 88.456,91.656 C89.698,91.656 90.941,91.383 91.978,90.785 L115.401,77.998 Z"/>
<path fill-rule="evenodd"  fill="rgb(127, 127, 127)"
 d="M115.401,77.339 C116.489,76.741 117.004,75.705 116.905,74.725 C117.011,73.689 116.489,72.709 115.401,72.111 L91.978,59.280 C90.941,58.683 89.698,58.409 88.456,58.409 C87.214,58.409 85.965,58.683 84.928,59.280 L61.504,72.061 C60.417,72.659 59.951,73.696 60.001,74.675 C59.951,75.712 60.417,76.741 61.504,77.339 L84.928,90.127 C85.965,90.725 87.207,90.998 88.456,90.998 C89.698,90.998 90.941,90.725 91.978,90.127 L115.401,77.339 Z"/>
<path fill-rule="evenodd"  fill="rgb(98, 98, 98)"
 d="M115.401,75.397 C116.489,74.799 117.004,73.762 116.905,72.783 C117.011,71.747 116.489,70.767 115.401,70.169 L91.978,57.338 C90.941,56.740 89.698,56.467 88.456,56.467 C87.214,56.467 85.965,56.740 84.928,57.338 L61.504,70.119 C60.417,70.717 59.951,71.753 60.001,72.733 C59.951,73.769 60.417,74.799 61.504,75.397 L84.928,88.185 C85.965,88.783 87.207,89.056 88.456,89.056 C89.698,89.056 90.941,88.783 91.978,88.185 L115.401,75.397 Z"/>
<path fill-rule="evenodd"  fill="rgb(127, 127, 127)"
 d="M115.401,74.739 C116.489,74.141 117.004,73.104 116.905,72.125 C117.011,71.088 116.489,70.109 115.401,69.511 L91.978,56.680 C90.941,56.082 89.698,55.809 88.456,55.809 C87.214,55.809 85.965,56.082 84.928,56.680 L61.504,69.461 C60.417,70.058 59.951,71.095 60.001,72.074 C59.951,73.111 60.417,74.141 61.504,74.739 L84.928,87.527 C85.965,88.124 87.207,88.398 88.456,88.398 C89.698,88.398 90.941,88.124 91.978,87.527 L115.401,74.739 Z"/>
<path fill-rule="evenodd"  fill="rgb(98, 98, 98)"
 d="M115.401,72.796 C116.489,72.199 117.004,71.162 116.905,70.183 C117.011,69.146 116.489,68.166 115.401,67.569 L91.978,54.738 C90.941,54.140 89.698,53.866 88.456,53.866 C87.214,53.866 85.965,54.140 84.928,54.738 L61.504,67.518 C60.417,68.116 59.951,69.153 60.001,70.132 C59.951,71.169 60.417,72.199 61.504,72.796 L84.928,85.584 C85.965,86.182 87.207,86.455 88.456,86.455 C89.698,86.455 90.941,86.182 91.978,85.584 L115.401,72.796 Z"/>
<path fill-rule="evenodd"  fill="rgb(127, 127, 127)"
 d="M115.401,72.138 C116.489,71.540 117.004,70.504 116.905,69.524 C117.011,68.488 116.489,67.508 115.401,66.910 L91.978,54.079 C90.941,53.481 89.698,53.208 88.456,53.208 C87.214,53.208 85.965,53.481 84.928,54.079 L61.504,66.860 C60.417,67.457 59.951,68.494 60.001,69.474 C59.951,70.511 60.417,71.540 61.504,72.138 L84.928,84.926 C85.965,85.523 87.207,85.797 88.456,85.797 C89.698,85.797 90.941,85.523 91.978,84.926 L115.401,72.138 Z"/>
<path fill-rule="evenodd"  fill="rgb(98, 98, 98)"
 d="M115.401,70.196 C116.489,69.598 117.004,68.561 116.905,67.582 C117.011,66.545 116.489,65.566 115.401,64.968 L91.978,52.137 C90.941,51.539 89.698,51.266 88.456,51.266 C87.214,51.266 85.965,51.539 84.928,52.137 L61.504,64.918 C60.417,65.515 59.951,66.552 60.001,67.532 C59.951,68.569 60.417,69.598 61.504,70.196 L84.928,82.984 C85.965,83.581 87.207,83.855 88.456,83.855 C89.698,83.855 90.941,83.581 91.978,82.984 L115.401,70.196 Z"/>
<path fill-rule="evenodd"  fill="rgb(127, 127, 127)"
 d="M115.401,69.537 C116.489,68.940 117.004,67.903 116.905,66.924 C117.011,65.887 116.489,64.907 115.401,64.310 L91.978,51.479 C90.941,50.881 89.698,50.607 88.456,50.607 C87.214,50.607 85.965,50.881 84.928,51.479 L61.504,64.260 C60.417,64.857 59.951,65.894 60.001,66.873 C59.951,67.910 60.417,68.940 61.504,69.537 L84.928,82.325 C85.965,82.923 87.207,83.197 88.456,83.197 C89.698,83.197 90.941,82.923 91.978,82.325 L115.401,69.537 Z"/>
<path fill-rule="evenodd"  fill="rgb(98, 98, 98)"
 d="M115.401,67.595 C116.489,66.998 117.004,65.961 116.905,64.982 C117.011,63.945 116.489,62.965 115.401,62.367 L91.978,49.536 C90.941,48.939 89.698,48.665 88.456,48.665 C87.214,48.665 85.965,48.939 84.928,49.536 L61.504,62.317 C60.417,62.915 59.951,63.952 60.001,64.931 C59.951,65.968 60.417,66.998 61.504,67.595 L84.928,80.383 C85.965,80.981 87.207,81.254 88.456,81.254 C89.698,81.254 90.941,80.981 91.978,80.383 L115.401,67.595 Z"/>
<path fill-rule="evenodd"  fill="rgb(127, 127, 127)"
 d="M115.401,66.937 C116.489,66.339 117.004,65.302 116.905,64.323 C117.011,63.286 116.489,62.307 115.401,61.709 L91.978,48.878 C90.941,48.280 89.698,48.007 88.456,48.007 C87.214,48.007 85.965,48.280 84.928,48.878 L61.504,61.659 C60.417,62.257 59.951,63.293 60.001,64.273 C59.951,65.309 60.417,66.339 61.504,66.937 L84.928,79.725 C85.965,80.322 87.207,80.596 88.456,80.596 C89.698,80.596 90.941,80.322 91.978,79.725 L115.401,66.937 Z"/>
<path fill-rule="evenodd"  fill="rgb(98, 98, 98)"
 d="M115.401,64.995 C116.489,64.397 117.004,63.360 116.905,62.381 C117.011,61.344 116.489,60.365 115.401,59.767 L91.978,46.936 C90.941,46.338 89.698,46.065 88.456,46.065 C87.214,46.065 85.965,46.338 84.928,46.936 L61.504,59.717 C60.417,60.314 59.951,61.351 60.001,62.331 C59.951,63.367 60.417,64.397 61.504,64.995 L84.928,77.783 C85.965,78.380 87.207,78.654 88.456,78.654 C89.698,78.654 90.941,78.380 91.978,77.783 L115.401,64.995 Z"/>
<path fill-rule="evenodd"  fill="rgb(127, 127, 127)"
 d="M115.401,64.336 C116.489,63.739 117.004,62.702 116.905,61.723 C117.011,60.686 116.489,59.706 115.401,59.108 L91.978,46.277 C90.941,45.680 89.698,45.406 88.456,45.406 C87.214,45.406 85.965,45.680 84.928,46.277 L61.504,59.058 C60.417,59.656 59.951,60.693 60.001,61.672 C59.951,62.709 60.417,63.739 61.504,64.336 L84.928,77.124 C85.965,77.722 87.207,77.996 88.456,77.996 C89.698,77.996 90.941,77.722 91.978,77.124 L115.401,64.336 Z"/>
<path fill-rule="evenodd"  fill="rgb(98, 98, 98)"
 d="M115.401,62.394 C116.489,61.796 117.004,60.760 116.905,59.780 C117.011,58.744 116.489,57.764 115.401,57.167 L91.978,44.335 C90.941,43.738 89.698,43.464 88.456,43.464 C87.214,43.464 85.965,43.738 84.928,44.335 L61.504,57.116 C60.417,57.714 59.951,58.751 60.001,59.730 C59.951,60.767 60.417,61.796 61.504,62.394 L84.928,75.182 C85.965,75.780 87.207,76.053 88.456,76.053 C89.698,76.053 90.941,75.780 91.978,75.182 L115.401,62.394 Z"/>
<path fill-rule="evenodd"  fill="rgb(127, 127, 127)"
 d="M115.401,61.736 C116.489,61.138 117.004,60.101 116.905,59.122 C117.011,58.085 116.489,57.106 115.401,56.508 L91.978,43.677 C90.941,43.079 89.698,42.806 88.456,42.806 C87.214,42.806 85.965,43.079 84.928,43.677 L61.504,56.458 C60.417,57.056 59.951,58.092 60.001,59.071 C59.951,60.108 60.417,61.138 61.504,61.736 L84.928,74.524 C85.965,75.121 87.207,75.395 88.456,75.395 C89.698,75.395 90.941,75.121 91.978,74.524 L115.401,61.736 Z"/>
<path fill-rule="evenodd"  fill="rgb(98, 98, 98)"
 d="M115.401,59.794 C116.489,59.196 117.004,58.159 116.905,57.180 C117.011,56.143 116.489,55.164 115.401,54.566 L91.978,41.735 C90.941,41.137 89.698,40.864 88.456,40.864 C87.214,40.864 85.965,41.137 84.928,41.735 L61.504,54.516 C60.417,55.113 59.951,56.150 60.001,57.129 C59.951,58.166 60.417,59.196 61.504,59.794 L84.928,72.582 C85.965,73.179 87.207,73.453 88.456,73.453 C89.698,73.453 90.941,73.179 91.978,72.582 L115.401,59.794 Z"/>
<path fill-rule="evenodd"  fill="rgb(127, 127, 127)"
 d="M115.401,59.135 C116.489,58.538 117.004,57.501 116.905,56.522 C117.011,55.485 116.489,54.505 115.401,53.908 L91.978,41.076 C90.941,40.479 89.698,40.205 88.456,40.205 C87.214,40.205 85.965,40.479 84.928,41.076 L61.504,53.857 C60.417,54.455 59.951,55.492 60.001,56.471 C59.951,57.508 60.417,58.538 61.504,59.135 L84.928,71.923 C85.965,72.521 87.207,72.794 88.456,72.794 C89.698,72.794 90.941,72.521 91.978,71.923 L115.401,59.135 Z"/>
<path fill-rule="evenodd"  fill="rgb(98, 98, 98)"
 d="M115.401,57.193 C116.489,56.596 117.004,55.559 116.905,54.579 C117.011,53.543 116.489,52.563 115.401,51.966 L91.978,39.134 C90.941,38.536 89.698,38.263 88.456,38.263 C87.214,38.263 85.965,38.536 84.928,39.134 L61.504,51.915 C60.417,52.513 59.951,53.550 60.001,54.529 C59.951,55.566 60.417,56.596 61.504,57.193 L84.928,69.981 C85.965,70.578 87.207,70.852 88.456,70.852 C89.698,70.852 90.941,70.578 91.978,69.981 L115.401,57.193 Z"/>
<path fill-rule="evenodd"  fill="rgb(127, 127, 127)"
 d="M115.401,56.535 C116.489,55.937 117.004,54.900 116.905,53.921 C117.011,52.884 116.489,51.905 115.401,51.307 L91.978,38.476 C90.941,37.878 89.698,37.604 88.456,37.604 C87.214,37.604 85.965,37.878 84.928,38.476 L61.504,51.257 C60.417,51.854 59.951,52.891 60.001,53.870 C59.951,54.907 60.417,55.937 61.504,56.535 L84.928,69.323 C85.965,69.920 87.207,70.194 88.456,70.194 C89.698,70.194 90.941,69.920 91.978,69.323 L115.401,56.535 Z"/>
<path fill-rule="evenodd"  fill="rgb(108, 108, 108)"
 d="M115.401,54.592 C116.489,53.995 117.004,52.958 116.905,51.979 C117.011,50.942 116.489,49.962 115.401,49.365 L91.978,36.534 C90.941,35.936 89.698,35.662 88.456,35.662 C87.214,35.662 85.965,35.936 84.928,36.534 L61.504,49.315 C60.417,49.912 59.951,50.949 60.001,51.928 C59.951,52.965 60.417,53.995 61.504,54.592 L84.928,67.380 C85.965,67.978 87.207,68.252 88.456,68.252 C89.698,68.252 90.941,67.978 91.978,67.380 L115.401,54.592 Z"/>
<path fill-rule="evenodd"  fill="rgb(127, 127, 127)"
 d="M115.401,53.934 C116.489,53.337 117.004,52.300 116.905,51.320 C117.011,50.284 116.489,49.304 115.401,48.707 L91.978,35.875 C90.941,35.278 89.698,35.004 88.456,35.004 C87.214,35.004 85.965,35.278 84.928,35.875 L61.504,48.656 C60.417,49.254 59.951,50.291 60.001,51.270 C59.951,52.306 60.417,53.337 61.504,53.934 L84.928,66.722 C85.965,67.320 87.207,67.593 88.456,67.593 C89.698,67.593 90.941,67.320 91.978,66.722 L115.401,53.934 Z"/>
<path fill-rule="evenodd"  stroke="rgb(109, 109, 109)" stroke-width="1px" stroke-linecap="butt" stroke-linejoin="miter" fill="none"
 d="M109.646,53.360 C110.499,52.883 110.905,52.056 110.827,51.274 C110.910,50.447 110.499,49.665 109.646,49.188 L91.234,38.949 C90.419,38.472 89.442,38.254 88.465,38.254 C87.489,38.254 86.507,38.472 85.692,38.949 L67.280,49.148 C66.426,49.625 66.060,50.453 66.099,51.234 C66.060,52.061 66.426,52.883 67.280,53.360 L85.692,63.565 C86.507,64.042 87.484,64.260 88.465,64.260 C89.442,64.260 90.419,64.042 91.234,63.565 L109.646,53.360 Z"/>
<path fill-rule="evenodd"  stroke="rgb(109, 109, 109)" stroke-width="1px" stroke-linecap="butt" stroke-linejoin="miter" fill="none"
 d="M89.708,40.981 L88.893,40.612 L86.990,41.473 L90.796,41.473 L91.476,41.965 L85.630,41.965 L84.406,42.580 L93.107,42.580 L94.194,43.318 L83.183,43.318 L82.232,43.933 L95.690,43.933 L97.049,44.671 L80.600,44.671 L79.377,45.409 L98.680,45.409 L99.768,46.148 L77.881,46.148 L76.930,46.763 L101.535,46.885 L102.622,47.501 L75.026,47.624 L73.939,48.239 L104.390,48.362 L105.342,48.977 L72.444,49.100 L71.356,49.838 L106.807,49.838 L107.895,50.576 L69.453,50.576 L68.961,51.191 L108.544,51.437 L108.166,52.175 L69.725,52.175 L70.677,52.790 L106.157,53.036 L105.070,53.775 L72.851,53.775 L73.804,54.390 L103.710,54.390 L102.895,55.127 L75.571,55.127 L76.386,55.743 L100.719,55.866 L99.768,56.604 L78.289,56.604 L79.241,57.219 L98.001,57.219 L97.049,57.957 L81.008,58.080 L81.960,58.695 L94.874,58.818 L93.923,59.556 L84.271,59.556 L85.222,60.294 L92.155,60.171 L91.339,60.909 L87.261,61.032 L88.893,61.894 L89.844,61.524 "/>
<path fill-rule="evenodd"  opacity="0.302" fill="rgb(0, 0, 0)"
 d="M88.456,104.001 C89.698,104.001 90.941,103.727 91.978,103.130 L115.401,90.342 C116.489,89.744 117.004,88.707 116.905,87.728 C117.011,86.691 117.048,50.288 116.905,51.320 C117.004,52.860 116.482,53.776 115.395,54.373 L94.557,65.816 C93.521,66.413 89.487,68.046 88.967,67.896 C88.962,67.895 89.460,68.774 89.445,69.420 C89.438,69.734 88.920,70.117 88.911,70.559 C88.904,70.904 89.404,71.284 89.396,71.697 C89.388,72.078 88.872,72.487 88.863,72.920 C88.855,73.317 89.355,73.734 89.347,74.170 C89.338,74.593 88.822,75.033 88.813,75.488 C88.804,75.977 89.303,76.483 89.292,77.003 C89.285,77.416 88.768,77.837 88.760,78.265 C88.752,78.722 89.251,79.187 89.243,79.659 C89.237,79.957 88.723,80.258 88.718,80.562 C88.708,81.040 89.208,81.524 89.199,82.012 C89.191,82.454 88.674,82.900 88.666,83.348 C88.657,83.806 89.157,84.267 89.149,84.729 C89.140,85.193 88.624,85.659 88.615,86.124 C88.607,86.566 89.107,87.008 89.099,87.448 C89.092,87.836 88.577,88.223 88.570,88.608 C88.563,89.013 89.063,89.416 89.057,89.817 C89.049,90.278 88.532,90.736 88.523,91.188 C88.515,91.646 89.016,92.099 89.008,92.544 C89.000,92.958 88.484,93.366 88.477,93.767 C88.469,94.209 88.970,94.642 88.962,95.065 C88.955,95.488 88.439,95.901 88.432,96.303 C88.423,96.832 88.922,97.340 88.913,97.825 C88.906,98.209 88.392,98.578 88.385,98.930 C88.378,99.359 88.879,99.763 88.872,100.138 C88.865,100.530 88.351,100.892 88.345,101.219 C88.336,101.712 88.837,102.127 88.832,102.453 C88.822,102.987 88.309,103.281 88.309,103.281 C88.309,103.281 88.402,104.001 88.456,104.001 Z"/>
</svg>
