<svg 
 xmlns="http://www.w3.org/2000/svg"
 xmlns:xlink="http://www.w3.org/1999/xlink"
 width="232.5px" height="147.5px">
<defs>
<filter id="Filter_0">
                <feOffset in="SourceAlpha" dx="0" dy="-4" />
                <feGaussianBlur result="blurOut" stdDeviation="1" />
                <feFlood flood-color="rgb(44, 44, 46)" result="floodOut" />
                <feComposite operator="out" in="floodOut" in2="blurOut" result="compOut" />
                <feComposite operator="in" in="compOut" in2="SourceAlpha" />
                <feComponentTransfer><feFuncA type="linear" slope="1"/></feComponentTransfer>
                <feBlend mode="normal" in2="SourceGraphic" />
            </filter>

</defs>
<path fill-rule="evenodd"  fill="none"
 d="M-0.000,130.000 L19.000,130.000 L19.000,147.000 L-0.000,147.000 L-0.000,130.000 Z"/>
<path fill-rule="evenodd"  fill="rgb(40, 40, 42)"
 d="M116.000,121.000 C124.284,121.000 130.999,124.134 130.999,128.000 C130.999,131.866 124.284,134.999 116.000,134.999 C107.715,134.999 100.999,131.866 100.999,128.000 C100.999,124.134 107.715,121.000 116.000,121.000 Z"/>
<path fill-rule="evenodd"  fill="rgb(40, 40, 42)"
 d="M30.000,76.000 C36.074,76.000 40.999,79.133 40.999,83.000 C40.999,86.866 36.074,90.000 30.000,90.000 C23.924,90.000 19.000,86.866 19.000,83.000 C19.000,79.133 23.924,76.000 30.000,76.000 Z"/>
<path fill-rule="evenodd"  fill="rgb(40, 40, 42)"
 d="M202.000,76.000 C208.074,76.000 212.999,79.133 212.999,83.000 C212.999,86.866 208.074,90.000 202.000,90.000 C195.924,90.000 190.999,86.866 190.999,83.000 C190.999,79.133 195.924,76.000 202.000,76.000 Z"/>
<g filter="url(#Filter_0)">
<path fill-rule="evenodd"  fill="rgb(56, 56, 58)"
 d="M207.828,85.889 C211.532,83.872 213.288,80.371 212.952,77.066 C213.313,73.566 211.532,70.261 207.828,68.243 L127.994,24.932 C124.459,22.914 120.225,21.991 115.992,21.991 C111.757,21.991 107.500,22.914 103.965,24.932 L24.131,68.073 C20.427,70.091 18.839,73.590 19.007,76.896 C18.839,80.396 20.427,83.872 24.131,85.889 L103.965,129.054 C107.500,131.072 111.734,131.994 115.992,131.994 C120.225,131.994 124.459,131.072 127.994,129.054 L207.828,85.889 Z"/>
</g>
<path fill-rule="evenodd"  fill="rgb(28, 227, 107)"
 d="M144.473,29.179 L145.000,35.000 L179.000,49.000 L188.000,45.000 L188.098,42.538 L152.756,25.129 L144.473,29.179 Z"/>
<path fill-rule="evenodd"  fill="rgb(23, 204, 95)"
 d="M144.000,29.000 L178.868,47.437 L178.868,74.999 L144.000,57.000 L144.000,29.000 Z"/>
<path fill-rule="evenodd"  fill="rgb(16, 142, 66)"
 d="M178.868,47.437 L188.077,42.549 L187.903,70.314 L178.868,74.999 L178.868,47.437 Z"/>
<path fill-rule="evenodd"  fill="rgb(204, 198, 23)"
 d="M144.000,48.999 L178.868,67.438 L178.868,76.999 L144.000,59.000 L144.000,48.999 Z"/>
<path fill-rule="evenodd"  fill="rgb(143, 139, 17)"
 d="M178.868,67.438 L188.077,62.548 L187.903,72.314 L178.868,76.999 L178.868,67.438 Z"/>
<path fill-rule="evenodd"  fill="rgb(127, 127, 127)"
 d="M133.401,90.131 C134.489,89.534 135.004,88.497 134.905,87.518 C135.011,86.481 134.489,85.501 133.401,84.904 L109.978,72.072 C108.941,71.475 107.698,71.201 106.456,71.201 C105.214,71.201 103.965,71.475 102.928,72.072 L79.504,84.853 C78.417,85.451 77.951,86.487 78.001,87.467 C77.951,88.504 78.417,89.534 79.504,90.131 L102.928,102.919 C103.965,103.517 105.207,103.790 106.456,103.790 C107.698,103.790 108.941,103.517 109.978,102.919 L133.401,90.131 Z"/>
<path fill-rule="evenodd"  fill="rgb(98, 98, 98)"
 d="M133.401,88.400 C134.489,87.802 135.004,86.765 134.905,85.786 C135.011,84.749 134.489,83.770 133.401,83.172 L109.978,70.341 C108.941,69.743 107.698,69.470 106.456,69.470 C105.214,69.470 103.965,69.743 102.928,70.341 L79.504,83.122 C78.417,83.719 77.951,84.756 78.001,85.736 C77.951,86.772 78.417,87.802 79.504,88.400 L102.928,101.188 C103.965,101.785 105.207,102.059 106.456,102.059 C107.698,102.059 108.941,101.785 109.978,101.188 L133.401,88.400 Z"/>
<path fill-rule="evenodd"  fill="rgb(127, 127, 127)"
 d="M133.401,87.741 C134.489,87.144 135.004,86.107 134.905,85.128 C135.011,84.091 134.489,83.111 133.401,82.513 L109.978,69.683 C108.941,69.085 107.698,68.811 106.456,68.811 C105.214,68.811 103.965,69.085 102.928,69.683 L79.504,82.463 C78.417,83.061 77.951,84.098 78.001,85.077 C77.951,86.113 78.417,87.144 79.504,87.741 L102.928,100.529 C103.965,101.127 105.207,101.400 106.456,101.400 C107.698,101.400 108.941,101.127 109.978,100.529 L133.401,87.741 Z"/>
<path fill-rule="evenodd"  fill="rgb(98, 98, 98)"
 d="M133.401,85.799 C134.489,85.201 135.004,84.165 134.905,83.186 C135.011,82.149 134.489,81.169 133.401,80.571 L109.978,67.740 C108.941,67.143 107.698,66.869 106.456,66.869 C105.214,66.869 103.965,67.143 102.928,67.740 L79.504,80.521 C78.417,81.119 77.951,82.156 78.001,83.135 C77.951,84.172 78.417,85.201 79.504,85.799 L102.928,98.587 C103.965,99.185 105.207,99.458 106.456,99.458 C107.698,99.458 108.941,99.185 109.978,98.587 L133.401,85.799 Z"/>
<path fill-rule="evenodd"  fill="rgb(127, 127, 127)"
 d="M133.401,85.141 C134.489,84.543 135.004,83.506 134.905,82.527 C135.011,81.490 134.489,80.511 133.401,79.913 L109.978,67.082 C108.941,66.484 107.698,66.211 106.456,66.211 C105.214,66.211 103.965,66.484 102.928,67.082 L79.504,79.863 C78.417,80.461 77.951,81.497 78.001,82.477 C77.951,83.513 78.417,84.543 79.504,85.141 L102.928,97.929 C103.965,98.526 105.207,98.800 106.456,98.800 C107.698,98.800 108.941,98.526 109.978,97.929 L133.401,85.141 Z"/>
<path fill-rule="evenodd"  fill="rgb(98, 98, 98)"
 d="M133.401,83.198 C134.489,82.601 135.004,81.564 134.905,80.585 C135.011,79.548 134.489,78.569 133.401,77.971 L109.978,65.140 C108.941,64.542 107.698,64.269 106.456,64.269 C105.214,64.269 103.965,64.542 102.928,65.140 L79.504,77.921 C78.417,78.518 77.951,79.555 78.001,80.534 C77.951,81.571 78.417,82.601 79.504,83.198 L102.928,95.986 C103.965,96.584 105.207,96.858 106.456,96.858 C107.698,96.858 108.941,96.584 109.978,95.986 L133.401,83.198 Z"/>
<path fill-rule="evenodd"  fill="rgb(127, 127, 127)"
 d="M133.401,82.540 C134.489,81.943 135.004,80.906 134.905,79.927 C135.011,78.890 134.489,77.910 133.401,77.312 L109.978,64.481 C108.941,63.884 107.698,63.610 106.456,63.610 C105.214,63.610 103.965,63.884 102.928,64.481 L79.504,77.262 C78.417,77.860 77.951,78.896 78.001,79.876 C77.951,80.913 78.417,81.943 79.504,82.540 L102.928,95.328 C103.965,95.926 105.207,96.199 106.456,96.199 C107.698,96.199 108.941,95.926 109.978,95.328 L133.401,82.540 Z"/>
<path fill-rule="evenodd"  fill="rgb(98, 98, 98)"
 d="M133.401,80.598 C134.489,80.000 135.004,78.964 134.905,77.984 C135.011,76.948 134.489,75.968 133.401,75.370 L109.978,62.539 C108.941,61.942 107.698,61.668 106.456,61.668 C105.214,61.668 103.965,61.942 102.928,62.539 L79.504,75.320 C78.417,75.918 77.951,76.954 78.001,77.934 C77.951,78.970 78.417,80.000 79.504,80.598 L102.928,93.386 C103.965,93.984 105.207,94.257 106.456,94.257 C107.698,94.257 108.941,93.984 109.978,93.386 L133.401,80.598 Z"/>
<path fill-rule="evenodd"  fill="rgb(127, 127, 127)"
 d="M133.401,79.940 C134.489,79.342 135.004,78.305 134.905,77.326 C135.011,76.289 134.489,75.310 133.401,74.712 L109.978,61.881 C108.941,61.283 107.698,61.010 106.456,61.010 C105.214,61.010 103.965,61.283 102.928,61.881 L79.504,74.662 C78.417,75.259 77.951,76.296 78.001,77.275 C77.951,78.312 78.417,79.342 79.504,79.940 L102.928,92.727 C103.965,93.325 105.207,93.599 106.456,93.599 C107.698,93.599 108.941,93.325 109.978,92.727 L133.401,79.940 Z"/>
<path fill-rule="evenodd"  fill="rgb(98, 98, 98)"
 d="M133.401,77.998 C134.489,77.400 135.004,76.363 134.905,75.384 C135.011,74.347 134.489,73.368 133.401,72.770 L109.978,59.939 C108.941,59.341 107.698,59.067 106.456,59.067 C105.214,59.067 103.965,59.341 102.928,59.939 L79.504,72.720 C78.417,73.317 77.951,74.354 78.001,75.333 C77.951,76.370 78.417,77.400 79.504,77.998 L102.928,90.785 C103.965,91.383 105.207,91.656 106.456,91.656 C107.698,91.656 108.941,91.383 109.978,90.785 L133.401,77.998 Z"/>
<path fill-rule="evenodd"  fill="rgb(127, 127, 127)"
 d="M133.401,77.339 C134.489,76.741 135.004,75.704 134.905,74.725 C135.011,73.689 134.489,72.709 133.401,72.111 L109.978,59.280 C108.941,58.683 107.698,58.409 106.456,58.409 C105.214,58.409 103.965,58.683 102.928,59.280 L79.504,72.061 C78.417,72.659 77.951,73.696 78.001,74.675 C77.951,75.712 78.417,76.741 79.504,77.339 L102.928,90.127 C103.965,90.724 105.207,90.998 106.456,90.998 C107.698,90.998 108.941,90.724 109.978,90.127 L133.401,77.339 Z"/>
<path fill-rule="evenodd"  fill="rgb(98, 98, 98)"
 d="M133.401,75.397 C134.489,74.799 135.004,73.762 134.905,72.783 C135.011,71.747 134.489,70.767 133.401,70.169 L109.978,57.338 C108.941,56.740 107.698,56.467 106.456,56.467 C105.214,56.467 103.965,56.740 102.928,57.338 L79.504,70.119 C78.417,70.717 77.951,71.754 78.001,72.733 C77.951,73.769 78.417,74.799 79.504,75.397 L102.928,88.185 C103.965,88.783 105.207,89.056 106.456,89.056 C107.698,89.056 108.941,88.783 109.978,88.185 L133.401,75.397 Z"/>
<path fill-rule="evenodd"  fill="rgb(127, 127, 127)"
 d="M133.401,74.739 C134.489,74.141 135.004,73.104 134.905,72.125 C135.011,71.088 134.489,70.108 133.401,69.511 L109.978,56.680 C108.941,56.082 107.698,55.808 106.456,55.808 C105.214,55.808 103.965,56.082 102.928,56.680 L79.504,69.461 C78.417,70.058 77.951,71.095 78.001,72.074 C77.951,73.111 78.417,74.141 79.504,74.739 L102.928,87.526 C103.965,88.124 105.207,88.398 106.456,88.398 C107.698,88.398 108.941,88.124 109.978,87.526 L133.401,74.739 Z"/>
<path fill-rule="evenodd"  fill="rgb(98, 98, 98)"
 d="M133.401,72.796 C134.489,72.199 135.004,71.162 134.905,70.183 C135.011,69.146 134.489,68.166 133.401,67.569 L109.978,54.738 C108.941,54.140 107.698,53.866 106.456,53.866 C105.214,53.866 103.965,54.140 102.928,54.738 L79.504,67.518 C78.417,68.116 77.951,69.153 78.001,70.132 C77.951,71.169 78.417,72.199 79.504,72.796 L102.928,85.584 C103.965,86.182 105.207,86.456 106.456,86.456 C107.698,86.456 108.941,86.182 109.978,85.584 L133.401,72.796 Z"/>
<path fill-rule="evenodd"  fill="rgb(127, 127, 127)"
 d="M133.401,72.138 C134.489,71.540 135.004,70.504 134.905,69.524 C135.011,68.487 134.489,67.508 133.401,66.910 L109.978,54.079 C108.941,53.482 107.698,53.208 106.456,53.208 C105.214,53.208 103.965,53.482 102.928,54.079 L79.504,66.860 C78.417,67.458 77.951,68.495 78.001,69.474 C77.951,70.510 78.417,71.540 79.504,72.138 L102.928,84.926 C103.965,85.524 105.207,85.797 106.456,85.797 C107.698,85.797 108.941,85.524 109.978,84.926 L133.401,72.138 Z"/>
<path fill-rule="evenodd"  fill="rgb(98, 98, 98)"
 d="M133.401,70.196 C134.489,69.598 135.004,68.561 134.905,67.582 C135.011,66.545 134.489,65.566 133.401,64.968 L109.978,52.137 C108.941,51.539 107.698,51.266 106.456,51.266 C105.214,51.266 103.965,51.539 102.928,52.137 L79.504,64.918 C78.417,65.516 77.951,66.552 78.001,67.532 C77.951,68.568 78.417,69.598 79.504,70.196 L102.928,82.983 C103.965,83.581 105.207,83.855 106.456,83.855 C107.698,83.855 108.941,83.581 109.978,82.983 L133.401,70.196 Z"/>
<path fill-rule="evenodd"  fill="rgb(127, 127, 127)"
 d="M133.401,69.538 C134.489,68.940 135.004,67.903 134.905,66.924 C135.011,65.887 134.489,64.908 133.401,64.310 L109.978,51.479 C108.941,50.881 107.698,50.607 106.456,50.607 C105.214,50.607 103.965,50.881 102.928,51.479 L79.504,64.260 C78.417,64.857 77.951,65.894 78.001,66.873 C77.951,67.910 78.417,68.940 79.504,69.538 L102.928,82.325 C103.965,82.923 105.207,83.197 106.456,83.197 C107.698,83.197 108.941,82.923 109.978,82.325 L133.401,69.538 Z"/>
<path fill-rule="evenodd"  fill="rgb(98, 98, 98)"
 d="M133.401,67.595 C134.489,66.998 135.004,65.961 134.905,64.982 C135.011,63.945 134.489,62.965 133.401,62.368 L109.978,49.537 C108.941,48.939 107.698,48.665 106.456,48.665 C105.214,48.665 103.965,48.939 102.928,49.537 L79.504,62.317 C78.417,62.915 77.951,63.952 78.001,64.931 C77.951,65.968 78.417,66.998 79.504,67.595 L102.928,80.383 C103.965,80.981 105.207,81.254 106.456,81.254 C107.698,81.254 108.941,80.981 109.978,80.383 L133.401,67.595 Z"/>
<path fill-rule="evenodd"  fill="rgb(127, 127, 127)"
 d="M133.401,66.937 C134.489,66.339 135.004,65.303 134.905,64.323 C135.011,63.287 134.489,62.307 133.401,61.709 L109.978,48.878 C108.941,48.280 107.698,48.007 106.456,48.007 C105.214,48.007 103.965,48.280 102.928,48.878 L79.504,61.659 C78.417,62.257 77.951,63.293 78.001,64.273 C77.951,65.309 78.417,66.339 79.504,66.937 L102.928,79.725 C103.965,80.322 105.207,80.596 106.456,80.596 C107.698,80.596 108.941,80.322 109.978,79.725 L133.401,66.937 Z"/>
<path fill-rule="evenodd"  fill="rgb(98, 98, 98)"
 d="M133.401,64.995 C134.489,64.397 135.004,63.360 134.905,62.381 C135.011,61.344 134.489,60.365 133.401,59.767 L109.978,46.936 C108.941,46.338 107.698,46.065 106.456,46.065 C105.214,46.065 103.965,46.338 102.928,46.936 L79.504,59.717 C78.417,60.314 77.951,61.351 78.001,62.330 C77.951,63.367 78.417,64.397 79.504,64.995 L102.928,77.783 C103.965,78.380 105.207,78.654 106.456,78.654 C107.698,78.654 108.941,78.380 109.978,77.783 L133.401,64.995 Z"/>
<path fill-rule="evenodd"  fill="rgb(127, 127, 127)"
 d="M133.401,64.336 C134.489,63.739 135.004,62.702 134.905,61.723 C135.011,60.686 134.489,59.706 133.401,59.109 L109.978,46.278 C108.941,45.680 107.698,45.406 106.456,45.406 C105.214,45.406 103.965,45.680 102.928,46.278 L79.504,59.058 C78.417,59.656 77.951,60.693 78.001,61.672 C77.951,62.709 78.417,63.739 79.504,64.336 L102.928,77.124 C103.965,77.722 105.207,77.996 106.456,77.996 C107.698,77.996 108.941,77.722 109.978,77.124 L133.401,64.336 Z"/>
<path fill-rule="evenodd"  fill="rgb(98, 98, 98)"
 d="M133.401,62.394 C134.489,61.796 135.004,60.760 134.905,59.780 C135.011,58.744 134.489,57.764 133.401,57.166 L109.978,44.335 C108.941,43.738 107.698,43.464 106.456,43.464 C105.214,43.464 103.965,43.738 102.928,44.335 L79.504,57.116 C78.417,57.714 77.951,58.751 78.001,59.730 C77.951,60.767 78.417,61.796 79.504,62.394 L102.928,75.182 C103.965,75.780 105.207,76.053 106.456,76.053 C107.698,76.053 108.941,75.780 109.978,75.182 L133.401,62.394 Z"/>
<path fill-rule="evenodd"  fill="rgb(127, 127, 127)"
 d="M133.401,61.736 C134.489,61.138 135.004,60.101 134.905,59.122 C135.011,58.085 134.489,57.106 133.401,56.508 L109.978,43.677 C108.941,43.079 107.698,42.806 106.456,42.806 C105.214,42.806 103.965,43.079 102.928,43.677 L79.504,56.458 C78.417,57.055 77.951,58.092 78.001,59.072 C77.951,60.108 78.417,61.138 79.504,61.736 L102.928,74.524 C103.965,75.121 105.207,75.395 106.456,75.395 C107.698,75.395 108.941,75.121 109.978,74.524 L133.401,61.736 Z"/>
<path fill-rule="evenodd"  fill="rgb(98, 98, 98)"
 d="M133.401,59.794 C134.489,59.196 135.004,58.159 134.905,57.180 C135.011,56.143 134.489,55.164 133.401,54.566 L109.978,41.735 C108.941,41.137 107.698,40.864 106.456,40.864 C105.214,40.864 103.965,41.137 102.928,41.735 L79.504,54.516 C78.417,55.113 77.951,56.150 78.001,57.129 C77.951,58.166 78.417,59.196 79.504,59.794 L102.928,72.582 C103.965,73.179 105.207,73.453 106.456,73.453 C107.698,73.453 108.941,73.179 109.978,72.582 L133.401,59.794 Z"/>
<path fill-rule="evenodd"  fill="rgb(127, 127, 127)"
 d="M133.401,59.135 C134.489,58.538 135.004,57.501 134.905,56.522 C135.011,55.485 134.489,54.505 133.401,53.908 L109.978,41.077 C108.941,40.479 107.698,40.205 106.456,40.205 C105.214,40.205 103.965,40.479 102.928,41.077 L79.504,53.857 C78.417,54.455 77.951,55.492 78.001,56.471 C77.951,57.508 78.417,58.538 79.504,59.135 L102.928,71.923 C103.965,72.521 105.207,72.794 106.456,72.794 C107.698,72.794 108.941,72.521 109.978,71.923 L133.401,59.135 Z"/>
<path fill-rule="evenodd"  fill="rgb(98, 98, 98)"
 d="M133.401,57.193 C134.489,56.596 135.004,55.559 134.905,54.579 C135.011,53.543 134.489,52.563 133.401,51.965 L109.978,39.134 C108.941,38.536 107.698,38.263 106.456,38.263 C105.214,38.263 103.965,38.536 102.928,39.134 L79.504,51.915 C78.417,52.513 77.951,53.550 78.001,54.529 C77.951,55.566 78.417,56.596 79.504,57.193 L102.928,69.981 C103.965,70.579 105.207,70.852 106.456,70.852 C107.698,70.852 108.941,70.579 109.978,69.981 L133.401,57.193 Z"/>
<path fill-rule="evenodd"  fill="rgb(127, 127, 127)"
 d="M133.401,56.534 C134.489,55.937 135.004,54.900 134.905,53.921 C135.011,52.884 134.489,51.905 133.401,51.307 L109.978,38.476 C108.941,37.878 107.698,37.605 106.456,37.605 C105.214,37.605 103.965,37.878 102.928,38.476 L79.504,51.257 C78.417,51.854 77.951,52.891 78.001,53.870 C77.951,54.907 78.417,55.937 79.504,56.534 L102.928,69.322 C103.965,69.920 105.207,70.194 106.456,70.194 C107.698,70.194 108.941,69.920 109.978,69.322 L133.401,56.534 Z"/>
<path fill-rule="evenodd"  fill="rgb(108, 108, 108)"
 d="M133.401,54.592 C134.489,53.995 135.004,52.958 134.905,51.979 C135.011,50.942 134.489,49.963 133.401,49.365 L109.978,36.534 C108.941,35.936 107.698,35.662 106.456,35.662 C105.214,35.662 103.965,35.936 102.928,36.534 L79.504,49.314 C78.417,49.912 77.951,50.949 78.001,51.928 C77.951,52.965 78.417,53.995 79.504,54.592 L102.928,67.380 C103.965,67.978 105.207,68.252 106.456,68.252 C107.698,68.252 108.941,67.978 109.978,67.380 L133.401,54.592 Z"/>
<path fill-rule="evenodd"  fill="rgb(127, 127, 127)"
 d="M133.401,53.934 C134.489,53.336 135.004,52.300 134.905,51.320 C135.011,50.284 134.489,49.304 133.401,48.706 L109.978,35.875 C108.941,35.278 107.698,35.004 106.456,35.004 C105.214,35.004 103.965,35.278 102.928,35.875 L79.504,48.656 C78.417,49.254 77.951,50.290 78.001,51.270 C77.951,52.307 78.417,53.336 79.504,53.934 L102.928,66.722 C103.965,67.320 105.207,67.593 106.456,67.593 C107.698,67.593 108.941,67.320 109.978,66.722 L133.401,53.934 Z"/>
<path fill-rule="evenodd"  stroke="rgb(109, 109, 109)" stroke-width="1px" stroke-linecap="butt" stroke-linejoin="miter" fill="none"
 d="M127.646,53.360 C128.499,52.883 128.905,52.056 128.827,51.274 C128.910,50.447 128.499,49.665 127.646,49.188 L109.234,38.949 C108.419,38.472 107.442,38.253 106.465,38.253 C105.489,38.253 104.507,38.472 103.692,38.949 L85.280,49.148 C84.426,49.625 84.060,50.452 84.099,51.234 C84.060,52.061 84.426,52.883 85.280,53.360 L103.692,63.565 C104.507,64.042 105.484,64.260 106.465,64.260 C107.442,64.260 108.419,64.042 109.234,63.565 L127.646,53.360 Z"/>
<path fill-rule="evenodd"  stroke="rgb(109, 109, 109)" stroke-width="1px" stroke-linecap="butt" stroke-linejoin="miter" fill="none"
 d="M107.708,40.981 L106.893,40.612 L104.990,41.473 L108.796,41.473 L109.476,41.965 L103.630,41.965 L102.406,42.580 L111.107,42.580 L112.194,43.318 L101.183,43.318 L100.232,43.933 L113.690,43.933 L115.049,44.671 L98.600,44.671 L97.377,45.410 L116.680,45.410 L117.768,46.147 L95.881,46.147 L94.930,46.763 L119.535,46.885 L120.622,47.501 L93.026,47.624 L91.939,48.239 L122.390,48.362 L123.342,48.977 L90.444,49.100 L89.356,49.838 L124.807,49.838 L125.895,50.576 L87.453,50.576 L86.961,51.191 L126.544,51.437 L126.166,52.175 L87.725,52.175 L88.677,52.790 L124.157,53.036 L123.070,53.775 L90.851,53.775 L91.804,54.390 L121.710,54.390 L120.895,55.128 L93.571,55.128 L94.386,55.743 L118.719,55.866 L117.768,56.604 L96.289,56.604 L97.241,57.219 L116.001,57.219 L115.049,57.957 L99.008,58.080 L99.960,58.695 L112.874,58.818 L111.923,59.556 L102.271,59.556 L103.222,60.294 L110.155,60.171 L109.339,60.910 L105.261,61.033 L106.893,61.893 L107.844,61.524 "/>
<path fill-rule="evenodd"  opacity="0.302" fill="rgb(0, 0, 0)"
 d="M106.456,104.001 C107.698,104.001 108.941,103.728 109.978,103.130 L133.401,90.342 C134.489,89.744 135.004,88.707 134.905,87.728 C135.011,86.691 135.048,50.289 134.905,51.320 C135.004,52.860 134.482,53.776 133.395,54.373 L112.557,65.816 C111.521,66.414 107.487,68.047 106.967,67.896 C106.962,67.895 107.460,68.774 107.445,69.419 C107.438,69.734 106.920,70.117 106.911,70.559 C106.904,70.903 107.404,71.284 107.396,71.697 C107.388,72.078 106.872,72.487 106.863,72.920 C106.855,73.317 107.355,73.734 107.347,74.169 C107.338,74.593 106.822,75.034 106.813,75.489 C106.804,75.978 107.303,76.483 107.292,77.004 C107.285,77.416 106.768,77.837 106.760,78.265 C106.752,78.722 107.251,79.187 107.243,79.659 C107.237,79.957 106.723,80.258 106.718,80.562 C106.708,81.040 107.208,81.524 107.199,82.012 C107.191,82.454 106.674,82.900 106.666,83.348 C106.657,83.806 107.157,84.267 107.149,84.729 C107.140,85.193 106.624,85.659 106.615,86.124 C106.607,86.566 107.107,87.008 107.099,87.448 C107.092,87.836 106.577,88.223 106.570,88.608 C106.563,89.013 107.063,89.417 107.057,89.817 C107.049,90.278 106.532,90.736 106.523,91.189 C106.515,91.646 107.016,92.099 107.008,92.544 C107.000,92.958 106.484,93.366 106.477,93.767 C106.469,94.209 106.970,94.642 106.962,95.065 C106.955,95.488 106.439,95.902 106.432,96.303 C106.423,96.832 106.922,97.340 106.913,97.825 C106.906,98.209 106.392,98.578 106.385,98.930 C106.378,99.359 106.879,99.762 106.872,100.138 C106.865,100.530 106.351,100.892 106.345,101.219 C106.336,101.711 106.837,102.127 106.832,102.453 C106.822,102.987 106.309,103.282 106.309,103.282 C106.309,103.282 106.402,104.001 106.456,104.001 Z"/>
<path fill-rule="evenodd"  fill="rgb(255, 255, 255)"
 d="M231.201,19.997 C230.759,19.997 230.400,19.613 230.400,19.140 L230.400,0.854 C230.400,0.380 230.759,-0.003 231.201,-0.003 C231.643,-0.003 232.000,0.380 232.000,0.854 L232.000,19.140 C232.000,19.613 231.643,19.997 231.201,19.997 ZM226.966,13.459 C226.651,13.774 226.160,13.765 225.855,13.438 C225.551,13.111 225.542,12.585 225.835,12.248 L227.136,10.854 L216.866,10.854 L218.167,12.248 C218.470,12.585 218.466,13.119 218.157,13.450 C217.848,13.780 217.349,13.784 217.035,13.459 L214.371,10.605 C214.296,10.525 214.237,10.429 214.196,10.323 C214.163,10.238 214.152,10.148 214.146,10.058 C214.144,10.036 214.134,10.018 214.134,9.996 C214.134,9.972 214.145,9.952 214.147,9.929 C214.154,9.841 214.164,9.753 214.196,9.670 C214.237,9.564 214.297,9.468 214.372,9.388 L217.035,6.533 C217.351,6.219 217.842,6.228 218.146,6.555 C218.451,6.881 218.460,7.407 218.166,7.745 L216.866,9.139 L227.135,9.139 L225.834,7.745 C225.532,7.409 225.536,6.874 225.845,6.544 C226.153,6.213 226.652,6.208 226.966,6.533 L229.633,9.391 C229.945,9.725 229.945,10.267 229.633,10.603 L226.966,13.459 ZM212.800,19.997 C212.359,19.997 212.001,19.613 212.001,19.140 L212.001,0.854 C212.001,0.380 212.359,-0.003 212.800,-0.003 C213.243,-0.003 213.601,0.380 213.601,0.854 L213.601,19.140 C213.601,19.613 213.243,19.997 212.800,19.997 Z"/>
<path fill-rule="evenodd"  stroke="rgb(255, 255, 255)" stroke-width="1px" stroke-dasharray="4, 2" stroke-linecap="butt" stroke-linejoin="miter" fill="none"
 d="M183.614,78.532 L210.999,95.999 "/>
<path fill-rule="evenodd"  stroke="rgb(255, 255, 255)" stroke-width="1px" stroke-dasharray="4, 2" stroke-linecap="butt" stroke-linejoin="miter" fill="none"
 d="M192.615,73.532 L219.999,91.000 "/>
</svg>
