<svg 
 xmlns="http://www.w3.org/2000/svg"
 xmlns:xlink="http://www.w3.org/1999/xlink"
 width="276.5px" height="149.5px">
<path fill-rule="evenodd"  fill="rgb(127, 127, 127)"
 d="M129.011,108.499 C131.150,107.350 132.163,105.357 131.969,103.474 C132.177,101.481 131.150,99.598 129.011,98.448 L82.922,73.778 C80.881,72.629 78.437,72.103 75.993,72.103 C73.549,72.103 71.091,72.629 69.050,73.778 L22.962,98.352 C20.823,99.501 19.906,101.494 20.004,103.377 C19.906,105.370 20.823,107.350 22.962,108.499 L69.050,133.086 C71.091,134.235 73.535,134.761 75.993,134.761 C78.437,134.761 80.881,134.235 82.922,133.086 L129.011,108.499 Z"/>
<path fill-rule="evenodd"  fill="rgb(98, 98, 98)"
 d="M129.011,105.170 C131.150,104.021 132.163,102.028 131.969,100.145 C132.177,98.152 131.150,96.269 129.011,95.119 L82.922,70.449 C80.881,69.300 78.437,68.774 75.993,68.774 C73.549,68.774 71.091,69.300 69.050,70.449 L22.962,95.022 C20.823,96.172 19.906,98.165 20.004,100.048 C19.906,102.041 20.823,104.021 22.962,105.170 L69.050,129.757 C71.091,130.906 73.535,131.432 75.993,131.432 C78.437,131.432 80.881,130.906 82.922,129.757 L129.011,105.170 Z"/>
<path fill-rule="evenodd"  fill="rgb(127, 127, 127)"
 d="M129.011,103.904 C131.150,102.755 132.163,100.762 131.969,98.879 C132.177,96.886 131.150,95.003 129.011,93.853 L82.922,69.183 C80.881,68.034 78.437,67.508 75.993,67.508 C73.549,67.508 71.091,68.034 69.050,69.183 L22.962,93.756 C20.823,94.906 19.906,96.899 20.004,98.782 C19.906,100.775 20.823,102.755 22.962,103.904 L69.050,128.491 C71.091,129.640 73.535,130.166 75.993,130.166 C78.437,130.166 80.881,129.640 82.922,128.491 L129.011,103.904 Z"/>
<path fill-rule="evenodd"  fill="rgb(98, 98, 98)"
 d="M129.011,100.170 C131.150,99.021 132.163,97.028 131.969,95.145 C132.177,93.152 131.150,91.268 129.011,90.119 L82.922,65.449 C80.881,64.300 78.437,63.774 75.993,63.774 C73.549,63.774 71.091,64.300 69.050,65.449 L22.962,90.022 C20.823,91.172 19.906,93.165 20.004,95.048 C19.906,97.041 20.823,99.021 22.962,100.170 L69.050,124.757 C71.091,125.906 73.535,126.432 75.993,126.432 C78.437,126.432 80.881,125.906 82.922,124.757 L129.011,100.170 Z"/>
<path fill-rule="evenodd"  fill="rgb(127, 127, 127)"
 d="M129.011,98.904 C131.150,97.755 132.163,95.762 131.969,93.879 C132.177,91.886 131.150,90.003 129.011,88.853 L82.922,64.183 C80.881,63.034 78.437,62.508 75.993,62.508 C73.549,62.508 71.091,63.034 69.050,64.183 L22.962,88.756 C20.823,89.906 19.906,91.899 20.004,93.782 C19.906,95.775 20.823,97.755 22.962,98.904 L69.050,123.491 C71.091,124.641 73.535,125.166 75.993,125.166 C78.437,125.166 80.881,124.641 82.922,123.491 L129.011,98.904 Z"/>
<path fill-rule="evenodd"  fill="rgb(98, 98, 98)"
 d="M129.011,95.170 C131.150,94.021 132.163,92.028 131.969,90.145 C132.177,88.152 131.150,86.268 129.011,85.119 L82.922,60.449 C80.881,59.300 78.437,58.774 75.993,58.774 C73.549,58.774 71.091,59.300 69.050,60.449 L22.962,85.023 C20.823,86.172 19.906,88.165 20.004,90.048 C19.906,92.041 20.823,94.021 22.962,95.170 L69.050,119.757 C71.091,120.906 73.535,121.432 75.993,121.432 C78.437,121.432 80.881,120.906 82.922,119.757 L129.011,95.170 Z"/>
<path fill-rule="evenodd"  fill="rgb(127, 127, 127)"
 d="M129.011,93.904 C131.150,92.756 132.163,90.762 131.969,88.879 C132.177,86.885 131.150,85.002 129.011,83.853 L82.922,59.184 C80.881,58.034 78.437,57.508 75.993,57.508 C73.549,57.508 71.091,58.034 69.050,59.184 L22.962,83.757 C20.823,84.906 19.906,86.899 20.004,88.782 C19.906,90.775 20.823,92.756 22.962,93.904 L69.050,118.491 C71.091,119.641 73.535,120.166 75.993,120.166 C78.437,120.166 80.881,119.641 82.922,118.491 L129.011,93.904 Z"/>
<path fill-rule="evenodd"  fill="rgb(98, 98, 98)"
 d="M129.011,90.170 C131.150,89.021 132.163,87.028 131.969,85.145 C132.177,83.152 131.150,81.268 129.011,80.119 L82.922,55.449 C80.881,54.300 78.437,53.774 75.993,53.774 C73.549,53.774 71.091,54.300 69.050,55.449 L22.962,80.023 C20.823,81.172 19.906,83.165 20.004,85.048 C19.906,87.041 20.823,89.021 22.962,90.170 L69.050,114.757 C71.091,115.906 73.535,116.432 75.993,116.432 C78.437,116.432 80.881,115.906 82.922,114.757 L129.011,90.170 Z"/>
<path fill-rule="evenodd"  fill="rgb(127, 127, 127)"
 d="M129.011,88.905 C131.150,87.755 132.163,85.762 131.969,83.879 C132.177,81.886 131.150,80.002 129.011,78.853 L82.922,54.183 C80.881,53.034 78.437,52.508 75.993,52.508 C73.549,52.508 71.091,53.034 69.050,54.183 L22.962,78.757 C20.823,79.906 19.906,81.899 20.004,83.782 C19.906,85.775 20.823,87.755 22.962,88.905 L69.050,113.491 C71.091,114.641 73.535,115.167 75.993,115.167 C78.437,115.167 80.881,114.641 82.922,113.491 L129.011,88.905 Z"/>
<path fill-rule="evenodd"  fill="rgb(98, 98, 98)"
 d="M129.011,85.170 C131.150,84.021 132.163,82.028 131.969,80.145 C132.177,78.152 131.150,76.268 129.011,75.119 L82.922,50.449 C80.881,49.300 78.437,48.774 75.993,48.774 C73.549,48.774 71.091,49.300 69.050,50.449 L22.962,75.023 C20.823,76.171 19.906,78.165 20.004,80.048 C19.906,82.041 20.823,84.021 22.962,85.170 L69.050,109.757 C71.091,110.906 73.535,111.432 75.993,111.432 C78.437,111.432 80.881,110.906 82.922,109.757 L129.011,85.170 Z"/>
<path fill-rule="evenodd"  fill="rgb(127, 127, 127)"
 d="M129.011,83.904 C131.150,82.755 132.163,80.762 131.969,78.879 C132.177,76.886 131.150,75.002 129.011,73.853 L82.922,49.183 C80.881,48.034 78.437,47.508 75.993,47.508 C73.549,47.508 71.091,48.034 69.050,49.183 L22.962,73.757 C20.823,74.906 19.906,76.899 20.004,78.782 C19.906,80.775 20.823,82.755 22.962,83.904 L69.050,108.491 C71.091,109.641 73.535,110.166 75.993,110.166 C78.437,110.166 80.881,109.641 82.922,108.491 L129.011,83.904 Z"/>
<path fill-rule="evenodd"  fill="rgb(98, 98, 98)"
 d="M129.011,80.170 C131.150,79.021 132.163,77.028 131.969,75.145 C132.177,73.152 131.150,71.268 129.011,70.119 L82.922,45.449 C80.881,44.300 78.437,43.774 75.993,43.774 C73.549,43.774 71.091,44.300 69.050,45.449 L22.962,70.023 C20.823,71.172 19.906,73.165 20.004,75.048 C19.906,77.041 20.823,79.021 22.962,80.170 L69.050,104.757 C71.091,105.906 73.535,106.432 75.993,106.432 C78.437,106.432 80.881,105.906 82.922,104.757 L129.011,80.170 Z"/>
<path fill-rule="evenodd"  fill="rgb(127, 127, 127)"
 d="M129.011,78.905 C131.150,77.755 132.163,75.762 131.969,73.879 C132.177,71.886 131.150,70.003 129.011,68.853 L82.922,44.183 C80.881,43.034 78.437,42.508 75.993,42.508 C73.549,42.508 71.091,43.034 69.050,44.183 L22.962,68.757 C20.823,69.906 19.906,71.899 20.004,73.782 C19.906,75.775 20.823,77.755 22.962,78.905 L69.050,103.491 C71.091,104.640 73.535,105.166 75.993,105.166 C78.437,105.166 80.881,104.640 82.922,103.491 L129.011,78.905 Z"/>
<path fill-rule="evenodd"  fill="rgb(98, 98, 98)"
 d="M129.011,75.170 C131.150,74.021 132.163,72.028 131.969,70.145 C132.177,68.152 131.150,66.268 129.011,65.119 L82.922,40.449 C80.881,39.300 78.437,38.774 75.993,38.774 C73.549,38.774 71.091,39.300 69.050,40.449 L22.962,65.023 C20.823,66.172 19.906,68.165 20.004,70.048 C19.906,72.041 20.823,74.021 22.962,75.170 L69.050,99.757 C71.091,100.906 73.535,101.432 75.993,101.432 C78.437,101.432 80.881,100.906 82.922,99.757 L129.011,75.170 Z"/>
<path fill-rule="evenodd"  fill="rgb(127, 127, 127)"
 d="M129.011,73.904 C131.150,72.755 132.163,70.762 131.969,68.879 C132.177,66.886 131.150,65.003 129.011,63.853 L82.922,39.183 C80.881,38.034 78.437,37.508 75.993,37.508 C73.549,37.508 71.091,38.034 69.050,39.183 L22.962,63.757 C20.823,64.906 19.906,66.899 20.004,68.782 C19.906,70.775 20.823,72.755 22.962,73.904 L69.050,98.491 C71.091,99.640 73.535,100.167 75.993,100.167 C78.437,100.167 80.881,99.640 82.922,98.491 L129.011,73.904 Z"/>
<path fill-rule="evenodd"  fill="rgb(98, 98, 98)"
 d="M129.011,70.170 C131.150,69.021 132.163,67.028 131.969,65.145 C132.177,63.152 131.150,61.268 129.011,60.119 L82.922,35.449 C80.881,34.300 78.437,33.774 75.993,33.774 C73.549,33.774 71.091,34.300 69.050,35.449 L22.962,60.022 C20.823,61.172 19.906,63.165 20.004,65.047 C19.906,67.041 20.823,69.021 22.962,70.170 L69.050,94.757 C71.091,95.906 73.535,96.432 75.993,96.432 C78.437,96.432 80.881,95.906 82.922,94.757 L129.011,70.170 Z"/>
<path fill-rule="evenodd"  fill="rgb(127, 127, 127)"
 d="M129.011,68.904 C131.150,67.756 132.163,65.762 131.969,63.879 C132.177,61.886 131.150,60.003 129.011,58.853 L82.922,34.184 C80.881,33.034 78.437,32.508 75.993,32.508 C73.549,32.508 71.091,33.034 69.050,34.184 L22.962,58.757 C20.823,59.906 19.906,61.899 20.004,63.782 C19.906,65.775 20.823,67.756 22.962,68.904 L69.050,93.491 C71.091,94.641 73.535,95.166 75.993,95.166 C78.437,95.166 80.881,94.641 82.922,93.491 L129.011,68.904 Z"/>
<path fill-rule="evenodd"  fill="rgb(98, 98, 98)"
 d="M129.011,65.170 C131.150,64.021 132.163,62.028 131.969,60.145 C132.177,58.152 131.150,56.268 129.011,55.119 L82.922,30.449 C80.881,29.300 78.437,28.774 75.993,28.774 C73.549,28.774 71.091,29.300 69.050,30.449 L22.962,55.022 C20.823,56.172 19.906,58.165 20.004,60.048 C19.906,62.041 20.823,64.021 22.962,65.170 L69.050,89.757 C71.091,90.906 73.535,91.432 75.993,91.432 C78.437,91.432 80.881,90.906 82.922,89.757 L129.011,65.170 Z"/>
<path fill-rule="evenodd"  fill="rgb(127, 127, 127)"
 d="M129.011,63.905 C131.150,62.755 132.163,60.762 131.969,58.879 C132.177,56.886 131.150,55.003 129.011,53.853 L82.922,29.183 C80.881,28.034 78.437,27.508 75.993,27.508 C73.549,27.508 71.091,28.034 69.050,29.183 L22.962,53.757 C20.823,54.906 19.906,56.899 20.004,58.782 C19.906,60.775 20.823,62.755 22.962,63.905 L69.050,88.491 C71.091,89.641 73.535,90.166 75.993,90.166 C78.437,90.166 80.881,89.641 82.922,88.491 L129.011,63.905 Z"/>
<path fill-rule="evenodd"  fill="rgb(98, 98, 98)"
 d="M129.011,60.170 C131.150,59.021 132.163,57.028 131.969,55.145 C132.177,53.151 131.150,51.268 129.011,50.119 L82.922,25.449 C80.881,24.300 78.437,23.774 75.993,23.774 C73.549,23.774 71.091,24.300 69.050,25.449 L22.962,50.023 C20.823,51.171 19.906,53.165 20.004,55.048 C19.906,57.041 20.823,59.021 22.962,60.170 L69.050,84.757 C71.091,85.906 73.535,86.432 75.993,86.432 C78.437,86.432 80.881,85.906 82.922,84.757 L129.011,60.170 Z"/>
<path fill-rule="evenodd"  fill="rgb(127, 127, 127)"
 d="M129.011,58.904 C131.150,57.755 132.163,55.762 131.969,53.879 C132.177,51.886 131.150,50.002 129.011,48.853 L82.922,24.183 C80.881,23.034 78.437,22.508 75.993,22.508 C73.549,22.508 71.091,23.034 69.050,24.183 L22.962,48.757 C20.823,49.906 19.906,51.899 20.004,53.782 C19.906,55.775 20.823,57.755 22.962,58.904 L69.050,83.491 C71.091,84.641 73.535,85.167 75.993,85.167 C78.437,85.167 80.881,84.641 82.922,83.491 L129.011,58.904 Z"/>
<path fill-rule="evenodd"  fill="rgb(98, 98, 98)"
 d="M129.011,55.170 C131.150,54.021 132.163,52.028 131.969,50.145 C132.177,48.152 131.150,46.268 129.011,45.119 L82.922,20.449 C80.881,19.300 78.437,18.774 75.993,18.774 C73.549,18.774 71.091,19.300 69.050,20.449 L22.962,45.023 C20.823,46.171 19.906,48.165 20.004,50.048 C19.906,52.041 20.823,54.021 22.962,55.170 L69.050,79.757 C71.091,80.906 73.535,81.432 75.993,81.432 C78.437,81.432 80.881,80.906 82.922,79.757 L129.011,55.170 Z"/>
<path fill-rule="evenodd"  fill="rgb(127, 127, 127)"
 d="M129.011,53.905 C131.150,52.755 132.163,50.762 131.969,48.879 C132.177,46.886 131.150,45.003 129.011,43.853 L82.922,19.183 C80.881,18.034 78.437,17.508 75.993,17.508 C73.549,17.508 71.091,18.034 69.050,19.183 L22.962,43.757 C20.823,44.906 19.906,46.899 20.004,48.782 C19.906,50.776 20.823,52.755 22.962,53.905 L69.050,78.491 C71.091,79.640 73.535,80.166 75.993,80.166 C78.437,80.166 80.881,79.640 82.922,78.491 L129.011,53.905 Z"/>
<path fill-rule="evenodd"  fill="rgb(98, 98, 98)"
 d="M129.011,50.170 C131.150,49.021 132.163,47.028 131.969,45.145 C132.177,43.152 131.150,41.268 129.011,40.119 L82.922,15.449 C80.881,14.300 78.437,13.774 75.993,13.774 C73.549,13.774 71.091,14.300 69.050,15.449 L22.962,40.023 C20.823,41.172 19.906,43.165 20.004,45.048 C19.906,47.041 20.823,49.021 22.962,50.170 L69.050,74.757 C71.091,75.906 73.535,76.432 75.993,76.432 C78.437,76.432 80.881,75.906 82.922,74.757 L129.011,50.170 Z"/>
<path fill-rule="evenodd"  fill="rgb(127, 127, 127)"
 d="M129.011,48.904 C131.150,47.755 132.163,45.762 131.969,43.879 C132.177,41.886 131.150,40.003 129.011,38.853 L82.922,14.183 C80.881,13.034 78.437,12.508 75.993,12.508 C73.549,12.508 71.091,13.034 69.050,14.183 L22.962,38.757 C20.823,39.906 19.906,41.899 20.004,43.782 C19.906,45.775 20.823,47.755 22.962,48.904 L69.050,73.491 C71.091,74.640 73.535,75.167 75.993,75.167 C78.437,75.167 80.881,74.640 82.922,73.491 L129.011,48.904 Z"/>
<path fill-rule="evenodd"  fill="rgb(98, 98, 98)"
 d="M129.011,45.170 C131.150,44.021 132.163,42.027 131.969,40.145 C132.177,38.152 131.150,36.268 129.011,35.119 L82.922,10.449 C80.881,9.300 78.437,8.774 75.993,8.774 C73.549,8.774 71.091,9.300 69.050,10.449 L22.962,35.022 C20.823,36.172 19.906,38.165 20.004,40.048 C19.906,42.041 20.823,44.021 22.962,45.170 L69.050,69.757 C71.091,70.906 73.535,71.432 75.993,71.432 C78.437,71.432 80.881,70.906 82.922,69.757 L129.011,45.170 Z"/>
<path fill-rule="evenodd"  fill="rgb(127, 127, 127)"
 d="M129.011,43.905 C131.150,42.756 132.163,40.762 131.969,38.879 C132.177,36.886 131.150,35.003 129.011,33.853 L82.922,9.184 C80.881,8.034 78.437,7.508 75.993,7.508 C73.549,7.508 71.091,8.034 69.050,9.184 L22.962,33.757 C20.823,34.906 19.906,36.899 20.004,38.782 C19.906,40.775 20.823,42.756 22.962,43.905 L69.050,68.491 C71.091,69.640 73.535,70.166 75.993,70.166 C78.437,70.166 80.881,69.640 82.922,68.491 L129.011,43.905 Z"/>
<path fill-rule="evenodd"  fill="rgb(108, 108, 108)"
 d="M129.011,40.170 C131.150,39.021 132.163,37.027 131.969,35.145 C132.177,33.152 131.150,31.268 129.011,30.119 L82.922,5.449 C80.881,4.300 78.437,3.774 75.993,3.774 C73.549,3.774 71.091,4.300 69.050,5.449 L22.962,30.022 C20.823,31.172 19.906,33.165 20.004,35.048 C19.906,37.041 20.823,39.021 22.962,40.170 L69.050,64.757 C71.091,65.906 73.535,66.432 75.993,66.432 C78.437,66.432 80.881,65.906 82.922,64.757 L129.011,40.170 Z"/>
<path fill-rule="evenodd"  fill="rgb(127, 127, 127)"
 d="M129.011,38.904 C131.150,37.755 132.163,35.762 131.969,33.879 C132.177,31.886 131.150,30.003 129.011,28.853 L82.922,4.183 C80.881,3.034 78.437,2.508 75.993,2.508 C73.549,2.508 71.091,3.034 69.050,4.183 L22.962,28.757 C20.823,29.906 19.906,31.899 20.004,33.782 C19.906,35.775 20.823,37.755 22.962,38.904 L69.050,63.491 C71.091,64.640 73.535,65.166 75.993,65.166 C78.437,65.166 80.881,64.640 82.922,63.491 L129.011,38.904 Z"/>
<path fill-rule="evenodd"  stroke="rgb(109, 109, 109)" stroke-width="1px" stroke-linecap="butt" stroke-linejoin="miter" fill="none"
 d="M117.685,37.801 C119.366,36.884 120.163,35.293 120.011,33.791 C120.174,32.200 119.366,30.697 117.685,29.780 L81.458,10.093 C79.854,9.176 77.933,8.756 76.012,8.756 C74.091,8.756 72.159,9.176 70.554,10.093 L34.327,29.703 C32.646,30.620 31.926,32.210 32.002,33.713 C31.926,35.303 32.646,36.884 34.327,37.801 L70.554,57.421 C72.159,58.338 74.080,58.758 76.012,58.758 C77.933,58.758 79.854,58.338 81.458,57.421 L117.685,37.801 Z"/>
<path fill-rule="evenodd"  stroke="rgb(28, 227, 107)" stroke-width="1px" stroke-linecap="butt" stroke-linejoin="miter" fill="none"
 d="M78.457,14.000 L76.852,13.290 L73.107,14.946 L80.597,14.946 L81.934,15.892 L70.433,15.892 L68.025,17.075 L85.144,17.075 L87.284,18.494 L65.619,18.494 L63.745,19.676 L90.226,19.676 L92.901,21.095 L60.536,21.095 L58.128,22.514 L96.110,22.514 L98.250,23.934 L55.186,23.934 L53.314,25.116 L101.727,25.352 L103.867,26.535 L49.569,26.772 L47.429,27.954 L107.345,28.191 L109.217,29.374 L44.487,29.610 L42.347,31.029 L112.101,31.029 L114.240,32.448 L38.602,32.448 L37.634,33.631 L115.519,34.104 L114.775,35.523 L39.137,35.523 L41.010,36.706 L110.822,37.179 L108.682,38.598 L45.290,38.598 L47.162,39.780 L106.007,39.780 L104.402,41.199 L50.639,41.199 L52.244,42.382 L100.123,42.618 L98.250,44.038 L55.989,44.038 L57.861,45.220 L94.773,45.220 L92.901,46.639 L61.338,46.875 L63.210,48.059 L88.621,48.295 L86.749,49.714 L67.758,49.714 L69.630,51.133 L83.272,50.897 L81.667,52.316 L73.642,52.552 L76.852,54.208 L78.724,53.498 "/>
<path fill-rule="evenodd"  opacity="0.302" fill="rgb(0, 0, 0)"
 d="M75.993,135.166 C78.437,135.166 80.881,134.640 82.922,133.491 L129.011,108.904 C131.150,107.755 132.163,105.762 131.969,103.879 C132.177,101.886 132.252,31.895 131.969,33.879 C132.163,36.838 131.137,38.600 128.999,39.749 L87.998,61.749 C85.957,62.898 78.022,66.038 76.998,65.749 C76.989,65.746 77.969,67.436 77.938,68.678 C77.924,69.283 76.907,70.018 76.889,70.868 C76.874,71.531 77.858,72.263 77.842,73.056 C77.827,73.789 76.811,74.575 76.794,75.408 C76.778,76.171 77.762,76.973 77.745,77.811 C77.729,78.624 76.712,79.471 76.695,80.347 C76.677,81.286 77.658,82.259 77.638,83.259 C77.623,84.052 76.607,84.861 76.591,85.685 C76.574,86.563 77.557,87.457 77.540,88.365 C77.529,88.938 76.518,89.517 76.507,90.101 C76.490,91.020 77.472,91.951 77.454,92.890 C77.438,93.740 76.422,94.596 76.406,95.457 C76.389,96.338 77.373,97.224 77.356,98.112 C77.339,99.006 76.323,99.901 76.306,100.796 C76.291,101.645 77.274,102.494 77.259,103.340 C77.244,104.086 76.231,104.830 76.217,105.571 C76.203,106.350 77.189,107.125 77.175,107.895 C77.158,108.782 76.142,109.662 76.126,110.532 C76.110,111.412 77.094,112.282 77.078,113.139 C77.063,113.935 76.049,114.719 76.035,115.489 C76.019,116.339 77.004,117.172 76.989,117.986 C76.974,118.799 75.960,119.594 75.946,120.365 C75.927,121.383 76.909,122.360 76.892,123.292 C76.879,124.030 75.866,124.739 75.854,125.417 C75.839,126.241 76.825,127.017 76.812,127.740 C76.798,128.494 75.785,129.188 75.775,129.818 C75.757,130.764 76.743,131.563 76.732,132.190 C76.713,133.217 75.703,133.783 75.703,133.783 C75.703,133.783 75.886,135.166 75.993,135.166 Z"/>
<path fill-rule="evenodd"  fill="rgb(127, 127, 127)"
 d="M251.011,108.499 C253.150,107.350 254.163,105.357 253.969,103.474 C254.177,101.481 253.150,99.598 251.011,98.448 L204.922,73.778 C202.881,72.629 200.438,72.103 197.994,72.103 C195.549,72.103 193.091,72.629 191.050,73.778 L144.962,98.352 C142.823,99.501 141.907,101.494 142.004,103.377 C141.907,105.370 142.823,107.350 144.962,108.499 L191.050,133.086 C193.091,134.235 195.536,134.761 197.994,134.761 C200.438,134.761 202.881,134.235 204.922,133.086 L251.011,108.499 Z"/>
<path fill-rule="evenodd"  fill="rgb(98, 98, 98)"
 d="M251.011,105.170 C253.150,104.021 254.163,102.028 253.969,100.145 C254.177,98.152 253.150,96.269 251.011,95.119 L204.922,70.449 C202.881,69.300 200.438,68.774 197.994,68.774 C195.549,68.774 193.091,69.300 191.050,70.449 L144.962,95.022 C142.823,96.172 141.907,98.165 142.004,100.048 C141.907,102.041 142.823,104.021 144.962,105.170 L191.050,129.757 C193.091,130.906 195.536,131.432 197.994,131.432 C200.438,131.432 202.881,130.906 204.922,129.757 L251.011,105.170 Z"/>
<path fill-rule="evenodd"  fill="rgb(127, 127, 127)"
 d="M251.011,103.904 C253.150,102.755 254.163,100.762 253.969,98.879 C254.177,96.886 253.150,95.003 251.011,93.853 L204.922,69.183 C202.881,68.034 200.438,67.508 197.994,67.508 C195.549,67.508 193.091,68.034 191.050,69.183 L144.962,93.756 C142.823,94.906 141.907,96.899 142.004,98.782 C141.907,100.775 142.823,102.755 144.962,103.904 L191.050,128.491 C193.091,129.640 195.536,130.166 197.994,130.166 C200.438,130.166 202.881,129.640 204.922,128.491 L251.011,103.904 Z"/>
<path fill-rule="evenodd"  fill="rgb(98, 98, 98)"
 d="M251.011,100.170 C253.150,99.021 254.163,97.028 253.969,95.145 C254.177,93.152 253.150,91.268 251.011,90.119 L204.922,65.449 C202.881,64.300 200.438,63.774 197.994,63.774 C195.549,63.774 193.091,64.300 191.050,65.449 L144.962,90.022 C142.823,91.172 141.907,93.165 142.004,95.048 C141.907,97.041 142.823,99.021 144.962,100.170 L191.050,124.757 C193.091,125.906 195.536,126.432 197.994,126.432 C200.438,126.432 202.881,125.906 204.922,124.757 L251.011,100.170 Z"/>
<path fill-rule="evenodd"  fill="rgb(127, 127, 127)"
 d="M251.011,98.904 C253.150,97.755 254.163,95.762 253.969,93.879 C254.177,91.886 253.150,90.003 251.011,88.853 L204.922,64.183 C202.881,63.034 200.438,62.508 197.994,62.508 C195.549,62.508 193.091,63.034 191.050,64.183 L144.962,88.756 C142.823,89.906 141.907,91.899 142.004,93.782 C141.907,95.775 142.823,97.755 144.962,98.904 L191.050,123.491 C193.091,124.641 195.536,125.166 197.994,125.166 C200.438,125.166 202.881,124.641 204.922,123.491 L251.011,98.904 Z"/>
<path fill-rule="evenodd"  fill="rgb(98, 98, 98)"
 d="M251.011,95.170 C253.150,94.021 254.163,92.028 253.969,90.145 C254.177,88.152 253.150,86.268 251.011,85.119 L204.922,60.449 C202.881,59.300 200.438,58.774 197.994,58.774 C195.549,58.774 193.091,59.300 191.050,60.449 L144.962,85.023 C142.823,86.172 141.907,88.165 142.004,90.048 C141.907,92.041 142.823,94.021 144.962,95.170 L191.050,119.757 C193.091,120.906 195.536,121.432 197.994,121.432 C200.438,121.432 202.881,120.906 204.922,119.757 L251.011,95.170 Z"/>
<path fill-rule="evenodd"  fill="rgb(127, 127, 127)"
 d="M251.011,93.904 C253.150,92.756 254.163,90.762 253.969,88.879 C254.177,86.885 253.150,85.002 251.011,83.853 L204.922,59.184 C202.881,58.034 200.438,57.508 197.994,57.508 C195.549,57.508 193.091,58.034 191.050,59.184 L144.962,83.757 C142.823,84.906 141.907,86.899 142.004,88.782 C141.907,90.775 142.823,92.756 144.962,93.904 L191.050,118.491 C193.091,119.641 195.536,120.166 197.994,120.166 C200.438,120.166 202.881,119.641 204.922,118.491 L251.011,93.904 Z"/>
<path fill-rule="evenodd"  fill="rgb(98, 98, 98)"
 d="M251.011,90.170 C253.150,89.021 254.163,87.028 253.969,85.145 C254.177,83.152 253.150,81.268 251.011,80.119 L204.922,55.449 C202.881,54.300 200.438,53.774 197.994,53.774 C195.549,53.774 193.091,54.300 191.050,55.449 L144.962,80.023 C142.823,81.172 141.907,83.165 142.004,85.048 C141.907,87.041 142.823,89.021 144.962,90.170 L191.050,114.757 C193.091,115.906 195.536,116.432 197.994,116.432 C200.438,116.432 202.881,115.906 204.922,114.757 L251.011,90.170 Z"/>
<path fill-rule="evenodd"  fill="rgb(127, 127, 127)"
 d="M251.011,88.905 C253.150,87.755 254.163,85.762 253.969,83.879 C254.177,81.886 253.150,80.002 251.011,78.853 L204.922,54.183 C202.881,53.034 200.438,52.508 197.994,52.508 C195.549,52.508 193.091,53.034 191.050,54.183 L144.962,78.757 C142.823,79.906 141.907,81.899 142.004,83.782 C141.907,85.775 142.823,87.755 144.962,88.905 L191.050,113.491 C193.091,114.641 195.536,115.167 197.994,115.167 C200.438,115.167 202.881,114.641 204.922,113.491 L251.011,88.905 Z"/>
<path fill-rule="evenodd"  fill="rgb(98, 98, 98)"
 d="M251.011,85.170 C253.150,84.021 254.163,82.028 253.969,80.145 C254.177,78.152 253.150,76.268 251.011,75.119 L204.922,50.449 C202.881,49.300 200.438,48.774 197.994,48.774 C195.549,48.774 193.091,49.300 191.050,50.449 L144.962,75.023 C142.823,76.171 141.907,78.165 142.004,80.048 C141.907,82.041 142.823,84.021 144.962,85.170 L191.050,109.757 C193.091,110.906 195.536,111.432 197.994,111.432 C200.438,111.432 202.881,110.906 204.922,109.757 L251.011,85.170 Z"/>
<path fill-rule="evenodd"  fill="rgb(127, 127, 127)"
 d="M251.011,83.904 C253.150,82.755 254.163,80.762 253.969,78.879 C254.177,76.886 253.150,75.002 251.011,73.853 L204.922,49.183 C202.881,48.034 200.438,47.508 197.994,47.508 C195.549,47.508 193.091,48.034 191.050,49.183 L144.962,73.757 C142.823,74.906 141.907,76.899 142.004,78.782 C141.907,80.775 142.823,82.755 144.962,83.904 L191.050,108.491 C193.091,109.641 195.536,110.166 197.994,110.166 C200.438,110.166 202.881,109.641 204.922,108.491 L251.011,83.904 Z"/>
<path fill-rule="evenodd"  fill="rgb(98, 98, 98)"
 d="M251.011,80.170 C253.150,79.021 254.163,77.028 253.969,75.145 C254.177,73.152 253.150,71.268 251.011,70.119 L204.922,45.449 C202.881,44.300 200.438,43.774 197.994,43.774 C195.549,43.774 193.091,44.300 191.050,45.449 L144.962,70.023 C142.823,71.172 141.907,73.165 142.004,75.048 C141.907,77.041 142.823,79.021 144.962,80.170 L191.050,104.757 C193.091,105.906 195.536,106.432 197.994,106.432 C200.438,106.432 202.881,105.906 204.922,104.757 L251.011,80.170 Z"/>
<path fill-rule="evenodd"  fill="rgb(127, 127, 127)"
 d="M251.011,78.905 C253.150,77.755 254.163,75.762 253.969,73.879 C254.177,71.886 253.150,70.003 251.011,68.853 L204.922,44.183 C202.881,43.034 200.438,42.508 197.994,42.508 C195.549,42.508 193.091,43.034 191.050,44.183 L144.962,68.757 C142.823,69.906 141.907,71.899 142.004,73.782 C141.907,75.775 142.823,77.755 144.962,78.905 L191.050,103.491 C193.091,104.640 195.536,105.166 197.994,105.166 C200.438,105.166 202.881,104.640 204.922,103.491 L251.011,78.905 Z"/>
<path fill-rule="evenodd"  fill="rgb(98, 98, 98)"
 d="M251.011,75.170 C253.150,74.021 254.163,72.028 253.969,70.145 C254.177,68.152 253.150,66.268 251.011,65.119 L204.922,40.449 C202.881,39.300 200.438,38.774 197.994,38.774 C195.549,38.774 193.091,39.300 191.050,40.449 L144.962,65.023 C142.823,66.172 141.907,68.165 142.004,70.048 C141.907,72.041 142.823,74.021 144.962,75.170 L191.050,99.757 C193.091,100.906 195.536,101.432 197.994,101.432 C200.438,101.432 202.881,100.906 204.922,99.757 L251.011,75.170 Z"/>
<path fill-rule="evenodd"  fill="rgb(127, 127, 127)"
 d="M251.011,73.904 C253.150,72.755 254.163,70.762 253.969,68.879 C254.177,66.886 253.150,65.003 251.011,63.853 L204.922,39.183 C202.881,38.034 200.438,37.508 197.994,37.508 C195.549,37.508 193.091,38.034 191.050,39.183 L144.962,63.757 C142.823,64.906 141.907,66.899 142.004,68.782 C141.907,70.775 142.823,72.755 144.962,73.904 L191.050,98.491 C193.091,99.640 195.536,100.167 197.994,100.167 C200.438,100.167 202.881,99.640 204.922,98.491 L251.011,73.904 Z"/>
<path fill-rule="evenodd"  fill="rgb(98, 98, 98)"
 d="M251.011,70.170 C253.150,69.021 254.163,67.028 253.969,65.145 C254.177,63.152 253.150,61.268 251.011,60.119 L204.922,35.449 C202.881,34.300 200.438,33.774 197.994,33.774 C195.549,33.774 193.091,34.300 191.050,35.449 L144.962,60.022 C142.823,61.172 141.907,63.165 142.004,65.047 C141.907,67.041 142.823,69.021 144.962,70.170 L191.050,94.757 C193.091,95.906 195.536,96.432 197.994,96.432 C200.438,96.432 202.881,95.906 204.922,94.757 L251.011,70.170 Z"/>
<path fill-rule="evenodd"  fill="rgb(127, 127, 127)"
 d="M251.011,68.904 C253.150,67.756 254.163,65.762 253.969,63.879 C254.177,61.886 253.150,60.003 251.011,58.853 L204.922,34.184 C202.881,33.034 200.438,32.508 197.994,32.508 C195.549,32.508 193.091,33.034 191.050,34.184 L144.962,58.757 C142.823,59.906 141.907,61.899 142.004,63.782 C141.907,65.775 142.823,67.756 144.962,68.904 L191.050,93.491 C193.091,94.641 195.536,95.166 197.994,95.166 C200.438,95.166 202.881,94.641 204.922,93.491 L251.011,68.904 Z"/>
<path fill-rule="evenodd"  fill="rgb(98, 98, 98)"
 d="M251.011,65.170 C253.150,64.021 254.163,62.028 253.969,60.145 C254.177,58.152 253.150,56.268 251.011,55.119 L204.922,30.449 C202.881,29.300 200.438,28.774 197.994,28.774 C195.549,28.774 193.091,29.300 191.050,30.449 L144.962,55.022 C142.823,56.172 141.907,58.165 142.004,60.048 C141.907,62.041 142.823,64.021 144.962,65.170 L191.050,89.757 C193.091,90.906 195.536,91.432 197.994,91.432 C200.438,91.432 202.881,90.906 204.922,89.757 L251.011,65.170 Z"/>
<path fill-rule="evenodd"  fill="rgb(127, 127, 127)"
 d="M251.011,63.905 C253.150,62.755 254.163,60.762 253.969,58.879 C254.177,56.886 253.150,55.003 251.011,53.853 L204.922,29.183 C202.881,28.034 200.438,27.508 197.994,27.508 C195.549,27.508 193.091,28.034 191.050,29.183 L144.962,53.757 C142.823,54.906 141.907,56.899 142.004,58.782 C141.907,60.775 142.823,62.755 144.962,63.905 L191.050,88.491 C193.091,89.641 195.536,90.166 197.994,90.166 C200.438,90.166 202.881,89.641 204.922,88.491 L251.011,63.905 Z"/>
<path fill-rule="evenodd"  fill="rgb(98, 98, 98)"
 d="M251.011,60.170 C253.150,59.021 254.163,57.028 253.969,55.145 C254.177,53.151 253.150,51.268 251.011,50.119 L204.922,25.449 C202.881,24.300 200.438,23.774 197.994,23.774 C195.549,23.774 193.091,24.300 191.050,25.449 L144.962,50.023 C142.823,51.171 141.907,53.165 142.004,55.048 C141.907,57.041 142.823,59.021 144.962,60.170 L191.050,84.757 C193.091,85.906 195.536,86.432 197.994,86.432 C200.438,86.432 202.881,85.906 204.922,84.757 L251.011,60.170 Z"/>
<path fill-rule="evenodd"  fill="rgb(127, 127, 127)"
 d="M251.011,58.904 C253.150,57.755 254.163,55.762 253.969,53.879 C254.177,51.886 253.150,50.002 251.011,48.853 L204.922,24.183 C202.881,23.034 200.438,22.508 197.994,22.508 C195.549,22.508 193.091,23.034 191.050,24.183 L144.962,48.757 C142.823,49.906 141.907,51.899 142.004,53.782 C141.907,55.775 142.823,57.755 144.962,58.904 L191.050,83.491 C193.091,84.641 195.536,85.167 197.994,85.167 C200.438,85.167 202.881,84.641 204.922,83.491 L251.011,58.904 Z"/>
<path fill-rule="evenodd"  fill="rgb(98, 98, 98)"
 d="M251.011,55.170 C253.150,54.021 254.163,52.028 253.969,50.145 C254.177,48.152 253.150,46.268 251.011,45.119 L204.922,20.449 C202.881,19.300 200.438,18.774 197.994,18.774 C195.549,18.774 193.091,19.300 191.050,20.449 L144.962,45.023 C142.823,46.171 141.907,48.165 142.004,50.048 C141.907,52.041 142.823,54.021 144.962,55.170 L191.050,79.757 C193.091,80.906 195.536,81.432 197.994,81.432 C200.438,81.432 202.881,80.906 204.922,79.757 L251.011,55.170 Z"/>
<path fill-rule="evenodd"  fill="rgb(127, 127, 127)"
 d="M251.011,53.905 C253.150,52.755 254.163,50.762 253.969,48.879 C254.177,46.886 253.150,45.003 251.011,43.853 L204.922,19.183 C202.881,18.034 200.438,17.508 197.994,17.508 C195.549,17.508 193.091,18.034 191.050,19.183 L144.962,43.757 C142.823,44.906 141.907,46.899 142.004,48.782 C141.907,50.776 142.823,52.755 144.962,53.905 L191.050,78.491 C193.091,79.640 195.536,80.166 197.994,80.166 C200.438,80.166 202.881,79.640 204.922,78.491 L251.011,53.905 Z"/>
<path fill-rule="evenodd"  fill="rgb(98, 98, 98)"
 d="M251.011,50.170 C253.150,49.021 254.163,47.028 253.969,45.145 C254.177,43.152 253.150,41.268 251.011,40.119 L204.922,15.449 C202.881,14.300 200.438,13.774 197.994,13.774 C195.549,13.774 193.091,14.300 191.050,15.449 L144.962,40.023 C142.823,41.172 141.907,43.165 142.004,45.048 C141.907,47.041 142.823,49.021 144.962,50.170 L191.050,74.757 C193.091,75.906 195.536,76.432 197.994,76.432 C200.438,76.432 202.881,75.906 204.922,74.757 L251.011,50.170 Z"/>
<path fill-rule="evenodd"  fill="rgb(127, 127, 127)"
 d="M251.011,48.904 C253.150,47.755 254.163,45.762 253.969,43.879 C254.177,41.886 253.150,40.003 251.011,38.853 L204.922,14.183 C202.881,13.034 200.438,12.508 197.994,12.508 C195.549,12.508 193.091,13.034 191.050,14.183 L144.962,38.757 C142.823,39.906 141.907,41.899 142.004,43.782 C141.907,45.775 142.823,47.755 144.962,48.904 L191.050,73.491 C193.091,74.640 195.536,75.167 197.994,75.167 C200.438,75.167 202.881,74.640 204.922,73.491 L251.011,48.904 Z"/>
<path fill-rule="evenodd"  fill="rgb(98, 98, 98)"
 d="M251.011,45.170 C253.150,44.021 254.163,42.027 253.969,40.145 C254.177,38.152 253.150,36.268 251.011,35.119 L204.922,10.449 C202.881,9.300 200.438,8.774 197.994,8.774 C195.549,8.774 193.091,9.300 191.050,10.449 L144.962,35.022 C142.823,36.172 141.907,38.165 142.004,40.048 C141.907,42.041 142.823,44.021 144.962,45.170 L191.050,69.757 C193.091,70.906 195.536,71.432 197.994,71.432 C200.438,71.432 202.881,70.906 204.922,69.757 L251.011,45.170 Z"/>
<path fill-rule="evenodd"  fill="rgb(127, 127, 127)"
 d="M251.011,43.905 C253.150,42.756 254.163,40.762 253.969,38.879 C254.177,36.886 253.150,35.003 251.011,33.853 L204.922,9.184 C202.881,8.034 200.438,7.508 197.994,7.508 C195.549,7.508 193.091,8.034 191.050,9.184 L144.962,33.757 C142.823,34.906 141.907,36.899 142.004,38.782 C141.907,40.775 142.823,42.756 144.962,43.905 L191.050,68.491 C193.091,69.640 195.536,70.166 197.994,70.166 C200.438,70.166 202.881,69.640 204.922,68.491 L251.011,43.905 Z"/>
<path fill-rule="evenodd"  fill="rgb(108, 108, 108)"
 d="M251.011,40.170 C253.150,39.021 254.163,37.027 253.969,35.145 C254.177,33.152 253.150,31.268 251.011,30.119 L204.922,5.449 C202.881,4.300 200.438,3.774 197.994,3.774 C195.549,3.774 193.091,4.300 191.050,5.449 L144.962,30.022 C142.823,31.172 141.907,33.165 142.004,35.048 C141.907,37.041 142.823,39.021 144.962,40.170 L191.050,64.757 C193.091,65.906 195.536,66.432 197.994,66.432 C200.438,66.432 202.881,65.906 204.922,64.757 L251.011,40.170 Z"/>
<path fill-rule="evenodd"  fill="rgb(127, 127, 127)"
 d="M251.011,38.904 C253.150,37.755 254.163,35.762 253.969,33.879 C254.177,31.886 253.150,30.003 251.011,28.853 L204.922,4.183 C202.881,3.034 200.438,2.508 197.994,2.508 C195.549,2.508 193.091,3.034 191.050,4.183 L144.962,28.757 C142.823,29.906 141.907,31.899 142.004,33.782 C141.907,35.775 142.823,37.755 144.962,38.904 L191.050,63.491 C193.091,64.640 195.536,65.166 197.994,65.166 C200.438,65.166 202.881,64.640 204.922,63.491 L251.011,38.904 Z"/>
<path fill-rule="evenodd"  stroke="rgb(109, 109, 109)" stroke-width="1px" stroke-linecap="butt" stroke-linejoin="miter" fill="none"
 d="M239.686,37.801 C241.367,36.884 242.163,35.293 242.011,33.791 C242.174,32.200 241.367,30.697 239.686,29.780 L203.458,10.093 C201.855,9.176 199.933,8.756 198.012,8.756 C196.091,8.756 194.159,9.176 192.555,10.093 L156.327,29.703 C154.647,30.620 153.926,32.210 154.002,33.713 C153.926,35.303 154.647,36.884 156.327,37.801 L192.555,57.421 C194.159,58.338 196.080,58.758 198.012,58.758 C199.933,58.758 201.855,58.338 203.458,57.421 L239.686,37.801 Z"/>
<path fill-rule="evenodd"  stroke="rgb(28, 227, 107)" stroke-width="1px" stroke-linecap="butt" stroke-linejoin="miter" fill="none"
 d="M235.533,34.945 L231.890,34.404 L230.906,32.401 L233.377,31.042 L238.003,33.586 L235.533,34.945 ZM226.878,31.648 L225.895,29.644 L228.365,28.285 L232.991,30.830 L230.521,32.189 L226.878,31.648 ZM221.866,28.892 L220.883,26.888 L223.353,25.529 L227.980,28.074 L225.509,29.432 L221.866,28.892 ZM216.854,26.135 L215.872,24.132 L218.342,22.773 L222.968,25.317 L220.498,26.676 L216.854,26.135 ZM211.843,23.379 L210.860,21.375 L213.330,20.017 L217.956,22.561 L215.486,23.920 L211.843,23.379 ZM206.831,20.622 L205.849,18.619 L208.318,17.260 L212.945,19.805 L210.474,21.163 L206.831,20.622 ZM201.820,17.866 L200.837,15.862 L203.307,14.504 L207.933,17.048 L205.463,18.406 L201.820,17.866 ZM196.808,15.110 L195.825,13.106 L198.295,11.747 L202.922,14.292 L200.451,15.650 L196.808,15.110 ZM193.765,16.571 L190.122,16.031 L195.252,13.209 L196.235,15.213 L193.765,16.571 ZM194.561,18.890 L192.091,20.248 L188.447,19.708 L187.465,17.704 L189.935,16.346 L193.578,16.887 L194.561,18.890 ZM185.405,21.170 L181.761,20.629 L186.892,17.807 L187.875,19.811 L185.405,21.170 ZM186.200,23.488 L183.730,24.847 L180.087,24.306 L179.104,22.303 L181.574,20.944 L185.217,21.485 L186.200,23.488 ZM177.044,25.768 L173.401,25.227 L178.531,22.406 L179.514,24.409 L177.044,25.768 ZM177.840,28.087 L175.369,29.445 L171.726,28.905 L170.743,26.901 L173.214,25.542 L176.857,26.083 L177.840,28.087 ZM168.684,30.366 L165.040,29.825 L170.171,27.004 L171.153,29.008 L168.684,30.366 ZM169.479,32.685 L167.009,34.044 L163.366,33.503 L162.383,31.499 L164.853,30.140 L168.496,30.681 L169.479,32.685 ZM160.323,34.965 L158.010,33.692 L161.810,31.602 L162.793,33.606 L160.323,34.965 ZM166.822,34.359 L167.804,36.362 L165.334,37.721 L160.708,35.177 L163.179,33.818 L166.822,34.359 ZM171.834,37.115 L172.816,39.119 L170.346,40.478 L165.720,37.933 L168.190,36.575 L171.834,37.115 ZM176.845,39.871 L177.828,41.875 L175.358,43.234 L170.732,40.689 L173.202,39.331 L176.845,39.871 ZM181.857,42.628 L182.839,44.631 L180.369,45.990 L175.743,43.446 L178.213,42.087 L181.857,42.628 ZM186.868,45.384 L187.851,47.388 L185.381,48.746 L180.755,46.202 L183.225,44.844 L186.868,45.384 ZM191.880,48.141 L192.863,50.144 L190.392,51.503 L185.766,48.958 L188.236,47.600 L191.880,48.141 ZM196.891,50.897 L197.874,52.901 L195.404,54.260 L190.778,51.715 L193.248,50.356 L196.891,50.897 ZM201.902,53.653 L198.102,55.744 L195.790,54.471 L198.259,53.113 L201.902,53.653 ZM197.464,50.794 L199.934,49.435 L203.577,49.976 L204.560,51.980 L202.090,53.338 L198.447,52.798 L197.464,50.794 ZM206.621,48.515 L210.264,49.055 L205.133,51.877 L204.150,49.873 L206.621,48.515 ZM205.825,46.196 L208.295,44.837 L211.938,45.378 L212.921,47.382 L210.450,48.740 L206.808,48.200 L205.825,46.196 ZM214.981,43.916 L218.624,44.457 L213.494,47.278 L212.511,45.275 L214.981,43.916 ZM214.185,41.597 L216.655,40.239 L220.298,40.779 L221.282,42.783 L218.811,44.142 L215.168,43.601 L214.185,41.597 ZM223.342,39.318 L226.985,39.858 L221.854,42.680 L220.871,40.676 L223.342,39.318 ZM222.546,36.999 L225.016,35.640 L228.659,36.181 L229.642,38.185 L227.172,39.543 L223.529,39.003 L222.546,36.999 ZM230.334,32.503 L231.317,34.507 L228.846,35.866 L225.203,35.325 L224.220,33.322 L226.690,31.963 L230.334,32.503 ZM225.322,29.747 L226.305,31.751 L223.835,33.110 L220.192,32.569 L219.208,30.565 L221.679,29.207 L225.322,29.747 ZM220.310,26.991 L221.293,28.995 L218.824,30.353 L215.180,29.813 L214.197,27.809 L216.667,26.450 L220.310,26.991 ZM215.299,24.235 L216.282,26.238 L213.812,27.597 L210.169,27.056 L209.185,25.052 L211.656,23.694 L215.299,24.235 ZM210.287,21.478 L211.270,23.482 L208.800,24.841 L205.157,24.300 L204.174,22.296 L206.644,20.937 L210.287,21.478 ZM205.276,18.722 L206.259,20.725 L203.788,22.084 L200.145,21.544 L199.162,19.540 L201.633,18.181 L205.276,18.722 ZM196.621,15.425 L200.264,15.965 L201.247,17.969 L198.777,19.328 L195.134,18.787 L194.151,16.784 L196.621,15.425 ZM198.590,19.643 L199.572,21.647 L197.102,23.005 L193.459,22.465 L192.476,20.460 L194.946,19.102 L198.590,19.643 ZM188.260,20.023 L191.903,20.563 L192.887,22.568 L190.416,23.926 L186.773,23.385 L185.790,21.382 L188.260,20.023 ZM190.229,24.241 L191.212,26.245 L188.742,27.603 L185.099,27.063 L184.115,25.059 L186.586,23.700 L190.229,24.241 ZM179.900,24.621 L183.543,25.162 L184.526,27.166 L182.055,28.525 L178.412,27.984 L177.430,25.980 L179.900,24.621 ZM181.868,28.839 L182.851,30.843 L180.381,32.202 L176.738,31.661 L175.755,29.657 L178.225,28.299 L181.868,28.839 ZM171.539,29.220 L175.182,29.760 L176.165,31.764 L173.695,33.123 L170.052,32.582 L169.069,30.578 L171.539,29.220 ZM168.377,36.259 L167.394,34.256 L169.864,32.897 L173.507,33.438 L174.491,35.441 L172.021,36.800 L168.377,36.259 ZM173.389,39.016 L172.406,37.012 L174.876,35.653 L178.519,36.194 L179.503,38.198 L177.032,39.556 L173.389,39.016 ZM178.401,41.772 L177.417,39.768 L179.888,38.410 L183.531,38.951 L184.514,40.954 L182.044,42.313 L178.401,41.772 ZM183.412,44.528 L182.429,42.525 L184.900,41.166 L188.543,41.707 L189.525,43.711 L187.055,45.069 L183.412,44.528 ZM188.424,47.285 L187.441,45.281 L189.911,43.923 L193.554,44.463 L194.537,46.467 L192.067,47.826 L188.424,47.285 ZM193.435,50.041 L192.452,48.038 L194.923,46.679 L198.566,47.220 L199.549,49.223 L197.079,50.582 L193.435,50.041 ZM203.764,49.661 L200.122,49.120 L199.139,47.117 L201.609,45.758 L205.252,46.299 L206.235,48.303 L203.764,49.661 ZM201.796,45.443 L200.813,43.439 L203.283,42.081 L206.927,42.621 L207.909,44.625 L205.439,45.984 L201.796,45.443 ZM212.126,45.063 L208.482,44.522 L207.499,42.518 L209.969,41.160 L213.612,41.700 L214.595,43.704 L212.126,45.063 ZM210.157,40.845 L209.174,38.841 L211.644,37.482 L215.287,38.023 L216.270,40.027 L213.800,41.385 L210.157,40.845 ZM220.486,40.464 L216.843,39.924 L215.860,37.920 L218.330,36.562 L221.973,37.102 L222.956,39.106 L220.486,40.464 ZM223.647,33.425 L224.631,35.428 L222.160,36.787 L218.517,36.246 L217.534,34.243 L220.004,32.884 L223.647,33.425 ZM218.636,30.668 L219.619,32.672 L217.149,34.031 L213.506,33.490 L212.523,31.486 L214.993,30.128 L218.636,30.668 ZM213.624,27.912 L214.608,29.916 L212.137,31.274 L208.494,30.734 L207.511,28.730 L209.981,27.371 L213.624,27.912 ZM208.613,25.155 L209.596,27.159 L207.126,28.518 L203.482,27.977 L202.499,25.974 L204.969,24.615 L208.613,25.155 ZM203.601,22.399 L204.584,24.403 L202.114,25.761 L198.471,25.221 L197.488,23.217 L199.958,21.859 L203.601,22.399 ZM193.272,22.780 L196.915,23.320 L197.898,25.324 L195.428,26.682 L191.785,26.142 L190.802,24.138 L193.272,22.780 ZM195.241,26.998 L196.223,29.001 L193.753,30.360 L190.110,29.819 L189.127,27.815 L191.598,26.457 L195.241,26.998 ZM184.911,27.378 L188.554,27.918 L189.537,29.922 L187.067,31.281 L183.424,30.740 L182.441,28.736 L184.911,27.378 ZM186.880,31.596 L187.863,33.600 L185.393,34.958 L181.750,34.418 L180.766,32.414 L183.237,31.055 L186.880,31.596 ZM175.063,35.338 L174.080,33.335 L176.550,31.976 L180.194,32.517 L181.177,34.521 L178.707,35.879 L175.063,35.338 ZM180.075,38.095 L179.092,36.091 L181.562,34.733 L185.205,35.273 L186.189,37.277 L183.718,38.636 L180.075,38.095 ZM185.087,40.851 L184.104,38.848 L186.573,37.489 L190.217,38.030 L191.200,40.033 L188.730,41.392 L185.087,40.851 ZM190.098,43.608 L189.115,41.604 L191.585,40.245 L195.229,40.786 L196.212,42.790 L193.741,44.148 L190.098,43.608 ZM198.753,46.905 L195.110,46.364 L194.127,44.360 L196.597,43.002 L200.240,43.542 L201.223,45.546 L198.753,46.905 ZM196.784,42.687 L195.802,40.683 L198.272,39.324 L201.915,39.865 L202.898,41.869 L200.428,43.227 L196.784,42.687 ZM207.114,42.306 L203.470,41.766 L202.487,39.762 L204.958,38.403 L208.601,38.944 L209.584,40.948 L207.114,42.306 ZM205.145,38.088 L204.162,36.085 L206.632,34.726 L210.276,35.267 L211.258,37.270 L208.788,38.629 L205.145,38.088 ZM216.962,34.346 L217.944,36.349 L215.474,37.708 L211.831,37.167 L210.848,35.164 L213.319,33.805 L216.962,34.346 ZM211.950,31.589 L212.933,33.593 L210.463,34.951 L206.820,34.411 L205.837,32.407 L208.307,31.049 L211.950,31.589 ZM206.938,28.833 L207.921,30.837 L205.451,32.195 L201.808,31.655 L200.825,29.651 L203.295,28.292 L206.938,28.833 ZM198.283,25.536 L201.927,26.077 L202.910,28.080 L200.439,29.439 L196.797,28.898 L195.813,26.895 L198.283,25.536 ZM200.253,29.754 L201.235,31.758 L198.765,33.116 L195.121,32.575 L194.139,30.572 L196.609,29.213 L200.253,29.754 ZM189.923,30.134 L193.566,30.675 L194.549,32.678 L192.078,34.037 L188.436,33.497 L187.453,31.493 L189.923,30.134 ZM186.761,37.174 L185.778,35.170 L188.248,33.812 L191.891,34.352 L192.874,36.356 L190.404,37.715 L186.761,37.174 ZM191.773,39.930 L190.790,37.927 L193.260,36.568 L196.903,37.108 L197.886,39.112 L195.416,40.471 L191.773,39.930 ZM202.102,39.550 L198.459,39.009 L197.476,37.005 L199.946,35.647 L203.589,36.188 L204.572,38.191 L202.102,39.550 ZM193.447,36.253 L192.464,34.249 L194.935,32.890 L198.577,33.431 L199.560,35.435 L197.090,36.794 L193.447,36.253 ZM205.264,32.510 L206.246,34.514 L203.776,35.873 L200.133,35.332 L199.151,33.328 L201.621,31.970 L205.264,32.510 ZM231.702,34.720 L235.345,35.260 L230.215,38.082 L229.232,36.078 L231.702,34.720 Z"/>
<path fill-rule="evenodd"  opacity="0.302" fill="rgb(0, 0, 0)"
 d="M197.994,135.166 C200.438,135.166 202.881,134.640 204.922,133.491 L251.011,108.904 C253.150,107.755 254.163,105.762 253.969,103.879 C254.177,101.886 254.252,31.895 253.969,33.879 C254.163,36.838 253.137,38.600 250.999,39.749 L209.999,61.749 C207.958,62.898 200.022,66.038 198.999,65.749 C198.990,65.746 199.969,67.436 199.939,68.678 C199.924,69.283 198.907,70.018 198.889,70.868 C198.875,71.531 199.859,72.263 199.842,73.056 C199.827,73.789 198.811,74.575 198.794,75.408 C198.779,76.171 199.762,76.973 199.745,77.811 C199.729,78.624 198.712,79.471 198.695,80.347 C198.677,81.286 199.658,82.259 199.639,83.259 C199.623,84.052 198.607,84.861 198.591,85.685 C198.575,86.563 199.558,87.457 199.540,88.365 C199.530,88.938 198.518,89.517 198.508,90.101 C198.490,91.020 199.472,91.951 199.454,92.890 C199.438,93.740 198.422,94.596 198.407,95.457 C198.389,96.338 199.373,97.224 199.356,98.112 C199.340,99.006 198.323,99.901 198.306,100.796 C198.291,101.645 199.275,102.494 199.259,103.340 C199.245,104.086 198.232,104.830 198.217,105.571 C198.204,106.350 199.189,107.125 199.175,107.895 C199.159,108.782 198.142,109.662 198.126,110.532 C198.110,111.412 199.094,112.282 199.078,113.139 C199.064,113.935 198.049,114.719 198.035,115.489 C198.019,116.339 199.004,117.172 198.990,117.986 C198.974,118.799 197.960,119.594 197.946,120.365 C197.927,121.383 198.910,122.360 198.893,123.292 C198.880,124.030 197.867,124.739 197.854,125.417 C197.839,126.241 198.825,127.017 198.812,127.740 C198.799,128.494 197.786,129.188 197.775,129.818 C197.758,130.764 198.743,131.563 198.732,132.190 C198.713,133.217 197.703,133.783 197.703,133.783 C197.703,133.783 197.886,135.166 197.994,135.166 Z"/>
<path fill-rule="evenodd"  fill="none"
 d="M2.000,143.750 L11.000,143.750 L11.000,148.750 L2.000,148.750 L2.000,143.750 Z"/>
<path fill-rule="evenodd"  fill="rgb(255, 255, 255)"
 d="M15.902,0.749 L14.658,0.749 C14.340,0.749 14.082,1.007 14.082,1.325 L14.082,3.694 C14.082,4.012 13.824,4.270 13.506,4.270 L11.773,4.270 C11.455,4.270 11.197,4.012 11.197,3.694 L11.197,1.325 C11.197,1.007 10.939,0.749 10.621,0.749 L9.377,0.749 C9.059,0.749 8.801,1.007 8.801,1.325 L8.801,3.694 C8.801,4.012 8.543,4.270 8.225,4.270 L6.492,4.270 C6.174,4.270 5.916,4.012 5.916,3.694 L5.916,1.325 C5.916,1.007 5.658,0.749 5.340,0.749 L4.096,0.749 C3.778,0.749 3.519,1.007 3.519,1.325 L3.519,3.694 C3.519,4.012 3.262,4.270 2.944,4.270 L0.575,4.270 C0.257,4.270 -0.001,4.528 -0.001,4.846 L-0.001,6.090 C-0.001,6.409 0.257,6.666 0.575,6.666 L2.944,6.666 C3.262,6.666 3.519,6.924 3.519,7.242 L3.519,8.975 C3.519,9.293 3.262,9.551 2.944,9.551 L0.575,9.551 C0.257,9.551 -0.001,9.809 -0.001,10.127 L-0.001,11.371 C-0.001,11.689 0.257,11.947 0.575,11.947 L2.944,11.947 C3.262,11.947 3.519,12.205 3.519,12.523 L3.519,14.256 C3.519,14.574 3.262,14.833 2.944,14.833 L0.575,14.833 C0.257,14.833 -0.001,15.091 -0.001,15.409 L-0.001,16.652 C-0.001,16.971 0.257,17.228 0.575,17.228 L2.944,17.228 C3.262,17.228 3.519,17.487 3.519,17.805 L3.519,20.173 C3.519,20.491 3.778,20.749 4.096,20.749 L5.340,20.749 C5.658,20.749 5.916,20.491 5.916,20.173 L5.916,17.805 C5.916,17.487 6.174,17.228 6.492,17.228 L8.225,17.228 C8.543,17.228 8.801,17.487 8.801,17.805 L8.801,20.173 C8.801,20.491 9.059,20.749 9.377,20.749 L10.621,20.749 C10.939,20.749 11.197,20.491 11.197,20.173 L11.197,17.805 C11.197,17.487 11.455,17.228 11.773,17.228 L13.506,17.228 C13.824,17.228 14.082,17.487 14.082,17.805 L14.082,20.173 C14.082,20.491 14.340,20.749 14.658,20.749 L15.902,20.749 C16.220,20.749 16.478,20.491 16.478,20.173 L16.478,17.805 C16.478,17.487 16.736,17.228 17.055,17.228 L19.423,17.228 C19.741,17.228 19.999,16.971 19.999,16.652 L19.999,15.409 C19.999,15.091 19.741,14.833 19.423,14.833 L17.055,14.833 C16.736,14.833 16.478,14.574 16.478,14.256 L16.478,12.523 C16.478,12.205 16.736,11.947 17.055,11.947 L19.423,11.947 C19.741,11.947 19.999,11.689 19.999,11.371 L19.999,10.127 C19.999,9.809 19.741,9.551 19.423,9.551 L17.055,9.551 C16.736,9.551 16.478,9.293 16.478,8.975 L16.478,7.242 C16.478,6.924 16.736,6.666 17.055,6.666 L19.423,6.666 C19.741,6.666 19.999,6.409 19.999,6.090 L19.999,4.846 C19.999,4.528 19.741,4.270 19.423,4.270 L17.055,4.270 C16.736,4.270 16.478,4.012 16.478,3.694 L16.478,1.325 C16.478,1.007 16.220,0.749 15.902,0.749 ZM8.801,12.527 L8.801,14.260 C8.801,14.577 8.543,14.836 8.225,14.836 L6.492,14.836 C6.174,14.836 5.916,14.577 5.916,14.260 L5.916,12.527 C5.916,12.208 6.174,11.951 6.492,11.951 L8.225,11.951 C8.543,11.951 8.801,12.208 8.801,12.527 ZM5.916,8.978 L5.916,7.246 C5.916,6.927 6.174,6.670 6.492,6.670 L8.225,6.670 C8.543,6.670 8.801,6.927 8.801,7.246 L8.801,8.978 C8.801,9.297 8.543,9.555 8.225,9.555 L6.492,9.555 C6.174,9.555 5.916,9.297 5.916,8.978 ZM14.082,12.527 L14.082,14.260 C14.082,14.577 13.824,14.836 13.506,14.836 L11.773,14.836 C11.455,14.836 11.197,14.577 11.197,14.260 L11.197,12.527 C11.197,12.208 11.455,11.951 11.773,11.951 L13.506,11.951 C13.824,11.951 14.082,12.208 14.082,12.527 ZM11.197,8.978 L11.197,7.246 C11.197,6.927 11.455,6.670 11.773,6.670 L13.506,6.670 C13.824,6.670 14.082,6.927 14.082,7.246 L14.082,8.978 C14.082,9.297 13.824,9.555 13.506,9.555 L11.773,9.555 C11.455,9.555 11.197,9.297 11.197,8.978 Z"/>
<path fill-rule="evenodd"  stroke="rgb(255, 255, 255)" stroke-width="1.5px" stroke-linecap="butt" stroke-linejoin="miter" fill="none"
 d="M271.526,14.552 L268.052,12.580 L268.052,8.918 L271.526,6.946 L274.999,8.918 L274.999,12.580 L271.526,14.552 ZM264.289,6.383 L264.289,2.721 L267.762,0.749 L271.236,2.721 L271.236,6.383 L267.762,8.355 L264.289,6.383 ZM267.473,12.580 L263.999,14.552 L260.526,12.580 L260.526,8.918 L263.999,6.946 L267.473,8.918 L267.473,12.580 ZM256.762,6.383 L256.762,2.721 L260.236,0.749 L263.710,2.721 L263.710,6.383 L260.236,8.355 L256.762,6.383 ZM259.946,12.580 L256.473,14.552 L252.999,12.580 L252.999,8.918 L256.473,6.946 L259.946,8.918 L259.946,12.580 ZM263.710,15.116 L263.710,18.777 L260.236,20.749 L256.762,18.777 L256.762,15.116 L260.236,13.144 L263.710,15.116 ZM271.236,15.116 L271.236,18.777 L267.762,20.749 L264.289,18.777 L264.289,15.116 L267.762,13.144 L271.236,15.116 Z"/>
</svg>
