<svg 
 xmlns="http://www.w3.org/2000/svg"
 xmlns:xlink="http://www.w3.org/1999/xlink"
 width="15px" height="12px">
<path fill-rule="evenodd"  fill="rgb(255, 255, 255)"
 d="M12.000,6.000 L12.000,9.000 C12.000,10.657 10.657,12.000 9.000,12.000 L3.000,12.000 C1.343,12.000 0.000,10.657 0.000,9.000 L0.000,3.000 C0.000,1.343 1.343,-0.000 3.000,-0.000 L6.000,-0.000 L5.989,1.000 L3.000,1.000 C1.895,1.000 1.000,1.895 1.000,3.000 L1.000,9.000 C1.000,10.104 1.895,11.000 3.000,11.000 L9.000,11.000 C10.104,11.000 11.000,10.104 11.000,9.000 L11.000,6.000 L12.000,6.000 Z"/>
<path fill-rule="evenodd"  fill="rgb(23, 204, 95)"
 d="M8.000,-0.000 L15.000,-0.000 L15.000,1.000 L8.000,1.000 L8.000,-0.000 Z"/>
</svg>
