<svg 
 xmlns="http://www.w3.org/2000/svg"
 xmlns:xlink="http://www.w3.org/1999/xlink"
 width="15px" height="15px">
<path fill-rule="evenodd"  fill="rgb(51, 51, 51)"
 d="M12.000,9.000 L12.000,12.000 C12.000,13.657 10.657,15.000 9.000,15.000 L3.000,15.000 C1.343,15.000 0.000,13.657 0.000,12.000 L0.000,6.000 C0.000,4.343 1.343,3.000 3.000,3.000 L6.000,3.000 L5.989,4.000 L3.000,4.000 C1.895,4.000 1.000,4.895 1.000,6.000 L1.000,12.000 C1.000,13.104 1.895,14.000 3.000,14.000 L9.000,14.000 C10.104,14.000 11.000,13.104 11.000,12.000 L11.000,9.000 L12.000,9.000 Z"/>
<path fill-rule="evenodd"  fill="rgb(23, 204, 95)"
 d="M15.000,4.000 L12.000,4.000 L12.000,7.000 L11.000,7.000 L11.000,4.000 L8.000,4.000 L8.000,3.000 L11.000,3.000 L11.000,-0.000 L12.000,-0.000 L12.000,3.000 L15.000,3.000 L15.000,4.000 Z"/>
</svg>
