<svg 
 xmlns="http://www.w3.org/2000/svg"
 xmlns:xlink="http://www.w3.org/1999/xlink"
 width="15px" height="14px">
<path fill-rule="evenodd"  fill="rgb(51, 51, 51)"
 d="M7.040,10.996 C7.330,10.870 7.662,10.870 7.951,10.996 L11.000,12.321 L10.650,9.087 C10.616,8.779 10.720,8.473 10.932,8.243 L13.168,5.828 L9.900,5.153 C9.590,5.089 9.322,4.900 9.164,4.632 L7.495,1.814 L5.828,4.632 C5.669,4.900 5.401,5.089 5.090,5.153 L1.824,5.828 L4.060,8.243 C4.273,8.473 4.375,8.779 4.341,9.087 L3.990,12.321 L7.040,10.996 ZM4.008,13.903 C3.641,14.061 3.217,14.018 2.894,13.789 C2.570,13.561 2.398,13.181 2.439,12.794 L2.840,9.095 L0.283,6.331 C0.015,6.042 -0.073,5.636 0.050,5.265 C0.174,4.895 0.492,4.617 0.882,4.537 L4.618,3.766 L6.527,0.543 C6.726,0.206 7.096,-0.002 7.495,-0.002 C7.896,-0.002 8.265,0.206 8.465,0.543 L10.373,3.766 L14.109,4.537 C14.500,4.617 14.817,4.895 14.941,5.265 C15.065,5.636 14.976,6.042 14.708,6.331 L12.150,9.095 L12.551,12.794 C12.594,13.181 12.420,13.561 12.097,13.789 C11.774,14.018 11.349,14.061 10.984,13.903 L7.495,12.389 L4.008,13.903 Z"/>
</svg>
