<svg 
 xmlns="http://www.w3.org/2000/svg"
 xmlns:xlink="http://www.w3.org/1999/xlink"
 width="11px" height="9px">
<path fill-rule="evenodd"  fill="rgb(255, 255, 255)"
 d="M10.247,5.089 L6.202,6.542 C5.652,6.722 5.055,6.722 4.506,6.528 L0.709,5.075 C0.039,4.819 -0.009,4.397 -0.002,4.224 C0.019,4.002 0.126,3.802 0.301,3.670 C0.488,3.525 0.703,3.421 0.931,3.372 L1.286,3.275 L2.346,3.684 L1.092,4.002 C0.729,4.092 0.629,4.244 0.636,4.258 C0.642,4.272 0.709,4.376 0.931,4.459 L4.734,5.912 C5.149,6.051 5.592,6.051 6.008,5.912 L10.045,4.459 C10.287,4.376 10.367,4.279 10.360,4.251 C10.353,4.224 10.253,4.085 9.890,3.995 L8.563,3.677 L9.683,3.275 L10.032,3.359 C10.615,3.504 10.971,3.822 10.991,4.224 C10.997,4.403 10.944,4.840 10.247,5.089 ZM10.247,2.777 L6.202,4.230 C5.941,4.314 5.659,4.362 5.377,4.362 C5.082,4.362 4.788,4.314 4.506,4.217 L0.709,2.764 C0.045,2.500 -0.002,2.078 -0.002,1.905 C0.012,1.684 0.126,1.483 0.301,1.352 C0.488,1.206 0.703,1.103 0.931,1.054 L4.720,0.072 C5.135,-0.025 5.565,-0.025 5.981,0.072 L10.032,1.047 C10.615,1.186 10.971,1.511 10.991,1.912 C10.991,2.092 10.944,2.528 10.247,2.777 ZM9.890,1.691 L5.834,0.702 C5.518,0.625 5.190,0.625 4.867,0.702 L1.092,1.684 C0.729,1.781 0.642,1.912 0.636,1.940 C0.636,1.961 0.703,2.058 0.931,2.141 L4.734,3.594 C5.149,3.732 5.592,3.732 6.008,3.594 L10.045,2.154 C10.293,2.064 10.360,1.968 10.360,1.947 C10.360,1.926 10.259,1.781 9.890,1.691 ZM0.924,5.697 L1.286,5.608 L2.340,6.002 L1.092,6.334 C0.729,6.424 0.629,6.569 0.636,6.583 C0.642,6.597 0.709,6.701 0.931,6.784 L4.740,8.237 C5.156,8.375 5.599,8.375 6.014,8.237 L10.052,6.770 C10.293,6.687 10.374,6.590 10.367,6.563 C10.360,6.535 10.259,6.396 9.898,6.306 L8.570,5.988 L9.689,5.594 L10.038,5.677 C10.622,5.822 10.977,6.140 10.997,6.542 C11.004,6.722 10.951,7.158 10.253,7.406 L6.209,8.860 C5.941,8.957 5.659,8.998 5.377,8.998 C5.082,9.005 4.788,8.957 4.506,8.853 L0.709,7.400 C0.039,7.144 -0.009,6.722 -0.002,6.549 C0.019,6.334 0.126,6.134 0.301,6.002 C0.488,5.857 0.696,5.753 0.924,5.697 Z"/>
</svg>
