<svg 
 xmlns="http://www.w3.org/2000/svg"
 xmlns:xlink="http://www.w3.org/1999/xlink"
 width="11px" height="11px">
<path fill-rule="evenodd"  fill="rgb(220, 220, 223)"
 d="M8.946,1.099 C8.946,0.492 8.485,-0.001 7.915,-0.001 L7.743,-0.001 C7.174,-0.001 6.712,0.492 6.712,1.099 L4.295,1.099 C4.295,0.492 3.833,-0.001 3.263,-0.001 L3.092,-0.001 C2.522,-0.001 2.060,0.492 2.060,1.099 L0.686,1.099 C0.306,1.099 -0.002,1.428 -0.002,1.832 L-0.002,10.266 C-0.002,10.670 0.306,10.999 0.686,10.999 L10.311,10.999 C10.689,10.999 10.998,10.670 10.998,10.266 L10.998,1.832 C10.998,1.428 10.689,1.099 10.311,1.099 L8.946,1.099 ZM7.829,0.732 C8.067,0.732 8.259,0.938 8.259,1.191 L8.259,2.107 C8.259,2.360 8.067,2.565 7.829,2.565 C7.592,2.565 7.400,2.360 7.400,2.107 L7.400,1.191 C7.400,0.938 7.592,0.732 7.829,0.732 L7.829,0.732 ZM3.178,0.732 C3.415,0.732 3.607,0.938 3.607,1.191 L3.607,2.107 C3.607,2.360 3.415,2.565 3.178,2.565 C2.940,2.565 2.748,2.360 2.748,2.107 L2.748,1.191 C2.748,0.938 2.940,0.732 3.178,0.732 L3.178,0.732 ZM9.967,10.266 L1.029,10.266 C0.839,10.266 0.686,10.102 0.686,9.899 L0.686,4.765 L10.311,4.765 L10.311,9.899 C10.311,10.102 10.157,10.266 9.967,10.266 L9.967,10.266 ZM10.311,4.032 L0.686,4.032 L0.686,2.199 C0.686,1.996 0.839,1.832 1.029,1.832 L2.060,1.832 L2.060,2.199 C2.060,2.806 2.522,3.299 3.092,3.299 L3.263,3.299 C3.833,3.299 4.295,2.806 4.295,2.199 L4.295,1.832 L6.712,1.832 L6.712,2.107 C6.712,2.765 7.212,3.299 7.829,3.299 C8.446,3.299 8.946,2.765 8.946,2.107 L8.946,1.832 L9.967,1.832 C10.157,1.832 10.311,1.996 10.311,2.199 L10.311,4.032 Z"/>
</svg>
