<svg 
 xmlns="http://www.w3.org/2000/svg"
 xmlns:xlink="http://www.w3.org/1999/xlink"
 width="11px" height="14px">
<path fill-rule="evenodd"  fill="rgb(170, 170, 170)"
 d="M8.587,6.676 L5.824,9.442 L5.824,0.827 C5.824,0.371 5.453,-0.000 4.998,-0.000 C4.542,-0.000 4.172,0.371 4.172,0.827 L4.172,9.442 L1.411,6.676 C1.088,6.353 0.565,6.353 0.243,6.676 C-0.080,6.999 -0.080,7.522 0.243,7.845 L4.415,12.022 C4.491,12.098 4.583,12.160 4.686,12.201 C4.689,12.203 4.695,12.203 4.698,12.204 C4.792,12.241 4.893,12.263 5.000,12.263 C5.106,12.263 5.207,12.241 5.301,12.204 C5.304,12.203 5.310,12.203 5.313,12.201 C5.416,12.158 5.506,12.098 5.585,12.022 L9.757,7.845 C10.080,7.522 10.080,6.999 9.757,6.676 C9.432,6.353 8.910,6.353 8.587,6.676 L8.587,6.676 ZM9.170,12.346 L0.826,12.346 C0.370,12.346 -0.000,12.717 -0.000,13.173 C-0.000,13.629 0.370,14.000 0.826,14.000 L9.170,14.000 C9.626,14.000 9.996,13.629 9.996,13.173 C9.996,12.717 9.627,12.346 9.170,12.346 L9.170,12.346 Z"/>
</svg>
