<svg 
 xmlns="http://www.w3.org/2000/svg"
 xmlns:xlink="http://www.w3.org/1999/xlink"
 width="15px" height="14px">
<path fill-rule="evenodd"  fill="rgb(255, 255, 255)"
 d="M13.931,13.999 L1.065,13.999 C0.476,13.999 -0.002,13.673 -0.002,13.271 C-0.002,12.869 0.476,12.544 1.065,12.544 L13.931,12.544 C14.521,12.544 14.998,12.869 14.998,13.271 C14.998,13.673 14.521,13.999 13.931,13.999 ZM8.045,12.232 C7.911,12.367 7.727,12.444 7.534,12.444 C7.342,12.444 7.159,12.367 7.025,12.232 L2.168,7.346 C1.916,7.089 1.887,6.692 2.098,6.402 C2.222,6.230 2.419,6.122 2.632,6.109 C2.847,6.095 3.055,6.178 3.200,6.333 L6.830,10.018 C6.815,9.932 6.795,9.848 6.795,9.755 L6.795,1.112 C6.795,0.497 7.126,-0.001 7.534,-0.001 C7.943,-0.001 8.274,0.497 8.274,1.112 L8.274,9.755 C8.274,9.849 8.253,9.932 8.239,10.019 L11.869,6.333 C12.014,6.178 12.222,6.095 12.437,6.109 C12.650,6.122 12.846,6.230 12.971,6.402 C13.182,6.692 13.153,7.089 12.901,7.346 L8.045,12.232 Z"/>
</svg>
