<svg 
 xmlns="http://www.w3.org/2000/svg"
 xmlns:xlink="http://www.w3.org/1999/xlink"
 width="11px" height="14px">
<path fill-rule="evenodd"  fill="rgb(51, 51, 51)"
 d="M8.586,6.675 L5.823,9.441 L5.823,0.826 C5.823,0.370 5.452,-0.001 4.997,-0.001 C4.541,-0.001 4.171,0.370 4.171,0.826 L4.171,9.441 L1.409,6.675 C1.087,6.353 0.564,6.353 0.241,6.675 C-0.081,6.998 -0.081,7.522 0.241,7.844 L4.413,12.021 C4.490,12.097 4.581,12.159 4.684,12.201 C4.688,12.202 4.694,12.202 4.697,12.204 C4.791,12.241 4.892,12.262 4.998,12.262 C5.104,12.262 5.205,12.241 5.300,12.204 C5.303,12.202 5.308,12.202 5.312,12.201 C5.415,12.158 5.505,12.097 5.584,12.021 L9.755,7.844 C10.078,7.522 10.078,6.998 9.755,6.675 C9.431,6.353 8.908,6.353 8.586,6.675 L8.586,6.675 ZM9.169,12.345 L0.824,12.345 C0.368,12.345 -0.001,12.716 -0.001,13.172 C-0.001,13.628 0.368,13.999 0.824,13.999 L9.169,13.999 C9.624,13.999 9.995,13.628 9.995,13.172 C9.995,12.716 9.626,12.345 9.169,12.345 L9.169,12.345 Z"/>
</svg>
