<svg 
 xmlns="http://www.w3.org/2000/svg"
 xmlns:xlink="http://www.w3.org/1999/xlink"
 width="15px" height="14px">
<path fill-rule="evenodd"  fill="rgb(255, 255, 255)"
 d="M13.930,13.999 L1.064,13.999 C0.475,13.999 -0.003,13.673 -0.003,13.271 C-0.003,12.869 0.475,12.543 1.064,12.543 L13.930,12.543 C14.520,12.543 14.997,12.869 14.997,13.271 C14.997,13.673 14.520,13.999 13.930,13.999 ZM8.044,12.231 C7.910,12.367 7.726,12.443 7.533,12.443 C7.341,12.443 7.157,12.367 7.024,12.231 L2.167,7.345 C1.915,7.089 1.886,6.691 2.097,6.401 C2.221,6.229 2.418,6.122 2.631,6.109 C2.845,6.095 3.054,6.177 3.199,6.332 L6.829,10.018 C6.814,9.931 6.794,9.848 6.794,9.755 L6.794,1.112 C6.794,0.497 7.124,-0.001 7.533,-0.001 C7.942,-0.001 8.273,0.497 8.273,1.112 L8.273,9.755 C8.273,9.848 8.252,9.931 8.238,10.018 L11.867,6.332 C12.013,6.177 12.221,6.095 12.436,6.109 C12.649,6.122 12.845,6.229 12.970,6.401 C13.181,6.691 13.152,7.089 12.899,7.345 L8.044,12.231 Z"/>
</svg>
