<svg 
 xmlns="http://www.w3.org/2000/svg"
 xmlns:xlink="http://www.w3.org/1999/xlink"
 width="11px" height="14px">
<path fill-rule="evenodd"  fill="rgb(51, 51, 51)"
 d="M8.586,6.675 L5.822,9.441 L5.822,0.826 C5.822,0.370 5.452,-0.001 4.997,-0.001 C4.542,-0.001 4.171,0.370 4.171,0.826 L4.171,9.441 L1.409,6.675 C1.086,6.352 0.563,6.352 0.241,6.675 C-0.082,6.998 -0.082,7.521 0.241,7.844 L4.414,12.021 C4.490,12.097 4.582,12.159 4.685,12.200 C4.688,12.201 4.694,12.201 4.697,12.203 C4.791,12.240 4.892,12.262 4.999,12.262 C5.105,12.262 5.206,12.240 5.300,12.203 C5.303,12.201 5.309,12.201 5.312,12.200 C5.415,12.157 5.506,12.097 5.583,12.021 L9.756,7.844 C10.079,7.521 10.079,6.998 9.756,6.675 C9.432,6.352 8.909,6.352 8.586,6.675 L8.586,6.675 ZM9.169,12.345 L0.824,12.345 C0.369,12.345 -0.002,12.716 -0.002,13.172 C-0.002,13.628 0.369,13.999 0.824,13.999 L9.169,13.999 C9.625,13.999 9.995,13.628 9.995,13.172 C9.995,12.716 9.626,12.345 9.169,12.345 L9.169,12.345 Z"/>
</svg>
