<svg 
 xmlns="http://www.w3.org/2000/svg"
 xmlns:xlink="http://www.w3.org/1999/xlink"
 width="16px" height="14px">
<path fill-rule="evenodd"  fill="rgb(255, 255, 255)"
 d="M14.276,13.999 L2.068,13.999 C1.118,13.999 0.345,13.250 0.345,12.330 L0.345,8.827 C0.345,8.371 0.725,8.002 1.194,8.001 C1.663,8.001 2.043,8.371 2.043,8.827 L2.043,12.329 C2.043,12.337 2.051,12.348 2.068,12.348 L14.276,12.348 C14.293,12.348 14.302,12.337 14.302,12.329 L14.302,1.668 C14.302,1.660 14.293,1.650 14.276,1.650 L11.283,1.650 C10.978,1.654 10.694,1.497 10.540,1.240 C10.386,0.983 10.386,0.666 10.540,0.408 C10.694,0.152 10.978,-0.004 11.283,-0.001 L14.276,-0.001 C15.226,-0.001 15.999,0.748 15.999,1.668 L15.999,12.330 C15.999,13.250 15.226,13.999 14.276,13.999 ZM11.162,3.320 C11.461,3.263 11.767,3.367 11.966,3.591 C12.164,3.814 12.225,4.124 12.125,4.403 L10.456,9.095 C10.303,9.526 9.819,9.754 9.376,9.605 L9.366,9.602 L4.528,7.905 C4.094,7.746 3.870,7.277 4.029,6.853 C4.186,6.428 4.665,6.205 5.104,6.352 L8.104,7.405 C7.563,5.433 6.302,3.899 4.346,2.835 C2.533,1.849 0.772,1.647 0.754,1.645 C0.289,1.595 -0.046,1.188 0.004,0.735 C0.028,0.518 0.141,0.318 0.316,0.181 C0.492,0.044 0.716,-0.020 0.940,0.004 C1.024,0.013 3.012,0.233 5.117,1.363 C7.332,2.552 8.852,4.299 9.590,6.480 L10.521,3.863 C10.619,3.583 10.864,3.376 11.162,3.320 Z"/>
</svg>
