<svg 
 xmlns="http://www.w3.org/2000/svg"
 xmlns:xlink="http://www.w3.org/1999/xlink"
 width="16px" height="14px">
<path fill-rule="evenodd"  fill="rgb(255, 255, 255)"
 d="M14.277,14.000 L2.069,14.000 C1.119,14.000 0.346,13.251 0.346,12.331 L0.346,8.828 C0.346,8.372 0.726,8.003 1.195,8.003 C1.664,8.003 2.044,8.372 2.044,8.828 L2.044,12.331 C2.044,12.338 2.053,12.349 2.069,12.349 L14.277,12.349 C14.294,12.349 14.303,12.338 14.303,12.331 L14.303,1.669 C14.303,1.661 14.294,1.651 14.277,1.651 L11.285,1.651 C10.979,1.654 10.695,1.498 10.541,1.241 C10.387,0.984 10.387,0.667 10.541,0.410 C10.695,0.153 10.979,-0.004 11.285,0.000 L14.277,0.000 C15.227,0.000 16.000,0.749 16.000,1.669 L16.000,12.331 C16.000,13.251 15.227,14.000 14.277,14.000 ZM11.163,3.321 C11.462,3.264 11.768,3.368 11.967,3.591 C12.166,3.815 12.226,4.125 12.126,4.404 L10.457,9.096 C10.303,9.527 9.820,9.755 9.377,9.606 L9.367,9.603 L4.529,7.906 C4.095,7.747 3.872,7.278 4.029,6.853 C4.187,6.429 4.666,6.206 5.105,6.353 L8.105,7.405 C7.563,5.434 6.304,3.900 4.347,2.836 C2.534,1.850 0.773,1.648 0.755,1.646 C0.290,1.596 -0.046,1.188 0.005,0.736 C0.030,0.518 0.142,0.319 0.317,0.182 C0.493,0.045 0.717,-0.019 0.941,0.005 C1.024,0.014 3.012,0.234 5.119,1.364 C7.333,2.553 8.852,4.300 9.591,6.481 L10.522,3.864 C10.620,3.585 10.865,3.377 11.163,3.321 Z"/>
</svg>
