<svg 
 xmlns="http://www.w3.org/2000/svg"
 xmlns:xlink="http://www.w3.org/1999/xlink"
 width="16px" height="14px">
<path fill-rule="evenodd"  fill="rgb(255, 255, 255)"
 d="M14.276,13.999 L2.068,13.999 C1.118,13.999 0.345,13.250 0.345,12.330 L0.345,8.828 C0.345,8.372 0.725,8.002 1.194,8.002 C1.662,8.002 2.042,8.372 2.043,8.828 L2.043,12.330 C2.043,12.338 2.051,12.348 2.068,12.348 L14.276,12.348 C14.292,12.348 14.302,12.338 14.302,12.330 L14.302,1.668 C14.302,1.661 14.292,1.650 14.276,1.650 L11.284,1.650 C10.977,1.654 10.694,1.497 10.540,1.241 C10.386,0.984 10.386,0.666 10.540,0.409 C10.694,0.153 10.977,-0.004 11.284,-0.000 L14.276,-0.000 C15.226,-0.000 15.999,0.748 15.999,1.669 L15.999,12.330 C15.999,13.250 15.226,13.999 14.276,13.999 ZM11.162,3.320 C11.461,3.264 11.767,3.367 11.966,3.591 C12.165,3.814 12.225,4.124 12.125,4.403 L10.456,9.095 C10.303,9.526 9.819,9.755 9.376,9.605 L9.366,9.603 L4.527,7.905 C4.094,7.747 3.871,7.278 4.028,6.853 C4.186,6.429 4.665,6.206 5.104,6.353 L8.104,7.405 C7.562,5.434 6.303,3.900 4.346,2.835 C2.533,1.849 0.772,1.647 0.754,1.645 C0.289,1.595 -0.047,1.188 0.004,0.735 C0.028,0.518 0.140,0.319 0.316,0.181 C0.492,0.044 0.716,-0.020 0.940,0.004 C1.023,0.013 3.011,0.234 5.117,1.364 C7.332,2.552 8.851,4.299 9.590,6.481 L10.520,3.864 C10.619,3.584 10.864,3.377 11.162,3.320 Z"/>
</svg>
