<svg 
 xmlns="http://www.w3.org/2000/svg"
 xmlns:xlink="http://www.w3.org/1999/xlink"
 width="15px" height="14px">
<path fill-rule="evenodd"  fill="rgb(170, 170, 170)"
 d="M12.682,4.063 L9.333,4.063 C9.332,4.063 9.330,4.062 9.330,4.060 L9.330,2.327 C9.330,1.044 8.292,-0.000 7.016,-0.000 C6.406,-0.000 5.846,0.211 5.395,0.612 C4.965,0.993 4.659,1.528 4.506,2.160 L3.254,6.789 C3.247,6.812 3.242,6.838 3.238,6.861 L1.341,6.861 C0.601,6.861 -0.001,7.467 -0.001,8.211 L-0.001,12.650 C-0.001,13.394 0.601,14.000 1.341,14.000 L4.570,14.000 L4.570,13.995 L11.837,13.995 C12.256,13.995 12.628,13.824 12.917,13.501 C13.123,13.269 13.279,12.957 13.368,12.601 L14.976,6.568 C14.991,6.511 14.999,6.452 14.999,6.393 C14.999,5.109 13.960,4.063 12.682,4.063 L12.682,4.063 ZM3.229,12.650 L1.342,12.650 C1.342,12.650 1.341,12.650 1.341,12.649 L1.341,8.213 C1.341,8.213 1.341,8.211 1.342,8.211 L3.230,8.211 L3.230,12.650 L3.229,12.650 ZM12.072,12.257 C12.070,12.261 12.070,12.264 12.068,12.268 C12.021,12.455 11.927,12.644 11.837,12.644 L4.586,12.644 C4.578,12.644 4.570,12.635 4.570,12.627 L4.570,7.057 L5.801,2.506 L5.806,2.486 C5.975,1.774 6.428,1.351 7.015,1.351 C7.551,1.351 7.987,1.789 7.987,2.329 L7.987,4.060 C7.987,4.807 8.591,5.414 9.333,5.414 L12.678,5.414 C13.191,5.414 13.612,5.814 13.653,6.318 L12.072,12.257 Z"/>
</svg>
