<svg 
 xmlns="http://www.w3.org/2000/svg"
 xmlns:xlink="http://www.w3.org/1999/xlink"
 width="11px" height="12px">
<path fill-rule="evenodd"  fill="rgb(220, 220, 223)"
 d="M0.225,2.833 L5.271,0.057 C5.411,-0.021 5.585,-0.021 5.725,0.057 L10.771,2.833 C10.911,2.910 10.998,3.053 10.998,3.207 L10.998,8.759 C10.998,8.914 10.911,9.056 10.771,9.134 L5.725,11.909 C5.585,11.987 5.411,11.987 5.271,11.909 L0.225,9.134 C0.084,9.056 -0.002,8.914 -0.002,8.759 L-0.002,3.207 C-0.002,3.053 0.084,2.910 0.225,2.833 L0.225,2.833 ZM0.963,3.426 C0.928,3.445 0.907,3.481 0.907,3.520 L0.907,8.447 C0.907,8.485 0.928,8.521 0.963,8.540 L5.441,11.004 C5.476,11.023 5.520,11.023 5.555,11.004 L10.033,8.540 C10.068,8.521 10.089,8.485 10.089,8.447 L10.089,3.520 C10.089,3.481 10.068,3.445 10.033,3.426 L5.555,0.963 C5.520,0.943 5.476,0.943 5.441,0.963 L0.963,3.426 ZM5.493,5.539 L8.986,3.618 C9.203,3.498 9.481,3.569 9.606,3.776 C9.731,3.983 9.656,4.247 9.440,4.367 L5.956,6.283 L5.956,10.082 C5.956,10.321 5.752,10.514 5.502,10.514 C5.252,10.514 5.049,10.321 5.049,10.082 L5.049,6.293 L1.559,4.374 C1.342,4.254 1.268,3.989 1.393,3.783 C1.518,3.576 1.796,3.506 2.013,3.625 L5.493,5.539 Z"/>
</svg>
