<svg 
 xmlns="http://www.w3.org/2000/svg"
 xmlns:xlink="http://www.w3.org/1999/xlink"
 width="11px" height="12px">
<path fill-rule="evenodd"  fill="rgb(253, 38, 90)"
 d="M0.223,2.832 L5.270,0.057 C5.410,-0.021 5.584,-0.021 5.724,0.057 L10.770,2.832 C10.910,2.910 10.997,3.053 10.997,3.207 L10.997,8.759 C10.997,8.913 10.910,9.056 10.770,9.133 L5.724,11.909 C5.584,11.987 5.410,11.987 5.270,11.909 L0.223,9.133 C0.083,9.056 -0.003,8.913 -0.003,8.759 L-0.003,3.207 C-0.003,3.053 0.083,2.910 0.223,2.832 L0.223,2.832 ZM0.961,3.426 C0.927,3.445 0.905,3.481 0.905,3.520 L0.905,8.447 C0.905,8.485 0.927,8.520 0.961,8.540 L5.440,11.004 C5.475,11.023 5.519,11.023 5.553,11.004 L10.032,8.540 C10.067,8.520 10.088,8.485 10.088,8.447 L10.088,3.520 C10.088,3.481 10.067,3.445 10.032,3.426 L5.553,0.962 C5.519,0.943 5.475,0.943 5.440,0.962 L0.961,3.426 ZM5.492,5.539 L8.985,3.618 C9.202,3.498 9.479,3.569 9.604,3.776 C9.729,3.983 9.656,4.247 9.439,4.366 L5.955,6.283 L5.955,10.082 C5.955,10.321 5.751,10.513 5.501,10.513 C5.251,10.513 5.048,10.321 5.048,10.082 L5.048,6.293 L1.557,4.373 C1.341,4.254 1.267,3.989 1.392,3.782 C1.517,3.576 1.794,3.506 2.011,3.624 L5.492,5.539 Z"/>
</svg>
