<svg 
 xmlns="http://www.w3.org/2000/svg"
 xmlns:xlink="http://www.w3.org/1999/xlink"
 width="11px" height="12px">
<path fill-rule="evenodd"  fill="rgb(51, 51, 51)"
 d="M8.998,11.999 L1.997,11.999 C0.893,11.999 -0.002,11.104 -0.002,9.999 L-0.002,1.999 C-0.002,0.895 0.893,-0.001 1.997,-0.001 L8.998,-0.001 C10.102,-0.001 10.998,0.895 10.998,1.999 L10.998,9.999 C10.998,11.104 10.102,11.999 8.998,11.999 ZM9.435,3.562 C9.435,2.457 8.540,1.562 7.435,1.562 L3.560,1.562 C2.456,1.562 1.560,2.457 1.560,3.562 L1.560,6.574 C1.560,6.360 1.734,6.187 1.948,6.187 L9.048,6.187 C9.262,6.187 9.435,6.360 9.435,6.574 L9.435,3.562 ZM9.435,6.581 C9.435,6.795 9.262,6.968 9.048,6.968 L1.948,6.968 C1.734,6.968 1.560,6.795 1.560,6.581 L1.560,8.437 C1.560,9.541 2.456,10.437 3.560,10.437 L7.435,10.437 C8.540,10.437 9.435,9.541 9.435,8.437 L9.435,6.581 ZM6.310,5.406 L4.685,5.406 C4.478,5.406 4.310,5.238 4.310,5.031 C4.310,4.823 4.478,4.656 4.685,4.656 L6.310,4.656 C6.517,4.656 6.685,4.823 6.685,5.031 C6.685,5.238 6.517,5.406 6.310,5.406 Z"/>
</svg>
