<svg 
 xmlns="http://www.w3.org/2000/svg"
 xmlns:xlink="http://www.w3.org/1999/xlink"
 width="11px" height="11px">
<path fill-rule="evenodd"  fill="rgb(255, 255, 255)"
 d="M5.656,-0.000 C5.962,-0.000 6.191,0.073 6.420,0.293 L9.931,3.667 C10.160,3.887 10.237,4.107 10.237,4.327 L10.237,6.307 C10.008,6.160 9.779,6.087 9.473,6.013 L9.473,4.840 L5.580,4.840 C5.275,4.840 5.046,4.620 5.046,4.327 L5.046,0.733 L0.763,0.733 L0.763,10.267 L5.962,10.267 C6.114,10.560 6.343,10.780 6.573,11.000 L0.534,11.000 C0.229,11.000 0.000,10.780 0.000,10.487 L0.000,0.513 C0.000,0.220 0.229,-0.000 0.534,-0.000 L5.656,-0.000 ZM8.176,6.600 C8.176,6.820 8.405,6.967 8.634,6.967 C8.863,6.967 9.092,6.820 9.092,6.600 C9.397,6.673 9.702,6.820 10.008,6.967 C9.855,7.187 9.931,7.480 10.084,7.627 C10.160,7.700 10.237,7.700 10.389,7.700 C10.466,7.700 10.542,7.700 10.695,7.627 C10.847,7.847 10.924,8.067 11.000,8.287 C10.771,8.360 10.618,8.507 10.618,8.727 C10.618,8.947 10.771,9.167 11.000,9.167 C10.924,9.460 10.847,9.680 10.695,9.900 C10.618,9.900 10.542,9.827 10.466,9.827 C10.237,9.827 10.008,10.047 10.008,10.267 C10.008,10.340 10.008,10.413 10.084,10.487 C9.855,10.633 9.550,10.780 9.244,10.853 C9.168,10.633 8.939,10.413 8.634,10.487 C8.481,10.560 8.328,10.633 8.252,10.853 C7.947,10.780 7.641,10.707 7.412,10.487 C7.489,10.413 7.489,10.340 7.489,10.267 C7.489,10.047 7.260,9.827 7.031,9.827 C6.954,9.827 6.878,9.827 6.802,9.900 C6.649,9.680 6.573,9.460 6.496,9.167 C6.725,9.093 6.878,8.947 6.878,8.727 C6.878,8.507 6.725,8.287 6.496,8.287 C6.573,7.993 6.649,7.773 6.802,7.553 C6.878,7.627 6.954,7.627 7.107,7.627 C7.336,7.627 7.565,7.407 7.565,7.187 C7.565,7.040 7.565,6.967 7.489,6.893 C7.565,6.747 7.870,6.673 8.176,6.600 L8.176,6.600 ZM8.634,8.067 C8.176,8.067 7.870,8.360 7.870,8.800 C7.870,9.240 8.176,9.533 8.634,9.533 C9.092,9.533 9.397,9.240 9.397,8.800 C9.397,8.360 9.092,8.067 8.634,8.067 L8.634,8.067 ZM5.886,0.953 L5.886,4.033 L9.092,4.033 L5.886,0.953 Z"/>
</svg>
