<svg 
 xmlns="http://www.w3.org/2000/svg"
 xmlns:xlink="http://www.w3.org/1999/xlink"
 width="15px" height="14px">
<path fill-rule="evenodd"  fill="rgb(170, 170, 170)"
 d="M8.340,1.526 L13.481,5.615 L8.340,9.705 L8.340,7.151 C7.755,7.175 6.824,7.232 6.824,7.232 C5.121,7.446 3.568,8.025 2.234,8.934 C2.694,7.580 3.326,6.609 3.997,5.918 C4.770,5.120 5.749,4.554 6.824,4.282 C7.899,4.011 7.765,4.168 8.340,4.116 L8.340,1.526 ZM6.824,8.771 L6.824,9.705 C6.824,10.979 8.287,11.691 9.281,10.900 L14.422,6.811 C14.785,6.521 14.997,6.081 14.997,5.615 C14.997,5.150 14.785,4.709 14.422,4.420 L9.281,0.331 C8.287,-0.460 6.824,0.252 6.824,1.526 L6.824,2.720 C4.148,3.262 1.108,5.353 0.240,10.745 C0.073,11.821 -0.008,12.909 -0.002,13.998 C0.410,13.051 0.976,12.178 1.673,11.417 C3.012,9.973 4.775,9.066 6.824,8.771 L6.824,8.771 Z"/>
</svg>
