<svg 
 xmlns="http://www.w3.org/2000/svg"
 xmlns:xlink="http://www.w3.org/1999/xlink"
 width="12px" height="12px">
<path fill-rule="evenodd"  fill="rgb(51, 51, 51)"
 d="M11.620,2.655 C11.862,2.897 11.997,3.225 11.997,3.567 C11.997,3.909 11.862,4.237 11.620,4.479 L4.477,11.621 C3.974,12.124 3.158,12.124 2.654,11.621 L0.375,9.342 C-0.129,8.838 -0.129,8.021 0.375,7.518 L7.517,0.376 C8.021,-0.127 8.837,-0.127 9.340,0.376 L11.620,2.655 ZM11.012,3.263 L8.732,0.984 C8.564,0.816 8.293,0.816 8.125,0.984 L7.365,1.744 L8.125,2.504 C8.284,2.663 8.294,2.917 8.147,3.088 L8.125,3.111 C7.957,3.279 7.685,3.279 7.517,3.111 L6.757,2.351 L5.694,3.415 L7.061,4.783 C7.220,4.942 7.230,5.197 7.083,5.367 L7.061,5.391 C6.893,5.558 6.620,5.558 6.453,5.391 L5.086,4.023 L4.021,5.087 L4.781,5.847 C4.941,6.006 4.950,6.260 4.804,6.431 L4.781,6.455 C4.702,6.535 4.591,6.580 4.478,6.580 C4.364,6.580 4.254,6.535 4.174,6.455 L3.414,5.695 L2.350,6.759 L3.110,7.518 C3.269,7.677 3.279,7.932 3.131,8.102 L3.110,8.126 C3.030,8.207 2.920,8.252 2.806,8.252 C2.693,8.252 2.582,8.207 2.502,8.126 L1.742,7.366 L0.983,8.125 C0.902,8.206 0.857,8.316 0.857,8.430 C0.857,8.544 0.902,8.653 0.983,8.734 L3.263,11.013 C3.430,11.181 3.702,11.181 3.871,11.013 L11.012,3.871 C11.179,3.703 11.179,3.431 11.012,3.263 L11.012,3.263 Z"/>
</svg>
