<svg 
 xmlns="http://www.w3.org/2000/svg"
 xmlns:xlink="http://www.w3.org/1999/xlink"
 width="12px" height="10px">
<path fill-rule="evenodd"  fill="rgb(51, 51, 51)"
 d="M11.778,3.930 L6.575,9.861 C6.430,9.930 6.214,9.999 6.069,9.999 C5.853,9.999 5.636,9.930 5.492,9.792 L0.217,3.930 C0.000,3.654 -0.072,3.378 0.072,3.102 L1.734,0.344 C1.879,0.136 2.096,-0.001 2.385,-0.001 L9.610,-0.001 C9.899,-0.001 10.116,0.136 10.260,0.344 L11.922,3.102 C12.067,3.378 11.994,3.654 11.778,3.930 ZM9.610,0.688 L2.385,0.688 L0.723,3.447 L5.998,9.309 L11.272,3.447 L9.610,0.688 ZM3.180,5.033 C3.035,4.895 3.107,4.689 3.252,4.620 C3.396,4.481 3.613,4.481 3.757,4.620 L5.998,7.033 L8.237,4.620 C8.382,4.481 8.599,4.412 8.816,4.620 C8.960,4.758 8.960,4.964 8.816,5.102 L5.998,8.137 L3.180,5.033 Z"/>
</svg>
