<svg 
 xmlns="http://www.w3.org/2000/svg"
 xmlns:xlink="http://www.w3.org/1999/xlink"
 width="203px" height="147px">
<path fill-rule="evenodd"  fill="none"
 d="M-0.000,-0.000 L9.999,-0.000 L9.999,7.000 L-0.000,7.000 L-0.000,-0.000 Z"/>
<path fill-rule="evenodd"  fill="none"
 d="M197.999,-0.000 L202.999,-0.000 L202.999,5.000 L197.999,5.000 L197.999,-0.000 Z"/>
<path fill-rule="evenodd"  fill="none"
 d="M95.000,143.000 L103.999,143.000 L103.999,147.000 L95.000,147.000 L95.000,143.000 Z"/>
<path fill-rule="evenodd"  fill="rgb(23, 204, 95)"
 d="M100.999,30.999 L195.999,30.999 C198.760,30.999 200.999,33.238 200.999,35.999 C200.999,38.761 198.760,40.999 195.999,40.999 L100.999,40.999 C98.238,40.999 95.999,38.761 95.999,35.999 C95.999,33.238 98.238,30.999 100.999,30.999 Z"/>
<path fill-rule="evenodd"  fill="rgb(16, 142, 66)"
 d="M100.999,36.999 L195.999,36.999 C200.092,36.999 200.172,33.244 200.172,33.244 C200.172,33.244 200.999,34.981 200.999,35.999 C200.999,38.761 198.760,40.999 195.999,40.999 L100.999,40.999 C98.238,40.999 95.999,38.761 95.999,35.999 C95.999,34.917 96.926,33.098 96.926,33.098 C96.926,33.098 97.087,36.999 100.999,36.999 Z"/>
<path fill-rule="evenodd"  fill="rgb(23, 204, 95)"
 d="M5.999,30.999 L90.999,30.999 C93.760,30.999 95.999,33.238 95.999,35.999 C95.999,38.760 93.760,40.999 90.999,40.999 L5.999,40.999 C3.238,40.999 0.999,38.760 0.999,35.999 C0.999,33.238 3.238,30.999 5.999,30.999 Z"/>
<path fill-rule="evenodd"  fill="rgb(16, 142, 66)"
 d="M5.999,36.999 L90.999,36.999 C95.093,36.999 95.172,33.244 95.172,33.244 C95.172,33.244 95.999,34.981 95.999,35.999 C95.999,38.761 93.760,40.999 90.999,40.999 L5.999,40.999 C3.238,40.999 0.999,38.761 0.999,35.999 C0.999,34.917 1.926,33.098 1.926,33.098 C1.926,33.098 2.087,36.999 5.999,36.999 Z"/>
<path fill-rule="evenodd"  fill="rgb(23, 204, 95)"
 d="M5.999,40.999 L95.999,40.999 C98.760,40.999 100.999,43.238 100.999,45.999 C100.999,48.760 98.760,50.999 95.999,50.999 L5.999,50.999 C3.238,50.999 0.999,48.760 0.999,45.999 C0.999,43.238 3.238,40.999 5.999,40.999 Z"/>
<path fill-rule="evenodd"  fill="rgb(16, 142, 66)"
 d="M5.999,46.999 L95.999,46.999 C100.092,46.999 100.172,43.244 100.172,43.244 C100.172,43.244 100.999,44.981 100.999,45.999 C100.999,48.761 98.760,50.999 95.999,50.999 L5.999,50.999 C3.238,50.999 0.999,48.761 0.999,45.999 C0.999,44.917 1.926,43.098 1.926,43.098 C1.926,43.098 2.087,46.999 5.999,46.999 Z"/>
<path fill-rule="evenodd"  fill="rgb(23, 204, 95)"
 d="M5.999,50.999 L90.999,50.999 C93.760,50.999 95.999,53.238 95.999,55.999 C95.999,58.761 93.760,60.999 90.999,60.999 L5.999,60.999 C3.238,60.999 0.999,58.761 0.999,55.999 C0.999,53.238 3.238,50.999 5.999,50.999 Z"/>
<path fill-rule="evenodd"  fill="rgb(16, 142, 66)"
 d="M5.999,56.999 L90.999,56.999 C95.093,56.999 95.172,53.244 95.172,53.244 C95.172,53.244 95.999,54.981 95.999,55.999 C95.999,58.761 93.760,60.999 90.999,60.999 L5.999,60.999 C3.238,60.999 0.999,58.761 0.999,55.999 C0.999,54.917 1.926,53.098 1.926,53.098 C1.926,53.098 2.087,56.999 5.999,56.999 Z"/>
<path fill-rule="evenodd"  fill="rgb(23, 204, 95)"
 d="M5.999,60.999 L85.999,60.999 C88.760,60.999 90.999,63.238 90.999,65.999 C90.999,68.761 88.760,70.999 85.999,70.999 L5.999,70.999 C3.238,70.999 0.999,68.761 0.999,65.999 C0.999,63.238 3.238,60.999 5.999,60.999 Z"/>
<path fill-rule="evenodd"  fill="rgb(16, 142, 66)"
 d="M5.999,66.999 L85.999,66.999 C90.093,66.999 90.172,63.244 90.172,63.244 C90.172,63.244 90.999,64.981 90.999,65.999 C90.999,68.761 88.760,70.999 85.999,70.999 L5.999,70.999 C3.238,70.999 0.999,68.761 0.999,65.999 C0.999,64.917 1.926,63.098 1.926,63.098 C1.926,63.098 2.087,66.999 5.999,66.999 Z"/>
<path fill-rule="evenodd"  fill="rgb(23, 204, 95)"
 d="M5.999,70.999 L90.999,70.999 C93.760,70.999 95.999,73.238 95.999,75.999 C95.999,78.761 93.760,80.999 90.999,80.999 L5.999,80.999 C3.238,80.999 0.999,78.761 0.999,75.999 C0.999,73.238 3.238,70.999 5.999,70.999 Z"/>
<path fill-rule="evenodd"  fill="rgb(16, 142, 66)"
 d="M5.999,76.999 L90.999,76.999 C95.093,76.999 95.172,73.244 95.172,73.244 C95.172,73.244 95.999,74.981 95.999,75.999 C95.999,78.761 93.760,80.999 90.999,80.999 L5.999,80.999 C3.238,80.999 0.999,78.761 0.999,75.999 C0.999,74.918 1.926,73.098 1.926,73.098 C1.926,73.098 2.087,76.999 5.999,76.999 Z"/>
<path fill-rule="evenodd"  fill="rgb(23, 204, 95)"
 d="M5.999,80.999 L95.999,80.999 C98.760,80.999 100.999,83.238 100.999,85.999 C100.999,88.760 98.760,90.999 95.999,90.999 L5.999,90.999 C3.238,90.999 0.999,88.760 0.999,85.999 C0.999,83.238 3.238,80.999 5.999,80.999 Z"/>
<path fill-rule="evenodd"  fill="rgb(16, 142, 66)"
 d="M5.999,86.999 L95.999,86.999 C100.092,86.999 100.172,83.244 100.172,83.244 C100.172,83.244 100.999,84.981 100.999,85.999 C100.999,88.761 98.760,90.999 95.999,90.999 L5.999,90.999 C3.238,90.999 0.999,88.761 0.999,85.999 C0.999,84.917 1.926,83.098 1.926,83.098 C1.926,83.098 2.087,86.999 5.999,86.999 Z"/>
<path fill-rule="evenodd"  fill="rgb(23, 204, 95)"
 d="M5.999,90.999 L100.999,90.999 C103.761,90.999 105.999,93.238 105.999,95.999 C105.999,98.760 103.761,100.999 100.999,100.999 L5.999,100.999 C3.238,100.999 0.999,98.760 0.999,95.999 C0.999,93.238 3.238,90.999 5.999,90.999 Z"/>
<path fill-rule="evenodd"  fill="rgb(16, 142, 66)"
 d="M5.999,96.999 L100.999,96.999 C105.092,96.999 105.172,93.244 105.172,93.244 C105.172,93.244 105.999,94.981 105.999,95.999 C105.999,98.760 103.760,100.999 100.999,100.999 L5.999,100.999 C3.238,100.999 0.999,98.760 0.999,95.999 C0.999,94.917 1.926,93.098 1.926,93.098 C1.926,93.098 2.087,96.999 5.999,96.999 Z"/>
<path fill-rule="evenodd"  fill="rgb(23, 204, 95)"
 d="M5.999,100.999 L105.999,100.999 C108.760,100.999 110.999,103.238 110.999,105.999 C110.999,108.761 108.760,110.999 105.999,110.999 L5.999,110.999 C3.238,110.999 0.999,108.761 0.999,105.999 C0.999,103.238 3.238,100.999 5.999,100.999 Z"/>
<path fill-rule="evenodd"  fill="rgb(16, 142, 66)"
 d="M5.999,106.999 L105.999,106.999 C110.092,106.999 110.172,103.244 110.172,103.244 C110.172,103.244 110.999,104.981 110.999,105.999 C110.999,108.761 108.760,110.999 105.999,110.999 L5.999,110.999 C3.238,110.999 0.999,108.761 0.999,105.999 C0.999,104.917 1.926,103.098 1.926,103.098 C1.926,103.098 2.087,106.999 5.999,106.999 Z"/>
<path fill-rule="evenodd"  fill="rgb(23, 204, 95)"
 d="M5.999,110.999 L100.999,110.999 C103.761,110.999 105.999,113.238 105.999,115.999 C105.999,118.761 103.761,120.999 100.999,120.999 L5.999,120.999 C3.238,120.999 0.999,118.761 0.999,115.999 C0.999,113.238 3.238,110.999 5.999,110.999 Z"/>
<path fill-rule="evenodd"  fill="rgb(16, 142, 66)"
 d="M5.999,116.999 L100.999,116.999 C105.092,116.999 105.172,113.244 105.172,113.244 C105.172,113.244 105.999,114.981 105.999,115.999 C105.999,118.761 103.760,120.999 100.999,120.999 L5.999,120.999 C3.238,120.999 0.999,118.761 0.999,115.999 C0.999,114.918 1.926,113.098 1.926,113.098 C1.926,113.098 2.087,116.999 5.999,116.999 Z"/>
<path fill-rule="evenodd"  fill="rgb(23, 204, 95)"
 d="M5.999,120.999 L95.999,120.999 C98.760,120.999 100.999,123.238 100.999,125.999 C100.999,128.761 98.760,130.999 95.999,130.999 L5.999,130.999 C3.238,130.999 0.999,128.761 0.999,125.999 C0.999,123.238 3.238,120.999 5.999,120.999 Z"/>
<path fill-rule="evenodd"  fill="rgb(16, 142, 66)"
 d="M5.999,126.999 L95.999,126.999 C100.092,126.999 100.172,123.244 100.172,123.244 C100.172,123.244 100.999,124.981 100.999,125.999 C100.999,128.761 98.760,130.999 95.999,130.999 L5.999,130.999 C3.238,130.999 0.999,128.761 0.999,125.999 C0.999,124.918 1.926,123.098 1.926,123.098 C1.926,123.098 2.087,126.999 5.999,126.999 Z"/>
<path fill-rule="evenodd"  fill="rgb(23, 204, 95)"
 d="M105.999,41.000 L196.000,41.000 C198.761,41.000 201.000,43.238 201.000,45.999 L201.000,45.999 C201.000,48.761 198.761,51.000 196.000,51.000 L105.999,51.000 C103.238,51.000 100.999,48.761 100.999,45.999 L100.999,45.999 C100.999,43.238 103.238,41.000 105.999,41.000 Z"/>
<path fill-rule="evenodd"  fill="rgb(16, 142, 66)"
 d="M196.000,46.999 L106.000,46.999 C101.906,46.999 101.827,43.244 101.827,43.244 C101.827,43.244 100.999,44.981 100.999,45.999 C100.999,48.761 103.239,50.999 106.000,50.999 L196.000,50.999 C198.761,50.999 201.000,48.761 201.000,45.999 C201.000,44.917 200.073,43.098 200.073,43.098 C200.073,43.098 199.912,46.999 196.000,46.999 Z"/>
<path fill-rule="evenodd"  fill="rgb(23, 204, 95)"
 d="M100.999,51.000 L196.000,51.000 C198.761,51.000 201.000,53.238 201.000,56.000 L201.000,56.000 C201.000,58.761 198.761,61.000 196.000,61.000 L100.999,61.000 C98.238,61.000 95.999,58.761 95.999,56.000 L95.999,56.000 C95.999,53.238 98.238,51.000 100.999,51.000 Z"/>
<path fill-rule="evenodd"  fill="rgb(16, 142, 66)"
 d="M196.000,56.999 L100.999,56.999 C96.907,56.999 96.827,53.244 96.827,53.244 C96.827,53.244 96.000,54.981 96.000,55.999 C96.000,58.761 98.238,60.999 100.999,60.999 L196.000,60.999 C198.761,60.999 201.000,58.761 201.000,55.999 C201.000,54.917 200.073,53.098 200.073,53.098 C200.073,53.098 199.912,56.999 196.000,56.999 Z"/>
<path fill-rule="evenodd"  fill="rgb(23, 204, 95)"
 d="M95.999,61.000 L196.000,61.000 C198.761,61.000 201.000,63.238 201.000,66.000 L201.000,66.000 C201.000,68.761 198.761,71.000 196.000,71.000 L95.999,71.000 C93.238,71.000 90.999,68.761 90.999,66.000 L90.999,66.000 C90.999,63.238 93.238,61.000 95.999,61.000 Z"/>
<path fill-rule="evenodd"  fill="rgb(16, 142, 66)"
 d="M196.000,66.999 L96.000,66.999 C91.907,66.999 91.826,63.244 91.826,63.244 C91.826,63.244 91.000,64.981 91.000,65.999 C91.000,68.761 93.239,70.999 96.000,70.999 L196.000,70.999 C198.761,70.999 201.000,68.761 201.000,65.999 C201.000,64.917 200.073,63.098 200.073,63.098 C200.073,63.098 199.912,66.999 196.000,66.999 Z"/>
<path fill-rule="evenodd"  fill="rgb(23, 204, 95)"
 d="M100.999,71.000 L196.000,71.000 C198.761,71.000 201.000,73.238 201.000,75.999 L201.000,76.000 C201.000,78.761 198.761,81.000 196.000,81.000 L100.999,81.000 C98.238,81.000 95.999,78.761 95.999,76.000 L95.999,75.999 C95.999,73.238 98.238,71.000 100.999,71.000 Z"/>
<path fill-rule="evenodd"  fill="rgb(16, 142, 66)"
 d="M196.000,76.999 L100.999,76.999 C96.907,76.999 96.827,73.244 96.827,73.244 C96.827,73.244 96.000,74.981 96.000,75.999 C96.000,78.761 98.238,80.999 100.999,80.999 L196.000,80.999 C198.761,80.999 201.000,78.761 201.000,75.999 C201.000,74.918 200.073,73.098 200.073,73.098 C200.073,73.098 199.912,76.999 196.000,76.999 Z"/>
<path fill-rule="evenodd"  fill="rgb(23, 204, 95)"
 d="M105.999,81.000 L196.000,81.000 C198.761,81.000 201.000,83.238 201.000,86.000 L201.000,86.000 C201.000,88.761 198.761,91.000 196.000,91.000 L105.999,91.000 C103.238,91.000 100.999,88.761 100.999,86.000 L100.999,86.000 C100.999,83.238 103.238,81.000 105.999,81.000 Z"/>
<path fill-rule="evenodd"  fill="rgb(16, 142, 66)"
 d="M196.000,86.999 L106.000,86.999 C101.906,86.999 101.827,83.244 101.827,83.244 C101.827,83.244 100.999,84.981 100.999,85.999 C100.999,88.761 103.239,90.999 106.000,90.999 L196.000,90.999 C198.761,90.999 201.000,88.761 201.000,85.999 C201.000,84.917 200.073,83.098 200.073,83.098 C200.073,83.098 199.912,86.999 196.000,86.999 Z"/>
<path fill-rule="evenodd"  fill="rgb(23, 204, 95)"
 d="M110.999,91.000 L196.000,91.000 C198.761,91.000 201.000,93.238 201.000,96.000 L201.000,96.000 C201.000,98.761 198.761,101.000 196.000,101.000 L110.999,101.000 C108.238,101.000 105.999,98.761 105.999,96.000 L105.999,96.000 C105.999,93.238 108.238,91.000 110.999,91.000 Z"/>
<path fill-rule="evenodd"  fill="rgb(16, 142, 66)"
 d="M196.000,96.999 L111.000,96.999 C106.906,96.999 106.827,93.244 106.827,93.244 C106.827,93.244 106.000,94.981 106.000,95.999 C106.000,98.760 108.239,100.999 111.000,100.999 L196.000,100.999 C198.761,100.999 201.000,98.760 201.000,95.999 C201.000,94.917 200.073,93.098 200.073,93.098 C200.073,93.098 199.912,96.999 196.000,96.999 Z"/>
<path fill-rule="evenodd"  fill="rgb(23, 204, 95)"
 d="M115.999,101.000 L196.000,101.000 C198.761,101.000 201.000,103.238 201.000,105.999 L201.000,105.999 C201.000,108.761 198.761,111.000 196.000,111.000 L115.999,111.000 C113.238,111.000 111.000,108.761 111.000,105.999 L111.000,105.999 C111.000,103.238 113.238,101.000 115.999,101.000 Z"/>
<path fill-rule="evenodd"  fill="rgb(16, 142, 66)"
 d="M196.000,106.999 L116.000,106.999 C111.906,106.999 111.827,103.244 111.827,103.244 C111.827,103.244 111.000,104.981 111.000,105.999 C111.000,108.761 113.239,110.999 116.000,110.999 L196.000,110.999 C198.761,110.999 201.000,108.761 201.000,105.999 C201.000,104.917 200.073,103.098 200.073,103.098 C200.073,103.098 199.912,106.999 196.000,106.999 Z"/>
<path fill-rule="evenodd"  fill="rgb(23, 204, 95)"
 d="M110.999,111.000 L196.000,111.000 C198.761,111.000 201.000,113.238 201.000,116.000 L201.000,116.000 C201.000,118.761 198.761,121.000 196.000,121.000 L110.999,121.000 C108.238,121.000 105.999,118.761 105.999,116.000 L105.999,116.000 C105.999,113.238 108.238,111.000 110.999,111.000 Z"/>
<path fill-rule="evenodd"  fill="rgb(16, 142, 66)"
 d="M196.000,116.999 L111.000,116.999 C106.906,116.999 106.827,113.244 106.827,113.244 C106.827,113.244 106.000,114.981 106.000,115.999 C106.000,118.761 108.239,120.999 111.000,120.999 L196.000,120.999 C198.761,120.999 201.000,118.761 201.000,115.999 C201.000,114.918 200.073,113.098 200.073,113.098 C200.073,113.098 199.912,116.999 196.000,116.999 Z"/>
<path fill-rule="evenodd"  fill="rgb(23, 204, 95)"
 d="M105.999,121.000 L196.000,121.000 C198.761,121.000 201.000,123.238 201.000,126.000 L201.000,126.000 C201.000,128.761 198.761,131.000 196.000,131.000 L105.999,131.000 C103.238,131.000 100.999,128.761 100.999,126.000 L100.999,126.000 C100.999,123.238 103.238,121.000 105.999,121.000 Z"/>
<path fill-rule="evenodd"  fill="rgb(16, 142, 66)"
 d="M196.000,126.999 L106.000,126.999 C101.906,126.999 101.827,123.244 101.827,123.244 C101.827,123.244 100.999,124.981 100.999,125.999 C100.999,128.761 103.239,130.999 106.000,130.999 L196.000,130.999 C198.761,130.999 201.000,128.761 201.000,125.999 C201.000,124.918 200.073,123.098 200.073,123.098 C200.073,123.098 199.912,126.999 196.000,126.999 Z"/>
<path fill-rule="evenodd"  fill="rgb(51, 51, 51)"
 d="M95.999,10.999 C98.760,10.999 100.999,13.238 100.999,15.999 C100.999,18.761 98.760,20.999 95.999,20.999 C93.238,20.999 90.999,18.761 90.999,15.999 C90.999,13.238 93.238,10.999 95.999,10.999 Z"/>
<path fill-rule="evenodd"  fill="rgb(51, 51, 51)"
 d="M102.999,17.999 L129.999,17.999 L129.999,21.999 L137.000,15.999 L129.999,9.999 L129.999,13.999 L102.999,13.999 L102.999,17.999 Z"/>
</svg>
