<svg 
 xmlns="http://www.w3.org/2000/svg"
 xmlns:xlink="http://www.w3.org/1999/xlink"
 width="277px" height="150px">
<path fill-rule="evenodd"  fill="rgb(127, 127, 127)"
 d="M129.011,108.749 C131.149,107.600 132.163,105.607 131.969,103.724 C132.177,101.731 131.149,99.848 129.011,98.698 L82.922,74.028 C80.881,72.879 78.437,72.353 75.993,72.353 C73.549,72.353 71.091,72.879 69.050,74.028 L22.961,98.601 C20.823,99.751 19.906,101.744 20.003,103.627 C19.906,105.620 20.823,107.600 22.961,108.749 L69.050,133.336 C71.091,134.485 73.535,135.011 75.993,135.011 C78.437,135.011 80.881,134.485 82.922,133.336 L129.011,108.749 Z"/>
<path fill-rule="evenodd"  fill="rgb(98, 98, 98)"
 d="M129.011,105.420 C131.149,104.271 132.163,102.277 131.969,100.395 C132.177,98.402 131.149,96.518 129.011,95.369 L82.922,70.699 C80.881,69.550 78.437,69.024 75.993,69.024 C73.549,69.024 71.091,69.550 69.050,70.699 L22.961,95.272 C20.823,96.422 19.906,98.415 20.003,100.298 C19.906,102.291 20.823,104.271 22.961,105.420 L69.050,130.007 C71.091,131.156 73.535,131.682 75.993,131.682 C78.437,131.682 80.881,131.156 82.922,130.007 L129.011,105.420 Z"/>
<path fill-rule="evenodd"  fill="rgb(127, 127, 127)"
 d="M129.011,104.154 C131.149,103.005 132.163,101.011 131.969,99.129 C132.177,97.136 131.149,95.253 129.011,94.103 L82.922,69.433 C80.881,68.284 78.437,67.758 75.993,67.758 C73.549,67.758 71.091,68.284 69.050,69.433 L22.961,94.006 C20.823,95.156 19.906,97.149 20.003,99.032 C19.906,101.025 20.823,103.005 22.961,104.154 L69.050,128.741 C71.091,129.890 73.535,130.416 75.993,130.416 C78.437,130.416 80.881,129.890 82.922,128.741 L129.011,104.154 Z"/>
<path fill-rule="evenodd"  fill="rgb(98, 98, 98)"
 d="M129.011,100.420 C131.149,99.271 132.163,97.278 131.969,95.395 C132.177,93.402 131.149,91.518 129.011,90.369 L82.922,65.699 C80.881,64.550 78.437,64.024 75.993,64.024 C73.549,64.024 71.091,64.550 69.050,65.699 L22.961,90.272 C20.823,91.422 19.906,93.415 20.003,95.298 C19.906,97.291 20.823,99.271 22.961,100.420 L69.050,125.007 C71.091,126.156 73.535,126.682 75.993,126.682 C78.437,126.682 80.881,126.156 82.922,125.007 L129.011,100.420 Z"/>
<path fill-rule="evenodd"  fill="rgb(127, 127, 127)"
 d="M129.011,99.154 C131.149,98.005 132.163,96.012 131.969,94.129 C132.177,92.136 131.149,90.253 129.011,89.103 L82.922,64.433 C80.881,63.284 78.437,62.758 75.993,62.758 C73.549,62.758 71.091,63.284 69.050,64.433 L22.961,89.006 C20.823,90.156 19.906,92.149 20.003,94.032 C19.906,96.025 20.823,98.005 22.961,99.154 L69.050,123.741 C71.091,124.891 73.535,125.416 75.993,125.416 C78.437,125.416 80.881,124.891 82.922,123.741 L129.011,99.154 Z"/>
<path fill-rule="evenodd"  fill="rgb(98, 98, 98)"
 d="M129.011,95.420 C131.149,94.271 132.163,92.278 131.969,90.395 C132.177,88.401 131.149,86.518 129.011,85.369 L82.922,60.699 C80.881,59.550 78.437,59.024 75.993,59.024 C73.549,59.024 71.091,59.550 69.050,60.699 L22.961,85.273 C20.823,86.422 19.906,88.415 20.003,90.298 C19.906,92.291 20.823,94.271 22.961,95.420 L69.050,120.007 C71.091,121.156 73.535,121.682 75.993,121.682 C78.437,121.682 80.881,121.156 82.922,120.007 L129.011,95.420 Z"/>
<path fill-rule="evenodd"  fill="rgb(127, 127, 127)"
 d="M129.011,94.154 C131.149,93.005 132.163,91.012 131.969,89.129 C132.177,87.135 131.149,85.252 129.011,84.103 L82.922,59.433 C80.881,58.284 78.437,57.758 75.993,57.758 C73.549,57.758 71.091,58.284 69.050,59.433 L22.961,84.007 C20.823,85.156 19.906,87.149 20.003,89.032 C19.906,91.025 20.823,93.005 22.961,94.154 L69.050,118.741 C71.091,119.891 73.535,120.416 75.993,120.416 C78.437,120.416 80.881,119.891 82.922,118.741 L129.011,94.154 Z"/>
<path fill-rule="evenodd"  fill="rgb(98, 98, 98)"
 d="M129.011,90.420 C131.149,89.271 132.163,87.278 131.969,85.395 C132.177,83.402 131.149,81.518 129.011,80.369 L82.922,55.699 C80.881,54.550 78.437,54.024 75.993,54.024 C73.549,54.024 71.091,54.550 69.050,55.699 L22.961,80.272 C20.823,81.421 19.906,83.415 20.003,85.298 C19.906,87.291 20.823,89.271 22.961,90.420 L69.050,115.007 C71.091,116.156 73.535,116.682 75.993,116.682 C78.437,116.682 80.881,116.156 82.922,115.007 L129.011,90.420 Z"/>
<path fill-rule="evenodd"  fill="rgb(127, 127, 127)"
 d="M129.011,89.155 C131.149,88.005 132.163,86.012 131.969,84.129 C132.177,82.136 131.149,80.252 129.011,79.103 L82.922,54.433 C80.881,53.284 78.437,52.758 75.993,52.758 C73.549,52.758 71.091,53.284 69.050,54.433 L22.961,79.007 C20.823,80.156 19.906,82.149 20.003,84.032 C19.906,86.025 20.823,88.005 22.961,89.155 L69.050,113.741 C71.091,114.890 73.535,115.416 75.993,115.416 C78.437,115.416 80.881,114.890 82.922,113.741 L129.011,89.155 Z"/>
<path fill-rule="evenodd"  fill="rgb(98, 98, 98)"
 d="M129.011,85.420 C131.149,84.271 132.163,82.278 131.969,80.395 C132.177,78.402 131.149,76.518 129.011,75.369 L82.922,50.699 C80.881,49.550 78.437,49.024 75.993,49.024 C73.549,49.024 71.091,49.550 69.050,50.699 L22.961,75.273 C20.823,76.421 19.906,78.415 20.003,80.298 C19.906,82.291 20.823,84.271 22.961,85.420 L69.050,110.007 C71.091,111.156 73.535,111.682 75.993,111.682 C78.437,111.682 80.881,111.156 82.922,110.007 L129.011,85.420 Z"/>
<path fill-rule="evenodd"  fill="rgb(127, 127, 127)"
 d="M129.011,84.154 C131.149,83.005 132.163,81.012 131.969,79.129 C132.177,77.136 131.149,75.252 129.011,74.103 L82.922,49.433 C80.881,48.284 78.437,47.758 75.993,47.758 C73.549,47.758 71.091,48.284 69.050,49.433 L22.961,74.007 C20.823,75.156 19.906,77.149 20.003,79.032 C19.906,81.025 20.823,83.005 22.961,84.154 L69.050,108.741 C71.091,109.891 73.535,110.416 75.993,110.416 C78.437,110.416 80.881,109.891 82.922,108.741 L129.011,84.154 Z"/>
<path fill-rule="evenodd"  fill="rgb(98, 98, 98)"
 d="M129.011,80.420 C131.149,79.271 132.163,77.278 131.969,75.395 C132.177,73.402 131.149,71.518 129.011,70.369 L82.922,45.699 C80.881,44.550 78.437,44.024 75.993,44.024 C73.549,44.024 71.091,44.550 69.050,45.699 L22.961,70.273 C20.823,71.422 19.906,73.415 20.003,75.298 C19.906,77.291 20.823,79.271 22.961,80.420 L69.050,105.007 C71.091,106.156 73.535,106.682 75.993,106.682 C78.437,106.682 80.881,106.156 82.922,105.007 L129.011,80.420 Z"/>
<path fill-rule="evenodd"  fill="rgb(127, 127, 127)"
 d="M129.011,79.155 C131.149,78.005 132.163,76.012 131.969,74.129 C132.177,72.136 131.149,70.253 129.011,69.103 L82.922,44.433 C80.881,43.284 78.437,42.758 75.993,42.758 C73.549,42.758 71.091,43.284 69.050,44.433 L22.961,69.007 C20.823,70.156 19.906,72.149 20.003,74.032 C19.906,76.025 20.823,78.005 22.961,79.155 L69.050,103.741 C71.091,104.890 73.535,105.416 75.993,105.416 C78.437,105.416 80.881,104.890 82.922,103.741 L129.011,79.155 Z"/>
<path fill-rule="evenodd"  fill="rgb(98, 98, 98)"
 d="M129.011,75.420 C131.149,74.271 132.163,72.278 131.969,70.395 C132.177,68.402 131.149,66.518 129.011,65.369 L82.922,40.699 C80.881,39.550 78.437,39.024 75.993,39.024 C73.549,39.024 71.091,39.550 69.050,40.699 L22.961,65.272 C20.823,66.422 19.906,68.415 20.003,70.297 C19.906,72.291 20.823,74.271 22.961,75.420 L69.050,100.007 C71.091,101.156 73.535,101.682 75.993,101.682 C78.437,101.682 80.881,101.156 82.922,100.007 L129.011,75.420 Z"/>
<path fill-rule="evenodd"  fill="rgb(127, 127, 127)"
 d="M129.011,74.154 C131.149,73.005 132.163,71.012 131.969,69.129 C132.177,67.136 131.149,65.252 129.011,64.103 L82.922,39.433 C80.881,38.284 78.437,37.758 75.993,37.758 C73.549,37.758 71.091,38.284 69.050,39.433 L22.961,64.006 C20.823,65.156 19.906,67.149 20.003,69.032 C19.906,71.025 20.823,73.005 22.961,74.154 L69.050,98.741 C71.091,99.890 73.535,100.416 75.993,100.416 C78.437,100.416 80.881,99.890 82.922,98.741 L129.011,74.154 Z"/>
<path fill-rule="evenodd"  fill="rgb(98, 98, 98)"
 d="M129.011,70.420 C131.149,69.271 132.163,67.278 131.969,65.395 C132.177,63.402 131.149,61.518 129.011,60.369 L82.922,35.699 C80.881,34.550 78.437,34.024 75.993,34.024 C73.549,34.024 71.091,34.550 69.050,35.699 L22.961,60.272 C20.823,61.422 19.906,63.415 20.003,65.297 C19.906,67.291 20.823,69.271 22.961,70.420 L69.050,95.007 C71.091,96.156 73.535,96.682 75.993,96.682 C78.437,96.682 80.881,96.156 82.922,95.007 L129.011,70.420 Z"/>
<path fill-rule="evenodd"  fill="rgb(127, 127, 127)"
 d="M129.011,69.154 C131.149,68.005 132.163,66.012 131.969,64.129 C132.177,62.136 131.149,60.253 129.011,59.103 L82.922,34.434 C80.881,33.284 78.437,32.758 75.993,32.758 C73.549,32.758 71.091,33.284 69.050,34.434 L22.961,59.007 C20.823,60.156 19.906,62.149 20.003,64.032 C19.906,66.025 20.823,68.005 22.961,69.154 L69.050,93.741 C71.091,94.891 73.535,95.416 75.993,95.416 C78.437,95.416 80.881,94.891 82.922,93.741 L129.011,69.154 Z"/>
<path fill-rule="evenodd"  fill="rgb(98, 98, 98)"
 d="M129.011,65.420 C131.149,64.271 132.163,62.278 131.969,60.395 C132.177,58.401 131.149,56.518 129.011,55.369 L82.922,30.699 C80.881,29.550 78.437,29.024 75.993,29.024 C73.549,29.024 71.091,29.550 69.050,30.699 L22.961,55.272 C20.823,56.421 19.906,58.415 20.003,60.298 C19.906,62.291 20.823,64.271 22.961,65.420 L69.050,90.007 C71.091,91.156 73.535,91.682 75.993,91.682 C78.437,91.682 80.881,91.156 82.922,90.007 L129.011,65.420 Z"/>
<path fill-rule="evenodd"  fill="rgb(127, 127, 127)"
 d="M129.011,64.154 C131.149,63.005 132.163,61.012 131.969,59.129 C132.177,57.136 131.149,55.252 129.011,54.103 L82.922,29.433 C80.881,28.284 78.437,27.758 75.993,27.758 C73.549,27.758 71.091,28.284 69.050,29.433 L22.961,54.007 C20.823,55.156 19.906,57.149 20.003,59.032 C19.906,61.025 20.823,63.005 22.961,64.154 L69.050,88.741 C71.091,89.890 73.535,90.416 75.993,90.416 C78.437,90.416 80.881,89.890 82.922,88.741 L129.011,64.154 Z"/>
<path fill-rule="evenodd"  fill="rgb(98, 98, 98)"
 d="M129.011,60.420 C131.149,59.271 132.163,57.278 131.969,55.395 C132.177,53.401 131.149,51.518 129.011,50.369 L82.922,25.699 C80.881,24.550 78.437,24.024 75.993,24.024 C73.549,24.024 71.091,24.550 69.050,25.699 L22.961,50.273 C20.823,51.421 19.906,53.415 20.003,55.298 C19.906,57.291 20.823,59.271 22.961,60.420 L69.050,85.007 C71.091,86.156 73.535,86.682 75.993,86.682 C78.437,86.682 80.881,86.156 82.922,85.007 L129.011,60.420 Z"/>
<path fill-rule="evenodd"  fill="rgb(127, 127, 127)"
 d="M129.011,59.154 C131.149,58.005 132.163,56.012 131.969,54.129 C132.177,52.136 131.149,50.252 129.011,49.103 L82.922,24.433 C80.881,23.284 78.437,22.758 75.993,22.758 C73.549,22.758 71.091,23.284 69.050,24.433 L22.961,49.007 C20.823,50.156 19.906,52.149 20.003,54.032 C19.906,56.025 20.823,58.005 22.961,59.154 L69.050,83.741 C71.091,84.891 73.535,85.417 75.993,85.417 C78.437,85.417 80.881,84.891 82.922,83.741 L129.011,59.154 Z"/>
<path fill-rule="evenodd"  fill="rgb(98, 98, 98)"
 d="M129.011,55.420 C131.149,54.271 132.163,52.278 131.969,50.395 C132.177,48.402 131.149,46.518 129.011,45.369 L82.922,20.699 C80.881,19.550 78.437,19.024 75.993,19.024 C73.549,19.024 71.091,19.550 69.050,20.699 L22.961,45.273 C20.823,46.421 19.906,48.415 20.003,50.298 C19.906,52.291 20.823,54.271 22.961,55.420 L69.050,80.007 C71.091,81.156 73.535,81.682 75.993,81.682 C78.437,81.682 80.881,81.156 82.922,80.007 L129.011,55.420 Z"/>
<path fill-rule="evenodd"  fill="rgb(127, 127, 127)"
 d="M129.011,54.155 C131.149,53.005 132.163,51.012 131.969,49.129 C132.177,47.136 131.149,45.253 129.011,44.103 L82.922,19.433 C80.881,18.284 78.437,17.758 75.993,17.758 C73.549,17.758 71.091,18.284 69.050,19.433 L22.961,44.007 C20.823,45.156 19.906,47.149 20.003,49.032 C19.906,51.025 20.823,53.005 22.961,54.155 L69.050,78.741 C71.091,79.890 73.535,80.416 75.993,80.416 C78.437,80.416 80.881,79.890 82.922,78.741 L129.011,54.155 Z"/>
<path fill-rule="evenodd"  fill="rgb(98, 98, 98)"
 d="M129.011,50.420 C131.149,49.271 132.163,47.277 131.969,45.395 C132.177,43.402 131.149,41.518 129.011,40.369 L82.922,15.699 C80.881,14.550 78.437,14.024 75.993,14.024 C73.549,14.024 71.091,14.550 69.050,15.699 L22.961,40.272 C20.823,41.422 19.906,43.415 20.003,45.298 C19.906,47.291 20.823,49.271 22.961,50.420 L69.050,75.007 C71.091,76.156 73.535,76.682 75.993,76.682 C78.437,76.682 80.881,76.156 82.922,75.007 L129.011,50.420 Z"/>
<path fill-rule="evenodd"  fill="rgb(127, 127, 127)"
 d="M129.011,49.154 C131.149,48.005 132.163,46.012 131.969,44.129 C132.177,42.136 131.149,40.252 129.011,39.103 L82.922,14.433 C80.881,13.284 78.437,12.758 75.993,12.758 C73.549,12.758 71.091,13.284 69.050,14.433 L22.961,39.007 C20.823,40.156 19.906,42.149 20.003,44.032 C19.906,46.025 20.823,48.005 22.961,49.154 L69.050,73.741 C71.091,74.890 73.535,75.416 75.993,75.416 C78.437,75.416 80.881,74.890 82.922,73.741 L129.011,49.154 Z"/>
<path fill-rule="evenodd"  fill="rgb(98, 98, 98)"
 d="M129.011,45.420 C131.149,44.271 132.163,42.277 131.969,40.395 C132.177,38.402 131.149,36.518 129.011,35.369 L82.922,10.699 C80.881,9.550 78.437,9.024 75.993,9.024 C73.549,9.024 71.091,9.550 69.050,10.699 L22.961,35.272 C20.823,36.422 19.906,38.415 20.003,40.298 C19.906,42.291 20.823,44.271 22.961,45.420 L69.050,70.007 C71.091,71.156 73.535,71.682 75.993,71.682 C78.437,71.682 80.881,71.156 82.922,70.007 L129.011,45.420 Z"/>
<path fill-rule="evenodd"  fill="rgb(127, 127, 127)"
 d="M129.011,44.154 C131.149,43.005 132.163,41.012 131.969,39.129 C132.177,37.136 131.149,35.253 129.011,34.103 L82.922,9.433 C80.881,8.284 78.437,7.758 75.993,7.758 C73.549,7.758 71.091,8.284 69.050,9.433 L22.961,34.007 C20.823,35.156 19.906,37.149 20.003,39.032 C19.906,41.025 20.823,43.005 22.961,44.154 L69.050,68.741 C71.091,69.890 73.535,70.416 75.993,70.416 C78.437,70.416 80.881,69.890 82.922,68.741 L129.011,44.154 Z"/>
<path fill-rule="evenodd"  fill="rgb(108, 108, 108)"
 d="M129.011,40.420 C131.149,39.271 132.163,37.277 131.969,35.395 C132.177,33.401 131.149,31.518 129.011,30.369 L82.922,5.699 C80.881,4.550 78.437,4.024 75.993,4.024 C73.549,4.024 71.091,4.550 69.050,5.699 L22.961,30.272 C20.823,31.422 19.906,33.415 20.003,35.298 C19.906,37.291 20.823,39.271 22.961,40.420 L69.050,65.007 C71.091,66.156 73.535,66.682 75.993,66.682 C78.437,66.682 80.881,66.156 82.922,65.007 L129.011,40.420 Z"/>
<path fill-rule="evenodd"  fill="rgb(127, 127, 127)"
 d="M129.011,39.154 C131.149,38.005 132.163,36.012 131.969,34.129 C132.177,32.136 131.149,30.252 129.011,29.103 L82.922,4.433 C80.881,3.284 78.437,2.758 75.993,2.758 C73.549,2.758 71.091,3.284 69.050,4.433 L22.961,29.007 C20.823,30.156 19.906,32.149 20.003,34.032 C19.906,36.025 20.823,38.005 22.961,39.154 L69.050,63.741 C71.091,64.890 73.535,65.416 75.993,65.416 C78.437,65.416 80.881,64.890 82.922,63.741 L129.011,39.154 Z"/>
<path fill-rule="evenodd"  stroke="rgb(109, 109, 109)" stroke-width="1px" stroke-linecap="butt" stroke-linejoin="miter" fill="none"
 d="M117.685,38.051 C119.366,37.134 120.163,35.543 120.011,34.041 C120.174,32.450 119.366,30.947 117.685,30.030 L81.458,10.343 C79.854,9.426 77.933,9.006 76.012,9.006 C74.091,9.006 72.158,9.426 70.554,10.343 L34.327,29.953 C32.646,30.870 31.925,32.460 32.002,33.963 C31.925,35.553 32.646,37.134 34.327,38.051 L70.554,57.671 C72.158,58.588 74.080,59.008 76.012,59.008 C77.933,59.008 79.854,58.588 81.458,57.671 L117.685,38.051 Z"/>
<path fill-rule="evenodd"  stroke="rgb(28, 227, 107)" stroke-width="1px" stroke-linecap="butt" stroke-linejoin="miter" fill="none"
 d="M78.457,14.250 L76.852,13.540 L73.107,15.196 L80.597,15.196 L81.934,16.142 L70.432,16.142 L68.025,17.324 L85.144,17.324 L87.284,18.744 L65.618,18.744 L63.745,19.926 L90.226,19.926 L92.901,21.345 L60.536,21.345 L58.128,22.764 L96.110,22.764 L98.250,24.184 L55.186,24.184 L53.314,25.366 L101.727,25.602 L103.867,26.785 L49.569,27.022 L47.429,28.204 L107.345,28.441 L109.217,29.623 L44.487,29.860 L42.347,31.279 L112.100,31.279 L114.240,32.698 L38.602,32.698 L37.634,33.881 L115.519,34.354 L114.775,35.773 L39.137,35.773 L41.010,36.956 L110.822,37.429 L108.682,38.848 L45.289,38.848 L47.162,40.030 L106.007,40.030 L104.402,41.449 L50.639,41.449 L52.244,42.632 L100.123,42.868 L98.250,44.287 L55.988,44.287 L57.861,45.470 L94.773,45.470 L92.901,46.889 L61.338,47.125 L63.210,48.309 L88.621,48.545 L86.749,49.964 L67.758,49.964 L69.630,51.383 L83.272,51.147 L81.666,52.566 L73.642,52.802 L76.852,54.458 L78.724,53.748 "/>
<path fill-rule="evenodd"  opacity="0.302" fill="rgb(0, 0, 0)"
 d="M75.993,135.416 C78.437,135.416 80.881,134.890 82.922,133.741 L129.011,109.154 C131.149,108.005 132.163,106.011 131.969,104.129 C132.177,102.136 132.251,32.145 131.969,34.129 C132.163,37.088 131.137,38.850 128.999,39.999 L87.998,61.999 C85.957,63.148 78.022,66.288 76.998,65.998 C76.989,65.996 77.968,67.686 77.938,68.928 C77.924,69.533 76.907,70.268 76.888,71.118 C76.874,71.781 77.858,72.513 77.842,73.306 C77.827,74.039 76.810,74.825 76.794,75.658 C76.778,76.421 77.762,77.223 77.745,78.060 C77.729,78.874 76.712,79.721 76.695,80.597 C76.676,81.536 77.658,82.509 77.638,83.509 C77.623,84.302 76.607,85.111 76.591,85.935 C76.574,86.813 77.557,87.707 77.540,88.615 C77.529,89.188 76.518,89.767 76.507,90.351 C76.489,91.270 77.472,92.201 77.454,93.140 C77.438,93.990 76.422,94.846 76.406,95.707 C76.389,96.588 77.372,97.474 77.356,98.362 C77.339,99.255 76.322,100.151 76.306,101.046 C76.291,101.895 77.274,102.744 77.258,103.590 C77.244,104.336 76.231,105.080 76.217,105.821 C76.203,106.600 77.189,107.375 77.175,108.145 C77.158,109.032 76.141,109.912 76.126,110.782 C76.110,111.662 77.094,112.532 77.078,113.389 C77.063,114.185 76.049,114.969 76.035,115.739 C76.019,116.589 77.004,117.422 76.989,118.236 C76.974,119.049 75.960,119.844 75.946,120.615 C75.927,121.633 76.909,122.610 76.892,123.542 C76.879,124.280 75.866,124.989 75.854,125.667 C75.839,126.491 76.825,127.267 76.812,127.990 C76.798,128.743 75.785,129.438 75.774,130.068 C75.757,131.014 76.743,131.813 76.731,132.440 C76.713,133.467 75.703,134.033 75.703,134.033 C75.703,134.033 75.885,135.416 75.993,135.416 Z"/>
<path fill-rule="evenodd"  fill="rgb(127, 127, 127)"
 d="M251.011,108.749 C253.150,107.600 254.163,105.607 253.969,103.724 C254.177,101.731 253.150,99.848 251.011,98.698 L204.922,74.028 C202.881,72.879 200.437,72.353 197.994,72.353 C195.549,72.353 193.091,72.879 191.050,74.028 L144.962,98.601 C142.823,99.751 141.906,101.744 142.004,103.627 C141.906,105.620 142.823,107.600 144.962,108.749 L191.050,133.336 C193.091,134.485 195.535,135.011 197.994,135.011 C200.437,135.011 202.881,134.485 204.922,133.336 L251.011,108.749 Z"/>
<path fill-rule="evenodd"  fill="rgb(98, 98, 98)"
 d="M251.011,105.420 C253.150,104.271 254.163,102.277 253.969,100.395 C254.177,98.402 253.150,96.518 251.011,95.369 L204.922,70.699 C202.881,69.550 200.437,69.024 197.994,69.024 C195.549,69.024 193.091,69.550 191.050,70.699 L144.962,95.272 C142.823,96.422 141.906,98.415 142.004,100.298 C141.906,102.291 142.823,104.271 144.962,105.420 L191.050,130.007 C193.091,131.156 195.535,131.682 197.994,131.682 C200.437,131.682 202.881,131.156 204.922,130.007 L251.011,105.420 Z"/>
<path fill-rule="evenodd"  fill="rgb(127, 127, 127)"
 d="M251.011,104.154 C253.150,103.005 254.163,101.011 253.969,99.129 C254.177,97.136 253.150,95.253 251.011,94.103 L204.922,69.433 C202.881,68.284 200.437,67.758 197.994,67.758 C195.549,67.758 193.091,68.284 191.050,69.433 L144.962,94.006 C142.823,95.156 141.906,97.149 142.004,99.032 C141.906,101.025 142.823,103.005 144.962,104.154 L191.050,128.741 C193.091,129.890 195.535,130.416 197.994,130.416 C200.437,130.416 202.881,129.890 204.922,128.741 L251.011,104.154 Z"/>
<path fill-rule="evenodd"  fill="rgb(98, 98, 98)"
 d="M251.011,100.420 C253.150,99.271 254.163,97.278 253.969,95.395 C254.177,93.402 253.150,91.518 251.011,90.369 L204.922,65.699 C202.881,64.550 200.437,64.024 197.994,64.024 C195.549,64.024 193.091,64.550 191.050,65.699 L144.962,90.272 C142.823,91.422 141.906,93.415 142.004,95.298 C141.906,97.291 142.823,99.271 144.962,100.420 L191.050,125.007 C193.091,126.156 195.535,126.682 197.994,126.682 C200.437,126.682 202.881,126.156 204.922,125.007 L251.011,100.420 Z"/>
<path fill-rule="evenodd"  fill="rgb(127, 127, 127)"
 d="M251.011,99.154 C253.150,98.005 254.163,96.012 253.969,94.129 C254.177,92.136 253.150,90.253 251.011,89.103 L204.922,64.433 C202.881,63.284 200.437,62.758 197.994,62.758 C195.549,62.758 193.091,63.284 191.050,64.433 L144.962,89.006 C142.823,90.156 141.906,92.149 142.004,94.032 C141.906,96.025 142.823,98.005 144.962,99.154 L191.050,123.741 C193.091,124.891 195.535,125.416 197.994,125.416 C200.437,125.416 202.881,124.891 204.922,123.741 L251.011,99.154 Z"/>
<path fill-rule="evenodd"  fill="rgb(98, 98, 98)"
 d="M251.011,95.420 C253.150,94.271 254.163,92.278 253.969,90.395 C254.177,88.401 253.150,86.518 251.011,85.369 L204.922,60.699 C202.881,59.550 200.437,59.024 197.994,59.024 C195.549,59.024 193.091,59.550 191.050,60.699 L144.962,85.273 C142.823,86.422 141.906,88.415 142.004,90.298 C141.906,92.291 142.823,94.271 144.962,95.420 L191.050,120.007 C193.091,121.156 195.535,121.682 197.994,121.682 C200.437,121.682 202.881,121.156 204.922,120.007 L251.011,95.420 Z"/>
<path fill-rule="evenodd"  fill="rgb(127, 127, 127)"
 d="M251.011,94.154 C253.150,93.005 254.163,91.012 253.969,89.129 C254.177,87.135 253.150,85.252 251.011,84.103 L204.922,59.433 C202.881,58.284 200.437,57.758 197.994,57.758 C195.549,57.758 193.091,58.284 191.050,59.433 L144.962,84.007 C142.823,85.156 141.906,87.149 142.004,89.032 C141.906,91.025 142.823,93.005 144.962,94.154 L191.050,118.741 C193.091,119.891 195.535,120.416 197.994,120.416 C200.437,120.416 202.881,119.891 204.922,118.741 L251.011,94.154 Z"/>
<path fill-rule="evenodd"  fill="rgb(98, 98, 98)"
 d="M251.011,90.420 C253.150,89.271 254.163,87.278 253.969,85.395 C254.177,83.402 253.150,81.518 251.011,80.369 L204.922,55.699 C202.881,54.550 200.437,54.024 197.994,54.024 C195.549,54.024 193.091,54.550 191.050,55.699 L144.962,80.272 C142.823,81.421 141.906,83.415 142.004,85.298 C141.906,87.291 142.823,89.271 144.962,90.420 L191.050,115.007 C193.091,116.156 195.535,116.682 197.994,116.682 C200.437,116.682 202.881,116.156 204.922,115.007 L251.011,90.420 Z"/>
<path fill-rule="evenodd"  fill="rgb(127, 127, 127)"
 d="M251.011,89.155 C253.150,88.005 254.163,86.012 253.969,84.129 C254.177,82.136 253.150,80.252 251.011,79.103 L204.922,54.433 C202.881,53.284 200.437,52.758 197.994,52.758 C195.549,52.758 193.091,53.284 191.050,54.433 L144.962,79.007 C142.823,80.156 141.906,82.149 142.004,84.032 C141.906,86.025 142.823,88.005 144.962,89.155 L191.050,113.741 C193.091,114.890 195.535,115.416 197.994,115.416 C200.437,115.416 202.881,114.890 204.922,113.741 L251.011,89.155 Z"/>
<path fill-rule="evenodd"  fill="rgb(98, 98, 98)"
 d="M251.011,85.420 C253.150,84.271 254.163,82.278 253.969,80.395 C254.177,78.402 253.150,76.518 251.011,75.369 L204.922,50.699 C202.881,49.550 200.437,49.024 197.994,49.024 C195.549,49.024 193.091,49.550 191.050,50.699 L144.962,75.273 C142.823,76.421 141.906,78.415 142.004,80.298 C141.906,82.291 142.823,84.271 144.962,85.420 L191.050,110.007 C193.091,111.156 195.535,111.682 197.994,111.682 C200.437,111.682 202.881,111.156 204.922,110.007 L251.011,85.420 Z"/>
<path fill-rule="evenodd"  fill="rgb(127, 127, 127)"
 d="M251.011,84.154 C253.150,83.005 254.163,81.012 253.969,79.129 C254.177,77.136 253.150,75.252 251.011,74.103 L204.922,49.433 C202.881,48.284 200.437,47.758 197.994,47.758 C195.549,47.758 193.091,48.284 191.050,49.433 L144.962,74.007 C142.823,75.156 141.906,77.149 142.004,79.032 C141.906,81.025 142.823,83.005 144.962,84.154 L191.050,108.741 C193.091,109.891 195.535,110.416 197.994,110.416 C200.437,110.416 202.881,109.891 204.922,108.741 L251.011,84.154 Z"/>
<path fill-rule="evenodd"  fill="rgb(98, 98, 98)"
 d="M251.011,80.420 C253.150,79.271 254.163,77.278 253.969,75.395 C254.177,73.402 253.150,71.518 251.011,70.369 L204.922,45.699 C202.881,44.550 200.437,44.024 197.994,44.024 C195.549,44.024 193.091,44.550 191.050,45.699 L144.962,70.273 C142.823,71.422 141.906,73.415 142.004,75.298 C141.906,77.291 142.823,79.271 144.962,80.420 L191.050,105.007 C193.091,106.156 195.535,106.682 197.994,106.682 C200.437,106.682 202.881,106.156 204.922,105.007 L251.011,80.420 Z"/>
<path fill-rule="evenodd"  fill="rgb(127, 127, 127)"
 d="M251.011,79.155 C253.150,78.005 254.163,76.012 253.969,74.129 C254.177,72.136 253.150,70.253 251.011,69.103 L204.922,44.433 C202.881,43.284 200.437,42.758 197.994,42.758 C195.549,42.758 193.091,43.284 191.050,44.433 L144.962,69.007 C142.823,70.156 141.906,72.149 142.004,74.032 C141.906,76.025 142.823,78.005 144.962,79.155 L191.050,103.741 C193.091,104.890 195.535,105.416 197.994,105.416 C200.437,105.416 202.881,104.890 204.922,103.741 L251.011,79.155 Z"/>
<path fill-rule="evenodd"  fill="rgb(98, 98, 98)"
 d="M251.011,75.420 C253.150,74.271 254.163,72.278 253.969,70.395 C254.177,68.402 253.150,66.518 251.011,65.369 L204.922,40.699 C202.881,39.550 200.437,39.024 197.994,39.024 C195.549,39.024 193.091,39.550 191.050,40.699 L144.962,65.272 C142.823,66.422 141.906,68.415 142.004,70.297 C141.906,72.291 142.823,74.271 144.962,75.420 L191.050,100.007 C193.091,101.156 195.535,101.682 197.994,101.682 C200.437,101.682 202.881,101.156 204.922,100.007 L251.011,75.420 Z"/>
<path fill-rule="evenodd"  fill="rgb(127, 127, 127)"
 d="M251.011,74.154 C253.150,73.005 254.163,71.012 253.969,69.129 C254.177,67.136 253.150,65.252 251.011,64.103 L204.922,39.433 C202.881,38.284 200.437,37.758 197.994,37.758 C195.549,37.758 193.091,38.284 191.050,39.433 L144.962,64.006 C142.823,65.156 141.906,67.149 142.004,69.032 C141.906,71.025 142.823,73.005 144.962,74.154 L191.050,98.741 C193.091,99.890 195.535,100.416 197.994,100.416 C200.437,100.416 202.881,99.890 204.922,98.741 L251.011,74.154 Z"/>
<path fill-rule="evenodd"  fill="rgb(98, 98, 98)"
 d="M251.011,70.420 C253.150,69.271 254.163,67.278 253.969,65.395 C254.177,63.402 253.150,61.518 251.011,60.369 L204.922,35.699 C202.881,34.550 200.437,34.024 197.994,34.024 C195.549,34.024 193.091,34.550 191.050,35.699 L144.962,60.272 C142.823,61.422 141.906,63.415 142.004,65.297 C141.906,67.291 142.823,69.271 144.962,70.420 L191.050,95.007 C193.091,96.156 195.535,96.682 197.994,96.682 C200.437,96.682 202.881,96.156 204.922,95.007 L251.011,70.420 Z"/>
<path fill-rule="evenodd"  fill="rgb(127, 127, 127)"
 d="M251.011,69.154 C253.150,68.005 254.163,66.012 253.969,64.129 C254.177,62.136 253.150,60.253 251.011,59.103 L204.922,34.434 C202.881,33.284 200.437,32.758 197.994,32.758 C195.549,32.758 193.091,33.284 191.050,34.434 L144.962,59.007 C142.823,60.156 141.906,62.149 142.004,64.032 C141.906,66.025 142.823,68.005 144.962,69.154 L191.050,93.741 C193.091,94.891 195.535,95.416 197.994,95.416 C200.437,95.416 202.881,94.891 204.922,93.741 L251.011,69.154 Z"/>
<path fill-rule="evenodd"  fill="rgb(98, 98, 98)"
 d="M251.011,65.420 C253.150,64.271 254.163,62.278 253.969,60.395 C254.177,58.401 253.150,56.518 251.011,55.369 L204.922,30.699 C202.881,29.550 200.437,29.024 197.994,29.024 C195.549,29.024 193.091,29.550 191.050,30.699 L144.962,55.272 C142.823,56.421 141.906,58.415 142.004,60.298 C141.906,62.291 142.823,64.271 144.962,65.420 L191.050,90.007 C193.091,91.156 195.535,91.682 197.994,91.682 C200.437,91.682 202.881,91.156 204.922,90.007 L251.011,65.420 Z"/>
<path fill-rule="evenodd"  fill="rgb(127, 127, 127)"
 d="M251.011,64.154 C253.150,63.005 254.163,61.012 253.969,59.129 C254.177,57.136 253.150,55.252 251.011,54.103 L204.922,29.433 C202.881,28.284 200.437,27.758 197.994,27.758 C195.549,27.758 193.091,28.284 191.050,29.433 L144.962,54.007 C142.823,55.156 141.906,57.149 142.004,59.032 C141.906,61.025 142.823,63.005 144.962,64.154 L191.050,88.741 C193.091,89.890 195.535,90.416 197.994,90.416 C200.437,90.416 202.881,89.890 204.922,88.741 L251.011,64.154 Z"/>
<path fill-rule="evenodd"  fill="rgb(98, 98, 98)"
 d="M251.011,60.420 C253.150,59.271 254.163,57.278 253.969,55.395 C254.177,53.401 253.150,51.518 251.011,50.369 L204.922,25.699 C202.881,24.550 200.437,24.024 197.994,24.024 C195.549,24.024 193.091,24.550 191.050,25.699 L144.962,50.273 C142.823,51.421 141.906,53.415 142.004,55.298 C141.906,57.291 142.823,59.271 144.962,60.420 L191.050,85.007 C193.091,86.156 195.535,86.682 197.994,86.682 C200.437,86.682 202.881,86.156 204.922,85.007 L251.011,60.420 Z"/>
<path fill-rule="evenodd"  fill="rgb(127, 127, 127)"
 d="M251.011,59.154 C253.150,58.005 254.163,56.012 253.969,54.129 C254.177,52.136 253.150,50.252 251.011,49.103 L204.922,24.433 C202.881,23.284 200.437,22.758 197.994,22.758 C195.549,22.758 193.091,23.284 191.050,24.433 L144.962,49.007 C142.823,50.156 141.906,52.149 142.004,54.032 C141.906,56.025 142.823,58.005 144.962,59.154 L191.050,83.741 C193.091,84.891 195.535,85.417 197.994,85.417 C200.437,85.417 202.881,84.891 204.922,83.741 L251.011,59.154 Z"/>
<path fill-rule="evenodd"  fill="rgb(98, 98, 98)"
 d="M251.011,55.420 C253.150,54.271 254.163,52.278 253.969,50.395 C254.177,48.402 253.150,46.518 251.011,45.369 L204.922,20.699 C202.881,19.550 200.437,19.024 197.994,19.024 C195.549,19.024 193.091,19.550 191.050,20.699 L144.962,45.273 C142.823,46.421 141.906,48.415 142.004,50.298 C141.906,52.291 142.823,54.271 144.962,55.420 L191.050,80.007 C193.091,81.156 195.535,81.682 197.994,81.682 C200.437,81.682 202.881,81.156 204.922,80.007 L251.011,55.420 Z"/>
<path fill-rule="evenodd"  fill="rgb(127, 127, 127)"
 d="M251.011,54.155 C253.150,53.005 254.163,51.012 253.969,49.129 C254.177,47.136 253.150,45.253 251.011,44.103 L204.922,19.433 C202.881,18.284 200.437,17.758 197.994,17.758 C195.549,17.758 193.091,18.284 191.050,19.433 L144.962,44.007 C142.823,45.156 141.906,47.149 142.004,49.032 C141.906,51.025 142.823,53.005 144.962,54.155 L191.050,78.741 C193.091,79.890 195.535,80.416 197.994,80.416 C200.437,80.416 202.881,79.890 204.922,78.741 L251.011,54.155 Z"/>
<path fill-rule="evenodd"  fill="rgb(98, 98, 98)"
 d="M251.011,50.420 C253.150,49.271 254.163,47.277 253.969,45.395 C254.177,43.402 253.150,41.518 251.011,40.369 L204.922,15.699 C202.881,14.550 200.437,14.024 197.994,14.024 C195.549,14.024 193.091,14.550 191.050,15.699 L144.962,40.272 C142.823,41.422 141.906,43.415 142.004,45.298 C141.906,47.291 142.823,49.271 144.962,50.420 L191.050,75.007 C193.091,76.156 195.535,76.682 197.994,76.682 C200.437,76.682 202.881,76.156 204.922,75.007 L251.011,50.420 Z"/>
<path fill-rule="evenodd"  fill="rgb(127, 127, 127)"
 d="M251.011,49.154 C253.150,48.005 254.163,46.012 253.969,44.129 C254.177,42.136 253.150,40.252 251.011,39.103 L204.922,14.433 C202.881,13.284 200.437,12.758 197.994,12.758 C195.549,12.758 193.091,13.284 191.050,14.433 L144.962,39.007 C142.823,40.156 141.906,42.149 142.004,44.032 C141.906,46.025 142.823,48.005 144.962,49.154 L191.050,73.741 C193.091,74.890 195.535,75.416 197.994,75.416 C200.437,75.416 202.881,74.890 204.922,73.741 L251.011,49.154 Z"/>
<path fill-rule="evenodd"  fill="rgb(98, 98, 98)"
 d="M251.011,45.420 C253.150,44.271 254.163,42.277 253.969,40.395 C254.177,38.402 253.150,36.518 251.011,35.369 L204.922,10.699 C202.881,9.550 200.437,9.024 197.994,9.024 C195.549,9.024 193.091,9.550 191.050,10.699 L144.962,35.272 C142.823,36.422 141.906,38.415 142.004,40.298 C141.906,42.291 142.823,44.271 144.962,45.420 L191.050,70.007 C193.091,71.156 195.535,71.682 197.994,71.682 C200.437,71.682 202.881,71.156 204.922,70.007 L251.011,45.420 Z"/>
<path fill-rule="evenodd"  fill="rgb(127, 127, 127)"
 d="M251.011,44.154 C253.150,43.005 254.163,41.012 253.969,39.129 C254.177,37.136 253.150,35.253 251.011,34.103 L204.922,9.433 C202.881,8.284 200.437,7.758 197.994,7.758 C195.549,7.758 193.091,8.284 191.050,9.433 L144.962,34.007 C142.823,35.156 141.906,37.149 142.004,39.032 C141.906,41.025 142.823,43.005 144.962,44.154 L191.050,68.741 C193.091,69.890 195.535,70.416 197.994,70.416 C200.437,70.416 202.881,69.890 204.922,68.741 L251.011,44.154 Z"/>
<path fill-rule="evenodd"  fill="rgb(108, 108, 108)"
 d="M251.011,40.420 C253.150,39.271 254.163,37.277 253.969,35.395 C254.177,33.401 253.150,31.518 251.011,30.369 L204.922,5.699 C202.881,4.550 200.437,4.024 197.994,4.024 C195.549,4.024 193.091,4.550 191.050,5.699 L144.962,30.272 C142.823,31.422 141.906,33.415 142.004,35.298 C141.906,37.291 142.823,39.271 144.962,40.420 L191.050,65.007 C193.091,66.156 195.535,66.682 197.994,66.682 C200.437,66.682 202.881,66.156 204.922,65.007 L251.011,40.420 Z"/>
<path fill-rule="evenodd"  fill="rgb(127, 127, 127)"
 d="M251.011,39.154 C253.150,38.005 254.163,36.012 253.969,34.129 C254.177,32.136 253.150,30.252 251.011,29.103 L204.922,4.433 C202.881,3.284 200.437,2.758 197.994,2.758 C195.549,2.758 193.091,3.284 191.050,4.433 L144.962,29.007 C142.823,30.156 141.906,32.149 142.004,34.032 C141.906,36.025 142.823,38.005 144.962,39.154 L191.050,63.741 C193.091,64.890 195.535,65.416 197.994,65.416 C200.437,65.416 202.881,64.890 204.922,63.741 L251.011,39.154 Z"/>
<path fill-rule="evenodd"  stroke="rgb(109, 109, 109)" stroke-width="1px" stroke-linecap="butt" stroke-linejoin="miter" fill="none"
 d="M239.685,38.051 C241.367,37.134 242.163,35.543 242.011,34.041 C242.174,32.450 241.367,30.947 239.685,30.030 L203.458,10.343 C201.854,9.426 199.933,9.006 198.012,9.006 C196.091,9.006 194.159,9.426 192.555,10.343 L156.327,29.953 C154.646,30.870 153.926,32.460 154.002,33.963 C153.926,35.553 154.646,37.134 156.327,38.051 L192.555,57.671 C194.159,58.588 196.080,59.008 198.012,59.008 C199.933,59.008 201.854,58.588 203.458,57.671 L239.685,38.051 Z"/>
<path fill-rule="evenodd"  stroke="rgb(28, 227, 107)" stroke-width="1px" stroke-linecap="butt" stroke-linejoin="miter" fill="none"
 d="M235.532,35.195 L231.889,34.654 L230.906,32.650 L233.377,31.292 L238.003,33.836 L235.532,35.195 ZM226.877,31.898 L225.895,29.894 L228.365,28.535 L232.991,31.080 L230.521,32.439 L226.877,31.898 ZM221.866,29.142 L220.883,27.138 L223.353,25.779 L227.979,28.324 L225.509,29.682 L221.866,29.142 ZM216.854,26.385 L215.871,24.381 L218.342,23.023 L222.967,25.567 L220.498,26.926 L216.854,26.385 ZM211.843,23.629 L210.860,21.625 L213.330,20.267 L217.956,22.811 L215.486,24.169 L211.843,23.629 ZM206.831,20.872 L205.848,18.869 L208.318,17.510 L212.945,20.054 L210.474,21.413 L206.831,20.872 ZM201.820,18.116 L200.836,16.112 L203.307,14.754 L207.933,17.298 L205.463,18.656 L201.820,18.116 ZM196.808,15.360 L195.825,13.356 L198.295,11.997 L202.922,14.542 L200.451,15.900 L196.808,15.360 ZM193.765,16.821 L190.122,16.280 L195.252,13.459 L196.235,15.463 L193.765,16.821 ZM194.561,19.140 L192.090,20.498 L188.447,19.958 L187.465,17.954 L189.935,16.595 L193.578,17.136 L194.561,19.140 ZM185.404,21.420 L181.761,20.879 L186.892,18.057 L187.874,20.061 L185.404,21.420 ZM186.200,23.738 L183.730,25.097 L180.087,24.556 L179.104,22.553 L181.573,21.194 L185.217,21.735 L186.200,23.738 ZM177.044,26.018 L173.401,25.477 L178.531,22.655 L179.514,24.659 L177.044,26.018 ZM177.840,28.337 L175.369,29.695 L171.726,29.155 L170.743,27.151 L173.213,25.792 L176.857,26.333 L177.840,28.337 ZM168.683,30.616 L165.040,30.075 L170.171,27.254 L171.153,29.258 L168.683,30.616 ZM169.479,32.935 L167.009,34.293 L163.366,33.753 L162.382,31.749 L164.853,30.390 L168.496,30.931 L169.479,32.935 ZM160.322,35.215 L158.010,33.942 L161.809,31.852 L162.793,33.856 L160.322,35.215 ZM166.821,34.609 L167.804,36.612 L165.334,37.971 L160.708,35.427 L163.179,34.068 L166.821,34.609 ZM171.833,37.365 L172.816,39.369 L170.346,40.727 L165.719,38.183 L168.190,36.825 L171.833,37.365 ZM176.845,40.121 L177.828,42.125 L175.358,43.484 L170.731,40.939 L173.202,39.581 L176.845,40.121 ZM181.856,42.878 L182.839,44.881 L180.369,46.240 L175.743,43.696 L178.213,42.337 L181.856,42.878 ZM186.868,45.634 L187.851,47.638 L185.381,48.996 L180.754,46.452 L183.225,45.094 L186.868,45.634 ZM191.879,48.391 L192.863,50.394 L190.392,51.753 L185.766,49.208 L188.236,47.850 L191.879,48.391 ZM196.891,51.147 L197.874,53.151 L195.404,54.509 L190.778,51.965 L193.248,50.606 L196.891,51.147 ZM201.902,53.903 L198.102,55.994 L195.789,54.721 L198.259,53.363 L201.902,53.903 ZM197.464,51.044 L199.934,49.685 L203.577,50.226 L204.560,52.230 L202.090,53.588 L198.447,53.048 L197.464,51.044 ZM206.620,48.764 L210.264,49.305 L205.133,52.127 L204.150,50.123 L206.620,48.764 ZM205.825,46.445 L208.295,45.087 L211.938,45.628 L212.921,47.632 L210.450,48.990 L206.808,48.450 L205.825,46.445 ZM214.981,44.166 L218.624,44.707 L213.494,47.528 L212.511,45.525 L214.981,44.166 ZM214.185,41.847 L216.655,40.489 L220.298,41.029 L221.281,43.033 L218.811,44.392 L215.168,43.851 L214.185,41.847 ZM223.341,39.568 L226.985,40.108 L221.854,42.930 L220.871,40.926 L223.341,39.568 ZM222.546,37.249 L225.016,35.890 L228.659,36.431 L229.642,38.435 L227.172,39.793 L223.529,39.253 L222.546,37.249 ZM230.333,32.753 L231.317,34.757 L228.846,36.116 L225.203,35.575 L224.220,33.572 L226.690,32.213 L230.333,32.753 ZM225.322,29.997 L226.305,32.001 L223.835,33.360 L220.192,32.819 L219.208,30.815 L221.678,29.457 L225.322,29.997 ZM220.310,27.241 L221.293,29.245 L218.823,30.603 L215.180,30.063 L214.197,28.059 L216.667,26.700 L220.310,27.241 ZM215.299,24.484 L216.282,26.488 L213.812,27.847 L210.168,27.306 L209.185,25.302 L211.656,23.944 L215.299,24.484 ZM210.287,21.728 L211.270,23.732 L208.800,25.090 L205.157,24.550 L204.174,22.546 L206.644,21.187 L210.287,21.728 ZM205.276,18.972 L206.259,20.975 L203.788,22.334 L200.145,21.794 L199.162,19.790 L201.632,18.431 L205.276,18.972 ZM196.621,15.675 L200.264,16.215 L201.246,18.219 L198.777,19.578 L195.134,19.037 L194.151,17.033 L196.621,15.675 ZM198.590,19.893 L199.572,21.897 L197.102,23.255 L193.459,22.714 L192.476,20.710 L194.946,19.352 L198.590,19.893 ZM188.260,20.273 L191.903,20.813 L192.886,22.817 L190.416,24.176 L186.773,23.635 L185.790,21.632 L188.260,20.273 ZM190.228,24.491 L191.212,26.495 L188.741,27.853 L185.098,27.313 L184.115,25.309 L186.585,23.950 L190.228,24.491 ZM179.900,24.871 L183.543,25.412 L184.526,27.416 L182.055,28.774 L178.412,28.234 L177.429,26.230 L179.900,24.871 ZM181.868,29.089 L182.851,31.093 L180.381,32.452 L176.738,31.911 L175.755,29.907 L178.225,28.549 L181.868,29.089 ZM171.539,29.470 L175.182,30.010 L176.165,32.014 L173.695,33.373 L170.052,32.832 L169.069,30.828 L171.539,29.470 ZM168.377,36.509 L167.394,34.505 L169.864,33.147 L173.507,33.688 L174.491,35.691 L172.020,37.050 L168.377,36.509 ZM173.389,39.266 L172.406,37.262 L174.876,35.903 L178.519,36.444 L179.502,38.448 L177.032,39.806 L173.389,39.266 ZM178.400,42.022 L177.417,40.018 L179.887,38.660 L183.531,39.201 L184.514,41.204 L182.044,42.563 L178.400,42.022 ZM183.412,44.778 L182.429,42.775 L184.900,41.416 L188.542,41.957 L189.525,43.961 L187.055,45.319 L183.412,44.778 ZM188.424,47.535 L187.441,45.531 L189.911,44.173 L193.554,44.713 L194.537,46.717 L192.067,48.076 L188.424,47.535 ZM193.435,50.291 L192.452,48.288 L194.922,46.929 L198.566,47.470 L199.549,49.473 L197.078,50.832 L193.435,50.291 ZM203.764,49.911 L200.121,49.370 L199.139,47.367 L201.608,46.008 L205.252,46.548 L206.234,48.552 L203.764,49.911 ZM201.796,45.693 L200.813,43.689 L203.283,42.331 L206.926,42.871 L207.909,44.875 L205.439,46.233 L201.796,45.693 ZM212.125,45.313 L208.482,44.772 L207.499,42.768 L209.969,41.410 L213.612,41.950 L214.595,43.954 L212.125,45.313 ZM210.157,41.095 L209.173,39.091 L211.644,37.732 L215.287,38.273 L216.269,40.277 L213.800,41.635 L210.157,41.095 ZM220.486,40.714 L216.842,40.174 L215.860,38.170 L218.330,36.812 L221.973,37.352 L222.956,39.356 L220.486,40.714 ZM223.647,33.675 L224.630,35.678 L222.160,37.037 L218.517,36.496 L217.534,34.493 L220.004,33.134 L223.647,33.675 ZM218.636,30.918 L219.619,32.922 L217.149,34.281 L213.505,33.740 L212.522,31.736 L214.992,30.378 L218.636,30.918 ZM213.624,28.162 L214.607,30.166 L212.137,31.524 L208.494,30.984 L207.510,28.980 L209.981,27.621 L213.624,28.162 ZM208.612,25.405 L209.595,27.409 L207.126,28.768 L203.482,28.227 L202.499,26.224 L204.969,24.865 L208.612,25.405 ZM203.601,22.649 L204.584,24.653 L202.114,26.011 L198.471,25.471 L197.488,23.467 L199.958,22.108 L203.601,22.649 ZM193.272,23.029 L196.915,23.570 L197.898,25.573 L195.428,26.932 L191.784,26.392 L190.802,24.388 L193.272,23.029 ZM195.240,27.248 L196.223,29.251 L193.753,30.610 L190.110,30.069 L189.127,28.065 L191.597,26.707 L195.240,27.248 ZM184.911,27.628 L188.554,28.168 L189.537,30.172 L187.067,31.531 L183.424,30.990 L182.441,28.986 L184.911,27.628 ZM186.880,31.846 L187.863,33.850 L185.393,35.208 L181.749,34.667 L180.766,32.664 L183.237,31.305 L186.880,31.846 ZM175.063,35.588 L174.080,33.585 L176.550,32.226 L180.194,32.767 L181.176,34.771 L178.707,36.129 L175.063,35.588 ZM180.075,38.345 L179.092,36.341 L181.562,34.982 L185.205,35.523 L186.188,37.527 L183.718,38.886 L180.075,38.345 ZM185.086,41.101 L184.104,39.098 L186.573,37.739 L190.217,38.280 L191.200,40.283 L188.730,41.642 L185.086,41.101 ZM190.098,43.858 L189.115,41.854 L191.585,40.495 L195.229,41.036 L196.211,43.040 L193.741,44.398 L190.098,43.858 ZM198.753,47.155 L195.110,46.614 L194.127,44.610 L196.597,43.252 L200.240,43.792 L201.223,45.796 L198.753,47.155 ZM196.784,42.937 L195.802,40.933 L198.271,39.574 L201.914,40.115 L202.898,42.118 L200.427,43.477 L196.784,42.937 ZM207.113,42.556 L203.470,42.016 L202.487,40.012 L204.958,38.653 L208.601,39.194 L209.584,41.198 L207.113,42.556 ZM205.145,38.338 L204.162,36.335 L206.632,34.976 L210.275,35.517 L211.258,37.520 L208.788,38.879 L205.145,38.338 ZM216.961,34.595 L217.944,36.599 L215.474,37.958 L211.831,37.417 L210.848,35.414 L213.318,34.055 L216.961,34.595 ZM211.950,31.839 L212.933,33.843 L210.463,35.201 L206.819,34.661 L205.836,32.657 L208.307,31.299 L211.950,31.839 ZM206.938,29.083 L207.921,31.087 L205.451,32.445 L201.808,31.905 L200.825,29.900 L203.295,28.542 L206.938,29.083 ZM198.283,25.786 L201.926,26.327 L202.909,28.330 L200.439,29.688 L196.796,29.148 L195.813,27.145 L198.283,25.786 ZM200.252,30.003 L201.235,32.008 L198.765,33.366 L195.121,32.825 L194.139,30.822 L196.609,29.463 L200.252,30.003 ZM189.923,30.384 L193.566,30.925 L194.549,32.928 L192.078,34.287 L188.436,33.746 L187.453,31.743 L189.923,30.384 ZM186.761,37.424 L185.778,35.420 L188.248,34.061 L191.891,34.602 L192.874,36.606 L190.404,37.965 L186.761,37.424 ZM191.772,40.180 L190.790,38.177 L193.260,36.818 L196.902,37.358 L197.886,39.362 L195.416,40.721 L191.772,40.180 ZM202.101,39.800 L198.459,39.259 L197.476,37.255 L199.946,35.897 L203.589,36.438 L204.572,38.441 L202.101,39.800 ZM193.447,36.503 L192.464,34.499 L194.935,33.140 L198.577,33.681 L199.560,35.685 L197.090,37.043 L193.447,36.503 ZM205.264,32.760 L206.246,34.764 L203.776,36.122 L200.133,35.582 L199.150,33.578 L201.621,32.220 L205.264,32.760 ZM231.702,34.970 L235.345,35.510 L230.215,38.332 L229.232,36.328 L231.702,34.970 Z"/>
<path fill-rule="evenodd"  opacity="0.302" fill="rgb(0, 0, 0)"
 d="M197.994,135.416 C200.437,135.416 202.881,134.890 204.922,133.741 L251.011,109.154 C253.150,108.005 254.163,106.011 253.969,104.129 C254.177,102.136 254.251,32.145 253.969,34.129 C254.163,37.088 253.137,38.850 250.999,39.999 L209.999,61.999 C207.958,63.148 200.022,66.288 198.999,65.998 C198.989,65.996 199.969,67.686 199.939,68.928 C199.924,69.533 198.907,70.268 198.889,71.118 C198.874,71.781 199.859,72.513 199.842,73.306 C199.827,74.039 198.810,74.825 198.794,75.658 C198.779,76.421 199.762,77.223 199.745,78.060 C199.729,78.874 198.712,79.721 198.695,80.597 C198.677,81.536 199.658,82.509 199.638,83.509 C199.623,84.302 198.607,85.111 198.591,85.935 C198.574,86.813 199.557,87.707 199.540,88.615 C199.529,89.188 198.518,89.767 198.508,90.351 C198.490,91.270 199.472,92.201 199.454,93.140 C199.438,93.990 198.422,94.846 198.406,95.707 C198.389,96.588 199.373,97.474 199.356,98.362 C199.340,99.255 198.322,100.151 198.306,101.046 C198.291,101.895 199.275,102.744 199.259,103.590 C199.245,104.336 198.232,105.080 198.217,105.821 C198.203,106.600 199.189,107.375 199.175,108.145 C199.159,109.032 198.142,109.912 198.126,110.782 C198.110,111.662 199.094,112.532 199.078,113.389 C199.064,114.185 198.049,114.969 198.035,115.739 C198.019,116.589 199.004,117.422 198.989,118.236 C198.974,119.049 197.960,119.844 197.946,120.615 C197.927,121.633 198.910,122.610 198.893,123.542 C198.879,124.280 197.866,124.989 197.854,125.667 C197.839,126.491 198.825,127.267 198.812,127.990 C198.798,128.743 197.786,129.438 197.774,130.068 C197.757,131.014 198.743,131.813 198.732,132.440 C198.713,133.467 197.703,134.033 197.703,134.033 C197.703,134.033 197.886,135.416 197.994,135.416 Z"/>
<path fill-rule="evenodd"  fill="none"
 d="M1.999,144.000 L10.999,144.000 L10.999,148.999 L1.999,148.999 L1.999,144.000 Z"/>
<path fill-rule="evenodd"  fill="rgb(51, 51, 51)"
 d="M15.902,0.999 L14.658,0.999 C14.340,0.999 14.082,1.257 14.082,1.575 L14.082,3.944 C14.082,4.262 13.824,4.520 13.506,4.520 L11.773,4.520 C11.455,4.520 11.197,4.262 11.197,3.944 L11.197,1.575 C11.197,1.257 10.939,0.999 10.621,0.999 L9.377,0.999 C9.059,0.999 8.801,1.257 8.801,1.575 L8.801,3.944 C8.801,4.262 8.543,4.520 8.225,4.520 L6.492,4.520 C6.174,4.520 5.916,4.262 5.916,3.944 L5.916,1.575 C5.916,1.257 5.658,0.999 5.340,0.999 L4.096,0.999 C3.777,0.999 3.519,1.257 3.519,1.575 L3.519,3.944 C3.519,4.262 3.262,4.520 2.944,4.520 L0.575,4.520 C0.257,4.520 -0.001,4.778 -0.001,5.096 L-0.001,6.340 C-0.001,6.658 0.257,6.916 0.575,6.916 L2.944,6.916 C3.262,6.916 3.519,7.174 3.519,7.492 L3.519,9.225 C3.519,9.543 3.262,9.801 2.944,9.801 L0.575,9.801 C0.257,9.801 -0.001,10.059 -0.001,10.377 L-0.001,11.621 C-0.001,11.939 0.257,12.197 0.575,12.197 L2.944,12.197 C3.262,12.197 3.519,12.455 3.519,12.773 L3.519,14.506 C3.519,14.824 3.262,15.083 2.944,15.083 L0.575,15.083 C0.257,15.083 -0.001,15.341 -0.001,15.659 L-0.001,16.902 C-0.001,17.221 0.257,17.478 0.575,17.478 L2.944,17.478 C3.262,17.478 3.519,17.736 3.519,18.055 L3.519,20.423 C3.519,20.741 3.777,20.999 4.096,20.999 L5.340,20.999 C5.658,20.999 5.916,20.741 5.916,20.423 L5.916,18.055 C5.916,17.736 6.174,17.478 6.492,17.478 L8.225,17.478 C8.543,17.478 8.801,17.736 8.801,18.055 L8.801,20.423 C8.801,20.741 9.059,20.999 9.377,20.999 L10.621,20.999 C10.939,20.999 11.197,20.741 11.197,20.423 L11.197,18.055 C11.197,17.736 11.455,17.478 11.773,17.478 L13.506,17.478 C13.824,17.478 14.082,17.736 14.082,18.055 L14.082,20.423 C14.082,20.741 14.340,20.999 14.658,20.999 L15.902,20.999 C16.220,20.999 16.478,20.741 16.478,20.423 L16.478,18.055 C16.478,17.736 16.736,17.478 17.054,17.478 L19.423,17.478 C19.741,17.478 19.999,17.221 19.999,16.902 L19.999,15.659 C19.999,15.341 19.741,15.083 19.423,15.083 L17.054,15.083 C16.736,15.083 16.478,14.824 16.478,14.506 L16.478,12.773 C16.478,12.455 16.736,12.197 17.054,12.197 L19.423,12.197 C19.741,12.197 19.999,11.939 19.999,11.621 L19.999,10.377 C19.999,10.059 19.741,9.801 19.423,9.801 L17.054,9.801 C16.736,9.801 16.478,9.543 16.478,9.225 L16.478,7.492 C16.478,7.174 16.736,6.916 17.054,6.916 L19.423,6.916 C19.741,6.916 19.999,6.658 19.999,6.340 L19.999,5.096 C19.999,4.778 19.741,4.520 19.423,4.520 L17.054,4.520 C16.736,4.520 16.478,4.262 16.478,3.944 L16.478,1.575 C16.478,1.257 16.220,0.999 15.902,0.999 ZM8.801,12.777 L8.801,14.509 C8.801,14.827 8.543,15.086 8.225,15.086 L6.492,15.086 C6.174,15.086 5.916,14.827 5.916,14.509 L5.916,12.777 C5.916,12.458 6.174,12.201 6.492,12.201 L8.225,12.201 C8.543,12.201 8.801,12.458 8.801,12.777 ZM5.916,9.228 L5.916,7.496 C5.916,7.177 6.174,6.920 6.492,6.920 L8.225,6.920 C8.543,6.920 8.801,7.177 8.801,7.496 L8.801,9.228 C8.801,9.547 8.543,9.805 8.225,9.805 L6.492,9.805 C6.174,9.805 5.916,9.547 5.916,9.228 ZM14.082,12.777 L14.082,14.509 C14.082,14.827 13.824,15.086 13.506,15.086 L11.773,15.086 C11.455,15.086 11.197,14.827 11.197,14.509 L11.197,12.777 C11.197,12.458 11.455,12.201 11.773,12.201 L13.506,12.201 C13.824,12.201 14.082,12.458 14.082,12.777 ZM11.197,9.228 L11.197,7.496 C11.197,7.177 11.455,6.920 11.773,6.920 L13.506,6.920 C13.824,6.920 14.082,7.177 14.082,7.496 L14.082,9.228 C14.082,9.547 13.824,9.805 13.506,9.805 L11.773,9.805 C11.455,9.805 11.197,9.547 11.197,9.228 Z"/>
<path fill-rule="evenodd"  stroke="rgb(51, 51, 51)" stroke-width="2px" stroke-linecap="butt" stroke-linejoin="miter" fill="none"
 d="M271.525,14.802 L268.051,12.830 L268.051,9.168 L271.525,7.196 L274.999,9.168 L274.999,12.830 L271.525,14.802 ZM264.288,6.633 L264.288,2.971 L267.762,0.999 L271.236,2.971 L271.236,6.633 L267.762,8.605 L264.288,6.633 ZM267.473,12.830 L263.999,14.802 L260.526,12.830 L260.526,9.168 L263.999,7.196 L267.473,9.168 L267.473,12.830 ZM256.762,6.633 L256.762,2.971 L260.236,0.999 L263.709,2.971 L263.709,6.633 L260.236,8.605 L256.762,6.633 ZM259.946,12.830 L256.472,14.802 L252.999,12.830 L252.999,9.168 L256.472,7.196 L259.946,9.168 L259.946,12.830 ZM263.709,15.366 L263.709,19.027 L260.236,20.999 L256.762,19.027 L256.762,15.366 L260.236,13.394 L263.709,15.366 ZM271.236,15.366 L271.236,19.027 L267.762,20.999 L264.288,19.027 L264.288,15.366 L267.762,13.394 L271.236,15.366 Z"/>
</svg>
