<svg 
 xmlns="http://www.w3.org/2000/svg"
 xmlns:xlink="http://www.w3.org/1999/xlink"
 width="16px" height="14px">
<path fill-rule="evenodd"  fill="rgb(255, 255, 255)"
 d="M12.521,5.465 C12.245,5.465 12.002,5.689 12.002,5.966 L12.002,12.453 C12.002,12.729 11.773,12.947 11.497,12.947 L4.497,12.947 C4.222,12.947 3.990,12.728 3.990,12.453 L3.990,5.944 C3.990,5.668 3.789,5.444 3.512,5.444 C3.235,5.444 3.034,5.668 3.034,5.944 L3.034,12.452 C3.034,13.279 3.671,13.998 4.497,13.998 L11.498,13.998 C12.326,13.998 13.042,13.277 13.042,12.452 L13.042,5.964 C13.040,5.689 12.798,5.465 12.521,5.465 L12.521,5.465 ZM6.957,10.452 L6.957,5.952 C6.957,5.676 6.754,5.452 6.479,5.452 C6.203,5.452 5.999,5.674 5.999,5.952 L5.999,10.452 C5.999,10.729 6.203,10.954 6.479,10.954 C6.754,10.954 6.957,10.729 6.957,10.452 L6.957,10.452 ZM9.992,10.452 L9.992,5.952 C9.992,5.676 9.749,5.452 9.472,5.452 C9.196,5.452 8.952,5.674 8.952,5.952 L8.952,10.452 C8.952,10.729 9.196,10.954 9.472,10.954 C9.749,10.954 9.992,10.729 9.992,10.452 L9.992,10.452 ZM14.999,2.999 L11.998,2.999 L12.002,1.451 C12.002,0.624 11.327,-0.002 10.508,-0.002 L5.496,-0.002 C4.671,-0.002 3.990,0.624 3.990,1.451 L3.998,2.999 L0.998,2.999 C0.720,2.999 0.997,2.675 0.997,2.952 C0.997,3.228 0.721,3.999 0.998,3.999 L14.999,3.999 C15.274,3.999 15.271,2.928 14.996,2.952 C14.226,3.017 14.999,2.999 14.999,2.999 ZM10.998,2.999 L4.998,2.999 L4.961,1.451 C4.961,1.175 5.221,0.955 5.496,0.955 L10.508,0.955 C10.781,0.955 10.963,1.171 10.963,1.451 L10.963,2.473 L10.998,2.999 Z"/>
</svg>
