<svg 
 xmlns="http://www.w3.org/2000/svg"
 xmlns:xlink="http://www.w3.org/1999/xlink"
 width="14px" height="14px">
<path fill-rule="evenodd"  fill="rgb(255, 255, 255)"
 d="M13.533,13.998 L0.467,13.998 C0.209,13.998 0.000,13.789 0.000,13.530 L0.000,5.810 C0.000,5.755 0.043,5.712 0.097,5.712 L0.836,5.712 C0.890,5.712 0.934,5.755 0.934,5.810 L0.934,13.064 L13.068,13.064 L12.999,1.999 L7.998,1.999 L7.797,1.632 C7.797,1.578 7.943,0.999 7.998,0.999 L12.999,0.999 C13.139,0.999 13.999,1.914 13.999,2.002 L13.999,13.530 C13.999,13.789 13.790,13.998 13.533,13.998 ZM8.202,6.352 L8.955,6.807 C9.009,6.840 9.028,6.913 8.997,6.971 L7.485,9.718 C7.411,9.850 7.292,9.946 7.150,9.985 C7.104,9.998 7.056,10.005 7.009,10.005 C6.912,10.005 6.818,9.979 6.735,9.927 L3.916,8.225 C3.862,8.192 3.842,8.119 3.874,8.061 L4.307,7.272 C4.339,7.215 4.409,7.195 4.464,7.228 L6.119,8.230 C5.817,7.252 5.310,6.018 4.625,4.830 C3.873,3.522 2.650,1.821 1.067,1.062 C1.011,1.035 0.985,0.966 1.011,0.905 L1.353,0.071 C1.377,0.010 1.447,-0.019 1.505,0.010 C3.352,0.887 4.729,2.786 5.566,4.239 C6.345,5.590 6.877,6.928 7.187,7.956 L8.047,6.397 C8.078,6.339 8.148,6.319 8.202,6.352 Z"/>
</svg>
