<svg 
 xmlns="http://www.w3.org/2000/svg"
 xmlns:xlink="http://www.w3.org/1999/xlink"
 width="175.5px" height="148px">
<path fill-rule="evenodd"  fill="none"
 d="M-0.001,134.500 L11.000,134.500 L11.000,147.500 L-0.001,147.500 L-0.001,134.500 Z"/>
<path fill-rule="evenodd"  fill="rgb(127, 127, 127)"
 d="M140.011,107.249 C142.150,106.101 143.164,104.106 142.970,102.224 C143.178,100.231 142.150,98.348 140.011,97.198 L93.923,72.529 C91.882,71.379 89.437,70.853 86.994,70.853 C84.550,70.853 82.091,71.379 80.050,72.529 L33.962,97.102 C31.823,98.251 30.907,100.244 31.004,102.127 C30.907,104.120 31.823,106.101 33.962,107.249 L80.050,131.836 C82.091,132.986 84.536,133.511 86.994,133.511 C89.437,133.511 91.882,132.986 93.923,131.836 L140.011,107.249 Z"/>
<path fill-rule="evenodd"  fill="rgb(98, 98, 98)"
 d="M140.011,103.920 C142.150,102.771 143.164,100.778 142.970,98.895 C143.178,96.902 142.150,95.019 140.011,93.869 L93.923,69.199 C91.882,68.050 89.437,67.524 86.994,67.524 C84.550,67.524 82.091,68.050 80.050,69.199 L33.962,93.773 C31.823,94.922 30.907,96.915 31.004,98.798 C30.907,100.791 31.823,102.771 33.962,103.920 L80.050,128.507 C82.091,129.656 84.536,130.182 86.994,130.182 C89.437,130.182 91.882,129.656 93.923,128.507 L140.011,103.920 Z"/>
<path fill-rule="evenodd"  fill="rgb(127, 127, 127)"
 d="M140.011,102.654 C142.150,101.506 143.164,99.512 142.970,97.629 C143.178,95.636 142.150,93.753 140.011,92.603 L93.923,67.934 C91.882,66.784 89.437,66.259 86.994,66.259 C84.550,66.259 82.091,66.784 80.050,67.934 L33.962,92.507 C31.823,93.656 30.907,95.649 31.004,97.532 C30.907,99.525 31.823,101.506 33.962,102.654 L80.050,127.241 C82.091,128.391 84.536,128.916 86.994,128.916 C89.437,128.916 91.882,128.391 93.923,127.241 L140.011,102.654 Z"/>
<path fill-rule="evenodd"  fill="rgb(98, 98, 98)"
 d="M140.011,98.920 C142.150,97.771 143.164,95.778 142.970,93.895 C143.178,91.902 142.150,90.018 140.011,88.869 L93.923,64.199 C91.882,63.050 89.437,62.524 86.994,62.524 C84.550,62.524 82.091,63.050 80.050,64.199 L33.962,88.773 C31.823,89.921 30.907,91.915 31.004,93.798 C30.907,95.791 31.823,97.771 33.962,98.920 L80.050,123.507 C82.091,124.656 84.536,125.182 86.994,125.182 C89.437,125.182 91.882,124.656 93.923,123.507 L140.011,98.920 Z"/>
<path fill-rule="evenodd"  fill="rgb(127, 127, 127)"
 d="M140.011,97.654 C142.150,96.506 143.164,94.512 142.970,92.629 C143.178,90.636 142.150,88.753 140.011,87.603 L93.923,62.933 C91.882,61.784 89.437,61.258 86.994,61.258 C84.550,61.258 82.091,61.784 80.050,62.933 L33.962,87.507 C31.823,88.656 30.907,90.649 31.004,92.532 C30.907,94.526 31.823,96.506 33.962,97.654 L80.050,122.242 C82.091,123.391 84.536,123.917 86.994,123.917 C89.437,123.917 91.882,123.391 93.923,122.242 L140.011,97.654 Z"/>
<path fill-rule="evenodd"  fill="rgb(98, 98, 98)"
 d="M140.011,93.921 C142.150,92.771 143.164,90.778 142.970,88.895 C143.178,86.902 142.150,85.018 140.011,83.869 L93.923,59.199 C91.882,58.050 89.437,57.524 86.994,57.524 C84.550,57.524 82.091,58.050 80.050,59.199 L33.962,83.773 C31.823,84.921 30.907,86.915 31.004,88.798 C30.907,90.791 31.823,92.771 33.962,93.921 L80.050,118.507 C82.091,119.657 84.536,120.182 86.994,120.182 C89.437,120.182 91.882,119.657 93.923,118.507 L140.011,93.921 Z"/>
<path fill-rule="evenodd"  fill="rgb(127, 127, 127)"
 d="M140.011,92.655 C142.150,91.505 143.164,89.512 142.970,87.630 C143.178,85.636 142.150,83.752 140.011,82.603 L93.923,57.933 C91.882,56.784 89.437,56.258 86.994,56.258 C84.550,56.258 82.091,56.784 80.050,57.933 L33.962,82.507 C31.823,83.656 30.907,85.649 31.004,87.532 C30.907,89.526 31.823,91.505 33.962,92.655 L80.050,117.241 C82.091,118.391 84.536,118.917 86.994,118.917 C89.437,118.917 91.882,118.391 93.923,117.241 L140.011,92.655 Z"/>
<path fill-rule="evenodd"  fill="rgb(98, 98, 98)"
 d="M140.011,88.921 C142.150,87.771 143.164,85.778 142.970,83.895 C143.178,81.902 142.150,80.018 140.011,78.869 L93.923,54.199 C91.882,53.050 89.437,52.524 86.994,52.524 C84.550,52.524 82.091,53.050 80.050,54.199 L33.962,78.773 C31.823,79.922 30.907,81.915 31.004,83.798 C30.907,85.791 31.823,87.771 33.962,88.921 L80.050,113.507 C82.091,114.656 84.536,115.182 86.994,115.182 C89.437,115.182 91.882,114.656 93.923,113.507 L140.011,88.921 Z"/>
<path fill-rule="evenodd"  fill="rgb(127, 127, 127)"
 d="M140.011,87.655 C142.150,86.505 143.164,84.512 142.970,82.629 C143.178,80.636 142.150,78.752 140.011,77.603 L93.923,52.933 C91.882,51.784 89.437,51.258 86.994,51.258 C84.550,51.258 82.091,51.784 80.050,52.933 L33.962,77.507 C31.823,78.656 30.907,80.649 31.004,82.532 C30.907,84.525 31.823,86.505 33.962,87.655 L80.050,112.241 C82.091,113.390 84.536,113.917 86.994,113.917 C89.437,113.917 91.882,113.390 93.923,112.241 L140.011,87.655 Z"/>
<path fill-rule="evenodd"  fill="rgb(98, 98, 98)"
 d="M140.011,83.920 C142.150,82.771 143.164,80.778 142.970,78.895 C143.178,76.902 142.150,75.019 140.011,73.869 L93.923,49.199 C91.882,48.050 89.437,47.524 86.994,47.524 C84.550,47.524 82.091,48.050 80.050,49.199 L33.962,73.772 C31.823,74.922 30.907,76.915 31.004,78.798 C30.907,80.791 31.823,82.771 33.962,83.920 L80.050,108.507 C82.091,109.656 84.536,110.182 86.994,110.182 C89.437,110.182 91.882,109.656 93.923,108.507 L140.011,83.920 Z"/>
<path fill-rule="evenodd"  fill="rgb(127, 127, 127)"
 d="M140.011,82.655 C142.150,81.505 143.164,79.512 142.970,77.629 C143.178,75.636 142.150,73.753 140.011,72.604 L93.923,47.934 C91.882,46.784 89.437,46.258 86.994,46.258 C84.550,46.258 82.091,46.784 80.050,47.934 L33.962,72.507 C31.823,73.656 30.907,75.650 31.004,77.532 C30.907,79.525 31.823,81.505 33.962,82.655 L80.050,107.242 C82.091,108.390 84.536,108.916 86.994,108.916 C89.437,108.916 91.882,108.390 93.923,107.242 L140.011,82.655 Z"/>
<path fill-rule="evenodd"  fill="rgb(98, 98, 98)"
 d="M140.011,78.920 C142.150,77.771 143.164,75.777 142.970,73.895 C143.178,71.902 142.150,70.019 140.011,68.869 L93.923,44.199 C91.882,43.050 89.437,42.524 86.994,42.524 C84.550,42.524 82.091,43.050 80.050,44.199 L33.962,68.772 C31.823,69.922 30.907,71.915 31.004,73.798 C30.907,75.791 31.823,77.771 33.962,78.920 L80.050,103.507 C82.091,104.657 84.536,105.182 86.994,105.182 C89.437,105.182 91.882,104.657 93.923,103.507 L140.011,78.920 Z"/>
<path fill-rule="evenodd"  fill="rgb(127, 127, 127)"
 d="M140.011,77.654 C142.150,76.505 143.164,74.512 142.970,72.629 C143.178,70.636 142.150,68.753 140.011,67.603 L93.923,42.934 C91.882,41.784 89.437,41.258 86.994,41.258 C84.550,41.258 82.091,41.784 80.050,42.934 L33.962,67.507 C31.823,68.656 30.907,70.650 31.004,72.532 C30.907,74.526 31.823,76.505 33.962,77.654 L80.050,102.241 C82.091,103.391 84.536,103.916 86.994,103.916 C89.437,103.916 91.882,103.391 93.923,102.241 L140.011,77.654 Z"/>
<path fill-rule="evenodd"  fill="rgb(98, 98, 98)"
 d="M140.011,73.920 C142.150,72.771 143.164,70.778 142.970,68.895 C143.178,66.901 142.150,65.019 140.011,63.869 L93.923,39.199 C91.882,38.050 89.437,37.524 86.994,37.524 C84.550,37.524 82.091,38.050 80.050,39.199 L33.962,63.772 C31.823,64.922 30.907,66.915 31.004,68.798 C30.907,70.791 31.823,72.771 33.962,73.920 L80.050,98.507 C82.091,99.657 84.536,100.182 86.994,100.182 C89.437,100.182 91.882,99.657 93.923,98.507 L140.011,73.920 Z"/>
<path fill-rule="evenodd"  fill="rgb(127, 127, 127)"
 d="M140.011,72.654 C142.150,71.506 143.164,69.512 142.970,67.629 C143.178,65.636 142.150,63.753 140.011,62.603 L93.923,37.934 C91.882,36.784 89.437,36.258 86.994,36.258 C84.550,36.258 82.091,36.784 80.050,37.934 L33.962,62.507 C31.823,63.656 30.907,65.649 31.004,67.532 C30.907,69.525 31.823,71.506 33.962,72.654 L80.050,97.241 C82.091,98.391 84.536,98.916 86.994,98.916 C89.437,98.916 91.882,98.391 93.923,97.241 L140.011,72.654 Z"/>
<path fill-rule="evenodd"  fill="rgb(98, 98, 98)"
 d="M140.011,68.920 C142.150,67.771 143.164,65.778 142.970,63.895 C143.178,61.901 142.150,60.018 140.011,58.869 L93.923,34.199 C91.882,33.050 89.437,32.524 86.994,32.524 C84.550,32.524 82.091,33.050 80.050,34.199 L33.962,58.773 C31.823,59.922 30.907,61.915 31.004,63.798 C30.907,65.791 31.823,67.771 33.962,68.920 L80.050,93.507 C82.091,94.657 84.536,95.182 86.994,95.182 C89.437,95.182 91.882,94.657 93.923,93.507 L140.011,68.920 Z"/>
<path fill-rule="evenodd"  fill="rgb(127, 127, 127)"
 d="M140.011,67.655 C142.150,66.506 143.164,64.512 142.970,62.629 C143.178,60.636 142.150,58.753 140.011,57.603 L93.923,32.933 C91.882,31.784 89.437,31.258 86.994,31.258 C84.550,31.258 82.091,31.784 80.050,32.933 L33.962,57.507 C31.823,58.656 30.907,60.649 31.004,62.532 C30.907,64.526 31.823,66.506 33.962,67.655 L80.050,92.241 C82.091,93.391 84.536,93.916 86.994,93.916 C89.437,93.916 91.882,93.391 93.923,92.241 L140.011,67.655 Z"/>
<path fill-rule="evenodd"  fill="rgb(98, 98, 98)"
 d="M140.011,63.921 C142.150,62.771 143.164,60.778 142.970,58.895 C143.178,56.902 142.150,55.018 140.011,53.869 L93.923,29.199 C91.882,28.050 89.437,27.524 86.994,27.524 C84.550,27.524 82.091,28.050 80.050,29.199 L33.962,53.773 C31.823,54.921 30.907,56.915 31.004,58.798 C30.907,60.791 31.823,62.771 33.962,63.921 L80.050,88.507 C82.091,89.656 84.536,90.182 86.994,90.182 C89.437,90.182 91.882,89.656 93.923,88.507 L140.011,63.921 Z"/>
<path fill-rule="evenodd"  fill="rgb(127, 127, 127)"
 d="M140.011,62.655 C142.150,61.505 143.164,59.512 142.970,57.629 C143.178,55.636 142.150,53.752 140.011,52.603 L93.923,27.933 C91.882,26.784 89.437,26.258 86.994,26.258 C84.550,26.258 82.091,26.784 80.050,27.933 L33.962,52.507 C31.823,53.656 30.907,55.649 31.004,57.532 C30.907,59.526 31.823,61.505 33.962,62.655 L80.050,87.241 C82.091,88.391 84.536,88.917 86.994,88.917 C89.437,88.917 91.882,88.391 93.923,87.241 L140.011,62.655 Z"/>
<path fill-rule="evenodd"  fill="rgb(98, 98, 98)"
 d="M140.011,58.920 C142.150,57.771 143.164,55.778 142.970,53.895 C143.178,51.902 142.150,50.018 140.011,48.869 L93.923,24.199 C91.882,23.050 89.437,22.524 86.994,22.524 C84.550,22.524 82.091,23.050 80.050,24.199 L33.962,48.773 C31.823,49.921 30.907,51.915 31.004,53.798 C30.907,55.791 31.823,57.771 33.962,58.920 L80.050,83.507 C82.091,84.656 84.536,85.183 86.994,85.183 C89.437,85.183 91.882,84.656 93.923,83.507 L140.011,58.920 Z"/>
<path fill-rule="evenodd"  fill="rgb(127, 127, 127)"
 d="M140.011,57.655 C142.150,56.505 143.164,54.512 142.970,52.629 C143.178,50.636 142.150,48.752 140.011,47.604 L93.923,22.933 C91.882,21.784 89.437,21.258 86.994,21.258 C84.550,21.258 82.091,21.784 80.050,22.933 L33.962,47.507 C31.823,48.656 30.907,50.650 31.004,52.532 C30.907,54.525 31.823,56.505 33.962,57.655 L80.050,82.241 C82.091,83.390 84.536,83.917 86.994,83.917 C89.437,83.917 91.882,83.390 93.923,82.241 L140.011,57.655 Z"/>
<path fill-rule="evenodd"  fill="rgb(98, 98, 98)"
 d="M140.011,53.920 C142.150,52.771 143.164,50.778 142.970,48.895 C143.178,46.902 142.150,45.019 140.011,43.869 L93.923,19.199 C91.882,18.050 89.437,17.524 86.994,17.524 C84.550,17.524 82.091,18.050 80.050,19.199 L33.962,43.773 C31.823,44.922 30.907,46.915 31.004,48.798 C30.907,50.791 31.823,52.771 33.962,53.920 L80.050,78.507 C82.091,79.656 84.536,80.182 86.994,80.182 C89.437,80.182 91.882,79.656 93.923,78.507 L140.011,53.920 Z"/>
<path fill-rule="evenodd"  fill="rgb(127, 127, 127)"
 d="M140.011,52.654 C142.150,51.506 143.164,49.512 142.970,47.629 C143.178,45.636 142.150,43.753 140.011,42.603 L93.923,17.933 C91.882,16.784 89.437,16.258 86.994,16.258 C84.550,16.258 82.091,16.784 80.050,17.933 L33.962,42.507 C31.823,43.656 30.907,45.649 31.004,47.532 C30.907,49.525 31.823,51.506 33.962,52.654 L80.050,77.241 C82.091,78.390 84.536,78.917 86.994,78.917 C89.437,78.917 91.882,78.390 93.923,77.241 L140.011,52.654 Z"/>
<path fill-rule="evenodd"  fill="rgb(98, 98, 98)"
 d="M140.011,48.920 C142.150,47.771 143.164,45.778 142.970,43.895 C143.178,41.902 142.150,40.019 140.011,38.869 L93.923,14.199 C91.882,13.050 89.437,12.524 86.994,12.524 C84.550,12.524 82.091,13.050 80.050,14.199 L33.962,38.772 C31.823,39.922 30.907,41.915 31.004,43.798 C30.907,45.791 31.823,47.771 33.962,48.920 L80.050,73.507 C82.091,74.656 84.536,75.182 86.994,75.182 C89.437,75.182 91.882,74.656 93.923,73.507 L140.011,48.920 Z"/>
<path fill-rule="evenodd"  fill="rgb(127, 127, 127)"
 d="M140.011,47.654 C142.150,46.506 143.164,44.512 142.970,42.629 C143.178,40.636 142.150,38.753 140.011,37.603 L93.923,12.934 C91.882,11.784 89.437,11.258 86.994,11.258 C84.550,11.258 82.091,11.784 80.050,12.934 L33.962,37.506 C31.823,38.656 30.907,40.649 31.004,42.532 C30.907,44.525 31.823,46.506 33.962,47.654 L80.050,72.241 C82.091,73.390 84.536,73.916 86.994,73.916 C89.437,73.916 91.882,73.390 93.923,72.241 L140.011,47.654 Z"/>
<path fill-rule="evenodd"  fill="rgb(98, 98, 98)"
 d="M140.011,43.920 C142.150,42.771 143.164,40.778 142.970,38.895 C143.178,36.902 142.150,35.019 140.011,33.869 L93.923,9.199 C91.882,8.050 89.437,7.524 86.994,7.524 C84.550,7.524 82.091,8.050 80.050,9.199 L33.962,33.772 C31.823,34.922 30.907,36.915 31.004,38.798 C30.907,40.791 31.823,42.771 33.962,43.920 L80.050,68.507 C82.091,69.657 84.536,70.182 86.994,70.182 C89.437,70.182 91.882,69.657 93.923,68.507 L140.011,43.920 Z"/>
<path fill-rule="evenodd"  fill="rgb(127, 127, 127)"
 d="M140.011,42.654 C142.150,41.506 143.164,39.512 142.970,37.629 C143.178,35.636 142.150,33.753 140.011,32.603 L93.923,7.934 C91.882,6.784 89.437,6.258 86.994,6.258 C84.550,6.258 82.091,6.784 80.050,7.934 L33.962,32.507 C31.823,33.656 30.907,35.649 31.004,37.532 C30.907,39.526 31.823,41.506 33.962,42.654 L80.050,67.241 C82.091,68.391 84.536,68.916 86.994,68.916 C89.437,68.916 91.882,68.391 93.923,67.241 L140.011,42.654 Z"/>
<path fill-rule="evenodd"  fill="rgb(108, 108, 108)"
 d="M140.011,38.920 C142.150,37.771 143.164,35.778 142.970,33.895 C143.178,31.901 142.150,30.018 140.011,28.869 L93.923,4.199 C91.882,3.050 89.437,2.524 86.994,2.524 C84.550,2.524 82.091,3.050 80.050,4.199 L33.962,28.773 C31.823,29.922 30.907,31.915 31.004,33.798 C30.907,35.791 31.823,37.771 33.962,38.920 L80.050,63.507 C82.091,64.656 84.536,65.182 86.994,65.182 C89.437,65.182 91.882,64.656 93.923,63.507 L140.011,38.920 Z"/>
<path fill-rule="evenodd"  stroke="rgb(28, 227, 107)" stroke-width="1px" stroke-linecap="butt" stroke-linejoin="miter" fill="rgb(127, 127, 127)"
 d="M140.011,37.655 C142.150,36.506 143.164,34.512 142.970,32.629 C143.178,30.636 142.150,28.753 140.011,27.603 L93.923,2.934 C91.882,1.784 89.437,1.258 86.994,1.258 C84.550,1.258 82.091,1.784 80.050,2.934 L33.962,27.507 C31.823,28.656 30.907,30.649 31.004,32.532 C30.907,34.526 31.823,36.506 33.962,37.655 L80.050,62.241 C82.091,63.391 84.536,63.916 86.994,63.916 C89.437,63.916 91.882,63.391 93.923,62.241 L140.011,37.655 Z"/>
<path fill-rule="evenodd"  stroke="rgb(109, 109, 109)" stroke-width="1px" stroke-linecap="butt" stroke-linejoin="miter" fill="none"
 d="M128.686,36.551 C130.366,35.633 131.163,34.043 131.011,32.541 C131.174,30.950 130.366,29.447 128.686,28.530 L92.459,8.843 C90.855,7.926 88.933,7.506 87.012,7.506 C85.091,7.506 83.159,7.926 81.555,8.843 L45.327,28.453 C43.647,29.370 42.927,30.960 43.002,32.463 C42.927,34.053 43.647,35.633 45.327,36.551 L81.555,56.171 C83.159,57.088 85.080,57.508 87.012,57.508 C88.933,57.508 90.855,57.088 92.459,56.171 L128.686,36.551 Z"/>
<path fill-rule="evenodd"  stroke="rgb(109, 109, 109)" stroke-width="1px" stroke-linecap="butt" stroke-linejoin="miter" fill="none"
 d="M89.458,12.750 L87.853,12.040 L84.108,13.696 L91.597,13.696 L92.935,14.642 L81.433,14.642 L79.025,15.825 L96.144,15.825 L98.284,17.244 L76.618,17.244 L74.746,18.426 L101.227,18.426 L103.901,19.845 L71.536,19.845 L69.129,21.264 L107.111,21.264 L109.251,22.683 L66.187,22.683 L64.314,23.866 L112.728,24.102 L114.868,25.285 L60.570,25.522 L58.429,26.704 L118.345,26.941 L120.217,28.123 L55.487,28.360 L53.348,29.779 L123.101,29.779 L125.241,31.198 L49.603,31.198 L48.634,32.381 L126.519,32.854 L125.775,34.273 L50.138,34.273 L52.010,35.455 L121.822,35.929 L119.682,37.348 L56.289,37.348 L58.162,38.530 L117.007,38.530 L115.403,39.949 L61.640,39.949 L63.244,41.132 L111.123,41.368 L109.251,42.788 L66.989,42.788 L68.861,43.970 L105.774,43.970 L103.901,45.389 L72.339,45.626 L74.211,46.809 L99.622,47.045 L97.749,48.464 L78.758,48.464 L80.630,49.883 L94.272,49.647 L92.667,51.066 L84.643,51.302 L87.853,52.958 L89.725,52.248 "/>
<path fill-rule="evenodd"  opacity="0.302" fill="rgb(0, 0, 0)"
 d="M86.994,133.916 C89.437,133.916 91.882,133.391 93.923,132.241 L140.011,107.654 C142.150,106.506 143.164,104.512 142.970,102.629 C143.178,100.636 143.252,30.645 142.970,32.629 C143.164,35.588 142.138,37.350 139.999,38.499 L98.999,60.499 C96.958,61.648 89.023,64.788 87.999,64.499 C87.990,64.496 88.969,66.186 88.939,67.428 C88.924,68.033 87.907,68.768 87.889,69.619 C87.874,70.281 88.859,71.013 88.842,71.807 C88.827,72.540 87.811,73.325 87.794,74.158 C87.779,74.921 88.762,75.724 88.746,76.560 C88.729,77.374 87.713,78.222 87.695,79.097 C87.677,80.036 88.658,81.009 88.639,82.009 C88.623,82.802 87.608,83.611 87.592,84.435 C87.575,85.313 88.558,86.208 88.540,87.115 C88.530,87.689 87.519,88.267 87.508,88.851 C87.490,89.770 88.473,90.701 88.455,91.640 C88.438,92.490 87.423,93.346 87.406,94.207 C87.390,95.088 88.373,95.974 88.356,96.862 C88.340,97.756 87.323,98.651 87.306,99.545 C87.291,100.395 88.275,101.244 88.259,102.090 C88.245,102.837 87.232,103.580 87.218,104.321 C87.204,105.100 88.189,105.875 88.175,106.645 C88.159,107.533 87.142,108.412 87.126,109.282 C87.110,110.162 88.094,111.032 88.078,111.889 C88.064,112.685 87.049,113.469 87.035,114.240 C87.019,115.090 88.005,115.922 87.990,116.736 C87.975,117.549 86.960,118.344 86.946,119.116 C86.928,120.133 87.910,121.110 87.893,122.042 C87.879,122.780 86.866,123.490 86.854,124.167 C86.839,124.991 87.825,125.767 87.812,126.490 C87.798,127.244 86.786,127.939 86.775,128.568 C86.757,129.514 87.743,130.313 87.732,130.939 C87.713,131.967 86.703,132.533 86.703,132.533 C86.703,132.533 86.886,133.916 86.994,133.916 Z"/>
<path fill-rule="evenodd"  fill="rgb(51, 51, 51)"
 d="M174.999,33.499 L161.999,33.499 L161.999,37.499 L154.998,31.499 L161.999,25.499 L161.999,29.499 L174.999,29.499 L174.999,33.499 Z"/>
</svg>
