<svg 
 xmlns="http://www.w3.org/2000/svg"
 xmlns:xlink="http://www.w3.org/1999/xlink"
 width="270.5px" height="147.5px">
<defs>
<filter id="Filter_0">
                <feOffset in="SourceAlpha" dx="0" dy="-4" />
                <feGaussianBlur result="blurOut" stdDeviation="1" />
                <feFlood flood-color="rgb(44, 44, 46)" result="floodOut" />
                <feComposite operator="out" in="floodOut" in2="blurOut" result="compOut" />
                <feComposite operator="in" in="compOut" in2="SourceAlpha" />
                <feComponentTransfer><feFuncA type="linear" slope="1"/></feComponentTransfer>
                <feBlend mode="normal" in2="SourceGraphic" />
            </filter>

</defs>
<path fill-rule="evenodd"  fill="none"
 d="M-0.000,137.000 L15.000,137.000 L15.000,147.000 L-0.000,147.000 L-0.000,137.000 Z"/>
<path fill-rule="evenodd"  fill="rgb(40, 40, 42)"
 d="M124.999,120.999 C133.284,120.999 139.999,124.134 139.999,128.000 C139.999,131.866 133.284,135.000 124.999,135.000 C116.715,135.000 109.999,131.866 109.999,128.000 C109.999,124.134 116.715,120.999 124.999,120.999 Z"/>
<path fill-rule="evenodd"  fill="rgb(40, 40, 42)"
 d="M38.999,76.000 C45.074,76.000 49.999,79.134 49.999,82.999 C49.999,86.865 45.074,90.000 38.999,90.000 C32.924,90.000 27.999,86.865 27.999,82.999 C27.999,79.134 32.924,76.000 38.999,76.000 Z"/>
<path fill-rule="evenodd"  fill="rgb(40, 40, 42)"
 d="M210.999,76.000 C217.074,76.000 221.999,79.134 221.999,82.999 C221.999,86.865 217.074,90.000 210.999,90.000 C204.924,90.000 199.999,86.865 199.999,82.999 C199.999,79.134 204.924,76.000 210.999,76.000 Z"/>
<g filter="url(#Filter_0)">
<path fill-rule="evenodd"  fill="rgb(56, 56, 58)"
 d="M216.828,85.888 C220.532,83.872 222.288,80.371 221.952,77.066 C222.313,73.566 220.532,70.260 216.828,68.243 L136.994,24.932 C133.459,22.914 129.224,21.991 124.992,21.991 C120.757,21.991 116.499,22.914 112.965,24.932 L33.131,68.073 C29.426,70.090 27.839,73.590 28.007,76.895 C27.839,80.395 29.426,83.872 33.131,85.888 L112.965,129.053 C116.499,131.071 120.734,131.994 124.992,131.994 C129.224,131.994 133.459,131.071 136.994,129.053 L216.828,85.888 Z"/>
</g>
<path fill-rule="evenodd"  fill="rgb(28, 227, 107)"
 d="M153.474,29.179 L153.999,35.000 L188.000,49.000 L197.000,45.000 L197.097,42.538 L161.756,25.129 L153.474,29.179 Z"/>
<path fill-rule="evenodd"  fill="rgb(23, 204, 95)"
 d="M152.999,29.000 L187.868,47.438 L187.868,74.999 L152.999,56.999 L152.999,29.000 Z"/>
<path fill-rule="evenodd"  fill="rgb(16, 142, 66)"
 d="M187.868,47.438 L197.077,42.549 L196.903,70.314 L187.868,74.999 L187.868,47.438 Z"/>
<path fill-rule="evenodd"  fill="rgb(204, 198, 23)"
 d="M152.999,48.999 L187.868,67.437 L187.868,76.999 L152.999,59.000 L152.999,48.999 Z"/>
<path fill-rule="evenodd"  fill="rgb(143, 139, 17)"
 d="M187.868,67.437 L197.077,62.549 L196.903,72.314 L187.868,76.999 L187.868,67.437 Z"/>
<path fill-rule="evenodd"  fill="rgb(127, 127, 127)"
 d="M142.402,90.131 C143.488,89.534 144.004,88.497 143.905,87.518 C144.010,86.481 143.488,85.501 142.402,84.904 L118.978,72.072 C117.940,71.475 116.698,71.201 115.456,71.201 C114.214,71.201 112.965,71.475 111.928,72.072 L88.504,84.853 C87.417,85.451 86.951,86.488 87.000,87.467 C86.951,88.504 87.417,89.534 88.504,90.131 L111.928,102.919 C112.965,103.517 114.207,103.790 115.456,103.790 C116.698,103.790 117.940,103.517 118.978,102.919 L142.402,90.131 Z"/>
<path fill-rule="evenodd"  fill="rgb(98, 98, 98)"
 d="M142.402,88.399 C143.488,87.802 144.004,86.765 143.905,85.786 C144.010,84.749 143.488,83.770 142.402,83.172 L118.978,70.341 C117.940,69.743 116.698,69.469 115.456,69.469 C114.214,69.469 112.965,69.743 111.928,70.341 L88.504,83.122 C87.417,83.719 86.951,84.756 87.000,85.735 C86.951,86.772 87.417,87.802 88.504,88.399 L111.928,101.187 C112.965,101.785 114.207,102.059 115.456,102.059 C116.698,102.059 117.940,101.785 118.978,101.187 L142.402,88.399 Z"/>
<path fill-rule="evenodd"  fill="rgb(127, 127, 127)"
 d="M142.402,87.741 C143.488,87.144 144.004,86.107 143.905,85.128 C144.010,84.091 143.488,83.111 142.402,82.513 L118.978,69.682 C117.940,69.085 116.698,68.811 115.456,68.811 C114.214,68.811 112.965,69.085 111.928,69.682 L88.504,82.463 C87.417,83.061 86.951,84.098 87.000,85.077 C86.951,86.114 87.417,87.144 88.504,87.741 L111.928,100.529 C112.965,101.127 114.207,101.400 115.456,101.400 C116.698,101.400 117.940,101.127 118.978,100.529 L142.402,87.741 Z"/>
<path fill-rule="evenodd"  fill="rgb(98, 98, 98)"
 d="M142.402,85.799 C143.488,85.202 144.004,84.165 143.905,83.185 C144.010,82.149 143.488,81.169 142.402,80.571 L118.978,67.740 C117.940,67.143 116.698,66.869 115.456,66.869 C114.214,66.869 112.965,67.143 111.928,67.740 L88.504,80.521 C87.417,81.119 86.951,82.156 87.000,83.135 C86.951,84.171 87.417,85.202 88.504,85.799 L111.928,98.587 C112.965,99.185 114.207,99.458 115.456,99.458 C116.698,99.458 117.940,99.185 118.978,98.587 L142.402,85.799 Z"/>
<path fill-rule="evenodd"  fill="rgb(127, 127, 127)"
 d="M142.402,85.141 C143.488,84.543 144.004,83.506 143.905,82.527 C144.010,81.490 143.488,80.511 142.402,79.913 L118.978,67.082 C117.940,66.484 116.698,66.211 115.456,66.211 C114.214,66.211 112.965,66.484 111.928,67.082 L88.504,79.863 C87.417,80.460 86.951,81.497 87.000,82.477 C86.951,83.513 87.417,84.543 88.504,85.141 L111.928,97.929 C112.965,98.526 114.207,98.800 115.456,98.800 C116.698,98.800 117.940,98.526 118.978,97.929 L142.402,85.141 Z"/>
<path fill-rule="evenodd"  fill="rgb(98, 98, 98)"
 d="M142.402,83.199 C143.488,82.601 144.004,81.564 143.905,80.585 C144.010,79.548 143.488,78.568 142.402,77.971 L118.978,65.140 C117.940,64.542 116.698,64.269 115.456,64.269 C114.214,64.269 112.965,64.542 111.928,65.140 L88.504,77.921 C87.417,78.518 86.951,79.555 87.000,80.534 C86.951,81.571 87.417,82.601 88.504,83.199 L111.928,95.986 C112.965,96.584 114.207,96.858 115.456,96.858 C116.698,96.858 117.940,96.584 118.978,95.986 L142.402,83.199 Z"/>
<path fill-rule="evenodd"  fill="rgb(127, 127, 127)"
 d="M142.402,82.540 C143.488,81.942 144.004,80.906 143.905,79.927 C144.010,78.890 143.488,77.910 142.402,77.312 L118.978,64.481 C117.940,63.884 116.698,63.610 115.456,63.610 C114.214,63.610 112.965,63.884 111.928,64.481 L88.504,77.262 C87.417,77.860 86.951,78.897 87.000,79.876 C86.951,80.913 87.417,81.942 88.504,82.540 L111.928,95.328 C112.965,95.926 114.207,96.199 115.456,96.199 C116.698,96.199 117.940,95.926 118.978,95.328 L142.402,82.540 Z"/>
<path fill-rule="evenodd"  fill="rgb(98, 98, 98)"
 d="M142.402,80.598 C143.488,80.000 144.004,78.964 143.905,77.984 C144.010,76.948 143.488,75.968 142.402,75.370 L118.978,62.539 C117.940,61.942 116.698,61.668 115.456,61.668 C114.214,61.668 112.965,61.942 111.928,62.539 L88.504,75.320 C87.417,75.918 86.951,76.954 87.000,77.934 C86.951,78.971 87.417,80.000 88.504,80.598 L111.928,93.386 C112.965,93.984 114.207,94.257 115.456,94.257 C116.698,94.257 117.940,93.984 118.978,93.386 L142.402,80.598 Z"/>
<path fill-rule="evenodd"  fill="rgb(127, 127, 127)"
 d="M142.402,79.940 C143.488,79.342 144.004,78.305 143.905,77.326 C144.010,76.289 143.488,75.310 142.402,74.712 L118.978,61.881 C117.940,61.283 116.698,61.010 115.456,61.010 C114.214,61.010 112.965,61.283 111.928,61.881 L88.504,74.662 C87.417,75.259 86.951,76.296 87.000,77.275 C86.951,78.312 87.417,79.342 88.504,79.940 L111.928,92.728 C112.965,93.325 114.207,93.599 115.456,93.599 C116.698,93.599 117.940,93.325 118.978,92.728 L142.402,79.940 Z"/>
<path fill-rule="evenodd"  fill="rgb(98, 98, 98)"
 d="M142.402,77.997 C143.488,77.400 144.004,76.363 143.905,75.384 C144.010,74.347 143.488,73.368 142.402,72.770 L118.978,59.939 C117.940,59.341 116.698,59.067 115.456,59.067 C114.214,59.067 112.965,59.341 111.928,59.939 L88.504,72.720 C87.417,73.317 86.951,74.354 87.000,75.333 C86.951,76.370 87.417,77.400 88.504,77.997 L111.928,90.785 C112.965,91.383 114.207,91.656 115.456,91.656 C116.698,91.656 117.940,91.383 118.978,90.785 L142.402,77.997 Z"/>
<path fill-rule="evenodd"  fill="rgb(127, 127, 127)"
 d="M142.402,77.339 C143.488,76.741 144.004,75.705 143.905,74.725 C144.010,73.689 143.488,72.709 142.402,72.112 L118.978,59.280 C117.940,58.683 116.698,58.409 115.456,58.409 C114.214,58.409 112.965,58.683 111.928,59.280 L88.504,72.061 C87.417,72.659 86.951,73.696 87.000,74.675 C86.951,75.712 87.417,76.741 88.504,77.339 L111.928,90.127 C112.965,90.724 114.207,90.998 115.456,90.998 C116.698,90.998 117.940,90.724 118.978,90.127 L142.402,77.339 Z"/>
<path fill-rule="evenodd"  fill="rgb(98, 98, 98)"
 d="M142.402,75.397 C143.488,74.799 144.004,73.762 143.905,72.783 C144.010,71.746 143.488,70.767 142.402,70.169 L118.978,57.338 C117.940,56.741 116.698,56.467 115.456,56.467 C114.214,56.467 112.965,56.741 111.928,57.338 L88.504,70.119 C87.417,70.717 86.951,71.754 87.000,72.733 C86.951,73.770 87.417,74.799 88.504,75.397 L111.928,88.185 C112.965,88.782 114.207,89.056 115.456,89.056 C116.698,89.056 117.940,88.782 118.978,88.185 L142.402,75.397 Z"/>
<path fill-rule="evenodd"  fill="rgb(127, 127, 127)"
 d="M142.402,74.738 C143.488,74.141 144.004,73.104 143.905,72.125 C144.010,71.088 143.488,70.108 142.402,69.511 L118.978,56.680 C117.940,56.082 116.698,55.808 115.456,55.808 C114.214,55.808 112.965,56.082 111.928,56.680 L88.504,69.461 C87.417,70.058 86.951,71.095 87.000,72.074 C86.951,73.111 87.417,74.141 88.504,74.738 L111.928,87.526 C112.965,88.124 114.207,88.398 115.456,88.398 C116.698,88.398 117.940,88.124 118.978,87.526 L142.402,74.738 Z"/>
<path fill-rule="evenodd"  fill="rgb(98, 98, 98)"
 d="M142.402,72.796 C143.488,72.199 144.004,71.162 143.905,70.183 C144.010,69.146 143.488,68.166 142.402,67.569 L118.978,54.738 C117.940,54.140 116.698,53.866 115.456,53.866 C114.214,53.866 112.965,54.140 111.928,54.738 L88.504,67.518 C87.417,68.116 86.951,69.153 87.000,70.132 C86.951,71.169 87.417,72.199 88.504,72.796 L111.928,85.584 C112.965,86.182 114.207,86.456 115.456,86.456 C116.698,86.456 117.940,86.182 118.978,85.584 L142.402,72.796 Z"/>
<path fill-rule="evenodd"  fill="rgb(127, 127, 127)"
 d="M142.402,72.138 C143.488,71.540 144.004,70.504 143.905,69.524 C144.010,68.487 143.488,67.508 142.402,66.910 L118.978,54.079 C117.940,53.482 116.698,53.208 115.456,53.208 C114.214,53.208 112.965,53.482 111.928,54.079 L88.504,66.860 C87.417,67.458 86.951,68.495 87.000,69.474 C86.951,70.511 87.417,71.540 88.504,72.138 L111.928,84.926 C112.965,85.524 114.207,85.797 115.456,85.797 C116.698,85.797 117.940,85.524 118.978,84.926 L142.402,72.138 Z"/>
<path fill-rule="evenodd"  fill="rgb(98, 98, 98)"
 d="M142.402,70.196 C143.488,69.598 144.004,68.561 143.905,67.582 C144.010,66.545 143.488,65.566 142.402,64.968 L118.978,52.137 C117.940,51.539 116.698,51.266 115.456,51.266 C114.214,51.266 112.965,51.539 111.928,52.137 L88.504,64.918 C87.417,65.515 86.951,66.552 87.000,67.532 C86.951,68.568 87.417,69.598 88.504,70.196 L111.928,82.984 C112.965,83.582 114.207,83.855 115.456,83.855 C116.698,83.855 117.940,83.582 118.978,82.984 L142.402,70.196 Z"/>
<path fill-rule="evenodd"  fill="rgb(127, 127, 127)"
 d="M142.402,69.537 C143.488,68.940 144.004,67.903 143.905,66.924 C144.010,65.887 143.488,64.908 142.402,64.309 L118.978,51.479 C117.940,50.881 116.698,50.607 115.456,50.607 C114.214,50.607 112.965,50.881 111.928,51.479 L88.504,64.260 C87.417,64.857 86.951,65.894 87.000,66.873 C86.951,67.910 87.417,68.940 88.504,69.537 L111.928,82.325 C112.965,82.923 114.207,83.196 115.456,83.196 C116.698,83.196 117.940,82.923 118.978,82.325 L142.402,69.537 Z"/>
<path fill-rule="evenodd"  fill="rgb(98, 98, 98)"
 d="M142.402,67.595 C143.488,66.997 144.004,65.961 143.905,64.981 C144.010,63.945 143.488,62.965 142.402,62.368 L118.978,49.537 C117.940,48.939 116.698,48.665 115.456,48.665 C114.214,48.665 112.965,48.939 111.928,49.537 L88.504,62.317 C87.417,62.915 86.951,63.952 87.000,64.931 C86.951,65.968 87.417,66.997 88.504,67.595 L111.928,80.383 C112.965,80.981 114.207,81.255 115.456,81.255 C116.698,81.255 117.940,80.981 118.978,80.383 L142.402,67.595 Z"/>
<path fill-rule="evenodd"  fill="rgb(127, 127, 127)"
 d="M142.402,66.937 C143.488,66.339 144.004,65.302 143.905,64.323 C144.010,63.286 143.488,62.307 142.402,61.709 L118.978,48.878 C117.940,48.280 116.698,48.007 115.456,48.007 C114.214,48.007 112.965,48.280 111.928,48.878 L88.504,61.659 C87.417,62.257 86.951,63.293 87.000,64.272 C86.951,65.309 87.417,66.339 88.504,66.937 L111.928,79.725 C112.965,80.323 114.207,80.596 115.456,80.596 C116.698,80.596 117.940,80.323 118.978,79.725 L142.402,66.937 Z"/>
<path fill-rule="evenodd"  fill="rgb(98, 98, 98)"
 d="M142.402,64.995 C143.488,64.397 144.004,63.360 143.905,62.381 C144.010,61.344 143.488,60.365 142.402,59.767 L118.978,46.936 C117.940,46.338 116.698,46.065 115.456,46.065 C114.214,46.065 112.965,46.338 111.928,46.936 L88.504,59.717 C87.417,60.314 86.951,61.351 87.000,62.330 C86.951,63.367 87.417,64.397 88.504,64.995 L111.928,77.782 C112.965,78.380 114.207,78.654 115.456,78.654 C116.698,78.654 117.940,78.380 118.978,77.782 L142.402,64.995 Z"/>
<path fill-rule="evenodd"  fill="rgb(127, 127, 127)"
 d="M142.402,64.336 C143.488,63.739 144.004,62.702 143.905,61.723 C144.010,60.686 143.488,59.706 142.402,59.109 L118.978,46.277 C117.940,45.680 116.698,45.406 115.456,45.406 C114.214,45.406 112.965,45.680 111.928,46.277 L88.504,59.059 C87.417,59.656 86.951,60.693 87.000,61.672 C86.951,62.709 87.417,63.739 88.504,64.336 L111.928,77.124 C112.965,77.722 114.207,77.996 115.456,77.996 C116.698,77.996 117.940,77.722 118.978,77.124 L142.402,64.336 Z"/>
<path fill-rule="evenodd"  fill="rgb(98, 98, 98)"
 d="M142.402,62.394 C143.488,61.797 144.004,60.760 143.905,59.780 C144.010,58.744 143.488,57.764 142.402,57.167 L118.978,44.335 C117.940,43.738 116.698,43.464 115.456,43.464 C114.214,43.464 112.965,43.738 111.928,44.335 L88.504,57.116 C87.417,57.714 86.951,58.751 87.000,59.730 C86.951,60.767 87.417,61.797 88.504,62.394 L111.928,75.182 C112.965,75.780 114.207,76.053 115.456,76.053 C116.698,76.053 117.940,75.780 118.978,75.182 L142.402,62.394 Z"/>
<path fill-rule="evenodd"  fill="rgb(127, 127, 127)"
 d="M142.402,61.736 C143.488,61.138 144.004,60.101 143.905,59.122 C144.010,58.085 143.488,57.106 142.402,56.508 L118.978,43.677 C117.940,43.079 116.698,42.806 115.456,42.806 C114.214,42.806 112.965,43.079 111.928,43.677 L88.504,56.458 C87.417,57.055 86.951,58.092 87.000,59.071 C86.951,60.108 87.417,61.138 88.504,61.736 L111.928,74.523 C112.965,75.121 114.207,75.395 115.456,75.395 C116.698,75.395 117.940,75.121 118.978,74.523 L142.402,61.736 Z"/>
<path fill-rule="evenodd"  fill="rgb(98, 98, 98)"
 d="M142.402,59.794 C143.488,59.196 144.004,58.159 143.905,57.180 C144.010,56.143 143.488,55.164 142.402,54.566 L118.978,41.735 C117.940,41.137 116.698,40.864 115.456,40.864 C114.214,40.864 112.965,41.137 111.928,41.735 L88.504,54.516 C87.417,55.113 86.951,56.150 87.000,57.129 C86.951,58.166 87.417,59.196 88.504,59.794 L111.928,72.582 C112.965,73.179 114.207,73.453 115.456,73.453 C116.698,73.453 117.940,73.179 118.978,72.582 L142.402,59.794 Z"/>
<path fill-rule="evenodd"  fill="rgb(127, 127, 127)"
 d="M142.402,59.135 C143.488,58.538 144.004,57.501 143.905,56.522 C144.010,55.485 143.488,54.505 142.402,53.908 L118.978,41.077 C117.940,40.479 116.698,40.205 115.456,40.205 C114.214,40.205 112.965,40.479 111.928,41.077 L88.504,53.857 C87.417,54.455 86.951,55.492 87.000,56.471 C86.951,57.507 87.417,58.538 88.504,59.135 L111.928,71.923 C112.965,72.521 114.207,72.795 115.456,72.795 C116.698,72.795 117.940,72.521 118.978,71.923 L142.402,59.135 Z"/>
<path fill-rule="evenodd"  fill="rgb(98, 98, 98)"
 d="M142.402,57.193 C143.488,56.595 144.004,55.559 143.905,54.580 C144.010,53.543 143.488,52.563 142.402,51.965 L118.978,39.134 C117.940,38.537 116.698,38.263 115.456,38.263 C114.214,38.263 112.965,38.537 111.928,39.134 L88.504,51.915 C87.417,52.513 86.951,53.550 87.000,54.529 C86.951,55.565 87.417,56.595 88.504,57.193 L111.928,69.981 C112.965,70.579 114.207,70.852 115.456,70.852 C116.698,70.852 117.940,70.579 118.978,69.981 L142.402,57.193 Z"/>
<path fill-rule="evenodd"  fill="rgb(127, 127, 127)"
 d="M142.402,56.535 C143.488,55.937 144.004,54.900 143.905,53.921 C144.010,52.884 143.488,51.905 142.402,51.307 L118.978,38.476 C117.940,37.878 116.698,37.605 115.456,37.605 C114.214,37.605 112.965,37.878 111.928,38.476 L88.504,51.257 C87.417,51.854 86.951,52.891 87.000,53.871 C86.951,54.907 87.417,55.937 88.504,56.535 L111.928,69.322 C112.965,69.920 114.207,70.194 115.456,70.194 C116.698,70.194 117.940,69.920 118.978,69.322 L142.402,56.535 Z"/>
<path fill-rule="evenodd"  fill="rgb(108, 108, 108)"
 d="M142.402,54.592 C143.488,53.995 144.004,52.958 143.905,51.979 C144.010,50.942 143.488,49.963 142.402,49.365 L118.978,36.534 C117.940,35.936 116.698,35.662 115.456,35.662 C114.214,35.662 112.965,35.936 111.928,36.534 L88.504,49.315 C87.417,49.912 86.951,50.949 87.000,51.928 C86.951,52.965 87.417,53.995 88.504,54.592 L111.928,67.380 C112.965,67.978 114.207,68.252 115.456,68.252 C116.698,68.252 117.940,67.978 118.978,67.380 L142.402,54.592 Z"/>
<path fill-rule="evenodd"  fill="rgb(127, 127, 127)"
 d="M142.402,53.934 C143.488,53.336 144.004,52.300 143.905,51.320 C144.010,50.284 143.488,49.304 142.402,48.707 L118.978,35.875 C117.940,35.278 116.698,35.004 115.456,35.004 C114.214,35.004 112.965,35.278 111.928,35.875 L88.504,48.656 C87.417,49.254 86.951,50.290 87.000,51.270 C86.951,52.307 87.417,53.336 88.504,53.934 L111.928,66.722 C112.965,67.320 114.207,67.593 115.456,67.593 C116.698,67.593 117.940,67.320 118.978,66.722 L142.402,53.934 Z"/>
<path fill-rule="evenodd"  stroke="rgb(109, 109, 109)" stroke-width="1px" stroke-linecap="butt" stroke-linejoin="miter" fill="none"
 d="M136.645,53.360 C137.500,52.883 137.905,52.056 137.827,51.274 C137.910,50.447 137.500,49.665 136.645,49.188 L118.234,38.949 C117.418,38.472 116.442,38.254 115.466,38.254 C114.489,38.254 113.508,38.472 112.692,38.949 L94.280,49.148 C93.426,49.625 93.060,50.453 93.098,51.234 C93.060,52.061 93.426,52.883 94.280,53.360 L112.692,63.565 C113.508,64.042 114.484,64.260 115.466,64.260 C116.442,64.260 117.418,64.042 118.234,63.565 L136.645,53.360 Z"/>
<path fill-rule="evenodd"  stroke="rgb(109, 109, 109)" stroke-width="1px" stroke-linecap="butt" stroke-linejoin="miter" fill="none"
 d="M116.708,40.981 L115.893,40.612 L113.989,41.473 L117.796,41.473 L118.475,41.965 L112.630,41.965 L111.407,42.580 L120.107,42.580 L121.195,43.318 L110.183,43.318 L109.231,43.933 L122.690,43.933 L124.049,44.671 L107.600,44.671 L106.377,45.409 L125.681,45.409 L126.768,46.147 L104.882,46.147 L103.930,46.763 L128.535,46.886 L129.623,47.501 L102.027,47.624 L100.939,48.239 L131.390,48.362 L132.342,48.977 L99.444,49.100 L98.356,49.838 L133.807,49.838 L134.895,50.576 L96.453,50.576 L95.961,51.191 L135.545,51.437 L135.167,52.175 L96.725,52.175 L97.676,52.791 L133.157,53.037 L132.070,53.775 L99.851,53.775 L100.803,54.390 L130.710,54.390 L129.894,55.128 L102.570,55.128 L103.386,55.743 L127.720,55.866 L126.768,56.604 L105.289,56.604 L106.241,57.219 L125.001,57.219 L124.049,57.957 L108.008,58.080 L108.959,58.695 L121.874,58.818 L120.923,59.556 L111.271,59.556 L112.222,60.294 L119.155,60.171 L118.339,60.910 L114.261,61.033 L115.893,61.894 L116.844,61.524 "/>
<path fill-rule="evenodd"  opacity="0.302" fill="rgb(0, 0, 0)"
 d="M115.456,104.001 C116.698,104.001 117.940,103.728 118.978,103.130 L142.402,90.342 C143.488,89.744 144.004,88.707 143.905,87.728 C144.010,86.691 144.048,50.289 143.905,51.320 C144.004,52.860 143.482,53.776 142.395,54.374 L121.558,65.816 C120.520,66.414 116.487,68.046 115.967,67.896 C115.962,67.895 116.460,68.774 116.444,69.419 C116.437,69.734 115.921,70.117 115.912,70.559 C115.904,70.903 116.405,71.284 116.396,71.697 C116.388,72.078 115.872,72.487 115.863,72.920 C115.855,73.317 116.355,73.734 116.347,74.170 C116.338,74.593 115.822,75.033 115.813,75.489 C115.803,75.977 116.302,76.483 116.292,77.004 C116.285,77.416 115.768,77.837 115.760,78.265 C115.752,78.722 116.251,79.187 116.242,79.659 C116.237,79.957 115.723,80.258 115.717,80.562 C115.708,81.040 116.208,81.524 116.199,82.012 C116.190,82.454 115.674,82.900 115.666,83.348 C115.658,83.806 116.157,84.267 116.149,84.729 C116.141,85.193 115.624,85.659 115.615,86.124 C115.607,86.566 116.108,87.008 116.099,87.448 C116.092,87.836 115.577,88.223 115.570,88.608 C115.563,89.013 116.064,89.416 116.057,89.817 C116.048,90.278 115.532,90.736 115.524,91.188 C115.515,91.646 116.016,92.099 116.008,92.544 C116.000,92.958 115.485,93.366 115.478,93.767 C115.469,94.209 115.970,94.642 115.962,95.065 C115.955,95.488 115.439,95.901 115.432,96.303 C115.423,96.832 115.922,97.340 115.913,97.825 C115.907,98.209 115.392,98.578 115.386,98.930 C115.378,99.359 115.879,99.762 115.872,100.138 C115.865,100.530 115.351,100.892 115.345,101.219 C115.336,101.711 115.837,102.127 115.831,102.453 C115.822,102.987 115.309,103.282 115.309,103.282 C115.309,103.282 115.401,104.001 115.456,104.001 Z"/>
<path fill-rule="evenodd"  fill="rgb(23, 204, 95)"
 d="M236.000,26.000 C237.104,26.000 238.000,26.895 238.000,27.999 L238.000,50.000 C238.000,51.104 237.104,52.000 236.000,52.000 C234.895,52.000 233.999,51.104 233.999,50.000 L233.999,27.999 C233.999,26.895 234.895,26.000 236.000,26.000 Z"/>
<path fill-rule="evenodd"  fill="rgb(183, 183, 183)"
 d="M221.010,0.343 C221.010,0.343 220.986,15.501 221.010,15.828 C221.035,16.156 221.439,17.067 222.785,18.400 C224.131,19.732 234.688,31.586 234.852,31.771 C235.015,31.956 235.181,32.284 235.739,32.285 C236.297,32.286 236.769,31.823 237.159,31.428 C237.548,31.033 249.320,17.887 249.757,17.371 C250.195,16.855 250.641,16.041 250.645,14.628 C250.648,13.216 250.645,0.343 250.645,0.343 L221.010,0.343 Z"/>
<path fill-rule="evenodd"  fill="rgb(207, 207, 207)"
 d="M222.608,18.057 C222.608,18.057 223.446,19.071 225.092,19.771 C227.711,20.885 232.132,21.843 236.626,21.486 C243.944,20.903 248.515,19.428 248.515,19.428 L236.449,32.457 L234.674,32.285 L222.430,18.400 L222.608,18.057 Z"/>
<path fill-rule="evenodd"  fill="rgb(127, 127, 127)"
 d="M244.966,-0.000 L244.966,20.114 L236.271,32.457 L236.626,32.457 C236.626,32.457 250.420,16.957 250.822,16.171 C251.225,15.385 250.822,-0.000 250.822,-0.000 L244.966,-0.000 Z"/>
<path fill-rule="evenodd"  fill="rgb(249, 249, 249)"
 d="M224.915,0.343 L224.915,19.600 L235.562,32.285 L231.835,21.314 L232.012,0.171 L224.915,0.343 Z"/>
<path fill-rule="evenodd"  fill="rgb(255, 255, 255)"
 d="M269.146,32.601 L250.859,32.601 C250.387,32.601 250.003,32.243 250.003,31.801 C250.003,31.359 250.387,31.001 250.859,31.001 L269.146,31.001 C269.619,31.001 270.003,31.359 270.003,31.801 C270.003,32.243 269.619,32.601 269.146,32.601 ZM262.255,44.834 C262.591,44.532 263.126,44.536 263.456,44.845 C263.786,45.153 263.792,45.652 263.466,45.966 L260.608,48.633 C260.274,48.945 259.732,48.945 259.397,48.633 L256.540,45.966 C256.226,45.651 256.235,45.160 256.561,44.855 C256.888,44.551 257.414,44.542 257.752,44.836 L259.145,46.136 L259.145,35.867 L257.752,37.167 C257.415,37.471 256.880,37.466 256.549,37.157 C256.219,36.848 256.215,36.349 256.540,36.035 L259.395,33.371 C259.475,33.296 259.570,33.237 259.676,33.196 C259.766,33.162 259.860,33.148 259.955,33.143 C259.972,33.143 259.986,33.135 260.003,33.135 C260.022,33.135 260.038,33.143 260.056,33.145 C260.149,33.150 260.242,33.162 260.329,33.196 C260.436,33.237 260.532,33.297 260.612,33.373 L263.466,36.035 C263.780,36.351 263.771,36.842 263.445,37.147 C263.119,37.451 262.592,37.460 262.255,37.166 L260.861,35.866 L260.861,46.135 L262.255,44.834 ZM250.859,49.401 L269.146,49.401 C269.619,49.401 270.003,49.759 270.003,50.201 C270.003,50.643 269.619,51.001 269.146,51.001 L250.859,51.001 C250.387,51.001 250.003,50.643 250.003,50.201 C250.003,49.759 250.387,49.401 250.859,49.401 Z"/>
</svg>
