<svg width="32" height="32" viewBox="0 0 32 32" fill="none" xmlns="http://www.w3.org/2000/svg">
  <path fill-rule="evenodd" clip-rule="evenodd"
    d="M24.9321 10.0518L16.9092 4.88347C16.2611 4.50239 15.4626 4.50239 14.8145 4.88347L6.79161 10.0518C6.14351 10.4329 5.74426 11.1371 5.74426 11.8993V20.1026C5.74426 20.8648 6.14351 21.569 6.79161 21.9501L14.8145 27.1185C15.4626 27.4995 16.2611 27.4995 16.9092 27.1185L24.9321 21.9501C25.5802 21.569 25.9795 20.8648 25.9795 20.1026V11.8993C25.9795 11.1371 25.5802 10.4329 24.9321 10.0518ZM7.83844 11.8988L15.8614 6.73047L23.8843 11.8988V20.1021L15.8614 25.2704L7.83844 20.1021V11.8988ZM20.0511 16.0018C20.0511 13.6454 18.1755 11.7352 15.8618 11.7352C13.548 11.7352 11.6724 13.6454 11.6724 16.0018C11.6724 18.3582 13.548 20.2685 15.8618 20.2685C18.1755 20.2685 20.0511 18.3582 20.0511 16.0018ZM13.7666 16.0013C13.7666 14.8231 14.7044 13.868 15.8612 13.868C17.0181 13.868 17.9559 14.8231 17.9559 16.0013C17.9559 17.1795 17.0181 18.1346 15.8612 18.1346C14.7044 18.1346 13.7666 17.1795 13.7666 16.0013Z"
    fill="#595959"></path>
  <path
    d="M15.862 13.8672C14.7052 13.8672 13.7673 14.8223 13.7673 16.0005C13.7673 17.1787 14.7052 18.1339 15.862 18.1339C17.0189 18.1339 17.9567 17.1787 17.9567 16.0005C17.9567 14.8223 17.0189 13.8672 15.862 13.8672Z"
    fill="#DDDDDD"></path>
</svg>
