<svg 
 xmlns="http://www.w3.org/2000/svg"
 xmlns:xlink="http://www.w3.org/1999/xlink"
 width="24px" height="24px">
<path fill-rule="evenodd"  fill="rgb(85, 85, 85)"
 d="M23.000,21.000 L1.000,21.000 C0.447,21.000 -0.000,20.552 -0.000,20.000 C-0.000,19.448 0.447,19.000 1.000,19.000 L23.000,19.000 C23.552,19.000 24.000,19.448 24.000,20.000 C24.000,20.552 23.552,21.000 23.000,21.000 ZM23.000,18.000 L1.000,18.000 C0.447,18.000 -0.000,17.552 -0.000,17.000 C-0.000,16.448 0.447,16.000 1.000,16.000 L23.000,16.000 C23.552,16.000 24.000,16.448 24.000,17.000 C24.000,17.552 23.552,18.000 23.000,18.000 ZM23.000,14.000 L1.000,14.000 C0.447,14.000 -0.000,13.552 -0.000,13.000 C-0.000,12.448 0.447,12.000 1.000,12.000 L23.000,12.000 C23.552,12.000 24.000,12.448 24.000,13.000 C24.000,13.552 23.552,14.000 23.000,14.000 ZM23.000,9.000 L1.000,9.000 C0.447,9.000 -0.000,8.552 -0.000,8.000 C-0.000,7.448 0.447,7.000 1.000,7.000 L23.000,7.000 C23.552,7.000 24.000,7.448 24.000,8.000 C24.000,8.552 23.552,9.000 23.000,9.000 ZM23.000,5.000 L1.000,5.000 C0.447,5.000 -0.000,4.552 -0.000,4.000 C-0.000,3.448 0.447,3.000 1.000,3.000 L23.000,3.000 C23.552,3.000 24.000,3.448 24.000,4.000 C24.000,4.552 23.552,5.000 23.000,5.000 ZM23.000,2.000 L1.000,2.000 C0.447,2.000 -0.000,1.552 -0.000,1.000 C-0.000,0.448 0.447,-0.000 1.000,-0.000 L23.000,-0.000 C23.552,-0.000 24.000,0.448 24.000,1.000 C24.000,1.552 23.552,2.000 23.000,2.000 ZM1.000,22.000 L23.000,22.000 C23.552,22.000 24.000,22.448 24.000,23.000 C24.000,23.552 23.552,24.000 23.000,24.000 L1.000,24.000 C0.447,24.000 -0.000,23.552 -0.000,23.000 C-0.000,22.448 0.447,22.000 1.000,22.000 Z"/>
</svg>
