<svg width="24.000000" height="24.000000" viewBox="0 0 24 24" fill="none" xmlns="http://www.w3.org/2000/svg" xmlns:xlink="http://www.w3.org/1999/xlink">
	<desc>
			Created with Pixso.
	</desc>
	<defs>
		<clipPath id="clip2_3">
			<rect id="pick_dark" width="24.000000" height="24.000000" fill="white" fill-opacity="0"/>
		</clipPath>
	</defs>
	<g clip-path="url(#clip2_3)">
		<path id="path" d="M23.787 17.276L20.925 19.923C20.813 20.027 20.64 20.024 20.532 19.917L17.838 17.276C17.608 16.787 17.608 16.413 17.838 16.151C18.067 15.888 18.431 15.856 18.926 16.054L19.955 16.983L19.955 15.85C19.955 14.071 18.471 12.616 16.638 12.616C16.203 12.515 16 12.248 16 11.812C16 11.378 16.217 11.107 16.652 11C19.371 11 21.602 13.184 21.602 15.85L21.602 16.982L22.632 16.054C23.118 15.84 23.502 15.872 23.787 16.151C24.07 16.429 24.07 16.803 23.787 17.276ZM9.597 18.292C9.061 19.185 7.931 19.458 7.075 18.898L0.865997 14.849C0.00800323 14.29 -0.25 13.113 0.285004 12.22L7.085 0.896996C7.621 0.0039978 8.75 -0.266998 9.606 0.292L15.815 4.34C16.672 4.898 16.933 6.076 16.396 6.969L9.597 18.292ZM0.998001 21.999L22.999 21.999C23.44 21.999 23.998 22.558 23.998 22.999C23.998 23.441 23.436 23.999 22.994 23.999L0.831001 23.999C0.389 23.999 -0.000999451 23.441 -0.000999451 22.999C-0.000999451 22.558 0.556 21.999 0.998001 21.999Z" fill="#555555" fill-opacity="1.000000" fill-rule="evenodd"/>
		<path id="Auto" d="M1.20058 6.26215C1.32997 5.84711 1.45082 5.45161 1.56557 5.02192L1.5851 5.02192C1.70473 5.44672 1.82069 5.84711 1.95497 6.26215L2.13075 6.82124L1.01991 6.82124L1.20058 6.26215ZM0.0799713 8.31171L0.549942 8.31171L0.905167 7.19111L2.2455 7.19111L2.59584 8.31171L3.08534 8.31171L1.84023 4.64228L1.32509 4.64228L0.0799713 8.31171ZM4.31532 8.37641C4.69008 8.37641 4.95985 8.18232 5.21498 7.88691L5.23085 7.88691L5.26503 8.31171L5.64589 8.31171L5.64589 5.59687L5.19057 5.59687L5.19057 7.52192C4.93056 7.84663 4.73524 7.98212 4.4557 7.98212C4.0956 7.98212 3.94545 7.76728 3.94545 7.26191L3.94545 5.59687L3.49013 5.59687L3.49013 7.31684C3.49013 8.00654 3.74525 8.37641 4.31532 8.37641ZM7.41502 8.37641C7.57981 8.37641 7.76048 8.32636 7.91551 8.27631L7.82518 7.93696C7.73484 7.97114 7.61033 8.00654 7.51512 8.00654C7.20018 8.00654 7.0952 7.81611 7.0952 7.48164L7.0952 5.96674L7.83006 5.96674L7.83006 5.59687L7.0952 5.59687L7.0952 4.83149L6.71556 4.83149L6.66063 5.59687L6.23582 5.62128L6.23582 5.96674L6.63987 5.96674L6.63987 7.47187C6.63987 8.01142 6.83519 8.37641 7.41502 8.37641ZM9.42521 8.37641C10.0905 8.37641 10.685 7.85639 10.685 6.95673C10.685 6.05219 10.0905 5.52729 9.42521 5.52729C8.75993 5.52729 8.16545 6.05219 8.16545 6.95673C8.16545 7.85639 8.75993 8.37641 9.42521 8.37641ZM9.42521 7.99677C8.95524 7.99677 8.6403 7.58173 8.6403 6.95673C8.6403 6.33173 8.95524 5.90693 9.42521 5.90693C9.89519 5.90693 10.215 6.33173 10.215 6.95673C10.215 7.58173 9.89519 7.99677 9.42521 7.99677Z" fill="#7F7F7F" fill-opacity="1.000000" fill-rule="evenodd"/>
	</g>
</svg>
