<svg 
 xmlns="http://www.w3.org/2000/svg"
 xmlns:xlink="http://www.w3.org/1999/xlink"
 width="22px" height="22px">
<path fill-rule="evenodd"  fill="rgb(102, 102, 102)"
 d="M19.995,13.997 L8.995,13.997 C7.891,13.997 6.996,13.101 6.996,11.997 L6.996,1.996 C6.996,0.893 7.891,-0.003 8.995,-0.003 L19.995,-0.003 C21.100,-0.003 21.995,0.893 21.995,1.996 L21.995,12.165 C21.995,13.270 21.100,13.997 19.995,13.997 ZM18.996,5.997 L15.995,5.997 L15.995,2.997 L13.997,2.997 L13.997,5.997 L10.996,5.997 L10.996,7.997 L13.997,7.997 L13.997,10.997 L15.995,10.997 L15.995,7.997 L18.996,7.997 L18.996,5.997 ZM1.996,19.997 L14.995,19.997 L14.995,14.997 L16.995,14.997 L16.995,19.997 C16.995,21.090 16.280,21.993 15.188,21.993 L1.970,21.993 C0.875,21.993 -0.012,21.107 -0.012,20.014 L-0.012,6.794 C-0.012,5.702 0.901,4.997 1.996,4.997 L5.995,4.997 L5.995,6.997 L1.996,6.997 L1.996,19.997 Z"/>
</svg>
