<svg 
 xmlns="http://www.w3.org/2000/svg"
 xmlns:xlink="http://www.w3.org/1999/xlink"
 width="22px" height="22px">
<path fill-rule="evenodd"  fill="rgb(85, 85, 85)"
 d="M19.993,13.997 L8.992,13.997 C7.888,13.997 6.993,13.101 6.993,11.996 L6.993,1.996 C6.993,0.892 7.888,-0.004 8.992,-0.004 L19.993,-0.004 C21.098,-0.004 21.993,0.892 21.993,1.996 L21.993,12.165 C21.993,13.269 21.098,13.997 19.993,13.997 ZM18.993,5.996 L15.993,5.996 L15.993,2.996 L13.994,2.996 L13.994,5.996 L10.994,5.996 L10.994,7.996 L13.994,7.996 L13.994,10.996 L15.993,10.996 L15.993,7.996 L18.993,7.996 L18.993,5.996 ZM1.994,19.996 L14.993,19.996 L14.993,14.996 L16.993,14.996 L16.993,19.996 C16.993,21.089 16.278,21.993 15.185,21.993 L1.967,21.993 C0.873,21.993 -0.014,21.106 -0.014,20.013 L-0.014,6.793 C-0.014,5.701 0.898,4.996 1.994,4.996 L5.993,4.996 L5.993,6.996 L1.994,6.996 L1.994,19.996 Z"/>
</svg>
