<svg 
 xmlns="http://www.w3.org/2000/svg"
 xmlns:xlink="http://www.w3.org/1999/xlink"
 width="22px" height="22px">
<path fill-rule="evenodd"  fill="rgb(145, 145, 152)"
 d="M19.998,14.000 L8.999,14.000 C7.894,14.000 6.999,13.104 6.999,11.999 L6.999,1.999 C6.999,0.895 7.894,-0.000 8.999,-0.000 L19.998,-0.000 C21.104,-0.000 21.999,0.895 21.999,1.999 L21.999,12.168 C21.999,13.272 21.104,14.000 19.998,14.000 ZM18.999,5.999 L15.998,5.999 L15.998,2.999 L13.999,2.999 L13.999,5.999 L10.999,5.999 L10.999,7.999 L13.999,7.999 L13.999,10.999 L15.998,10.999 L15.998,7.999 L18.999,7.999 L18.999,5.999 ZM1.999,19.999 L14.998,19.999 L14.998,15.000 L16.999,15.000 L16.999,19.999 C16.999,21.092 16.283,21.996 15.192,21.996 L1.972,21.996 C0.877,21.996 -0.008,21.110 -0.008,20.017 L-0.008,6.798 C-0.008,5.705 0.904,5.000 1.999,5.000 L5.999,5.000 L5.999,6.999 L1.999,6.999 L1.999,19.999 Z"/>
</svg>
