<svg 
 xmlns="http://www.w3.org/2000/svg"
 xmlns:xlink="http://www.w3.org/1999/xlink"
 width="22px" height="22px">
<path fill-rule="evenodd"  fill="rgb(203, 203, 203)"
 d="M19.999,14.000 L8.999,14.000 C7.894,14.000 6.999,13.104 6.999,12.000 L6.999,1.999 C6.999,0.895 7.894,-0.001 8.999,-0.001 L19.999,-0.001 C21.104,-0.001 21.999,0.895 21.999,1.999 L21.999,12.168 C21.999,13.272 21.104,14.000 19.999,14.000 ZM18.999,5.999 L15.999,5.999 L15.999,2.999 L13.999,2.999 L13.999,5.999 L10.999,5.999 L10.999,7.999 L13.999,7.999 L13.999,10.999 L15.999,10.999 L15.999,7.999 L18.999,7.999 L18.999,5.999 ZM1.999,20.000 L14.999,20.000 L14.999,15.000 L16.999,15.000 L16.999,20.000 C16.999,21.092 16.284,21.996 15.192,21.996 L1.973,21.996 C0.878,21.996 -0.008,21.110 -0.008,20.017 L-0.008,6.797 C-0.008,5.704 0.904,4.999 1.999,4.999 L5.999,4.999 L5.999,7.000 L1.999,7.000 L1.999,20.000 Z"/>
</svg>
