<svg 
 xmlns="http://www.w3.org/2000/svg"
 xmlns:xlink="http://www.w3.org/1999/xlink"
 width="26px" height="26px">
<path fill-rule="evenodd"  fill="rgb(85, 85, 85)"
 d="M12.997,4.397 C9.814,4.397 11.139,12.647 7.424,11.691 C2.311,10.374 -0.004,11.877 -0.004,15.198 C-0.004,21.163 5.817,25.999 12.997,25.999 C20.176,25.999 25.996,21.163 25.996,15.198 C25.996,9.233 20.176,4.397 12.997,4.397 L12.997,4.397 ZM4.330,16.473 C3.475,16.473 2.782,15.760 2.782,14.879 C2.782,13.999 3.475,13.285 4.330,13.285 C5.184,13.285 5.878,13.999 5.878,14.879 C5.878,15.760 5.184,16.473 4.330,16.473 L4.330,16.473 Z"/>
<path fill-rule="evenodd"  fill="rgb(85, 85, 85)"
 d="M7.099,21.889 C7.099,22.948 7.933,23.807 8.960,23.807 C9.988,23.807 10.820,22.948 10.820,21.889 C10.820,20.830 9.988,19.972 8.960,19.972 C7.933,19.972 7.099,20.830 7.099,21.889 L7.099,21.889 Z"/>
<path fill-rule="evenodd"  fill="rgb(85, 85, 85)"
 d="M12.706,22.537 C12.706,23.596 13.538,24.454 14.566,24.454 C15.594,24.454 16.426,23.596 16.426,22.537 C16.426,21.477 15.594,20.619 14.566,20.619 C13.538,20.619 12.706,21.477 12.706,22.537 L12.706,22.537 Z"/>
<path fill-rule="evenodd"  fill="rgb(85, 85, 85)"
 d="M17.972,19.996 C17.972,21.056 18.806,21.914 19.833,21.914 C20.861,21.914 21.694,21.056 21.694,19.996 C21.694,18.937 20.861,18.079 19.833,18.079 C18.806,18.079 17.972,18.937 17.972,19.996 L17.972,19.996 Z"/>
<path fill-rule="evenodd"  fill="rgb(85, 85, 85)"
 d="M20.437,14.219 C20.437,15.278 21.270,16.136 22.299,16.136 C23.326,16.136 24.159,15.278 24.159,14.219 C24.159,13.159 23.326,12.301 22.299,12.301 C21.270,12.301 20.437,13.159 20.437,14.219 L20.437,14.219 Z"/>
<path fill-rule="evenodd"  fill="rgb(85, 85, 85)"
 d="M19.372,8.186 C18.086,9.510 16.695,10.566 15.278,10.820 C15.278,10.827 15.281,10.843 15.281,10.843 L13.723,9.241 C13.723,9.241 13.736,9.240 13.742,9.240 C13.990,7.811 15.022,6.342 16.302,5.025 C19.335,1.903 23.965,-0.255 24.234,0.021 C24.504,0.299 22.316,5.157 19.372,8.186 Z"/>
<path fill-rule="evenodd"  fill="rgb(85, 85, 85)"
 d="M15.289,10.801 L13.750,9.213 C10.286,9.345 11.826,13.051 9.902,14.243 C11.230,14.243 13.493,14.243 14.392,13.316 C15.289,12.389 15.362,11.426 15.289,10.801 L15.289,10.801 Z"/>
</svg>
