<svg 
 xmlns="http://www.w3.org/2000/svg"
 xmlns:xlink="http://www.w3.org/1999/xlink"
 width="24px" height="22px">
<path fill-rule="evenodd"  fill="rgb(255, 255, 255)"
 d="M22.499,21.999 L4.500,21.999 C2.018,21.999 -0.000,19.885 -0.000,17.285 L-0.000,6.285 C-0.000,6.214 0.021,6.148 0.038,6.082 C0.014,5.891 -0.000,5.696 -0.000,5.499 C-0.000,2.466 3.027,-0.001 6.749,-0.001 C10.472,-0.001 13.500,2.466 13.500,5.499 L13.500,9.428 L22.499,9.428 C23.327,9.428 23.999,10.133 23.999,10.999 L23.999,20.428 C23.999,21.294 23.327,21.999 22.499,21.999 ZM6.749,1.571 C3.855,1.571 1.499,3.333 1.499,5.499 C1.499,7.666 3.855,9.428 6.749,9.428 C9.645,9.428 12.000,7.666 12.000,5.499 C12.000,3.333 9.645,1.571 6.749,1.571 ZM12.000,8.948 C11.832,9.117 11.654,9.277 11.465,9.428 L12.000,9.428 L12.000,8.948 ZM22.499,10.999 L6.749,10.999 C4.630,10.999 2.738,10.198 1.499,8.948 L1.499,17.285 C1.499,18.745 2.460,19.965 3.750,20.316 L3.750,16.892 C3.750,16.675 3.917,16.499 4.125,16.499 C4.332,16.499 4.500,16.675 4.500,16.892 L4.500,20.428 L7.500,20.428 L7.500,19.249 C7.500,19.032 7.667,18.856 7.874,18.856 C8.082,18.856 8.250,19.032 8.250,19.249 L8.250,20.428 L11.250,20.428 L11.250,16.892 C11.250,16.675 11.417,16.499 11.624,16.499 C11.832,16.499 12.000,16.675 12.000,16.892 L12.000,20.428 L15.000,20.428 L15.000,19.249 C15.000,19.032 15.168,18.856 15.374,18.856 C15.582,18.856 15.749,19.032 15.749,19.249 L15.749,20.428 L18.749,20.428 L18.749,16.892 C18.749,16.675 18.917,16.499 19.125,16.499 C19.332,16.499 19.500,16.675 19.500,16.892 L19.500,20.428 L22.499,20.428 L22.499,10.999 ZM6.749,7.856 C5.095,7.856 3.750,6.799 3.750,5.499 C3.750,4.200 5.095,3.142 6.749,3.142 C8.404,3.142 9.750,4.200 9.750,5.499 C9.750,6.799 8.404,7.856 6.749,7.856 ZM6.749,3.928 C5.530,3.928 4.500,4.648 4.500,5.499 C4.500,6.351 5.530,7.071 6.749,7.071 C7.969,7.071 9.000,6.351 9.000,5.499 C9.000,4.648 7.969,3.928 6.749,3.928 Z"/>
</svg>
