<svg 
 xmlns="http://www.w3.org/2000/svg"
 xmlns:xlink="http://www.w3.org/1999/xlink"
 width="24px" height="22px">
<path fill-rule="evenodd"  fill="rgb(203, 203, 203)"
 d="M22.500,21.999 L4.500,21.999 C2.018,21.999 -0.000,19.885 -0.000,17.285 L-0.000,6.285 C-0.000,6.214 0.021,6.148 0.039,6.082 C0.014,5.891 -0.000,5.696 -0.000,5.499 C-0.000,2.467 3.028,-0.001 6.749,-0.001 C10.472,-0.001 13.500,2.467 13.500,5.499 L13.500,9.428 L22.500,9.428 C23.327,9.428 24.000,10.133 24.000,10.999 L24.000,20.428 C24.000,21.295 23.327,21.999 22.500,21.999 ZM6.749,1.571 C3.855,1.571 1.499,3.333 1.499,5.499 C1.499,7.666 3.855,9.428 6.749,9.428 C9.645,9.428 12.000,7.666 12.000,5.499 C12.000,3.333 9.645,1.571 6.749,1.571 ZM12.000,8.949 C11.833,9.117 11.654,9.277 11.465,9.428 L12.000,9.428 L12.000,8.949 ZM22.500,10.999 L6.749,10.999 C4.630,10.999 2.738,10.198 1.499,8.949 L1.499,17.285 C1.499,18.745 2.460,19.965 3.750,20.317 L3.750,16.892 C3.750,16.675 3.918,16.500 4.125,16.500 C4.332,16.500 4.500,16.675 4.500,16.892 L4.500,20.428 L7.500,20.428 L7.500,19.250 C7.500,19.032 7.668,18.857 7.875,18.857 C8.082,18.857 8.250,19.032 8.250,19.250 L8.250,20.428 L11.250,20.428 L11.250,16.892 C11.250,16.675 11.418,16.500 11.625,16.500 C11.832,16.500 12.000,16.675 12.000,16.892 L12.000,20.428 L15.000,20.428 L15.000,19.250 C15.000,19.032 15.168,18.857 15.375,18.857 C15.582,18.857 15.750,19.032 15.750,19.250 L15.750,20.428 L18.749,20.428 L18.749,16.892 C18.749,16.675 18.917,16.500 19.125,16.500 C19.332,16.500 19.500,16.675 19.500,16.892 L19.500,20.428 L22.500,20.428 L22.500,10.999 ZM6.749,7.857 C5.095,7.857 3.750,6.799 3.750,5.499 C3.750,4.200 5.095,3.142 6.749,3.142 C8.404,3.142 9.750,4.200 9.750,5.499 C9.750,6.799 8.404,7.857 6.749,7.857 ZM6.749,3.928 C5.530,3.928 4.500,4.648 4.500,5.499 C4.500,6.351 5.530,7.071 6.749,7.071 C7.969,7.071 9.000,6.351 9.000,5.499 C9.000,4.648 7.969,3.928 6.749,3.928 Z"/>
</svg>
