<svg 
 xmlns="http://www.w3.org/2000/svg"
 xmlns:xlink="http://www.w3.org/1999/xlink"
 width="24px" height="22px">
<path fill-rule="evenodd"  fill="rgb(102, 102, 102)"
 d="M22.496,21.997 L4.496,21.997 C2.015,21.997 -0.004,19.883 -0.004,17.282 L-0.004,6.283 C-0.004,6.212 0.018,6.145 0.035,6.080 C0.011,5.888 -0.004,5.694 -0.004,5.497 C-0.004,2.464 3.025,-0.003 6.746,-0.003 C10.468,-0.003 13.497,2.464 13.497,5.497 L13.497,9.426 L22.496,9.426 C23.324,9.426 23.996,10.130 23.996,10.997 L23.996,20.425 C23.996,21.292 23.324,21.997 22.496,21.997 ZM6.746,1.569 C3.852,1.569 1.496,3.331 1.496,5.497 C1.496,7.663 3.852,9.426 6.746,9.426 C9.642,9.426 11.997,7.663 11.997,5.497 C11.997,3.331 9.642,1.569 6.746,1.569 ZM11.997,8.946 C11.829,9.114 11.651,9.274 11.462,9.426 L11.997,9.426 L11.997,8.946 ZM22.496,10.997 L6.746,10.997 C4.627,10.997 2.735,10.196 1.496,8.946 L1.496,17.282 C1.496,18.742 2.456,19.963 3.746,20.314 L3.746,16.889 C3.746,16.673 3.915,16.497 4.122,16.497 C4.328,16.497 4.496,16.673 4.496,16.889 L4.496,20.425 L7.497,20.425 L7.497,19.247 C7.497,19.030 7.664,18.854 7.871,18.854 C8.079,18.854 8.247,19.030 8.247,19.247 L8.247,20.425 L11.246,20.425 L11.246,16.889 C11.246,16.673 11.414,16.497 11.621,16.497 C11.829,16.497 11.997,16.673 11.997,16.889 L11.997,20.425 L14.997,20.425 L14.997,19.247 C14.997,19.030 15.164,18.854 15.371,18.854 C15.578,18.854 15.746,19.030 15.746,19.247 L15.746,20.425 L18.745,20.425 L18.745,16.889 C18.745,16.673 18.914,16.497 19.122,16.497 C19.328,16.497 19.497,16.673 19.497,16.889 L19.497,20.425 L22.496,20.425 L22.496,10.997 ZM6.746,7.854 C5.091,7.854 3.746,6.796 3.746,5.497 C3.746,4.198 5.091,3.140 6.746,3.140 C8.401,3.140 9.747,4.198 9.747,5.497 C9.747,6.796 8.401,7.854 6.746,7.854 ZM6.746,3.925 C5.527,3.925 4.496,4.645 4.496,5.497 C4.496,6.348 5.527,7.069 6.746,7.069 C7.966,7.069 8.997,6.348 8.997,5.497 C8.997,4.645 7.966,3.925 6.746,3.925 Z"/>
</svg>
