<svg 
 xmlns="http://www.w3.org/2000/svg"
 xmlns:xlink="http://www.w3.org/1999/xlink"
 width="24px" height="22px">
<path fill-rule="evenodd"  fill="rgb(85, 85, 85)"
 d="M22.494,21.996 L4.494,21.996 C2.012,21.996 -0.007,19.882 -0.007,17.281 L-0.007,6.282 C-0.007,6.211 0.015,6.144 0.032,6.079 C0.008,5.888 -0.007,5.693 -0.007,5.496 C-0.007,2.463 3.022,-0.004 6.743,-0.004 C10.465,-0.004 13.494,2.463 13.494,5.496 L13.494,9.425 L22.494,9.425 C23.321,9.425 23.994,10.129 23.994,10.996 L23.994,20.425 C23.994,21.291 23.321,21.996 22.494,21.996 ZM6.743,1.568 C3.849,1.568 1.493,3.330 1.493,5.496 C1.493,7.662 3.849,9.425 6.743,9.425 C9.639,9.425 11.994,7.662 11.994,5.496 C11.994,3.330 9.639,1.568 6.743,1.568 ZM11.994,8.945 C11.827,9.113 11.648,9.274 11.459,9.425 L11.994,9.425 L11.994,8.945 ZM22.494,10.996 L6.743,10.996 C4.624,10.996 2.733,10.195 1.493,8.945 L1.493,17.281 C1.493,18.741 2.454,19.962 3.744,20.313 L3.744,16.889 C3.744,16.672 3.912,16.496 4.120,16.496 C4.326,16.496 4.494,16.672 4.494,16.889 L4.494,20.425 L7.494,20.425 L7.494,19.247 C7.494,19.029 7.662,18.853 7.868,18.853 C8.076,18.853 8.244,19.029 8.244,19.247 L8.244,20.425 L11.243,20.425 L11.243,16.889 C11.243,16.672 11.412,16.496 11.618,16.496 C11.826,16.496 11.994,16.672 11.994,16.889 L11.994,20.425 L14.994,20.425 L14.994,19.247 C14.994,19.029 15.161,18.853 15.369,18.853 C15.576,18.853 15.743,19.029 15.743,19.247 L15.743,20.425 L18.743,20.425 L18.743,16.889 C18.743,16.672 18.911,16.496 19.120,16.496 C19.326,16.496 19.494,16.672 19.494,16.889 L19.494,20.425 L22.494,20.425 L22.494,10.996 ZM6.743,7.853 C5.089,7.853 3.744,6.795 3.744,5.496 C3.744,4.197 5.089,3.139 6.743,3.139 C8.399,3.139 9.745,4.197 9.745,5.496 C9.745,6.795 8.399,7.853 6.743,7.853 ZM6.743,3.924 C5.525,3.924 4.494,4.644 4.494,5.496 C4.494,6.348 5.525,7.068 6.743,7.068 C7.964,7.068 8.995,6.348 8.995,5.496 C8.995,4.644 7.964,3.924 6.743,3.924 Z"/>
</svg>
