<svg 
 xmlns="http://www.w3.org/2000/svg"
 xmlns:xlink="http://www.w3.org/1999/xlink"
 width="22px" height="20px">
<path fill-rule="evenodd"  fill="rgb(85, 85, 85)"
 d="M18.993,19.996 L2.993,19.996 C1.338,19.996 -0.006,18.653 -0.006,16.996 L-0.006,2.996 C-0.006,1.339 1.338,-0.004 2.993,-0.004 L18.993,-0.004 C20.651,-0.004 21.993,1.339 21.993,2.996 L21.993,16.996 C21.993,18.653 20.651,19.996 18.993,19.996 ZM10.993,2.996 C7.127,2.996 3.995,6.131 3.995,9.996 C3.995,13.862 7.127,16.996 10.993,16.996 C14.861,16.996 17.995,13.862 17.995,9.996 C17.995,6.131 14.861,2.996 10.993,2.996 Z"/>
</svg>
