<svg 
 xmlns="http://www.w3.org/2000/svg"
 xmlns:xlink="http://www.w3.org/1999/xlink"
 width="22px" height="20px">
<path fill-rule="evenodd"  fill="rgb(255, 255, 255)"
 d="M18.999,19.999 L3.000,19.999 C1.343,19.999 -0.000,18.656 -0.000,16.999 L-0.000,2.999 C-0.000,1.342 1.343,-0.001 3.000,-0.001 L18.999,-0.001 C20.656,-0.001 22.000,1.342 22.000,2.999 L22.000,16.999 C22.000,18.656 20.656,19.999 18.999,19.999 ZM11.000,3.000 C7.134,3.000 4.000,6.134 4.000,10.000 C4.000,13.866 7.134,17.000 11.000,17.000 C14.866,17.000 18.000,13.866 18.000,10.000 C18.000,6.134 14.866,3.000 11.000,3.000 Z"/>
</svg>
