<svg 
 xmlns="http://www.w3.org/2000/svg"
 xmlns:xlink="http://www.w3.org/1999/xlink"
 width="22px" height="20px">
<path fill-rule="evenodd"  fill="rgb(102, 102, 102)"
 d="M18.996,19.997 L2.996,19.997 C1.340,19.997 -0.004,18.653 -0.004,16.997 L-0.004,2.997 C-0.004,1.340 1.340,-0.003 2.996,-0.003 L18.996,-0.003 C20.654,-0.003 21.996,1.340 21.996,2.997 L21.996,16.997 C21.996,18.653 20.654,19.997 18.996,19.997 ZM10.996,2.997 C7.130,2.997 3.997,6.131 3.997,9.997 C3.997,13.863 7.130,16.997 10.996,16.997 C14.863,16.997 17.997,13.863 17.997,9.997 C17.997,6.131 14.863,2.997 10.996,2.997 Z"/>
</svg>
