<svg 
 xmlns="http://www.w3.org/2000/svg"
 xmlns:xlink="http://www.w3.org/1999/xlink"
 width="24px" height="24px">
<path fill-rule="evenodd"  fill="rgb(102, 102, 102)"
 d="M23.986,14.045 L23.986,21.674 C23.986,22.955 22.931,23.993 21.627,23.993 L2.367,23.993 C1.063,23.993 0.007,22.955 0.007,21.674 L0.001,14.015 C0.000,14.008 -0.003,14.003 -0.003,13.997 L-0.003,6.997 C-0.003,6.445 0.444,5.997 0.997,5.997 C1.549,5.997 1.997,6.445 1.997,6.997 L1.997,13.997 C1.997,14.002 1.994,14.006 1.994,14.011 L1.997,21.997 L21.997,21.997 L21.994,9.996 L21.997,9.996 L21.997,6.997 C21.997,6.445 22.445,5.997 22.997,5.997 C23.549,5.997 23.996,6.445 23.996,6.997 L23.996,13.997 C23.996,14.014 23.987,14.028 23.986,14.045 ZM15.497,16.997 L8.497,16.997 C7.668,16.997 6.997,16.326 6.997,15.496 C6.997,14.669 7.668,13.997 8.497,13.997 L10.997,13.997 C10.998,12.126 11.000,8.275 10.997,7.997 C10.992,7.638 10.997,7.338 10.997,6.997 L10.997,4.997 C10.997,4.716 10.352,4.984 10.287,4.816 C10.223,4.651 10.075,4.571 9.843,4.578 C9.671,4.578 9.466,4.574 9.231,4.567 C8.994,4.560 8.785,4.555 8.605,4.555 C8.305,4.555 8.115,4.485 8.033,4.345 C7.950,4.204 8.009,4.022 8.206,3.800 C8.413,3.578 8.655,3.315 8.934,3.012 C9.214,2.708 9.499,2.399 9.792,2.085 C10.084,1.770 10.372,1.459 10.655,1.152 C10.938,0.844 11.187,0.573 11.402,0.335 C11.608,0.114 11.803,0.000 11.989,-0.003 C12.173,-0.007 12.364,0.095 12.562,0.303 C12.767,0.510 13.006,0.758 13.277,1.046 C13.548,1.335 13.827,1.635 14.114,1.946 C14.403,2.257 14.689,2.562 14.971,2.862 C15.255,3.162 15.509,3.430 15.732,3.667 C15.973,3.926 16.065,4.139 16.008,4.306 C15.952,4.472 15.770,4.555 15.461,4.555 L15.139,4.555 C15.019,4.555 14.893,4.557 14.766,4.561 C14.636,4.565 14.509,4.568 14.385,4.572 C14.261,4.576 14.152,4.578 14.056,4.578 C13.842,4.585 13.707,4.644 13.651,4.756 C13.595,4.867 12.997,4.805 12.997,4.997 C12.997,5.213 12.992,5.650 12.997,5.997 C13.001,6.345 12.997,6.619 12.997,6.997 C12.997,7.374 12.992,13.641 12.997,13.997 L15.497,13.997 C16.325,13.997 16.997,14.669 16.997,15.496 C16.997,16.326 16.325,16.997 15.497,16.997 Z"/>
</svg>
