<svg 
 xmlns="http://www.w3.org/2000/svg"
 xmlns:xlink="http://www.w3.org/1999/xlink"
 width="24px" height="24px">
<path fill-rule="evenodd"  fill="rgb(255, 255, 255)"
 d="M23.990,14.048 L23.990,21.676 C23.990,22.957 22.934,23.996 21.631,23.996 L2.370,23.996 C1.066,23.996 0.010,22.957 0.010,21.676 L0.004,14.017 C0.003,14.011 -0.000,14.006 -0.000,13.999 L-0.000,6.999 C-0.000,6.447 0.447,6.000 1.000,6.000 C1.552,6.000 2.000,6.447 2.000,6.999 L2.000,13.999 C2.000,14.003 1.998,14.006 1.998,14.010 L2.000,21.999 L22.000,21.999 L21.998,9.999 L22.000,9.999 L22.000,7.000 C22.000,6.448 22.448,6.000 23.000,6.000 C23.552,6.000 24.000,6.448 24.000,7.000 L24.000,14.000 C24.000,14.017 23.991,14.031 23.990,14.048 ZM15.500,17.000 L8.500,17.000 C7.672,17.000 7.000,16.328 7.000,15.500 C7.000,14.672 7.672,14.000 8.500,14.000 L11.001,14.000 C11.002,12.129 11.003,8.278 11.000,8.000 C10.996,7.641 11.000,7.341 11.000,7.000 L11.000,5.000 C11.000,4.718 10.355,4.985 10.291,4.819 C10.226,4.652 10.078,4.573 9.846,4.580 C9.674,4.580 9.470,4.576 9.234,4.569 C8.998,4.562 8.789,4.558 8.609,4.558 C8.308,4.558 8.117,4.488 8.035,4.347 C7.954,4.206 8.012,4.025 8.210,3.803 C8.416,3.581 8.658,3.318 8.938,3.014 C9.217,2.711 9.502,2.402 9.795,2.087 C10.087,1.773 10.374,1.462 10.658,1.154 C10.942,0.847 11.191,0.575 11.405,0.338 C11.612,0.116 11.807,0.003 11.991,-0.001 C12.176,-0.004 12.367,0.097 12.565,0.305 C12.771,0.512 13.010,0.760 13.280,1.049 C13.551,1.337 13.830,1.637 14.118,1.948 C14.406,2.259 14.691,2.564 14.974,2.865 C15.258,3.165 15.512,3.433 15.735,3.670 C15.976,3.929 16.068,4.142 16.012,4.308 C15.956,4.474 15.773,4.558 15.464,4.558 L15.142,4.558 C15.022,4.558 14.898,4.560 14.769,4.564 C14.640,4.567 14.513,4.571 14.388,4.575 C14.264,4.578 14.154,4.580 14.060,4.580 C13.845,4.587 13.710,4.647 13.654,4.758 C13.598,4.869 13.000,4.808 13.000,5.000 C13.000,5.215 12.996,5.652 13.000,6.000 C13.004,6.348 13.000,6.622 13.000,7.000 C13.000,7.377 12.996,13.644 13.000,14.000 L15.500,14.000 C16.328,14.000 17.000,14.672 17.000,15.500 C17.000,16.328 16.328,17.000 15.500,17.000 Z"/>
</svg>
