<svg 
 xmlns="http://www.w3.org/2000/svg"
 xmlns:xlink="http://www.w3.org/1999/xlink"
 width="24px" height="24px">
<path fill-rule="evenodd"  fill="rgb(85, 85, 85)"
 d="M23.984,14.039 L23.984,21.673 C23.984,22.954 22.929,23.992 21.624,23.992 L2.365,23.992 C1.060,23.992 0.005,22.954 0.005,21.673 L-0.002,14.015 C-0.002,14.008 -0.006,14.003 -0.006,13.996 L-0.006,6.996 C-0.006,6.443 0.441,5.996 0.994,5.996 C1.546,5.996 1.994,6.443 1.994,6.996 L1.994,13.996 C1.994,14.002 1.991,14.006 1.991,14.012 L1.994,21.996 L21.994,21.996 L21.992,9.996 L21.994,9.996 L21.994,6.996 C21.994,6.443 22.443,5.996 22.994,5.996 C23.547,5.996 23.993,6.443 23.993,6.996 L23.993,13.996 C23.993,14.011 23.985,14.024 23.984,14.039 ZM15.494,16.996 L8.494,16.996 C7.666,16.996 6.995,16.325 6.995,15.496 C6.995,14.668 7.666,13.996 8.494,13.996 L10.995,13.996 C10.996,12.125 10.997,8.274 10.994,7.996 C10.989,7.637 10.994,7.337 10.994,6.996 L10.994,4.996 C10.994,4.715 10.350,4.983 10.285,4.816 C10.220,4.650 10.072,4.570 9.841,4.577 C9.668,4.577 9.463,4.573 9.229,4.566 C8.991,4.559 8.783,4.554 8.603,4.554 C8.303,4.554 8.113,4.484 8.030,4.344 C7.948,4.203 8.006,4.021 8.204,3.799 C8.410,3.577 8.653,3.315 8.932,3.011 C9.211,2.707 9.496,2.398 9.789,2.084 C10.082,1.769 10.369,1.458 10.652,1.152 C10.936,0.843 11.185,0.572 11.399,0.334 C11.606,0.113 11.801,-0.001 11.986,-0.004 C12.170,-0.008 12.362,0.094 12.559,0.302 C12.765,0.509 13.004,0.757 13.274,1.045 C13.546,1.334 13.824,1.634 14.113,1.946 C14.401,2.256 14.687,2.561 14.969,2.861 C15.252,3.161 15.506,3.430 15.730,3.666 C15.971,3.925 16.062,4.139 16.005,4.305 C15.950,4.471 15.767,4.554 15.458,4.554 L15.138,4.554 C15.016,4.554 14.891,4.556 14.763,4.560 C14.633,4.564 14.506,4.567 14.382,4.572 C14.258,4.575 14.149,4.577 14.054,4.577 C13.839,4.584 13.704,4.643 13.649,4.755 C13.592,4.866 12.994,4.805 12.994,4.996 C12.994,5.212 12.989,5.649 12.994,5.996 C12.998,6.344 12.994,6.618 12.994,6.996 C12.994,7.374 12.989,13.640 12.994,13.996 L15.494,13.996 C16.323,13.996 16.995,14.668 16.995,15.496 C16.995,16.325 16.323,16.996 15.494,16.996 Z"/>
</svg>
