<svg 
 xmlns="http://www.w3.org/2000/svg"
 xmlns:xlink="http://www.w3.org/1999/xlink"
 width="19px" height="4px">
<path fill-rule="evenodd"  fill="rgb(124, 124, 129)"
 d="M17.999,4.000 L17.999,-0.000 L18.999,-0.000 L18.999,4.000 L17.999,4.000 ZM15.999,-0.000 L16.999,-0.000 L16.999,4.000 L15.999,4.000 L15.999,-0.000 ZM13.999,-0.000 L14.999,-0.000 L14.999,4.000 L13.999,4.000 L13.999,-0.000 ZM11.999,-0.000 L12.999,-0.000 L12.999,4.000 L11.999,4.000 L11.999,-0.000 ZM9.999,-0.000 L10.999,-0.000 L10.999,4.000 L9.999,4.000 L9.999,-0.000 ZM7.999,-0.000 L8.999,-0.000 L8.999,4.000 L7.999,4.000 L7.999,-0.000 ZM6.000,-0.000 L6.999,-0.000 L6.999,4.000 L6.000,4.000 L6.000,-0.000 ZM3.999,-0.000 L4.999,-0.000 L4.999,4.000 L3.999,4.000 L3.999,-0.000 ZM1.999,-0.000 L2.999,-0.000 L2.999,4.000 L1.999,4.000 L1.999,-0.000 ZM-0.001,-0.000 L0.999,-0.000 L0.999,4.000 L-0.001,4.000 L-0.001,-0.000 Z"/>
</svg>
