<svg 
 xmlns="http://www.w3.org/2000/svg"
 xmlns:xlink="http://www.w3.org/1999/xlink"
 width="22px" height="18px">
<path fill-rule="evenodd"  fill="rgb(255, 255, 255)"
 d="M20.999,12.999 L10.998,12.999 C10.446,12.999 9.999,12.552 9.999,11.999 C9.999,11.447 10.446,10.999 10.998,10.999 L20.999,10.999 C21.551,10.999 21.999,11.447 21.999,11.999 C21.999,12.552 21.551,12.999 20.999,12.999 ZM20.999,6.999 L10.998,6.999 C10.446,6.999 9.999,6.552 9.999,5.999 C9.999,5.447 10.446,4.999 10.998,4.999 L20.999,4.999 C21.551,4.999 21.999,5.447 21.999,5.999 C21.999,6.552 21.551,6.999 20.999,6.999 ZM20.999,1.999 L10.998,1.999 C10.446,1.999 9.999,1.552 9.999,0.999 C9.999,0.447 10.446,-0.001 10.998,-0.001 L20.999,-0.001 C21.551,-0.001 21.999,0.447 21.999,0.999 C21.999,1.552 21.551,1.999 20.999,1.999 ZM5.999,17.999 L1.999,17.999 C0.894,17.999 -0.002,17.104 -0.002,15.999 L-0.002,12.000 C-0.002,10.895 0.894,9.999 1.999,9.999 L5.999,9.999 C7.103,9.999 7.999,10.895 7.999,12.000 L7.999,15.999 C7.999,17.104 7.103,17.999 5.999,17.999 ZM5.999,7.999 L1.999,7.999 C0.894,7.999 -0.002,7.104 -0.002,5.999 L-0.002,1.999 C-0.002,0.895 0.894,-0.001 1.999,-0.001 L5.999,-0.001 C7.103,-0.001 7.999,0.895 7.999,1.999 L7.999,5.999 C7.999,7.104 7.103,7.999 5.999,7.999 ZM10.998,15.999 L20.999,15.999 C21.551,15.999 21.999,16.447 21.999,16.999 C21.999,17.552 21.551,17.999 20.999,17.999 L10.998,17.999 C10.446,17.999 9.999,17.552 9.999,16.999 C9.999,16.447 10.446,15.999 10.998,15.999 Z"/>
</svg>
