<svg 
 xmlns="http://www.w3.org/2000/svg"
 xmlns:xlink="http://www.w3.org/1999/xlink"
 width="21px" height="18px">
<path fill-rule="evenodd"  fill="rgb(102, 102, 102)"
 d="M19.998,12.999 L10.998,12.999 C10.446,12.999 9.998,12.551 9.998,11.999 C9.998,11.447 10.446,10.999 10.998,10.999 L19.998,10.999 C20.550,10.999 20.998,11.447 20.998,11.999 C20.998,12.551 20.550,12.999 19.998,12.999 ZM19.998,6.999 L10.998,6.999 C10.446,6.999 9.998,6.551 9.998,5.999 C9.998,5.447 10.446,4.999 10.998,4.999 L19.998,4.999 C20.550,4.999 20.998,5.447 20.998,5.999 C20.998,6.551 20.550,6.999 19.998,6.999 ZM19.998,1.999 L10.998,1.999 C10.446,1.999 9.998,1.551 9.998,0.999 C9.998,0.447 10.446,-0.001 10.998,-0.001 L19.998,-0.001 C20.550,-0.001 20.998,0.447 20.998,0.999 C20.998,1.551 20.550,1.999 19.998,1.999 ZM5.998,17.999 L1.998,17.999 C0.894,17.999 -0.003,17.104 -0.003,15.999 L-0.003,11.999 C-0.003,10.894 0.894,9.999 1.998,9.999 L5.998,9.999 C7.103,9.999 7.998,10.894 7.998,11.999 L7.998,15.999 C7.998,17.104 7.103,17.999 5.998,17.999 ZM5.998,7.999 L1.998,7.999 C0.894,7.999 -0.003,7.104 -0.003,5.999 L-0.003,1.999 C-0.003,0.894 0.894,-0.001 1.998,-0.001 L5.998,-0.001 C7.103,-0.001 7.998,0.894 7.998,1.999 L7.998,5.999 C7.998,7.104 7.103,7.999 5.998,7.999 ZM10.998,15.999 L19.998,15.999 C20.550,15.999 20.998,16.447 20.998,16.999 C20.998,17.551 20.550,17.999 19.998,17.999 L10.998,17.999 C10.446,17.999 9.998,17.551 9.998,16.999 C9.998,16.447 10.446,15.999 10.998,15.999 Z"/>
</svg>
