<svg 
 xmlns="http://www.w3.org/2000/svg"
 xmlns:xlink="http://www.w3.org/1999/xlink"
 width="21px" height="18px">
<path fill-rule="evenodd"  fill="rgb(85, 85, 85)"
 d="M19.995,12.998 L10.995,12.998 C10.444,12.998 9.996,12.550 9.996,11.997 C9.996,11.445 10.444,10.997 10.995,10.997 L19.995,10.997 C20.547,10.997 20.995,11.445 20.995,11.997 C20.995,12.550 20.547,12.998 19.995,12.998 ZM19.995,6.997 L10.995,6.997 C10.444,6.997 9.996,6.550 9.996,5.998 C9.996,5.445 10.444,4.998 10.995,4.998 L19.995,4.998 C20.547,4.998 20.995,5.445 20.995,5.998 C20.995,6.550 20.547,6.997 19.995,6.997 ZM19.995,1.998 L10.995,1.998 C10.444,1.998 9.996,1.550 9.996,0.998 C9.996,0.445 10.444,-0.002 10.995,-0.002 L19.995,-0.002 C20.547,-0.002 20.995,0.445 20.995,0.998 C20.995,1.550 20.547,1.998 19.995,1.998 ZM5.995,17.998 L1.995,17.998 C0.890,17.998 -0.005,17.102 -0.005,15.997 L-0.005,11.997 C-0.005,10.893 0.890,9.998 1.995,9.998 L5.995,9.998 C7.100,9.998 7.995,10.893 7.995,11.997 L7.995,15.997 C7.995,17.102 7.100,17.998 5.995,17.998 ZM5.995,7.997 L1.995,7.997 C0.890,7.997 -0.005,7.102 -0.005,5.998 L-0.005,1.998 C-0.005,0.893 0.890,-0.002 1.995,-0.002 L5.995,-0.002 C7.100,-0.002 7.995,0.893 7.995,1.998 L7.995,5.998 C7.995,7.102 7.100,7.997 5.995,7.997 ZM10.995,15.997 L19.995,15.997 C20.547,15.997 20.995,16.445 20.995,16.997 C20.995,17.550 20.547,17.998 19.995,17.998 L10.995,17.998 C10.444,17.998 9.996,17.550 9.996,16.997 C9.996,16.445 10.444,15.997 10.995,15.997 Z"/>
</svg>
