<svg 
 xmlns="http://www.w3.org/2000/svg"
 xmlns:xlink="http://www.w3.org/1999/xlink"
 width="22px" height="18px">
<path fill-rule="evenodd"  fill="rgb(203, 203, 203)"
 d="M21.000,18.000 L11.000,18.000 C10.447,18.000 9.999,17.552 9.999,17.000 L9.999,16.999 C9.999,16.447 10.447,16.000 11.000,16.000 L21.000,16.000 C21.552,16.000 22.000,16.447 22.000,16.999 L22.000,17.000 C22.000,17.552 21.552,18.000 21.000,18.000 ZM21.000,13.000 L10.999,13.000 C10.447,13.000 9.999,12.552 9.999,12.000 C9.999,11.448 10.447,11.000 10.999,11.000 L21.000,11.000 C21.552,11.000 22.000,11.448 22.000,12.000 C22.000,12.552 21.552,13.000 21.000,13.000 ZM21.000,7.000 L11.000,7.000 C10.447,7.000 9.999,6.552 9.999,6.000 L9.999,5.999 C9.999,5.447 10.447,5.000 11.000,5.000 L21.000,5.000 C21.552,5.000 22.000,5.447 22.000,5.999 L22.000,6.000 C22.000,6.552 21.552,7.000 21.000,7.000 ZM21.000,2.000 L10.999,2.000 C10.447,2.000 9.999,1.552 9.999,1.000 C9.999,0.447 10.447,-0.000 10.999,-0.000 L21.000,-0.000 C21.552,-0.000 22.000,0.447 22.000,1.000 C22.000,1.552 21.552,2.000 21.000,2.000 ZM5.999,18.000 L1.999,18.000 C0.895,18.000 -0.001,17.104 -0.001,16.000 L-0.001,12.000 C-0.001,10.895 0.895,10.000 1.999,10.000 L5.999,10.000 C7.104,10.000 7.999,10.895 7.999,12.000 L7.999,16.000 C7.999,17.104 7.104,18.000 5.999,18.000 ZM5.999,8.000 L1.999,8.000 C0.895,8.000 -0.001,7.104 -0.001,6.000 L-0.001,2.000 C-0.001,0.895 0.895,-0.000 1.999,-0.000 L5.999,-0.000 C7.104,-0.000 7.999,0.895 7.999,2.000 L7.999,6.000 C7.999,7.104 7.104,8.000 5.999,8.000 Z"/>
</svg>
