<svg 
 xmlns="http://www.w3.org/2000/svg"
 xmlns:xlink="http://www.w3.org/1999/xlink"
 width="20px" height="22px">
<path fill-rule="evenodd"  fill="rgb(85, 85, 85)"
 d="M16.021,20.350 C16.202,20.781 16.373,21.100 16.530,21.308 C16.689,21.516 16.884,21.680 17.118,21.801 C17.349,21.922 17.629,21.982 17.956,21.982 C18.514,21.982 18.991,21.776 19.387,21.366 C19.783,20.955 19.982,20.503 19.982,20.010 C19.982,19.537 19.772,18.777 19.354,17.732 L14.002,4.012 C13.751,3.326 13.543,2.776 13.381,2.366 C13.218,1.955 13.017,1.571 12.780,1.212 C12.542,0.855 12.229,0.562 11.844,0.335 C11.457,0.108 10.976,-0.006 10.398,-0.006 C9.829,-0.006 9.351,0.108 8.966,0.335 C8.579,0.562 8.267,0.860 8.031,1.228 C7.792,1.594 7.569,2.056 7.359,2.612 C7.150,3.168 6.970,3.644 6.822,4.041 L1.582,17.848 C1.368,18.400 1.215,18.830 1.121,19.139 C1.028,19.449 0.980,19.749 0.980,20.039 C0.980,20.541 1.181,20.991 1.582,21.388 C1.982,21.784 2.443,21.982 2.965,21.982 C3.580,21.982 4.022,21.796 4.292,21.424 C4.564,21.052 4.889,20.334 5.271,19.270 L6.248,16.543 L14.575,16.543 L15.554,19.211 C15.682,19.541 15.839,19.920 16.021,20.350 ZM10.369,4.534 L13.457,13.309 L7.338,13.309 L10.369,4.534 Z"/>
</svg>
