<svg 
 xmlns="http://www.w3.org/2000/svg"
 xmlns:xlink="http://www.w3.org/1999/xlink"
 width="20px" height="22px">
<path fill-rule="evenodd"  fill="rgb(102, 102, 102)"
 d="M16.023,20.351 C16.204,20.782 16.375,21.101 16.533,21.309 C16.691,21.517 16.887,21.681 17.120,21.802 C17.352,21.923 17.631,21.983 17.958,21.983 C18.516,21.983 18.993,21.777 19.389,21.367 C19.785,20.956 19.984,20.504 19.984,20.011 C19.984,19.538 19.774,18.778 19.356,17.733 L14.004,4.013 C13.753,3.327 13.546,2.777 13.383,2.367 C13.220,1.956 13.019,1.572 12.782,1.213 C12.545,0.856 12.232,0.563 11.846,0.336 C11.460,0.109 10.978,-0.005 10.400,-0.005 C9.832,-0.005 9.353,0.109 8.968,0.336 C8.581,0.563 8.270,0.860 8.033,1.229 C7.795,1.595 7.571,2.057 7.361,2.613 C7.152,3.169 6.972,3.646 6.823,4.042 L1.584,17.849 C1.370,18.401 1.216,18.831 1.124,19.140 C1.030,19.450 0.983,19.750 0.983,20.040 C0.983,20.542 1.183,20.992 1.584,21.389 C1.984,21.784 2.446,21.983 2.967,21.983 C3.583,21.983 4.025,21.796 4.294,21.425 C4.566,21.053 4.891,20.334 5.273,19.271 L6.250,16.543 L14.578,16.543 L15.556,19.212 C15.685,19.542 15.841,19.921 16.023,20.351 ZM10.372,4.535 L13.459,13.310 L7.341,13.310 L10.372,4.535 Z"/>
</svg>
