<svg 
 xmlns="http://www.w3.org/2000/svg"
 xmlns:xlink="http://www.w3.org/1999/xlink"
 width="19px" height="22px">
<path fill-rule="evenodd"  fill="rgb(203, 203, 203)"
 d="M15.026,20.354 C15.208,20.784 15.378,21.104 15.536,21.311 C15.694,21.519 15.890,21.683 16.123,21.805 C16.355,21.925 16.635,21.986 16.961,21.986 C17.520,21.986 17.997,21.780 18.393,21.369 C18.789,20.958 18.987,20.506 18.987,20.013 C18.987,19.540 18.777,18.780 18.359,17.736 L13.008,4.015 C12.756,3.329 12.549,2.780 12.386,2.369 C12.223,1.958 12.023,1.574 11.786,1.216 C11.548,0.858 11.235,0.566 10.849,0.338 C10.463,0.111 9.980,-0.002 9.403,-0.002 C8.835,-0.002 8.357,0.111 7.971,0.338 C7.585,0.566 7.273,0.863 7.035,1.231 C6.798,1.598 6.574,2.060 6.364,2.616 C6.155,3.172 5.976,3.648 5.827,4.044 L0.588,17.852 C0.373,18.403 0.219,18.833 0.127,19.143 C0.033,19.452 -0.013,19.752 -0.013,20.042 C-0.013,20.545 0.187,20.995 0.588,21.391 C0.988,21.788 1.449,21.986 1.970,21.986 C2.585,21.986 3.028,21.799 3.298,21.427 C3.568,21.055 3.894,20.337 4.276,19.273 L5.254,16.546 L13.581,16.546 L14.558,19.215 C14.689,19.545 14.845,19.924 15.026,20.354 ZM9.375,4.537 L12.463,13.312 L6.344,13.312 L9.375,4.537 Z"/>
</svg>
