<svg 
 xmlns="http://www.w3.org/2000/svg"
 xmlns:xlink="http://www.w3.org/1999/xlink"
 width="25px" height="25px">
<path fill-rule="evenodd"  fill="rgb(203, 203, 203)"
 d="M10.329,8.664 L13.666,8.664 C13.976,8.664 14.221,8.419 14.221,8.110 L14.221,5.328 L16.210,5.328 C16.711,5.328 16.956,4.730 16.601,4.383 L12.385,0.167 C12.174,-0.050 11.825,-0.056 11.608,0.155 L11.596,0.167 L7.383,4.383 C7.169,4.600 7.169,4.952 7.389,5.166 C7.493,5.270 7.638,5.328 7.785,5.325 L9.774,5.325 L9.774,8.106 C9.774,8.419 10.017,8.662 10.329,8.664 L10.329,8.664 ZM8.106,9.775 L5.325,9.775 L5.325,7.786 C5.325,7.285 4.726,7.040 4.379,7.395 L0.167,11.608 C-0.050,11.819 -0.056,12.169 0.155,12.386 L0.167,12.397 L4.382,16.612 C4.726,16.957 5.327,16.714 5.327,16.211 L5.327,14.221 L8.109,14.221 C8.418,14.221 8.664,13.976 8.664,13.667 L8.664,10.330 C8.667,10.026 8.421,9.778 8.118,9.775 L8.106,9.775 ZM23.840,11.611 L19.625,7.395 C19.411,7.176 19.058,7.170 18.838,7.384 C18.732,7.488 18.671,7.632 18.671,7.783 L18.671,9.772 L15.889,9.772 C15.586,9.769 15.337,10.015 15.334,10.318 L15.334,13.664 C15.334,13.976 15.580,14.219 15.889,14.219 L18.671,14.219 L18.671,16.214 C18.671,16.714 19.269,16.960 19.616,16.604 L23.831,12.389 C24.048,12.180 24.057,11.834 23.849,11.614 C23.843,11.614 23.840,11.611 23.840,11.611 L23.840,11.611 ZM13.666,15.335 L10.329,15.335 C10.026,15.332 9.777,15.578 9.774,15.881 L9.774,18.671 L7.785,18.671 C7.285,18.671 7.040,19.270 7.395,19.617 L11.610,23.832 C11.821,24.049 12.171,24.055 12.388,23.844 L16.615,19.617 C16.829,19.400 16.829,19.047 16.609,18.833 C16.505,18.732 16.369,18.674 16.224,18.674 L14.227,18.674 L14.227,15.893 C14.230,15.589 13.984,15.341 13.681,15.338 C13.672,15.335 13.669,15.335 13.666,15.335 L13.666,15.335 Z"/>
</svg>
