<svg 
 xmlns="http://www.w3.org/2000/svg"
 xmlns:xlink="http://www.w3.org/1999/xlink"
 width="25px" height="25px">
<path fill-rule="evenodd"  fill="rgb(145, 145, 152)"
 d="M10.329,8.664 L13.665,8.664 C13.975,8.664 14.221,8.418 14.221,8.109 L14.221,5.328 L16.210,5.328 C16.710,5.328 16.956,4.729 16.600,4.382 L12.384,0.167 C12.174,-0.050 11.824,-0.056 11.607,0.155 L11.595,0.167 L7.382,4.382 C7.169,4.599 7.169,4.952 7.388,5.166 C7.492,5.270 7.637,5.328 7.784,5.325 L9.773,5.325 L9.773,8.106 C9.773,8.418 10.016,8.661 10.329,8.664 L10.329,8.664 ZM8.106,9.775 L5.324,9.775 L5.324,7.785 C5.324,7.285 4.725,7.039 4.379,7.395 L0.166,11.607 C-0.051,11.818 -0.057,12.169 0.155,12.385 L0.166,12.397 L4.381,16.613 C4.725,16.957 5.327,16.714 5.327,16.210 L5.327,14.221 L8.108,14.221 C8.418,14.221 8.663,13.975 8.663,13.666 L8.663,10.329 C8.666,10.026 8.421,9.778 8.117,9.775 L8.106,9.775 ZM23.840,11.610 L19.624,7.395 C19.410,7.175 19.058,7.169 18.837,7.383 C18.731,7.487 18.669,7.632 18.669,7.782 L18.669,9.772 L15.888,9.772 C15.585,9.769 15.336,10.015 15.333,10.318 L15.333,13.663 C15.333,13.975 15.579,14.218 15.888,14.218 L18.669,14.218 L18.669,16.213 C18.669,16.714 19.268,16.959 19.615,16.604 L23.831,12.388 C24.048,12.180 24.057,11.833 23.848,11.613 C23.843,11.613 23.840,11.610 23.840,11.610 L23.840,11.610 ZM13.665,15.335 L10.329,15.335 C10.025,15.332 9.777,15.577 9.773,15.881 L9.773,18.671 L7.784,18.671 C7.284,18.671 7.039,19.270 7.394,19.616 L11.609,23.832 C11.820,24.049 12.170,24.055 12.388,23.844 L16.614,19.616 C16.828,19.400 16.828,19.047 16.608,18.833 C16.504,18.732 16.368,18.674 16.224,18.674 L14.227,18.674 L14.227,15.892 C14.229,15.589 13.983,15.340 13.679,15.338 C13.671,15.335 13.668,15.335 13.665,15.335 L13.665,15.335 Z"/>
</svg>
