<svg 
 xmlns="http://www.w3.org/2000/svg"
 xmlns:xlink="http://www.w3.org/1999/xlink"
 width="25px" height="25px">
<path fill-rule="evenodd"  fill="rgb(102, 102, 102)"
 d="M10.758,9.025 L14.234,9.025 C14.557,9.025 14.812,8.769 14.812,8.447 L14.812,5.549 L16.885,5.549 C17.406,5.549 17.662,4.926 17.291,4.565 L12.900,0.173 C12.680,-0.053 12.316,-0.059 12.090,0.161 L12.078,0.173 L7.689,4.565 C7.467,4.791 7.467,5.158 7.696,5.381 C7.804,5.489 7.955,5.549 8.108,5.546 L10.180,5.546 L10.180,8.444 C10.180,8.769 10.433,9.022 10.758,9.025 L10.758,9.025 ZM8.442,10.181 L5.545,10.181 L5.545,8.109 C5.545,7.588 4.922,7.332 4.560,7.703 L0.172,12.091 C-0.054,12.311 -0.060,12.676 0.160,12.901 L0.172,12.913 L4.563,17.305 C4.922,17.663 5.548,17.410 5.548,16.886 L5.548,14.814 L8.445,14.814 C8.767,14.814 9.023,14.558 9.023,14.236 L9.023,10.760 C9.027,10.444 8.771,10.185 8.454,10.181 L8.442,10.181 ZM24.832,12.094 L20.441,7.703 C20.218,7.474 19.852,7.468 19.622,7.691 C19.510,7.799 19.447,7.950 19.447,8.106 L19.447,10.178 L16.550,10.178 C16.234,10.176 15.975,10.432 15.972,10.748 L15.972,14.232 C15.972,14.558 16.228,14.811 16.550,14.811 L19.447,14.811 L19.447,16.889 C19.447,17.410 20.070,17.666 20.431,17.295 L24.823,12.904 C25.049,12.687 25.059,12.326 24.841,12.097 C24.835,12.097 24.832,12.094 24.832,12.094 L24.832,12.094 ZM14.234,15.973 L10.758,15.973 C10.442,15.970 10.184,16.226 10.180,16.542 L10.180,19.449 L8.108,19.449 C7.587,19.449 7.332,20.072 7.701,20.434 L12.092,24.825 C12.313,25.051 12.677,25.057 12.903,24.837 L17.306,20.434 C17.529,20.208 17.529,19.840 17.300,19.617 C17.192,19.512 17.050,19.452 16.899,19.452 L14.819,19.452 L14.819,16.555 C14.821,16.238 14.565,15.979 14.249,15.976 C14.240,15.973 14.237,15.973 14.234,15.973 L14.234,15.973 Z"/>
</svg>
