<svg 
 xmlns="http://www.w3.org/2000/svg"
 xmlns:xlink="http://www.w3.org/1999/xlink"
 width="20px" height="18px">
<path fill-rule="evenodd"  fill="rgb(203, 203, 203)"
 d="M17.442,17.092 C17.275,17.634 16.793,18.000 16.249,18.000 L1.251,18.000 C0.561,18.000 0.002,17.418 -0.001,16.695 L-0.001,1.305 C0.002,0.584 0.561,-0.000 1.249,-0.000 L7.501,-0.000 C7.830,-0.000 8.150,0.138 8.383,0.382 C8.617,0.627 8.749,0.958 8.749,1.305 C8.749,2.027 9.308,2.612 9.998,2.612 L16.249,2.612 C16.940,2.614 17.498,3.198 17.498,3.921 L17.498,5.872 L17.494,5.872 C17.494,5.876 17.496,5.878 17.496,5.880 C17.496,6.239 17.218,6.532 16.872,6.532 C16.529,6.532 16.253,6.243 16.249,5.887 L16.249,3.921 L9.998,3.921 C8.619,3.921 7.501,2.752 7.501,1.307 L1.249,1.307 L1.249,12.670 L2.558,8.454 C2.724,7.914 3.206,7.546 3.749,7.546 L18.750,7.546 C19.441,7.548 19.998,8.133 19.999,8.853 L17.442,17.092 Z"/>
</svg>
