<svg 
 xmlns="http://www.w3.org/2000/svg"
 xmlns:xlink="http://www.w3.org/1999/xlink"
 width="20px" height="18px">
<path fill-rule="evenodd"  fill="rgb(255, 255, 255)"
 d="M17.441,17.092 C17.274,17.634 16.792,17.999 16.248,17.999 L1.250,17.999 C0.560,17.999 0.001,17.417 -0.002,16.694 L-0.002,1.304 C0.001,0.584 0.560,-0.001 1.248,-0.001 L7.500,-0.001 C7.830,-0.001 8.149,0.138 8.382,0.382 C8.616,0.626 8.748,0.958 8.748,1.304 C8.748,2.027 9.307,2.611 9.998,2.611 L16.248,2.611 C16.939,2.613 17.498,3.198 17.498,3.920 L17.498,5.871 L17.493,5.871 C17.493,5.875 17.495,5.878 17.495,5.880 C17.495,6.239 17.217,6.532 16.872,6.532 C16.529,6.532 16.252,6.243 16.248,5.886 L16.248,3.920 L9.998,3.920 C8.618,3.920 7.500,2.751 7.500,1.306 L1.248,1.306 L1.248,12.670 L2.557,8.453 C2.724,7.914 3.205,7.546 3.748,7.546 L18.749,7.546 C19.440,7.548 19.997,8.132 19.999,8.853 L17.441,17.092 Z"/>
</svg>
