<svg 
 xmlns="http://www.w3.org/2000/svg"
 xmlns:xlink="http://www.w3.org/1999/xlink"
 width="20px" height="18px">
<path fill-rule="evenodd"  fill="rgb(102, 102, 102)"
 d="M17.440,17.092 C17.273,17.633 16.791,17.999 16.247,17.999 L1.249,17.999 C0.558,17.999 -0.001,17.417 -0.003,16.694 L-0.003,1.304 C-0.001,0.583 0.558,-0.001 1.247,-0.001 L7.499,-0.001 C7.829,-0.001 8.148,0.138 8.381,0.382 C8.615,0.626 8.747,0.957 8.747,1.304 C8.747,2.026 9.306,2.611 9.997,2.611 L16.247,2.611 C16.938,2.613 17.497,3.198 17.497,3.920 L17.497,5.871 L17.493,5.871 C17.493,5.875 17.495,5.877 17.495,5.879 C17.495,6.239 17.216,6.532 16.871,6.532 C16.528,6.532 16.252,6.243 16.247,5.886 L16.247,3.920 L9.997,3.920 C8.617,3.920 7.499,2.751 7.499,1.306 L1.247,1.306 L1.247,12.669 L2.556,8.453 C2.723,7.913 3.204,7.546 3.747,7.546 L18.748,7.546 C19.439,7.547 19.996,8.132 19.998,8.852 L17.440,17.092 Z"/>
</svg>
