<svg 
 xmlns="http://www.w3.org/2000/svg"
 xmlns:xlink="http://www.w3.org/1999/xlink"
 width="22px" height="22px">
<path fill-rule="evenodd"  fill="rgb(255, 255, 255)"
 d="M20.917,7.842 L19.467,9.309 C18.026,10.768 15.689,10.768 14.247,9.309 L12.798,7.842 C11.355,6.383 11.355,4.018 12.798,2.560 L14.247,1.093 C15.689,-0.366 18.026,-0.366 19.467,1.093 L20.917,2.560 C22.358,4.018 22.358,6.383 20.917,7.842 ZM5.740,21.999 L3.689,21.999 C1.651,21.999 -0.002,20.327 -0.002,18.265 L-0.002,16.189 C-0.002,14.127 1.651,12.455 3.689,12.455 L5.740,12.455 C7.778,12.455 9.431,14.127 9.431,16.189 L9.431,18.265 C9.431,20.327 7.778,21.999 5.740,21.999 ZM5.740,9.973 L3.689,9.973 C1.651,9.973 -0.002,8.301 -0.002,6.238 L-0.002,4.163 C-0.002,2.101 1.651,0.428 3.689,0.428 L5.740,0.428 C7.778,0.428 9.431,2.101 9.431,4.163 L9.431,6.238 C9.431,8.301 7.778,9.973 5.740,9.973 ZM15.832,12.455 L17.883,12.455 C19.921,12.455 21.573,14.127 21.573,16.189 L21.573,18.265 C21.573,20.327 19.921,21.999 17.883,21.999 L15.832,21.999 C13.794,21.999 12.141,20.327 12.141,18.265 L12.141,16.189 C12.141,14.127 13.794,12.455 15.832,12.455 Z"/>
</svg>
