<svg 
 xmlns="http://www.w3.org/2000/svg"
 xmlns:xlink="http://www.w3.org/1999/xlink"
 width="22px" height="22px">
<path fill-rule="evenodd"  fill="rgb(255, 255, 255)"
 d="M20.919,7.842 L19.468,9.309 C18.027,10.768 15.690,10.768 14.249,9.309 L12.799,7.842 C11.357,6.384 11.357,4.019 12.799,2.560 L14.249,1.093 C15.690,-0.366 18.027,-0.366 19.468,1.093 L20.919,2.560 C22.359,4.019 22.359,6.384 20.919,7.842 ZM5.741,22.000 L3.691,22.000 C1.652,22.000 -0.000,20.327 -0.000,18.265 L-0.000,16.190 C-0.000,14.127 1.652,12.455 3.691,12.455 L5.741,12.455 C7.779,12.455 9.432,14.127 9.432,16.190 L9.432,18.265 C9.432,20.327 7.779,22.000 5.741,22.000 ZM5.741,9.973 L3.691,9.973 C1.652,9.973 -0.000,8.301 -0.000,6.239 L-0.000,4.164 C-0.000,2.101 1.652,0.429 3.691,0.429 L5.741,0.429 C7.779,0.429 9.432,2.101 9.432,4.164 L9.432,6.239 C9.432,8.301 7.779,9.973 5.741,9.973 ZM15.833,12.455 L17.884,12.455 C19.922,12.455 21.574,14.127 21.574,16.190 L21.574,18.265 C21.574,20.327 19.922,22.000 17.884,22.000 L15.833,22.000 C13.795,22.000 12.142,20.327 12.142,18.265 L12.142,16.190 C12.142,14.127 13.795,12.455 15.833,12.455 Z"/>
</svg>
