<svg 
 xmlns="http://www.w3.org/2000/svg"
 xmlns:xlink="http://www.w3.org/1999/xlink"
 width="22px" height="22px">
<path fill-rule="evenodd"  fill="rgb(102, 102, 102)"
 d="M20.916,7.842 L19.467,9.309 C18.026,10.767 15.688,10.767 14.247,9.309 L12.797,7.842 C11.355,6.383 11.355,4.018 12.797,2.559 L14.247,1.093 C15.688,-0.366 18.026,-0.366 19.467,1.093 L20.916,2.559 C22.358,4.018 22.358,6.383 20.916,7.842 ZM5.739,21.999 L3.688,21.999 C1.650,21.999 -0.002,20.327 -0.002,18.264 L-0.002,16.189 C-0.002,14.127 1.650,12.454 3.688,12.454 L5.739,12.454 C7.777,12.454 9.430,14.127 9.430,16.189 L9.430,18.264 C9.430,20.327 7.778,21.999 5.739,21.999 ZM5.739,9.973 L3.688,9.973 C1.650,9.973 -0.002,8.301 -0.002,6.238 L-0.002,4.163 C-0.002,2.100 1.650,0.428 3.688,0.428 L5.739,0.428 C7.777,0.428 9.430,2.100 9.430,4.163 L9.430,6.238 C9.430,8.301 7.778,9.973 5.739,9.973 ZM15.831,12.454 L17.882,12.454 C19.920,12.454 21.572,14.127 21.572,16.189 L21.572,18.264 C21.572,20.327 19.920,21.999 17.882,21.999 L15.831,21.999 C13.793,21.999 12.140,20.327 12.140,18.264 L12.140,16.189 C12.140,14.127 13.793,12.454 15.831,12.454 Z"/>
</svg>
