<svg 
 xmlns="http://www.w3.org/2000/svg"
 xmlns:xlink="http://www.w3.org/1999/xlink"
 width="24px" height="24px">
<path fill-rule="evenodd"  fill="rgb(200, 200, 200)"
 d="M23.787,17.276 L20.925,19.923 C20.813,20.027 20.640,20.024 20.532,19.917 L17.838,17.276 C17.608,16.787 17.608,16.413 17.838,16.151 C18.067,15.888 18.431,15.856 18.926,16.054 L19.955,16.983 L19.955,16.982 L19.955,15.850 C19.955,14.071 18.471,12.616 16.638,12.616 L16.652,12.616 C16.217,12.515 16.000,12.248 16.000,11.812 C16.000,11.378 16.217,11.107 16.652,11.000 L16.659,11.000 C19.378,11.000 21.602,13.184 21.602,15.850 L21.602,16.982 L22.632,16.054 C23.118,15.840 23.502,15.872 23.787,16.151 C24.070,16.429 24.070,16.803 23.787,17.276 ZM9.597,18.292 C9.061,19.185 7.931,19.458 7.075,18.898 L0.866,14.849 C0.008,14.290 -0.250,13.113 0.285,12.220 L7.085,0.897 C7.621,0.004 8.750,-0.267 9.606,0.292 L15.815,4.340 C16.672,4.898 16.933,6.076 16.396,6.969 L9.597,18.292 ZM0.998,21.999 L22.999,21.999 C23.440,21.999 23.998,22.558 23.998,22.999 C23.998,23.441 23.436,23.999 22.994,23.999 L0.831,23.999 C0.389,23.999 -0.001,23.441 -0.001,22.999 C-0.001,22.558 0.556,21.999 0.998,21.999 Z"/>
</svg>
