<svg 
 xmlns="http://www.w3.org/2000/svg"
 xmlns:xlink="http://www.w3.org/1999/xlink"
 width="24px" height="24px">
<path fill-rule="evenodd"  fill="rgb(255, 255, 255)"
 d="M23.786,17.276 L20.924,19.922 C20.812,20.026 20.640,20.024 20.531,19.917 L17.837,17.276 C17.607,16.787 17.607,16.412 17.837,16.151 C18.067,15.887 18.430,15.856 18.925,16.054 L19.954,16.982 L19.954,15.850 C19.954,14.071 18.470,12.616 16.637,12.616 L16.652,12.616 C16.217,12.515 15.999,12.247 15.999,11.812 C15.999,11.378 16.217,11.106 16.652,10.999 L16.659,10.999 C19.377,10.999 21.601,13.183 21.601,15.850 L21.601,16.982 L22.631,16.054 C23.118,15.840 23.501,15.872 23.786,16.151 C24.069,16.428 24.069,16.803 23.786,17.276 ZM9.596,18.291 C9.060,19.185 7.930,19.457 7.075,18.898 L0.866,14.849 C0.007,14.290 -0.251,13.112 0.285,12.220 L7.084,0.897 C7.620,0.003 8.750,-0.267 9.605,0.291 L15.814,4.340 C16.671,4.898 16.932,6.076 16.395,6.969 L9.596,18.291 ZM0.997,21.999 L22.998,21.999 C23.440,21.999 23.997,22.557 23.997,22.999 C23.997,23.441 23.435,23.999 22.993,23.999 L0.831,23.999 C0.389,23.999 -0.002,23.441 -0.002,22.999 C-0.002,22.557 0.556,21.999 0.997,21.999 Z"/>
</svg>
