<svg 
 xmlns="http://www.w3.org/2000/svg"
 xmlns:xlink="http://www.w3.org/1999/xlink"
 width="24px" height="24px">
<path fill-rule="evenodd"  fill="rgb(102, 102, 102)"
 d="M23.785,17.275 L20.924,19.922 C20.811,20.026 20.639,20.023 20.530,19.916 L17.836,17.275 C17.607,16.786 17.607,16.412 17.836,16.150 C18.066,15.887 18.429,15.855 18.923,16.054 L19.953,16.982 L19.953,15.850 C19.953,14.071 18.469,12.616 16.636,12.616 L16.651,12.616 C16.216,12.515 15.998,12.247 15.998,11.812 C15.998,11.378 16.216,11.106 16.651,10.999 L16.658,10.999 C19.377,10.999 21.601,13.183 21.601,15.850 L21.601,16.982 L22.631,16.053 C23.117,15.839 23.501,15.871 23.785,16.150 C24.069,16.428 24.069,16.802 23.785,17.275 ZM9.595,18.291 C9.059,19.185 7.929,19.457 7.074,18.897 L0.865,14.849 C0.006,14.289 -0.252,13.112 0.284,12.219 L7.083,0.896 C7.619,0.003 8.749,-0.268 9.604,0.291 L15.813,4.339 C16.670,4.897 16.931,6.075 16.395,6.969 L9.595,18.291 ZM0.997,21.999 L22.997,21.999 C23.439,21.999 23.997,22.557 23.997,22.999 C23.997,23.441 23.434,23.999 22.992,23.999 L0.829,23.999 C0.388,23.999 -0.003,23.441 -0.003,22.999 C-0.003,22.557 0.555,21.999 0.997,21.999 Z"/>
</svg>
