<svg 
 xmlns="http://www.w3.org/2000/svg"
 xmlns:xlink="http://www.w3.org/1999/xlink"
 width="24px" height="24px">
<path fill-rule="evenodd"  fill="rgb(85, 85, 85)"
 d="M23.784,17.274 L20.922,19.921 C20.810,20.025 20.637,20.022 20.528,19.915 L17.835,17.274 C17.604,16.785 17.604,16.411 17.835,16.149 C18.064,15.886 18.428,15.854 18.923,16.053 L19.952,16.981 L19.952,16.980 L19.952,15.849 C19.952,14.069 18.467,12.615 16.635,12.615 L16.649,12.615 C16.214,12.513 15.997,12.246 15.997,11.810 C15.997,11.377 16.214,11.105 16.649,10.998 L16.657,10.998 C19.375,10.998 21.598,13.182 21.598,15.849 L21.598,16.980 L22.629,16.052 C23.116,15.838 23.499,15.870 23.784,16.149 C24.067,16.427 24.067,16.801 23.784,17.274 ZM9.594,18.290 C9.057,19.183 7.928,19.456 7.072,18.895 L0.863,14.848 C0.005,14.288 -0.253,13.111 0.282,12.218 L7.082,0.895 C7.618,0.002 8.747,-0.269 9.603,0.290 L15.812,4.338 C16.669,4.896 16.929,6.074 16.393,6.967 L9.594,18.290 ZM0.995,21.997 L22.995,21.997 C23.437,21.997 23.996,22.556 23.996,22.998 C23.996,23.440 23.432,23.997 22.991,23.997 L0.828,23.997 C0.386,23.997 -0.005,23.440 -0.005,22.998 C-0.005,22.556 0.554,21.997 0.995,21.997 Z"/>
</svg>
