<svg 
 xmlns="http://www.w3.org/2000/svg"
 xmlns:xlink="http://www.w3.org/1999/xlink"
 width="22px" height="22px">
<path fill-rule="evenodd"  fill="rgb(51, 51, 51)"
 d="M20.166,-0.000 L1.832,-0.000 C0.824,-0.000 -0.001,0.825 -0.001,1.833 L-0.001,20.167 C-0.001,21.175 0.824,22.000 1.832,22.000 L20.166,22.000 C21.174,22.000 21.999,21.175 21.999,20.167 L21.999,1.833 C21.999,0.825 21.174,-0.000 20.166,-0.000 L20.166,-0.000 ZM20.166,20.167 L1.832,20.167 L1.832,17.416 L4.692,17.811 L4.692,18.149 C4.692,18.307 4.854,18.428 5.070,18.452 L10.927,19.008 C10.927,19.008 11.017,19.021 11.071,19.008 L16.928,18.452 C17.144,18.428 17.306,18.307 17.306,18.149 L17.306,17.811 L20.166,17.416 L20.166,20.167 ZM6.494,17.363 L6.494,15.089 L10.098,14.400 L10.098,17.714 L6.494,17.363 ZM14.027,14.811 L14.910,14.980 L12.621,17.641 L11.900,17.714 L11.900,17.279 L14.027,14.811 ZM11.900,14.859 L11.900,14.400 L12.243,14.472 L11.900,14.859 ZM15.504,16.710 L15.504,17.363 L14.892,17.424 L15.504,16.710 ZM20.166,15.583 L17.306,16.601 L17.306,14.412 C17.306,14.279 17.180,14.158 16.982,14.121 L11.125,12.997 C11.125,12.997 10.963,12.984 10.873,12.997 L5.016,14.121 C4.818,14.158 4.692,14.279 4.692,14.412 L4.692,16.601 L1.832,15.583 L1.832,6.500 L8.249,6.500 L9.349,7.966 C9.514,8.205 9.790,8.333 10.083,8.333 L10.083,9.250 C10.083,9.763 10.486,10.166 10.999,10.166 C11.513,10.166 11.916,9.763 11.916,9.250 L11.916,8.333 C12.209,8.333 12.484,8.205 12.649,7.966 L13.749,6.500 L20.166,6.500 L20.166,15.583 ZM19.999,5.000 L1.999,5.000 L1.832,1.833 L20.166,1.833 L19.999,5.000 Z"/>
</svg>
