<svg 
 xmlns="http://www.w3.org/2000/svg"
 xmlns:xlink="http://www.w3.org/1999/xlink"
 width="18px" height="16px">
<path fill-rule="evenodd"  fill="rgb(65, 242, 135)"
 d="M9.013,8.875 L9.011,8.874 L9.011,8.874 L9.013,8.875 L9.011,8.877 L9.011,10.348 L4.524,13.154 L4.506,13.171 L4.506,13.165 L-0.000,10.400 L-0.000,3.030 L0.013,3.038 L4.511,0.075 L9.011,2.963 L9.011,2.963 L9.013,8.875 ZM8.125,3.558 L7.561,3.937 L7.561,3.937 L8.125,3.558 ZM4.506,5.988 L4.506,5.988 L4.506,5.988 L4.506,5.988 Z"/>
<path fill-rule="evenodd"  fill="rgb(45, 223, 116)"
 d="M13.494,13.197 L13.494,13.107 L9.011,3.023 L10.553,3.975 L9.011,2.963 L13.498,-0.000 L18.000,3.036 L18.000,3.036 L18.000,10.388 L13.494,13.197 Z"/>
<path fill-rule="evenodd"  fill="rgb(23, 204, 95)"
 d="M13.494,13.144 L13.494,13.197 L9.011,16.000 L9.013,10.415 L9.013,10.415 L9.011,16.000 L4.506,13.171 L4.506,5.988 L4.506,5.988 L4.506,5.988 L4.506,5.847 L7.561,3.937 L9.011,2.963 L10.550,3.973 L13.517,5.805 L13.517,13.158 L13.494,13.144 Z"/>
<path fill-rule="evenodd"  fill="rgb(16, 194, 87)"
 d="M13.517,13.158 L13.494,13.144 L13.494,13.197 L9.011,16.000 L9.013,10.415 L9.011,10.414 L9.011,10.348 L9.011,3.030 L9.011,3.023 L9.011,3.023 L9.011,2.963 L10.550,3.973 L13.517,5.805 L13.517,13.158 Z"/>
<path fill-rule="evenodd"  fill="rgb(31, 226, 109)"
 d="M13.506,5.912 L9.013,8.875 L4.506,5.988 L9.011,2.963 L13.506,5.912 Z"/>
<path fill-rule="evenodd"  fill="rgb(124, 252, 174)"
 d="M4.506,5.988 L0.000,3.046 L4.511,0.075 L9.011,2.963 L4.506,5.988 Z"/>
<path fill-rule="evenodd"  fill="rgb(65, 242, 135)"
 d="M13.506,5.912 L9.011,2.963 L13.498,-0.000 L18.000,3.036 L13.506,5.912 Z"/>
</svg>
