<svg 
 xmlns="http://www.w3.org/2000/svg"
 xmlns:xlink="http://www.w3.org/1999/xlink"
 width="22px" height="22px">
<path fill-rule="evenodd"  fill="rgb(255, 255, 255)"
 d="M10.263,4.572 L10.774,5.080 C11.191,5.510 11.185,6.193 10.761,6.616 C10.337,7.038 9.650,7.044 9.219,6.629 L6.842,4.262 C6.413,3.835 6.413,3.141 6.842,2.713 L9.233,0.334 C9.508,0.049 9.917,-0.065 10.302,0.035 C10.687,0.135 10.987,0.434 11.088,0.817 C11.188,1.200 11.074,1.607 10.788,1.882 L10.298,2.370 C16.884,3.110 21.999,8.674 21.999,15.428 C21.999,16.033 21.506,16.523 20.899,16.523 C20.291,16.523 19.799,16.033 19.799,15.428 C19.799,9.874 15.646,5.286 10.263,4.572 L10.263,4.572 ZM3.298,8.857 L12.099,8.857 C12.974,8.857 13.813,9.203 14.433,9.819 C15.051,10.435 15.399,11.271 15.399,12.142 L15.399,18.714 C15.399,20.528 13.921,21.999 12.099,21.999 L3.298,21.999 C2.423,21.999 1.584,21.653 0.965,21.037 C0.346,20.421 -0.001,19.585 -0.001,18.714 L-0.001,12.142 C-0.001,10.328 1.477,8.857 3.298,8.857 L3.298,8.857 Z"/>
</svg>
