<svg 
 xmlns="http://www.w3.org/2000/svg"
 xmlns:xlink="http://www.w3.org/1999/xlink"
 width="22px" height="22px">
<path fill-rule="evenodd"  fill="rgb(203, 203, 203)"
 d="M10.264,4.573 L10.775,5.081 C11.192,5.510 11.186,6.194 10.762,6.616 C10.338,7.039 9.651,7.044 9.220,6.629 L6.843,4.263 C6.413,3.835 6.413,3.142 6.843,2.714 L9.233,0.334 C9.509,0.049 9.918,-0.065 10.303,0.035 C10.688,0.136 10.987,0.434 11.088,0.818 C11.189,1.200 11.074,1.608 10.788,1.883 L10.299,2.370 C16.885,3.110 22.000,8.674 22.000,15.428 C22.000,16.033 21.507,16.524 20.900,16.524 C20.292,16.524 19.800,16.033 19.800,15.428 C19.800,9.874 15.647,5.287 10.264,4.573 L10.264,4.573 ZM3.299,8.857 L12.100,8.857 C12.975,8.857 13.814,9.203 14.433,9.819 C15.052,10.436 15.399,11.271 15.399,12.143 L15.399,18.714 C15.399,20.529 13.922,22.000 12.100,22.000 L3.299,22.000 C2.424,22.000 1.585,21.654 0.966,21.038 C0.347,20.421 -0.000,19.586 -0.000,18.714 L-0.000,12.143 C-0.000,10.328 1.477,8.857 3.299,8.857 L3.299,8.857 Z"/>
</svg>
