<svg 
 xmlns="http://www.w3.org/2000/svg"
 xmlns:xlink="http://www.w3.org/1999/xlink"
 width="24px" height="22px">
<path fill-rule="evenodd"  fill="rgb(102, 102, 102)"
 d="M12.263,4.572 L12.773,5.080 C13.190,5.510 13.184,6.193 12.760,6.615 C12.336,7.038 11.650,7.044 11.217,6.629 L8.841,4.262 C8.412,3.834 8.412,3.141 8.841,2.713 L11.232,0.333 C11.507,0.049 11.917,-0.065 12.302,0.035 C12.687,0.135 12.986,0.434 13.086,0.817 C13.187,1.200 13.073,1.607 12.787,1.882 L12.298,2.369 C18.883,3.110 23.998,8.674 23.998,15.428 C23.998,16.033 23.505,16.523 22.898,16.523 C22.290,16.523 21.798,16.033 21.798,15.428 C21.798,9.874 17.645,5.286 12.263,4.572 L12.263,4.572 ZM3.298,8.856 L14.098,8.856 C14.973,8.856 15.812,9.203 16.432,9.819 C17.050,10.435 17.398,11.271 17.398,12.142 L17.398,18.713 C17.398,20.528 15.920,21.999 14.098,21.999 L3.298,21.999 C2.422,21.999 1.583,21.653 0.964,21.037 C0.345,20.421 -0.002,19.585 -0.002,18.713 L-0.002,12.142 C-0.002,10.327 1.476,8.856 3.298,8.856 L3.298,8.856 Z"/>
</svg>
