<svg 
 xmlns="http://www.w3.org/2000/svg"
 xmlns:xlink="http://www.w3.org/1999/xlink"
 width="22px" height="22px">
<path fill-rule="evenodd"  fill="rgb(85, 85, 85)"
 d="M10.263,4.571 L10.773,5.079 C11.191,5.509 11.184,6.192 10.761,6.614 C10.336,7.037 9.649,7.043 9.217,6.628 L6.841,4.261 C6.412,3.834 6.412,3.141 6.841,2.712 L9.231,0.333 C9.507,0.048 9.916,-0.066 10.301,0.034 C10.685,0.134 10.986,0.433 11.087,0.816 C11.187,1.199 11.072,1.606 10.787,1.882 L10.297,2.368 C16.883,3.109 21.998,8.673 21.998,15.427 C21.998,16.032 21.505,16.522 20.898,16.522 C20.290,16.522 19.798,16.032 19.798,15.427 C19.798,9.874 15.645,5.285 10.263,4.571 L10.263,4.571 ZM3.297,8.856 L12.098,8.856 C12.973,8.856 13.812,9.202 14.432,9.818 C15.050,10.434 15.398,11.270 15.398,12.142 L15.398,18.713 C15.398,20.528 13.921,21.999 12.098,21.999 L3.297,21.999 C2.422,21.999 1.583,21.653 0.965,21.036 C0.345,20.420 -0.002,19.584 -0.002,18.713 L-0.002,12.142 C-0.002,10.327 1.475,8.856 3.297,8.856 L3.297,8.856 Z"/>
</svg>
