<svg 
 xmlns="http://www.w3.org/2000/svg"
 xmlns:xlink="http://www.w3.org/1999/xlink"
 width="22px" height="22px">
<path fill-rule="evenodd"  fill="rgb(85, 85, 85)"
 d="M21.985,19.792 C21.985,21.007 21.209,21.997 19.994,21.997 L11.995,21.997 L11.995,19.998 L19.994,19.998 L19.994,1.998 L1.994,1.998 L1.994,9.997 L-0.006,9.997 L-0.015,2.192 C-0.015,0.976 0.780,-0.003 1.994,-0.003 L19.787,-0.007 C21.001,-0.007 21.994,0.782 21.994,1.998 L21.985,19.792 ZM1.994,11.997 L7.995,11.997 C9.099,11.997 9.994,12.893 9.994,13.997 L9.994,19.998 C9.994,21.102 9.099,21.997 7.995,21.997 L1.994,21.997 C0.890,21.997 -0.006,21.102 -0.006,19.998 L-0.006,13.997 C-0.006,12.893 0.890,11.997 1.994,11.997 ZM15.994,5.997 L15.994,10.997 L14.994,8.997 L10.995,12.997 L8.994,10.997 L12.994,6.997 L10.995,5.997 L15.994,5.997 Z"/>
</svg>
