<svg 
 xmlns="http://www.w3.org/2000/svg"
 xmlns:xlink="http://www.w3.org/1999/xlink"
 width="22px" height="22px">
<path fill-rule="evenodd"  fill="rgb(255, 255, 255)"
 d="M21.989,19.793 C21.989,21.009 21.213,21.999 19.998,21.999 L11.998,21.999 L11.998,19.999 L19.998,19.999 L19.998,1.999 L1.998,1.999 L1.998,9.999 L-0.003,9.999 L-0.011,2.194 C-0.011,0.978 0.783,-0.001 1.998,-0.001 L19.790,-0.006 C21.005,-0.006 21.998,0.783 21.998,1.999 L21.989,19.793 ZM1.998,11.999 L7.998,11.999 C9.103,11.999 9.998,12.894 9.998,13.999 L9.998,19.999 C9.998,21.104 9.103,21.999 7.998,21.999 L1.998,21.999 C0.893,21.999 -0.003,21.104 -0.003,19.999 L-0.003,13.999 C-0.003,12.894 0.893,11.999 1.998,11.999 ZM15.997,5.999 L15.997,10.999 L14.998,8.999 L10.999,12.999 L8.998,10.999 L12.998,6.999 L10.999,5.999 L15.997,5.999 Z"/>
</svg>
