<svg 
 xmlns="http://www.w3.org/2000/svg"
 xmlns:xlink="http://www.w3.org/1999/xlink"
 width="22px" height="22px">
<path fill-rule="evenodd"  fill="rgb(102, 102, 102)"
 d="M21.988,19.793 C21.988,21.008 21.213,21.999 19.997,21.999 L11.998,21.999 L11.998,19.999 L19.997,19.999 L19.997,1.999 L1.997,1.999 L1.997,9.999 L-0.003,9.999 L-0.012,2.194 C-0.012,0.978 0.783,-0.001 1.997,-0.001 L19.789,-0.006 C21.004,-0.006 21.997,0.783 21.997,1.999 L21.988,19.793 ZM1.997,11.999 L7.997,11.999 C9.102,11.999 9.997,12.894 9.997,13.999 L9.997,19.999 C9.997,21.103 9.102,21.999 7.997,21.999 L1.997,21.999 C0.893,21.999 -0.003,21.103 -0.003,19.999 L-0.003,13.999 C-0.003,12.894 0.893,11.999 1.997,11.999 ZM15.997,5.998 L15.997,10.999 L14.997,8.999 L10.998,12.999 L8.997,10.999 L12.997,6.999 L10.998,5.998 L15.997,5.998 Z"/>
</svg>
