<svg 
 xmlns="http://www.w3.org/2000/svg"
 xmlns:xlink="http://www.w3.org/1999/xlink"
 width="22px" height="22px">
<path fill-rule="evenodd"  fill="rgb(203, 203, 203)"
 d="M21.990,19.794 C21.990,21.009 21.214,21.999 19.999,21.999 L11.999,21.999 L11.999,19.999 L19.999,19.999 L19.999,1.999 L1.999,1.999 L1.999,9.999 L-0.002,9.999 L-0.010,2.194 C-0.010,0.978 0.784,-0.000 1.999,-0.000 L19.790,-0.005 C21.006,-0.005 21.999,0.784 21.999,1.999 L21.990,19.794 ZM1.999,12.000 L7.999,12.000 C9.103,12.000 9.998,12.895 9.998,13.999 L9.998,19.999 C9.998,21.104 9.103,21.999 7.999,21.999 L1.999,21.999 C0.894,21.999 -0.002,21.104 -0.002,19.999 L-0.002,13.999 C-0.002,12.895 0.894,12.000 1.999,12.000 ZM15.998,5.999 L15.998,10.999 L14.998,8.999 L10.999,12.999 L8.999,10.999 L12.999,6.999 L10.999,5.999 L15.998,5.999 Z"/>
</svg>
