<svg 
 xmlns="http://www.w3.org/2000/svg"
 xmlns:xlink="http://www.w3.org/1999/xlink"
 width="24px" height="25px">
<path fill-rule="evenodd"  fill="rgb(85, 85, 85)"
 d="M22.000,25.000 L10.413,24.999 C10.258,25.001 10.111,24.939 10.024,24.834 C9.943,24.730 9.929,24.602 9.986,24.488 L11.682,21.174 L9.210,19.831 C9.036,19.738 8.961,19.561 9.027,19.400 L10.465,16.254 C10.528,16.101 10.704,15.998 10.901,15.999 L22.000,16.000 C23.010,16.000 24.000,16.922 24.000,18.000 L24.000,23.000 C24.000,24.056 22.965,25.000 22.000,25.000 ZM7.092,24.999 L2.000,25.000 C1.011,25.000 -0.000,24.032 -0.000,23.000 L-0.000,18.000 C-0.000,16.878 0.952,16.000 2.000,16.000 L7.580,15.999 C7.736,15.996 7.882,16.058 7.970,16.164 C8.050,16.267 8.064,16.396 8.007,16.509 L6.311,19.824 L8.783,21.166 C8.957,21.260 9.033,21.437 8.967,21.598 L7.529,24.744 C7.466,24.897 7.290,24.999 7.092,24.999 Z"/>
<path fill-rule="evenodd"  fill="rgb(85, 85, 85)"
 d="M16.242,8.431 C14.818,9.607 13.321,10.503 11.884,10.601 C11.884,10.609 11.885,10.625 11.885,10.625 L10.512,8.862 C10.512,8.862 10.524,8.862 10.531,8.863 C10.933,7.470 12.120,6.122 13.536,4.953 C16.893,2.181 21.731,0.543 21.968,0.847 C22.207,1.153 19.499,5.742 16.242,8.431 Z"/>
<path fill-rule="evenodd"  fill="rgb(85, 85, 85)"
 d="M11.898,10.584 L10.542,8.837 C7.085,8.589 8.209,12.441 6.166,13.415 C7.486,13.561 9.736,13.808 10.730,12.985 C11.724,12.162 11.903,11.213 11.898,10.584 L11.898,10.584 Z"/>
</svg>
