<svg 
 xmlns="http://www.w3.org/2000/svg"
 xmlns:xlink="http://www.w3.org/1999/xlink"
 width="21px" height="18px">
<path fill-rule="evenodd"  fill="rgb(255, 255, 255)"
 d="M20.999,8.603 C20.999,9.036 20.890,9.395 20.673,9.755 C20.348,9.323 19.987,8.963 19.553,8.639 C19.553,8.207 19.082,7.739 18.287,7.271 C17.962,7.415 17.637,7.559 17.275,7.667 C16.951,7.595 16.589,7.559 16.264,7.559 C15.143,7.559 14.095,7.919 13.227,8.496 C12.324,8.603 11.384,8.639 10.481,8.639 C7.661,8.639 4.734,8.171 2.710,7.271 C1.878,7.739 1.444,8.207 1.444,8.639 C1.444,9.179 2.204,9.863 3.505,10.403 C3.866,10.547 4.227,10.691 4.662,10.799 C5.131,10.943 5.673,11.051 6.252,11.159 C7.481,11.375 8.890,11.519 10.481,11.519 L11.059,11.519 C10.914,11.988 10.842,12.455 10.842,12.959 C10.842,14.327 11.348,15.551 12.179,16.487 C11.637,16.523 11.059,16.559 10.481,16.559 C11.023,16.559 11.637,16.523 12.179,16.487 C12.649,17.027 13.191,17.459 13.841,17.783 C12.722,17.928 11.601,17.999 10.481,17.999 C5.384,17.999 -0.001,16.487 -0.001,13.679 C-0.001,12.671 0.686,11.808 1.842,11.159 C0.686,10.511 -0.001,9.647 -0.001,8.639 C-0.001,7.811 0.468,7.091 1.300,6.480 C0.468,5.867 -0.001,5.147 -0.001,4.319 C-0.001,1.511 5.420,-0.001 10.481,-0.001 C15.541,-0.001 20.963,1.511 20.999,4.283 C20.999,5.111 20.493,5.831 19.697,6.444 C20.529,7.055 20.999,7.775 20.999,8.603 ZM10.481,1.439 C4.878,1.439 1.444,3.131 1.444,4.319 C1.444,4.751 1.878,5.219 2.637,5.687 C3.179,5.975 3.830,6.263 4.662,6.480 C6.179,6.911 8.095,7.199 10.445,7.199 C12.794,7.199 14.746,6.911 16.227,6.480 C17.059,6.263 17.746,5.975 18.251,5.687 C19.082,5.219 19.517,4.751 19.517,4.319 C19.517,3.131 16.083,1.439 10.481,1.439 ZM13.119,16.019 C12.577,15.479 12.143,14.795 11.926,14.040 C12.360,13.895 12.649,13.463 12.649,12.959 C12.649,12.455 12.360,12.023 11.926,11.880 C12.143,11.123 12.577,10.403 13.119,9.899 C13.481,10.188 14.095,10.295 14.493,10.007 C14.890,9.719 15.143,9.215 15.071,8.783 C15.468,8.712 15.830,8.639 16.264,8.639 C16.661,8.639 17.059,8.712 17.420,8.783 C17.384,9.251 17.601,9.684 18.035,9.971 C18.468,10.188 19.010,10.115 19.409,9.863 C19.951,10.403 20.385,11.123 20.601,11.880 C20.167,12.023 19.878,12.455 19.878,12.959 C19.878,13.463 20.167,13.895 20.637,14.040 C20.420,14.795 19.987,15.479 19.445,16.019 C19.046,15.695 18.504,15.624 18.071,15.911 C17.601,16.199 17.384,16.667 17.456,17.099 C17.059,17.244 16.698,17.279 16.264,17.279 C15.866,17.279 15.468,17.244 15.071,17.099 C15.143,16.631 14.926,16.199 14.493,15.911 C14.023,15.695 13.481,15.732 13.119,16.019 ZM16.264,14.759 C17.312,14.759 18.107,13.931 18.107,12.959 C18.107,11.988 17.312,11.195 16.264,11.195 C15.216,11.195 14.420,11.988 14.420,12.959 C14.420,13.931 15.216,14.759 16.264,14.759 ZM16.264,11.880 C16.878,11.880 17.348,12.347 17.348,12.959 C17.348,13.571 16.878,14.040 16.264,14.040 C15.649,14.040 15.179,13.571 15.179,12.959 C15.179,12.347 15.649,11.880 16.264,11.880 Z"/>
</svg>
