<svg 
 xmlns="http://www.w3.org/2000/svg"
 xmlns:xlink="http://www.w3.org/1999/xlink"
 width="24px" height="24px">
<path fill-rule="evenodd"  fill="rgb(255, 255, 255)"
 d="M22.798,2.382 L22.198,2.382 L22.198,22.609 C22.198,23.264 21.662,23.796 20.999,23.796 C20.336,23.796 19.799,23.264 19.799,22.609 L19.799,2.382 L15.998,2.382 L15.998,22.807 C15.999,23.230 15.770,23.622 15.399,23.835 C15.027,24.046 14.570,24.046 14.198,23.835 C13.827,23.622 13.599,23.230 13.599,22.807 L13.599,2.382 L10.398,2.382 L10.398,22.807 C10.398,23.230 10.170,23.622 9.799,23.835 C9.427,24.046 8.969,24.046 8.598,23.835 C8.227,23.622 7.999,23.230 7.999,22.807 L7.999,2.382 L4.199,2.382 L4.199,22.609 C4.199,23.264 3.662,23.796 2.998,23.796 C2.336,23.796 1.799,23.264 1.799,22.609 L1.799,2.382 L1.198,2.382 C0.536,2.382 -0.001,1.850 -0.001,1.195 C-0.001,0.540 0.536,0.009 1.198,0.009 L22.798,0.009 C23.461,0.009 23.998,0.540 23.998,1.195 C23.998,1.850 23.461,2.382 22.798,2.382 Z"/>
</svg>
