<svg 
 xmlns="http://www.w3.org/2000/svg"
 xmlns:xlink="http://www.w3.org/1999/xlink"
 width="19px" height="19px">
<path fill-rule="evenodd"  fill="rgb(255, 255, 255)"
 d="M18.352,18.352 C17.938,18.767 17.375,19.000 16.789,19.000 L12.263,19.000 C11.676,19.000 11.114,18.767 10.700,18.352 C10.285,17.938 10.052,17.375 10.052,16.789 L10.052,10.052 L16.789,10.052 C17.375,10.052 17.938,10.285 18.352,10.700 C18.767,11.114 19.000,11.677 19.000,12.263 L19.000,16.789 C19.000,17.375 18.767,17.938 18.352,18.352 ZM17.260,14.500 C17.260,14.425 17.254,14.356 17.248,14.294 L17.840,13.844 C18.003,13.718 18.046,13.500 17.940,13.312 L17.279,12.194 C17.204,12.062 17.061,11.981 16.911,11.981 C16.861,11.981 16.817,11.987 16.767,12.006 L16.062,12.281 C15.944,12.200 15.819,12.131 15.694,12.075 L15.588,11.356 C15.557,11.150 15.382,11.000 15.170,11.000 L13.835,11.000 C13.623,11.000 13.448,11.150 13.417,11.350 L13.317,12.075 C13.192,12.131 13.074,12.200 12.949,12.281 L12.244,12.006 C12.194,11.987 12.144,11.981 12.094,11.981 C11.945,11.981 11.801,12.056 11.732,12.187 L11.065,13.312 C10.959,13.487 11.003,13.718 11.165,13.844 L11.757,14.294 C11.751,14.369 11.745,14.437 11.745,14.500 C11.745,14.562 11.745,14.631 11.757,14.706 L11.165,15.156 C11.003,15.281 10.959,15.500 11.065,15.687 L11.726,16.806 C11.801,16.937 11.945,17.019 12.094,17.019 C12.144,17.019 12.188,17.012 12.238,16.993 L12.943,16.719 C13.061,16.800 13.186,16.868 13.311,16.925 L13.417,17.644 C13.442,17.844 13.623,18.000 13.835,18.000 L15.170,18.000 C15.382,18.000 15.557,17.850 15.588,17.650 L15.694,16.925 C15.819,16.868 15.938,16.800 16.062,16.719 L16.767,16.993 C16.817,17.012 16.867,17.019 16.917,17.019 C17.067,17.019 17.210,16.944 17.279,16.812 L17.947,15.681 C18.046,15.500 18.003,15.281 17.840,15.156 L17.248,14.706 C17.254,14.644 17.260,14.575 17.260,14.500 ZM14.503,16.000 C13.679,16.000 13.005,15.325 13.005,14.500 C13.005,13.675 13.679,13.000 14.503,13.000 C15.326,13.000 16.000,13.675 16.000,14.500 C16.000,15.325 15.326,16.000 14.503,16.000 ZM16.789,8.947 L10.052,8.947 L10.052,2.210 C10.052,1.624 10.285,1.062 10.700,0.647 C11.114,0.233 11.676,-0.000 12.263,-0.000 L16.789,-0.000 C17.375,-0.000 17.938,0.233 18.352,0.647 C18.767,1.062 19.000,1.624 19.000,2.210 L19.000,6.737 C19.000,7.323 18.767,7.885 18.352,8.300 C17.938,8.714 17.375,8.947 16.789,8.947 ZM17.000,2.000 L12.000,2.000 L12.000,7.000 L17.000,7.000 L17.000,2.000 ZM6.737,19.000 L2.210,19.000 C1.624,19.000 1.062,18.767 0.647,18.352 C0.233,17.938 -0.000,17.375 -0.000,16.789 L-0.000,12.263 C-0.000,11.677 0.233,11.114 0.647,10.700 C1.062,10.285 1.624,10.052 2.210,10.052 L8.947,10.052 L8.947,16.789 C8.947,17.375 8.714,17.938 8.300,18.352 C7.885,18.767 7.323,19.000 6.737,19.000 ZM7.000,12.000 L2.000,12.000 L2.000,17.000 L7.000,17.000 L7.000,12.000 ZM-0.000,6.737 L-0.000,2.210 C-0.000,0.989 0.989,-0.000 2.210,-0.000 L6.737,-0.000 C7.957,-0.000 8.947,0.989 8.947,2.210 L8.947,8.947 L2.210,8.947 C0.989,8.947 -0.000,7.957 -0.000,6.737 ZM7.000,2.000 L2.000,2.000 L2.000,7.000 L7.000,7.000 L7.000,2.000 Z"/>
</svg>
