<svg 
 xmlns="http://www.w3.org/2000/svg"
 xmlns:xlink="http://www.w3.org/1999/xlink"
 width="24px" height="24px">
<path fill-rule="evenodd"  fill="rgb(255, 255, 255)"
 d="M1.243,2.020 C0.556,2.020 -0.001,2.563 -0.001,3.233 L-0.001,22.786 C-0.001,23.455 0.556,23.999 1.243,23.999 L22.755,23.999 C23.441,23.999 23.999,23.457 23.999,22.786 L23.999,3.233 C23.999,2.565 23.441,2.020 22.755,2.020 L18.205,2.020 L19.033,2.828 L19.033,0.807 C19.033,0.361 18.662,-0.001 18.205,-0.001 C17.748,-0.001 17.378,0.361 17.378,0.807 L17.378,3.635 L22.755,3.635 C22.526,3.635 22.344,3.457 22.344,3.233 L22.344,22.786 C22.344,22.564 22.528,22.384 22.755,22.384 L1.243,22.384 C1.470,22.384 1.653,22.563 1.653,22.786 L1.653,3.233 C1.653,3.456 1.469,3.635 1.243,3.635 L5.792,3.635 C6.249,3.635 6.619,3.274 6.619,2.828 C6.619,2.382 6.249,2.020 5.792,2.020 L1.243,2.020 ZM4.964,2.828 C4.964,3.274 5.334,3.635 5.792,3.635 C6.249,3.635 6.619,3.274 6.619,2.828 L6.619,0.807 C6.619,0.361 6.249,-0.001 5.792,-0.001 C5.334,-0.001 4.964,0.361 4.964,0.807 L4.964,2.828 ZM23.999,6.866 L23.999,6.058 L-0.001,6.058 L-0.001,8.885 C-0.001,9.331 0.370,9.693 0.826,9.693 C1.283,9.693 1.653,9.331 1.653,8.885 L1.653,6.866 L0.826,7.673 L23.171,7.673 L22.344,6.866 L22.344,8.885 C22.344,9.331 22.714,9.693 23.171,9.693 C23.628,9.693 23.999,9.331 23.999,8.885 L23.999,6.866 ZM18.208,13.114 C18.665,13.114 19.036,12.752 19.036,12.306 C19.036,11.860 18.665,11.498 18.208,11.498 L5.792,11.498 C5.334,11.498 4.964,11.860 4.964,12.306 C4.964,12.752 5.334,13.114 5.792,13.114 L18.208,13.114 ZM5.792,15.537 C5.334,15.537 4.964,15.898 4.964,16.344 C4.964,16.790 5.334,17.152 5.792,17.152 L14.070,17.152 C14.527,17.152 14.898,16.790 14.898,16.344 C14.898,15.898 14.527,15.537 14.070,15.537 L5.792,15.537 ZM18.205,3.635 L17.378,2.828 L17.378,4.445 C17.378,4.891 17.748,5.253 18.205,5.253 C18.662,5.253 19.033,4.891 19.033,4.445 L19.033,2.020 L5.792,2.020 C5.334,2.020 4.964,2.382 4.964,2.828 C4.964,3.274 5.334,3.635 5.792,3.635 L18.205,3.635 ZM6.619,2.828 C6.619,2.382 6.249,2.020 5.792,2.020 C5.334,2.020 4.964,2.382 4.964,2.828 L4.964,4.445 C4.964,4.891 5.334,5.253 5.792,5.253 C6.249,5.253 6.619,4.891 6.619,4.445 L6.619,2.828 Z"/>
</svg>
