<svg 
 xmlns="http://www.w3.org/2000/svg"
 xmlns:xlink="http://www.w3.org/1999/xlink"
 width="25px" height="25px">
<path fill-rule="evenodd"  fill="rgb(255, 255, 255)"
 d="M22.915,24.999 L8.332,24.999 C7.186,24.999 6.249,24.062 6.249,22.916 L6.249,18.749 L2.082,18.749 C0.935,18.749 -0.002,17.811 -0.002,16.666 L-0.002,2.083 C-0.002,0.937 0.935,-0.001 2.082,-0.001 L16.665,-0.001 C17.811,-0.001 18.749,0.937 18.749,2.083 L18.749,6.249 L22.915,6.249 C24.061,6.249 24.999,7.187 24.999,8.333 L24.999,22.916 C24.999,24.062 24.061,24.999 22.915,24.999 ZM16.665,14.923 L14.798,16.666 L16.665,16.666 L16.665,14.923 ZM11.769,16.666 L16.457,12.291 C16.520,12.244 16.594,12.218 16.665,12.186 L16.665,9.884 L9.802,16.666 L11.769,16.666 ZM8.332,9.969 L9.923,8.333 L8.332,8.333 L8.332,9.969 ZM12.643,8.333 C12.593,8.482 12.518,8.626 12.394,8.749 L8.749,12.499 C8.625,12.623 8.481,12.698 8.332,12.748 L8.332,15.219 L15.301,8.333 L12.643,8.333 ZM16.665,2.083 L2.082,2.083 L2.082,16.666 L6.249,16.666 L6.249,8.333 C6.249,7.187 7.186,6.249 8.332,6.249 L16.665,6.249 L16.665,2.083 ZM22.915,8.333 L18.749,8.333 L18.749,16.666 C18.749,17.811 17.811,18.749 16.665,18.749 L8.332,18.749 L8.332,22.916 L22.915,22.916 L22.915,8.333 Z"/>
</svg>
