<svg 
 xmlns="http://www.w3.org/2000/svg"
 xmlns:xlink="http://www.w3.org/1999/xlink"
 width="23px" height="23px">
<path fill-rule="evenodd"  fill="rgb(255, 255, 255)"
 d="M22.107,1.600 L19.278,4.429 L18.571,3.722 L20.586,1.706 L20.021,1.249 C20.243,1.354 20.453,1.487 20.647,1.645 L21.399,0.893 L22.107,1.600 ZM14.328,7.964 L17.157,5.136 L17.863,5.843 L15.035,8.671 L14.328,7.964 ZM1.000,4.000 C1.000,2.343 2.343,1.000 4.000,1.000 L17.471,1.000 L1.000,17.471 L1.000,4.000 ZM4.429,19.278 L1.600,22.106 L0.893,21.399 L3.722,18.571 L4.429,19.278 ZM8.671,15.035 L5.843,17.864 L5.135,17.157 L7.964,14.328 L8.671,15.035 ZM12.914,9.378 L13.621,10.085 L10.085,13.621 L9.378,12.914 L12.914,9.378 ZM21.999,20.000 C21.999,21.657 20.656,23.000 18.999,23.000 L5.458,23.000 L22.014,6.444 L21.999,20.000 Z"/>
</svg>
