<svg 
 xmlns="http://www.w3.org/2000/svg"
 xmlns:xlink="http://www.w3.org/1999/xlink"
 width="23px" height="23px">
<path fill-rule="evenodd"  fill="rgb(102, 102, 102)"
 d="M22.103,1.597 L19.274,4.426 L18.566,3.719 L20.582,1.703 L20.017,1.246 C20.239,1.351 20.449,1.484 20.643,1.642 L21.395,0.891 L22.103,1.597 ZM14.325,7.962 L17.152,5.133 L17.859,5.840 L15.032,8.669 L14.325,7.962 ZM0.997,3.997 C0.997,2.340 2.339,0.997 3.996,0.997 L17.469,0.997 L0.997,17.468 L0.997,3.997 ZM4.425,19.276 L1.597,22.104 L0.890,21.396 L3.718,18.568 L4.425,19.276 ZM8.667,15.033 L5.839,17.861 L5.133,17.154 L7.961,14.326 L8.667,15.033 ZM12.910,9.376 L13.618,10.083 L10.082,13.618 L9.375,12.911 L12.910,9.376 ZM21.996,19.997 C21.996,21.654 20.653,22.997 18.996,22.997 L5.455,22.997 L22.010,6.441 L21.996,19.997 Z"/>
</svg>
