<svg 
 xmlns="http://www.w3.org/2000/svg"
 xmlns:xlink="http://www.w3.org/1999/xlink"
 width="23px" height="23px">
<path fill-rule="evenodd"  fill="rgb(85, 85, 85)"
 d="M22.101,1.596 L19.272,4.425 L18.564,3.718 L20.580,1.703 L20.016,1.246 C20.237,1.350 20.447,1.484 20.641,1.641 L21.393,0.890 L22.101,1.596 ZM14.322,7.961 L17.150,5.132 L17.857,5.840 L15.029,8.668 L14.322,7.961 ZM0.995,3.996 C0.995,2.340 2.337,0.996 3.993,0.996 L17.466,0.996 L0.995,17.467 L0.995,3.996 ZM4.422,19.275 L1.594,22.102 L0.888,21.395 L3.716,18.567 L4.422,19.275 ZM8.665,15.032 L5.837,17.860 L5.130,17.153 L7.959,14.325 L8.665,15.032 ZM12.908,9.375 L13.615,10.082 L10.081,13.617 L9.373,12.910 L12.908,9.375 ZM21.994,19.997 C21.994,21.653 20.650,22.996 18.993,22.996 L5.453,22.996 L22.008,6.440 L21.994,19.997 Z"/>
</svg>
