<svg 
 xmlns="http://www.w3.org/2000/svg"
 xmlns:xlink="http://www.w3.org/1999/xlink"
 width="23px" height="22px">
<path fill-rule="evenodd"  fill="rgb(85, 85, 85)"
 d="M22.211,21.999 L0.786,21.999 C0.351,21.999 -0.002,21.647 -0.002,21.212 L-0.002,20.632 C-0.002,20.197 0.351,19.844 0.786,19.844 L2.083,19.844 L2.083,15.566 L4.173,10.427 L4.947,10.022 L2.504,8.238 C1.567,7.551 1.347,6.212 2.017,5.248 L5.051,0.885 C5.720,-0.079 7.027,-0.303 7.968,0.383 L16.482,6.603 C17.420,7.290 17.639,8.629 16.971,9.592 L16.791,9.851 L19.857,12.351 L20.900,19.844 L22.211,19.844 C22.646,19.844 22.998,20.197 22.998,20.632 L22.998,21.212 C22.998,21.647 22.646,21.999 22.211,21.999 ZM5.838,10.672 L5.742,10.974 L4.173,13.423 L4.173,19.844 L7.310,19.844 L7.310,15.566 L9.403,13.423 L9.509,13.353 L5.838,10.672 ZM13.935,13.955 C13.266,14.919 11.960,15.144 11.020,14.457 L10.397,14.002 L9.403,15.566 L9.403,19.844 L13.584,19.844 L13.584,17.709 L13.703,15.107 L14.005,13.854 L13.935,13.955 ZM18.809,13.423 L15.974,11.024 L14.574,13.037 L15.474,16.025 L15.630,19.844 L18.809,19.844 L18.809,13.423 Z"/>
</svg>
