<svg 
 xmlns="http://www.w3.org/2000/svg"
 xmlns:xlink="http://www.w3.org/1999/xlink"
 width="23px" height="22px">
<path fill-rule="evenodd"  fill="rgb(102, 102, 102)"
 d="M22.209,21.998 L0.784,21.998 C0.349,21.998 -0.004,21.645 -0.004,21.210 L-0.004,20.630 C-0.004,20.195 0.349,19.843 0.784,19.843 L2.080,19.843 L2.080,15.565 L4.171,10.425 L4.946,10.020 L2.502,8.235 C1.565,7.549 1.344,6.210 2.014,5.247 L5.049,0.883 C5.718,-0.081 7.024,-0.305 7.966,0.382 L16.479,6.602 C17.418,7.289 17.637,8.628 16.969,9.591 L16.789,9.849 L19.855,12.349 L20.897,19.843 L22.209,19.843 C22.644,19.843 22.996,20.195 22.996,20.630 L22.996,21.210 C22.996,21.645 22.644,21.998 22.209,21.998 ZM5.835,10.670 L5.739,10.972 L4.171,13.421 L4.171,19.843 L7.307,19.843 L7.307,15.565 L9.400,13.421 L9.506,13.352 L5.835,10.670 ZM13.933,13.954 C13.263,14.918 11.957,15.142 11.018,14.456 L10.395,14.001 L9.400,15.565 L9.400,19.843 L13.581,19.843 L13.581,17.708 L13.701,15.106 L14.003,13.853 L13.933,13.954 ZM18.807,13.421 L15.973,11.022 L14.572,13.035 L15.471,16.024 L15.628,19.843 L18.807,19.843 L18.807,13.421 Z"/>
</svg>
