<svg 
 xmlns="http://www.w3.org/2000/svg"
 xmlns:xlink="http://www.w3.org/1999/xlink"
 width="12px" height="12px">
<path fill-rule="evenodd"  fill="rgb(23, 204, 95)"
 d="M4.730,10.882 C5.150,11.049 5.548,11.133 5.923,11.133 C8.059,11.133 9.128,10.260 9.128,8.515 C9.128,7.922 9.010,7.453 8.778,7.109 C8.624,6.880 8.450,6.687 8.253,6.531 C8.058,6.375 7.866,6.254 7.679,6.168 C7.491,6.082 7.262,6.017 6.993,5.972 C6.722,5.928 6.484,5.901 6.277,5.890 C6.069,5.880 5.801,5.875 5.471,5.875 C5.056,5.875 4.769,5.901 4.610,5.953 C4.610,6.229 4.609,6.643 4.606,7.195 C4.603,7.747 4.602,8.158 4.602,8.429 C4.602,8.471 4.599,8.647 4.594,8.957 C4.588,9.267 4.586,9.518 4.589,9.711 C4.591,9.903 4.605,10.121 4.628,10.363 C4.650,10.605 4.684,10.778 4.730,10.882 L4.730,10.882 ZM4.610,5.054 C4.849,5.091 5.159,5.109 5.539,5.109 C6.006,5.109 6.412,5.075 6.758,5.007 C7.105,4.940 7.417,4.824 7.696,4.660 C7.974,4.496 8.186,4.263 8.331,3.961 C8.475,3.659 8.548,3.289 8.548,2.851 C8.548,2.487 8.466,2.168 8.300,1.894 C8.136,1.621 7.911,1.407 7.627,1.254 C7.343,1.100 7.036,0.987 6.707,0.914 C6.377,0.841 6.025,0.804 5.650,0.804 C5.366,0.804 4.997,0.838 4.542,0.906 C4.542,1.166 4.554,1.560 4.576,2.086 C4.599,2.612 4.610,3.008 4.610,3.273 C4.610,3.414 4.609,3.622 4.606,3.898 C4.603,4.174 4.602,4.380 4.602,4.515 C4.602,4.755 4.605,4.935 4.610,5.054 L4.610,5.054 ZM-0.000,12.000 L0.017,11.265 C0.102,11.245 0.343,11.203 0.741,11.140 C1.138,11.078 1.440,11.008 1.645,10.929 C1.684,10.867 1.720,10.797 1.751,10.718 C1.782,10.640 1.806,10.553 1.824,10.457 C1.840,10.360 1.856,10.276 1.870,10.203 C1.885,10.130 1.893,10.032 1.895,9.910 C1.899,9.787 1.900,9.699 1.900,9.644 L1.900,9.133 C1.900,4.018 1.838,1.349 1.713,1.125 C1.690,1.083 1.627,1.045 1.525,1.011 C1.423,0.978 1.297,0.949 1.146,0.925 C0.995,0.902 0.854,0.884 0.724,0.871 C0.593,0.858 0.455,0.846 0.311,0.836 C0.166,0.825 0.079,0.817 0.051,0.812 L0.017,0.164 C0.573,0.154 1.540,0.123 2.914,0.074 C4.289,0.024 5.349,-0.000 6.093,-0.000 C6.224,-0.000 6.417,0.001 6.673,0.004 C6.929,0.006 7.122,0.008 7.253,0.008 C7.650,0.008 8.038,0.041 8.415,0.109 C8.794,0.177 9.159,0.286 9.511,0.437 C9.863,0.588 10.170,0.773 10.431,0.992 C10.693,1.211 10.903,1.483 11.062,1.808 C11.221,2.134 11.301,2.492 11.301,2.883 C11.301,3.153 11.254,3.402 11.160,3.629 C11.066,3.855 10.956,4.043 10.828,4.191 C10.699,4.340 10.517,4.489 10.278,4.640 C10.039,4.791 9.832,4.908 9.656,4.992 C9.480,5.075 9.241,5.179 8.940,5.304 C9.815,5.487 10.544,5.836 11.126,6.351 C11.709,6.867 12.000,7.513 12.000,8.289 C12.000,8.810 11.900,9.277 11.701,9.691 C11.503,10.105 11.237,10.445 10.904,10.711 C10.572,10.976 10.180,11.199 9.728,11.379 C9.276,11.558 8.812,11.685 8.335,11.757 C7.858,11.830 7.358,11.867 6.835,11.867 C6.585,11.867 6.210,11.859 5.710,11.843 C5.210,11.828 4.835,11.820 4.585,11.820 C3.982,11.820 3.110,11.849 1.968,11.906 C0.826,11.963 0.170,11.994 -0.000,12.000 L-0.000,12.000 Z"/>
</svg>
