<svg 
 xmlns="http://www.w3.org/2000/svg"
 xmlns:xlink="http://www.w3.org/1999/xlink"
 width="16px" height="16px">
<path fill-rule="evenodd"  fill="rgb(23, 204, 95)"
 d="M2.999,15.994 C2.204,15.994 1.441,15.678 0.878,15.115 C0.315,14.552 -0.001,13.788 -0.001,12.992 L-0.001,6.998 C-0.001,6.445 0.447,5.997 0.999,5.997 C1.552,5.997 1.999,6.445 1.999,6.998 L1.999,12.998 C1.999,13.264 2.105,13.518 2.292,13.706 C2.480,13.893 2.734,13.999 2.999,13.999 L13.000,13.999 C13.552,13.999 13.999,13.551 13.999,12.998 L13.999,7.004 C13.999,6.451 14.447,6.003 14.999,6.003 C15.552,6.003 15.999,6.451 15.999,7.004 L15.999,12.998 C15.999,13.794 15.683,14.558 15.121,15.121 C14.558,15.684 13.795,16.000 13.000,16.000 L2.999,15.994 ZM6.999,9.997 L6.999,3.415 L5.707,4.708 C5.312,5.071 4.702,5.059 4.322,4.680 C3.942,4.301 3.929,3.690 4.292,3.295 L7.292,0.293 C7.480,0.105 7.735,-0.000 8.000,-0.000 C8.265,-0.000 8.520,0.105 8.707,0.293 L11.474,3.059 C11.748,3.307 11.862,3.686 11.772,4.044 C11.682,4.402 11.402,4.681 11.044,4.770 C10.686,4.860 10.308,4.744 10.061,4.471 L8.999,3.417 L8.999,9.997 C8.999,10.354 8.809,10.684 8.500,10.863 C8.190,11.042 7.809,11.042 7.500,10.863 C7.190,10.684 6.999,10.354 6.999,9.997 L6.999,9.997 Z"/>
</svg>
