<svg 
 xmlns="http://www.w3.org/2000/svg"
 xmlns:xlink="http://www.w3.org/1999/xlink"
 width="16px" height="16px">
<path fill-rule="evenodd"  fill="rgb(203, 203, 203)"
 d="M3.000,15.994 C2.204,15.994 1.441,15.678 0.878,15.115 C0.316,14.552 -0.000,13.788 -0.000,12.992 L-0.000,6.998 C-0.000,6.445 0.447,5.998 1.000,5.998 C1.552,5.998 2.000,6.445 2.000,6.998 L2.000,12.998 C2.000,13.264 2.105,13.518 2.293,13.706 C2.480,13.894 2.735,13.999 3.000,13.999 L13.000,13.999 C13.552,13.999 14.000,13.551 14.000,12.998 L14.000,7.004 C14.000,6.451 14.447,6.004 15.000,6.004 C15.552,6.004 16.000,6.451 16.000,7.004 L16.000,12.998 C16.000,13.794 15.684,14.558 15.121,15.121 C14.559,15.684 13.795,16.000 13.000,16.000 L3.000,15.994 ZM7.000,9.997 L7.000,3.415 L5.707,4.708 C5.312,5.071 4.702,5.059 4.323,4.680 C3.943,4.301 3.930,3.690 4.293,3.295 L7.293,0.293 C7.481,0.105 7.735,-0.000 8.000,-0.000 C8.266,-0.000 8.520,0.105 8.708,0.293 L11.475,3.059 C11.748,3.307 11.862,3.686 11.772,4.044 C11.682,4.402 11.402,4.681 11.044,4.770 C10.686,4.860 10.308,4.744 10.061,4.471 L9.000,3.417 L9.000,9.997 C9.000,10.354 8.809,10.685 8.500,10.863 C8.191,11.042 7.809,11.042 7.500,10.863 C7.190,10.685 7.000,10.354 7.000,9.997 L7.000,9.997 Z"/>
</svg>
