<svg 
 xmlns="http://www.w3.org/2000/svg"
 xmlns:xlink="http://www.w3.org/1999/xlink"
 width="16px" height="16px">
<path fill-rule="evenodd"  fill="rgb(203, 203, 203)"
 d="M15.961,6.050 C15.914,5.899 15.827,5.766 15.713,5.665 C15.597,5.564 15.457,5.496 15.308,5.473 L10.762,4.782 L8.731,0.472 C8.664,0.331 8.561,0.211 8.431,0.128 C8.302,0.045 8.155,-0.000 8.002,-0.000 C7.851,-0.000 7.703,0.045 7.574,0.128 C7.444,0.211 7.341,0.331 7.274,0.472 L5.241,4.780 L0.694,5.471 C0.544,5.494 0.404,5.559 0.287,5.662 C0.171,5.764 0.085,5.899 0.040,6.050 C-0.008,6.200 -0.012,6.360 0.025,6.515 C0.061,6.671 0.137,6.808 0.246,6.918 L3.539,10.272 L2.761,15.009 C2.735,15.165 2.752,15.324 2.808,15.471 C2.864,15.617 2.961,15.743 3.082,15.838 C3.205,15.930 3.349,15.986 3.500,15.997 C3.651,16.009 3.801,15.975 3.935,15.903 L8.000,13.664 L12.068,15.901 C12.201,15.975 12.352,16.006 12.503,15.995 C12.654,15.984 12.798,15.928 12.921,15.835 C13.044,15.743 13.139,15.615 13.194,15.468 C13.251,15.322 13.268,15.162 13.242,15.007 L12.466,10.272 L15.756,6.916 C15.864,6.806 15.941,6.666 15.976,6.513 C16.013,6.360 16.006,6.198 15.961,6.050 L15.961,6.050 ZM11.029,9.369 C10.934,9.466 10.866,9.583 10.824,9.714 C10.784,9.844 10.775,9.984 10.797,10.119 L11.370,13.603 L8.379,11.957 C8.263,11.895 8.134,11.861 8.002,11.861 C7.871,11.861 7.741,11.895 7.625,11.957 L4.635,13.603 L5.206,10.119 C5.228,9.984 5.219,9.844 5.178,9.714 C5.137,9.583 5.066,9.464 4.973,9.369 L2.552,6.900 L5.895,6.392 C6.025,6.371 6.147,6.320 6.255,6.239 C6.361,6.158 6.447,6.052 6.505,5.928 L8.000,2.761 L9.495,5.932 C9.553,6.056 9.640,6.162 9.745,6.243 C9.851,6.324 9.973,6.376 10.105,6.396 L13.449,6.905 L11.029,9.369 Z"/>
</svg>
