<svg 
 xmlns="http://www.w3.org/2000/svg"
 xmlns:xlink="http://www.w3.org/1999/xlink"
 width="14px" height="16px">
<path fill-rule="evenodd"  fill="rgb(255, 255, 255)"
 d="M13.909,14.417 L8.075,0.703 C7.896,0.277 7.470,-0.000 7.000,-0.000 C6.529,-0.000 6.103,0.277 5.923,0.703 L0.090,14.417 C-0.158,15.000 0.123,15.669 0.718,15.911 C1.315,16.155 1.997,15.878 2.243,15.296 L3.403,12.571 L10.597,12.571 L11.756,15.296 C11.942,15.735 12.377,16.000 12.834,16.000 C12.983,16.000 13.135,15.971 13.282,15.911 C13.876,15.667 14.157,14.999 13.909,14.417 L13.909,14.417 ZM4.341,10.285 L7.000,4.114 L9.625,10.285 L4.341,10.285 Z"/>
</svg>
