<svg 
 xmlns="http://www.w3.org/2000/svg"
 xmlns:xlink="http://www.w3.org/1999/xlink"
 width="18px" height="18px">
<path fill-rule="evenodd"  fill="rgb(163, 163, 166)"
 d="M8.999,-0.000 C13.970,-0.000 17.999,4.029 17.999,9.000 C17.999,13.970 13.970,18.000 8.999,18.000 C4.028,18.000 -0.001,13.970 -0.001,9.000 C-0.001,4.029 4.028,-0.000 8.999,-0.000 Z"/>
<path fill-rule="evenodd"  fill="rgb(255, 255, 255)"
 d="M7.743,10.715 L9.844,10.715 C9.668,8.718 11.986,8.098 11.986,5.996 C11.986,3.893 10.671,3.000 8.990,3.000 C7.770,3.000 6.740,3.636 5.993,4.589 L7.323,5.950 C7.743,5.481 8.136,5.163 8.692,5.163 C9.248,5.163 9.668,5.511 9.668,6.177 C9.668,7.418 7.418,8.386 7.743,10.715 ZM8.787,15.011 C9.613,15.011 10.224,14.270 10.224,13.332 C10.224,12.410 9.613,11.668 8.787,11.668 C7.946,11.668 7.350,12.410 7.350,13.332 C7.350,14.270 7.946,15.011 8.787,15.011 Z"/>
</svg>
