<svg 
 xmlns="http://www.w3.org/2000/svg"
 xmlns:xlink="http://www.w3.org/1999/xlink"
 width="15px" height="15px">
<path fill-rule="evenodd"  fill="rgb(0, 0, 0)"
 d="M12.856,15.000 L2.142,15.000 C0.959,15.000 -0.001,14.040 -0.001,12.857 L-0.001,2.143 C-0.001,0.959 0.959,-0.000 2.142,-0.000 L12.856,-0.000 C14.040,-0.000 14.999,0.959 14.999,2.143 L14.999,12.857 C14.999,14.040 14.040,15.000 12.856,15.000 ZM4.999,3.000 C4.999,2.448 4.552,2.000 3.999,2.000 C3.447,2.000 2.999,2.448 2.999,3.000 L2.999,12.000 C2.999,12.552 3.447,13.000 3.999,13.000 C4.552,13.000 4.999,12.552 4.999,12.000 L4.999,3.000 ZM11.999,5.000 L8.999,4.000 L8.999,2.000 L6.999,2.000 L6.999,5.000 L9.999,6.000 L9.999,9.000 L6.999,10.000 L6.999,13.000 L8.999,13.000 L8.999,11.000 L11.999,10.000 L11.999,5.000 Z"/>
</svg>
