<svg 
 xmlns="http://www.w3.org/2000/svg"
 xmlns:xlink="http://www.w3.org/1999/xlink"
 width="15px" height="15px">
<path fill-rule="evenodd"  fill="rgb(0, 0, 0)"
 d="M14.249,14.784 L0.749,14.784 C0.336,14.784 -0.001,14.451 -0.001,14.045 L-0.001,5.914 C-0.001,5.470 0.374,5.174 0.749,5.174 C0.899,5.174 1.049,5.211 1.161,5.322 L2.399,6.209 C2.549,6.320 2.699,6.357 2.849,6.357 C3.074,6.357 3.299,6.283 3.449,6.098 L6.807,1.961 C6.549,1.758 6.374,1.459 6.374,1.109 C6.374,0.496 6.878,-0.000 7.499,-0.000 C8.121,-0.000 8.624,0.496 8.624,1.109 C8.624,1.461 8.447,1.761 8.187,1.964 L11.512,6.098 C11.661,6.246 11.886,6.357 12.112,6.357 C12.262,6.357 12.412,6.320 12.562,6.209 L13.799,5.322 C13.949,5.211 14.099,5.174 14.249,5.174 C14.624,5.174 14.999,5.470 14.999,5.914 L14.999,14.045 C14.999,14.451 14.662,14.784 14.249,14.784 ZM13.536,7.392 L13.499,7.392 C13.086,7.688 12.637,7.835 12.149,7.835 C11.436,7.835 10.799,7.540 10.387,7.022 L7.499,3.474 L4.649,7.022 C4.199,7.540 3.561,7.835 2.887,7.835 C2.399,7.835 1.912,7.688 1.536,7.392 L1.499,7.392 L1.499,10.349 L13.499,10.349 L13.499,11.827 L1.499,11.827 L1.499,13.305 L13.536,13.305 L13.536,7.392 ZM7.499,9.240 C7.086,9.240 6.749,8.907 6.749,8.501 L6.749,7.022 C6.749,6.616 7.086,6.283 7.499,6.283 C7.911,6.283 8.249,6.616 8.249,7.022 L8.249,8.501 C8.249,8.907 7.911,9.240 7.499,9.240 Z"/>
</svg>
