<svg 
 xmlns="http://www.w3.org/2000/svg"
 xmlns:xlink="http://www.w3.org/1999/xlink"
 width="15px" height="15px">
<path fill-rule="evenodd"  fill="rgb(0, 0, 0)"
 d="M2.142,-0.000 L12.856,-0.000 C14.040,-0.000 14.999,0.959 14.999,2.143 L14.999,12.857 C14.999,14.040 14.040,15.000 12.856,15.000 L2.142,15.000 C0.959,15.000 -0.001,14.040 -0.001,12.857 L-0.001,2.143 C-0.001,0.959 0.959,-0.000 2.142,-0.000 L2.142,-0.000 ZM3.749,2.813 C3.231,2.813 2.812,3.232 2.812,3.750 C2.812,4.268 3.231,4.687 3.749,4.687 C4.267,4.687 4.687,4.268 4.687,3.750 C4.687,3.232 4.267,2.813 3.749,2.813 L3.749,2.813 ZM7.499,2.813 C6.981,2.813 6.562,3.232 6.562,3.750 C6.562,4.268 6.981,4.687 7.499,4.687 C8.017,4.687 8.437,4.268 8.437,3.750 C8.437,3.232 8.017,2.813 7.499,2.813 L7.499,2.813 ZM11.249,2.813 C10.731,2.813 10.312,3.232 10.312,3.750 C10.312,4.268 10.731,4.687 11.249,4.687 C11.767,4.687 12.187,4.268 12.187,3.750 C12.187,3.232 11.767,2.813 11.249,2.813 L11.249,2.813 ZM3.749,6.562 C3.231,6.562 2.812,6.982 2.812,7.500 C2.812,8.018 3.231,8.438 3.749,8.438 L11.249,8.438 C11.767,8.438 12.187,8.018 12.187,7.500 C12.187,6.982 11.767,6.562 11.249,6.562 L3.749,6.562 ZM3.749,10.312 C3.231,10.312 2.812,10.732 2.812,11.250 C2.812,11.768 3.231,12.188 3.749,12.188 L9.374,12.188 C9.892,12.188 10.312,11.768 10.312,11.250 C10.312,10.732 9.892,10.312 9.374,10.312 L3.749,10.312 Z"/>
</svg>
