<svg 
 xmlns="http://www.w3.org/2000/svg"
 xmlns:xlink="http://www.w3.org/1999/xlink"
 width="15px" height="15px">
<path fill-rule="evenodd"  fill="rgb(255, 255, 255)"
 d="M12.856,15.000 L2.142,15.000 C0.959,15.000 -0.000,14.040 -0.000,12.857 L-0.000,2.143 C-0.000,0.959 0.959,-0.000 2.142,-0.000 L12.856,-0.000 C14.040,-0.000 14.999,0.959 14.999,2.143 L14.999,12.857 C14.999,14.040 14.040,15.000 12.856,15.000 ZM5.000,3.000 C5.000,2.448 4.552,2.000 4.000,2.000 C3.447,2.000 3.000,2.448 3.000,3.000 L3.000,12.000 C3.000,12.552 3.447,13.000 4.000,13.000 C4.552,13.000 5.000,12.552 5.000,12.000 L5.000,3.000 ZM12.000,5.000 L9.000,4.000 L9.000,2.000 L7.000,2.000 L7.000,5.000 L10.000,6.000 L10.000,9.000 L7.000,10.000 L7.000,13.000 L9.000,13.000 L9.000,11.000 L12.000,10.000 L12.000,5.000 Z"/>
</svg>
