<svg 
 xmlns="http://www.w3.org/2000/svg"
 xmlns:xlink="http://www.w3.org/1999/xlink"
 width="16px" height="13px">
<path fill-rule="evenodd"  fill="rgb(255, 255, 255)"
 d="M5.987,11.246 L10.013,11.246 C10.122,11.246 10.228,11.288 10.305,11.362 C10.383,11.437 10.426,11.538 10.426,11.643 L10.426,12.599 C10.426,12.819 10.242,12.998 10.013,13.000 L5.987,13.000 C5.758,12.998 5.573,12.819 5.573,12.599 L5.573,11.643 C5.573,11.538 5.617,11.437 5.695,11.362 C5.772,11.288 5.877,11.246 5.987,11.246 L5.987,11.246 ZM2.876,4.260 L3.280,4.486 C3.409,4.560 3.453,4.719 3.378,4.844 L3.134,5.271 C3.057,5.395 2.890,5.437 2.760,5.365 L2.356,5.143 C1.561,6.765 1.561,8.643 2.356,10.264 L3.138,9.838 C3.268,9.766 3.435,9.808 3.511,9.932 L3.760,10.358 C3.797,10.419 3.807,10.491 3.787,10.558 C3.768,10.626 3.722,10.683 3.658,10.717 L2.880,11.144 L1.836,11.703 C1.489,11.907 1.250,11.805 1.112,11.587 C-0.868,8.367 -0.146,4.246 2.822,1.826 C5.791,-0.594 10.142,-0.610 13.130,1.788 C16.118,4.186 16.873,8.302 14.919,11.536 C14.851,11.660 14.729,11.749 14.587,11.781 C14.445,11.813 14.295,11.784 14.177,11.703 L13.111,11.109 L12.333,10.683 C12.269,10.649 12.222,10.591 12.203,10.524 C12.184,10.457 12.194,10.385 12.230,10.324 L12.479,9.897 C12.556,9.774 12.722,9.732 12.852,9.803 L13.635,10.230 C14.027,9.429 14.229,8.555 14.226,7.670 C14.229,6.784 14.025,5.909 13.630,5.109 L13.230,5.331 C13.100,5.403 12.934,5.361 12.857,5.237 L12.608,4.810 C12.572,4.750 12.562,4.678 12.581,4.611 C12.600,4.543 12.647,4.486 12.711,4.452 L13.111,4.230 C12.053,2.759 10.366,1.819 8.511,1.669 L8.511,2.523 C8.511,2.669 8.388,2.788 8.235,2.788 L7.746,2.788 C7.594,2.788 7.471,2.669 7.471,2.523 L7.471,1.669 C5.615,1.818 3.925,2.758 2.867,4.230 L2.876,4.260 ZM8.293,6.035 L10.578,3.407 C10.729,3.203 11.025,3.156 11.237,3.302 C11.449,3.448 11.498,3.732 11.346,3.935 L9.471,6.863 C9.603,7.096 9.672,7.357 9.671,7.623 C9.668,8.511 8.916,9.230 7.991,9.227 C7.066,9.225 6.318,8.503 6.320,7.614 C6.322,6.726 7.075,6.007 8.000,6.010 C8.098,6.010 8.196,6.018 8.293,6.035 L8.293,6.035 ZM7.471,7.115 C7.257,7.115 7.063,7.239 6.982,7.429 C6.901,7.620 6.947,7.839 7.099,7.983 C7.251,8.128 7.479,8.171 7.676,8.091 C7.874,8.011 8.002,7.824 8.000,7.619 C8.000,7.340 7.765,7.115 7.475,7.115 L7.471,7.115 Z"/>
</svg>
