<svg 
 xmlns="http://www.w3.org/2000/svg"
 xmlns:xlink="http://www.w3.org/1999/xlink"
 width="16px" height="16px">
<path fill-rule="evenodd"  fill="rgb(0, 0, 0)"
 d="M7.999,16.000 C3.581,16.000 -0.001,12.418 -0.001,8.000 C-0.001,3.582 3.581,-0.000 7.999,-0.000 C12.417,-0.000 15.999,3.582 15.999,8.000 C15.999,12.418 12.417,16.000 7.999,16.000 ZM7.999,1.000 C4.133,1.000 0.999,4.134 0.999,8.000 C0.999,11.866 4.133,15.000 7.999,15.000 C11.865,15.000 14.999,11.866 14.999,8.000 C14.999,4.134 11.865,1.000 7.999,1.000 ZM10.707,11.002 C9.318,11.002 8.397,9.971 8.397,7.981 C8.397,5.982 9.318,5.007 10.707,5.007 C12.088,5.007 13.008,5.990 13.008,7.981 C13.008,9.971 12.088,11.002 10.707,11.002 ZM10.707,5.897 C10.119,5.897 9.676,6.365 9.676,7.981 C9.676,9.604 10.119,10.104 10.707,10.104 C11.287,10.104 11.729,9.604 11.729,7.981 C11.729,6.365 11.287,5.897 10.707,5.897 ZM7.566,9.456 C7.566,10.330 6.655,11.002 5.275,11.002 C3.977,11.002 3.001,10.361 3.001,9.456 C3.001,8.714 3.535,8.238 4.170,7.949 L4.170,7.910 C3.645,7.590 3.268,7.153 3.268,6.537 C3.268,5.608 4.133,5.014 5.321,5.014 C6.526,5.014 7.299,5.631 7.299,6.552 C7.299,7.122 6.876,7.598 6.425,7.871 L6.425,7.910 C7.051,8.199 7.566,8.668 7.566,9.456 ZM5.293,5.818 C4.833,5.818 4.465,6.076 4.465,6.537 C4.465,7.083 4.989,7.348 5.707,7.590 C6.038,7.294 6.194,6.966 6.194,6.622 C6.194,6.154 5.863,5.818 5.293,5.818 ZM4.796,8.262 C4.428,8.512 4.170,8.902 4.170,9.331 C4.170,9.854 4.676,10.190 5.311,10.190 C5.882,10.190 6.305,9.917 6.305,9.417 C6.305,8.816 5.679,8.566 4.796,8.262 Z"/>
</svg>
