<svg 
 xmlns="http://www.w3.org/2000/svg"
 xmlns:xlink="http://www.w3.org/1999/xlink"
 width="15px" height="12px">
<path fill-rule="evenodd"  fill="rgb(0, 0, 0)"
 d="M13.420,6.462 L1.578,6.462 C0.710,6.462 -0.001,5.735 -0.001,4.847 L-0.001,1.615 C-0.001,0.727 0.710,-0.000 1.578,-0.000 L13.420,-0.000 C14.289,-0.000 14.999,0.727 14.999,1.615 L14.999,4.847 C14.999,5.735 14.289,6.462 13.420,6.462 ZM4.368,1.383 C4.185,1.315 3.961,1.354 3.848,1.481 C3.750,1.607 3.806,1.763 3.989,1.841 C4.242,1.949 4.424,2.124 4.494,2.329 C4.550,2.572 4.354,2.846 3.933,3.138 C3.553,3.392 3.315,3.733 3.287,4.103 C3.301,4.464 3.539,4.805 3.933,5.039 C4.003,5.088 4.101,5.117 4.199,5.117 L4.227,5.127 C4.326,5.117 4.410,5.098 4.480,5.049 C4.634,4.942 4.649,4.766 4.494,4.659 C4.256,4.522 4.115,4.327 4.073,4.113 C4.101,3.888 4.242,3.684 4.466,3.528 C5.070,3.099 5.337,2.679 5.252,2.261 C5.154,1.900 4.831,1.578 4.368,1.383 ZM7.597,1.383 C7.400,1.305 7.176,1.354 7.063,1.481 C6.965,1.607 7.021,1.763 7.204,1.841 C7.457,1.949 7.639,2.124 7.709,2.329 C7.765,2.572 7.569,2.846 7.148,3.138 C6.768,3.392 6.530,3.733 6.502,4.103 C6.516,4.464 6.754,4.805 7.148,5.039 C7.218,5.088 7.316,5.117 7.414,5.117 C7.512,5.117 7.597,5.088 7.667,5.049 C7.835,4.942 7.850,4.776 7.709,4.659 C7.471,4.522 7.330,4.327 7.302,4.113 C7.330,3.888 7.471,3.684 7.695,3.528 C8.299,3.099 8.566,2.679 8.481,2.261 C8.383,1.900 8.060,1.578 7.597,1.383 ZM10.812,1.373 C10.616,1.295 10.391,1.344 10.279,1.470 C10.167,1.607 10.236,1.763 10.419,1.841 C10.672,1.948 10.854,2.124 10.924,2.328 C10.966,2.572 10.770,2.845 10.349,3.138 C9.970,3.391 9.731,3.732 9.703,4.103 C9.717,4.463 9.956,4.805 10.349,5.039 C10.419,5.088 10.517,5.117 10.616,5.117 L10.629,5.127 C10.742,5.127 10.840,5.097 10.910,5.039 C11.065,4.932 11.065,4.766 10.910,4.659 C10.672,4.522 10.531,4.327 10.517,4.103 C10.545,3.879 10.686,3.674 10.910,3.518 C11.514,3.089 11.781,2.670 11.696,2.250 C11.598,1.890 11.275,1.568 10.812,1.373 ZM3.708,8.306 C3.476,8.069 3.476,7.712 3.708,7.475 C3.824,7.356 3.940,7.297 4.114,7.297 C4.230,7.297 4.404,7.356 4.519,7.475 C5.911,8.840 9.053,8.840 10.445,7.475 C10.677,7.238 11.025,7.238 11.257,7.475 C11.488,7.712 11.488,8.069 11.257,8.306 C9.459,10.145 5.506,10.145 3.708,8.306 ZM2.374,9.077 C2.490,9.077 2.664,9.137 2.722,9.255 C5.100,11.450 9.865,11.450 12.184,9.255 C12.417,9.018 12.822,9.018 13.054,9.255 C13.239,9.508 13.214,9.862 12.996,10.086 C10.270,12.637 4.809,12.637 2.026,10.086 C1.794,9.849 1.736,9.492 1.968,9.255 C2.084,9.136 2.200,9.077 2.374,9.077 Z"/>
</svg>
