<svg 
 xmlns="http://www.w3.org/2000/svg"
 xmlns:xlink="http://www.w3.org/1999/xlink"
 width="15px" height="12px">
<path fill-rule="evenodd"  fill="rgb(201, 201, 210)"
 d="M14.996,7.482 C14.996,7.578 14.961,7.663 14.914,7.739 C14.728,9.279 14.058,10.726 12.941,11.827 C12.817,11.968 12.625,12.029 12.443,11.983 C12.422,11.978 12.409,11.960 12.389,11.953 C12.299,11.933 12.211,11.897 12.141,11.827 L11.640,11.328 C11.444,11.132 11.444,10.815 11.640,10.620 C11.836,10.424 12.154,10.424 12.351,10.620 L12.517,10.786 C13.219,9.983 13.700,9.022 13.890,7.981 L13.496,7.981 C13.219,7.981 12.996,7.757 12.996,7.482 C12.996,7.206 13.219,6.983 13.496,6.983 L13.990,6.983 C13.990,6.964 13.996,6.946 13.996,6.928 C13.996,5.470 13.452,4.152 12.584,3.113 L12.351,3.346 C12.154,3.541 11.836,3.541 11.640,3.346 C11.444,3.150 11.444,2.833 11.640,2.637 L11.879,2.399 C10.950,1.606 9.785,1.099 8.494,0.992 C8.494,0.993 8.495,0.994 8.495,0.996 L8.495,1.994 C8.495,2.269 8.272,2.493 7.995,2.493 C7.718,2.493 7.495,2.269 7.495,1.994 L7.495,0.996 C7.495,0.994 7.496,0.993 7.496,0.991 C6.206,1.099 5.040,1.606 4.112,2.399 L4.351,2.637 C4.548,2.833 4.548,3.150 4.351,3.346 C4.154,3.541 3.837,3.541 3.641,3.346 L3.407,3.113 C2.539,4.151 1.995,5.470 1.995,6.928 C1.995,6.946 2.001,6.964 2.001,6.983 L2.496,6.983 C2.771,6.983 2.995,7.206 2.995,7.482 C2.995,7.757 2.771,7.981 2.496,7.981 L2.101,7.981 C2.291,9.022 2.772,9.983 3.474,10.786 L3.641,10.620 C3.837,10.424 4.154,10.424 4.351,10.620 C4.548,10.815 4.548,11.132 4.351,11.328 L3.850,11.827 C3.736,11.940 3.583,11.980 3.435,11.962 C3.421,11.963 3.409,11.970 3.395,11.970 C3.262,11.970 3.134,11.916 3.041,11.822 C1.906,10.695 1.242,9.239 1.063,7.719 C1.023,7.647 0.995,7.569 0.995,7.482 C0.995,7.439 1.009,7.401 1.019,7.362 C0.951,6.319 1.113,5.254 1.535,4.248 C2.622,1.653 5.176,-0.027 7.995,-0.001 C11.840,-0.002 14.966,3.092 14.996,6.928 C14.995,7.053 14.965,7.173 14.958,7.297 C14.981,7.355 14.996,7.416 14.996,7.482 ZM8.576,5.556 L9.075,5.421 C9.471,5.321 9.891,5.222 10.311,5.127 L10.715,5.032 L10.876,4.997 C11.082,4.951 11.295,5.040 11.407,5.220 C11.520,5.399 11.507,5.630 11.375,5.796 C11.375,5.821 11.325,5.865 11.276,5.920 L11.010,6.249 C10.731,6.589 10.451,6.928 10.181,7.247 L10.060,7.387 C9.673,7.891 9.231,8.349 8.741,8.754 C8.394,8.971 7.970,9.030 7.577,8.918 C7.182,8.806 6.855,8.532 6.675,8.165 C6.281,7.419 6.514,6.496 7.215,6.025 C7.648,5.815 8.104,5.658 8.576,5.556 ZM7.571,7.701 C7.620,7.821 7.720,7.915 7.843,7.955 C7.968,7.995 8.104,7.979 8.215,7.911 C8.610,7.549 8.976,7.157 9.309,6.738 L9.430,6.604 L9.680,6.304 L9.335,6.389 L8.836,6.524 C8.469,6.610 8.110,6.725 7.760,6.868 C7.499,7.060 7.418,7.415 7.571,7.701 Z"/>
</svg>
