<svg 
 xmlns="http://www.w3.org/2000/svg"
 xmlns:xlink="http://www.w3.org/1999/xlink"
 width="17px" height="18px">
<path fill-rule="evenodd"  fill="rgb(255, 210, 0)"
 d="M15.499,17.057 L1.165,17.057 C0.613,17.057 0.165,16.610 0.165,16.057 L0.165,12.253 C0.165,11.700 0.613,11.253 1.165,11.253 L15.499,11.253 C16.051,11.253 16.499,11.700 16.499,12.253 L16.499,16.057 C16.499,16.610 16.051,17.057 15.499,17.057 ZM9.666,8.931 L1.165,8.931 C0.613,8.931 0.165,8.483 0.165,7.931 L0.165,6.448 C0.165,5.896 0.613,5.448 1.165,5.448 L9.666,5.448 C10.218,5.448 10.665,5.896 10.665,6.448 L10.665,7.931 C10.665,8.483 10.218,8.931 9.666,8.931 ZM3.832,3.126 L1.165,3.126 C0.613,3.126 0.165,2.678 0.165,2.126 L0.165,1.804 C0.165,1.252 0.613,0.805 1.165,0.805 L3.832,0.805 C4.384,0.805 4.832,1.252 4.832,1.804 L4.832,2.126 C4.832,2.678 4.384,3.126 3.832,3.126 Z"/>
</svg>
