<svg 
 xmlns="http://www.w3.org/2000/svg"
 xmlns:xlink="http://www.w3.org/1999/xlink"
 width="14px" height="14px">
<path fill-rule="evenodd"  fill="rgb(201, 201, 210)"
 d="M10.996,13.999 L2.996,13.999 C1.338,13.999 -0.003,12.656 -0.003,10.999 L-0.003,2.999 C-0.003,1.342 1.338,-0.002 2.996,-0.002 L10.996,-0.002 C12.653,-0.002 13.995,1.342 13.995,2.999 L13.995,10.999 C13.995,12.656 12.653,13.999 10.996,13.999 ZM12.996,2.999 C12.996,1.894 12.100,0.999 10.996,0.999 L2.996,0.999 C1.892,0.999 0.995,1.894 0.995,2.999 L0.995,10.999 C0.995,12.103 1.892,12.999 2.996,12.999 L10.996,12.999 C12.100,12.999 12.996,12.103 12.996,10.999 L12.996,2.999 ZM9.996,8.998 L10.996,8.998 L10.996,10.999 L9.996,10.999 L9.996,8.998 ZM9.996,5.999 L10.996,5.999 L10.996,7.999 L9.996,7.999 L9.996,5.999 ZM9.996,2.999 L10.996,2.999 L10.996,4.999 L9.996,4.999 L9.996,2.999 ZM5.997,9.999 L7.996,9.999 L7.996,10.999 L5.997,10.999 L5.997,9.999 ZM5.997,2.999 L7.996,2.999 L7.996,3.999 L5.997,3.999 L5.997,2.999 ZM2.996,8.998 L3.996,8.998 L3.996,10.999 L2.996,10.999 L2.996,8.998 ZM2.996,5.999 L3.996,5.999 L3.996,7.999 L2.996,7.999 L2.996,5.999 ZM2.996,2.999 L3.996,2.999 L3.996,4.999 L2.996,4.999 L2.996,2.999 Z"/>
</svg>
