<svg 
 xmlns="http://www.w3.org/2000/svg"
 xmlns:xlink="http://www.w3.org/1999/xlink"
 width="15px" height="15px">
<path fill-rule="evenodd"  fill="rgb(255, 255, 255)"
 d="M12.000,15.000 L3.000,15.000 C1.343,15.000 -0.000,13.657 -0.000,12.000 L-0.000,3.000 C-0.000,1.343 1.343,-0.000 3.000,-0.000 L12.000,-0.000 C13.657,-0.000 15.000,1.343 15.000,3.000 L15.000,12.000 C15.000,13.657 13.657,15.000 12.000,15.000 ZM13.916,3.084 C13.916,1.979 13.020,1.084 11.916,1.084 L3.084,1.084 C1.979,1.084 1.084,1.979 1.084,3.084 L1.084,11.916 C1.084,13.020 1.979,13.916 3.084,13.916 L11.916,13.916 C13.020,13.916 13.916,13.020 13.916,11.916 L13.916,3.084 ZM10.722,9.639 L11.777,9.639 L11.777,11.777 L10.722,11.777 L10.722,9.639 ZM10.722,6.416 L11.777,6.416 L11.777,8.584 L10.722,8.584 L10.722,6.416 ZM10.722,3.223 L11.777,3.223 L11.777,5.361 L10.722,5.361 L10.722,3.223 ZM6.416,10.722 L8.584,10.722 L8.584,11.777 L6.416,11.777 L6.416,10.722 ZM6.416,3.223 L8.584,3.223 L8.584,4.277 L6.416,4.277 L6.416,3.223 ZM3.222,9.639 L4.277,9.639 L4.277,11.777 L3.222,11.777 L3.222,9.639 ZM3.222,6.416 L4.277,6.416 L4.277,8.584 L3.222,8.584 L3.222,6.416 ZM3.222,3.223 L4.277,3.223 L4.277,5.361 L3.222,5.361 L3.222,3.223 Z"/>
</svg>
