<svg 
 xmlns="http://www.w3.org/2000/svg"
 xmlns:xlink="http://www.w3.org/1999/xlink"
 width="18px" height="18px">
<path fill-rule="evenodd"  fill="rgb(255, 210, 0)"
 d="M14.018,9.783 L14.018,8.166 L8.180,13.976 L9.805,13.976 L14.018,9.783 ZM14.018,10.667 L10.692,13.976 L14.018,13.976 L14.018,10.667 ZM14.018,7.283 L14.018,4.416 L4.412,13.976 L7.291,13.976 L14.018,7.283 ZM13.575,3.974 L11.320,3.974 L3.967,11.292 L3.967,13.533 L13.575,3.974 ZM10.433,3.974 L8.180,3.974 L3.967,8.166 L3.967,10.408 L10.433,3.974 ZM7.291,3.974 L3.967,3.974 L3.967,7.283 L7.291,3.974 ZM3.336,1.473 L1.455,1.473 L1.455,3.349 L3.336,3.349 L3.336,1.473 ZM3.967,1.473 L3.967,3.349 L14.018,3.349 L14.018,1.473 L3.967,1.473 ZM14.646,1.473 L14.646,3.349 L16.530,3.349 L16.530,1.473 L14.646,1.473 ZM16.530,3.974 L14.646,3.974 L14.646,13.976 L16.530,13.976 L16.530,3.974 ZM16.530,14.601 L14.646,14.601 L14.646,16.476 L16.530,16.476 L16.530,14.601 ZM14.018,16.476 L14.018,14.601 L3.967,14.601 L3.967,16.476 L14.018,16.476 ZM3.336,16.476 L3.336,14.601 L1.455,14.601 L1.455,16.476 L3.336,16.476 ZM1.455,13.976 L3.336,13.976 L3.336,3.974 L1.455,3.974 L1.455,13.976 ZM1.455,0.848 L16.530,0.848 C16.879,0.848 17.159,1.128 17.159,1.473 L17.159,16.476 C17.159,16.821 16.879,17.101 16.530,17.101 L1.455,17.101 C1.107,17.101 0.826,16.821 0.826,16.476 L0.826,1.473 C0.826,1.128 1.107,0.848 1.455,0.848 L1.455,0.848 ZM7.107,2.099 L11.505,2.099 L11.505,2.724 L7.107,2.724 L7.107,2.099 ZM7.107,15.226 L11.505,15.226 L11.505,15.851 L7.107,15.851 L7.107,15.226 ZM2.082,7.099 L2.710,7.099 L2.710,11.475 L2.082,11.475 L2.082,7.099 ZM15.275,7.099 L15.903,7.099 L15.903,11.475 L15.275,11.475 L15.275,7.099 Z"/>
</svg>
