<svg 
 xmlns="http://www.w3.org/2000/svg"
 xmlns:xlink="http://www.w3.org/1999/xlink"
 width="15px" height="9px">
<path fill-rule="evenodd"  fill="rgb(255, 255, 255)"
 d="M-0.000,2.647 L1.053,2.647 L1.053,7.094 C0.684,7.306 0.316,7.518 -0.000,7.782 L-0.000,9.000 L0.684,9.000 C2.526,7.412 4.895,6.459 7.368,6.459 C9.842,6.459 12.211,7.412 14.053,9.000 L14.737,9.000 L14.737,7.729 C14.421,7.465 14.053,7.253 13.684,7.041 L13.684,2.647 L15.000,2.647 L15.000,1.588 L-0.000,1.588 L-0.000,2.647 ZM11.053,2.647 L12.632,2.647 L12.632,6.565 C12.105,6.353 11.579,6.141 11.053,5.982 L11.053,2.647 ZM7.895,2.647 L10.000,2.647 L10.000,5.718 C9.316,5.559 8.579,5.453 7.895,5.453 L7.895,2.647 ZM4.737,2.647 L6.842,2.647 L6.842,5.453 C6.158,5.506 5.421,5.559 4.737,5.718 L4.737,2.647 ZM2.105,2.647 L3.684,2.647 L3.684,5.982 C3.158,6.141 2.632,6.353 2.105,6.565 L2.105,2.647 ZM-0.000,-0.000 L-0.000,1.059 L15.000,1.059 L15.000,-0.000 L-0.000,-0.000 Z"/>
</svg>
