<svg 
 xmlns="http://www.w3.org/2000/svg"
 xmlns:xlink="http://www.w3.org/1999/xlink"
 width="15px" height="14px">
<path fill-rule="evenodd"  fill="rgb(255, 255, 255)"
 d="M8.517,8.036 L5.413,5.948 L7.542,0.791 C7.614,0.616 7.597,0.415 7.496,0.255 C7.386,0.090 7.201,-0.006 7.005,-0.002 L0.572,-0.002 C0.255,-0.002 -0.004,0.259 -0.004,0.581 L-0.004,13.414 C-0.004,13.737 0.255,13.998 0.572,13.998 L6.394,13.998 C6.642,13.999 6.863,13.839 6.941,13.601 L8.747,8.707 C8.829,8.457 8.734,8.181 8.517,8.036 L8.517,8.036 ZM5.978,12.831 L1.150,12.831 L1.150,1.164 L6.174,1.164 L4.178,5.971 C4.085,6.224 4.176,6.509 4.398,6.660 L7.496,8.748 L5.978,12.831 ZM14.419,-0.002 L8.852,-0.002 C8.610,-0.003 8.394,0.149 8.309,0.377 L6.272,5.283 C6.179,5.536 6.270,5.821 6.492,5.971 L9.567,8.042 L7.669,13.228 C7.611,13.406 7.641,13.601 7.749,13.753 C7.857,13.906 8.031,13.997 8.217,13.998 L14.419,13.998 C14.738,13.998 14.995,13.737 14.995,13.414 L14.995,0.581 C14.995,0.259 14.738,-0.002 14.419,-0.002 L14.419,-0.002 ZM13.841,12.831 L9.019,12.831 L10.806,7.990 C10.890,7.740 10.799,7.466 10.582,7.319 L7.524,5.248 L9.255,1.164 L13.870,1.164 L13.841,12.831 Z"/>
</svg>
