<svg 
 xmlns="http://www.w3.org/2000/svg"
 xmlns:xlink="http://www.w3.org/1999/xlink"
 width="14px" height="14px">
<path fill-rule="evenodd"  fill="rgb(51, 51, 51)"
 d="M10.992,13.998 L2.993,13.998 C1.336,13.998 -0.007,12.655 -0.007,10.999 L-0.007,2.998 C-0.007,1.341 1.336,-0.002 2.993,-0.002 L10.992,-0.002 C12.650,-0.002 13.994,1.341 13.994,2.998 L13.994,10.999 C13.994,12.655 12.650,13.998 10.992,13.998 ZM12.993,2.998 C12.993,1.893 12.097,0.998 10.992,0.998 L2.993,0.998 C1.888,0.998 0.994,1.893 0.994,2.998 L0.994,10.999 C0.994,12.103 1.888,12.998 2.993,12.998 L10.992,12.998 C12.097,12.998 12.993,12.103 12.993,10.999 L12.993,2.998 ZM9.994,5.998 L10.994,5.998 L10.994,7.998 L9.994,7.998 L9.994,5.998 ZM9.993,2.998 L10.992,2.998 L10.992,4.998 L9.993,4.998 L9.993,2.998 ZM5.994,9.998 L7.994,9.998 L7.994,10.999 L5.994,10.999 L5.994,9.998 ZM5.994,2.998 L7.994,2.998 L7.994,3.998 L5.994,3.998 L5.994,2.998 ZM2.993,8.998 L3.993,8.998 L3.993,10.999 L2.993,10.999 L2.993,8.998 ZM2.995,5.998 L3.993,5.998 L3.993,7.998 L2.995,7.998 L2.995,5.998 ZM2.993,2.998 L3.993,2.998 L3.993,4.998 L2.993,4.998 L2.993,2.998 ZM10.992,10.999 L9.993,10.999 L9.993,8.998 L10.992,8.998 L10.992,10.999 Z"/>
</svg>
