<svg 
 xmlns="http://www.w3.org/2000/svg"
 xmlns:xlink="http://www.w3.org/1999/xlink"
 width="18px" height="18px">
<path fill-rule="evenodd"  fill="rgb(255, 108, 0)"
 d="M14.832,17.172 L14.832,16.011 L17.166,16.011 L17.166,17.172 L14.832,17.172 ZM13.659,14.849 L4.324,14.849 C2.391,14.849 0.825,13.288 0.825,11.366 L0.826,9.044 L1.991,9.052 L1.991,11.366 C1.991,12.648 3.036,13.688 4.324,13.688 L13.659,13.688 C14.947,13.688 15.991,12.648 15.991,11.366 L15.993,9.044 L17.159,9.044 L17.159,11.366 C17.159,13.288 15.590,14.849 13.659,14.849 ZM9.540,12.350 C9.389,12.489 9.184,12.535 8.988,12.510 C8.794,12.533 8.593,12.486 8.446,12.348 L5.683,9.789 C5.428,9.554 5.428,9.171 5.683,8.936 C5.936,8.700 6.350,8.700 6.603,8.936 L8.307,10.514 L7.826,0.917 L10.160,0.917 L9.675,10.516 L11.381,8.936 C11.634,8.700 12.048,8.700 12.300,8.936 C12.556,9.171 12.556,9.554 12.300,9.789 L9.540,12.350 ZM3.165,17.172 L0.833,17.172 L0.833,16.011 L3.165,16.011 L3.165,17.172 ZM6.666,17.172 L4.333,17.172 L4.333,16.011 L6.666,16.011 L6.666,17.172 ZM10.166,17.172 L7.832,17.172 L7.832,16.011 L10.166,16.011 L10.166,17.172 ZM13.666,17.172 L11.332,17.172 L11.332,16.011 L13.666,16.011 L13.666,17.172 Z"/>
</svg>
