<svg 
 xmlns="http://www.w3.org/2000/svg"
 xmlns:xlink="http://www.w3.org/1999/xlink"
 width="15px" height="16px">
<path fill-rule="evenodd"  fill="rgb(51, 51, 51)"
 d="M14.314,16.000 L0.686,16.000 C0.307,16.000 -0.001,15.692 -0.001,15.314 L-0.001,15.213 C-0.001,14.834 0.307,14.526 0.686,14.526 L1.350,14.526 L1.350,11.611 L2.714,8.107 L3.219,7.832 L1.625,6.614 C1.014,6.146 0.871,5.233 1.308,4.577 L3.287,1.602 C3.722,0.944 4.576,0.792 5.189,1.260 L10.742,5.501 C11.354,5.969 11.497,6.882 11.060,7.538 L10.942,7.715 L12.943,9.419 L13.623,14.526 L14.314,14.526 C14.693,14.526 15.000,14.834 15.000,15.213 L15.000,15.314 C15.000,15.692 14.693,16.000 14.314,16.000 ZM3.800,8.275 L3.737,8.480 L2.714,10.150 L2.714,14.526 L4.760,14.526 L4.760,11.611 L6.124,10.150 L6.194,10.103 L3.800,8.275 ZM9.080,10.513 C8.644,11.170 7.791,11.324 7.179,10.855 L6.773,10.546 L6.124,11.611 L6.124,14.526 L8.852,14.526 L8.852,13.073 L8.929,11.299 L9.126,10.444 L9.080,10.513 ZM12.259,10.150 L10.410,8.515 L9.496,9.887 L10.084,11.925 L10.185,14.526 L12.259,14.526 L12.259,10.150 Z"/>
</svg>
