<svg 
 xmlns="http://www.w3.org/2000/svg"
 xmlns:xlink="http://www.w3.org/1999/xlink"
 width="18px" height="14px">
<path fill-rule="evenodd"  fill="rgb(255, 210, 0)"
 d="M17.159,8.720 C17.159,8.831 17.119,8.930 17.064,9.018 C16.847,10.806 16.066,12.486 14.762,13.764 C14.617,13.928 14.394,13.999 14.181,13.946 C14.157,13.940 14.141,13.919 14.118,13.910 C14.013,13.887 13.910,13.845 13.828,13.764 L13.244,13.184 C13.016,12.958 13.016,12.589 13.244,12.363 C13.473,12.135 13.844,12.135 14.074,12.363 L14.267,12.555 C15.087,11.623 15.648,10.507 15.869,9.299 L15.410,9.299 C15.087,9.299 14.826,9.039 14.826,8.720 C14.826,8.399 15.087,8.140 15.410,8.140 L15.986,8.140 C15.986,8.118 15.992,8.098 15.992,8.077 C15.992,6.384 15.359,4.854 14.346,3.648 L14.074,3.918 C13.844,4.145 13.473,4.145 13.244,3.918 C13.016,3.691 13.016,3.323 13.244,3.095 L13.523,2.819 C12.439,1.898 11.080,1.310 9.574,1.185 C9.574,1.187 9.575,1.188 9.575,1.190 L9.575,2.349 C9.575,2.668 9.314,2.928 8.992,2.928 C8.669,2.928 8.409,2.668 8.409,2.349 L8.409,1.190 C8.409,1.188 8.410,1.187 8.410,1.185 C6.904,1.310 5.545,1.898 4.461,2.819 L4.740,3.095 C4.970,3.323 4.970,3.691 4.740,3.918 C4.511,4.145 4.140,4.145 3.912,3.918 L3.639,3.648 C2.626,4.853 1.992,6.384 1.992,8.077 C1.992,8.098 1.998,8.118 1.999,8.140 L2.576,8.140 C2.897,8.140 3.158,8.399 3.158,8.720 C3.158,9.039 2.897,9.299 2.576,9.299 L2.115,9.299 C2.337,10.507 2.898,11.623 3.718,12.555 L3.912,12.363 C4.140,12.135 4.511,12.135 4.740,12.363 C4.970,12.589 4.970,12.958 4.740,13.184 L4.156,13.764 C4.023,13.896 3.844,13.942 3.671,13.921 C3.656,13.922 3.642,13.930 3.626,13.930 C3.471,13.930 3.321,13.867 3.213,13.758 C1.888,12.450 1.113,10.760 0.905,8.995 C0.858,8.912 0.825,8.821 0.825,8.720 C0.825,8.670 0.841,8.625 0.853,8.579 C0.775,7.368 0.964,6.133 1.455,4.966 C2.724,1.953 5.703,0.003 8.992,0.032 C13.477,0.032 17.124,3.623 17.159,8.077 C17.159,8.222 17.124,8.361 17.115,8.506 C17.142,8.572 17.159,8.644 17.159,8.720 ZM9.670,6.484 L10.252,6.327 C10.714,6.211 11.204,6.096 11.693,5.986 L12.165,5.876 L12.354,5.835 C12.593,5.781 12.843,5.884 12.973,6.093 C13.105,6.302 13.090,6.570 12.936,6.762 C12.936,6.791 12.877,6.843 12.820,6.907 L12.510,7.289 C12.184,7.683 11.857,8.077 11.542,8.447 L11.401,8.609 C10.950,9.194 10.433,9.726 9.862,10.196 C9.457,10.448 8.963,10.517 8.504,10.387 C8.044,10.256 7.661,9.939 7.452,9.513 C6.992,8.647 7.264,7.575 8.082,7.028 C8.587,6.784 9.119,6.602 9.670,6.484 ZM8.497,8.974 C8.554,9.114 8.672,9.222 8.815,9.268 C8.961,9.315 9.119,9.297 9.248,9.218 C9.710,8.797 10.136,8.342 10.526,7.856 L10.665,7.700 L10.957,7.352 L10.555,7.451 L9.972,7.608 C9.545,7.707 9.126,7.841 8.717,8.007 C8.413,8.230 8.318,8.642 8.497,8.974 Z"/>
</svg>
