<svg 
 xmlns="http://www.w3.org/2000/svg"
 xmlns:xlink="http://www.w3.org/1999/xlink"
 width="17.25px" height="16.5px">
<path fill-rule="evenodd"  fill="rgb(255, 255, 255)"
 d="M0.750,15.750 L0.750,14.750 L15.750,14.750 L15.750,15.750 L0.750,15.750 ZM12.750,12.750 L13.750,12.750 L13.750,13.750 L12.750,13.750 L12.750,12.750 ZM12.750,10.750 L13.750,10.750 L13.750,11.750 L12.750,11.750 L12.750,10.750 ZM12.750,8.750 L13.750,8.750 L13.750,9.750 L12.750,9.750 L12.750,8.750 ZM9.750,12.750 L10.750,12.750 L10.750,13.750 L9.750,13.750 L9.750,12.750 ZM9.750,10.750 L10.750,10.750 L10.750,11.750 L9.750,11.750 L9.750,10.750 ZM5.750,12.750 L6.750,12.750 L6.750,13.750 L5.750,13.750 L5.750,12.750 ZM5.750,10.750 L6.750,10.750 L6.750,11.750 L5.750,11.750 L5.750,10.750 ZM2.750,12.750 L3.750,12.750 L3.750,13.750 L2.750,13.750 L2.750,12.750 ZM2.750,10.750 L3.750,10.750 L3.750,11.750 L2.750,11.750 L2.750,10.750 ZM2.750,8.750 L3.750,8.750 L3.750,9.750 L2.750,9.750 L2.750,8.750 Z"/>
<path fill-rule="evenodd"  stroke="rgb(255, 255, 255)" stroke-width="1.5px" stroke-linecap="butt" stroke-linejoin="miter" fill="none"
 d="M8.250,0.750 C12.392,0.750 15.750,2.988 15.750,5.750 C15.750,8.511 12.392,10.750 8.250,10.750 C4.108,10.750 0.750,8.511 0.750,5.750 C0.750,2.988 4.108,0.750 8.250,0.750 Z"/>
<path fill-rule="evenodd"  stroke="rgb(255, 255, 255)" stroke-width="1px" stroke-linecap="butt" stroke-linejoin="miter" fill="none"
 d="M8.250,3.750 C10.183,3.750 11.750,4.645 11.750,5.750 C11.750,6.855 10.183,7.750 8.250,7.750 C6.317,7.750 4.750,6.855 4.750,5.750 C4.750,4.645 6.317,3.750 8.250,3.750 Z"/>
</svg>
