<svg 
 xmlns="http://www.w3.org/2000/svg"
 xmlns:xlink="http://www.w3.org/1999/xlink"
 width="18px" height="18px">
<path fill-rule="evenodd"  fill="rgb(255, 108, 0)"
 d="M14.166,17.080 L3.832,17.080 C2.175,17.080 0.833,15.737 0.833,14.080 L0.833,3.827 C0.833,2.171 2.175,0.828 3.832,0.828 L14.166,0.828 C15.823,0.828 17.166,2.171 17.166,3.827 L17.166,14.080 C17.166,15.737 15.823,17.080 14.166,17.080 ZM15.999,3.988 C15.999,2.884 15.104,1.988 13.999,1.988 L3.999,1.988 C2.894,1.988 1.999,2.884 1.999,3.988 L1.999,13.919 C1.999,15.024 2.894,15.919 3.999,15.919 L13.999,15.919 C15.104,15.919 15.999,15.024 15.999,13.919 L15.999,3.988 ZM12.499,11.276 L13.666,11.276 L13.666,13.598 L12.499,13.598 L12.499,11.276 ZM12.499,7.793 L13.666,7.793 L13.666,10.115 L12.499,10.115 L12.499,7.793 ZM12.499,4.310 L13.666,4.310 L13.666,6.632 L12.499,6.632 L12.499,4.310 ZM7.832,12.437 L10.166,12.437 L10.166,13.598 L7.832,13.598 L7.832,12.437 ZM7.832,4.310 L10.166,4.310 L10.166,5.471 L7.832,5.471 L7.832,4.310 ZM4.333,11.276 L5.499,11.276 L5.499,13.598 L4.333,13.598 L4.333,11.276 ZM4.333,7.793 L5.499,7.793 L5.499,10.115 L4.333,10.115 L4.333,7.793 ZM4.333,4.310 L5.499,4.310 L5.499,6.632 L4.333,6.632 L4.333,4.310 Z"/>
</svg>
