<svg 
 xmlns="http://www.w3.org/2000/svg"
 xmlns:xlink="http://www.w3.org/1999/xlink"
 width="15px" height="12px">
<path fill-rule="evenodd"  fill="rgb(51, 51, 51)"
 d="M14.994,7.481 C14.994,7.577 14.959,7.662 14.912,7.738 C14.727,9.278 14.057,10.726 12.938,11.826 C12.814,11.968 12.622,12.029 12.441,11.983 C12.361,11.964 12.294,11.919 12.235,11.867 C12.204,11.847 12.165,11.853 12.138,11.826 L11.639,11.327 C11.441,11.132 11.441,10.815 11.639,10.619 C11.835,10.424 12.151,10.424 12.347,10.619 L12.515,10.786 C13.217,9.983 13.698,9.021 13.888,7.980 L13.494,7.980 C13.216,7.980 12.993,7.757 12.993,7.481 C12.993,7.206 13.216,6.982 13.494,6.982 L13.987,6.982 C13.987,6.964 13.993,6.946 13.993,6.928 C13.993,5.470 13.450,4.151 12.581,3.113 L12.347,3.346 C12.151,3.541 11.835,3.541 11.639,3.346 C11.441,3.150 11.441,2.833 11.639,2.637 L11.877,2.399 C10.948,1.605 9.782,1.099 8.491,0.991 C8.491,0.993 8.492,0.994 8.492,0.996 L8.492,1.994 C8.492,2.269 8.269,2.493 7.993,2.493 C7.717,2.493 7.493,2.269 7.493,1.994 L7.493,0.996 C7.493,0.994 7.494,0.993 7.494,0.991 C6.203,1.099 5.038,1.605 4.109,2.399 L4.348,2.637 C4.545,2.833 4.545,3.150 4.348,3.346 C4.153,3.541 3.834,3.541 3.638,3.346 L3.404,3.113 C2.537,4.152 1.994,5.470 1.994,6.928 C1.994,6.946 1.999,6.964 1.999,6.982 L2.494,6.982 C2.769,6.982 2.992,7.206 2.992,7.481 C2.992,7.757 2.769,7.980 2.494,7.980 L2.099,7.980 C2.288,9.021 2.769,9.983 3.471,10.786 L3.638,10.619 C3.834,10.424 4.153,10.424 4.348,10.619 C4.545,10.815 4.545,11.132 4.348,11.327 L3.848,11.826 C3.739,11.935 3.596,11.969 3.454,11.957 C3.433,11.960 3.414,11.970 3.393,11.970 C3.260,11.970 3.131,11.916 3.038,11.822 C1.903,10.694 1.238,9.238 1.060,7.716 C1.021,7.645 0.993,7.568 0.993,7.481 C0.993,7.440 1.007,7.404 1.016,7.366 C0.948,6.321 1.110,5.255 1.532,4.248 C2.619,1.653 5.173,-0.027 7.993,-0.002 C11.838,-0.002 14.964,3.091 14.994,6.928 C14.994,7.053 14.963,7.173 14.957,7.297 C14.979,7.355 14.994,7.416 14.994,7.481 ZM8.572,5.556 L9.073,5.421 C9.468,5.321 9.888,5.221 10.307,5.126 L10.714,5.032 L10.873,4.997 C11.080,4.951 11.294,5.039 11.405,5.219 C11.518,5.399 11.505,5.630 11.374,5.795 C11.374,5.820 11.323,5.865 11.272,5.920 L11.008,6.249 C10.728,6.588 10.447,6.928 10.178,7.247 L10.059,7.386 C9.671,7.890 9.227,8.349 8.738,8.753 C8.392,8.970 7.968,9.030 7.574,8.918 C7.180,8.805 6.853,8.531 6.673,8.165 C6.278,7.418 6.512,6.495 7.213,6.024 C7.646,5.815 8.101,5.658 8.572,5.556 ZM7.568,7.701 C7.617,7.822 7.719,7.914 7.842,7.954 C7.966,7.994 8.101,7.979 8.213,7.910 C8.607,7.548 8.973,7.156 9.308,6.738 L9.428,6.603 L9.678,6.304 L9.333,6.389 L8.833,6.523 C8.466,6.610 8.107,6.725 7.758,6.868 C7.496,7.060 7.416,7.414 7.568,7.701 Z"/>
</svg>
