<svg 
 xmlns="http://www.w3.org/2000/svg"
 xmlns:xlink="http://www.w3.org/1999/xlink"
 width="15px" height="15px">
<path fill-rule="evenodd"  fill="rgb(255, 255, 255)"
 d="M6.523,14.651 C6.840,14.884 7.157,15.000 7.500,15.000 C7.843,15.000 8.160,14.884 8.477,14.651 C8.794,14.418 9.111,14.302 9.454,14.302 C9.771,14.302 10.088,14.448 10.405,14.651 C10.722,14.884 11.038,15.000 11.382,15.000 C11.725,15.000 12.042,14.884 12.359,14.651 C12.913,14.215 13.468,14.157 14.049,14.506 L14.049,13.343 C13.468,13.023 12.913,13.052 12.359,13.488 C12.042,13.721 11.725,13.837 11.382,13.837 C11.065,13.837 10.722,13.691 10.405,13.488 C10.088,13.255 9.771,13.139 9.454,13.139 C9.111,13.139 8.794,13.255 8.477,13.488 C8.160,13.721 7.843,13.837 7.500,13.837 C7.183,13.837 6.866,13.691 6.523,13.488 C6.206,13.255 5.889,13.139 5.572,13.139 C5.229,13.139 4.912,13.255 4.595,13.488 C4.278,13.721 3.961,13.837 3.618,13.837 C3.301,13.837 2.958,13.691 2.641,13.488 C2.060,13.052 1.505,13.023 0.950,13.343 L0.950,14.477 C1.531,14.157 2.086,14.215 2.641,14.651 C2.958,14.884 3.274,15.000 3.618,15.000 C3.961,15.000 4.278,14.884 4.595,14.651 C4.912,14.418 5.229,14.302 5.572,14.302 C5.889,14.273 6.206,14.418 6.523,14.651 M0.370,10.203 L-0.000,10.378 L-0.000,11.570 L0.370,11.395 C0.739,11.192 1.162,11.075 1.637,11.046 C2.113,11.046 2.561,11.133 2.958,11.395 C3.565,11.744 4.199,11.802 4.859,11.628 L4.859,10.436 C4.199,10.610 3.565,10.523 2.958,10.174 C2.561,9.941 2.113,9.825 1.637,9.854 C1.162,9.854 0.739,9.971 0.370,10.203 M13.362,9.854 C12.861,9.854 12.411,9.941 12.015,10.174 C11.435,10.523 10.801,10.610 10.114,10.436 L10.114,11.628 C10.774,11.802 11.408,11.715 12.015,11.395 C12.411,11.163 12.861,11.046 13.362,11.046 C13.811,11.046 14.234,11.163 14.604,11.395 L15.000,11.570 L15.000,10.378 L14.604,10.203 C14.234,9.971 13.811,9.854 13.362,9.854 M11.461,3.226 L11.461,2.180 L8.318,2.180 L8.318,0.901 C8.318,0.669 8.239,0.436 8.081,0.261 C7.922,0.087 7.738,-0.000 7.500,-0.000 C7.262,-0.000 7.077,0.087 6.919,0.261 C6.760,0.436 6.681,0.639 6.681,0.901 L6.681,9.680 C6.312,9.971 6.100,10.407 6.100,10.901 C6.100,11.337 6.232,11.686 6.496,12.006 C6.760,12.296 7.104,12.471 7.500,12.471 C7.896,12.471 8.213,12.325 8.503,12.006 C8.767,11.715 8.926,11.337 8.926,10.901 C8.926,10.378 8.741,9.971 8.345,9.680 L8.345,8.343 L11.487,8.343 L11.487,7.267 L8.345,7.267 L8.345,5.785 L11.487,5.785 L11.487,4.738 L8.345,4.738 L8.345,3.226 L11.461,3.226 Z"/>
</svg>
