<svg 
 xmlns="http://www.w3.org/2000/svg"
 xmlns:xlink="http://www.w3.org/1999/xlink"
 width="15px" height="12px">
<path fill-rule="evenodd"  fill="rgb(255, 255, 255)"
 d="M12.629,6.569 L12.629,5.585 L13.518,5.585 L13.518,6.569 L12.629,6.569 ZM13.246,10.800 C13.225,10.827 13.196,10.843 13.171,10.864 L14.014,10.633 C14.187,10.586 14.373,10.632 14.502,10.754 C14.630,10.877 14.682,11.057 14.638,11.227 C14.594,11.396 14.459,11.530 14.286,11.578 L12.811,11.981 C12.614,12.035 12.402,11.971 12.276,11.814 L11.326,10.643 C11.242,10.541 11.203,10.412 11.219,10.282 C11.234,10.153 11.302,10.034 11.407,9.954 C11.498,9.880 11.609,9.846 11.720,9.846 C11.866,9.846 12.018,9.910 12.129,10.038 L12.398,10.370 C12.415,10.314 12.405,10.254 12.442,10.205 C14.862,7.115 14.423,4.128 11.104,1.087 L1.515,5.921 L1.515,6.569 L0.505,6.569 L0.505,6.361 C0.322,6.361 0.144,6.270 0.055,6.101 C-0.071,5.860 0.025,5.560 0.273,5.437 L10.952,0.054 C11.028,0.020 11.104,-0.000 11.184,-0.000 C11.309,0.001 11.428,0.045 11.523,0.123 C15.483,3.607 16.064,7.198 13.246,10.800 ZM3.536,5.585 L3.536,6.569 L2.526,6.569 L2.526,5.585 L3.536,5.585 ZM5.557,5.585 L5.557,6.569 L4.546,6.569 L4.546,5.585 L5.557,5.585 ZM7.577,5.585 L7.577,6.569 L6.567,6.569 L6.567,5.585 L7.577,5.585 ZM0.758,9.595 L7.799,9.595 C8.077,9.595 8.304,9.816 8.304,10.087 C8.304,10.358 8.077,10.579 7.799,10.579 L0.758,10.579 C0.480,10.579 0.252,10.358 0.252,10.087 C0.252,9.816 0.480,9.595 0.758,9.595 ZM9.598,6.569 L8.588,6.569 L8.588,5.585 L9.598,5.585 L9.598,6.569 ZM11.619,6.569 L10.609,6.569 L10.609,5.585 L11.619,5.585 L11.619,6.569 Z"/>
</svg>
