<svg 
 xmlns="http://www.w3.org/2000/svg"
 xmlns:xlink="http://www.w3.org/1999/xlink"
 width="15px" height="12px">
<path fill-rule="evenodd"  fill="rgb(255, 255, 255)"
 d="M14.995,7.481 C14.995,7.578 14.960,7.662 14.913,7.738 C14.728,9.278 14.058,10.726 12.941,11.827 C12.816,11.968 12.625,12.029 12.443,11.983 C12.362,11.964 12.295,11.919 12.235,11.866 C12.205,11.847 12.166,11.853 12.140,11.827 L11.639,11.328 C11.444,11.132 11.444,10.815 11.639,10.620 C11.836,10.424 12.153,10.424 12.350,10.620 L12.516,10.785 C13.218,9.982 13.699,9.021 13.890,7.980 L13.496,7.980 C13.218,7.980 12.995,7.757 12.995,7.481 C12.995,7.206 13.218,6.982 13.496,6.982 L13.990,6.982 C13.990,6.964 13.996,6.946 13.996,6.928 C13.996,5.470 13.452,4.151 12.584,3.113 L12.350,3.346 C12.153,3.541 11.836,3.541 11.639,3.346 C11.444,3.150 11.444,2.833 11.639,2.637 L11.879,2.399 C10.950,1.605 9.784,1.099 8.494,0.991 C8.494,0.993 8.494,0.994 8.494,0.996 L8.494,1.994 C8.494,2.269 8.271,2.493 7.995,2.493 C7.718,2.493 7.495,2.269 7.495,1.994 L7.495,0.996 C7.495,0.994 7.496,0.993 7.496,0.991 C6.205,1.099 5.040,1.606 4.111,2.399 L4.350,2.637 C4.546,2.833 4.546,3.150 4.350,3.346 C4.154,3.541 3.836,3.541 3.640,3.346 L3.406,3.113 C2.538,4.151 1.995,5.470 1.995,6.928 C1.995,6.946 2.000,6.964 2.001,6.982 L2.495,6.982 C2.771,6.982 2.994,7.206 2.994,7.481 C2.994,7.757 2.771,7.980 2.495,7.980 L2.100,7.980 C2.290,9.021 2.771,9.983 3.473,10.786 L3.640,10.620 C3.836,10.424 4.154,10.424 4.350,10.620 C4.546,10.815 4.546,11.132 4.350,11.328 L3.850,11.827 C3.741,11.935 3.598,11.969 3.456,11.957 C3.435,11.960 3.416,11.970 3.395,11.970 C3.262,11.970 3.134,11.916 3.040,11.822 C1.905,10.694 1.241,9.239 1.063,7.719 C1.023,7.647 0.994,7.569 0.994,7.481 C0.994,7.439 1.008,7.400 1.018,7.361 C0.951,6.318 1.113,5.253 1.535,4.248 C2.622,1.653 5.176,-0.027 7.995,-0.002 C11.839,-0.002 14.965,3.092 14.995,6.928 C14.995,7.053 14.964,7.173 14.958,7.297 C14.980,7.354 14.995,7.416 14.995,7.481 ZM8.576,5.556 L9.075,5.421 C9.470,5.321 9.891,5.221 10.309,5.127 L10.715,5.032 L10.876,4.997 C11.082,4.950 11.295,5.040 11.407,5.219 C11.520,5.399 11.508,5.630 11.375,5.795 C11.375,5.820 11.326,5.865 11.276,5.920 L11.010,6.249 C10.730,6.588 10.451,6.928 10.181,7.247 L10.059,7.387 C9.673,7.890 9.230,8.349 8.740,8.753 C8.393,8.970 7.969,9.030 7.575,8.918 C7.181,8.806 6.855,8.532 6.675,8.165 C6.281,7.419 6.514,6.496 7.215,6.025 C7.648,5.815 8.103,5.657 8.576,5.556 ZM7.571,7.701 C7.619,7.821 7.720,7.915 7.843,7.955 C7.969,7.995 8.103,7.979 8.214,7.911 C8.609,7.549 8.976,7.157 9.310,6.738 L9.429,6.603 L9.680,6.304 L9.335,6.389 L8.835,6.524 C8.468,6.610 8.109,6.725 7.761,6.868 C7.498,7.060 7.417,7.415 7.571,7.701 Z"/>
</svg>
