<svg 
 xmlns="http://www.w3.org/2000/svg"
 xmlns:xlink="http://www.w3.org/1999/xlink"
 width="15px" height="12px">
<path fill-rule="evenodd"  fill="rgb(255, 255, 255)"
 d="M14.459,-0.000 C14.602,-0.000 14.740,0.054 14.842,0.150 C14.943,0.246 15.000,0.376 15.000,0.512 L15.000,4.123 C15.000,4.259 14.943,4.389 14.842,4.485 C14.740,4.581 14.602,4.635 14.459,4.635 L11.555,4.635 L4.058,11.847 C3.978,11.925 3.872,11.976 3.759,11.993 L3.673,12.000 L0.541,12.000 C0.398,12.000 0.260,11.946 0.159,11.850 C0.057,11.754 0.000,11.624 0.000,11.488 L0.000,7.877 C0.000,7.741 0.057,7.611 0.159,7.515 C0.260,7.419 0.398,7.365 0.541,7.365 L3.446,7.364 L10.942,0.153 C11.022,0.075 11.128,0.024 11.242,0.007 L11.327,-0.000 L14.459,-0.000 ZM13.918,1.024 L11.554,1.024 L4.058,8.235 C3.978,8.313 3.872,8.364 3.759,8.382 L3.673,8.389 L1.082,8.388 L1.082,10.976 L3.446,10.976 L10.942,3.765 C11.022,3.687 11.128,3.636 11.242,3.618 L11.327,3.611 L13.918,3.611 L13.918,1.024 Z"/>
</svg>
