<svg 
 xmlns="http://www.w3.org/2000/svg"
 xmlns:xlink="http://www.w3.org/1999/xlink"
 width="18px" height="18px">
<path fill-rule="evenodd"  fill="rgb(255, 108, 0)"
 d="M4.722,0.941 C2.538,0.941 0.829,2.642 0.829,4.815 C0.829,6.988 2.538,8.689 4.722,8.689 L8.616,8.689 L8.616,4.815 C8.616,2.641 6.906,0.941 4.722,0.941 L4.722,0.941 ZM2.064,4.815 C2.064,3.397 3.298,2.169 4.722,2.169 C6.147,2.169 7.381,3.397 7.381,4.815 L7.381,7.460 L4.722,7.460 C3.298,7.460 2.064,6.232 2.064,4.815 L2.064,4.815 ZM13.269,0.941 C11.085,0.941 9.375,2.641 9.375,4.815 L9.375,8.689 L13.269,8.689 C15.453,8.689 17.163,6.988 17.163,4.815 C17.163,2.641 15.453,0.941 13.269,0.941 L13.269,0.941 ZM13.269,7.460 L10.610,7.460 L10.610,4.815 C10.610,3.397 11.845,2.169 13.269,2.169 C14.694,2.169 15.928,3.397 15.928,4.815 C15.928,6.232 14.694,7.460 13.269,7.460 L13.269,7.460 ZM4.722,9.445 C2.538,9.445 0.829,11.146 0.829,13.319 C0.829,15.492 2.538,17.194 4.722,17.194 C6.906,17.194 8.616,15.492 8.616,13.319 L8.616,9.445 L4.722,9.445 ZM4.722,15.965 C3.298,15.965 2.064,14.736 2.064,13.319 C2.064,11.902 3.298,10.674 4.722,10.674 L7.381,10.674 L7.381,13.319 C7.381,14.736 6.147,15.965 4.722,15.965 L4.722,15.965 ZM13.269,9.445 L9.375,9.445 L9.375,13.319 C9.375,15.492 11.085,17.194 13.269,17.194 C15.453,17.194 17.163,15.492 17.163,13.319 C17.163,11.146 15.453,9.445 13.269,9.445 L13.269,9.445 ZM13.269,15.965 C11.845,15.965 10.610,14.736 10.610,13.319 L10.610,10.674 L13.269,10.674 C14.694,10.674 15.928,11.902 15.928,13.319 C15.928,14.736 14.694,15.965 13.269,15.965 L13.269,15.965 Z"/>
</svg>
