<svg 
 xmlns="http://www.w3.org/2000/svg"
 xmlns:xlink="http://www.w3.org/1999/xlink"
 width="14px" height="14px">
<path fill-rule="evenodd"  fill="rgb(201, 201, 210)"
 d="M12.996,13.999 L0.995,13.999 C0.442,13.999 -0.004,13.551 -0.004,12.999 L-0.004,9.999 C-0.004,9.446 0.442,8.998 0.995,8.998 L12.996,8.998 C13.547,8.998 13.996,9.446 13.996,9.999 L13.996,12.999 C13.996,13.551 13.547,13.999 12.996,13.999 ZM7.995,6.998 L0.995,6.998 C0.442,6.998 -0.004,6.551 -0.004,5.998 L-0.004,4.999 C-0.004,4.446 0.442,3.999 0.995,3.999 L7.995,3.999 C8.547,3.999 8.995,4.446 8.995,4.999 L8.995,5.998 C8.995,6.551 8.547,6.998 7.995,6.998 ZM2.995,1.998 L0.995,1.998 C0.442,1.998 -0.004,1.551 -0.004,0.998 C-0.004,0.446 0.442,-0.002 0.995,-0.002 L2.995,-0.002 C3.547,-0.002 3.995,0.446 3.995,0.998 C3.995,1.551 3.547,1.998 2.995,1.998 Z"/>
</svg>
