<svg 
 xmlns="http://www.w3.org/2000/svg"
 xmlns:xlink="http://www.w3.org/1999/xlink"
 width="14px" height="14px">
<path fill-rule="evenodd"  fill="rgb(255, 255, 255)"
 d="M11.992,13.998 L11.992,12.998 L13.993,12.998 L13.993,13.998 L11.992,13.998 ZM10.992,11.998 L2.992,11.998 C1.336,11.998 -0.008,10.655 -0.008,8.998 L-0.007,6.998 L0.992,7.005 L0.992,8.998 C0.992,10.103 1.887,10.999 2.992,10.999 L10.992,10.999 C12.096,10.999 12.992,10.103 12.992,8.998 L12.992,6.998 L13.993,6.998 L13.993,8.998 C13.993,10.655 12.649,11.998 10.992,11.998 ZM7.460,9.846 C7.331,9.967 7.159,9.992 6.991,9.969 C6.823,9.991 6.652,9.965 6.522,9.845 L4.155,7.640 C3.938,7.438 3.938,7.108 4.155,6.905 C4.373,6.703 4.727,6.703 4.945,6.905 L6.406,8.266 L5.992,-0.002 L7.992,-0.002 L7.578,8.266 L9.039,6.905 C9.257,6.703 9.611,6.703 9.829,6.905 C10.046,7.108 10.046,7.438 9.829,7.640 L7.460,9.846 ZM1.992,13.998 L-0.007,13.998 L-0.007,12.998 L1.992,12.998 L1.992,13.998 ZM4.992,13.998 L2.992,13.998 L2.992,12.998 L4.992,12.998 L4.992,13.998 ZM7.992,13.998 L5.992,13.998 L5.992,12.998 L7.992,12.998 L7.992,13.998 ZM10.992,13.998 L8.993,13.998 L8.993,12.998 L10.992,12.998 L10.992,13.998 Z"/>
</svg>
