<svg 
 xmlns="http://www.w3.org/2000/svg"
 xmlns:xlink="http://www.w3.org/1999/xlink"
 width="14px" height="14px">
<path fill-rule="evenodd"  fill="rgb(51, 51, 51)"
 d="M13.307,13.999 L0.680,13.999 C0.301,13.999 -0.007,13.691 -0.007,13.313 L-0.007,13.309 C-0.007,12.930 0.301,12.623 0.680,12.623 L1.260,12.623 L1.260,9.904 L2.533,6.634 L3.004,6.376 L1.516,5.240 C0.948,4.803 0.812,3.951 1.221,3.338 L3.067,0.562 C3.474,-0.052 4.271,-0.194 4.843,0.242 L10.026,4.201 C10.598,4.638 10.730,5.490 10.323,6.103 L10.213,6.267 L12.080,7.858 L12.715,12.623 L13.307,12.623 C13.687,12.623 13.994,12.930 13.994,13.309 L13.994,13.313 C13.994,13.691 13.687,13.999 13.307,13.999 ZM3.546,6.790 L3.488,6.982 L2.533,8.540 L2.533,12.623 L4.442,12.623 L4.442,9.904 L5.717,8.540 L5.781,8.496 L3.546,6.790 ZM8.476,8.879 C8.068,9.492 7.273,9.635 6.701,9.198 L6.322,8.909 L5.717,9.904 L5.717,12.623 L8.262,12.623 L8.262,11.268 L8.334,9.612 L8.517,8.817 L8.476,8.879 ZM11.442,8.540 L9.716,7.014 L8.864,8.296 L9.411,10.196 L9.506,12.623 L11.442,12.623 L11.442,8.540 Z"/>
</svg>
