<svg 
 xmlns="http://www.w3.org/2000/svg"
 xmlns:xlink="http://www.w3.org/1999/xlink"
 width="15px" height="15px">
<path fill-rule="evenodd"  fill="rgb(255, 255, 255)"
 d="M14.000,1.000 L14.000,-0.000 L15.000,-0.000 L15.000,1.000 L14.000,1.000 ZM12.000,-0.000 L13.000,-0.000 L13.000,1.000 L12.000,1.000 L12.000,-0.000 ZM13.000,3.000 L12.000,3.000 L12.000,2.000 L13.000,2.000 L13.000,3.000 ZM10.000,-0.000 L11.000,-0.000 L11.000,1.000 L10.000,1.000 L10.000,-0.000 ZM9.000,12.000 L10.000,12.000 L10.000,13.000 L9.000,13.000 L9.000,12.000 ZM9.000,10.000 L10.000,10.000 L10.000,11.000 L9.000,11.000 L9.000,10.000 ZM9.000,8.000 L10.000,8.000 L10.000,9.000 L9.000,9.000 L9.000,8.000 ZM9.000,6.000 L10.000,6.000 L10.000,7.000 L9.000,7.000 L9.000,6.000 ZM9.000,4.000 L10.000,4.000 L10.000,5.000 L9.000,5.000 L9.000,4.000 ZM9.000,2.000 L10.000,2.000 L10.000,3.000 L9.000,3.000 L9.000,2.000 ZM8.000,-0.000 L9.000,-0.000 L9.000,1.000 L8.000,1.000 L8.000,-0.000 ZM6.000,-0.000 L7.000,-0.000 L7.000,1.000 L6.000,1.000 L6.000,-0.000 ZM5.000,12.000 L6.000,12.000 L6.000,13.000 L5.000,13.000 L5.000,12.000 ZM5.000,10.000 L6.000,10.000 L6.000,11.000 L5.000,11.000 L5.000,10.000 ZM5.000,8.000 L6.000,8.000 L6.000,9.000 L5.000,9.000 L5.000,8.000 ZM5.000,6.000 L6.000,6.000 L6.000,7.000 L5.000,7.000 L5.000,6.000 ZM5.000,4.000 L6.000,4.000 L6.000,5.000 L5.000,5.000 L5.000,4.000 ZM5.000,2.000 L6.000,2.000 L6.000,3.000 L5.000,3.000 L5.000,2.000 ZM4.000,-0.000 L5.000,-0.000 L5.000,1.000 L4.000,1.000 L4.000,-0.000 ZM2.000,-0.000 L3.000,-0.000 L3.000,1.000 L2.000,1.000 L2.000,-0.000 ZM-0.000,-0.000 L1.000,-0.000 L1.000,1.000 L-0.000,1.000 L-0.000,-0.000 ZM3.000,13.000 L2.000,13.000 L2.000,12.000 L3.000,12.000 L3.000,13.000 ZM3.000,11.000 L2.000,11.000 L2.000,10.000 L3.000,10.000 L3.000,11.000 ZM3.000,9.000 L2.000,9.000 L2.000,8.000 L3.000,8.000 L3.000,9.000 ZM3.000,7.000 L2.000,7.000 L2.000,6.000 L3.000,6.000 L3.000,7.000 ZM2.000,2.000 L3.000,2.000 L3.000,3.000 L2.000,3.000 L2.000,2.000 ZM3.000,5.000 L2.000,5.000 L2.000,4.000 L3.000,4.000 L3.000,5.000 ZM13.000,13.000 L12.000,13.000 L12.000,12.000 L13.000,12.000 L13.000,13.000 ZM13.000,11.000 L12.000,11.000 L12.000,10.000 L13.000,10.000 L13.000,11.000 ZM13.000,9.000 L12.000,9.000 L12.000,8.000 L13.000,8.000 L13.000,9.000 ZM12.000,4.000 L13.000,4.000 L13.000,5.000 L12.000,5.000 L12.000,4.000 ZM13.000,7.000 L12.000,7.000 L12.000,6.000 L13.000,6.000 L13.000,7.000 ZM15.000,15.000 L-0.000,15.000 L-0.000,14.000 L15.000,14.000 L15.000,15.000 Z"/>
</svg>
