<svg 
 xmlns="http://www.w3.org/2000/svg"
 xmlns:xlink="http://www.w3.org/1999/xlink"
 width="14px" height="14px">
<path fill-rule="evenodd"  fill="rgb(201, 201, 210)"
 d="M13.310,13.999 L0.682,13.999 C0.302,13.999 -0.004,13.691 -0.004,13.313 L-0.004,13.310 C-0.004,12.931 0.302,12.624 0.682,12.624 L1.262,12.624 L1.262,9.905 L2.536,6.634 L3.007,6.376 L1.520,5.241 C0.950,4.804 0.814,3.952 1.223,3.339 L3.070,0.562 C3.477,-0.052 4.273,-0.194 4.844,0.243 L10.028,4.201 C10.599,4.638 10.733,5.490 10.325,6.103 L10.216,6.267 L12.082,7.858 L12.717,12.624 L13.310,12.624 C13.688,12.624 13.995,12.931 13.995,13.310 L13.995,13.313 C13.995,13.691 13.688,13.999 13.310,13.999 ZM3.549,6.791 L3.491,6.982 L2.536,8.540 L2.536,12.624 L4.444,12.624 L4.444,9.905 L5.719,8.540 L5.783,8.497 L3.549,6.791 ZM8.478,8.879 C8.070,9.493 7.275,9.636 6.702,9.198 L6.324,8.910 L5.719,9.905 L5.719,12.624 L8.264,12.624 L8.264,11.268 L8.336,9.613 L8.520,8.817 L8.478,8.879 ZM11.444,8.540 L9.719,7.015 L8.866,8.296 L9.413,10.197 L9.509,12.624 L11.444,12.624 L11.444,8.540 Z"/>
</svg>
