<svg 
 xmlns="http://www.w3.org/2000/svg"
 xmlns:xlink="http://www.w3.org/1999/xlink"
 width="15px" height="12px">
<path fill-rule="evenodd"  fill="rgb(51, 51, 51)"
 d="M14.419,-0.000 C14.562,-0.000 14.699,0.054 14.801,0.150 C14.902,0.246 14.959,0.376 14.959,0.512 L14.959,4.123 C14.959,4.259 14.902,4.389 14.801,4.485 C14.699,4.581 14.562,4.635 14.419,4.635 L11.522,4.635 L4.045,11.847 C3.965,11.925 3.860,11.976 3.746,11.993 L3.661,12.000 L0.537,12.000 C0.394,12.000 0.257,11.946 0.155,11.850 C0.054,11.754 -0.003,11.624 -0.003,11.488 L-0.003,7.877 C-0.003,7.741 0.054,7.611 0.155,7.515 C0.257,7.418 0.394,7.365 0.537,7.365 L3.435,7.364 L10.911,0.153 C10.991,0.075 11.096,0.024 11.210,0.006 L11.296,-0.000 L14.419,-0.000 ZM13.879,1.024 L11.522,1.024 L4.045,8.235 C3.965,8.313 3.860,8.364 3.746,8.382 L3.661,8.389 L1.077,8.388 L1.077,10.976 L3.435,10.976 L10.911,3.765 C10.991,3.687 11.096,3.635 11.210,3.618 L11.296,3.611 L13.879,3.611 L13.879,1.024 Z"/>
</svg>
