<svg 
 xmlns="http://www.w3.org/2000/svg"
 xmlns:xlink="http://www.w3.org/1999/xlink"
 width="15px" height="8px">
<path fill-rule="evenodd"  fill="rgb(51, 51, 51)"
 d="M0.717,3.947 L14.313,3.948 C14.688,3.948 14.992,4.219 14.992,4.553 L14.992,7.393 C14.992,7.727 14.688,7.998 14.313,7.998 L0.716,7.997 C0.340,7.997 0.037,7.726 0.037,7.391 L0.037,4.552 C0.037,4.218 0.340,3.947 0.716,3.947 L0.717,3.947 ZM14.342,7.419 L14.342,4.527 L12.717,4.527 L12.717,6.262 C12.717,6.422 12.571,6.551 12.391,6.551 C12.212,6.551 12.067,6.422 12.067,6.262 L12.067,4.527 L11.091,4.527 L11.091,5.394 C11.091,5.497 11.030,5.593 10.927,5.645 C10.828,5.697 10.704,5.697 10.604,5.645 C10.502,5.593 10.441,5.497 10.441,5.394 L10.441,4.527 L9.466,4.527 L9.466,6.262 C9.466,6.365 9.404,6.461 9.303,6.513 C9.203,6.564 9.078,6.564 8.978,6.513 C8.877,6.461 8.815,6.365 8.815,6.262 L8.815,4.527 L7.840,4.527 L7.840,5.394 C7.840,5.554 7.694,5.684 7.514,5.684 C7.335,5.684 7.190,5.554 7.190,5.394 L7.190,4.527 L6.214,4.527 L6.214,6.262 C6.214,6.365 6.152,6.461 6.051,6.513 C5.952,6.564 5.827,6.564 5.726,6.513 C5.626,6.461 5.565,6.365 5.565,6.262 L5.565,4.527 L4.589,4.527 L4.589,5.394 C4.589,5.497 4.527,5.593 4.426,5.645 C4.325,5.697 4.201,5.697 4.101,5.645 C4.000,5.593 3.938,5.497 3.938,5.394 L3.938,4.527 L2.964,4.527 L2.964,6.261 C2.964,6.421 2.817,6.551 2.638,6.551 C2.457,6.551 2.312,6.421 2.312,6.261 L2.312,4.526 L0.687,4.526 L0.687,7.418 L14.342,7.419 ZM0.438,-0.002 L14.553,-0.002 C14.798,-0.002 14.996,0.174 14.996,0.391 C14.996,0.609 14.798,0.785 14.553,0.785 L0.438,0.785 C0.194,0.785 -0.004,0.609 -0.004,0.391 C-0.004,0.174 0.194,-0.002 0.438,-0.002 L0.438,-0.002 Z"/>
</svg>
