<svg 
 xmlns="http://www.w3.org/2000/svg"
 xmlns:xlink="http://www.w3.org/1999/xlink"
 width="15px" height="15px">
<path fill-rule="evenodd"  fill="rgb(51, 51, 51)"
 d="M3.300,13.286 L3.300,1.714 C3.300,1.260 3.483,0.823 3.809,0.502 C4.135,0.181 4.578,-0.000 5.039,-0.000 L9.961,-0.000 C10.921,-0.000 11.700,0.767 11.700,1.714 L11.700,13.286 C11.700,14.232 10.921,15.000 9.961,15.000 L5.039,15.000 C4.079,15.000 3.300,14.232 3.300,13.286 L3.300,13.286 ZM4.387,13.286 C4.387,13.463 4.451,13.614 4.578,13.740 C4.705,13.866 4.859,13.929 5.039,13.929 L9.961,13.929 C10.141,13.929 10.295,13.866 10.422,13.740 C10.549,13.614 10.613,13.463 10.613,13.286 L10.613,1.714 C10.613,1.537 10.549,1.386 10.422,1.260 C10.295,1.134 10.141,1.071 9.961,1.071 L5.039,1.071 C4.859,1.071 4.705,1.134 4.578,1.260 C4.451,1.386 4.387,1.537 4.387,1.714 L4.387,13.286 ZM0.180,10.958 L1.710,9.444 L0.527,8.274 C0.311,8.060 0.203,7.802 0.203,7.500 C0.203,7.198 0.311,6.940 0.527,6.726 L1.710,5.556 L0.180,4.042 C0.025,3.888 -0.036,3.665 0.021,3.455 C0.078,3.246 0.243,3.082 0.455,3.026 C0.667,2.969 0.893,3.029 1.048,3.183 L2.664,4.784 C2.880,4.997 2.988,5.254 2.988,5.556 C2.988,5.858 2.880,6.116 2.664,6.330 L1.482,7.500 L2.664,8.670 C2.880,8.884 2.988,9.142 2.988,9.444 C2.988,9.746 2.880,10.004 2.664,10.217 L1.048,11.817 C0.893,11.970 0.667,12.030 0.455,11.974 C0.243,11.918 0.078,11.754 0.021,11.545 C-0.036,11.335 0.025,11.111 0.180,10.958 L0.180,10.958 ZM14.787,10.927 L13.275,9.418 L14.444,8.253 C14.657,8.040 14.764,7.783 14.764,7.482 C14.764,7.182 14.657,6.925 14.444,6.712 L13.275,5.546 L14.787,4.038 C15.024,3.802 15.024,3.418 14.787,3.182 C14.550,2.946 14.166,2.946 13.929,3.182 L12.332,4.777 C12.118,4.989 12.011,5.245 12.011,5.546 C12.011,5.847 12.118,6.104 12.332,6.317 L13.500,7.482 L12.332,8.648 C12.118,8.861 12.011,9.118 12.011,9.418 C12.011,9.719 12.118,9.976 12.332,10.189 L13.929,11.782 C14.166,12.019 14.550,12.019 14.787,11.782 C15.024,11.546 15.024,11.163 14.787,10.927 L14.787,10.927 Z"/>
</svg>
