<svg 
 xmlns="http://www.w3.org/2000/svg"
 xmlns:xlink="http://www.w3.org/1999/xlink"
 width="16.5px" height="14.5px">
<path fill-rule="evenodd"  stroke="rgb(255, 255, 255)" stroke-width="1px" stroke-linecap="butt" stroke-linejoin="miter" fill="none"
 d="M2.500,0.500 L13.500,0.500 C14.605,0.500 15.500,1.395 15.500,2.500 L15.500,11.500 C15.500,12.605 14.605,13.500 13.500,13.500 L2.500,13.500 C1.395,13.500 0.500,12.605 0.500,11.500 L0.500,2.500 C0.500,1.395 1.395,0.500 2.500,0.500 Z"/>
<path fill-rule="evenodd"  fill="rgb(255, 255, 255)"
 d="M12.500,11.500 L12.500,3.500 L11.500,3.500 L11.500,10.500 L11.500,11.500 L10.500,11.500 L9.500,11.500 L8.500,11.500 L8.500,10.500 L8.500,3.500 L7.500,3.500 L7.500,10.500 L7.500,11.500 L6.500,11.500 L5.500,11.500 L4.500,11.500 L4.500,10.500 L4.500,3.500 L3.500,3.500 L3.500,11.500 L2.500,11.500 L2.500,3.500 L2.500,2.500 L3.500,2.500 L4.500,2.500 L5.500,2.500 L5.500,3.500 L5.500,10.500 L6.500,10.500 L6.500,3.500 L6.500,2.500 L7.500,2.500 L8.500,2.500 L9.500,2.500 L9.500,3.500 L9.500,10.500 L10.500,10.500 L10.500,3.500 L10.500,2.500 L11.500,2.500 L12.500,2.500 L13.500,2.500 L13.500,3.500 L13.500,11.500 L12.500,11.500 Z"/>
</svg>
