<svg 
 xmlns="http://www.w3.org/2000/svg"
 xmlns:xlink="http://www.w3.org/1999/xlink"
 width="16px" height="14px">
<path fill-rule="evenodd"  fill="rgb(255, 255, 255)"
 d="M15.111,4.558 L8.510,6.797 C8.347,6.853 8.176,6.881 8.003,6.880 C7.829,6.881 7.658,6.853 7.495,6.797 L0.895,4.558 C0.372,4.418 0.010,3.960 0.010,3.439 C0.010,2.918 0.372,2.460 0.895,2.319 L7.495,0.080 C7.824,-0.030 8.181,-0.030 8.510,0.080 L15.111,2.319 C15.634,2.460 15.995,2.918 15.995,3.439 C15.995,3.960 15.634,4.418 15.111,4.558 ZM0.880,5.871 L1.922,5.521 L3.879,6.187 L1.495,6.993 L8.003,9.196 L14.510,6.993 L12.116,6.191 L14.069,5.524 L15.111,5.874 L15.097,5.871 C15.620,6.012 15.982,6.469 15.982,6.990 C15.982,7.511 15.620,7.969 15.097,8.110 L8.496,10.348 C8.167,10.460 7.810,10.460 7.481,10.348 L0.880,8.110 C0.357,7.969 -0.005,7.511 -0.005,6.990 C-0.005,6.469 0.357,6.012 0.880,5.871 ZM0.891,9.426 L1.932,9.076 L3.889,9.742 L1.506,10.549 L8.003,12.751 L14.496,10.552 L12.116,9.746 L14.069,9.079 L15.111,9.429 L15.107,9.426 C15.631,9.567 15.992,10.024 15.992,10.545 C15.992,11.066 15.631,11.524 15.107,11.665 L8.506,13.904 C8.178,14.015 7.820,14.015 7.492,13.904 L0.891,11.665 C0.367,11.524 0.006,11.066 0.006,10.545 C0.006,10.024 0.367,9.567 0.891,9.426 Z"/>
</svg>
