<svg 
 xmlns="http://www.w3.org/2000/svg"
 xmlns:xlink="http://www.w3.org/1999/xlink"
 width="14px" height="14px">
<path fill-rule="evenodd"  fill="rgb(255, 255, 255)"
 d="M12.993,13.998 L0.994,13.998 C0.440,13.998 -0.007,13.551 -0.007,12.999 L-0.007,9.998 C-0.007,9.446 0.440,8.998 0.994,8.998 L12.993,8.998 C13.544,8.998 13.994,9.446 13.994,9.998 L13.994,12.999 C13.994,13.551 13.544,13.998 12.993,13.998 ZM7.994,6.998 L0.994,6.998 C0.440,6.998 -0.007,6.551 -0.007,5.998 L-0.007,4.998 C-0.007,4.446 0.440,3.999 0.994,3.999 L7.994,3.999 C8.546,3.999 8.993,4.446 8.993,4.998 L8.993,5.998 C8.993,6.551 8.546,6.998 7.994,6.998 ZM2.995,1.998 L0.994,1.998 C0.440,1.998 -0.007,1.551 -0.007,0.998 C-0.007,0.446 0.440,-0.002 0.994,-0.002 L2.995,-0.002 C3.547,-0.002 3.993,0.446 3.993,0.998 C3.993,1.551 3.547,1.998 2.995,1.998 Z"/>
</svg>
