<svg 
 xmlns="http://www.w3.org/2000/svg"
 xmlns:xlink="http://www.w3.org/1999/xlink"
 width="15px" height="16px">
<path fill-rule="evenodd"  fill="rgb(51, 51, 51)"
 d="M11.806,9.600 L14.785,11.268 C14.905,11.334 14.985,11.454 14.998,11.588 C15.011,11.723 14.955,11.855 14.849,11.941 L14.785,11.984 L7.712,15.944 C7.668,15.969 7.619,15.986 7.569,15.994 L7.494,16.000 L7.428,15.994 C7.379,15.986 7.331,15.969 7.287,15.944 L0.214,11.984 C0.082,11.911 -0.000,11.774 -0.000,11.626 C-0.000,11.478 0.082,11.341 0.214,11.268 L3.192,9.600 C3.251,9.567 3.323,9.568 3.381,9.601 L4.694,10.364 C4.751,10.397 4.786,10.457 4.786,10.522 C4.785,10.587 4.750,10.647 4.692,10.679 L3.004,11.626 L7.498,14.142 L11.995,11.626 L10.306,10.679 C10.249,10.647 10.213,10.587 10.212,10.522 C10.212,10.457 10.247,10.397 10.304,10.364 L11.617,9.601 C11.675,9.567 11.748,9.567 11.806,9.600 L11.806,9.600 ZM12.872,3.844 L10.679,8.551 C10.640,8.635 10.576,8.705 10.495,8.753 L7.772,10.364 C7.624,10.451 7.438,10.452 7.290,10.365 L4.506,8.753 C4.424,8.705 4.358,8.634 4.319,8.549 L2.127,3.845 C2.076,3.734 2.122,3.603 2.233,3.547 L7.317,1.011 C7.452,0.944 7.611,0.944 7.746,1.012 L12.766,3.547 C12.877,3.603 12.924,3.734 12.872,3.845 L12.872,3.844 ZM2.006,6.656 L2.892,8.292 C2.922,8.346 2.927,8.410 2.908,8.468 C2.889,8.527 2.847,8.575 2.791,8.603 L2.310,8.842 C2.239,8.877 2.153,8.875 2.084,8.834 L0.317,7.813 C0.247,7.773 0.203,7.700 0.201,7.620 C0.200,7.541 0.241,7.466 0.310,7.423 L1.672,6.570 C1.728,6.535 1.795,6.525 1.859,6.541 C1.922,6.557 1.976,6.599 2.006,6.656 L2.006,6.656 ZM13.326,6.570 L14.688,7.423 C14.757,7.466 14.798,7.541 14.797,7.620 C14.795,7.700 14.752,7.773 14.682,7.813 L12.914,8.834 C12.845,8.874 12.761,8.877 12.689,8.842 L12.207,8.603 C12.151,8.575 12.109,8.526 12.090,8.468 C12.071,8.409 12.077,8.346 12.107,8.292 L12.991,6.656 C13.022,6.599 13.076,6.557 13.139,6.541 C13.203,6.524 13.271,6.535 13.326,6.570 L13.326,6.570 ZM10.093,5.252 L7.943,6.435 L7.943,8.106 L9.153,7.404 L10.093,5.251 L10.093,5.252 ZM4.811,5.182 L5.846,7.404 L7.015,8.089 L6.992,6.394 L4.810,5.182 L4.811,5.182 ZM7.532,2.962 L4.980,4.225 L7.531,5.557 L10.159,4.164 L7.531,2.962 L7.532,2.962 Z"/>
</svg>
