<svg 
 xmlns="http://www.w3.org/2000/svg"
 xmlns:xlink="http://www.w3.org/1999/xlink"
 width="14px" height="14px">
<path fill-rule="evenodd"  fill="rgb(255, 255, 255)"
 d="M12.997,13.998 L0.996,13.998 C0.443,13.998 -0.004,13.551 -0.004,12.999 L-0.004,9.999 C-0.004,9.446 0.443,8.999 0.996,8.999 L12.997,8.999 C13.548,8.999 13.996,9.446 13.996,9.999 L13.996,12.999 C13.996,13.551 13.548,13.998 12.997,13.998 ZM7.996,6.999 L0.996,6.999 C0.443,6.999 -0.004,6.551 -0.004,5.998 L-0.004,4.999 C-0.004,4.446 0.443,3.999 0.996,3.999 L7.996,3.999 C8.548,3.999 8.996,4.446 8.996,4.999 L8.996,5.998 C8.996,6.551 8.548,6.999 7.996,6.999 ZM2.996,1.998 L0.996,1.998 C0.443,1.998 -0.004,1.551 -0.004,0.999 C-0.004,0.446 0.443,-0.001 0.996,-0.001 L2.996,-0.001 C3.548,-0.001 3.996,0.446 3.996,0.999 C3.996,1.551 3.548,1.998 2.996,1.998 Z"/>
</svg>
