<svg 
 xmlns="http://www.w3.org/2000/svg"
 xmlns:xlink="http://www.w3.org/1999/xlink"
 width="15px" height="9px">
<path fill-rule="evenodd"  fill="rgb(51, 51, 51)"
 d="M-0.003,2.647 L1.047,2.647 L1.047,7.094 C0.680,7.306 0.312,7.518 -0.003,7.782 L-0.003,9.000 L0.680,9.000 C2.517,7.412 4.880,6.459 7.347,6.459 C9.814,6.459 12.177,7.412 14.014,9.000 L14.696,9.000 L14.696,7.729 C14.381,7.465 14.014,7.253 13.646,7.041 L13.646,2.647 L14.959,2.647 L14.959,1.588 L-0.003,1.588 L-0.003,2.647 ZM11.022,2.647 L12.596,2.647 L12.596,6.565 C12.072,6.353 11.547,6.141 11.022,5.982 L11.022,2.647 ZM7.872,2.647 L9.972,2.647 L9.972,5.717 C9.289,5.559 8.554,5.453 7.872,5.453 L7.872,2.647 ZM4.722,2.647 L6.822,2.647 L6.822,5.453 C6.139,5.506 5.404,5.559 4.722,5.717 L4.722,2.647 ZM2.097,2.647 L3.672,2.647 L3.672,5.982 C3.147,6.141 2.622,6.353 2.097,6.565 L2.097,2.647 ZM-0.003,-0.000 L-0.003,1.059 L14.959,1.059 L14.959,-0.000 L-0.003,-0.000 Z"/>
</svg>
