<svg 
 xmlns="http://www.w3.org/2000/svg"
 xmlns:xlink="http://www.w3.org/1999/xlink"
 width="12px" height="15px">
<path fill-rule="evenodd"  fill="rgb(255, 255, 255)"
 d="M4.422,0.000 L4.447,0.000 C4.531,0.001 4.614,0.018 4.690,0.048 L4.697,0.051 C4.715,0.058 4.733,0.066 4.750,0.074 L4.754,0.077 L11.668,3.536 C11.762,3.582 11.841,3.647 11.899,3.727 L11.906,3.738 L11.913,3.747 L11.919,3.757 C11.974,3.844 12.002,3.942 12.000,4.042 L12.000,10.968 C12.000,11.169 11.880,11.355 11.684,11.456 L11.676,11.460 L7.885,14.923 C7.805,14.965 7.715,14.990 7.623,14.998 L7.606,14.999 L7.590,15.000 L7.581,15.000 L7.565,15.000 L7.559,15.000 L7.547,15.000 L7.531,14.999 L7.520,14.999 C7.423,14.992 7.329,14.967 7.245,14.923 L0.324,11.460 C0.127,11.361 0.004,11.177 0.000,10.976 L0.000,10.968 L0.000,4.042 C-0.002,3.947 0.024,3.852 0.074,3.768 L0.078,3.762 L0.082,3.756 L0.090,3.742 L0.095,3.736 C0.153,3.652 0.235,3.583 0.332,3.536 L4.115,0.077 L4.120,0.074 C4.137,0.066 4.154,0.058 4.172,0.051 L4.179,0.048 C4.256,0.018 4.339,0.001 4.422,0.000 L4.422,0.000 ZM1.270,4.998 L1.270,10.637 L6.930,13.470 L6.930,7.830 L1.270,4.998 ZM10.730,4.998 L8.200,7.830 L8.200,13.470 L10.730,10.637 L10.730,4.998 ZM4.435,1.213 L1.930,4.032 L7.565,6.852 L10.070,4.032 L4.435,1.213 Z"/>
</svg>
