<svg 
 xmlns="http://www.w3.org/2000/svg"
 xmlns:xlink="http://www.w3.org/1999/xlink"
 width="14px" height="14px">
<path fill-rule="evenodd"  fill="rgb(255, 255, 255)"
 d="M13.310,13.999 L0.681,13.999 C0.301,13.999 -0.004,13.691 -0.004,13.313 L-0.004,13.310 C-0.004,12.931 0.301,12.624 0.681,12.624 L1.262,12.624 L1.262,9.905 L2.535,6.634 L3.006,6.376 L1.519,5.241 C0.949,4.804 0.814,3.951 1.222,3.339 L3.069,0.562 C3.476,-0.052 4.273,-0.194 4.844,0.242 L10.027,4.201 C10.598,4.638 10.732,5.490 10.325,6.103 L10.215,6.268 L12.082,7.858 L12.716,12.624 L13.310,12.624 C13.687,12.624 13.995,12.931 13.995,13.310 L13.995,13.313 C13.995,13.691 13.687,13.999 13.310,13.999 ZM3.549,6.791 L3.491,6.982 L2.535,8.540 L2.535,12.624 L4.444,12.624 L4.444,9.905 L5.718,8.540 L5.783,8.496 L3.549,6.791 ZM8.477,8.879 C8.070,9.493 7.274,9.636 6.702,9.199 L6.323,8.909 L5.718,9.905 L5.718,12.624 L8.263,12.624 L8.263,11.268 L8.335,9.612 L8.519,8.816 L8.477,8.879 ZM11.444,8.540 L9.718,7.014 L8.866,8.294 L9.413,10.197 L9.508,12.624 L11.444,12.624 L11.444,8.540 Z"/>
</svg>
