<svg 
 xmlns="http://www.w3.org/2000/svg"
 xmlns:xlink="http://www.w3.org/1999/xlink"
 width="14px" height="14px">
<path fill-rule="evenodd"  fill="rgb(255, 255, 255)"
 d="M11.995,13.999 L11.995,12.999 L13.994,12.999 L13.994,13.999 L11.995,13.999 ZM10.995,11.999 L2.995,11.999 C1.337,11.999 -0.007,10.655 -0.007,8.998 L-0.005,6.998 L0.994,7.005 L0.994,8.998 C0.994,10.103 1.890,10.998 2.995,10.998 L10.995,10.998 C12.100,10.998 12.994,10.103 12.994,8.998 L12.996,6.998 L13.994,6.998 L13.994,8.998 C13.994,10.655 12.651,11.999 10.995,11.999 ZM7.464,9.846 C7.334,9.967 7.162,9.992 6.993,9.969 C6.825,9.991 6.654,9.965 6.526,9.845 L4.158,7.640 C3.941,7.438 3.941,7.108 4.158,6.906 C4.376,6.703 4.730,6.703 4.947,6.906 L6.408,8.265 L5.995,-0.001 L7.995,-0.001 L7.580,8.267 L9.042,6.906 C9.259,6.703 9.613,6.703 9.830,6.906 C10.050,7.108 10.050,7.438 9.830,7.640 L7.464,9.846 ZM1.995,13.999 L-0.005,13.999 L-0.005,12.999 L1.995,12.999 L1.995,13.999 ZM4.995,13.999 L2.996,13.999 L2.996,12.999 L4.995,12.999 L4.995,13.999 ZM7.995,13.999 L5.995,13.999 L5.995,12.999 L7.995,12.999 L7.995,13.999 ZM10.995,13.999 L8.995,13.999 L8.995,12.999 L10.995,12.999 L10.995,13.999 Z"/>
</svg>
