<svg 
 xmlns="http://www.w3.org/2000/svg"
 xmlns:xlink="http://www.w3.org/1999/xlink"
 width="16px" height="15px">
<path fill-rule="evenodd"  fill="rgb(255, 255, 255)"
 d="M14.704,7.885 C14.531,6.947 13.968,6.110 13.134,5.558 L7.648,1.918 L5.038,0.189 C4.815,-0.000 4.495,-0.053 4.216,0.055 C3.937,0.163 3.751,0.410 3.738,0.690 C3.725,0.970 3.888,1.232 4.156,1.361 L5.328,2.181 L1.721,6.820 C0.483,8.430 0.877,10.668 2.603,11.828 L6.378,14.327 C8.111,15.478 10.519,15.112 11.767,13.508 L14.007,10.582 C14.619,9.806 14.870,8.834 14.704,7.885 L14.704,7.885 ZM2.982,7.656 L6.572,2.976 L10.435,5.533 L12.199,6.722 C12.924,7.224 13.268,8.071 13.081,8.893 C11.378,9.212 9.649,9.396 7.913,9.443 C6.122,9.487 4.331,9.363 2.568,9.074 C2.520,8.570 2.667,8.068 2.982,7.656 L2.982,7.656 ZM14.827,10.713 C14.827,10.713 12.252,14.647 14.827,14.999 C14.827,14.999 17.465,14.893 14.827,10.713 L14.827,10.713 Z"/>
</svg>
