<svg 
 xmlns="http://www.w3.org/2000/svg"
 xmlns:xlink="http://www.w3.org/1999/xlink"
 width="15px" height="12px">
<path fill-rule="evenodd"  fill="rgb(255, 255, 255)"
 d="M14.507,5.823 L12.686,5.823 C12.392,5.823 12.193,5.612 12.193,5.299 C12.193,4.986 12.392,4.775 12.686,4.775 L14.507,4.775 C14.801,4.775 15.000,4.982 15.000,5.299 C15.000,5.616 14.805,5.823 14.507,5.823 L14.507,5.823 ZM13.675,1.639 L11.053,1.639 C10.759,1.639 10.560,1.431 10.560,1.115 C10.560,0.798 10.759,0.590 11.053,0.590 L13.675,0.590 C13.973,0.590 14.168,0.801 14.168,1.115 C14.168,1.428 13.970,1.639 13.675,1.639 L13.675,1.639 ZM10.759,4.359 C10.954,4.465 11.252,4.567 11.549,4.673 C11.748,4.673 11.943,4.880 11.943,5.197 L11.943,6.767 C11.943,6.978 11.745,7.291 11.549,7.291 C11.057,7.397 10.659,7.604 10.266,8.023 C9.872,8.442 9.674,9.068 9.674,9.593 C9.674,9.906 9.674,10.117 9.773,10.430 C9.872,10.638 9.773,10.955 9.574,11.057 L8.291,11.894 C8.092,11.894 7.996,12.000 7.897,12.000 C7.798,12.000 7.599,11.894 7.503,11.792 C7.110,11.268 6.418,10.955 5.826,10.955 C5.135,10.955 4.542,11.268 4.149,11.792 C3.950,12.000 3.752,12.000 3.557,11.898 L2.269,11.053 C2.074,10.948 1.975,10.635 2.074,10.427 C2.269,10.008 2.269,9.484 2.174,8.963 C1.972,8.333 1.674,7.812 1.085,7.495 C0.887,7.390 0.592,7.288 0.394,7.182 C0.198,7.182 -0.000,6.974 -0.000,6.658 L-0.000,5.088 C-0.000,4.880 0.198,4.564 0.394,4.564 C0.887,4.458 1.284,4.250 1.578,3.937 C1.972,3.522 2.269,2.892 2.269,2.265 C2.269,1.952 2.269,1.741 2.170,1.428 C2.071,1.220 2.170,0.903 2.369,0.801 L3.649,0.069 C3.847,-0.036 4.142,-0.036 4.241,0.175 C4.635,0.699 5.326,1.013 5.918,1.013 C6.610,1.013 7.202,0.699 7.695,0.175 C7.894,-0.033 8.089,-0.033 8.287,0.069 L9.571,0.907 C9.769,1.013 9.869,1.326 9.769,1.533 C9.571,2.058 9.571,2.477 9.769,2.997 C9.968,3.627 10.262,4.043 10.759,4.359 L10.759,4.359 ZM8.756,3.275 C8.561,2.751 8.561,2.125 8.657,1.600 L8.065,1.181 C7.473,1.808 6.682,2.125 5.891,2.125 C5.100,2.125 4.313,1.811 3.721,1.181 L3.129,1.600 C3.228,1.811 3.228,2.125 3.228,2.332 C3.228,3.275 2.933,4.110 2.242,4.739 C1.848,5.158 1.451,5.366 0.958,5.577 L0.958,6.309 C1.157,6.411 1.451,6.517 1.650,6.622 C2.341,7.041 2.933,7.773 3.129,8.716 C3.228,9.241 3.327,9.762 3.129,10.392 L3.721,10.810 C4.412,10.078 5.200,9.765 5.990,9.765 C6.877,9.765 7.568,10.078 8.161,10.708 L8.753,10.289 C8.654,10.078 8.654,9.765 8.654,9.557 C8.654,8.720 8.948,7.882 9.543,7.256 C9.937,6.837 10.433,6.524 10.926,6.313 L10.926,5.581 C10.728,5.475 10.433,5.369 10.235,5.267 C9.547,4.845 8.955,4.113 8.756,3.275 L8.756,3.275 ZM5.823,8.540 C4.440,8.540 3.355,7.390 3.355,5.926 C3.355,4.461 4.440,3.311 5.823,3.311 C7.202,3.311 8.291,4.461 8.291,5.926 C8.291,7.390 7.202,8.540 5.823,8.540 L5.823,8.540 ZM5.823,4.461 C5.032,4.461 4.340,5.194 4.340,6.031 C4.340,6.869 5.032,7.601 5.823,7.601 C6.613,7.601 7.301,6.869 7.301,6.031 C7.301,5.194 6.610,4.461 5.823,4.461 L5.823,4.461 ZM11.252,8.963 L13.675,8.963 C13.973,8.963 14.168,9.170 14.168,9.487 C14.168,9.800 13.973,10.012 13.675,10.012 L11.252,10.012 C10.957,10.012 10.759,9.804 10.759,9.487 C10.755,9.170 10.954,8.963 11.252,8.963 L11.252,8.963 Z"/>
</svg>
