<svg 
 xmlns="http://www.w3.org/2000/svg"
 xmlns:xlink="http://www.w3.org/1999/xlink"
 width="15px" height="15px">
<path fill-rule="evenodd"  fill="rgb(255, 255, 255)"
 d="M14.157,11.193 C14.135,11.148 13.602,10.100 12.358,10.117 C11.842,10.126 10.956,10.873 10.427,11.317 L10.237,11.477 C10.153,11.535 10.052,11.570 9.955,11.570 C9.827,11.570 9.699,11.517 9.615,11.410 C9.541,11.319 9.506,11.202 9.517,11.084 C9.529,10.967 9.586,10.858 9.677,10.784 L9.862,10.628 C10.559,10.042 11.516,9.238 12.345,9.224 L12.398,9.224 C14.201,9.224 14.925,10.748 14.955,10.815 C15.057,11.037 14.964,11.304 14.744,11.406 C14.523,11.512 14.259,11.415 14.157,11.193 ZM7.499,12.330 C6.282,12.330 5.294,11.335 5.294,10.109 C5.294,9.401 5.631,8.767 6.183,8.348 C6.183,8.342 6.176,8.338 6.176,8.331 L6.176,1.333 C6.176,0.600 6.771,0.000 7.499,0.000 C8.226,0.000 8.822,0.600 8.822,1.333 L8.822,6.665 C8.822,6.692 8.822,6.719 8.813,6.745 C8.822,6.767 8.822,6.794 8.822,6.821 L8.822,8.331 C8.822,8.338 8.815,8.343 8.814,8.350 C9.361,8.767 9.701,9.407 9.704,10.109 C9.704,11.335 8.716,12.330 7.499,12.330 ZM8.165,8.958 C8.063,8.899 7.989,8.801 7.960,8.687 C7.939,8.609 7.969,8.532 7.991,8.456 C7.977,8.412 7.940,8.380 7.940,8.331 L7.940,6.821 C7.940,6.794 7.944,6.767 7.949,6.741 C7.944,6.714 7.940,6.692 7.940,6.665 L7.940,1.333 C7.940,1.089 7.741,0.889 7.499,0.889 C7.256,0.889 7.058,1.089 7.058,1.333 L7.058,8.331 C7.058,8.403 7.012,8.456 6.981,8.517 C7.012,8.691 6.969,8.872 6.811,8.967 C6.414,9.216 6.176,9.642 6.176,10.109 C6.176,10.842 6.771,11.441 7.499,11.441 C8.226,11.441 8.822,10.842 8.822,10.109 C8.822,9.638 8.570,9.198 8.165,8.958 ZM4.496,11.259 C4.059,10.895 3.116,10.109 2.653,10.109 C1.392,10.113 0.863,11.148 0.841,11.193 C0.761,11.348 0.607,11.441 0.444,11.441 C0.292,11.442 0.151,11.363 0.071,11.234 C-0.010,11.105 -0.019,10.943 0.047,10.806 C0.078,10.739 0.823,9.229 2.648,9.220 L2.653,9.220 C3.376,9.220 4.223,9.877 5.025,10.548 C5.215,10.704 5.254,10.997 5.100,11.188 C4.946,11.375 4.686,11.419 4.496,11.259 ZM3.089,11.441 L3.098,11.441 C4.020,11.441 4.694,12.134 5.351,12.801 C6.008,13.472 6.630,14.107 7.459,14.107 L7.494,14.107 C8.346,14.089 8.976,13.458 9.642,12.792 C10.299,12.134 10.982,11.455 11.904,11.441 C13.712,11.419 14.885,13.352 14.938,13.436 C15.061,13.645 14.995,13.920 14.788,14.045 C14.581,14.169 14.307,14.103 14.184,13.894 C14.166,13.876 13.227,12.330 11.944,12.330 L11.917,12.330 C11.348,12.339 10.846,12.841 10.259,13.427 C9.536,14.151 8.711,14.973 7.508,15.000 C7.490,14.996 7.472,14.996 7.455,14.996 C6.260,14.996 5.444,14.160 4.721,13.423 C4.170,12.863 3.649,12.330 3.094,12.330 L3.089,12.330 C1.789,12.334 0.827,13.880 0.818,13.894 C0.691,14.103 0.422,14.169 0.210,14.040 C0.110,13.979 0.039,13.881 0.012,13.767 C-0.016,13.652 0.003,13.532 0.064,13.432 C0.117,13.352 1.295,11.450 3.089,11.441 Z"/>
</svg>
