<svg 
 xmlns="http://www.w3.org/2000/svg"
 xmlns:xlink="http://www.w3.org/1999/xlink"
 width="15px" height="16px">
<path fill-rule="evenodd"  fill="rgb(255, 255, 255)"
 d="M14.314,16.000 L0.686,16.000 C0.307,16.000 -0.000,15.693 -0.000,15.314 L-0.000,15.213 C-0.000,14.834 0.307,14.527 0.686,14.527 L1.350,14.527 L1.350,11.612 L2.714,8.107 L3.219,7.832 L1.625,6.614 C1.014,6.146 0.871,5.233 1.308,4.577 L3.287,1.602 C3.722,0.945 4.576,0.792 5.189,1.260 L10.742,5.501 C11.354,5.969 11.497,6.882 11.060,7.539 L10.943,7.715 L12.943,9.419 L13.624,14.527 L14.314,14.527 C14.693,14.527 15.000,14.834 15.000,15.213 L15.000,15.314 C15.000,15.693 14.693,16.000 14.314,16.000 ZM3.800,8.275 L3.737,8.480 L2.714,10.151 L2.714,14.527 L4.760,14.527 L4.760,11.612 L6.125,10.151 L6.194,10.103 L3.800,8.275 ZM9.080,10.513 C8.644,11.170 7.791,11.324 7.179,10.855 L6.773,10.546 L6.125,11.612 L6.125,14.527 L8.852,14.527 L8.852,13.073 L8.929,11.299 L9.126,10.444 L9.080,10.513 ZM12.259,10.151 L10.410,8.515 L9.497,9.887 L10.084,11.925 L10.185,14.527 L12.259,14.527 L12.259,10.151 Z"/>
</svg>
