<svg 
 xmlns="http://www.w3.org/2000/svg"
 xmlns:xlink="http://www.w3.org/1999/xlink"
 width="14px" height="14px">
<path fill-rule="evenodd"  fill="rgb(201, 201, 210)"
 d="M3.336,-0.001 C1.464,-0.001 -0.002,1.464 -0.002,3.336 C-0.002,5.208 1.463,6.673 3.336,6.673 L6.673,6.673 L6.673,3.337 C6.673,1.464 5.207,-0.001 3.336,-0.001 L3.336,-0.001 ZM1.056,3.336 C1.056,2.115 2.114,1.057 3.336,1.057 C4.556,1.057 5.614,2.115 5.614,3.336 L5.614,5.615 L3.336,5.615 C2.114,5.615 1.056,4.557 1.056,3.336 L1.056,3.336 ZM10.661,-0.001 C8.789,-0.001 7.324,1.464 7.324,3.336 L7.324,6.673 L10.661,6.673 C12.533,6.673 13.999,5.208 13.999,3.337 C13.999,1.464 12.533,-0.001 10.661,-0.001 L10.661,-0.001 ZM10.661,5.615 L8.382,5.615 L8.382,3.336 C8.382,2.115 9.441,1.057 10.661,1.057 C11.882,1.057 12.941,2.115 12.941,3.336 C12.941,4.557 11.882,5.615 10.661,5.615 L10.661,5.615 ZM3.336,7.325 C1.463,7.325 -0.002,8.790 -0.002,10.661 C-0.002,12.534 1.463,13.999 3.336,13.999 C5.207,13.999 6.673,12.534 6.673,10.662 L6.673,7.325 L3.336,7.325 ZM3.336,12.941 C2.114,12.941 1.056,11.882 1.056,10.662 C1.056,9.441 2.114,8.383 3.336,8.383 L5.614,8.383 L5.614,10.662 C5.614,11.882 4.556,12.941 3.336,12.941 L3.336,12.941 ZM10.661,7.325 L7.324,7.325 L7.324,10.661 C7.324,12.534 8.789,13.999 10.661,13.999 C12.533,13.999 13.999,12.534 13.999,10.662 C13.999,8.790 12.533,7.325 10.661,7.325 L10.661,7.325 ZM10.661,12.941 C9.441,12.941 8.382,11.882 8.382,10.662 L8.382,8.383 L10.661,8.383 C11.882,8.383 12.941,9.441 12.941,10.662 C12.941,11.882 11.882,12.941 10.661,12.941 L10.661,12.941 Z"/>
</svg>
