<svg 
 xmlns="http://www.w3.org/2000/svg"
 xmlns:xlink="http://www.w3.org/1999/xlink"
 width="15px" height="15px">
<path fill-rule="evenodd"  fill="rgb(51, 51, 51)"
 d="M14.838,7.881 C14.730,7.995 14.579,8.060 14.421,8.060 L13.274,8.060 C13.235,8.061 13.203,8.090 13.199,8.128 C12.898,10.780 10.800,12.873 8.143,13.175 C8.102,13.179 8.072,13.212 8.072,13.252 L8.072,14.392 C8.082,14.604 7.977,14.806 7.793,14.916 C7.611,15.026 7.382,15.026 7.200,14.916 C7.017,14.806 6.909,14.604 6.922,14.392 L6.922,13.254 C6.921,13.211 6.888,13.176 6.846,13.172 C4.182,12.867 2.083,10.764 1.791,8.105 C1.788,8.076 1.765,8.055 1.737,8.055 L0.599,8.055 C0.286,8.058 0.025,7.822 -0.004,7.513 C-0.010,7.357 0.049,7.205 0.158,7.093 C0.266,6.980 0.415,6.917 0.572,6.917 L1.702,6.917 C1.749,6.916 1.789,6.880 1.795,6.832 C2.104,4.171 4.223,2.079 6.893,1.796 C6.909,1.795 6.922,1.782 6.922,1.766 L6.922,0.600 C6.916,0.288 7.154,0.025 7.465,-0.002 C7.624,-0.011 7.780,0.046 7.894,0.156 C8.008,0.265 8.072,0.416 8.072,0.573 L8.072,1.762 C8.070,1.768 8.072,1.774 8.077,1.779 C8.081,1.783 8.086,1.785 8.093,1.785 C10.769,2.068 12.890,4.165 13.199,6.832 C13.203,6.875 13.238,6.907 13.281,6.909 L14.393,6.909 C14.707,6.905 14.970,7.144 14.995,7.456 C15.003,7.613 14.946,7.767 14.838,7.881 ZM10.957,7.088 C11.065,6.974 11.215,6.909 11.373,6.909 L11.958,6.909 C11.983,6.909 12.007,6.898 12.023,6.879 C12.038,6.861 12.045,6.837 12.041,6.815 C11.735,4.790 10.126,3.210 8.093,2.937 L8.080,2.950 L8.080,3.579 C8.084,3.891 7.846,4.153 7.534,4.180 C7.377,4.189 7.222,4.132 7.108,4.023 C6.995,3.916 6.930,3.765 6.931,3.607 L6.931,2.957 C6.931,2.950 6.927,2.944 6.922,2.940 C6.916,2.936 6.909,2.936 6.904,2.940 C4.854,3.210 3.235,4.811 2.947,6.854 C2.944,6.868 2.948,6.881 2.957,6.892 C2.968,6.903 2.982,6.909 2.997,6.910 L3.590,6.910 C3.903,6.906 4.164,7.143 4.192,7.452 C4.201,7.610 4.144,7.764 4.035,7.878 C3.926,7.992 3.776,8.057 3.619,8.057 L2.950,8.057 L2.864,8.076 L2.940,8.067 C3.209,10.104 4.800,11.716 6.837,12.017 C6.857,12.020 6.879,12.015 6.895,12.001 C6.912,11.986 6.921,11.965 6.922,11.943 L6.922,11.379 C6.917,11.068 7.154,10.805 7.465,10.778 L7.496,10.778 C7.643,10.776 7.785,10.833 7.893,10.934 C8.007,11.041 8.072,11.192 8.072,11.349 L8.072,11.949 C8.072,11.969 8.079,11.987 8.094,12.000 C8.108,12.012 8.126,12.018 8.144,12.015 C10.154,11.719 11.735,10.149 12.042,8.145 C12.045,8.123 12.038,8.100 12.023,8.084 C12.007,8.066 11.985,8.055 11.961,8.055 L11.403,8.055 C11.091,8.058 10.829,7.822 10.801,7.513 C10.792,7.356 10.849,7.202 10.957,7.088 ZM7.496,8.914 C6.702,8.914 6.059,8.273 6.059,7.481 C6.059,6.689 6.702,6.048 7.496,6.048 C8.289,6.048 8.932,6.689 8.932,7.481 C8.932,8.272 8.289,8.913 7.496,8.914 Z"/>
</svg>
