<svg 
 xmlns="http://www.w3.org/2000/svg"
 xmlns:xlink="http://www.w3.org/1999/xlink"
 width="18px" height="18px">
<path fill-rule="evenodd"  fill="rgb(255, 210, 0)"
 d="M16.479,17.149 L1.519,17.149 C1.140,17.149 0.833,16.842 0.833,16.463 L0.833,16.239 C0.833,15.860 1.140,15.553 1.519,15.553 L2.304,15.553 L2.304,12.395 L3.789,8.597 L4.339,8.298 L2.604,6.980 C1.939,6.473 1.781,5.483 2.258,4.772 L4.413,1.548 C4.888,0.836 5.815,0.671 6.483,1.177 L12.530,5.773 C13.197,6.280 13.353,7.270 12.877,7.981 L12.749,8.172 L14.927,10.019 L15.667,15.553 L16.479,15.553 C16.859,15.553 17.166,15.860 17.166,16.239 L17.166,16.463 C17.166,16.842 16.859,17.149 16.479,17.149 ZM4.972,8.780 L4.904,9.002 L3.789,10.811 L3.789,15.553 L6.016,15.553 L6.016,12.395 L7.504,10.811 L7.578,10.760 L4.972,8.780 ZM10.722,11.204 C10.245,11.916 9.318,12.082 8.650,11.574 L8.209,11.239 L7.504,12.395 L7.504,15.553 L10.472,15.553 L10.472,13.977 L10.556,12.055 L10.770,11.133 L10.722,11.204 ZM14.183,10.811 L12.169,9.039 L11.175,10.527 L11.813,12.733 L11.925,15.553 L14.183,15.553 L14.183,10.811 Z"/>
</svg>
