<svg 
 xmlns="http://www.w3.org/2000/svg"
 xmlns:xlink="http://www.w3.org/1999/xlink"
 width="15px" height="15px">
<path fill-rule="evenodd"  fill="rgb(255, 255, 255)"
 d="M12.857,15.000 L12.857,13.928 L15.000,13.928 L15.000,15.000 L12.857,15.000 ZM11.777,12.855 L3.206,12.855 C1.431,12.855 -0.008,11.416 -0.008,9.641 L-0.007,7.498 L1.063,7.505 L1.063,9.641 C1.063,10.824 2.022,11.784 3.206,11.784 L11.777,11.784 C12.960,11.784 13.920,10.824 13.920,9.641 L13.920,7.498 L14.993,7.498 L14.993,9.641 C14.993,11.416 13.552,12.855 11.777,12.855 ZM7.993,10.549 C7.856,10.678 7.668,10.721 7.488,10.697 C7.310,10.719 7.125,10.675 6.989,10.549 L4.452,8.186 C4.219,7.969 4.219,7.616 4.452,7.399 C4.685,7.182 5.065,7.182 5.298,7.399 L6.864,8.857 L6.421,-0.002 L8.563,-0.002 L8.120,8.856 L9.685,7.399 C9.919,7.182 10.298,7.182 10.531,7.399 C10.764,7.616 10.764,7.969 10.531,8.186 L7.993,10.549 ZM2.143,15.000 L-0.000,15.000 L-0.000,13.928 L2.143,13.928 L2.143,15.000 ZM5.357,15.000 L3.214,15.000 L3.214,13.928 L5.357,13.928 L5.357,15.000 ZM8.571,15.000 L6.428,15.000 L6.428,13.928 L8.571,13.928 L8.571,15.000 ZM11.786,15.000 L9.642,15.000 L9.642,13.928 L11.786,13.928 L11.786,15.000 Z"/>
</svg>
