<svg 
 xmlns="http://www.w3.org/2000/svg"
 xmlns:xlink="http://www.w3.org/1999/xlink"
 width="14px" height="14px">
<path fill-rule="evenodd"  fill="rgb(255, 255, 255)"
 d="M10.995,13.999 L2.995,13.999 C1.338,13.999 -0.005,12.656 -0.005,10.998 L-0.005,2.998 C-0.005,1.342 1.338,-0.002 2.995,-0.002 L10.995,-0.002 C12.652,-0.002 13.996,1.342 13.996,2.998 L13.996,10.998 C13.996,12.656 12.652,13.999 10.995,13.999 ZM12.994,2.998 C12.994,1.894 12.100,0.998 10.995,0.998 L2.995,0.998 C1.891,0.998 0.995,1.894 0.995,2.998 L0.995,10.998 C0.995,12.103 1.891,12.999 2.995,12.999 L10.995,12.999 C12.100,12.999 12.994,12.103 12.994,10.998 L12.994,2.998 ZM9.995,8.998 L10.995,8.998 L10.995,10.998 L9.995,10.998 L9.995,8.998 ZM9.995,5.999 L10.995,5.999 L10.995,7.999 L9.995,7.999 L9.995,5.999 ZM9.995,2.998 L10.995,2.998 L10.995,4.999 L9.995,4.999 L9.995,2.998 ZM5.996,9.999 L7.995,9.999 L7.995,10.998 L5.996,10.998 L5.996,9.999 ZM5.996,2.998 L7.995,2.998 L7.995,3.999 L5.996,3.999 L5.996,2.998 ZM2.995,8.998 L3.995,8.998 L3.995,10.998 L2.995,10.998 L2.995,8.998 ZM2.995,5.999 L3.995,5.999 L3.995,7.999 L2.995,7.999 L2.995,5.999 ZM2.995,2.998 L3.995,2.998 L3.995,4.999 L2.995,4.999 L2.995,2.998 Z"/>
</svg>
