<svg 
 xmlns="http://www.w3.org/2000/svg"
 xmlns:xlink="http://www.w3.org/1999/xlink"
 width="15px" height="10px">
<path fill-rule="evenodd"  fill="rgb(51, 51, 51)"
 d="M14.993,0.871 C15.032,1.112 14.881,1.341 14.651,1.392 L14.465,1.420 L14.276,1.453 C13.902,1.520 13.536,1.624 13.175,1.746 L14.048,5.820 C14.101,6.151 13.933,6.479 13.638,6.618 C13.604,6.634 13.569,6.646 13.532,6.653 C13.488,6.662 13.417,6.677 13.324,6.700 L13.204,6.732 C12.954,6.799 12.708,6.883 12.469,6.986 L12.409,7.013 C12.292,7.066 12.177,7.126 12.061,7.192 C11.991,7.233 11.784,7.378 11.578,7.508 L11.443,7.590 L11.437,7.597 C11.421,7.617 11.400,7.634 11.376,7.646 L11.358,7.654 L11.313,7.697 L11.112,7.747 L1.192,7.747 C0.956,7.746 0.735,7.626 0.601,7.426 C0.463,7.223 0.433,6.962 0.522,6.732 L0.580,6.568 C0.592,6.532 0.606,6.495 0.618,6.463 L0.670,6.331 C1.058,5.365 1.574,4.460 2.206,3.644 C2.835,2.834 3.564,2.146 4.401,1.619 C4.966,1.264 5.421,1.024 6.011,0.799 L6.206,0.723 C7.444,0.251 8.813,-0.000 10.319,-0.000 C10.995,0.001 11.670,0.048 12.340,0.140 C12.638,0.180 12.882,0.406 12.953,0.709 L12.987,0.866 C13.286,0.769 13.583,0.662 13.890,0.598 L14.145,0.547 C14.300,0.519 14.424,0.501 14.509,0.491 C14.742,0.463 14.955,0.631 14.993,0.871 ZM11.949,1.012 C11.485,0.958 11.027,0.926 10.584,0.917 L10.319,0.915 C8.843,0.915 7.519,1.172 6.323,1.655 L6.165,1.717 C5.703,1.904 5.327,2.107 4.859,2.401 C4.115,2.870 3.461,3.487 2.893,4.218 C2.289,5.000 1.799,5.869 1.439,6.799 L1.425,6.833 L10.912,6.882 L10.899,6.893 L10.966,6.870 L11.113,6.823 C11.006,6.823 11.019,6.802 10.977,6.830 L11.082,6.753 C11.259,6.623 11.443,6.503 11.632,6.393 C11.770,6.313 11.910,6.240 12.054,6.175 L12.128,6.142 C12.402,6.022 12.692,5.925 12.981,5.846 L13.142,5.805 L12.119,1.033 L11.949,1.012 ZM14.509,0.491 C14.509,0.491 14.509,0.491 14.509,0.491 C14.508,0.491 14.508,0.491 14.508,0.491 L14.509,0.491 ZM11.468,9.519 C11.480,9.761 11.307,9.971 11.074,9.997 L11.029,10.000 L0.443,10.000 C0.207,10.001 0.012,9.810 0.000,9.566 C-0.012,9.321 0.163,9.111 0.397,9.087 L0.443,9.084 L11.029,9.084 C11.263,9.085 11.456,9.276 11.468,9.519 Z"/>
</svg>
