<svg 
 xmlns="http://www.w3.org/2000/svg"
 xmlns:xlink="http://www.w3.org/1999/xlink"
 width="14px" height="14px">
<path fill-rule="evenodd"  fill="rgb(51, 51, 51)"
 d="M11.300,7.694 L11.300,6.302 L6.297,11.306 L7.690,11.306 L11.300,7.694 ZM11.300,8.456 L8.450,11.306 L11.300,11.306 L11.300,8.456 ZM11.300,5.541 L11.300,3.072 L3.066,11.306 L5.535,11.306 L11.300,5.541 ZM10.920,2.691 L8.989,2.691 L2.686,8.994 L2.686,10.925 L10.920,2.691 ZM8.227,2.691 L6.297,2.691 L2.686,6.302 L2.686,8.233 L8.227,2.691 ZM5.535,2.691 L2.686,2.691 L2.686,5.541 L5.535,2.691 ZM2.146,0.536 L0.532,0.536 L0.532,2.152 L2.146,2.152 L2.146,0.536 ZM2.686,0.536 L2.686,2.152 L11.300,2.152 L11.300,0.536 L2.686,0.536 ZM11.839,0.536 L11.839,2.152 L13.456,2.152 L13.456,0.536 L11.839,0.536 ZM13.456,2.691 L11.839,2.691 L11.839,11.306 L13.456,11.306 L13.456,2.691 ZM13.456,11.844 L11.839,11.844 L11.839,13.460 L13.456,13.460 L13.456,11.844 ZM11.300,13.460 L11.300,11.844 L2.686,11.844 L2.686,13.460 L11.300,13.460 ZM2.146,13.460 L2.146,11.844 L0.532,11.844 L0.532,13.460 L2.146,13.460 ZM0.532,11.306 L2.146,11.306 L2.146,2.691 L0.532,2.691 L0.532,11.306 ZM0.532,-0.002 L13.456,-0.002 C13.751,-0.002 13.994,0.239 13.994,0.536 L13.994,13.460 C13.994,13.757 13.751,13.999 13.456,13.999 L0.532,13.999 C0.234,13.999 -0.007,13.757 -0.007,13.460 L-0.007,0.536 C-0.007,0.239 0.234,-0.002 0.532,-0.002 L0.532,-0.002 ZM5.377,1.075 L9.146,1.075 L9.146,1.614 L5.377,1.614 L5.377,1.075 ZM5.377,12.383 L9.146,12.383 L9.146,12.922 L5.377,12.922 L5.377,12.383 ZM1.070,5.383 L1.608,5.383 L1.608,9.152 L1.070,9.152 L1.070,5.383 ZM12.378,5.383 L12.917,5.383 L12.917,9.152 L12.378,9.152 L12.378,5.383 Z"/>
</svg>
