<svg 
 xmlns="http://www.w3.org/2000/svg"
 xmlns:xlink="http://www.w3.org/1999/xlink"
 width="12px" height="12px">
<path fill-rule="evenodd"  fill="rgb(51, 51, 51)"
 d="M6.008,1.714 C3.637,1.714 1.717,3.632 1.717,6.000 C1.717,8.368 3.637,10.286 6.008,10.286 C8.084,10.286 9.817,8.812 10.214,6.857 L6.867,6.857 C6.392,6.857 6.008,6.474 6.008,6.000 C6.008,5.526 6.392,5.143 6.867,5.143 L10.729,5.143 C11.421,5.143 12.060,5.716 11.995,6.498 C11.743,9.578 9.157,12.000 6.008,12.000 C2.690,12.000 -0.000,9.313 -0.000,6.000 C-0.000,2.687 2.690,-0.000 6.008,-0.000 C7.548,-0.000 8.951,0.579 10.013,1.527 C10.367,1.843 10.397,2.384 10.080,2.737 C9.764,3.091 9.222,3.120 8.868,2.804 C8.109,2.127 7.108,1.714 6.008,1.714 L6.008,1.714 Z"/>
</svg>
