<svg 
 xmlns="http://www.w3.org/2000/svg"
 xmlns:xlink="http://www.w3.org/1999/xlink"
 width="10px" height="34px">
<path fill-rule="evenodd"  fill="rgb(0, 156, 255)"
 d="M5.000,-0.000 C7.761,-0.000 10.000,2.239 10.000,5.000 C10.000,7.761 7.761,10.000 5.000,10.000 C2.238,10.000 -0.001,7.761 -0.001,5.000 C-0.001,2.239 2.238,-0.000 5.000,-0.000 Z"/>
<path fill-rule="evenodd"  fill="rgb(149, 149, 156)"
 d="M5.000,12.000 C7.761,12.000 10.000,14.239 10.000,17.000 C10.000,19.761 7.761,22.000 5.000,22.000 C2.238,22.000 -0.001,19.761 -0.001,17.000 C-0.001,14.239 2.238,12.000 5.000,12.000 Z"/>
<path fill-rule="evenodd"  fill="rgb(149, 149, 156)"
 d="M5.000,24.000 C7.761,24.000 10.000,26.239 10.000,29.000 C10.000,31.761 7.761,34.000 5.000,34.000 C2.238,34.000 -0.001,31.761 -0.001,29.000 C-0.001,26.239 2.238,24.000 5.000,24.000 Z"/>
</svg>
