<svg 
 xmlns="http://www.w3.org/2000/svg"
 xmlns:xlink="http://www.w3.org/1999/xlink"
 width="34px" height="10px">
<path fill-rule="evenodd"  fill="rgb(0, 156, 255)"
 d="M5.000,-0.000 C7.761,-0.000 10.000,2.239 10.000,5.000 C10.000,7.761 7.761,10.000 5.000,10.000 C2.238,10.000 -0.001,7.761 -0.001,5.000 C-0.001,2.239 2.238,-0.000 5.000,-0.000 Z"/>
<path fill-rule="evenodd"  fill="rgb(169, 169, 177)"
 d="M17.000,-0.000 C19.761,-0.000 21.999,2.239 21.999,5.000 C21.999,7.761 19.761,10.000 17.000,10.000 C14.238,10.000 12.000,7.761 12.000,5.000 C12.000,2.239 14.238,-0.000 17.000,-0.000 Z"/>
<path fill-rule="evenodd"  fill="rgb(169, 169, 177)"
 d="M28.999,-0.000 C31.761,-0.000 34.000,2.239 34.000,5.000 C34.000,7.761 31.761,10.000 28.999,10.000 C26.238,10.000 24.000,7.761 24.000,5.000 C24.000,2.239 26.238,-0.000 28.999,-0.000 Z"/>
</svg>
