<svg 
 xmlns="http://www.w3.org/2000/svg"
 xmlns:xlink="http://www.w3.org/1999/xlink"
 width="23px" height="21px">
<path fill-rule="evenodd"  fill="rgb(0, 156, 255)"
 d="M12.000,-0.000 C14.761,-0.000 17.000,2.238 17.000,5.000 C17.000,7.761 14.761,10.000 12.000,10.000 C9.238,10.000 7.000,7.761 7.000,5.000 C7.000,2.238 9.238,-0.000 12.000,-0.000 Z"/>
<path fill-rule="evenodd"  fill="rgb(149, 149, 156)"
 d="M5.000,11.000 C7.761,11.000 10.000,13.239 10.000,16.000 C10.000,18.761 7.761,21.000 5.000,21.000 C2.238,21.000 -0.000,18.761 -0.000,16.000 C-0.000,13.239 2.238,11.000 5.000,11.000 Z"/>
<path fill-rule="evenodd"  fill="rgb(149, 149, 156)"
 d="M18.000,11.000 C20.761,11.000 22.999,13.239 22.999,16.000 C22.999,18.761 20.761,21.000 18.000,21.000 C15.238,21.000 13.000,18.761 13.000,16.000 C13.000,13.239 15.238,11.000 18.000,11.000 Z"/>
</svg>
