<svg 
 xmlns="http://www.w3.org/2000/svg"
 xmlns:xlink="http://www.w3.org/1999/xlink"
 width="10px" height="34px">
<path fill-rule="evenodd"  fill="rgb(0, 156, 255)"
 d="M4.999,-0.000 C7.761,-0.000 10.000,2.239 10.000,5.000 C10.000,7.761 7.761,10.000 4.999,10.000 C2.238,10.000 -0.000,7.761 -0.000,5.000 C-0.000,2.239 2.238,-0.000 4.999,-0.000 Z"/>
<path fill-rule="evenodd"  fill="rgb(169, 169, 177)"
 d="M4.999,12.000 C7.761,12.000 10.000,14.239 10.000,17.000 C10.000,19.761 7.761,22.000 4.999,22.000 C2.238,22.000 -0.000,19.761 -0.000,17.000 C-0.000,14.239 2.238,12.000 4.999,12.000 Z"/>
<path fill-rule="evenodd"  fill="rgb(169, 169, 177)"
 d="M4.999,24.000 C7.761,24.000 10.000,26.239 10.000,29.000 C10.000,31.761 7.761,34.000 4.999,34.000 C2.238,34.000 -0.000,31.761 -0.000,29.000 C-0.000,26.239 2.238,24.000 4.999,24.000 Z"/>
</svg>
