<svg 
 xmlns="http://www.w3.org/2000/svg"
 xmlns:xlink="http://www.w3.org/1999/xlink"
 width="23px" height="21px">
<path fill-rule="evenodd"  fill="rgb(0, 156, 255)"
 d="M12.000,-0.000 C14.761,-0.000 17.000,2.238 17.000,5.000 C17.000,7.761 14.761,10.000 12.000,10.000 C9.239,10.000 6.999,7.761 6.999,5.000 C6.999,2.238 9.239,-0.000 12.000,-0.000 Z"/>
<path fill-rule="evenodd"  fill="rgb(169, 169, 177)"
 d="M5.000,11.000 C7.761,11.000 10.000,13.238 10.000,16.000 C10.000,18.761 7.761,21.000 5.000,21.000 C2.239,21.000 -0.000,18.761 -0.000,16.000 C-0.000,13.238 2.239,11.000 5.000,11.000 Z"/>
<path fill-rule="evenodd"  fill="rgb(169, 169, 177)"
 d="M18.000,11.000 C20.761,11.000 23.000,13.238 23.000,16.000 C23.000,18.761 20.761,21.000 18.000,21.000 C15.238,21.000 13.000,18.761 13.000,16.000 C13.000,13.238 15.238,11.000 18.000,11.000 Z"/>
</svg>
