<svg xmlns="http://www.w3.org/2000/svg" width="1em" height="1em" viewBox="0 0 36 36" fill="none"><path d="M17.5247 3.06967C17.6747 2.60974 18.3253 2.60974 18.4754 3.06967L21.7849 13.2159C21.9862 13.8331 22.5618 14.2508 23.211 14.2508H33.9126C34.3974 14.2508 34.5985 14.8716 34.2058 15.1558L25.5546 21.4169C25.0269 21.7988 24.806 22.4778 25.008 23.0972L28.314 33.2326C28.4642 33.6929 27.9378 34.0766 27.5455 33.7927L18.8794 27.5208C18.3547 27.141 17.6453 27.141 17.1206 27.5208L8.45446 33.7927C8.06223 34.0766 7.53582 33.6929 7.68597 33.2326L10.992 23.0972C11.194 22.4778 10.9731 21.7988 10.4454 21.4169L1.79423 15.1558C1.40147 14.8716 1.60254 14.2508 2.08738 14.2508H12.789C13.4382 14.2508 14.0138 13.8331 14.2151 13.2159L17.5247 3.06967Z" fill="currentColor" stroke="currentColor" stroke-linejoin="round"></path></svg>