<svg 
 xmlns="http://www.w3.org/2000/svg"
 xmlns:xlink="http://www.w3.org/1999/xlink"
 width="182.5px" height="147.5px">
<path fill-rule="evenodd"  fill="none"
 d="M-0.000,135.000 L10.000,135.000 L10.000,147.000 L-0.000,147.000 L-0.000,135.000 Z"/>
<path fill-rule="evenodd"  fill="rgb(23, 204, 95)"
 d="M143.011,106.749 C145.149,105.601 146.163,103.607 145.969,101.724 C146.177,99.731 145.149,97.847 143.011,96.698 L96.923,72.028 C94.882,70.879 92.438,70.353 89.993,70.353 C87.549,70.353 85.091,70.879 83.050,72.028 L36.962,96.602 C34.823,97.750 33.907,99.744 34.004,101.627 C33.907,103.620 34.823,105.601 36.962,106.749 L83.050,131.336 C85.091,132.486 87.536,133.011 89.993,133.011 C92.438,133.011 94.882,132.486 96.923,131.336 L143.011,106.749 Z"/>
<path fill-rule="evenodd"  fill="rgb(18, 177, 81)"
 d="M143.011,103.420 C145.149,102.271 146.163,100.278 145.969,98.395 C146.177,96.402 145.149,94.518 143.011,93.369 L96.923,68.699 C94.882,67.550 92.438,67.024 89.993,67.024 C87.549,67.024 85.091,67.550 83.050,68.699 L36.962,93.273 C34.823,94.422 33.907,96.415 34.004,98.298 C33.907,100.291 34.823,102.271 36.962,103.420 L83.050,128.007 C85.091,129.156 87.536,129.682 89.993,129.682 C92.438,129.682 94.882,129.156 96.923,128.007 L143.011,103.420 Z"/>
<path fill-rule="evenodd"  fill="rgb(23, 204, 95)"
 d="M143.011,102.155 C145.149,101.005 146.163,99.012 145.969,97.129 C146.177,95.136 145.149,93.253 143.011,92.103 L96.923,67.433 C94.882,66.284 92.438,65.758 89.993,65.758 C87.549,65.758 85.091,66.284 83.050,67.433 L36.962,92.007 C34.823,93.156 33.907,95.149 34.004,97.032 C33.907,99.025 34.823,101.005 36.962,102.155 L83.050,126.741 C85.091,127.890 87.536,128.416 89.993,128.416 C92.438,128.416 94.882,127.890 96.923,126.741 L143.011,102.155 Z"/>
<path fill-rule="evenodd"  fill="rgb(98, 98, 98)"
 d="M143.011,98.420 C145.149,97.271 146.163,95.278 145.969,93.395 C146.177,91.402 145.149,89.518 143.011,88.369 L96.923,63.699 C94.882,62.550 92.438,62.024 89.993,62.024 C87.549,62.024 85.091,62.550 83.050,63.699 L36.962,88.273 C34.823,89.422 33.907,91.415 34.004,93.298 C33.907,95.291 34.823,97.271 36.962,98.420 L83.050,123.007 C85.091,124.156 87.536,124.682 89.993,124.682 C92.438,124.682 94.882,124.156 96.923,123.007 L143.011,98.420 Z"/>
<path fill-rule="evenodd"  fill="rgb(127, 127, 127)"
 d="M143.011,97.154 C145.149,96.005 146.163,94.012 145.969,92.129 C146.177,90.136 145.149,88.253 143.011,87.103 L96.923,62.434 C94.882,61.284 92.438,60.758 89.993,60.758 C87.549,60.758 85.091,61.284 83.050,62.434 L36.962,87.007 C34.823,88.156 33.907,90.150 34.004,92.032 C33.907,94.025 34.823,96.005 36.962,97.154 L83.050,121.741 C85.091,122.890 87.536,123.417 89.993,123.417 C92.438,123.417 94.882,122.890 96.923,121.741 L143.011,97.154 Z"/>
<path fill-rule="evenodd"  fill="rgb(98, 98, 98)"
 d="M143.011,93.420 C145.149,92.271 146.163,90.278 145.969,88.395 C146.177,86.402 145.149,84.519 143.011,83.369 L96.923,58.699 C94.882,57.550 92.438,57.024 89.993,57.024 C87.549,57.024 85.091,57.550 83.050,58.699 L36.962,83.273 C34.823,84.422 33.907,86.415 34.004,88.298 C33.907,90.291 34.823,92.271 36.962,93.420 L83.050,118.007 C85.091,119.156 87.536,119.682 89.993,119.682 C92.438,119.682 94.882,119.156 96.923,118.007 L143.011,93.420 Z"/>
<path fill-rule="evenodd"  fill="rgb(127, 127, 127)"
 d="M143.011,92.154 C145.149,91.006 146.163,89.012 145.969,87.129 C146.177,85.136 145.149,83.253 143.011,82.103 L96.923,57.434 C94.882,56.284 92.438,55.758 89.993,55.758 C87.549,55.758 85.091,56.284 83.050,57.434 L36.962,82.006 C34.823,83.156 33.907,85.149 34.004,87.032 C33.907,89.025 34.823,91.006 36.962,92.154 L83.050,116.741 C85.091,117.891 87.536,118.416 89.993,118.416 C92.438,118.416 94.882,117.891 96.923,116.741 L143.011,92.154 Z"/>
<path fill-rule="evenodd"  fill="rgb(98, 98, 98)"
 d="M143.011,88.420 C145.149,87.271 146.163,85.278 145.969,83.395 C146.177,81.402 145.149,79.518 143.011,78.369 L96.923,53.699 C94.882,52.550 92.438,52.024 89.993,52.024 C87.549,52.024 85.091,52.550 83.050,53.699 L36.962,78.272 C34.823,79.422 33.907,81.415 34.004,83.298 C33.907,85.291 34.823,87.271 36.962,88.420 L83.050,113.007 C85.091,114.156 87.536,114.682 89.993,114.682 C92.438,114.682 94.882,114.156 96.923,113.007 L143.011,88.420 Z"/>
<path fill-rule="evenodd"  fill="rgb(127, 127, 127)"
 d="M143.011,87.154 C145.149,86.005 146.163,84.012 145.969,82.129 C146.177,80.136 145.149,78.253 143.011,77.103 L96.923,52.433 C94.882,51.284 92.438,50.758 89.993,50.758 C87.549,50.758 85.091,51.284 83.050,52.433 L36.962,77.006 C34.823,78.156 33.907,80.149 34.004,82.032 C33.907,84.025 34.823,86.005 36.962,87.154 L83.050,111.741 C85.091,112.891 87.536,113.416 89.993,113.416 C92.438,113.416 94.882,112.891 96.923,111.741 L143.011,87.154 Z"/>
<path fill-rule="evenodd"  fill="rgb(98, 98, 98)"
 d="M143.011,83.420 C145.149,82.271 146.163,80.278 145.969,78.395 C146.177,76.402 145.149,74.518 143.011,73.369 L96.923,48.699 C94.882,47.550 92.438,47.024 89.993,47.024 C87.549,47.024 85.091,47.550 83.050,48.699 L36.962,73.273 C34.823,74.422 33.907,76.415 34.004,78.298 C33.907,80.291 34.823,82.271 36.962,83.420 L83.050,108.007 C85.091,109.156 87.536,109.682 89.993,109.682 C92.438,109.682 94.882,109.156 96.923,108.007 L143.011,83.420 Z"/>
<path fill-rule="evenodd"  fill="rgb(127, 127, 127)"
 d="M143.011,82.154 C145.149,81.005 146.163,79.012 145.969,77.129 C146.177,75.136 145.149,73.253 143.011,72.103 L96.923,47.434 C94.882,46.284 92.438,45.758 89.993,45.758 C87.549,45.758 85.091,46.284 83.050,47.434 L36.962,72.007 C34.823,73.156 33.907,75.149 34.004,77.032 C33.907,79.026 34.823,81.005 36.962,82.154 L83.050,106.741 C85.091,107.891 87.536,108.416 89.993,108.416 C92.438,108.416 94.882,107.891 96.923,106.741 L143.011,82.154 Z"/>
<path fill-rule="evenodd"  fill="rgb(98, 98, 98)"
 d="M143.011,78.420 C145.149,77.271 146.163,75.278 145.969,73.395 C146.177,71.402 145.149,69.518 143.011,68.369 L96.923,43.699 C94.882,42.550 92.438,42.024 89.993,42.024 C87.549,42.024 85.091,42.550 83.050,43.699 L36.962,68.273 C34.823,69.421 33.907,71.415 34.004,73.298 C33.907,75.291 34.823,77.271 36.962,78.420 L83.050,103.007 C85.091,104.156 87.536,104.682 89.993,104.682 C92.438,104.682 94.882,104.156 96.923,103.007 L143.011,78.420 Z"/>
<path fill-rule="evenodd"  fill="rgb(127, 127, 127)"
 d="M143.011,77.155 C145.149,76.005 146.163,74.012 145.969,72.129 C146.177,70.136 145.149,68.252 143.011,67.103 L96.923,42.433 C94.882,41.284 92.438,40.758 89.993,40.758 C87.549,40.758 85.091,41.284 83.050,42.433 L36.962,67.007 C34.823,68.155 33.907,70.149 34.004,72.032 C33.907,74.026 34.823,76.005 36.962,77.155 L83.050,101.741 C85.091,102.891 87.536,103.417 89.993,103.417 C92.438,103.417 94.882,102.891 96.923,101.741 L143.011,77.155 Z"/>
<path fill-rule="evenodd"  fill="rgb(98, 98, 98)"
 d="M143.011,73.420 C145.149,72.271 146.163,70.278 145.969,68.395 C146.177,66.402 145.149,64.518 143.011,63.369 L96.923,38.699 C94.882,37.550 92.438,37.024 89.993,37.024 C87.549,37.024 85.091,37.550 83.050,38.699 L36.962,63.273 C34.823,64.422 33.907,66.415 34.004,68.298 C33.907,70.291 34.823,72.271 36.962,73.420 L83.050,98.007 C85.091,99.156 87.536,99.682 89.993,99.682 C92.438,99.682 94.882,99.156 96.923,98.007 L143.011,73.420 Z"/>
<path fill-rule="evenodd"  fill="rgb(127, 127, 127)"
 d="M143.011,72.154 C145.149,71.006 146.163,69.012 145.969,67.129 C146.177,65.136 145.149,63.252 143.011,62.103 L96.923,37.433 C94.882,36.284 92.438,35.758 89.993,35.758 C87.549,35.758 85.091,36.284 83.050,37.433 L36.962,62.007 C34.823,63.156 33.907,65.149 34.004,67.032 C33.907,69.025 34.823,71.006 36.962,72.154 L83.050,96.741 C85.091,97.891 87.536,98.417 89.993,98.417 C92.438,98.417 94.882,97.891 96.923,96.741 L143.011,72.154 Z"/>
<path fill-rule="evenodd"  fill="rgb(98, 98, 98)"
 d="M143.011,68.420 C145.149,67.271 146.163,65.278 145.969,63.395 C146.177,61.402 145.149,59.519 143.011,58.369 L96.923,33.699 C94.882,32.550 92.438,32.024 89.993,32.024 C87.549,32.024 85.091,32.550 83.050,33.699 L36.962,58.273 C34.823,59.422 33.907,61.415 34.004,63.298 C33.907,65.291 34.823,67.271 36.962,68.420 L83.050,93.007 C85.091,94.156 87.536,94.682 89.993,94.682 C92.438,94.682 94.882,94.156 96.923,93.007 L143.011,68.420 Z"/>
<path fill-rule="evenodd"  fill="rgb(127, 127, 127)"
 d="M143.011,67.155 C145.149,66.005 146.163,64.012 145.969,62.129 C146.177,60.136 145.149,58.253 143.011,57.103 L96.923,32.434 C94.882,31.284 92.438,30.758 89.993,30.758 C87.549,30.758 85.091,31.284 83.050,32.434 L36.962,57.007 C34.823,58.156 33.907,60.149 34.004,62.032 C33.907,64.025 34.823,66.005 36.962,67.155 L83.050,91.741 C85.091,92.891 87.536,93.416 89.993,93.416 C92.438,93.416 94.882,92.891 96.923,91.741 L143.011,67.155 Z"/>
<path fill-rule="evenodd"  fill="rgb(98, 98, 98)"
 d="M143.011,63.420 C145.149,62.271 146.163,60.278 145.969,58.395 C146.177,56.402 145.149,54.518 143.011,53.369 L96.923,28.699 C94.882,27.550 92.438,27.024 89.993,27.024 C87.549,27.024 85.091,27.550 83.050,28.699 L36.962,53.273 C34.823,54.422 33.907,56.415 34.004,58.298 C33.907,60.291 34.823,62.271 36.962,63.420 L83.050,88.007 C85.091,89.156 87.536,89.682 89.993,89.682 C92.438,89.682 94.882,89.156 96.923,88.007 L143.011,63.420 Z"/>
<path fill-rule="evenodd"  fill="rgb(127, 127, 127)"
 d="M143.011,62.154 C145.149,61.005 146.163,59.012 145.969,57.129 C146.177,55.136 145.149,53.253 143.011,52.103 L96.923,27.433 C94.882,26.284 92.438,25.758 89.993,25.758 C87.549,25.758 85.091,26.284 83.050,27.433 L36.962,52.006 C34.823,53.156 33.907,55.149 34.004,57.032 C33.907,59.025 34.823,61.005 36.962,62.154 L83.050,86.741 C85.091,87.890 87.536,88.416 89.993,88.416 C92.438,88.416 94.882,87.890 96.923,86.741 L143.011,62.154 Z"/>
<path fill-rule="evenodd"  fill="rgb(98, 98, 98)"
 d="M143.011,58.420 C145.149,57.271 146.163,55.278 145.969,53.395 C146.177,51.402 145.149,49.518 143.011,48.369 L96.923,23.699 C94.882,22.550 92.438,22.024 89.993,22.024 C87.549,22.024 85.091,22.550 83.050,23.699 L36.962,48.272 C34.823,49.422 33.907,51.415 34.004,53.298 C33.907,55.291 34.823,57.271 36.962,58.420 L83.050,83.007 C85.091,84.156 87.536,84.682 89.993,84.682 C92.438,84.682 94.882,84.156 96.923,83.007 L143.011,58.420 Z"/>
<path fill-rule="evenodd"  fill="rgb(127, 127, 127)"
 d="M143.011,57.154 C145.149,56.006 146.163,54.012 145.969,52.129 C146.177,50.136 145.149,48.253 143.011,47.103 L96.923,22.434 C94.882,21.284 92.438,20.758 89.993,20.758 C87.549,20.758 85.091,21.284 83.050,22.434 L36.962,47.006 C34.823,48.156 33.907,50.149 34.004,52.032 C33.907,54.026 34.823,56.006 36.962,57.154 L83.050,81.741 C85.091,82.891 87.536,83.416 89.993,83.416 C92.438,83.416 94.882,82.891 96.923,81.741 L143.011,57.154 Z"/>
<path fill-rule="evenodd"  fill="rgb(98, 98, 98)"
 d="M143.011,53.420 C145.149,52.271 146.163,50.278 145.969,48.395 C146.177,46.402 145.149,44.519 143.011,43.369 L96.923,18.699 C94.882,17.550 92.438,17.024 89.993,17.024 C87.549,17.024 85.091,17.550 83.050,18.699 L36.962,43.273 C34.823,44.421 33.907,46.415 34.004,48.298 C33.907,50.291 34.823,52.271 36.962,53.420 L83.050,78.007 C85.091,79.156 87.536,79.682 89.993,79.682 C92.438,79.682 94.882,79.156 96.923,78.007 L143.011,53.420 Z"/>
<path fill-rule="evenodd"  fill="rgb(127, 127, 127)"
 d="M143.011,52.155 C145.149,51.006 146.163,49.012 145.969,47.129 C146.177,45.136 145.149,43.253 143.011,42.103 L96.923,17.433 C94.882,16.284 92.438,15.758 89.993,15.758 C87.549,15.758 85.091,16.284 83.050,17.433 L36.962,42.007 C34.823,43.156 33.907,45.149 34.004,47.032 C33.907,49.026 34.823,51.006 36.962,52.155 L83.050,76.741 C85.091,77.891 87.536,78.416 89.993,78.416 C92.438,78.416 94.882,77.891 96.923,76.741 L143.011,52.155 Z"/>
<path fill-rule="evenodd"  fill="rgb(98, 98, 98)"
 d="M143.011,48.420 C145.149,47.271 146.163,45.278 145.969,43.395 C146.177,41.402 145.149,39.518 143.011,38.369 L96.923,13.699 C94.882,12.550 92.438,12.024 89.993,12.024 C87.549,12.024 85.091,12.550 83.050,13.699 L36.962,38.273 C34.823,39.421 33.907,41.415 34.004,43.298 C33.907,45.291 34.823,47.271 36.962,48.420 L83.050,73.007 C85.091,74.156 87.536,74.682 89.993,74.682 C92.438,74.682 94.882,74.156 96.923,73.007 L143.011,48.420 Z"/>
<path fill-rule="evenodd"  fill="rgb(127, 127, 127)"
 d="M143.011,47.155 C145.149,46.005 146.163,44.012 145.969,42.129 C146.177,40.136 145.149,38.252 143.011,37.103 L96.923,12.433 C94.882,11.284 92.438,10.758 89.993,10.758 C87.549,10.758 85.091,11.284 83.050,12.433 L36.962,37.007 C34.823,38.156 33.907,40.149 34.004,42.032 C33.907,44.025 34.823,46.005 36.962,47.155 L83.050,71.741 C85.091,72.891 87.536,73.417 89.993,73.417 C92.438,73.417 94.882,72.891 96.923,71.741 L143.011,47.155 Z"/>
<path fill-rule="evenodd"  fill="rgb(98, 98, 98)"
 d="M143.011,43.420 C145.149,42.271 146.163,40.278 145.969,38.395 C146.177,36.402 145.149,34.518 143.011,33.369 L96.923,8.699 C94.882,7.550 92.438,7.024 89.993,7.024 C87.549,7.024 85.091,7.550 83.050,8.699 L36.962,33.273 C34.823,34.421 33.907,36.415 34.004,38.298 C33.907,40.291 34.823,42.271 36.962,43.420 L83.050,68.007 C85.091,69.156 87.536,69.682 89.993,69.682 C92.438,69.682 94.882,69.156 96.923,68.007 L143.011,43.420 Z"/>
<path fill-rule="evenodd"  fill="rgb(127, 127, 127)"
 d="M143.011,42.155 C145.149,41.005 146.163,39.012 145.969,37.129 C146.177,35.136 145.149,33.252 143.011,32.103 L96.923,7.433 C94.882,6.284 92.438,5.758 89.993,5.758 C87.549,5.758 85.091,6.284 83.050,7.433 L36.962,32.007 C34.823,33.156 33.907,35.149 34.004,37.032 C33.907,39.025 34.823,41.005 36.962,42.155 L83.050,66.741 C85.091,67.890 87.536,68.416 89.993,68.416 C92.438,68.416 94.882,67.890 96.923,66.741 L143.011,42.155 Z"/>
<path fill-rule="evenodd"  fill="rgb(108, 108, 108)"
 d="M143.011,38.420 C145.149,37.271 146.163,35.278 145.969,33.395 C146.177,31.402 145.149,29.518 143.011,28.369 L96.923,3.699 C94.882,2.550 92.438,2.024 89.993,2.024 C87.549,2.024 85.091,2.550 83.050,3.699 L36.962,28.273 C34.823,29.422 33.907,31.415 34.004,33.298 C33.907,35.291 34.823,37.271 36.962,38.420 L83.050,63.007 C85.091,64.156 87.536,64.682 89.993,64.682 C92.438,64.682 94.882,64.156 96.923,63.007 L143.011,38.420 Z"/>
<path fill-rule="evenodd"  fill="rgb(127, 127, 127)"
 d="M143.011,37.155 C145.149,36.005 146.163,34.012 145.969,32.129 C146.177,30.136 145.149,28.252 143.011,27.103 L96.923,2.433 C94.882,1.284 92.438,0.758 89.993,0.758 C87.549,0.758 85.091,1.284 83.050,2.433 L36.962,27.007 C34.823,28.156 33.907,30.149 34.004,32.032 C33.907,34.025 34.823,36.005 36.962,37.155 L83.050,61.741 C85.091,62.890 87.536,63.417 89.993,63.417 C92.438,63.417 94.882,62.890 96.923,61.741 L143.011,37.155 Z"/>
<path fill-rule="evenodd"  stroke="rgb(109, 109, 109)" stroke-width="1px" stroke-linecap="butt" stroke-linejoin="miter" fill="none"
 d="M131.685,36.051 C133.366,35.134 134.164,33.543 134.011,32.040 C134.174,30.450 133.366,28.947 131.685,28.030 L95.459,8.343 C93.854,7.426 91.933,7.006 90.012,7.006 C88.091,7.006 86.159,7.426 84.554,8.343 L48.327,27.952 C46.647,28.869 45.926,30.461 46.002,31.963 C45.926,33.553 46.647,35.134 48.327,36.051 L84.554,55.671 C86.159,56.588 88.080,57.007 90.012,57.007 C91.933,57.007 93.854,56.588 95.459,55.671 L131.685,36.051 Z"/>
<path fill-rule="evenodd"  stroke="rgb(109, 109, 109)" stroke-width="1px" stroke-linecap="butt" stroke-linejoin="miter" fill="none"
 d="M92.457,12.250 L90.852,11.540 L87.108,13.196 L94.597,13.196 L95.934,14.141 L84.433,14.141 L82.025,15.325 L99.144,15.325 L101.284,16.744 L79.618,16.744 L77.746,17.926 L104.226,17.926 L106.901,19.345 L74.536,19.345 L72.129,20.764 L110.111,20.764 L112.251,22.183 L69.186,22.183 L67.314,23.366 L115.728,23.603 L117.868,24.785 L63.570,25.021 L61.430,26.204 L121.345,26.440 L123.217,27.623 L58.487,27.860 L56.347,29.279 L126.100,29.279 L128.240,30.698 L52.602,30.698 L51.634,31.880 L129.519,32.354 L128.775,33.773 L53.137,33.773 L55.010,34.955 L124.822,35.428 L122.682,36.848 L59.290,36.848 L61.162,38.030 L120.007,38.030 L118.403,39.449 L64.639,39.449 L66.244,40.632 L114.123,40.868 L112.251,42.287 L69.989,42.287 L71.861,43.470 L108.773,43.470 L106.901,44.889 L75.339,45.126 L77.211,46.308 L102.622,46.545 L100.749,47.964 L81.758,47.964 L83.630,49.383 L97.272,49.147 L95.667,50.566 L87.642,50.802 L90.852,52.458 L92.724,51.748 "/>
<path fill-rule="evenodd"  opacity="0.302" fill="rgb(0, 0, 0)"
 d="M89.993,133.416 C92.438,133.416 94.882,132.891 96.923,131.741 L143.011,107.155 C145.149,106.005 146.163,104.012 145.969,102.129 C146.177,100.136 146.252,30.145 145.969,32.129 C146.163,35.088 145.137,36.850 142.999,37.999 L101.999,59.999 C99.958,61.148 92.022,64.288 90.999,63.999 C90.990,63.996 91.969,65.686 91.939,66.928 C91.924,67.532 90.907,68.268 90.889,69.119 C90.874,69.781 91.859,70.513 91.842,71.307 C91.827,72.040 90.811,72.825 90.794,73.658 C90.778,74.421 91.762,75.223 91.745,76.061 C91.729,76.875 90.712,77.721 90.696,78.596 C90.677,79.537 91.658,80.509 91.639,81.509 C91.623,82.302 90.607,83.111 90.591,83.936 C90.575,84.813 91.558,85.708 91.540,86.615 C91.530,87.188 90.518,87.767 90.507,88.351 C90.490,89.270 91.473,90.201 91.455,91.140 C91.439,91.989 90.422,92.846 90.406,93.707 C90.390,94.588 91.373,95.474 91.356,96.362 C91.340,97.255 90.323,98.151 90.306,99.046 C90.290,99.895 91.275,100.744 91.259,101.590 C91.245,102.336 90.231,103.081 90.218,103.821 C90.203,104.600 91.189,105.375 91.175,106.145 C91.158,107.032 90.142,107.912 90.126,108.782 C90.110,109.662 91.094,110.532 91.078,111.389 C91.063,112.185 90.049,112.969 90.035,113.740 C90.019,114.589 91.004,115.422 90.990,116.236 C90.975,117.050 89.960,117.844 89.946,118.616 C89.927,119.632 90.909,120.610 90.893,121.542 C90.879,122.280 89.867,122.990 89.854,123.667 C89.839,124.491 90.825,125.267 90.812,125.990 C90.798,126.743 89.786,127.439 89.775,128.068 C89.757,129.015 90.743,129.813 90.732,130.439 C90.713,131.467 89.703,132.033 89.703,132.033 C89.703,132.033 89.886,133.416 89.993,133.416 Z"/>
<path fill-rule="evenodd"  fill="rgb(51, 51, 51)"
 d="M177.411,96.538 L174.764,97.230 L165.940,99.538 L164.396,97.691 L162.631,95.615 L158.440,90.999 L174.102,87.076 L181.823,95.384 L177.411,96.538 ZM173.440,89.615 L162.631,92.384 L165.058,94.922 L166.822,96.768 L175.646,94.692 L177.631,93.999 L173.440,89.615 ZM164.175,98.614 L162.190,99.307 L164.396,101.845 L166.161,103.691 L175.425,101.384 L176.970,100.922 L174.543,98.384 L177.190,97.691 L181.161,102.307 L177.190,103.230 L174.764,103.922 L165.499,106.230 L163.734,104.384 L161.969,102.307 L157.999,97.922 L162.411,96.768 L164.175,98.614 ZM163.734,105.538 L162.190,105.999 L166.381,110.384 L177.190,107.614 L174.764,105.076 L177.190,104.384 L181.381,108.999 L165.499,112.922 L157.999,104.615 L161.969,103.461 L163.734,105.538 Z"/>
</svg>
