<svg 
 xmlns="http://www.w3.org/2000/svg"
 xmlns:xlink="http://www.w3.org/1999/xlink"
 width="197.5px" height="147.5px">
<defs>
<filter id="Filter_0">
                <feOffset in="SourceAlpha" dx="0" dy="-4" />
                <feGaussianBlur result="blurOut" stdDeviation="1" />
                <feFlood flood-color="rgb(56, 56, 61)" result="floodOut" />
                <feComposite operator="out" in="floodOut" in2="blurOut" result="compOut" />
                <feComposite operator="in" in="compOut" in2="SourceAlpha" />
                <feComponentTransfer><feFuncA type="linear" slope="1"/></feComponentTransfer>
                <feBlend mode="normal" in2="SourceGraphic" />
            </filter>

</defs>
<path fill-rule="evenodd"  fill="none"
 d="M-0.001,-0.000 L20.000,-0.000 L20.000,9.000 L-0.001,9.000 L-0.001,-0.000 Z"/>
<path fill-rule="evenodd"  fill="none"
 d="M180.999,139.000 L196.999,139.000 L196.999,147.000 L180.999,147.000 L180.999,139.000 Z"/>
<path fill-rule="evenodd"  fill="rgb(81, 81, 86)"
 d="M97.999,121.000 C106.283,121.000 112.999,124.133 112.999,128.000 C112.999,131.865 106.283,134.999 97.999,134.999 C89.715,134.999 82.999,131.865 82.999,128.000 C82.999,124.133 89.715,121.000 97.999,121.000 Z"/>
<path fill-rule="evenodd"  fill="rgb(81, 81, 86)"
 d="M11.999,75.999 C18.074,75.999 22.999,79.133 22.999,82.999 C22.999,86.866 18.074,89.999 11.999,89.999 C5.923,89.999 0.999,86.866 0.999,82.999 C0.999,79.133 5.923,75.999 11.999,75.999 Z"/>
<path fill-rule="evenodd"  fill="rgb(81, 81, 86)"
 d="M183.999,75.999 C190.074,75.999 194.999,79.133 194.999,82.999 C194.999,86.866 190.074,89.999 183.999,89.999 C177.924,89.999 172.999,86.866 172.999,82.999 C172.999,79.133 177.924,75.999 183.999,75.999 Z"/>
<g filter="url(#Filter_0)">
<path fill-rule="evenodd"  fill="rgb(81, 81, 86)"
 d="M189.828,85.888 C193.532,83.871 195.288,80.371 194.952,77.066 C195.312,73.566 193.532,70.260 189.828,68.242 L109.994,24.932 C106.459,22.914 102.224,21.991 97.991,21.991 C93.757,21.991 89.499,22.914 85.964,24.932 L6.130,68.073 C2.426,70.090 0.839,73.590 1.007,76.895 C0.839,80.395 2.426,83.871 6.130,85.888 L85.964,129.053 C89.499,131.071 93.734,131.994 97.991,131.994 C102.224,131.994 106.459,131.071 109.994,129.053 L189.828,85.888 Z"/>
</g>
<path fill-rule="evenodd"  fill="rgb(204, 198, 23)"
 d="M101.846,82.054 C103.000,81.437 103.548,80.367 103.443,79.356 C103.556,78.287 103.000,77.276 101.846,76.659 L76.966,63.418 C75.865,62.801 74.545,62.519 73.226,62.519 C71.906,62.519 70.579,62.801 69.477,63.418 L44.598,76.607 C43.444,77.224 42.949,78.294 43.001,79.304 C42.949,80.374 43.444,81.437 44.598,82.054 L69.477,95.251 C70.579,95.868 71.899,96.150 73.226,96.150 C74.545,96.150 75.865,95.868 76.966,95.251 L101.846,82.054 Z"/>
<path fill-rule="evenodd"  fill="rgb(143, 139, 17)"
 d="M74.309,96.999 C74.309,96.999 73.229,96.312 73.229,95.389 C73.229,94.434 73.769,93.242 73.769,93.242 L103.459,76.603 L103.999,81.434 L74.309,96.999 Z"/>
<path fill-rule="evenodd"  fill="rgb(23, 204, 95)"
 d="M101.846,79.370 C103.000,78.754 103.548,77.683 103.443,76.673 C103.556,75.603 103.000,74.592 101.846,73.975 L76.966,60.734 C75.865,60.117 74.545,59.835 73.226,59.835 C71.906,59.835 70.579,60.117 69.477,60.734 L44.598,73.924 C43.444,74.540 42.949,75.610 43.001,76.621 C42.949,77.691 43.444,78.754 44.598,79.370 L69.477,92.567 C70.579,93.184 71.899,93.466 73.226,93.466 C74.545,93.466 75.865,93.184 76.966,92.567 L101.846,79.370 Z"/>
<path fill-rule="evenodd"  opacity="0.302" fill="rgb(0, 0, 0)"
 d="M74.309,94.316 C74.309,94.316 73.229,93.629 73.229,92.706 C73.229,91.751 73.769,90.559 73.769,90.559 L103.459,73.920 L103.999,78.750 L74.309,94.316 Z"/>
<path fill-rule="evenodd"  fill="rgb(28, 227, 107)"
 d="M101.846,76.686 C103.000,76.070 103.548,75.000 103.443,73.989 C103.556,72.919 103.000,71.909 101.846,71.292 L76.966,58.050 C75.865,57.434 74.545,57.151 73.226,57.151 C71.906,57.151 70.579,57.434 69.477,58.050 L44.598,71.240 C43.444,71.856 42.949,72.926 43.001,73.937 C42.949,75.007 43.444,76.070 44.598,76.686 L69.477,89.883 C70.579,90.500 71.899,90.782 73.226,90.782 C74.545,90.782 75.865,90.500 76.966,89.883 L101.846,76.686 Z"/>
<path fill-rule="evenodd"  fill="rgb(204, 198, 23)"
 d="M101.846,77.223 C103.000,76.607 103.548,75.537 103.443,74.526 C103.556,73.456 103.000,72.445 101.846,71.828 L76.966,58.587 C75.865,57.970 74.545,57.688 73.226,57.688 C71.906,57.688 70.579,57.970 69.477,58.587 L44.598,71.777 C43.444,72.393 42.949,73.463 43.001,74.474 C42.949,75.544 43.444,76.607 44.598,77.223 L69.477,90.420 C70.579,91.037 71.899,91.319 73.226,91.319 C74.545,91.319 75.865,91.037 76.966,90.420 L101.846,77.223 Z"/>
<path fill-rule="evenodd"  fill="rgb(143, 139, 17)"
 d="M74.309,92.169 C74.309,92.169 73.229,91.482 73.229,90.559 C73.229,89.604 73.769,88.412 73.769,88.412 L103.459,71.773 L103.999,76.603 L74.309,92.169 Z"/>
<path fill-rule="evenodd"  fill="rgb(229, 222, 33)"
 d="M101.846,74.540 C103.000,73.923 103.548,72.853 103.443,71.842 C103.556,70.773 103.000,69.761 101.846,69.145 L76.966,55.903 C75.865,55.286 74.545,55.004 73.226,55.004 C71.906,55.004 70.579,55.286 69.477,55.903 L44.598,69.093 C43.444,69.710 42.949,70.780 43.001,71.790 C42.949,72.860 43.444,73.923 44.598,74.540 L69.477,87.736 C70.579,88.353 71.899,88.635 73.226,88.635 C74.545,88.635 75.865,88.353 76.966,87.736 L101.846,74.540 Z"/>
<path fill-rule="evenodd"  stroke="rgb(204, 198, 23)" stroke-width="1px" stroke-linecap="butt" stroke-linejoin="miter" fill="none"
 d="M95.732,73.947 C96.640,73.455 97.070,72.601 96.987,71.795 C97.076,70.941 96.640,70.134 95.732,69.642 L76.176,59.075 C75.310,58.583 74.272,58.358 73.236,58.358 C72.199,58.358 71.156,58.583 70.290,59.075 L50.734,69.601 C49.826,70.093 49.437,70.947 49.479,71.753 C49.437,72.607 49.826,73.455 50.734,73.947 L70.290,84.478 C71.156,84.970 72.193,85.196 73.236,85.196 C74.272,85.196 75.310,84.970 76.176,84.478 L95.732,73.947 Z"/>
<path fill-rule="evenodd"  fill="rgb(143, 139, 17)"
 d="M51.096,71.772 L72.689,83.044 L94.282,71.772 L72.689,59.964 L51.096,71.772 Z"/>
<path fill-rule="evenodd"  stroke="rgb(204, 198, 23)" stroke-width="1px" stroke-linecap="butt" stroke-linejoin="miter" fill="none"
 d="M73.477,61.172 L72.610,60.791 L70.588,61.680 L74.631,61.680 L75.353,62.188 L69.144,62.188 L67.845,62.822 L77.086,62.822 L78.241,63.584 L66.546,63.584 L65.534,64.219 L79.829,64.219 L81.274,64.981 L63.802,64.981 L62.502,65.742 L83.006,65.742 L84.161,66.504 L60.914,66.504 L59.904,67.139 L86.038,67.266 L87.193,67.900 L57.882,68.027 L56.727,68.662 L89.070,68.789 L90.081,69.424 L55.138,69.551 L53.983,70.313 L91.638,70.313 L92.793,71.074 L51.962,71.074 L51.439,71.709 L93.483,71.963 L93.082,72.725 L52.250,72.725 L53.262,73.359 L90.947,73.613 L89.792,74.375 L55.572,74.375 L56.582,75.010 L88.348,75.010 L87.482,75.771 L58.460,75.771 L59.326,76.406 L85.172,76.533 L84.161,77.295 L61.348,77.295 L62.358,77.929 L82.284,77.929 L81.274,78.691 L64.235,78.818 L65.246,79.453 L78.963,79.580 L77.952,80.341 L67.701,80.341 L68.711,81.103 L76.075,80.976 L75.209,81.738 L70.877,81.865 L72.610,82.754 L73.621,82.372 "/>
<path fill-rule="evenodd"  fill="rgb(23, 204, 95)"
 d="M162.952,72.766 C164.049,72.178 164.570,71.159 164.471,70.197 C164.577,69.178 164.049,68.215 162.952,67.628 L139.296,55.017 C138.248,54.429 136.993,54.160 135.739,54.160 C134.485,54.160 133.223,54.429 132.176,55.017 L108.520,67.578 C107.422,68.165 106.952,69.185 107.001,70.147 C106.952,71.166 107.422,72.178 108.520,72.766 L132.176,85.334 C133.223,85.922 134.478,86.190 135.739,86.190 C136.993,86.190 138.248,85.922 139.296,85.334 L162.952,72.766 Z"/>
<path fill-rule="evenodd"  fill="rgb(20, 144, 65)"
 d="M136.769,87.000 C136.769,87.000 135.743,86.345 135.743,85.466 C135.743,84.557 136.256,83.421 136.256,83.421 L164.486,67.575 L164.999,72.175 L136.769,87.000 Z"/>
<path fill-rule="evenodd"  fill="rgb(23, 204, 95)"
 d="M162.952,70.210 C164.049,69.622 164.570,68.603 164.471,67.641 C164.577,66.622 164.049,65.659 162.952,65.072 L139.296,52.461 C138.248,51.873 136.993,51.604 135.739,51.604 C134.485,51.604 133.223,51.873 132.176,52.461 L108.520,65.023 C107.422,65.610 106.952,66.629 107.001,67.591 C106.952,68.610 107.422,69.622 108.520,70.210 L132.176,82.778 C133.223,83.366 134.478,83.634 135.739,83.634 C136.993,83.634 138.248,83.366 139.296,82.778 L162.952,70.210 Z"/>
<path fill-rule="evenodd"  opacity="0.302" fill="rgb(0, 0, 0)"
 d="M136.769,84.444 C136.769,84.444 135.743,83.789 135.743,82.910 C135.743,82.000 136.256,80.865 136.256,80.865 L164.486,65.019 L164.999,69.620 L136.769,84.444 Z"/>
<path fill-rule="evenodd"  fill="rgb(28, 227, 107)"
 d="M162.952,67.654 C164.049,67.066 164.570,66.047 164.471,65.085 C164.577,64.066 164.049,63.103 162.952,62.516 L139.296,49.905 C138.248,49.318 136.993,49.049 135.739,49.049 C134.485,49.049 133.223,49.318 132.176,49.905 L108.520,62.466 C107.422,63.054 106.952,64.073 107.001,65.035 C106.952,66.054 107.422,67.066 108.520,67.654 L132.176,80.222 C133.223,80.810 134.478,81.078 135.739,81.078 C136.993,81.078 138.248,80.810 139.296,80.222 L162.952,67.654 Z"/>
<path fill-rule="evenodd"  fill="rgb(23, 204, 95)"
 d="M162.952,68.165 C164.049,67.578 164.570,66.559 164.471,65.596 C164.577,64.577 164.049,63.614 162.952,63.027 L139.296,50.416 C138.248,49.829 136.993,49.560 135.739,49.560 C134.485,49.560 133.223,49.829 132.176,50.416 L108.520,62.978 C107.422,63.565 106.952,64.584 107.001,65.546 C106.952,66.566 107.422,67.578 108.520,68.165 L132.176,80.733 C133.223,81.321 134.478,81.589 135.739,81.589 C136.993,81.589 138.248,81.321 139.296,80.733 L162.952,68.165 Z"/>
<path fill-rule="evenodd"  fill="rgb(16, 142, 66)"
 d="M136.769,82.399 C136.769,82.399 135.743,81.745 135.743,80.865 C135.743,79.956 136.256,78.821 136.256,78.821 L164.486,62.974 L164.999,67.575 L136.769,82.399 Z"/>
<path fill-rule="evenodd"  fill="rgb(229, 222, 33)"
 d="M162.952,65.609 C164.049,65.022 164.570,64.003 164.471,63.040 C164.577,62.021 164.049,61.059 162.952,60.471 L139.296,47.860 C138.248,47.273 136.993,47.004 135.739,47.004 C134.485,47.004 133.223,47.273 132.176,47.860 L108.520,60.422 C107.422,61.009 106.952,62.028 107.001,62.991 C106.952,64.009 107.422,65.022 108.520,65.609 L132.176,78.178 C133.223,78.765 134.478,79.034 135.739,79.034 C136.993,79.034 138.248,78.765 139.296,78.178 L162.952,65.609 Z"/>
<path fill-rule="evenodd"  stroke="rgb(204, 198, 23)" stroke-width="1px" stroke-linecap="butt" stroke-linejoin="miter" fill="none"
 d="M157.139,65.045 C158.001,64.576 158.411,63.763 158.332,62.995 C158.416,62.182 158.001,61.413 157.139,60.945 L138.545,50.881 C137.721,50.413 136.734,50.198 135.749,50.198 C134.763,50.198 133.771,50.413 132.948,50.881 L114.353,60.905 C113.491,61.374 113.121,62.187 113.160,62.955 C113.121,63.768 113.491,64.576 114.353,65.045 L132.948,75.074 C133.771,75.543 134.757,75.758 135.749,75.758 C136.734,75.758 137.721,75.543 138.545,75.074 L157.139,65.045 Z"/>
<path fill-rule="evenodd"  fill="rgb(16, 142, 66)"
 d="M110.014,62.836 L136.513,76.987 L163.013,62.836 L136.513,48.012 L110.014,62.836 Z"/>
<path fill-rule="evenodd"  stroke="rgb(28, 227, 107)" stroke-width="1px" stroke-linecap="butt" stroke-linejoin="miter" fill="none"
 d="M137.480,49.528 L136.416,49.051 L133.935,50.166 L138.897,50.166 L139.783,50.804 L132.163,50.804 L130.568,51.600 L141.909,51.600 L143.327,52.556 L128.974,52.556 L127.733,53.354 L145.276,53.354 L147.048,54.310 L125.607,54.310 L124.012,55.266 L149.175,55.266 L150.592,56.222 L122.063,56.222 L120.822,57.019 L152.896,57.178 L154.313,57.975 L118.341,58.135 L116.923,58.931 L156.617,59.091 L157.858,59.888 L114.975,60.047 L113.557,61.003 L159.768,61.003 L161.185,61.960 L111.076,61.960 L110.435,62.756 L162.033,63.075 L161.540,64.031 L111.430,64.031 L112.671,64.828 L158.921,65.147 L157.503,66.103 L115.506,66.103 L116.747,66.900 L155.731,66.900 L154.668,67.856 L119.050,67.856 L120.113,68.653 L151.833,68.813 L150.592,69.769 L122.594,69.769 L123.835,70.566 L148.289,70.566 L147.048,71.522 L126.138,71.681 L127.378,72.478 L144.213,72.638 L142.973,73.594 L130.391,73.594 L131.631,74.550 L140.669,74.391 L139.606,75.347 L134.290,75.506 L136.416,76.622 L137.656,76.144 "/>
<path fill-rule="evenodd"  fill="rgb(229, 222, 33)"
 d="M161.999,35.000 C162.552,35.000 162.999,35.447 162.999,36.000 L162.999,60.000 C162.999,60.552 162.552,61.000 161.999,61.000 C161.447,61.000 161.000,60.552 161.000,60.000 L161.000,36.000 C161.000,35.447 161.447,35.000 161.999,35.000 Z"/>
<path fill-rule="evenodd"  fill="rgb(183, 183, 183)"
 d="M147.010,9.342 C147.010,9.342 146.986,28.500 147.010,28.828 C147.035,29.156 147.439,30.067 148.785,31.400 C150.131,32.732 160.688,44.586 160.852,44.771 C161.015,44.956 161.181,45.284 161.739,45.285 C162.296,45.287 162.768,44.823 163.158,44.428 C163.548,44.033 175.320,30.887 175.757,30.371 C176.195,29.855 176.641,29.041 176.644,27.628 C176.648,26.216 176.644,9.342 176.644,9.342 L147.010,9.342 Z"/>
<path fill-rule="evenodd"  fill="rgb(207, 207, 207)"
 d="M148.607,31.057 C148.607,31.057 149.446,32.071 151.092,32.771 C153.711,33.885 158.132,34.843 162.626,34.485 C169.944,33.903 174.515,32.428 174.515,32.428 L162.449,45.457 L160.674,45.285 L148.430,31.400 L148.607,31.057 Z"/>
<path fill-rule="evenodd"  fill="rgb(127, 127, 127)"
 d="M170.966,9.000 L170.966,33.114 L162.271,45.457 L162.626,45.457 C162.626,45.457 176.420,29.957 176.822,29.171 C177.224,28.385 176.822,9.000 176.822,9.000 L170.966,9.000 Z"/>
<path fill-rule="evenodd"  fill="rgb(232, 232, 232)"
 d="M150.914,9.342 L150.914,32.599 L161.561,45.285 L157.834,34.314 L158.012,9.171 L150.914,9.342 Z"/>
<path fill-rule="evenodd"  stroke="rgb(0, 0, 0)" stroke-width="1px" stroke-dasharray="4, 2" stroke-linecap="butt" stroke-linejoin="miter" fill="none"
 d="M76.999,52.123 C76.999,52.123 100.103,37.098 118.294,36.094 C145.693,34.581 153.999,48.121 153.999,48.121 "/>
<path fill-rule="evenodd"  fill="rgb(0, 0, 0)"
 d="M151.819,49.095 L150.546,50.383 L156.562,51.411 L155.468,45.406 L154.194,46.694 L151.819,49.095 Z"/>
</svg>
