<svg 
 xmlns="http://www.w3.org/2000/svg"
 xmlns:xlink="http://www.w3.org/1999/xlink"
 width="250px" height="148px">
<defs>
<filter id="Filter_0">
                <feOffset in="SourceAlpha" dx="0" dy="-4" />
                <feGaussianBlur result="blurOut" stdDeviation="1" />
                <feFlood flood-color="rgb(103, 103, 103)" result="floodOut" />
                <feComposite operator="out" in="floodOut" in2="blurOut" result="compOut" />
                <feComposite operator="in" in="compOut" in2="SourceAlpha" />
                <feComponentTransfer><feFuncA type="linear" slope="1"/></feComponentTransfer>
                <feBlend mode="normal" in2="SourceGraphic" />
            </filter>

</defs>
<path fill-rule="evenodd"  fill="none"
 d="M-0.001,137.000 L19.000,137.000 L19.000,147.000 L-0.001,147.000 L-0.001,137.000 Z"/>
<g filter="url(#Filter_0)">
<path fill-rule="evenodd"  fill="rgb(127, 127, 127)"
 d="M29.999,31.999 L219.999,31.999 C222.760,31.999 224.999,34.238 224.999,36.999 C224.999,39.760 222.760,41.999 219.999,41.999 L29.999,41.999 C27.237,41.999 24.999,39.760 24.999,36.999 C24.999,34.238 27.237,31.999 29.999,31.999 Z"/>
</g>
<path fill-rule="evenodd"  fill="rgb(127, 127, 127)"
 d="M29.998,31.999 L219.999,31.999 C222.760,31.999 224.999,34.238 224.999,36.999 C224.999,39.760 222.760,41.999 219.999,41.999 L29.998,41.999 C27.237,41.999 24.999,39.760 24.999,36.999 C24.999,34.238 27.237,31.999 29.998,31.999 Z"/>
<path fill-rule="evenodd"  fill="rgb(103, 103, 103)"
 d="M29.998,37.999 L219.999,37.999 C224.092,37.999 224.171,34.244 224.171,34.244 C224.171,34.244 224.999,35.981 224.999,36.999 C224.999,39.761 222.760,41.999 219.999,41.999 L29.998,41.999 C27.237,41.999 24.999,39.761 24.999,36.999 C24.999,35.917 25.926,34.097 25.926,34.097 C25.926,34.097 26.086,37.999 29.998,37.999 Z"/>
<path fill-rule="evenodd"  fill="rgb(127, 127, 127)"
 d="M65.999,41.999 L219.999,41.999 C222.760,41.999 224.999,44.238 224.999,46.999 C224.999,49.761 222.760,51.999 219.999,51.999 L65.999,51.999 C63.237,51.999 60.999,49.761 60.999,46.999 C60.999,44.238 63.237,41.999 65.999,41.999 Z"/>
<path fill-rule="evenodd"  fill="rgb(103, 103, 103)"
 d="M65.999,47.999 L219.999,47.999 C224.092,47.999 224.171,44.244 224.171,44.244 C224.171,44.244 224.999,45.981 224.999,46.999 C224.999,49.761 222.760,51.999 219.999,51.999 L65.999,51.999 C63.237,51.999 60.999,49.761 60.999,46.999 C60.999,45.917 61.926,44.098 61.926,44.098 C61.926,44.098 62.086,47.999 65.999,47.999 Z"/>
<path fill-rule="evenodd"  fill="rgb(127, 127, 127)"
 d="M124.999,51.999 L219.999,51.999 C222.760,51.999 224.999,54.238 224.999,56.999 C224.999,59.760 222.760,61.999 219.999,61.999 L124.999,61.999 C122.237,61.999 119.999,59.760 119.999,56.999 C119.999,54.238 122.237,51.999 124.999,51.999 Z"/>
<path fill-rule="evenodd"  fill="rgb(103, 103, 103)"
 d="M124.999,57.999 L219.999,57.999 C224.092,57.999 224.171,54.244 224.171,54.244 C224.171,54.244 224.999,55.981 224.999,56.999 C224.999,59.761 222.760,61.999 219.999,61.999 L124.999,61.999 C122.237,61.999 119.999,59.761 119.999,56.999 C119.999,55.917 120.926,54.098 120.926,54.098 C120.926,54.098 121.086,57.999 124.999,57.999 Z"/>
<path fill-rule="evenodd"  fill="rgb(127, 127, 127)"
 d="M132.999,61.999 L219.999,61.999 C222.760,61.999 224.999,64.238 224.999,66.999 C224.999,69.761 222.760,71.999 219.999,71.999 L132.999,71.999 C130.237,71.999 127.999,69.761 127.999,66.999 C127.999,64.238 130.237,61.999 132.999,61.999 Z"/>
<path fill-rule="evenodd"  fill="rgb(103, 103, 103)"
 d="M132.999,67.999 L219.999,67.999 C224.092,67.999 224.171,64.244 224.171,64.244 C224.171,64.244 224.999,65.981 224.999,66.999 C224.999,69.761 222.760,71.999 219.999,71.999 L132.999,71.999 C130.237,71.999 127.999,69.761 127.999,66.999 C127.999,65.917 128.926,64.098 128.926,64.098 C128.926,64.098 129.086,67.999 132.999,67.999 Z"/>
<path fill-rule="evenodd"  fill="rgb(127, 127, 127)"
 d="M128.999,71.999 L219.999,71.999 C222.760,71.999 224.999,74.238 224.999,76.999 C224.999,79.760 222.760,81.999 219.999,81.999 L128.999,81.999 C126.237,81.999 123.998,79.760 123.998,76.999 C123.998,74.238 126.237,71.999 128.999,71.999 Z"/>
<path fill-rule="evenodd"  fill="rgb(103, 103, 103)"
 d="M128.999,77.999 L219.999,77.999 C224.092,77.999 224.171,74.244 224.171,74.244 C224.171,74.244 224.999,75.981 224.999,76.999 C224.999,79.761 222.760,81.999 219.999,81.999 L128.999,81.999 C126.237,81.999 123.998,79.761 123.998,76.999 C123.998,75.917 124.926,74.098 124.926,74.098 C124.926,74.098 125.086,77.999 128.999,77.999 Z"/>
<path fill-rule="evenodd"  fill="rgb(127, 127, 127)"
 d="M132.999,81.999 L219.999,81.999 C222.760,81.999 224.999,84.238 224.999,86.999 C224.999,89.761 222.760,91.999 219.999,91.999 L132.999,91.999 C130.237,91.999 127.999,89.761 127.999,86.999 C127.999,84.238 130.237,81.999 132.999,81.999 Z"/>
<path fill-rule="evenodd"  fill="rgb(103, 103, 103)"
 d="M132.999,87.999 L219.999,87.999 C224.092,87.999 224.171,84.244 224.171,84.244 C224.171,84.244 224.999,85.981 224.999,86.999 C224.999,89.761 222.760,91.999 219.999,91.999 L132.999,91.999 C130.237,91.999 127.999,89.761 127.999,86.999 C127.999,85.917 128.926,84.098 128.926,84.098 C128.926,84.098 129.086,87.999 132.999,87.999 Z"/>
<path fill-rule="evenodd"  fill="rgb(127, 127, 127)"
 d="M127.999,101.999 L219.999,101.999 C222.760,101.999 224.999,104.238 224.999,106.999 C224.999,109.761 222.760,111.999 219.999,111.999 L127.999,111.999 C125.237,111.999 122.999,109.761 122.999,106.999 C122.999,104.238 125.237,101.999 127.999,101.999 Z"/>
<path fill-rule="evenodd"  fill="rgb(103, 103, 103)"
 d="M127.999,107.999 L219.999,107.999 C224.092,107.999 224.171,104.244 224.171,104.244 C224.171,104.244 224.999,105.981 224.999,106.999 C224.999,109.761 222.760,111.999 219.999,111.999 L127.999,111.999 C125.238,111.999 122.999,109.761 122.999,106.999 C122.999,105.918 123.926,104.097 123.926,104.097 C123.926,104.097 124.087,107.999 127.999,107.999 Z"/>
<path fill-rule="evenodd"  fill="rgb(127, 127, 127)"
 d="M130.999,111.999 L219.999,111.999 C222.760,111.999 224.999,114.238 224.999,116.999 C224.999,119.760 222.760,121.999 219.999,121.999 L130.999,121.999 C128.238,121.999 125.999,119.760 125.999,116.999 C125.999,114.238 128.238,111.999 130.999,111.999 Z"/>
<path fill-rule="evenodd"  fill="rgb(103, 103, 103)"
 d="M130.999,117.999 L219.999,117.999 C224.092,117.999 224.171,114.244 224.171,114.244 C224.171,114.244 224.999,115.981 224.999,116.999 C224.999,119.761 222.760,121.999 219.999,121.999 L130.999,121.999 C128.238,121.999 125.999,119.761 125.999,116.999 C125.999,115.918 126.926,114.098 126.926,114.098 C126.926,114.098 127.087,117.999 130.999,117.999 Z"/>
<path fill-rule="evenodd"  fill="rgb(127, 127, 127)"
 d="M133.999,121.999 L219.999,121.999 C222.760,121.999 224.999,124.238 224.999,126.999 C224.999,129.760 222.760,131.999 219.999,131.999 L133.999,131.999 C131.237,131.999 128.999,129.760 128.999,126.999 C128.999,124.238 131.237,121.999 133.999,121.999 Z"/>
<path fill-rule="evenodd"  fill="rgb(103, 103, 103)"
 d="M133.999,127.999 L219.999,127.999 C224.092,127.999 224.171,124.244 224.171,124.244 C224.171,124.244 224.999,125.981 224.999,126.999 C224.999,129.761 222.760,131.999 219.999,131.999 L133.999,131.999 C131.237,131.999 128.999,129.761 128.999,126.999 C128.999,125.917 129.926,124.097 129.926,124.097 C129.926,124.097 130.086,127.999 133.999,127.999 Z"/>
<path fill-rule="evenodd"  fill="rgb(127, 127, 127)"
 d="M138.999,91.999 L219.999,91.999 C222.760,91.999 224.999,94.238 224.999,96.999 C224.999,99.760 222.760,101.999 219.999,101.999 L138.999,101.999 C136.238,101.999 133.999,99.760 133.999,96.999 C133.999,94.238 136.238,91.999 138.999,91.999 Z"/>
<path fill-rule="evenodd"  fill="rgb(103, 103, 103)"
 d="M138.999,97.999 L219.999,97.999 C224.092,97.999 224.171,94.244 224.171,94.244 C224.171,94.244 224.999,95.981 224.999,96.999 C224.999,99.761 222.760,101.999 219.999,101.999 L138.999,101.999 C136.238,101.999 133.999,99.761 133.999,96.999 C133.999,95.917 134.926,94.098 134.926,94.098 C134.926,94.098 135.086,97.999 138.999,97.999 Z"/>
<path fill-rule="evenodd"  fill="rgb(23, 204, 95)"
 d="M25.999,127.000 L25.999,47.000 C25.999,44.238 28.237,42.000 30.999,42.000 C33.760,42.000 35.999,44.238 35.999,47.000 L35.999,127.000 C35.999,129.762 33.760,132.000 30.999,132.000 C28.237,132.000 25.999,129.762 25.999,127.000 Z"/>
<path fill-rule="evenodd"  fill="rgb(16, 142, 66)"
 d="M31.999,127.000 L31.999,47.000 C31.999,42.907 28.244,42.827 28.244,42.827 C28.244,42.827 29.981,42.000 30.999,42.000 C33.761,42.000 35.999,44.239 35.999,47.000 L35.999,127.000 C35.999,129.761 33.761,132.000 30.999,132.000 C29.917,132.000 28.098,131.073 28.098,131.073 C28.098,131.073 31.999,130.913 31.999,127.000 Z"/>
<path fill-rule="evenodd"  fill="rgb(23, 204, 95)"
 d="M37.999,127.000 L37.999,47.000 C37.999,44.238 40.238,42.000 42.999,42.000 C45.760,42.000 47.999,44.238 47.999,47.000 L47.999,127.000 C47.999,129.762 45.760,132.000 42.999,132.000 C40.238,132.000 37.999,129.762 37.999,127.000 Z"/>
<path fill-rule="evenodd"  fill="rgb(16, 142, 66)"
 d="M43.999,127.000 L43.999,47.000 C43.999,42.907 40.244,42.827 40.244,42.827 C40.244,42.827 41.981,42.000 42.999,42.000 C45.761,42.000 47.999,44.239 47.999,47.000 L47.999,127.000 C47.999,129.761 45.761,132.000 42.999,132.000 C41.917,132.000 40.098,131.073 40.098,131.073 C40.098,131.073 43.999,130.913 43.999,127.000 Z"/>
<path fill-rule="evenodd"  fill="rgb(23, 204, 95)"
 d="M49.999,127.000 L49.999,47.000 C49.999,44.238 52.238,42.000 54.999,42.000 C57.761,42.000 59.999,44.238 59.999,47.000 L59.999,127.000 C59.999,129.762 57.761,132.000 54.999,132.000 C52.238,132.000 49.999,129.762 49.999,127.000 Z"/>
<path fill-rule="evenodd"  fill="rgb(16, 142, 66)"
 d="M55.999,127.000 L55.999,47.000 C55.999,42.907 52.244,42.827 52.244,42.827 C52.244,42.827 53.980,42.000 54.999,42.000 C57.761,42.000 59.999,44.239 59.999,47.000 L59.999,127.000 C59.999,129.761 57.761,132.000 54.999,132.000 C53.917,132.000 52.097,131.073 52.097,131.073 C52.097,131.073 55.999,130.913 55.999,127.000 Z"/>
<path fill-rule="evenodd"  fill="rgb(23, 204, 95)"
 d="M61.999,127.000 L61.999,57.000 C61.999,54.239 64.238,52.000 66.999,52.000 C69.760,52.000 71.999,54.239 71.999,57.000 L71.999,127.000 C71.999,129.762 69.760,132.000 66.999,132.000 C64.238,132.000 61.999,129.762 61.999,127.000 Z"/>
<path fill-rule="evenodd"  fill="rgb(16, 142, 66)"
 d="M67.999,127.000 L67.999,57.000 C67.999,52.907 64.244,52.827 64.244,52.827 C64.244,52.827 65.981,52.000 66.999,52.000 C69.760,52.000 71.999,54.239 71.999,57.000 L71.999,127.000 C71.999,129.761 69.760,132.000 66.999,132.000 C65.917,132.000 64.097,131.073 64.097,131.073 C64.097,131.073 67.999,130.913 67.999,127.000 Z"/>
<path fill-rule="evenodd"  fill="rgb(23, 204, 95)"
 d="M73.999,127.000 L73.999,57.000 C73.999,54.239 76.238,52.000 78.999,52.000 C81.760,52.000 83.999,54.239 83.999,57.000 L83.999,127.000 C83.999,129.762 81.760,132.000 78.999,132.000 C76.238,132.000 73.999,129.762 73.999,127.000 Z"/>
<path fill-rule="evenodd"  fill="rgb(16, 142, 66)"
 d="M79.999,127.000 L79.999,57.000 C79.999,52.907 76.244,52.827 76.244,52.827 C76.244,52.827 77.981,52.000 78.999,52.000 C81.760,52.000 83.999,54.239 83.999,57.000 L83.999,127.000 C83.999,129.761 81.760,132.000 78.999,132.000 C77.917,132.000 76.097,131.073 76.097,131.073 C76.097,131.073 79.999,130.913 79.999,127.000 Z"/>
<path fill-rule="evenodd"  fill="rgb(23, 204, 95)"
 d="M85.999,127.000 L85.999,57.000 C85.999,54.239 88.237,52.000 90.999,52.000 C93.760,52.000 95.999,54.239 95.999,57.000 L95.999,127.000 C95.999,129.762 93.760,132.000 90.999,132.000 C88.237,132.000 85.999,129.762 85.999,127.000 Z"/>
<path fill-rule="evenodd"  fill="rgb(16, 142, 66)"
 d="M91.999,127.000 L91.999,57.000 C91.999,52.907 88.244,52.827 88.244,52.827 C88.244,52.827 89.980,52.000 90.999,52.000 C93.761,52.000 95.999,54.239 95.999,57.000 L95.999,127.000 C95.999,129.761 93.761,132.000 90.999,132.000 C89.917,132.000 88.097,131.073 88.097,131.073 C88.097,131.073 91.999,130.913 91.999,127.000 Z"/>
<path fill-rule="evenodd"  fill="rgb(23, 204, 95)"
 d="M97.999,127.000 L97.999,57.000 C97.999,54.239 100.238,52.000 102.999,52.000 C105.760,52.000 107.999,54.239 107.999,57.000 L107.999,127.000 C107.999,129.762 105.760,132.000 102.999,132.000 C100.238,132.000 97.999,129.762 97.999,127.000 Z"/>
<path fill-rule="evenodd"  fill="rgb(16, 142, 66)"
 d="M103.999,127.000 L103.999,57.000 C103.999,52.907 100.244,52.827 100.244,52.827 C100.244,52.827 101.981,52.000 102.999,52.000 C105.761,52.000 107.999,54.239 107.999,57.000 L107.999,127.000 C107.999,129.761 105.761,132.000 102.999,132.000 C101.917,132.000 100.098,131.073 100.098,131.073 C100.098,131.073 103.999,130.913 103.999,127.000 Z"/>
<path fill-rule="evenodd"  fill="rgb(23, 204, 95)"
 d="M109.999,127.000 L109.999,57.000 C109.999,54.239 112.238,52.000 114.999,52.000 C117.760,52.000 119.999,54.239 119.999,57.000 L119.999,127.000 C119.999,129.762 117.760,132.000 114.999,132.000 C112.238,132.000 109.999,129.762 109.999,127.000 Z"/>
<path fill-rule="evenodd"  fill="rgb(16, 142, 66)"
 d="M115.999,127.000 L115.999,57.000 C115.999,52.907 112.244,52.827 112.244,52.827 C112.244,52.827 113.981,52.000 114.999,52.000 C117.761,52.000 119.999,54.239 119.999,57.000 L119.999,127.000 C119.999,129.761 117.761,132.000 114.999,132.000 C113.917,132.000 112.097,131.073 112.097,131.073 C112.097,131.073 115.999,130.913 115.999,127.000 Z"/>
<path fill-rule="evenodd"  stroke="rgb(0, 0, 0)" stroke-width="2px" stroke-dasharray="8, 4" stroke-linecap="round" stroke-linejoin="round" fill="none"
 d="M181.999,130.999 C181.999,130.999 160.200,73.967 120.999,47.999 C81.700,21.967 26.999,26.999 26.999,26.999 "/>
<path fill-rule="evenodd"  fill="rgb(0, 0, 0)"
 d="M120.999,11.999 C121.551,11.999 121.999,12.447 121.999,13.000 L121.999,70.999 C121.999,71.552 121.551,71.999 120.999,71.999 C120.447,71.999 119.999,71.552 119.999,70.999 L119.999,13.000 C119.999,12.447 120.447,11.999 120.999,11.999 Z"/>
<path fill-rule="evenodd"  fill="rgb(51, 51, 51)"
 d="M247.758,1.434 C248.143,1.919 248.057,2.614 247.567,2.996 L247.552,3.007 L240.221,8.534 C241.966,10.595 242.978,13.218 242.978,16.014 C242.978,16.224 242.972,16.433 242.960,16.642 L246.848,16.642 C247.477,16.642 247.988,17.134 247.999,17.745 L247.999,17.763 C247.999,18.376 247.494,18.874 246.866,18.884 L242.615,18.884 C242.492,19.360 242.339,19.828 242.156,20.285 C241.925,20.862 241.257,21.147 240.665,20.922 C240.073,20.697 239.780,20.047 240.011,19.470 C240.088,19.277 240.158,19.082 240.223,18.884 L226.180,18.884 C225.815,18.884 225.470,18.720 225.247,18.438 C224.852,17.941 224.941,17.229 225.442,16.838 L225.458,16.826 L236.700,8.352 C236.358,8.107 236.000,7.883 235.628,7.683 C235.072,7.383 234.870,6.701 235.178,6.159 C235.486,5.617 236.187,5.421 236.743,5.721 C237.392,6.070 238.006,6.477 238.578,6.936 L246.143,1.234 C246.645,0.855 247.369,0.945 247.758,1.434 L247.758,1.434 ZM238.398,9.907 L229.464,16.642 L240.654,16.642 C240.668,16.434 240.675,16.224 240.675,16.014 C240.675,13.727 239.840,11.583 238.398,9.907 L238.398,9.907 Z"/>
</svg>
