<svg 
 xmlns="http://www.w3.org/2000/svg"
 xmlns:xlink="http://www.w3.org/1999/xlink"
 width="18px" height="18px">
<path fill-rule="evenodd"  fill="rgb(0, 163, 255)"
 d="M9.000,-0.000 C13.971,-0.000 18.000,4.029 18.000,9.000 C18.000,13.971 13.971,18.000 9.000,18.000 C4.029,18.000 -0.000,13.971 -0.000,9.000 C-0.000,4.029 4.029,-0.000 9.000,-0.000 Z"/>
<path fill-rule="evenodd"  fill="rgb(255, 255, 255)"
 d="M9.177,14.000 L9.380,14.000 C9.883,14.000 10.291,13.538 10.291,12.967 C10.291,12.396 9.883,11.934 9.380,11.934 L9.177,11.934 C8.675,11.934 8.267,12.396 8.267,12.967 C8.267,13.537 8.675,14.000 9.177,14.000 L9.177,14.000 ZM9.199,11.303 C9.023,11.303 8.846,11.240 8.695,11.110 C8.328,10.794 8.257,10.200 8.535,9.784 L10.173,7.336 C10.357,7.061 10.384,6.696 10.243,6.406 C10.077,6.065 9.683,5.893 9.074,5.893 C8.534,5.893 8.149,6.035 7.932,6.315 C7.621,6.716 7.670,7.352 7.671,7.358 C7.729,7.876 7.406,8.351 6.950,8.417 C6.493,8.483 6.075,8.116 6.017,7.598 C6.000,7.448 5.875,6.102 6.680,5.064 C6.943,4.726 7.272,4.464 7.659,4.285 C8.067,4.096 8.544,4.000 9.074,4.000 C10.646,4.000 11.370,4.810 11.701,5.489 C12.163,6.435 12.084,7.609 11.501,8.480 L9.863,10.929 C9.699,11.174 9.450,11.303 9.199,11.303 L9.199,11.303 Z"/>
</svg>
