<svg xmlns="http://www.w3.org/2000/svg" width="36" height="36" >
<path d="M32.625 18C32.625 14.1212 31.0842 10.4013 28.3414 7.65856C25.5987 4.91584 21.8788 3.375 18 3.375C14.1212 3.375 10.4013 4.91584 7.65856 7.65856C4.91584 10.4013 3.375 14.1212 3.375 18C3.375 21.8788 4.91584 25.5987 7.65856 28.3414C10.4013 31.0842 14.1212 32.625 18 32.625C21.8788 32.625 25.5987 31.0842 28.3414 28.3414C31.0842 25.5987 32.625 21.8788 32.625 18ZM0 18C0 13.2261 1.89642 8.64773 5.27208 5.27208C8.64773 1.89642 13.2261 0 18 0C22.7739 0 27.3523 1.89642 30.7279 5.27208C34.1036 8.64773 36 13.2261 36 18C36 22.7739 34.1036 27.3523 30.7279 30.7279C27.3523 34.1036 22.7739 36 18 36C13.2261 36 8.64773 34.1036 5.27208 30.7279C1.89642 27.3523 0 22.7739 0 18ZM24.5742 21.6844C25.8891 21.375 27.0984 22.5281 26.3672 23.6602C24.6375 26.3391 21.5367 28.125 17.993 28.125C14.4492 28.125 11.3484 26.3391 9.61875 23.6602C8.8875 22.5281 10.0969 21.375 11.4117 21.6844C13.4438 22.1625 15.6656 22.4227 17.993 22.4227C20.3203 22.4227 22.5422 22.1625 24.5742 21.6844ZM10.1531 14.625C10.1531 14.0283 10.3902 13.456 10.8121 13.034C11.2341 12.6121 11.8064 12.375 12.4031 12.375C12.9999 12.375 13.5722 12.6121 13.9941 13.034C14.4161 13.456 14.6531 14.0283 14.6531 14.625C14.6531 15.2217 14.4161 15.794 13.9941 16.216C13.5722 16.6379 12.9999 16.875 12.4031 16.875C11.8064 16.875 11.2341 16.6379 10.8121 16.216C10.3902 15.794 10.1531 15.2217 10.1531 14.625ZM21.8109 16.1508C21.2766 16.7203 20.3906 16.7484 19.8211 16.2141C19.2516 15.6797 19.2234 14.7937 19.7578 14.2242C20.7773 13.1344 22.2328 12.6562 23.5969 12.6562C24.9609 12.6562 26.4164 13.1344 27.4359 14.2242C27.9703 14.7937 27.9352 15.6797 27.3727 16.2141C26.8102 16.7484 25.9172 16.7133 25.3828 16.1508C24.9961 15.743 24.3422 15.4688 23.5969 15.4688C22.8516 15.4688 22.1977 15.7359 21.8109 16.1508Z" fill="#F8F8F8"></path>
</svg>