<svg xmlns="http://www.w3.org/2000/svg" width="36" height="36" viewBox="0 0 36 36" fill="none"><path d="M0.700593 15.2548C0.233531 16.9376 -0.233531 19.0053 0.700593 20.6881L7.09464 32.2262C8.02876 33.909 9.74495 34.9429 11.6132 34.9429H24.394C26.2551 34.9429 27.9785 33.909 28.9126 32.2262L35.2994 20.6881C36.2335 19.0053 36.2335 16.9376 35.2994 15.2548L28.9054 3.71664C27.9712 2.03383 26.2551 1 24.3868 1H11.606C9.74495 1 8.02152 2.03383 7.0874 3.71664L0.700593 15.2548ZM3.71296 18.877C3.40159 18.3186 3.40159 17.6243 3.71296 17.0659L10.0998 5.52773C10.4111 4.96931 10.9832 4.62218 11.606 4.62218H24.394C25.0168 4.62218 25.5889 4.96931 25.9002 5.52773L32.2943 17.0659C32.6057 17.6243 32.6057 18.3186 32.2943 18.877L29.796 23.3896L24.1406 16.2962C23.8075 15.8811 23.3223 15.6396 22.801 15.6396C22.2796 15.6396 21.7944 15.8811 21.4613 16.2962L16.2766 22.801L13.4597 19.7372C13.1266 19.375 12.6632 19.1713 12.1853 19.1788C11.7073 19.1864 11.2439 19.3977 10.9253 19.7674L6.80499 24.4687L3.70572 18.877H3.71296ZM16.2621 10.7271C16.2621 9.92651 15.9569 9.15875 15.4137 8.59267C14.8705 8.0266 14.1338 7.70858 13.3656 7.70858C12.5974 7.70858 11.8606 8.0266 11.3174 8.59267C10.7742 9.15875 10.4691 9.92651 10.4691 10.7271C10.4691 11.5276 10.7742 12.2954 11.3174 12.8615C11.8606 13.4275 12.5974 13.7456 13.3656 13.7456C14.1338 13.7456 14.8705 13.4275 15.4137 12.8615C15.9569 12.2954 16.2621 11.5276 16.2621 10.7271Z" fill="#F8F8F8"></path></svg>