<svg xmlns="http://www.w3.org/2000/svg" width="36" height="36">
<path d="M28.8571 2.57864C29.5714 2.71479 30.1014 2.95305 30.447 3.29343C30.8157 3.6338 31 4.03091 31 4.48474C31 5.23357 30.7811 5.77817 30.3433 6.11855C29.9286 6.45892 29.2604 6.59507 28.3387 6.52699C26.265 6.36815 24.6406 6.26604 23.4654 6.22066C22.3134 6.15258 20.7926 6.1072 18.9032 6.08451C18.0507 10.2598 17.2673 14.4577 16.553 18.6784C16.2995 20.2214 16.0346 22.0141 15.7581 24.0563C15.4816 26.0759 15.2972 27.7097 15.2051 28.9577C15.159 29.6158 14.8825 30.1264 14.3756 30.4894C13.8687 30.8298 13.2581 31 12.5438 31C11.7834 31 11.1959 30.8185 10.7811 30.4554C10.3664 30.0923 10.159 29.6158 10.159 29.0258C10.159 28.4812 10.2396 27.5849 10.4009 26.3369C10.5853 25.0661 10.7926 23.7387 11.023 22.3545C11.2765 20.9703 11.4724 19.7676 11.6106 18.7465C11.8641 17.0219 12.1521 15.3087 12.4747 13.6068C12.7972 11.9049 13.1198 10.2938 13.4424 8.77347C13.5115 8.4331 13.5922 8.04734 13.6843 7.6162C13.7765 7.16236 13.8802 6.66315 13.9954 6.11855C11.7373 6.18662 9.96313 6.36815 8.67281 6.66315C7.38249 6.95814 6.46083 7.37794 5.90783 7.92254C5.37788 8.44445 5.1129 9.1252 5.1129 9.96479C5.1129 10.7363 5.34332 11.4738 5.80415 12.1772C5.89631 12.3361 5.9424 12.5063 5.9424 12.6878C5.9424 13.1189 5.67742 13.5274 5.14747 13.9131C4.64055 14.2762 4.1106 14.4577 3.5576 14.4577C3.1659 14.4577 2.84332 14.3443 2.58986 14.1174C2.12903 13.7316 1.74885 13.187 1.44931 12.4836C1.14977 11.7574 1 10.9405 1 10.0329C1 8.10407 1.63364 6.56103 2.90092 5.40376C4.19124 4.22379 6.13825 3.3615 8.74194 2.8169C11.3687 2.2723 14.7327 2 18.8341 2C21.3687 2 23.3848 2.04538 24.8825 2.13615C26.4032 2.22692 27.7281 2.37441 28.8571 2.57864Z" fill="#F8F8F8"></path><path d="M26.2063 37H23.0317L26.2063 14.9394H21L21.381 12H35L34.5873 14.9394H29.381L26.2063 37Z" fill="#F8F8F8">
</path>
</svg>