<svg xmlns="http://www.w3.org/2000/svg" width="36" height="36" viewBox="0 0 36 36" fill="none"><mask id="path2-inside1_5931_3230" fill="white"><rect x="4" y="13" width="28" height="10" rx="2"></rect></mask><rect x="4" y="13" width="28" height="10" rx="2" stroke="#F8F8F8" stroke-width="6" mask="url(#path2-inside1_5931_3230)"></rect><path d="M23.5593 7.06434L19.0584 11.5655V11.5593C18.477 12.1469 17.5269 12.1469 16.9392 11.5593L12.4384 7.05809C11.8508 6.47669 11.857 5.52644 12.4384 4.93879C13.0197 4.35113 13.9699 4.35113 14.5575 4.93879L16.4954 6.88304V1.50039C16.4954 0.668924 17.1643 0 17.9957 0C18.8271 0 19.496 0.668924 19.496 1.50039L19.5022 6.88304L21.4401 4.94504C22.0215 4.35739 22.9717 4.36364 23.5593 4.94504C24.1469 5.52644 24.1469 6.47669 23.5593 7.06434Z" fill="#F8F8F8"></path><path d="M12.4407 28.9357L16.9416 24.4345L16.9416 24.4407C17.523 23.8531 18.4731 23.8531 19.0608 24.4407L23.5616 28.9419C24.1492 29.5233 24.143 30.4736 23.5616 31.0612C22.9803 31.6489 22.0301 31.6489 21.4425 31.0612L19.5046 29.117L19.5046 34.4996C19.5046 35.3311 18.8357 36 18.0043 36C17.1729 36 16.504 35.3311 16.504 34.4996L16.4978 29.117L14.5599 31.055C13.9785 31.6426 13.0283 31.6364 12.4407 31.055C11.8531 30.4736 11.8531 29.5233 12.4407 28.9357Z" fill="#F8F8F8"></path></svg>