<svg 
 xmlns="http://www.w3.org/2000/svg"
 xmlns:xlink="http://www.w3.org/1999/xlink"
 width="14px" height="14px">
<path fill-rule="evenodd"  fill="rgb(255, 255, 255)"
 d="M13.309,7.633 L7.874,7.633 C7.503,7.633 7.203,7.332 7.203,6.960 C7.203,6.589 7.503,6.288 7.874,6.288 L13.309,6.288 C13.679,6.288 13.980,6.589 13.980,6.960 C13.980,7.332 13.679,7.633 13.309,7.633 ZM13.309,2.633 L7.874,2.633 C7.503,2.633 7.203,2.332 7.203,1.960 C7.203,1.589 7.503,1.288 7.874,1.288 L13.309,1.288 C13.679,1.288 13.980,1.589 13.980,1.960 C13.980,2.332 13.679,2.633 13.309,2.633 ZM4.760,13.921 C3.681,13.921 2.803,13.042 2.803,11.960 C2.803,10.879 3.681,10.000 4.760,10.000 C5.839,10.000 6.717,10.879 6.717,11.960 C6.717,13.042 5.839,13.921 4.760,13.921 ZM4.760,8.921 C3.681,8.921 2.803,8.042 2.803,6.960 C2.803,5.879 3.681,5.000 4.760,5.000 C5.839,5.000 6.717,5.879 6.717,6.960 C6.717,8.042 5.839,8.921 4.760,8.921 ZM4.760,3.921 C3.681,3.921 2.803,3.042 2.803,1.960 C2.803,0.879 3.681,-0.000 4.760,-0.000 C5.839,-0.000 6.717,0.879 6.717,1.960 C6.717,3.042 5.839,3.921 4.760,3.921 ZM1.628,12.633 L0.669,12.633 C0.299,12.633 -0.002,12.332 -0.002,11.960 C-0.002,11.589 0.299,11.288 0.669,11.288 L1.628,11.288 C1.999,11.288 2.299,11.589 2.299,11.960 C2.299,12.332 1.999,12.633 1.628,12.633 ZM1.628,7.633 L0.669,7.633 C0.299,7.633 -0.002,7.332 -0.002,6.960 C-0.002,6.589 0.299,6.288 0.669,6.288 L1.628,6.288 C1.999,6.288 2.299,6.589 2.299,6.960 C2.299,7.332 1.999,7.633 1.628,7.633 ZM1.628,2.633 L0.669,2.633 C0.299,2.633 -0.002,2.332 -0.002,1.960 C-0.002,1.589 0.299,1.288 0.669,1.288 L1.628,1.288 C1.999,1.288 2.299,1.589 2.299,1.960 C2.299,2.332 1.999,2.633 1.628,2.633 ZM7.874,11.288 L13.309,11.288 C13.679,11.288 13.980,11.589 13.980,11.960 C13.980,12.332 13.679,12.633 13.309,12.633 L7.874,12.633 C7.503,12.633 7.203,12.332 7.203,11.960 C7.203,11.589 7.503,11.288 7.874,11.288 Z"/>
</svg>
