<svg 
 xmlns="http://www.w3.org/2000/svg"
 xmlns:xlink="http://www.w3.org/1999/xlink"
 width="14px" height="14px">
<path fill-rule="evenodd"  fill="rgb(23, 204, 95)"
 d="M13.327,7.672 L12.102,7.672 C11.732,7.672 11.431,7.371 11.431,7.000 C11.431,6.628 11.732,6.328 12.102,6.328 L13.327,6.328 C13.698,6.328 13.998,6.628 13.998,7.000 C13.998,7.371 13.698,7.672 13.327,7.672 ZM13.327,2.672 L12.102,2.672 C11.732,2.672 11.431,2.371 11.431,2.000 C11.431,1.628 11.732,1.328 12.102,1.328 L13.327,1.328 C13.698,1.328 13.998,1.628 13.998,2.000 C13.998,2.371 13.698,2.672 13.327,2.672 ZM8.958,13.960 C7.878,13.960 7.001,13.081 7.001,12.000 C7.001,10.918 7.879,10.039 8.958,10.039 C10.037,10.039 10.915,10.918 10.915,12.000 C10.915,13.081 10.037,13.960 8.958,13.960 ZM8.958,8.960 C7.878,8.960 7.001,8.081 7.001,7.000 C7.001,5.918 7.879,5.039 8.958,5.039 C10.037,5.039 10.915,5.918 10.915,7.000 C10.915,8.081 10.037,8.960 8.958,8.960 ZM8.958,3.960 C7.878,3.960 7.001,3.081 7.001,2.000 C7.001,0.918 7.879,0.039 8.958,0.039 C10.037,0.039 10.915,0.918 10.915,2.000 C10.915,3.081 10.037,3.960 8.958,3.960 ZM5.783,12.672 L0.688,12.672 C0.318,12.672 0.017,12.371 0.017,12.000 C0.017,11.628 0.318,11.328 0.688,11.328 L5.783,11.328 C6.154,11.328 6.454,11.628 6.454,12.000 C6.454,12.371 6.154,12.672 5.783,12.672 ZM5.783,7.672 L0.688,7.672 C0.318,7.672 0.017,7.371 0.017,7.000 C0.017,6.628 0.318,6.328 0.688,6.328 L5.783,6.328 C6.154,6.328 6.454,6.628 6.454,7.000 C6.454,7.371 6.154,7.672 5.783,7.672 ZM5.783,2.672 L0.688,2.672 C0.318,2.672 0.017,2.371 0.017,2.000 C0.017,1.628 0.318,1.328 0.688,1.328 L5.783,1.328 C6.154,1.328 6.454,1.628 6.454,2.000 C6.454,2.371 6.154,2.672 5.783,2.672 ZM12.102,11.328 L13.327,11.328 C13.698,11.328 13.998,11.628 13.998,12.000 C13.998,12.371 13.698,12.672 13.327,12.672 L12.102,12.672 C11.732,12.672 11.431,12.371 11.431,12.000 C11.431,11.628 11.732,11.328 12.102,11.328 Z"/>
</svg>
