<svg 
 xmlns="http://www.w3.org/2000/svg"
 xmlns:xlink="http://www.w3.org/1999/xlink"
 width="10px" height="6px">
<path fill-rule="evenodd"  fill="rgb(150, 150, 157)"
 d="M8.257,0.301 C8.455,0.100 8.694,-0.000 8.974,-0.000 C9.254,-0.000 9.493,0.100 9.692,0.301 C9.897,0.502 10.000,0.742 10.000,1.021 C10.000,1.301 9.897,1.541 9.692,1.742 L5.717,5.740 C5.632,5.841 5.526,5.911 5.398,5.950 C5.271,5.989 5.136,6.006 4.994,5.999 C4.853,5.991 4.713,5.961 4.575,5.907 C4.436,5.853 4.318,5.776 4.219,5.676 L0.308,1.742 C0.102,1.541 -0.000,1.301 -0.000,1.021 C-0.000,0.742 0.102,0.502 0.308,0.301 C0.407,0.201 0.519,0.125 0.643,0.075 C0.767,0.025 0.894,-0.000 1.025,-0.000 C1.156,-0.000 1.286,0.025 1.413,0.075 C1.541,0.125 1.654,0.201 1.753,0.301 L5.005,3.547 L8.257,0.301 Z"/>
</svg>
