<svg 
 xmlns="http://www.w3.org/2000/svg"
 xmlns:xlink="http://www.w3.org/1999/xlink"
 width="9px" height="9px">
<path fill-rule="evenodd"  fill="rgb(28, 28, 29)"
 d="M8.999,9.000 L7.999,9.000 L7.999,8.000 L8.999,8.000 L8.999,9.000 ZM6.999,8.000 L6.999,7.000 L7.999,7.000 L7.999,8.000 L6.999,8.000 ZM6.999,5.000 L7.999,5.000 L7.999,6.000 L6.999,6.000 L6.999,5.000 ZM6.999,3.000 L7.999,3.000 L7.999,4.000 L6.999,4.000 L6.999,3.000 ZM6.000,3.000 L6.000,1.999 L6.999,1.999 L6.999,3.000 L6.000,3.000 ZM5.000,4.000 L5.000,3.000 L6.000,3.000 L6.000,4.000 L5.000,4.000 ZM3.999,5.000 L3.999,4.000 L5.000,4.000 L5.000,5.000 L3.999,5.000 ZM2.999,6.000 L2.999,5.000 L3.999,5.000 L3.999,6.000 L2.999,6.000 ZM1.999,7.000 L1.999,6.000 L2.999,6.000 L2.999,7.000 L1.999,7.000 ZM3.999,7.000 L3.999,8.000 L2.999,8.000 L2.999,7.000 L3.999,7.000 ZM6.000,7.000 L6.000,8.000 L5.000,8.000 L5.000,7.000 L6.000,7.000 ZM6.000,6.000 L6.999,6.000 L6.999,7.000 L6.000,7.000 L6.000,6.000 ZM5.000,6.000 L5.000,5.000 L6.000,5.000 L6.000,6.000 L5.000,6.000 ZM3.999,7.000 L3.999,6.000 L5.000,6.000 L5.000,7.000 L3.999,7.000 ZM6.000,4.000 L6.999,4.000 L6.999,5.000 L6.000,5.000 L6.000,4.000 ZM6.999,9.000 L6.000,9.000 L6.000,8.000 L6.999,8.000 L6.999,9.000 ZM5.000,9.000 L3.999,9.000 L3.999,8.000 L5.000,8.000 L5.000,9.000 ZM2.999,9.000 L1.999,9.000 L1.999,8.000 L2.999,8.000 L2.999,9.000 ZM1.000,8.000 L1.000,7.000 L1.999,7.000 L1.999,8.000 L1.000,8.000 ZM-0.001,9.000 L-0.001,8.000 L1.000,8.000 L1.000,9.000 L-0.001,9.000 ZM6.999,1.000 L7.999,1.000 L7.999,1.999 L6.999,1.999 L6.999,1.000 ZM8.999,-0.000 L8.999,1.000 L7.999,1.000 L7.999,-0.000 L8.999,-0.000 ZM8.999,1.999 L8.999,3.000 L7.999,3.000 L7.999,1.999 L8.999,1.999 ZM8.999,4.000 L8.999,5.000 L7.999,5.000 L7.999,4.000 L8.999,4.000 ZM8.999,6.000 L8.999,7.000 L7.999,7.000 L7.999,6.000 L8.999,6.000 Z"/>
</svg>
