<svg 
 xmlns="http://www.w3.org/2000/svg"
 xmlns:xlink="http://www.w3.org/1999/xlink"
 width="14px" height="14px">
<path fill-rule="evenodd"  fill="rgb(23, 204, 95)"
 d="M13.332,2.393 L12.618,2.393 L12.624,12.718 C12.622,13.423 12.098,13.994 11.362,13.994 L10.694,13.994 L10.694,13.995 L3.352,14.000 L3.352,13.994 L2.684,13.994 C1.968,13.994 1.434,13.452 1.403,12.773 L1.398,2.398 L0.624,2.398 C0.255,2.398 -0.001,2.204 -0.001,1.851 C-0.001,1.497 0.256,1.356 0.624,1.356 L1.816,1.355 C1.865,1.343 1.916,1.334 1.972,1.334 C2.028,1.334 2.078,1.343 2.126,1.355 L6.175,1.353 L6.171,0.640 C6.171,0.286 6.471,-0.000 6.839,-0.000 C6.904,-0.000 6.958,0.005 7.014,0.008 C7.066,0.005 7.117,-0.000 7.176,-0.000 C7.545,-0.000 7.852,0.286 7.852,0.640 L7.851,1.352 L12.003,1.350 C12.024,1.348 12.043,1.344 12.065,1.344 C12.086,1.344 12.105,1.348 12.125,1.350 L13.332,1.350 C13.701,1.350 14.000,1.492 14.000,1.845 C14.000,2.199 13.700,2.393 13.332,2.393 ZM5.894,4.032 C5.894,3.735 5.643,3.494 5.333,3.494 C5.023,3.494 4.772,3.735 4.772,4.032 L4.772,11.292 C4.772,11.589 5.023,11.830 5.333,11.830 C5.643,11.830 5.894,11.589 5.894,11.292 L5.894,4.032 ZM9.259,4.032 C9.259,3.735 9.008,3.494 8.698,3.494 C8.388,3.494 8.137,3.735 8.137,4.032 L8.137,11.292 C8.137,11.589 8.388,11.830 8.698,11.830 C9.008,11.830 9.259,11.589 9.259,11.292 L9.259,4.032 Z"/>
</svg>
