<svg 
 xmlns="http://www.w3.org/2000/svg"
 xmlns:xlink="http://www.w3.org/1999/xlink"
 width="14px" height="14px">
<path fill-rule="evenodd"  fill="rgb(255, 255, 255)"
 d="M13.784,13.793 C13.649,13.925 13.466,14.000 13.275,14.000 L0.718,14.000 C0.461,14.000 0.223,13.865 0.095,13.648 C-0.034,13.430 -0.034,13.162 0.095,12.944 C0.223,12.726 0.461,12.592 0.718,12.592 L13.275,12.592 C13.466,12.592 13.649,12.666 13.784,12.798 C13.919,12.930 13.995,13.109 13.995,13.296 C13.995,13.482 13.919,13.661 13.784,13.793 ZM4.787,10.386 C4.647,10.523 4.470,10.620 4.278,10.665 L1.655,11.287 C1.273,11.378 0.872,11.259 0.606,10.976 C0.339,10.694 0.251,10.293 0.375,9.928 L1.160,7.618 C1.213,7.462 1.303,7.321 1.422,7.204 L8.268,0.515 C8.971,-0.172 10.112,-0.172 10.814,0.515 L11.579,1.261 C11.917,1.591 12.106,2.038 12.106,2.505 C12.106,2.972 11.917,3.419 11.579,3.749 L4.787,10.386 ZM1.947,9.769 L3.839,9.321 L8.739,4.534 L7.466,3.290 L2.501,8.141 L1.947,9.769 ZM10.561,2.256 L9.797,1.510 C9.656,1.372 9.428,1.372 9.288,1.510 L8.484,2.295 L9.757,3.539 L10.561,2.754 C10.701,2.616 10.701,2.393 10.561,2.256 Z"/>
</svg>
