<svg 
 xmlns="http://www.w3.org/2000/svg"
 xmlns:xlink="http://www.w3.org/1999/xlink"
 width="20px" height="11px">
<path fill-rule="evenodd"  fill="rgb(201, 201, 201)"
 d="M1.517,3.762 L18.480,3.762 C19.319,3.762 19.999,3.098 19.999,2.277 C19.999,1.457 19.319,0.792 18.480,0.792 L1.517,0.792 C0.679,0.792 -0.001,1.457 -0.001,2.277 C-0.001,3.098 0.679,3.762 1.517,3.762 L1.517,3.762 ZM1.517,10.149 L18.480,10.149 C19.319,10.149 19.999,9.484 19.999,8.664 C19.999,7.843 19.319,7.178 18.480,7.178 L1.517,7.178 C0.679,7.178 -0.001,7.843 -0.001,8.664 C-0.001,9.484 0.679,10.149 1.517,10.149 L1.517,10.149 Z"/>
</svg>
