<svg 
 xmlns="http://www.w3.org/2000/svg"
 xmlns:xlink="http://www.w3.org/1999/xlink"
 width="5px" height="7px">
<path fill-rule="evenodd"  fill="rgb(201, 201, 201)"
 d="M2.857,2.870 C2.814,2.921 2.761,2.955 2.697,2.975 C2.633,2.995 2.566,3.003 2.495,3.000 C2.424,2.996 2.355,2.981 2.286,2.954 C2.217,2.927 2.157,2.888 2.107,2.838 L0.152,0.871 C0.049,0.771 -0.002,0.651 -0.002,0.511 C-0.002,0.371 0.049,0.251 0.152,0.151 C0.202,0.101 0.258,0.063 0.320,0.038 C0.382,0.013 0.445,0.000 0.511,0.000 C0.577,0.000 0.641,0.013 0.705,0.038 C0.769,0.063 0.826,0.101 0.875,0.151 L2.501,1.774 L4.127,0.151 C4.226,0.051 4.345,0.000 4.485,0.000 C4.625,0.000 4.745,0.051 4.844,0.151 C4.947,0.251 4.999,0.371 4.999,0.511 C4.999,0.651 4.947,0.771 4.844,0.871 L2.857,2.870 ZM0.320,4.038 C0.382,4.013 0.445,4.000 0.511,4.000 C0.577,4.000 0.641,4.013 0.705,4.038 C0.769,4.063 0.826,4.100 0.875,4.151 L2.501,5.774 L4.127,4.151 C4.226,4.050 4.345,4.000 4.485,4.000 C4.625,4.000 4.745,4.050 4.844,4.151 C4.947,4.251 4.999,4.371 4.999,4.511 C4.999,4.650 4.947,4.771 4.844,4.871 L2.857,6.870 C2.814,6.921 2.761,6.956 2.697,6.975 C2.633,6.995 2.566,7.003 2.495,7.000 C2.424,6.996 2.355,6.981 2.286,6.954 C2.217,6.927 2.157,6.888 2.107,6.838 L0.152,4.871 C0.049,4.771 -0.002,4.650 -0.002,4.511 C-0.002,4.371 0.049,4.251 0.152,4.151 C0.202,4.100 0.258,4.063 0.320,4.038 Z"/>
</svg>
