<svg 
 xmlns="http://www.w3.org/2000/svg"
 xmlns:xlink="http://www.w3.org/1999/xlink"
 width="20px" height="16px">
<path fill-rule="evenodd"  fill="rgb(255, 255, 255)"
 d="M19.856,6.110 L12.237,0.064 C12.113,-0.035 11.940,-0.056 11.795,0.010 C11.650,0.077 11.557,0.219 11.555,0.375 L11.555,2.628 C11.552,2.835 11.389,3.008 11.176,3.028 C1.310,3.975 0.060,11.860 -0.001,15.590 C-0.002,15.780 0.131,15.945 0.321,15.989 C0.511,16.032 0.707,15.941 0.791,15.770 C2.644,12.058 6.562,10.093 11.121,9.913 C11.234,9.909 11.345,9.951 11.428,10.028 C11.509,10.106 11.556,10.212 11.555,10.323 L11.555,12.495 C11.555,12.652 11.648,12.795 11.793,12.863 C11.939,12.930 12.112,12.910 12.237,12.810 L19.856,6.728 C19.947,6.650 20.000,6.537 20.000,6.419 C20.000,6.301 19.947,6.188 19.856,6.110 L19.856,6.110 Z"/>
</svg>
