<svg 
 xmlns="http://www.w3.org/2000/svg"
 xmlns:xlink="http://www.w3.org/1999/xlink"
 width="20px" height="16px">
<path fill-rule="evenodd"  fill="rgb(150, 150, 157)"
 d="M19.855,6.110 L12.236,0.064 C12.112,-0.035 11.940,-0.056 11.794,0.010 C11.650,0.077 11.556,0.218 11.555,0.375 L11.555,2.627 C11.552,2.835 11.388,3.008 11.175,3.028 C1.310,3.974 0.059,11.859 -0.001,15.590 C-0.003,15.780 0.131,15.945 0.320,15.988 C0.510,16.032 0.706,15.941 0.791,15.770 C2.643,12.058 6.562,10.093 11.120,9.913 C11.234,9.909 11.345,9.951 11.427,10.028 C11.509,10.105 11.555,10.212 11.555,10.323 L11.555,12.495 C11.555,12.652 11.647,12.795 11.793,12.862 C11.938,12.930 12.111,12.909 12.236,12.810 L19.855,6.727 C19.947,6.650 19.999,6.537 19.999,6.419 C19.999,6.301 19.947,6.188 19.855,6.110 L19.855,6.110 Z"/>
</svg>
