<svg 
 xmlns="http://www.w3.org/2000/svg"
 xmlns:xlink="http://www.w3.org/1999/xlink"
 width="16px" height="16px">
<path fill-rule="evenodd"  fill="rgb(228, 184, 7)"
 d="M15.000,4.947 C15.000,4.947 15.041,4.947 14.007,4.947 C12.798,4.947 11.487,4.947 11.487,4.947 L10.092,6.968 C9.883,7.297 9.534,7.474 9.162,7.474 L9.162,8.737 C9.162,9.444 8.650,10.000 8.000,10.000 C7.348,10.000 6.837,9.444 6.837,8.737 L6.837,7.474 C6.465,7.474 6.116,7.297 5.907,6.968 L4.512,4.947 C4.512,4.947 3.192,4.947 1.980,4.947 C1.081,4.947 1.004,4.947 0.999,4.947 C0.999,4.947 -0.000,4.015 -0.000,2.960 C-0.000,2.651 -0.000,2.332 -0.000,2.023 C-0.000,0.953 -0.000,-0.000 -0.000,-0.000 C-0.000,-0.000 0.785,-0.000 2.006,-0.000 C5.065,-0.000 10.861,-0.000 13.947,-0.000 C15.195,-0.000 16.000,-0.000 16.000,-0.000 C16.000,-0.000 16.000,0.886 16.000,1.909 C16.000,2.271 16.000,2.650 16.000,3.013 C16.000,4.046 15.000,4.947 15.000,4.947 ZM3.033,12.522 C5.617,11.810 6.113,10.611 6.994,11.130 C7.914,11.673 7.064,12.723 5.013,13.217 C3.285,13.634 1.719,13.482 2.042,14.609 C2.293,15.485 5.312,14.299 8.835,14.259 C13.028,14.212 15.907,14.051 15.907,14.051 C15.907,14.051 16.101,15.468 15.907,15.442 C15.712,15.415 11.246,15.496 8.974,15.304 C7.587,15.187 4.134,16.086 2.042,16.000 C0.708,15.945 0.260,15.113 0.062,14.609 C-0.325,13.626 0.975,13.088 3.033,12.522 Z"/>
</svg>
