<svg 
 xmlns="http://www.w3.org/2000/svg"
 xmlns:xlink="http://www.w3.org/1999/xlink"
 width="16px" height="16px">
<path fill-rule="evenodd"  fill="rgb(255, 255, 255)"
 d="M15.891,11.093 C15.839,11.331 15.600,11.506 15.320,11.506 L12.757,11.506 L8.412,15.827 C8.301,15.936 8.141,16.000 7.972,16.000 C7.803,16.000 7.646,15.936 7.535,15.827 L3.187,11.504 L0.624,11.504 C0.310,11.504 0.053,11.288 0.042,11.014 C-0.057,8.449 0.033,8.345 0.155,8.198 C0.266,8.068 0.438,7.992 0.624,7.992 L2.867,7.992 L2.867,1.507 C2.867,1.428 2.887,1.352 2.928,1.283 L3.493,0.284 C3.592,0.108 3.796,-0.000 4.017,-0.000 L11.931,-0.000 C12.152,-0.000 12.355,0.108 12.451,0.284 L13.017,1.283 C13.058,1.352 13.078,1.431 13.078,1.507 L13.078,7.992 L15.320,7.992 C15.614,7.992 15.859,8.182 15.897,8.434 C16.127,9.981 15.900,11.047 15.891,11.093 ZM14.790,9.007 L12.489,9.007 C12.169,9.007 11.907,8.778 11.907,8.499 L11.907,1.624 L11.566,1.015 L4.378,1.015 L4.035,1.624 L4.035,8.499 C4.035,8.778 3.773,9.007 3.452,9.007 L1.169,9.007 C1.163,9.281 1.166,9.738 1.189,10.489 L3.449,10.489 C3.618,10.489 3.775,10.552 3.886,10.661 L7.969,14.721 L12.052,10.661 C12.163,10.552 12.323,10.489 12.489,10.489 L14.799,10.489 C14.831,10.157 14.851,9.641 14.790,9.007 ZM7.972,10.503 C6.405,10.503 5.130,9.379 5.130,7.999 C5.130,7.209 5.556,6.497 6.260,6.025 L6.260,3.504 C6.260,2.674 7.029,1.997 7.972,1.997 C8.916,1.997 9.685,2.671 9.685,3.504 L9.685,4.253 C9.685,4.535 9.425,4.761 9.102,4.761 C8.782,4.761 8.520,4.532 8.520,4.253 L8.520,3.504 C8.520,3.232 8.275,3.012 7.972,3.012 C7.669,3.012 7.425,3.232 7.425,3.504 L7.425,6.253 C7.425,6.411 7.337,6.546 7.207,6.640 C7.173,6.670 7.144,6.702 7.101,6.725 C6.595,6.999 6.295,7.476 6.295,7.999 C6.295,8.821 7.049,9.488 7.972,9.488 C8.898,9.488 9.650,8.819 9.650,7.999 C9.650,7.471 9.329,6.977 8.817,6.710 C8.540,6.567 8.449,6.256 8.613,6.015 C8.776,5.774 9.135,5.695 9.411,5.837 C10.276,6.286 10.814,7.114 10.814,7.999 C10.814,9.379 9.539,10.503 7.972,10.503 Z"/>
</svg>
