<svg 
 xmlns="http://www.w3.org/2000/svg"
 xmlns:xlink="http://www.w3.org/1999/xlink"
 width="14px" height="14px">
<path fill-rule="evenodd"  fill="rgb(201, 201, 201)"
 d="M11.814,5.468 C10.625,5.466 9.658,6.402 9.623,7.591 C9.618,7.802 9.641,8.009 9.693,8.204 C9.717,8.300 9.676,8.400 9.589,8.449 L6.256,10.375 C6.168,10.427 6.056,10.408 5.985,10.333 C5.578,9.890 4.990,9.614 4.340,9.625 C3.134,9.644 2.164,10.647 2.188,11.853 C2.209,13.041 3.180,13.998 4.374,13.999 C5.569,13.999 6.542,13.044 6.561,11.849 C6.564,11.696 6.550,11.547 6.523,11.402 C6.505,11.310 6.547,11.217 6.628,11.171 L10.037,9.202 C10.121,9.153 10.227,9.167 10.298,9.234 C10.685,9.604 11.207,9.834 11.784,9.841 C12.996,9.856 13.996,8.870 13.999,7.658 C14.002,6.451 13.023,5.469 11.814,5.468 L11.814,5.468 ZM11.811,8.967 C11.088,8.967 10.499,8.378 10.499,7.655 C10.499,6.932 11.088,6.343 11.811,6.343 C12.535,6.343 13.124,6.932 13.124,7.655 C13.124,8.378 12.535,8.967 11.811,8.967 L11.811,8.967 ZM9.667,-0.001 C8.447,-0.024 7.449,0.943 7.436,2.164 C7.434,2.358 7.457,2.545 7.503,2.724 C7.528,2.820 7.486,2.918 7.400,2.967 L3.921,4.977 C3.838,5.025 3.734,5.012 3.664,4.948 C3.275,4.591 2.758,4.374 2.189,4.374 C0.988,4.373 0.003,5.353 -0.002,6.554 C-0.005,7.763 0.972,8.746 2.181,8.749 C3.355,8.751 4.354,7.775 4.374,6.602 C4.378,6.381 4.349,6.168 4.292,5.966 C4.265,5.868 4.306,5.766 4.393,5.715 L7.842,3.725 C7.925,3.676 8.032,3.689 8.104,3.758 C8.500,4.142 9.040,4.377 9.637,4.374 C10.817,4.369 11.788,3.416 11.813,2.236 C11.837,1.020 10.872,0.023 9.667,-0.001 L9.667,-0.001 ZM2.186,7.874 C1.463,7.874 0.874,7.284 0.874,6.561 C0.874,5.838 1.463,5.249 2.186,5.249 C2.909,5.249 3.499,5.838 3.499,6.561 C3.499,7.284 2.909,7.874 2.186,7.874 L2.186,7.874 Z"/>
</svg>
