<svg 
 xmlns="http://www.w3.org/2000/svg"
 xmlns:xlink="http://www.w3.org/1999/xlink"
 width="12px" height="12px">
<path fill-rule="evenodd"  fill="rgb(201, 201, 201)"
 d="M10.958,7.005 L5.167,7.005 C4.593,7.005 4.126,6.554 4.126,5.999 C4.126,5.445 4.593,4.993 5.167,4.993 L10.958,4.993 C11.531,4.993 11.998,5.445 11.998,5.999 C11.998,6.554 11.531,7.005 10.958,7.005 ZM10.958,2.010 L5.167,2.010 C4.593,2.010 4.126,1.559 4.126,1.005 C4.126,0.450 4.593,-0.001 5.167,-0.001 L10.958,-0.001 C11.531,-0.001 11.998,0.450 11.998,1.005 C11.998,1.559 11.531,2.010 10.958,2.010 ZM1.876,11.999 L1.039,11.999 C0.465,11.999 -0.002,11.548 -0.002,10.993 C-0.002,10.439 0.465,9.988 1.039,9.988 L1.876,9.988 C2.452,9.988 2.919,10.439 2.919,10.993 C2.919,11.548 2.452,11.999 1.876,11.999 ZM1.876,7.005 L1.039,7.005 C0.465,7.005 -0.002,6.554 -0.002,5.999 C-0.002,5.445 0.465,4.993 1.039,4.993 L1.876,4.993 C2.452,4.993 2.919,5.445 2.919,5.999 C2.919,6.554 2.452,7.005 1.876,7.005 ZM1.876,2.010 L1.039,2.010 C0.465,2.010 -0.002,1.559 -0.002,1.005 C-0.002,0.450 0.465,-0.001 1.039,-0.001 L1.876,-0.001 C2.452,-0.001 2.919,0.450 2.919,1.005 C2.919,1.559 2.452,2.010 1.876,2.010 ZM5.167,9.988 L10.958,9.988 C11.531,9.988 11.998,10.439 11.998,10.993 C11.998,11.548 11.531,11.999 10.958,11.999 L5.167,11.999 C4.593,11.999 4.126,11.548 4.126,10.993 C4.126,10.439 4.593,9.988 5.167,9.988 Z"/>
</svg>
