<svg 
 xmlns="http://www.w3.org/2000/svg"
 xmlns:xlink="http://www.w3.org/1999/xlink"
 width="16px" height="17px">
<path fill-rule="evenodd"  fill="rgb(255, 255, 255)"
 d="M15.994,11.549 C15.994,13.224 15.202,14.716 13.966,15.679 C13.897,15.732 13.827,15.784 13.755,15.834 C12.888,16.442 12.293,15.396 12.957,14.933 C13.032,14.881 13.101,14.827 13.172,14.772 C14.097,14.032 14.689,12.899 14.689,11.629 C14.689,10.813 14.438,10.058 14.017,9.422 C13.919,12.258 10.830,14.538 7.014,14.538 C3.138,14.538 -0.005,12.187 -0.005,9.288 C-0.005,8.428 0.283,7.623 0.772,6.906 C0.291,6.260 -0.005,5.541 -0.005,4.767 C-0.005,2.133 3.140,-0.002 7.019,-0.002 C10.900,-0.002 14.045,2.133 14.045,4.767 C14.045,5.543 13.746,6.265 13.262,6.912 C13.283,6.944 13.310,6.974 13.331,7.006 C14.919,7.914 15.994,9.604 15.994,11.549 ZM11.940,6.077 L9.464,5.005 L9.753,7.584 C10.714,7.233 11.487,6.711 11.940,6.077 ZM7.014,11.792 C9.449,11.792 11.423,10.309 11.423,8.479 C11.423,8.473 11.421,8.464 11.420,8.458 C10.213,9.123 8.695,9.537 7.019,9.537 C5.340,9.537 3.819,9.120 2.610,8.453 C2.610,8.461 2.607,8.472 2.607,8.479 C2.607,10.309 4.580,11.792 7.014,11.792 ZM8.594,7.898 L8.321,6.136 L5.291,7.873 C5.833,7.985 6.404,8.060 7.008,8.060 C7.564,8.060 8.089,7.994 8.594,7.898 ZM3.919,7.457 L5.382,6.299 L1.949,5.855 C2.326,6.507 3.012,7.066 3.919,7.457 ZM1.681,4.381 L4.729,4.683 L2.936,2.613 C2.253,3.101 1.806,3.708 1.681,4.381 ZM3.971,2.027 L5.056,3.714 L6.250,1.497 C5.415,1.569 4.636,1.747 3.971,2.027 ZM5.719,4.767 C5.719,5.258 6.302,5.656 7.019,5.656 C7.738,5.656 8.319,5.258 8.319,4.767 C8.319,4.277 7.738,3.878 7.019,3.878 C6.302,3.878 5.719,4.277 5.719,4.767 ZM8.253,1.547 L7.178,3.067 L10.221,2.116 C9.642,1.850 8.979,1.653 8.253,1.547 ZM11.917,3.407 L8.810,3.714 L12.389,4.791 C12.389,4.779 12.395,4.768 12.395,4.755 C12.395,4.274 12.218,3.819 11.917,3.407 Z"/>
</svg>
