<svg 
 xmlns="http://www.w3.org/2000/svg"
 xmlns:xlink="http://www.w3.org/1999/xlink"
 width="16px" height="17px">
<path fill-rule="evenodd"  fill="rgb(228, 184, 7)"
 d="M15.997,11.550 C15.997,13.225 15.205,14.717 13.970,15.679 C13.901,15.733 13.830,15.785 13.758,15.835 C12.892,16.443 12.296,15.398 12.960,14.934 C13.034,14.882 13.105,14.828 13.175,14.773 C14.100,14.033 14.692,12.900 14.692,11.631 C14.692,10.815 14.441,10.059 14.020,9.424 C13.922,12.259 10.833,14.539 7.017,14.539 C3.141,14.539 -0.002,12.188 -0.002,9.288 C-0.002,8.429 0.286,7.624 0.776,6.907 C0.294,6.261 -0.002,5.542 -0.002,4.769 C-0.002,2.134 3.143,-0.001 7.022,-0.001 C10.903,-0.001 14.048,2.134 14.048,4.769 C14.048,5.544 13.749,6.266 13.265,6.913 C13.287,6.946 13.314,6.976 13.335,7.008 C14.923,7.916 15.997,9.605 15.997,11.550 ZM11.943,6.078 L9.467,5.006 L9.756,7.586 C10.717,7.234 11.490,6.712 11.943,6.078 ZM7.017,11.793 C9.452,11.793 11.426,10.310 11.426,8.480 C11.426,8.474 11.424,8.465 11.424,8.459 C10.216,9.124 8.698,9.539 7.022,9.539 C5.343,9.539 3.821,9.122 2.613,8.454 C2.612,8.462 2.610,8.473 2.610,8.480 C2.610,10.310 4.583,11.793 7.017,11.793 ZM8.597,7.899 L8.324,6.138 L5.293,7.874 C5.836,7.987 6.406,8.061 7.010,8.061 C7.566,8.061 8.092,7.995 8.597,7.899 ZM3.921,7.458 L5.385,6.299 L1.951,5.856 C2.329,6.508 3.015,7.067 3.921,7.458 ZM1.684,4.382 L4.732,4.684 L2.939,2.614 C2.256,3.102 1.809,3.709 1.684,4.382 ZM3.974,2.027 L5.059,3.715 L6.253,1.498 C5.418,1.570 4.640,1.748 3.974,2.027 ZM5.723,4.769 C5.723,5.259 6.305,5.657 7.022,5.657 C7.741,5.657 8.322,5.259 8.322,4.769 C8.322,4.278 7.741,3.880 7.022,3.880 C6.305,3.880 5.723,4.278 5.723,4.769 ZM8.256,1.548 L7.181,3.068 L10.224,2.117 C9.645,1.851 8.982,1.654 8.256,1.548 ZM11.919,3.408 L8.813,3.715 L12.392,4.792 C12.392,4.780 12.398,4.769 12.398,4.756 C12.398,4.275 12.221,3.820 11.919,3.408 Z"/>
</svg>
