<svg 
 xmlns="http://www.w3.org/2000/svg"
 xmlns:xlink="http://www.w3.org/1999/xlink"
 width="14px" height="14px">
<path fill-rule="evenodd"  fill="rgb(201, 201, 201)"
 d="M6.999,14.000 C3.133,14.000 -0.001,10.865 -0.001,7.000 C-0.001,3.134 3.133,-0.000 6.999,-0.000 C10.865,-0.000 13.999,3.134 13.999,7.000 C13.999,10.865 10.865,14.000 6.999,14.000 ZM11.243,2.757 C10.691,2.206 10.049,1.773 9.335,1.472 C8.596,1.157 7.811,1.000 6.999,1.000 C6.188,1.000 5.402,1.157 4.663,1.472 C3.949,1.773 3.306,2.206 2.755,2.757 C2.204,3.309 1.771,3.951 1.470,4.665 C1.155,5.404 0.997,6.190 0.997,7.001 C0.997,7.812 1.157,8.598 1.470,9.337 C1.771,10.051 2.204,10.693 2.755,11.245 C3.306,11.797 3.949,12.229 4.663,12.531 C5.402,12.845 6.188,13.002 6.999,13.002 C7.811,13.002 8.596,12.843 9.335,12.531 C10.049,12.229 10.691,11.797 11.243,11.245 C11.794,10.693 12.227,10.051 12.529,9.337 C12.843,8.598 13.001,7.812 13.001,7.001 C13.001,6.190 12.842,5.404 12.529,4.665 C12.227,3.951 11.794,3.309 11.243,2.757 ZM9.999,8.000 L3.999,8.000 C3.449,8.000 2.999,7.549 2.999,7.000 C2.999,6.450 3.449,6.000 3.999,6.000 L9.999,6.000 C10.549,6.000 10.999,6.450 10.999,7.000 C10.999,7.549 10.549,8.000 9.999,8.000 Z"/>
</svg>
