<svg 
 xmlns="http://www.w3.org/2000/svg"
 xmlns:xlink="http://www.w3.org/1999/xlink"
 width="15px" height="16px">
<path fill-rule="evenodd"  fill="rgb(255, 255, 255)"
 d="M14.165,12.563 L8.332,15.757 C7.817,16.043 7.181,16.043 6.665,15.757 L0.832,12.563 C0.317,12.277 -0.000,11.751 -0.001,11.181 L-0.001,4.791 C-0.000,4.222 0.317,3.695 0.832,3.410 L6.665,0.215 C6.919,0.074 7.206,0.000 7.499,-0.000 C7.791,0.000 8.079,0.074 8.332,0.215 L14.165,3.410 C14.681,3.695 14.998,4.222 14.999,4.791 L14.999,11.181 C14.998,11.751 14.681,12.277 14.165,12.563 ZM13.332,11.181 L13.332,5.466 L8.332,8.233 L8.332,13.919 L13.332,11.181 ZM1.666,5.453 L1.666,11.181 L6.665,13.919 L6.665,8.231 L1.723,5.496 C1.699,5.483 1.688,5.466 1.666,5.453 ZM7.499,1.533 L7.499,1.597 L2.729,4.209 L7.501,6.849 L12.328,4.178 L7.499,1.533 Z"/>
</svg>
