<svg 
 xmlns="http://www.w3.org/2000/svg"
 xmlns:xlink="http://www.w3.org/1999/xlink"
 width="16px" height="16px">
<path fill-rule="evenodd"  fill="rgb(255, 255, 255)"
 d="M14.714,12.940 L14.714,15.648 C14.714,15.880 14.583,15.996 14.324,15.996 L13.185,15.996 C12.924,15.996 12.793,15.880 12.793,15.648 L12.793,12.939 C12.039,12.617 11.514,11.936 11.514,11.140 C11.514,10.343 12.039,9.661 12.793,9.340 L12.793,0.345 C12.793,0.113 12.924,-0.003 13.185,-0.003 L14.324,-0.003 C14.583,-0.003 14.714,0.113 14.714,0.345 L14.714,9.339 C15.468,9.661 15.994,10.343 15.994,11.140 C15.994,11.936 15.468,12.618 14.714,12.940 ZM8.953,6.582 L8.953,15.648 C8.953,15.880 8.823,15.996 8.563,15.996 L7.424,15.996 C7.163,15.996 7.033,15.880 7.033,15.648 L7.033,6.582 C6.279,6.260 5.754,5.579 5.754,4.783 C5.754,3.987 6.279,3.305 7.033,2.983 L7.033,0.345 C7.033,0.113 7.163,-0.003 7.424,-0.003 L8.563,-0.003 C8.823,-0.003 8.953,0.113 8.953,0.345 L8.953,2.982 C9.708,3.304 10.234,3.986 10.234,4.783 C10.234,5.579 9.708,6.261 8.953,6.582 ZM3.193,12.940 L3.193,15.648 C3.193,15.880 3.063,15.996 2.803,15.996 L1.665,15.996 C1.404,15.996 1.274,15.880 1.274,15.648 L1.274,12.940 C0.519,12.618 -0.007,11.936 -0.007,11.140 C-0.007,10.343 0.519,9.660 1.274,9.339 L1.274,0.345 C1.274,0.113 1.404,-0.003 1.665,-0.003 L2.803,-0.003 C3.063,-0.003 3.193,0.113 3.193,0.345 L3.193,9.339 C3.947,9.660 4.473,10.343 4.473,11.140 C4.473,11.936 3.947,12.618 3.193,12.940 Z"/>
</svg>
