<svg 
 xmlns="http://www.w3.org/2000/svg"
 xmlns:xlink="http://www.w3.org/1999/xlink"
 width="16px" height="16px">
<path fill-rule="evenodd"  fill="rgb(249, 87, 87)"
 d="M13.139,15.997 L2.854,15.997 C1.275,15.997 -0.004,14.843 -0.004,13.417 L-0.004,2.579 C-0.004,1.153 1.275,-0.002 2.854,-0.002 L13.139,-0.002 C14.718,-0.002 15.997,1.153 15.997,2.579 L15.997,13.417 C15.997,14.843 14.718,15.997 13.139,15.997 ZM13.998,1.998 L1.998,1.998 L1.998,7.998 L13.998,7.998 L13.998,1.998 ZM5.667,5.004 L10.326,5.004 C10.693,5.004 10.991,5.228 10.991,5.504 C10.991,5.781 10.693,6.004 10.326,6.004 L5.667,6.004 C5.299,6.004 5.002,5.781 5.002,5.504 C5.002,5.228 5.299,5.004 5.667,5.004 Z"/>
</svg>
