<svg 
 xmlns="http://www.w3.org/2000/svg"
 xmlns:xlink="http://www.w3.org/1999/xlink"
 width="14px" height="14px">
<path fill-rule="evenodd"  fill="rgb(255, 255, 255)"
 d="M13.329,7.672 L10.103,7.672 C9.733,7.672 9.432,7.371 9.432,7.000 C9.432,6.629 9.733,6.328 10.103,6.328 L13.329,6.328 C13.699,6.328 13.999,6.629 13.999,7.000 C13.999,7.371 13.699,7.672 13.329,7.672 ZM13.310,2.633 L11.874,2.633 C11.504,2.633 11.203,2.332 11.203,1.961 C11.203,1.589 11.504,1.288 11.874,1.288 L13.310,1.288 C13.680,1.288 13.981,1.589 13.981,1.961 C13.981,2.332 13.680,2.633 13.310,2.633 ZM8.761,3.921 C7.682,3.921 6.804,3.042 6.804,1.961 C6.804,0.879 7.682,-0.000 8.761,-0.000 C9.840,-0.000 10.719,0.879 10.719,1.961 C10.719,3.042 9.840,3.921 8.761,3.921 ZM5.630,2.633 L0.671,2.633 C0.300,2.633 -0.001,2.332 -0.001,1.961 C-0.001,1.589 0.300,1.288 0.671,1.288 L5.630,1.288 C6.000,1.288 6.301,1.589 6.301,1.961 C6.301,2.332 6.000,2.633 5.630,2.633 ZM0.689,6.328 L3.784,6.328 C4.155,6.328 4.455,6.629 4.455,7.000 C4.455,7.371 4.155,7.672 3.784,7.672 L0.689,7.672 C0.318,7.672 0.018,7.371 0.018,7.000 C0.018,6.629 0.318,6.328 0.689,6.328 ZM0.689,11.367 L2.069,11.367 C2.440,11.367 2.740,11.668 2.740,12.039 C2.740,12.410 2.440,12.711 2.069,12.711 L0.689,12.711 C0.318,12.711 0.018,12.410 0.018,12.039 C0.018,11.668 0.318,11.367 0.689,11.367 ZM5.252,10.078 C6.331,10.078 7.209,10.958 7.209,12.039 C7.209,13.120 6.331,14.000 5.252,14.000 C4.173,14.000 3.295,13.120 3.295,12.039 C3.295,10.958 4.173,10.078 5.252,10.078 ZM6.959,8.960 C5.880,8.960 5.002,8.081 5.002,7.000 C5.002,5.919 5.880,5.039 6.959,5.039 C8.038,5.039 8.916,5.919 8.916,7.000 C8.916,8.081 8.038,8.960 6.959,8.960 ZM8.388,11.367 L13.329,11.367 C13.699,11.367 13.999,11.668 13.999,12.039 C13.999,12.410 13.699,12.711 13.329,12.711 L8.388,12.711 C8.018,12.711 7.717,12.410 7.717,12.039 C7.717,11.668 8.018,11.367 8.388,11.367 Z"/>
</svg>
