<svg 
 xmlns="http://www.w3.org/2000/svg"
 xmlns:xlink="http://www.w3.org/1999/xlink"
 width="12px" height="12px">
<path fill-rule="evenodd"  fill="rgb(255, 255, 255)"
 d="M0.750,12.000 L11.248,12.000 C11.658,12.000 11.999,11.668 11.999,11.249 C11.999,10.839 11.668,10.498 11.248,10.498 L0.750,10.498 C0.341,10.498 -0.001,10.829 -0.001,11.249 C-0.001,11.668 0.341,12.000 0.750,12.000 L0.750,12.000 ZM0.750,6.751 L9.004,6.751 C9.414,6.751 9.756,6.420 9.756,6.000 C9.756,5.581 9.424,5.249 9.004,5.249 L0.750,5.249 C0.341,5.249 -0.001,5.581 -0.001,6.000 C-0.001,6.410 0.341,6.751 0.750,6.751 L0.750,6.751 ZM0.750,1.502 L6.000,1.502 C6.409,1.502 6.751,1.171 6.751,0.751 C6.751,0.342 6.419,0.000 6.000,0.000 L0.750,0.000 C0.341,0.000 -0.001,0.332 -0.001,0.751 C-0.001,1.161 0.341,1.493 0.750,1.502 L0.750,1.502 Z"/>
</svg>
