<svg 
 xmlns="http://www.w3.org/2000/svg"
 xmlns:xlink="http://www.w3.org/1999/xlink"
 width="12px" height="12px">
<path fill-rule="evenodd"  fill="rgb(201, 201, 201)"
 d="M11.877,1.502 C11.913,1.584 11.943,1.680 11.966,1.790 C11.988,1.899 12.000,2.014 12.000,2.132 C12.000,2.251 11.977,2.370 11.932,2.489 C11.886,2.608 11.813,2.722 11.713,2.832 C11.604,2.941 11.506,3.037 11.420,3.120 C11.333,3.202 11.258,3.275 11.194,3.339 C11.122,3.412 11.054,3.476 10.990,3.531 L8.438,0.967 C8.547,0.866 8.676,0.745 8.826,0.604 C8.977,0.462 9.102,0.350 9.202,0.268 C9.329,0.167 9.461,0.096 9.598,0.055 C9.734,0.014 9.868,-0.004 10.000,0.000 C10.132,0.005 10.260,0.025 10.383,0.062 C10.505,0.099 10.612,0.140 10.703,0.185 C10.894,0.286 11.106,0.462 11.338,0.713 C11.570,0.965 11.750,1.227 11.877,1.502 L11.877,1.502 ZM1.245,8.193 C1.299,8.138 1.427,8.008 1.627,7.802 C1.827,7.596 2.078,7.343 2.378,7.041 L7.414,1.982 L9.966,4.559 L7.032,7.507 L5.940,8.618 C5.576,8.974 5.248,9.301 4.957,9.598 C4.666,9.895 4.425,10.140 4.234,10.332 C4.043,10.524 3.929,10.633 3.893,10.661 C3.802,10.743 3.697,10.830 3.579,10.921 C3.460,11.013 3.338,11.086 3.210,11.141 C3.083,11.205 2.896,11.282 2.651,11.374 C2.405,11.465 2.148,11.554 1.880,11.641 C1.611,11.728 1.356,11.803 1.115,11.867 C0.874,11.931 0.694,11.972 0.576,11.991 C0.331,12.018 0.167,11.982 0.085,11.881 C0.003,11.780 -0.020,11.612 0.016,11.374 C0.035,11.246 0.078,11.061 0.146,10.818 C0.214,10.576 0.287,10.325 0.365,10.064 C0.442,9.804 0.517,9.564 0.590,9.345 C0.663,9.125 0.722,8.974 0.767,8.892 C0.822,8.764 0.883,8.648 0.951,8.542 C1.020,8.437 1.118,8.321 1.245,8.193 L1.245,8.193 Z"/>
</svg>
