<svg 
 xmlns="http://www.w3.org/2000/svg"
 xmlns:xlink="http://www.w3.org/1999/xlink"
 width="14px" height="14px">
<path fill-rule="evenodd"  fill="rgb(201, 201, 201)"
 d="M5.732,3.004 L6.355,3.004 L6.355,2.280 L4.642,2.280 C4.348,2.280 4.080,2.158 3.886,1.950 L3.866,1.928 C3.686,1.728 3.572,1.448 3.572,1.140 C3.572,0.824 3.692,0.545 3.886,0.337 L3.906,0.315 C4.100,0.122 4.354,0.000 4.635,0.000 L9.097,0.000 C9.385,0.000 9.659,0.129 9.853,0.330 C10.047,0.545 10.167,0.824 10.167,1.133 C10.167,1.455 10.047,1.742 9.853,1.943 C9.666,2.151 9.391,2.272 9.097,2.272 L7.398,2.272 L7.405,2.323 L7.405,2.996 L8.020,2.996 C8.234,2.996 8.441,3.039 8.642,3.140 C8.829,3.219 9.010,3.348 9.150,3.505 L9.150,3.513 C9.298,3.670 9.418,3.849 9.492,4.050 L9.505,4.079 L9.525,4.136 L13.472,4.136 C13.766,4.136 14.000,4.387 14.000,4.695 L14.000,7.254 C14.000,7.563 13.766,7.821 13.472,7.821 L9.532,7.821 L9.498,7.907 C9.418,8.100 9.298,8.294 9.157,8.444 L9.150,8.452 C9.003,8.602 8.836,8.731 8.649,8.810 C8.448,8.896 8.241,8.946 8.027,8.946 L5.732,8.946 C5.525,8.946 5.311,8.896 5.117,8.810 C4.923,8.724 4.742,8.595 4.595,8.444 C4.455,8.287 4.334,8.093 4.254,7.885 L4.194,7.907 C4.047,7.971 3.920,8.072 3.806,8.194 C3.692,8.308 3.599,8.452 3.545,8.602 C3.485,8.760 3.458,8.925 3.458,9.097 C3.458,9.412 3.217,9.656 2.930,9.656 L0.528,9.656 C0.248,9.656 0.000,9.405 0.000,9.097 L0.000,9.082 C0.007,8.416 0.134,7.778 0.361,7.197 C0.595,6.581 0.950,6.036 1.371,5.584 L1.405,5.563 C1.819,5.111 2.321,4.753 2.876,4.509 C3.298,4.323 3.752,4.201 4.221,4.151 C4.227,4.115 4.248,4.079 4.261,4.043 C4.341,3.835 4.455,3.649 4.595,3.498 C4.742,3.348 4.923,3.211 5.117,3.133 C5.311,3.047 5.525,3.004 5.732,3.004 L5.732,3.004 ZM2.809,13.226 C2.749,13.384 2.669,13.520 2.555,13.642 C2.448,13.756 2.321,13.849 2.181,13.907 C2.040,13.971 1.886,14.000 1.732,14.000 C1.585,14.000 1.431,13.971 1.304,13.921 L1.284,13.907 C1.144,13.849 1.010,13.756 0.903,13.642 C0.796,13.520 0.709,13.384 0.649,13.226 C0.602,13.082 0.562,12.918 0.562,12.753 C0.562,12.158 0.923,11.699 1.271,11.262 L1.291,11.240 L1.492,10.982 C1.505,10.968 1.518,10.946 1.532,10.932 C1.672,10.817 1.866,10.839 1.973,10.982 L2.080,11.111 L2.174,11.233 L2.181,11.233 L2.201,11.247 C2.355,11.455 2.515,11.663 2.655,11.885 L2.662,11.900 C2.809,12.158 2.910,12.437 2.910,12.746 C2.896,12.918 2.863,13.082 2.809,13.226 L2.809,13.226 ZM2.167,11.233 L2.174,11.240 L2.167,11.233 Z"/>
</svg>
