<svg 
 xmlns="http://www.w3.org/2000/svg"
 xmlns:xlink="http://www.w3.org/1999/xlink"
 width="14px" height="14px">
<path fill-rule="evenodd"  fill="rgb(255, 255, 255)"
 d="M13.688,1.263 L6.006,8.961 C5.796,9.311 5.377,9.451 5.028,9.241 C4.679,9.031 4.539,8.611 4.749,8.261 C4.819,8.191 4.889,8.051 5.028,7.981 L12.640,0.283 C12.920,-0.067 13.478,-0.067 13.828,0.143 C14.107,0.493 14.037,0.983 13.688,1.263 ZM6.285,1.403 L2.095,1.403 C1.676,1.403 1.397,1.683 1.397,2.103 L1.397,11.900 C1.397,12.320 1.676,12.600 2.095,12.600 L11.872,12.600 C12.291,12.600 12.570,12.320 12.570,11.900 L12.570,7.001 C12.570,6.582 12.850,6.302 13.269,6.302 C13.688,6.302 13.968,6.582 13.968,7.001 L13.968,12.600 C13.968,13.370 13.339,14.000 12.570,14.000 L1.397,14.000 C0.628,14.000 -0.000,13.370 -0.000,12.600 L-0.000,1.403 C-0.000,0.633 0.628,0.003 1.397,0.003 L6.285,0.003 C6.704,0.003 6.983,0.283 6.983,0.703 C6.983,1.123 6.704,1.403 6.285,1.403 Z"/>
</svg>
