<svg 
 xmlns="http://www.w3.org/2000/svg"
 xmlns:xlink="http://www.w3.org/1999/xlink"
 width="16px" height="16px">
<path fill-rule="evenodd"  fill="rgb(50, 197, 35)"
 d="M14.717,12.940 L14.717,15.649 C14.717,15.881 14.586,15.997 14.326,15.997 L13.187,15.997 C12.926,15.997 12.796,15.881 12.796,15.649 L12.796,12.940 C12.042,12.618 11.517,11.937 11.517,11.141 C11.517,10.344 12.042,9.663 12.796,9.341 L12.796,0.346 C12.796,0.114 12.926,-0.002 13.187,-0.002 L14.326,-0.002 C14.586,-0.002 14.717,0.114 14.717,0.346 L14.717,9.341 C15.472,9.662 15.997,10.344 15.997,11.141 C15.997,11.937 15.472,12.618 14.717,12.940 ZM8.956,6.583 L8.956,15.649 C8.956,15.881 8.826,15.997 8.566,15.997 L7.428,15.997 C7.167,15.997 7.037,15.881 7.037,15.649 L7.037,6.583 C6.283,6.262 5.757,5.580 5.757,4.783 C5.757,3.987 6.283,3.305 7.037,2.983 L7.037,0.346 C7.037,0.114 7.167,-0.002 7.428,-0.002 L8.566,-0.002 C8.826,-0.002 8.956,0.114 8.956,0.346 L8.956,2.983 C9.711,3.305 10.237,3.987 10.237,4.783 C10.237,5.580 9.711,6.262 8.956,6.583 ZM3.195,12.941 L3.195,15.649 C3.195,15.881 3.066,15.997 2.806,15.997 L1.668,15.997 C1.408,15.997 1.277,15.881 1.277,15.649 L1.277,12.941 C0.522,12.620 -0.003,11.937 -0.003,11.141 C-0.003,10.343 0.522,9.661 1.277,9.340 L1.277,0.346 C1.277,0.114 1.408,-0.002 1.668,-0.002 L2.806,-0.002 C3.066,-0.002 3.195,0.114 3.195,0.346 L3.195,9.340 C3.951,9.661 4.476,10.344 4.476,11.141 C4.476,11.937 3.951,12.619 3.195,12.941 Z"/>
</svg>
