<svg 
 xmlns="http://www.w3.org/2000/svg"
 xmlns:xlink="http://www.w3.org/1999/xlink"
 width="14px" height="14px">
<path fill-rule="evenodd"  fill="rgb(201, 201, 201)"
 d="M13.000,6.000 L8.000,6.000 L8.000,1.000 C8.000,0.450 7.550,-0.000 7.000,-0.000 C6.450,-0.000 6.000,0.450 6.000,1.000 L6.000,6.000 L1.000,6.000 C0.450,6.000 -0.000,6.450 -0.000,7.000 C-0.000,7.550 0.450,8.000 1.000,8.000 L6.000,8.000 L6.000,13.000 C6.000,13.550 6.450,14.000 7.000,14.000 C7.550,14.000 8.000,13.550 8.000,13.000 L8.000,8.000 L13.000,8.000 C13.550,8.000 14.000,7.550 14.000,7.000 C14.000,6.450 13.550,6.000 13.000,6.000 L13.000,6.000 Z"/>
</svg>
