<svg 
 xmlns="http://www.w3.org/2000/svg"
 xmlns:xlink="http://www.w3.org/1999/xlink"
 width="13px" height="14px">
<path fill-rule="evenodd"  fill="rgb(255, 255, 255)"
 d="M12.536,1.633 L9.749,1.633 L9.749,0.467 C9.749,0.209 9.541,-0.000 9.285,-0.000 L3.715,-0.000 C3.459,-0.000 3.251,0.209 3.251,0.467 L3.251,1.633 L0.464,1.633 C0.208,1.633 -0.000,1.842 -0.000,2.100 C-0.000,2.358 0.208,2.567 0.464,2.567 L0.953,2.567 L2.084,12.755 C2.163,13.464 2.758,14.000 3.467,14.000 L9.532,14.000 C10.241,14.000 10.837,13.464 10.916,12.755 L12.046,2.567 L12.535,2.567 C12.792,2.567 13.000,2.358 13.000,2.100 C13.000,1.842 12.792,1.633 12.536,1.633 L12.536,1.633 ZM4.179,0.933 L8.820,0.933 L8.820,1.633 L4.179,1.633 L4.179,0.933 ZM9.994,12.652 C9.967,12.888 9.769,13.067 9.533,13.067 L3.467,13.067 C3.231,13.067 3.032,12.888 3.006,12.652 L1.887,2.567 L11.112,2.567 L9.994,12.652 ZM7.892,11.505 C8.148,11.505 8.356,11.296 8.356,11.038 L8.356,4.187 C8.356,3.929 8.148,3.720 7.892,3.720 C7.636,3.720 7.428,3.929 7.428,4.187 L7.428,11.038 C7.428,11.296 7.636,11.505 7.892,11.505 L7.892,11.505 ZM5.340,11.505 C5.596,11.505 5.804,11.296 5.804,11.038 L5.804,4.187 C5.804,3.929 5.596,3.720 5.340,3.720 C5.083,3.720 4.876,3.929 4.876,4.187 L4.876,11.038 C4.876,11.296 5.083,11.505 5.340,11.505 L5.340,11.505 Z"/>
</svg>
