<svg 
 xmlns="http://www.w3.org/2000/svg"
 xmlns:xlink="http://www.w3.org/1999/xlink"
 width="14px" height="14px">
<path fill-rule="evenodd"  fill="rgb(201, 201, 201)"
 d="M3.027,12.614 C0.172,10.691 -0.810,6.966 0.710,3.886 C2.435,0.444 6.607,-0.969 10.067,0.699 C13.501,2.326 14.968,6.442 13.326,9.871 C12.652,11.270 11.535,12.413 10.135,13.098 C9.784,13.273 9.367,13.139 9.193,12.789 C9.017,12.453 9.152,12.036 9.502,11.861 L9.516,11.861 C12.248,10.516 13.379,7.221 12.033,4.492 C11.480,3.375 10.579,2.488 9.462,1.950 C6.688,0.605 3.363,1.748 1.976,4.492 C0.684,7.114 1.667,10.274 4.211,11.713 L4.211,10.530 C4.211,10.140 4.521,9.830 4.911,9.830 C5.302,9.830 5.611,10.140 5.611,10.530 L5.611,13.314 C5.611,13.704 5.302,14.013 4.911,14.000 L2.111,14.000 C1.720,14.000 1.411,13.690 1.411,13.314 C1.411,12.923 1.720,12.614 2.111,12.628 L3.027,12.628 L3.027,12.614 Z"/>
</svg>
