<svg 
 xmlns="http://www.w3.org/2000/svg"
 xmlns:xlink="http://www.w3.org/1999/xlink"
 width="19px" height="4px">
<path fill-rule="evenodd"  fill="rgb(80, 80, 82)"
 d="M17.999,4.000 L17.999,-0.000 L18.999,-0.000 L18.999,4.000 L17.999,4.000 ZM16.000,-0.000 L16.999,-0.000 L16.999,4.000 L16.000,4.000 L16.000,-0.000 ZM13.999,-0.000 L14.999,-0.000 L14.999,4.000 L13.999,4.000 L13.999,-0.000 ZM12.000,-0.000 L13.000,-0.000 L13.000,4.000 L12.000,4.000 L12.000,-0.000 ZM9.999,-0.000 L10.999,-0.000 L10.999,4.000 L9.999,4.000 L9.999,-0.000 ZM7.999,-0.000 L9.000,-0.000 L9.000,4.000 L7.999,4.000 L7.999,-0.000 ZM6.000,-0.000 L6.999,-0.000 L6.999,4.000 L6.000,4.000 L6.000,-0.000 ZM3.999,-0.000 L5.000,-0.000 L5.000,4.000 L3.999,4.000 L3.999,-0.000 ZM1.999,-0.000 L2.999,-0.000 L2.999,4.000 L1.999,4.000 L1.999,-0.000 ZM-0.001,-0.000 L1.000,-0.000 L1.000,4.000 L-0.001,4.000 L-0.001,-0.000 Z"/>
</svg>
