<svg 
 xmlns="http://www.w3.org/2000/svg"
 xmlns:xlink="http://www.w3.org/1999/xlink"
 width="16px" height="14px">
<path fill-rule="evenodd"  fill="rgb(255, 255, 255)"
 d="M15.113,4.559 L8.513,6.798 C8.350,6.853 8.178,6.882 8.006,6.881 C7.833,6.882 7.661,6.853 7.498,6.798 L0.897,4.559 C0.374,4.418 0.012,3.960 0.012,3.439 C0.012,2.918 0.374,2.461 0.897,2.320 L7.498,0.081 C7.826,-0.029 8.184,-0.029 8.513,0.081 L15.113,2.320 C15.637,2.461 15.998,2.918 15.998,3.439 C15.998,3.960 15.637,4.418 15.113,4.559 ZM0.883,5.872 L1.925,5.522 L3.882,6.188 L1.498,6.994 L8.006,9.196 L14.512,6.994 L12.119,6.191 L14.071,5.525 L15.113,5.875 L15.100,5.872 C15.623,6.012 15.985,6.470 15.985,6.991 C15.985,7.512 15.623,7.969 15.100,8.111 L8.498,10.349 C8.170,10.460 7.812,10.460 7.485,10.349 L0.883,8.111 C0.360,7.969 -0.002,7.512 -0.002,6.991 C-0.002,6.470 0.360,6.012 0.883,5.872 ZM0.893,9.426 L1.935,9.077 L3.892,9.743 L1.509,10.549 L8.006,12.751 L14.499,10.552 L12.119,9.746 L14.071,9.080 L15.113,9.429 L15.110,9.426 C15.633,9.567 15.995,10.025 15.995,10.546 C15.995,11.067 15.633,11.524 15.110,11.665 L8.509,13.904 C8.181,14.015 7.822,14.015 7.494,13.904 L0.893,11.665 C0.369,11.524 0.009,11.067 0.009,10.546 C0.009,10.025 0.369,9.567 0.893,9.426 Z"/>
</svg>
