<svg 
 xmlns="http://www.w3.org/2000/svg"
 xmlns:xlink="http://www.w3.org/1999/xlink"
 width="16px" height="16px">
<path fill-rule="evenodd"  fill="rgb(201, 201, 201)"
 d="M13.419,9.829 C14.568,9.829 15.484,9.022 15.484,8.041 C15.484,7.054 14.555,6.246 13.419,6.246 L9.831,6.246 L9.831,2.657 C9.831,1.521 9.026,0.592 8.038,0.592 C7.051,0.592 6.244,1.521 6.244,2.657 L6.244,6.246 L2.657,6.246 C1.521,6.246 0.592,7.054 0.592,8.041 C0.592,9.022 1.521,9.829 2.657,9.829 L6.244,9.829 L6.244,13.418 C6.244,14.554 7.057,15.484 8.038,15.484 C9.026,15.484 9.831,14.554 9.831,13.418 L9.831,9.829 L13.419,9.829 Z"/>
</svg>
