<svg 
 xmlns="http://www.w3.org/2000/svg"
 xmlns:xlink="http://www.w3.org/1999/xlink"
 width="14px" height="14px">
<path fill-rule="evenodd"  fill="rgb(201, 201, 201)"
 d="M12.239,13.999 L1.758,13.999 C0.789,13.998 -0.001,13.209 -0.001,12.239 L-0.001,1.761 C-0.001,0.791 0.788,0.001 1.758,-0.001 L12.239,-0.001 C13.209,0.001 13.998,0.790 13.998,1.759 L13.998,12.239 C13.998,13.209 13.209,13.998 12.239,13.999 ZM10.319,1.341 L3.680,1.341 L3.680,6.042 L10.319,6.042 L10.319,1.341 ZM12.656,1.761 C12.656,1.530 12.469,1.343 12.239,1.342 L11.662,1.342 L11.662,6.661 C11.662,7.031 11.360,7.402 10.990,7.402 L3.008,7.402 C2.639,7.402 2.337,7.031 2.337,6.661 L2.337,1.342 L1.759,1.342 C1.528,1.342 1.341,1.530 1.341,1.761 L1.341,12.240 C1.341,12.471 1.528,12.658 1.758,12.658 L2.729,12.658 L12.239,12.657 C12.469,12.657 12.656,12.469 12.656,12.239 L12.656,1.761 ZM9.047,2.253 C9.320,2.253 9.544,2.470 9.544,2.750 L9.544,4.475 C9.544,4.748 9.327,4.972 9.047,4.972 C8.774,4.972 8.549,4.748 8.541,4.475 L8.541,2.750 C8.541,2.478 8.766,2.253 9.047,2.253 Z"/>
</svg>
