<svg 
 xmlns="http://www.w3.org/2000/svg"
 xmlns:xlink="http://www.w3.org/1999/xlink"
 width="14px" height="14px">
<path fill-rule="evenodd"  fill="rgb(214, 214, 220)"
 d="M12.237,13.998 L1.756,13.998 C0.786,13.997 -0.004,13.207 -0.005,12.237 L-0.005,1.759 C-0.005,0.789 0.786,-0.001 1.756,-0.002 L12.237,-0.002 C13.206,-0.001 13.996,0.789 13.996,1.758 L13.996,12.237 C13.996,13.207 13.206,13.997 12.237,13.998 ZM10.316,1.340 L3.677,1.340 L3.677,6.040 L10.316,6.040 L10.316,1.340 ZM12.653,1.759 C12.653,1.529 12.466,1.342 12.237,1.341 L11.659,1.341 L11.659,6.660 C11.659,7.030 11.357,7.401 10.987,7.401 L3.005,7.401 C2.636,7.401 2.335,7.030 2.335,6.660 L2.335,1.341 L1.756,1.341 C1.525,1.341 1.338,1.529 1.338,1.759 L1.338,12.239 C1.338,12.469 1.525,12.657 1.756,12.657 L2.726,12.657 L12.237,12.656 C12.466,12.656 12.653,12.468 12.653,12.237 L12.653,1.759 ZM9.044,2.251 C9.317,2.251 9.541,2.468 9.541,2.749 L9.541,4.474 C9.541,4.746 9.325,4.971 9.044,4.971 C8.772,4.971 8.546,4.746 8.538,4.474 L8.538,2.749 C8.538,2.476 8.763,2.251 9.044,2.251 Z"/>
</svg>
