<svg 
 xmlns="http://www.w3.org/2000/svg"
 xmlns:xlink="http://www.w3.org/1999/xlink"
 width="14px" height="14px">
<path fill-rule="evenodd"  fill="rgb(201, 201, 201)"
 d="M13.787,13.783 C13.647,13.926 13.465,13.998 13.281,13.998 C13.096,13.998 12.913,13.926 12.772,13.783 L11.279,12.251 C10.080,13.325 8.532,13.998 6.819,13.998 C3.057,13.998 -0.002,10.859 -0.002,6.998 C-0.002,3.138 3.057,-0.001 6.819,-0.001 C10.580,-0.001 13.640,3.138 13.640,6.998 C13.640,8.570 13.115,10.006 12.260,11.175 L13.787,12.742 C14.068,13.030 14.068,13.495 13.787,13.783 ZM6.819,1.472 C3.849,1.472 1.434,3.951 1.434,6.998 C1.434,10.046 3.849,12.525 6.819,12.525 C9.788,12.525 12.203,10.046 12.203,6.998 C12.203,3.951 9.788,1.472 6.819,1.472 Z"/>
</svg>
