<svg 
 xmlns="http://www.w3.org/2000/svg"
 xmlns:xlink="http://www.w3.org/1999/xlink"
 width="14px" height="14px">
<path fill-rule="evenodd"  fill="rgb(201, 201, 201)"
 d="M8.197,1.000 L8.384,2.300 L8.459,2.837 L8.946,3.062 C9.147,3.162 9.359,3.274 9.545,3.399 L9.982,3.687 L10.470,3.499 L11.744,3.000 L12.931,4.987 L11.882,5.787 L11.444,6.125 L11.495,6.675 C11.507,6.787 11.507,6.900 11.507,7.000 C11.507,7.099 11.507,7.212 11.495,7.324 L11.444,7.874 L11.882,8.212 L12.931,9.012 L11.757,10.999 L10.470,10.500 L9.982,10.312 L9.545,10.600 C9.346,10.737 9.147,10.850 8.946,10.937 L8.459,11.162 L8.384,11.687 L8.197,12.999 L5.799,12.999 L5.611,11.699 L5.536,11.162 L5.049,10.937 C4.849,10.837 4.637,10.725 4.449,10.600 L4.012,10.312 L3.525,10.500 L2.251,10.999 L1.064,9.012 L2.114,8.212 L2.551,7.874 L2.501,7.324 C2.488,7.212 2.488,7.099 2.488,7.000 C2.488,6.900 2.488,6.787 2.501,6.675 L2.551,6.125 L2.114,5.787 L1.064,4.987 L2.239,3.000 L3.525,3.499 L4.012,3.687 L4.449,3.399 C4.650,3.262 4.849,3.149 5.049,3.062 L5.536,2.837 L5.611,2.312 L5.799,1.000 L8.197,1.000 M8.334,-0.000 L5.661,-0.000 C5.236,-0.000 4.887,0.300 4.824,0.700 L4.624,2.149 C4.375,2.262 4.137,2.400 3.887,2.562 L2.476,2.012 C2.376,1.975 2.276,1.962 2.176,1.962 C1.876,1.962 1.589,2.112 1.451,2.375 L0.116,4.625 C-0.097,4.975 -0.010,5.437 0.315,5.687 L1.501,6.587 C1.490,6.737 1.477,6.874 1.477,7.000 C1.477,7.124 1.477,7.262 1.501,7.412 L0.315,8.312 C-0.010,8.562 -0.097,9.000 0.116,9.375 L1.439,11.612 C1.589,11.875 1.876,12.037 2.176,12.037 C2.276,12.037 2.363,12.025 2.464,11.987 L3.875,11.437 C4.112,11.599 4.362,11.737 4.612,11.850 L4.824,13.287 C4.874,13.687 5.236,14.000 5.661,14.000 L8.334,14.000 C8.759,14.000 9.109,13.699 9.171,13.300 L9.383,11.850 C9.633,11.737 9.870,11.599 10.120,11.437 L11.532,11.987 C11.632,12.025 11.731,12.037 11.831,12.037 C12.131,12.037 12.418,11.887 12.556,11.625 L13.893,9.362 C14.092,9.000 14.004,8.562 13.681,8.312 L12.494,7.412 C12.506,7.287 12.519,7.149 12.519,7.000 C12.519,6.849 12.506,6.712 12.494,6.587 L13.681,5.687 C14.004,5.437 14.092,4.999 13.880,4.625 L12.556,2.387 C12.406,2.124 12.119,1.962 11.819,1.962 C11.719,1.962 11.632,1.975 11.532,2.012 L10.120,2.562 C9.883,2.400 9.633,2.262 9.383,2.149 L9.171,0.712 C9.109,0.300 8.759,-0.000 8.334,-0.000 L8.334,-0.000 ZM6.998,4.999 C8.097,4.999 8.996,5.900 8.996,7.000 C8.996,8.100 8.097,9.000 6.998,9.000 C5.898,9.000 4.999,8.100 4.999,7.000 C4.999,5.900 5.898,4.999 6.998,4.999 M6.998,3.999 C5.349,3.999 4.000,5.350 4.000,7.000 C4.000,8.650 5.349,9.999 6.998,9.999 C8.646,9.999 9.996,8.650 9.996,7.000 C9.996,5.350 8.646,3.999 6.998,3.999 L6.998,3.999 Z"/>
</svg>
