<svg 
 xmlns="http://www.w3.org/2000/svg"
 xmlns:xlink="http://www.w3.org/1999/xlink"
 width="16px" height="14px">
<path fill-rule="evenodd"  fill="rgb(201, 201, 201)"
 d="M12.154,10.671 L12.154,9.209 C13.461,9.209 14.461,8.259 14.461,7.017 C14.461,5.847 13.538,4.897 12.308,4.824 L11.692,4.824 L11.615,4.239 C11.307,2.558 9.769,1.389 8.000,1.389 C6.154,1.389 4.615,2.558 4.307,4.239 L4.230,4.751 L3.615,4.824 C2.462,4.970 1.538,5.920 1.538,7.017 C1.538,8.259 2.615,9.209 3.846,9.209 L3.846,10.671 C1.692,10.671 -0.000,9.063 -0.000,7.017 C-0.000,5.335 1.231,3.874 2.923,3.508 C3.615,1.462 5.692,-0.000 8.000,-0.000 C10.308,-0.000 12.308,1.462 13.000,3.508 C14.769,3.874 16.000,5.335 16.000,7.017 C16.000,9.063 14.308,10.671 12.154,10.671 ZM6.384,7.601 L5.538,6.797 L8.000,4.458 L10.461,6.797 L9.615,7.601 L8.615,6.651 L8.615,11.734 L9.615,10.784 L10.461,11.661 L8.000,14.000 L5.538,11.661 L6.384,10.784 L7.384,11.734 L7.384,6.651 L6.384,7.601 Z"/>
</svg>
