<svg 
 xmlns="http://www.w3.org/2000/svg"
 xmlns:xlink="http://www.w3.org/1999/xlink"
 width="14px" height="14px">
<path fill-rule="evenodd"  fill="rgb(201, 201, 201)"
 d="M11.667,-0.000 C12.989,-0.000 14.000,1.011 14.000,2.333 L14.000,11.666 C14.000,12.989 12.989,14.000 11.667,14.000 L2.333,14.000 C1.011,14.000 -0.000,12.989 -0.000,11.666 L-0.000,2.333 C-0.000,1.011 1.011,-0.000 2.333,-0.000 L11.667,-0.000 ZM12.000,1.000 L2.000,1.000 C1.533,1.000 1.000,1.533 1.000,2.000 L1.000,12.000 C1.000,12.466 1.533,13.000 2.000,13.000 L12.000,13.000 C12.466,13.000 13.000,12.466 13.000,12.000 L13.000,2.000 C13.000,1.533 12.466,1.000 12.000,1.000 L12.000,1.000 ZM10.111,7.778 C10.422,7.778 10.733,8.011 10.733,8.400 C10.733,8.711 10.500,8.944 10.266,8.944 L5.289,8.944 L6.222,9.878 C6.455,10.111 6.455,10.422 6.300,10.655 L6.222,10.733 C5.989,10.967 5.678,10.967 5.444,10.811 L5.444,10.733 L3.500,8.789 C3.111,8.400 3.344,7.855 3.811,7.778 L10.111,7.778 ZM8.478,3.189 L10.500,5.211 C10.811,5.522 10.655,6.144 10.189,6.222 L3.889,6.222 C3.577,6.222 3.267,5.989 3.267,5.600 C3.267,5.289 3.500,5.055 3.733,5.055 L8.633,5.055 L7.777,4.122 C7.544,3.889 7.544,3.577 7.700,3.344 L7.777,3.266 C7.933,3.111 8.322,3.033 8.478,3.189 L8.478,3.189 Z"/>
</svg>
