<svg 
 xmlns="http://www.w3.org/2000/svg"
 xmlns:xlink="http://www.w3.org/1999/xlink"
 width="20px" height="18px">
<path fill-rule="evenodd"  fill="rgb(253, 38, 90)"
 d="M18.480,6.763 L11.335,6.763 L9.343,10.178 L18.480,10.178 C19.319,10.178 19.999,10.843 19.999,11.663 C19.999,12.484 19.319,13.149 18.480,13.149 L7.611,13.149 L5.073,17.500 C4.796,17.975 4.178,18.141 3.693,17.870 C3.207,17.599 3.038,16.994 3.315,16.519 L5.281,13.149 L1.517,13.149 C0.679,13.149 -0.001,12.484 -0.001,11.663 C-0.001,10.843 0.679,10.178 1.517,10.178 L7.013,10.178 L9.005,6.763 L1.517,6.763 C0.679,6.763 -0.001,6.098 -0.001,5.278 C-0.001,4.457 0.679,3.792 1.517,3.792 L10.738,3.792 L12.659,0.499 C12.935,0.024 13.554,-0.142 14.039,0.129 C14.525,0.400 14.694,1.005 14.417,1.480 L13.068,3.792 L18.480,3.792 C19.319,3.792 19.999,4.457 19.999,5.278 C19.999,6.098 19.319,6.763 18.480,6.763 Z"/>
</svg>
