<svg 
 xmlns="http://www.w3.org/2000/svg"
 xmlns:xlink="http://www.w3.org/1999/xlink"
 width="14px" height="14px">
<path fill-rule="evenodd"  fill="rgb(150, 150, 157)"
 d="M13.847,14.000 L0.152,14.000 C0.068,14.000 -0.000,13.932 -0.000,13.850 L-0.000,8.175 C-0.000,6.977 1.023,6.000 2.283,6.000 L2.283,0.600 C2.283,0.268 2.555,-0.000 2.891,-0.000 L11.108,-0.000 C11.445,-0.000 11.717,0.268 11.717,0.600 L11.717,6.000 C12.977,6.000 14.000,6.977 14.000,8.175 L14.000,13.850 C14.000,13.932 13.931,14.000 13.847,14.000 ZM10.347,1.350 L3.652,1.350 L3.652,6.000 L10.347,6.000 L10.347,1.350 ZM5.021,2.550 L5.934,2.550 C6.018,2.550 6.087,2.617 6.087,2.700 L6.087,3.600 C6.087,3.682 6.018,3.750 5.934,3.750 L5.021,3.750 C4.938,3.750 4.869,3.682 4.869,3.600 L4.869,2.700 C4.869,2.617 4.938,2.550 5.021,2.550 ZM8.065,2.550 L8.978,2.550 C9.062,2.550 9.130,2.617 9.130,2.700 L9.130,3.600 C9.130,3.682 9.062,3.750 8.978,3.750 L8.065,3.750 C7.981,3.750 7.913,3.682 7.913,3.600 L7.913,2.700 C7.913,2.617 7.981,2.550 8.065,2.550 Z"/>
</svg>
