<svg 
 xmlns="http://www.w3.org/2000/svg"
 xmlns:xlink="http://www.w3.org/1999/xlink"
 width="15px" height="13px">
<path fill-rule="evenodd"  fill="rgb(201, 201, 201)"
 d="M5.797,6.125 L5.545,6.125 C3.781,6.125 2.394,4.750 2.394,3.125 C2.394,1.375 3.781,-0.000 5.293,-0.000 C7.058,-0.000 8.444,1.375 8.444,3.125 C8.444,3.750 8.318,4.375 7.941,4.875 L6.932,4.500 C6.806,4.500 6.680,4.500 6.554,4.625 C6.176,5.125 5.923,5.625 5.797,6.125 L5.797,6.125 ZM14.873,9.250 L14.243,8.750 L14.243,7.500 L14.873,7.000 C14.999,6.875 14.999,6.750 14.999,6.625 C14.873,6.125 14.495,5.625 14.243,5.250 C14.117,5.125 13.865,5.000 13.739,5.125 L12.856,5.375 C12.604,5.125 12.226,4.875 11.848,4.750 L11.722,3.875 C11.722,3.750 11.596,3.625 11.470,3.625 C10.965,3.500 10.335,3.500 9.831,3.625 C9.705,3.625 9.579,3.750 9.579,3.875 L9.453,4.750 C9.075,5.000 8.823,5.125 8.444,5.375 L7.688,5.125 C7.605,5.042 7.520,5.069 7.436,5.097 C7.394,5.111 7.352,5.125 7.310,5.125 C6.932,5.625 6.680,6.125 6.428,6.625 C6.428,6.750 6.428,6.875 6.554,7.000 L7.184,7.625 L7.184,8.875 L6.554,9.500 C6.428,9.625 6.428,9.750 6.428,9.875 C6.554,10.375 6.932,10.875 7.184,11.250 C7.310,11.375 7.436,11.375 7.562,11.375 L8.444,11.125 C8.697,11.375 9.075,11.625 9.453,11.750 L9.579,12.625 C9.579,12.750 9.705,12.875 9.831,12.875 C10.083,12.875 10.335,13.000 10.587,13.000 C10.840,13.000 11.092,13.000 11.344,12.875 C11.470,12.875 11.596,12.750 11.596,12.625 L11.722,11.750 C12.100,11.625 12.478,11.375 12.730,11.125 L13.612,11.375 C13.739,11.375 13.865,11.375 13.990,11.250 C14.369,10.875 14.621,10.375 14.747,9.875 C14.999,9.500 14.999,9.375 14.873,9.250 L14.873,9.250 ZM10.713,9.750 C9.705,9.750 8.949,9.000 8.949,8.000 C8.949,7.000 9.705,6.250 10.713,6.250 C11.722,6.250 12.478,7.000 12.478,8.000 C12.478,9.000 11.722,9.750 10.713,9.750 L10.713,9.750 ZM7.058,11.750 L8.066,11.375 C8.318,11.625 8.823,11.875 9.075,12.000 L9.201,12.750 L0.125,12.750 C0.125,12.750 -0.001,12.750 -0.001,12.625 L-0.001,10.500 C-0.001,9.000 1.380,7.874 2.902,7.564 C2.902,7.564 3.813,7.346 4.838,7.327 C5.750,7.310 6.554,7.750 6.554,7.750 L6.554,9.000 L5.797,9.625 C5.671,9.625 5.671,9.875 5.671,10.000 C5.923,10.625 6.302,11.125 6.680,11.625 C6.680,11.750 6.932,11.750 7.058,11.750 L7.058,11.750 Z"/>
</svg>
