<svg 
 xmlns="http://www.w3.org/2000/svg"
 xmlns:xlink="http://www.w3.org/1999/xlink"
 width="22px" height="16px">
<path fill-rule="evenodd"  fill="rgb(255, 255, 255)"
 d="M21.513,5.170 L19.926,6.770 L19.470,7.230 L18.998,6.790 C16.817,4.745 13.972,3.615 11.000,3.615 C8.028,3.615 5.188,4.745 3.002,6.790 L2.530,7.230 L2.073,6.770 L0.486,5.170 L-0.000,4.680 L0.501,4.205 C3.360,1.495 7.084,-0.000 11.010,-0.000 C14.920,-0.000 18.649,1.495 21.499,4.205 L22.000,4.680 L21.513,5.170 ZM10.578,5.310 L10.582,5.300 L11.019,5.300 C13.584,5.300 16.046,6.265 17.952,8.020 L17.952,8.020 L18.472,8.495 L17.976,8.995 L16.369,10.615 L15.922,11.065 L15.451,10.645 C14.208,9.535 12.631,8.920 11.005,8.920 C9.389,8.920 7.811,9.535 6.569,10.645 L6.097,11.065 L5.650,10.615 L4.043,8.995 L3.547,8.495 L4.063,8.020 C5.861,6.365 8.160,5.410 10.578,5.310 ZM11.010,10.915 C12.439,10.915 13.275,11.345 14.031,11.915 L14.601,12.390 L14.081,12.915 L11.486,15.525 L11.015,16.000 L10.538,15.525 L7.944,12.915 L7.423,12.390 L7.988,11.915 C8.804,11.385 9.585,10.915 11.010,10.915 Z"/>
</svg>
