<svg 
 xmlns="http://www.w3.org/2000/svg"
 xmlns:xlink="http://www.w3.org/1999/xlink"
 width="14px" height="14px">
<path fill-rule="evenodd"  fill="rgb(150, 150, 157)"
 d="M13.898,5.445 C13.806,5.558 13.668,5.617 13.531,5.617 C13.429,5.617 13.324,5.585 13.237,5.520 L12.971,5.347 L12.971,12.727 C12.971,13.537 12.587,14.000 11.854,14.000 L2.520,14.000 C1.777,14.000 1.042,13.502 1.042,12.727 L1.042,5.347 L0.749,5.520 C0.547,5.674 0.260,5.640 0.100,5.445 C-0.059,5.250 -0.025,4.966 0.177,4.811 L6.092,0.292 C6.600,-0.098 7.400,-0.098 7.909,0.292 L13.824,4.811 C14.026,4.966 14.058,5.250 13.898,5.445 ZM7.000,13.000 L8.363,11.650 C7.614,10.903 6.390,10.903 5.636,11.650 L7.000,13.000 ZM3.818,9.850 L4.728,10.750 C5.982,9.508 8.018,9.508 9.273,10.750 L10.182,9.850 C8.427,8.113 5.577,8.113 3.818,9.850 L3.818,9.850 ZM2.000,8.049 L2.909,8.949 C5.168,6.712 8.832,6.712 11.090,8.949 L12.000,8.049 C9.240,5.317 4.763,5.317 2.000,8.049 Z"/>
</svg>
