<svg xmlns="http://www.w3.org/2000/svg" width="36" height="36" viewBox="0 0 36 36" fill="none">
  <path
    d="M27.75 24.5H18C16.2074 24.5 14.75 23.0426 14.75 21.25V8.25C14.75 6.45742 16.2074 5 18 5H25.1145C25.7594 5 26.3789 5.25898 26.8359 5.71602L30.284 9.16406C30.741 9.62109 31 10.2406 31 10.8855V21.25C31 23.0426 29.5426 24.5 27.75 24.5ZM8.25 11.5H13.125V13.9375H8.25C7.80312 13.9375 7.4375 14.3031 7.4375 14.75V27.75C7.4375 28.1969 7.80312 28.5625 8.25 28.5625H18C18.4469 28.5625 18.8125 28.1969 18.8125 27.75V26.125H21.25V27.75C21.25 29.5426 19.7926 31 18 31H8.25C6.45742 31 5 29.5426 5 27.75V14.75C5 12.9574 6.45742 11.5 8.25 11.5Z"
    fill="currentColor"></path>
</svg>
