<svg xmlns="http://www.w3.org/2000/svg" width="36" height="36" viewBox="0 0 36 36" fill="none">
  <path
    d="M14.9912 6.72109L13.9893 8.21875H21.6357L20.6338 6.72109C20.5547 6.60508 20.4229 6.53125 20.2805 6.53125H15.3393C15.1969 6.53125 15.065 6.5998 14.9859 6.72109H14.9912ZM22.7432 5.31836L24.6785 8.21875H25.4062H27.9375H28.3594C29.0607 8.21875 29.625 8.78301 29.625 9.48438C29.625 10.1857 29.0607 10.75 28.3594 10.75H27.9375V26.7812C27.9375 29.1121 26.0496 31 23.7188 31H11.9062C9.57539 31 7.6875 29.1121 7.6875 26.7812V10.75H7.26562C6.56426 10.75 6 10.1857 6 9.48438C6 8.78301 6.56426 8.21875 7.26562 8.21875H7.6875H10.2188H10.9465L12.8818 5.31309C13.4303 4.4957 14.3531 4 15.3393 4H20.2805C21.2666 4 22.1895 4.4957 22.7379 5.31309L22.7432 5.31836ZM10.2188 10.75V26.7812C10.2188 27.7146 10.9729 28.4688 11.9062 28.4688H23.7188C24.6521 28.4688 25.4062 27.7146 25.4062 26.7812V10.75H10.2188ZM14.4375 14.125V25.0938C14.4375 25.5578 14.0578 25.9375 13.5938 25.9375C13.1297 25.9375 12.75 25.5578 12.75 25.0938V14.125C12.75 13.6609 13.1297 13.2812 13.5938 13.2812C14.0578 13.2812 14.4375 13.6609 14.4375 14.125ZM18.6562 14.125V25.0938C18.6562 25.5578 18.2766 25.9375 17.8125 25.9375C17.3484 25.9375 16.9688 25.5578 16.9688 25.0938V14.125C16.9688 13.6609 17.3484 13.2812 17.8125 13.2812C18.2766 13.2812 18.6562 13.6609 18.6562 14.125ZM22.875 14.125V25.0938C22.875 25.5578 22.4953 25.9375 22.0312 25.9375C21.5672 25.9375 21.1875 25.5578 21.1875 25.0938V14.125C21.1875 13.6609 21.5672 13.2812 22.0312 13.2812C22.4953 13.2812 22.875 13.6609 22.875 14.125Z"
    fill="currentColor"></path>
</svg>
