<svg xmlns="http://www.w3.org/2000/svg" width="36" height="36" viewBox="0 0 36 36" fill="none">
  <path
    d="M17.5 5C16.1659 5 15.011 5.7752 14.4625 6.89844C14.0934 6.76133 13.6979 6.6875 13.2813 6.6875C11.4198 6.6875 9.9063 8.20098 9.9063 10.0625V18.79L9.76392 18.6477C8.44556 17.3293 6.30981 17.3293 4.99146 18.6477C3.6731 19.966 3.6731 22.1018 4.99146 23.4201L9.61626 28.0449C12.1475 30.5762 15.5805 32 19.1612 32H19.6094H20.0313C20.1104 32 20.1895 31.9947 20.2686 31.9789C25.1043 31.652 28.9698 27.7918 29.2915 22.9561C29.3073 22.877 29.3126 22.7979 29.3126 22.7188V13.4375C29.3126 11.576 27.7991 10.0625 25.9376 10.0625C25.6475 10.0625 25.3627 10.0994 25.0938 10.168V10.0625C25.0938 8.20098 23.5803 6.6875 21.7188 6.6875C21.3022 6.6875 20.9067 6.76133 20.5376 6.89844C19.9891 5.7752 18.8342 5 17.5 5ZM16.6563 10.0678V10.0625V8.375C16.6563 7.91094 17.036 7.53125 17.5 7.53125C17.9641 7.53125 18.3438 7.91094 18.3438 8.375V10.0572V10.0625V17.2344C18.3438 17.9357 18.9081 18.5 19.6094 18.5C20.3108 18.5 20.8751 17.9357 20.8751 17.2344V10.0625C20.8751 10.0625 20.8751 10.0625 20.8751 10.0572C20.8751 9.59316 21.2547 9.21348 21.7188 9.21348C22.1829 9.21348 22.5626 9.59316 22.5626 10.0572V13.0051V13.0104V17.2291C22.5626 17.9305 23.1268 18.4947 23.8282 18.4947C24.5295 18.4947 25.0938 17.9305 25.0938 17.2291V13.4428V13.4375C25.0938 12.9734 25.4735 12.5938 25.9376 12.5938C26.4016 12.5938 26.7813 12.9734 26.7813 13.4375V22.5553C26.776 22.5869 26.776 22.6238 26.7708 22.6555C26.5915 26.3311 23.6436 29.2789 19.968 29.4582C19.9364 29.4582 19.8995 29.4635 19.8678 29.4688H19.6094H19.1612C16.2502 29.4688 13.4606 28.3139 11.404 26.2572L6.77915 21.6271C6.4522 21.3002 6.4522 20.7623 6.77915 20.4354C7.1061 20.1084 7.64399 20.1084 7.97095 20.4354L10.2754 22.7398C10.6393 23.1037 11.1825 23.2092 11.6571 23.0141C12.1317 22.8189 12.4375 22.3549 12.4375 21.8434V10.0625C12.4375 9.59844 12.8172 9.21875 13.2813 9.21875C13.7454 9.21875 14.125 9.59316 14.125 10.0572V17.2344C14.125 17.9357 14.6893 18.5 15.3907 18.5C16.092 18.5 16.6563 17.9357 16.6563 17.2344V10.0678Z"
    fill="currentColor"></path>
</svg>
