<svg xmlns="http://www.w3.org/2000/svg" width="36" height="36" viewBox="0 0 36 36" fill="none">
  <path
    d="M10.3117 7.4375H8.25C6.45742 7.4375 5 8.89492 5 10.6875V24.5C5 26.2926 6.45742 27.75 8.25 27.75H13.125V25.3125H8.25C7.80312 25.3125 7.4375 24.9469 7.4375 24.5V10.6875C7.4375 10.2406 7.80312 9.875 8.25 9.875H9.0625C9.0625 10.7738 9.78867 11.5 10.6875 11.5H14.3641C15.2578 10.5047 16.5578 9.875 18 9.875H21.1484C20.7879 8.47344 19.5133 7.4375 18 7.4375H15.9383C15.7453 6.06133 14.557 5 13.125 5C11.693 5 10.5047 6.06133 10.3117 7.4375ZM12.3125 7.84375C12.3125 7.62826 12.3981 7.4216 12.5505 7.26923C12.7028 7.11685 12.9095 7.03125 13.125 7.03125C13.3405 7.03125 13.5472 7.11685 13.6995 7.26923C13.8519 7.4216 13.9375 7.62826 13.9375 7.84375C13.9375 8.05924 13.8519 8.2659 13.6995 8.41827C13.5472 8.57065 13.3405 8.65625 13.125 8.65625C12.9095 8.65625 12.7028 8.57065 12.5505 8.41827C12.3981 8.2659 12.3125 8.05924 12.3125 7.84375ZM27.75 28.5625H18C17.5531 28.5625 17.1875 28.1969 17.1875 27.75V14.75C17.1875 14.3031 17.5531 13.9375 18 13.9375H25.1145L28.5625 17.3855V27.75C28.5625 28.1969 28.1969 28.5625 27.75 28.5625ZM18 31H27.75C29.5426 31 31 29.5426 31 27.75V17.3855C31 16.7406 30.741 16.1211 30.284 15.6641L26.8359 12.216C26.3789 11.759 25.7594 11.5 25.1145 11.5H18C16.2074 11.5 14.75 12.9574 14.75 14.75V27.75C14.75 29.5426 16.2074 31 18 31Z"
    fill="currentColor"></path>
</svg>
