<svg xmlns="http://www.w3.org/2000/svg" width="36" height="36" viewBox="0 0 36 36" fill="none">
  <path fill-rule="evenodd" clip-rule="evenodd"
    d="M31.2805 18.1034C31.9816 17.9485 32.4243 17.2546 32.2694 16.5535L29.7448 5.12914C29.5898 4.42808 28.8959 3.98535 28.1949 4.14028C27.4938 4.2952 27.0511 4.98911 27.206 5.69017L29.0534 14.05L21.3322 9.12369C17.049 6.3909 11.3463 7.67027 8.54735 11.8721C5.64264 16.2327 6.86178 22.2246 11.3455 25.0017L22.8155 32.1059C23.4259 32.4839 24.2272 32.2956 24.6052 31.6852C24.9833 31.0748 24.7949 30.2736 24.1845 29.8955L12.7145 22.7913C9.5095 20.8062 8.60205 16.4798 10.7112 13.3135C12.743 10.2633 16.8712 9.36158 19.9337 11.3156L27.655 16.2419L19.2951 18.0893C18.5941 18.2442 18.1513 18.9381 18.3063 19.6392C18.4612 20.3402 19.1551 20.7829 19.8562 20.628L31.2805 18.1034Z"
    fill="currentColor"></path>
</svg>
