<svg xmlns="http://www.w3.org/2000/svg" width="36" height="36" viewBox="0 0 36 36" fill="none">
  <path
    d="M17.45 19.5312H23.0806L11.15 9.11562V24.9969L15.0809 20.5883C15.6781 19.918 16.5444 19.5312 17.45 19.5312ZM8 29.457V5.55781C8 4.73281 8.6825 4.0625 9.5225 4.0625C9.89656 4.0625 10.2575 4.19785 10.5331 4.44277L28.5144 20.1436C28.8228 20.4143 29 20.801 29 21.207C29 21.9934 28.3503 22.6314 27.5497 22.6314H19.1891L23.0675 30.8041C23.435 31.5775 23.0937 32.4992 22.3062 32.8602C21.5187 33.2211 20.5803 32.8859 20.2128 32.1125L16.3147 23.8947L10.5331 30.3916C10.2575 30.701 9.86375 30.875 9.44375 30.875C8.64312 30.875 8 30.2369 8 29.457Z"
    fill="currentColor"></path>
</svg>
