<svg xmlns="http://www.w3.org/2000/svg" width="36" height="36" viewBox="0 0 36 36" fill="none">
  <path
    d="M4.71947 18.1034C4.01841 17.9485 3.57569 17.2546 3.73061 16.5535L6.25523 5.12914C6.41015 4.42808 7.10406 3.98535 7.80512 4.14028C8.50618 4.2952 8.9489 4.98911 8.79398 5.69017L6.94658 14.05L14.6678 9.12369C18.951 6.3909 24.6537 7.67027 27.4527 11.8721C30.3574 16.2327 29.1382 22.2246 24.6545 25.0017L13.1845 32.1059C12.5741 32.4839 11.7728 32.2956 11.3948 31.6852C11.0167 31.0748 11.2051 30.2736 11.8155 29.8955L23.2855 22.7913C26.4905 20.8062 27.3979 16.4798 25.2888 13.3135C23.257 10.2633 19.1288 9.36158 16.0663 11.3156L8.34504 16.2419L16.7049 18.0893C17.4059 18.2442 17.8487 18.9381 17.6937 19.6392C17.5388 20.3402 16.8449 20.7829 16.1438 20.628L4.71947 18.1034Z"
    fill="currentColor"></path>
</svg>
