<svg 
 xmlns="http://www.w3.org/2000/svg"
 xmlns:xlink="http://www.w3.org/1999/xlink"
 width="24px" height="16px">
<path fill-rule="evenodd"  fill="rgb(23, 204, 95)"
 d="M24.000,9.366 C24.000,10.086 23.830,10.573 23.489,10.830 C23.149,11.087 22.604,11.216 21.854,11.216 L20.245,11.216 C19.513,11.216 17.734,11.220 16.908,11.228 C16.082,11.237 15.278,11.241 14.494,11.241 L12.630,11.241 C11.983,11.241 11.468,11.305 11.085,11.434 C10.702,11.562 10.519,11.858 10.536,12.320 C10.536,12.662 10.527,13.069 10.510,13.540 C10.493,14.011 10.484,14.426 10.484,14.785 C10.484,15.385 10.323,15.766 9.999,15.928 C9.676,16.091 9.259,15.975 8.748,15.581 C8.237,15.171 7.632,14.687 6.934,14.130 C6.236,13.574 5.525,13.005 4.801,12.423 C4.078,11.841 3.363,11.267 2.656,10.702 C1.949,10.137 1.324,9.640 0.778,9.212 C0.268,8.801 0.008,8.412 -0.000,8.044 C-0.009,7.676 0.225,7.295 0.702,6.901 C1.179,6.490 1.749,6.015 2.413,5.476 C3.077,4.936 3.767,4.380 4.482,3.806 C5.197,3.233 5.900,2.663 6.589,2.098 C7.279,1.533 7.896,1.028 8.441,0.583 C9.037,0.104 9.527,-0.080 9.910,0.031 C10.293,0.142 10.484,0.506 10.484,1.122 L10.484,1.764 C10.484,2.004 10.489,2.252 10.497,2.509 C10.506,2.766 10.514,3.019 10.523,3.267 C10.531,3.515 10.536,3.733 10.536,3.922 C10.553,4.350 10.689,4.619 10.944,4.731 C11.200,4.842 11.549,4.898 11.992,4.898 C12.485,4.898 13.132,4.894 13.932,4.885 C14.733,4.876 15.567,4.872 16.436,4.872 C17.304,4.872 19.147,4.868 19.964,4.859 C20.782,4.851 21.446,4.846 21.957,4.846 C22.178,4.846 22.408,4.863 22.646,4.898 C22.885,4.932 23.102,5.013 23.297,5.142 C23.493,5.270 23.655,5.450 23.783,5.681 C23.910,5.912 23.974,6.216 23.974,6.593 C23.974,7.055 23.979,7.500 23.987,7.928 C23.996,8.356 24.000,8.836 24.000,9.366 L24.000,9.366 Z"/>
</svg>
