<svg 
 xmlns="http://www.w3.org/2000/svg"
 xmlns:xlink="http://www.w3.org/1999/xlink"
 width="16px" height="16px">
<path fill-rule="evenodd"  fill="rgb(255, 255, 255)"
 d="M8.000,3.085 C6.181,3.085 6.938,7.799 4.816,7.252 C1.894,6.500 0.571,7.359 0.571,9.256 C0.571,12.665 3.897,15.428 8.000,15.428 C12.102,15.428 15.428,12.665 15.428,9.256 C15.428,5.848 12.102,3.085 8.000,3.085 L8.000,3.085 ZM3.047,9.985 C2.559,9.985 2.163,9.577 2.163,9.074 C2.163,8.571 2.559,8.163 3.047,8.163 C3.536,8.163 3.931,8.571 3.931,9.074 C3.931,9.577 3.536,9.985 3.047,9.985 L3.047,9.985 Z"/>
<path fill-rule="evenodd"  fill="rgb(220, 80, 80)"
 d="M4.630,13.080 C4.630,13.685 5.106,14.176 5.693,14.176 C6.280,14.176 6.756,13.685 6.756,13.080 C6.756,12.475 6.280,11.984 5.693,11.984 C5.106,11.984 4.630,12.475 4.630,13.080 L4.630,13.080 Z"/>
<path fill-rule="evenodd"  fill="rgb(206, 125, 39)"
 d="M7.833,13.450 C7.833,14.055 8.309,14.546 8.896,14.546 C9.484,14.546 9.959,14.055 9.959,13.450 C9.959,12.845 9.484,12.354 8.896,12.354 C8.309,12.354 7.833,12.845 7.833,13.450 L7.833,13.450 Z"/>
<path fill-rule="evenodd"  fill="rgb(38, 181, 221)"
 d="M10.843,11.998 C10.843,12.604 11.319,13.094 11.906,13.094 C12.494,13.094 12.970,12.604 12.970,11.998 C12.970,11.393 12.494,10.903 11.906,10.903 C11.319,10.903 10.843,11.393 10.843,11.998 L10.843,11.998 Z"/>
<path fill-rule="evenodd"  fill="rgb(77, 171, 64)"
 d="M12.252,8.697 C12.252,9.302 12.728,9.793 13.315,9.793 C13.902,9.793 14.378,9.302 14.378,8.697 C14.378,8.092 13.902,7.601 13.315,7.601 C12.728,7.601 12.252,8.092 12.252,8.697 L12.252,8.697 Z"/>
<path fill-rule="evenodd"  fill="rgb(153, 153, 153)"
 d="M11.643,5.250 C10.907,6.007 10.113,6.610 9.303,6.755 C9.303,6.759 9.305,6.768 9.305,6.768 L8.415,5.853 C8.415,5.853 8.422,5.852 8.426,5.852 C8.567,5.036 9.157,4.196 9.888,3.443 C11.622,1.659 14.268,0.426 14.421,0.584 C14.576,0.743 13.325,3.519 11.643,5.250 Z"/>
<path fill-rule="evenodd"  fill="rgb(41, 149, 204)"
 d="M9.310,6.744 L8.430,5.836 C6.451,5.912 7.331,8.030 6.231,8.711 C6.990,8.711 8.283,8.711 8.796,8.181 C9.310,7.652 9.351,7.101 9.310,6.744 L9.310,6.744 Z"/>
</svg>
