<svg 
 xmlns="http://www.w3.org/2000/svg"
 xmlns:xlink="http://www.w3.org/1999/xlink"
 width="12px" height="12px">
<path fill-rule="evenodd"  fill="rgb(255, 255, 255)"
 d="M4.085,12.000 C3.244,10.327 3.687,9.366 4.351,8.488 C5.060,7.484 5.237,6.523 5.237,6.523 C5.237,6.523 5.813,7.192 5.591,8.279 C6.566,7.233 6.743,5.561 6.610,4.934 C8.824,6.397 9.799,9.617 8.515,11.958 C15.335,8.279 10.197,2.801 9.312,2.216 C9.621,2.843 9.666,3.888 9.046,4.390 C8.027,0.711 5.503,-0.000 5.503,-0.000 C5.813,1.881 4.440,3.930 3.111,5.477 C3.067,4.725 3.022,4.223 2.580,3.470 C2.491,4.850 1.384,5.937 1.074,7.317 C0.675,9.199 1.384,10.537 4.085,12.000 L4.085,12.000 Z"/>
</svg>
