<svg 
 xmlns="http://www.w3.org/2000/svg"
 xmlns:xlink="http://www.w3.org/1999/xlink"
 width="10px" height="12px">
<path fill-rule="evenodd"  fill="rgb(153, 153, 153)"
 d="M8.933,0.857 C9.173,1.070 9.364,1.247 9.507,1.388 C9.649,1.529 9.758,1.648 9.833,1.746 C9.909,1.844 9.956,1.927 9.973,1.996 C9.991,2.064 10.000,2.124 10.000,2.175 L10.000,2.379 L8.026,2.379 C7.937,2.379 7.860,2.347 7.793,2.284 C7.727,2.220 7.671,2.145 7.627,2.060 C7.582,1.974 7.549,1.887 7.527,1.797 C7.504,1.708 7.493,1.638 7.493,1.586 L7.493,-0.000 L7.533,-0.000 C7.604,-0.000 7.677,0.011 7.753,0.032 C7.829,0.053 7.915,0.094 8.013,0.153 C8.111,0.213 8.233,0.298 8.380,0.409 C8.527,0.520 8.711,0.669 8.933,0.857 L8.933,0.857 ZM6.653,1.599 C6.653,1.770 6.680,1.947 6.733,2.130 C6.786,2.313 6.871,2.484 6.986,2.642 C7.102,2.799 7.249,2.930 7.426,3.032 C7.604,3.134 7.813,3.185 8.053,3.185 L10.000,3.185 L10.000,10.401 C10.000,10.648 9.949,10.870 9.847,11.066 C9.744,11.262 9.609,11.428 9.440,11.565 C9.271,11.701 9.084,11.808 8.880,11.885 C8.675,11.962 8.475,12.000 8.280,12.000 L1.720,12.000 C1.551,12.000 1.366,11.953 1.166,11.859 C0.966,11.765 0.780,11.642 0.607,11.488 C0.433,11.335 0.289,11.160 0.173,10.964 C0.058,10.767 -0.000,10.563 -0.000,10.350 L-0.000,1.650 C-0.000,1.471 0.042,1.286 0.126,1.094 C0.211,0.902 0.327,0.725 0.473,0.563 C0.620,0.401 0.787,0.266 0.973,0.160 C1.160,0.053 1.355,-0.000 1.560,-0.000 L6.653,-0.000 L6.653,1.599 ZM7.493,9.582 C7.724,9.582 7.920,9.503 8.080,9.345 C8.240,9.187 8.320,8.998 8.320,8.776 C8.320,8.554 8.240,8.367 8.080,8.213 C7.920,8.060 7.724,7.983 7.493,7.983 L2.493,7.983 C2.262,7.983 2.066,8.060 1.906,8.213 C1.747,8.367 1.667,8.554 1.667,8.776 C1.667,8.998 1.747,9.187 1.906,9.345 C2.066,9.503 2.262,9.582 2.493,9.582 L7.493,9.582 ZM8.320,5.591 C8.320,5.369 8.240,5.179 8.080,5.021 C7.920,4.863 7.724,4.785 7.493,4.785 L2.493,4.785 C2.262,4.785 2.066,4.863 1.906,5.021 C1.747,5.179 1.667,5.369 1.667,5.591 C1.667,5.812 1.747,6.000 1.906,6.153 C2.066,6.307 2.262,6.384 2.493,6.384 L7.493,6.384 C7.724,6.384 7.920,6.307 8.080,6.153 C8.240,6.000 8.320,5.812 8.320,5.591 L8.320,5.591 Z"/>
</svg>
