<svg 
 xmlns="http://www.w3.org/2000/svg"
 xmlns:xlink="http://www.w3.org/1999/xlink"
 width="12px" height="12px">
<path fill-rule="evenodd"  fill="rgb(255, 255, 255)"
 d="M3.646,8.484 C4.421,9.271 4.511,10.117 3.652,10.990 C3.120,11.531 2.258,11.855 1.073,11.994 C1.012,12.002 0.950,12.001 0.888,11.994 C0.472,11.943 0.167,11.573 0.187,11.150 L0.192,11.094 L0.208,10.955 C0.354,9.825 0.668,8.997 1.179,8.478 C2.038,7.605 2.871,7.697 3.646,8.484 L3.646,8.484 ZM10.744,0.212 L10.877,0.253 L11.009,0.297 C11.335,0.412 11.591,0.670 11.702,0.998 C12.224,2.524 12.058,4.070 11.217,5.603 C10.869,6.235 10.425,6.832 9.885,7.396 L9.735,7.549 L9.594,7.687 L9.590,7.731 C9.491,8.648 8.795,9.862 7.512,11.432 L7.400,11.568 L7.196,11.813 C6.964,12.088 6.532,12.012 6.396,11.686 L6.380,11.642 L5.663,9.353 L5.598,9.308 C5.195,9.021 4.811,8.708 4.449,8.371 L4.270,8.201 L4.095,8.027 C3.579,7.502 3.115,6.929 2.709,6.315 L2.669,6.254 L0.333,5.498 C0.004,5.392 -0.101,4.985 0.107,4.730 L0.135,4.699 L0.165,4.671 C2.086,2.992 3.504,2.159 4.519,2.229 L4.585,2.235 L4.623,2.239 L4.708,2.152 C5.169,1.695 5.651,1.305 6.155,0.985 L6.324,0.880 L6.479,0.789 C7.887,-0.008 9.315,-0.205 10.744,0.213 L10.744,0.212 ZM6.437,3.436 C5.852,4.021 5.855,4.971 6.442,5.558 C7.029,6.145 7.979,6.147 8.563,5.562 C9.147,4.978 9.145,4.028 8.558,3.441 C7.971,2.854 7.021,2.852 6.437,3.436 L6.437,3.436 Z"/>
</svg>
