<svg 
 xmlns="http://www.w3.org/2000/svg"
 xmlns:xlink="http://www.w3.org/1999/xlink"
 width="12px" height="11px">
<path fill-rule="evenodd"  fill="rgb(255, 255, 255)"
 d="M10.558,8.626 C10.500,8.880 10.267,9.060 10.000,9.059 L2.000,9.059 C1.732,9.060 1.500,8.880 1.441,8.626 L0.013,2.313 C-0.036,2.093 0.057,1.867 0.249,1.743 C0.442,1.617 0.694,1.615 0.888,1.739 L3.032,3.113 L5.561,0.197 C5.670,0.072 5.830,-0.000 6.000,-0.000 C6.169,-0.000 6.330,0.072 6.439,0.197 L8.967,3.113 L11.111,1.739 C11.305,1.615 11.557,1.617 11.750,1.743 C11.942,1.868 12.036,2.094 11.987,2.313 L10.558,8.626 ZM9.174,4.300 C8.931,4.456 8.605,4.410 8.418,4.195 L6.000,1.407 L3.581,4.195 C3.393,4.410 3.068,4.456 2.825,4.300 L1.429,3.405 L2.460,7.961 L9.540,7.961 L10.570,3.405 L9.174,4.300 ZM6.291,7.225 L5.708,7.225 C5.386,7.225 5.125,6.984 5.125,6.686 C5.125,6.389 5.386,6.147 5.708,6.147 L6.291,6.147 C6.613,6.147 6.875,6.388 6.875,6.686 C6.875,6.984 6.613,7.225 6.291,7.225 ZM1.916,9.922 L10.083,9.922 C10.291,9.922 10.484,10.024 10.588,10.191 C10.693,10.357 10.693,10.565 10.588,10.730 C10.484,10.897 10.292,11.000 10.083,11.000 L1.916,11.000 C1.594,11.000 1.333,10.759 1.333,10.461 C1.333,10.163 1.594,9.922 1.916,9.922 Z"/>
</svg>
