<svg 
 xmlns="http://www.w3.org/2000/svg"
 xmlns:xlink="http://www.w3.org/1999/xlink"
 width="20px" height="24px">
<path fill-rule="evenodd"  fill="rgb(51, 51, 51)"
 d="M19.999,20.756 L19.999,12.195 C19.999,10.409 18.586,8.972 16.855,8.972 L11.322,8.972 C11.322,5.975 12.019,6.242 13.850,5.975 C15.700,5.708 17.571,5.359 17.571,0.822 C17.551,0.370 17.193,0.021 16.775,0.001 C16.318,-0.020 15.919,0.350 15.899,0.822 C15.880,3.881 15.382,4.045 13.611,4.291 C11.760,4.558 9.650,4.497 9.650,8.972 L3.144,8.972 C1.412,8.972 -0.001,10.409 -0.001,12.195 L-0.001,20.776 C-0.001,22.563 1.412,24.000 3.144,24.000 L16.875,24.000 C18.606,23.979 19.999,22.542 19.999,20.756 L19.999,20.756 ZM12.078,12.195 L14.168,12.195 L14.168,14.330 L12.078,14.330 L12.078,12.195 ZM15.203,15.398 L15.203,17.533 L13.114,17.533 L13.114,15.398 L15.203,15.398 ZM12.058,15.398 L12.058,17.533 L9.949,17.533 L9.949,15.398 L12.058,15.398 ZM8.915,12.195 L11.004,12.195 L11.004,14.330 L8.915,14.330 L8.915,12.195 ZM5.770,12.195 L7.859,12.195 L7.859,14.330 L5.770,14.330 L5.770,12.195 ZM8.915,15.398 L8.915,17.533 L6.825,17.533 L6.825,15.398 L8.915,15.398 ZM2.626,12.195 L4.715,12.195 L4.715,14.330 L2.626,14.330 L2.626,12.195 ZM5.770,15.398 L5.770,17.533 L3.681,17.533 L3.681,15.398 L5.770,15.398 ZM4.715,20.756 L2.626,20.756 L2.626,18.621 L4.715,18.621 L4.715,20.756 ZM14.168,20.756 L5.770,20.756 L5.770,18.621 L14.168,18.621 L14.168,20.756 ZM17.312,20.756 L15.203,20.756 L15.203,18.621 L17.293,18.621 L17.293,20.756 L17.312,20.756 ZM17.312,14.330 L15.203,14.330 L15.203,12.195 L17.293,12.195 L17.293,14.330 L17.312,14.330 Z"/>
</svg>
