<svg 
 xmlns="http://www.w3.org/2000/svg"
 xmlns:xlink="http://www.w3.org/1999/xlink"
 width="16px" height="16px">
<path fill-rule="evenodd"  fill="rgb(23, 204, 95)"
 d="M15.753,7.128 C15.913,7.359 15.999,7.641 15.999,7.930 C15.999,8.220 15.913,8.502 15.753,8.733 C15.594,8.963 15.369,9.131 15.115,9.209 L13.254,9.930 L15.115,10.652 C15.369,10.730 15.594,10.897 15.753,11.128 C15.913,11.359 15.999,11.641 15.999,11.930 C15.999,12.220 15.913,12.502 15.753,12.733 C15.594,12.964 15.369,13.131 15.115,13.209 L8.514,15.767 C8.351,15.830 8.179,15.863 8.007,15.862 C7.833,15.863 7.662,15.830 7.499,15.767 L0.898,13.209 C0.644,13.131 0.419,12.964 0.260,12.733 C0.100,12.502 0.014,12.220 0.014,11.930 C0.014,11.641 0.100,11.359 0.260,11.128 C0.419,10.897 0.644,10.730 0.898,10.652 L2.759,9.930 L0.898,9.209 C0.644,9.131 0.419,8.963 0.260,8.733 C0.100,8.502 0.014,8.220 0.014,7.930 C0.014,7.641 0.100,7.359 0.260,7.128 C0.419,6.897 0.644,6.730 0.898,6.652 L2.760,5.930 L0.898,5.209 C0.644,5.131 0.419,4.964 0.260,4.733 C0.100,4.502 0.014,4.220 0.014,3.930 C0.014,3.641 0.100,3.359 0.260,3.128 C0.419,2.897 0.644,2.730 0.898,2.652 L7.499,0.094 C7.827,-0.032 8.186,-0.032 8.514,0.094 L15.115,2.652 C15.369,2.730 15.594,2.897 15.753,3.128 C15.913,3.359 15.999,3.641 15.999,3.930 C15.999,4.220 15.913,4.502 15.753,4.733 C15.594,4.964 15.369,5.131 15.115,5.209 L13.253,5.930 L15.115,6.652 C15.369,6.730 15.594,6.897 15.753,7.128 Z"/>
</svg>
