<svg 
 xmlns="http://www.w3.org/2000/svg"
 xmlns:xlink="http://www.w3.org/1999/xlink"
 width="11px" height="11px">
<path fill-rule="evenodd"  fill="rgb(35, 164, 255)"
 d="M8.250,11.000 C6.731,11.000 5.500,9.769 5.500,8.250 C5.500,6.731 6.731,5.500 8.250,5.500 C9.768,5.500 11.000,6.731 11.000,8.250 C11.000,9.769 9.768,11.000 8.250,11.000 L8.250,11.000 ZM8.250,7.333 C7.743,7.333 7.333,7.744 7.333,8.250 C7.333,8.756 7.743,9.167 8.250,9.167 C8.756,9.167 9.166,8.756 9.166,8.250 C9.166,8.007 9.070,7.774 8.898,7.602 C8.726,7.430 8.493,7.333 8.250,7.333 L8.250,7.333 ZM2.749,11.000 C1.231,11.000 -0.000,9.769 -0.000,8.250 C-0.000,6.731 1.231,5.500 2.749,5.500 C4.268,5.500 5.500,6.731 5.500,8.250 C5.500,9.769 4.268,11.000 2.749,11.000 L2.749,11.000 ZM2.749,7.333 C2.243,7.333 1.833,7.744 1.833,8.250 C1.833,8.756 2.243,9.167 2.749,9.167 C3.256,9.167 3.666,8.756 3.666,8.250 C3.666,8.007 3.570,7.774 3.398,7.602 C3.226,7.430 2.993,7.333 2.749,7.333 L2.749,7.333 ZM5.500,6.111 C3.812,6.111 2.444,4.743 2.444,3.056 C2.444,1.368 3.812,-0.000 5.500,-0.000 C7.187,-0.000 8.555,1.368 8.555,3.056 C8.555,3.866 8.233,4.643 7.660,5.216 C7.087,5.789 6.310,6.111 5.500,6.111 L5.500,6.111 ZM5.500,1.833 C5.005,1.833 4.560,2.131 4.370,2.588 C4.181,3.045 4.285,3.570 4.635,3.920 C4.985,4.269 5.511,4.374 5.968,4.185 C6.424,3.996 6.722,3.550 6.722,3.056 C6.722,2.380 6.174,1.833 5.500,1.833 L5.500,1.833 Z"/>
</svg>
