<svg 
 xmlns="http://www.w3.org/2000/svg"
 xmlns:xlink="http://www.w3.org/1999/xlink"
 width="14px" height="14px">
<path fill-rule="evenodd"  fill="rgb(153, 153, 153)"
 d="M7.460,9.333 L7.926,9.333 C8.184,9.333 8.392,9.542 8.392,9.800 C8.392,10.058 8.184,10.267 7.926,10.267 L6.993,10.267 C6.870,10.267 6.751,10.217 6.664,10.130 C6.577,10.042 6.527,9.924 6.527,9.800 L6.527,8.867 C6.527,8.609 6.736,8.400 6.993,8.400 C7.251,8.400 7.460,8.609 7.460,8.867 L7.460,9.333 ZM7.933,4.655 L7.933,5.601 L9.603,5.601 C11.351,5.600 12.865,6.816 13.244,8.524 L13.956,11.729 C14.078,12.281 13.944,12.860 13.590,13.301 C13.235,13.743 12.700,14.000 12.135,14.000 L1.865,14.000 C1.299,14.000 0.763,13.743 0.410,13.301 C0.056,12.860 -0.079,12.281 0.044,11.728 L0.755,8.523 C1.134,6.815 2.648,5.600 4.397,5.600 L6.068,5.600 L6.068,4.655 C1.458,4.529 1.890,3.407 1.010,1.293 C0.812,0.817 1.037,0.270 1.512,0.072 C1.987,-0.126 2.534,0.099 2.732,0.574 C3.350,2.059 2.797,2.800 7.000,2.800 C11.202,2.800 10.649,2.059 11.267,0.574 C11.466,0.099 12.012,-0.126 12.487,0.072 C12.963,0.270 13.188,0.817 12.990,1.293 C12.109,3.407 12.542,4.530 7.933,4.655 L7.933,4.655 ZM7.000,12.134 C7.833,12.134 8.602,11.689 9.019,10.967 C9.435,10.245 9.435,9.356 9.019,8.634 C8.602,7.912 7.833,7.467 7.000,7.467 C5.712,7.467 4.669,8.512 4.669,9.800 C4.669,11.089 5.712,12.134 7.000,12.134 L7.000,12.134 Z"/>
</svg>
