<svg 
 xmlns="http://www.w3.org/2000/svg"
 xmlns:xlink="http://www.w3.org/1999/xlink"
 width="18px" height="20px">
<path fill-rule="evenodd"  fill="rgb(145, 145, 152)"
 d="M16.363,20.000 L1.636,20.000 C1.202,20.000 0.785,19.833 0.478,19.537 C0.171,19.241 -0.001,18.839 -0.001,18.421 L-0.001,1.578 C-0.001,0.707 0.732,-0.000 1.636,-0.000 L12.864,-0.000 C13.009,-0.000 13.147,0.055 13.250,0.154 L17.839,4.582 C17.942,4.681 17.999,4.815 17.999,4.954 L17.999,18.421 C17.999,19.293 17.267,20.000 16.363,20.000 ZM12.545,2.631 L12.545,4.737 L14.727,4.737 L12.545,2.631 ZM15.818,6.842 L12.545,6.842 L11.454,6.842 C11.164,6.842 10.887,6.731 10.682,6.533 C10.478,6.336 10.363,6.068 10.363,5.789 L10.363,2.105 L2.727,2.105 C2.582,2.105 2.443,2.160 2.341,2.259 C2.239,2.358 2.181,2.492 2.181,2.631 L2.181,17.368 C2.181,17.508 2.239,17.642 2.341,17.740 C2.443,17.839 2.582,17.894 2.727,17.894 L15.272,17.894 C15.417,17.894 15.556,17.839 15.658,17.740 C15.759,17.642 15.818,17.508 15.818,17.368 L15.818,6.842 ZM13.090,11.578 L4.908,11.578 C4.181,11.578 3.818,11.228 3.818,10.526 C3.818,9.824 4.181,9.473 4.908,9.473 L13.090,9.473 C13.817,9.473 14.181,9.824 14.181,10.526 C14.181,11.228 13.817,11.578 13.090,11.578 ZM4.908,13.158 L10.908,13.158 C11.635,13.158 11.999,13.508 11.999,14.210 C11.999,14.912 11.635,15.263 10.908,15.263 L4.908,15.263 C4.181,15.263 3.818,14.912 3.818,14.210 C3.818,13.508 4.181,13.158 4.908,13.158 Z"/>
</svg>
