<svg 
 xmlns="http://www.w3.org/2000/svg"
 xmlns:xlink="http://www.w3.org/1999/xlink"
 width="12px" height="7px">
<path fill-rule="evenodd"  fill="rgb(203, 203, 203)"
 d="M6.000,7.000 C3.420,7.000 1.380,5.833 -0.000,3.500 C1.380,1.166 3.420,-0.000 6.000,-0.000 C8.580,-0.000 10.620,1.166 12.000,3.500 C10.620,5.833 8.580,7.000 6.000,7.000 L6.000,7.000 ZM6.120,1.166 C4.320,1.166 2.520,1.925 1.500,3.500 C2.520,5.075 4.320,5.833 6.120,5.833 C7.920,5.833 9.480,5.075 10.500,3.500 C9.480,1.925 7.920,1.166 6.120,1.166 L6.120,1.166 ZM6.000,5.250 C4.980,5.250 4.200,4.491 4.200,3.500 C4.200,2.508 4.980,1.750 6.000,1.750 C7.020,1.750 7.800,2.508 7.800,3.500 C7.800,4.491 7.020,5.250 6.000,5.250 L6.000,5.250 Z"/>
</svg>
