<svg 
 xmlns="http://www.w3.org/2000/svg"
 xmlns:xlink="http://www.w3.org/1999/xlink"
 width="16px" height="14px">
<path fill-rule="evenodd"  fill="rgb(23, 204, 95)"
 d="M15.004,14.000 L0.996,14.000 C0.446,14.000 0.000,13.674 0.000,13.272 C0.000,12.870 0.446,12.544 0.996,12.544 L15.004,12.544 C15.554,12.544 16.000,12.870 16.000,13.272 C16.000,13.674 15.554,14.000 15.004,14.000 ZM8.510,12.232 C8.385,12.368 8.214,12.445 8.034,12.445 C7.855,12.445 7.683,12.368 7.558,12.232 L3.026,7.347 C2.790,7.090 2.763,6.692 2.961,6.402 C3.076,6.231 3.260,6.123 3.459,6.110 C3.659,6.096 3.854,6.178 3.989,6.333 L7.377,10.019 C7.363,9.933 7.344,9.849 7.344,9.756 L7.344,1.113 C7.344,0.498 7.653,-0.000 8.034,-0.000 C8.415,-0.000 8.725,0.498 8.725,1.113 L8.725,9.756 C8.725,9.849 8.705,9.933 8.692,10.020 L12.079,6.333 C12.215,6.178 12.410,6.096 12.609,6.110 C12.809,6.123 12.992,6.231 13.108,6.402 C13.306,6.692 13.278,7.090 13.043,7.347 L8.510,12.232 Z"/>
</svg>
