<svg 
 xmlns="http://www.w3.org/2000/svg"
 xmlns:xlink="http://www.w3.org/1999/xlink"
 width="18px" height="20px">
<path fill-rule="evenodd"  fill="rgb(255, 255, 255)"
 d="M16.363,20.000 L1.636,20.000 C1.202,20.000 0.786,19.833 0.479,19.537 C0.172,19.241 -0.000,18.840 -0.000,18.421 L-0.000,1.579 C-0.000,0.707 0.733,-0.000 1.636,-0.000 L12.865,-0.000 C13.010,-0.000 13.148,0.055 13.251,0.154 L17.840,4.583 C17.942,4.681 18.000,4.815 18.000,4.954 L18.000,18.421 C18.000,19.293 17.267,20.000 16.363,20.000 ZM12.545,2.631 L12.545,4.737 L14.727,4.737 L12.545,2.631 ZM15.818,6.842 L12.545,6.842 L11.454,6.842 C11.165,6.842 10.888,6.731 10.683,6.533 C10.478,6.336 10.363,6.068 10.363,5.789 L10.363,2.105 L2.727,2.105 C2.582,2.105 2.444,2.161 2.341,2.259 C2.239,2.358 2.182,2.492 2.182,2.631 L2.182,17.368 C2.182,17.507 2.239,17.642 2.341,17.740 C2.444,17.839 2.582,17.894 2.727,17.894 L15.273,17.894 C15.417,17.894 15.556,17.839 15.658,17.740 C15.761,17.642 15.818,17.507 15.818,17.368 L15.818,6.842 ZM13.091,11.579 L4.909,11.579 C4.182,11.579 3.818,11.228 3.818,10.526 C3.818,9.824 4.182,9.473 4.909,9.473 L13.091,9.473 C13.818,9.473 14.181,9.824 14.181,10.526 C14.181,11.228 13.818,11.579 13.091,11.579 ZM4.909,13.158 L10.909,13.158 C11.636,13.158 12.000,13.508 12.000,14.210 C12.000,14.912 11.636,15.263 10.909,15.263 L4.909,15.263 C4.182,15.263 3.818,14.912 3.818,14.210 C3.818,13.508 4.182,13.158 4.909,13.158 Z"/>
</svg>
