<svg 
 xmlns="http://www.w3.org/2000/svg"
 xmlns:xlink="http://www.w3.org/1999/xlink"
 width="18px" height="18px">
<path fill-rule="evenodd"  fill="rgb(255, 255, 255)"
 d="M17.273,16.855 L12.918,16.855 C12.561,16.855 12.191,16.571 12.191,16.094 L12.191,15.880 C12.191,15.506 12.463,15.119 12.918,15.119 L17.273,15.119 L17.273,15.119 C17.708,15.119 17.999,15.425 17.999,15.880 L17.999,16.094 C17.999,16.469 17.728,16.855 17.273,16.855 ZM17.273,14.067 L12.918,14.067 C12.561,14.067 12.191,13.783 12.191,13.306 L12.191,13.146 C12.191,12.772 12.463,12.385 12.918,12.385 L17.273,12.385 C17.728,12.385 17.999,12.772 17.999,13.146 L17.999,13.306 C17.999,13.680 17.728,14.067 17.273,14.067 ZM17.273,11.387 L12.918,11.387 C12.561,11.387 12.191,11.102 12.191,10.626 L12.191,10.518 C12.191,10.145 12.463,9.757 12.918,9.757 L17.273,9.757 C17.708,9.757 17.999,10.063 17.999,10.518 L17.999,10.626 C17.999,11.000 17.728,11.387 17.273,11.387 ZM15.499,4.265 C14.764,5.035 13.999,5.785 13.188,6.579 C12.393,7.359 11.570,8.165 10.776,8.994 L10.776,17.006 C10.776,17.248 10.776,17.654 10.445,17.915 L10.360,17.981 L9.704,17.999 C9.436,17.893 9.374,17.745 9.374,17.745 C9.169,17.510 9.169,17.217 9.169,17.113 L9.169,8.642 C9.169,8.234 9.356,7.987 9.518,7.817 L9.527,7.808 C11.132,6.129 12.647,4.542 14.235,2.935 C14.379,2.784 14.426,2.730 14.455,2.610 C14.511,2.394 14.460,2.147 14.324,1.959 C14.218,1.815 14.083,1.736 13.943,1.736 L2.417,1.736 C2.160,1.736 1.949,2.023 1.843,2.272 C1.782,2.472 1.810,2.620 1.940,2.795 C1.959,2.817 1.978,2.842 1.997,2.868 C2.015,2.892 2.038,2.923 2.048,2.931 L2.093,2.954 L2.130,2.993 C2.882,3.780 3.602,4.575 4.298,5.344 C4.974,6.090 5.672,6.861 6.381,7.603 C6.579,7.810 6.679,8.087 6.679,8.427 L6.679,13.467 C6.679,13.870 6.503,14.194 6.196,14.354 L6.186,14.359 C5.619,14.614 5.150,14.261 5.073,13.616 L5.071,13.574 L5.071,8.672 C3.652,7.187 2.185,5.653 0.717,4.168 C0.254,3.741 -0.000,3.122 -0.000,2.422 C-0.000,1.884 0.181,1.349 0.510,0.916 C0.834,0.491 1.280,0.189 1.768,0.065 C1.967,-0.000 2.196,-0.000 2.417,-0.000 L13.841,-0.000 C14.763,-0.000 15.475,0.414 15.955,1.230 C16.432,2.041 16.364,3.157 15.796,3.895 C15.720,4.035 15.603,4.157 15.499,4.265 Z"/>
</svg>
