<svg 
 xmlns="http://www.w3.org/2000/svg"
 xmlns:xlink="http://www.w3.org/1999/xlink"
 width="14px" height="12px">
<path fill-rule="evenodd"  fill="rgb(255, 255, 255)"
 d="M1.120,4.836 L-0.000,9.241 L-0.000,0.789 C-0.000,0.353 0.329,0.000 0.736,-0.000 L4.236,-0.000 C4.432,-0.001 4.619,0.083 4.757,0.231 L6.267,1.848 C6.294,1.878 6.331,1.894 6.371,1.894 L11.639,1.894 C12.046,1.895 12.375,2.248 12.376,2.684 L12.376,3.789 L2.400,3.789 C1.802,3.790 1.279,4.219 1.120,4.836 L1.120,4.836 ZM13.856,4.731 C13.718,4.535 13.500,4.420 13.270,4.421 L2.400,4.421 C2.068,4.421 1.777,4.660 1.689,5.003 L0.162,11.003 C0.102,11.240 0.148,11.494 0.288,11.689 C0.427,11.885 0.644,12.000 0.873,12.000 L11.744,12.000 C12.076,11.999 12.366,11.761 12.454,11.417 L13.981,5.417 C14.042,5.180 13.996,4.926 13.856,4.731 L13.856,4.731 Z"/>
</svg>
