<svg 
 xmlns="http://www.w3.org/2000/svg"
 xmlns:xlink="http://www.w3.org/1999/xlink"
 width="13px" height="6px">
<path fill-rule="evenodd"  fill="rgb(255, 255, 255)"
 d="M6.002,3.053 C2.543,3.053 0.257,0.957 0.159,0.871 C-0.054,0.672 -0.054,0.351 0.159,0.153 C0.371,-0.045 0.716,-0.045 0.928,0.153 C0.950,0.168 3.007,2.036 6.002,2.036 C8.998,2.036 11.055,0.168 11.071,0.148 C11.284,-0.050 11.628,-0.050 11.840,0.148 C12.053,0.346 12.053,0.667 11.840,0.865 C11.748,0.957 9.462,3.053 6.002,3.053 L6.002,3.053 ZM1.201,5.450 C1.007,5.450 0.828,5.354 0.731,5.198 C0.633,5.042 0.631,4.849 0.726,4.692 L1.495,3.425 C1.651,3.197 1.971,3.123 2.223,3.255 C2.476,3.388 2.573,3.681 2.445,3.924 L1.676,5.191 C1.577,5.359 1.392,5.450 1.201,5.450 L1.201,5.450 ZM10.804,5.450 C10.613,5.450 10.427,5.359 10.329,5.191 L9.560,3.924 C9.432,3.681 9.529,3.388 9.781,3.255 C10.034,3.123 10.353,3.197 10.509,3.425 L11.279,4.692 C11.373,4.849 11.371,5.042 11.274,5.198 C11.176,5.354 10.997,5.450 10.804,5.450 L10.804,5.450 ZM7.786,6.000 C7.552,6.000 7.333,5.857 7.263,5.638 L6.815,4.244 C6.773,4.115 6.787,3.976 6.856,3.857 C6.925,3.739 7.042,3.651 7.181,3.613 C7.319,3.573 7.469,3.587 7.596,3.651 C7.723,3.716 7.817,3.825 7.857,3.954 L8.305,5.348 C8.355,5.501 8.325,5.668 8.223,5.797 C8.120,5.925 7.958,6.000 7.786,6.000 L7.786,6.000 ZM4.218,6.000 C4.046,6.000 3.884,5.925 3.781,5.797 C3.678,5.668 3.645,5.502 3.694,5.348 L4.142,3.954 C4.234,3.693 4.532,3.548 4.814,3.627 C5.096,3.705 5.260,3.979 5.184,4.244 L4.737,5.638 C4.671,5.857 4.453,6.000 4.218,6.000 L4.218,6.000 Z"/>
</svg>
