<svg 
 xmlns="http://www.w3.org/2000/svg"
 xmlns:xlink="http://www.w3.org/1999/xlink"
 width="25px" height="25px">
<path fill-rule="evenodd"  fill="rgb(203, 203, 203)"
 d="M10.760,9.026 L14.236,9.026 C14.558,9.026 14.814,8.770 14.814,8.448 L14.814,5.550 L16.886,5.550 C17.407,5.550 17.663,4.927 17.293,4.565 L12.902,0.174 C12.682,-0.052 12.317,-0.058 12.092,0.162 L12.080,0.174 L7.691,4.565 C7.469,4.791 7.469,5.159 7.697,5.382 C7.806,5.490 7.956,5.550 8.110,5.547 L10.182,5.547 L10.182,8.445 C10.182,8.770 10.435,9.023 10.760,9.026 L10.760,9.026 ZM8.444,10.182 L5.547,10.182 L5.547,8.110 C5.547,7.589 4.924,7.333 4.562,7.704 L0.174,12.092 C-0.052,12.312 -0.058,12.676 0.162,12.902 L0.174,12.914 L4.565,17.305 C4.924,17.664 5.550,17.411 5.550,16.887 L5.550,14.815 L8.447,14.815 C8.770,14.815 9.026,14.559 9.026,14.236 L9.026,10.761 C9.029,10.444 8.773,10.186 8.456,10.182 L8.444,10.182 ZM24.834,12.095 L20.443,7.704 C20.220,7.475 19.853,7.469 19.624,7.692 C19.512,7.800 19.449,7.951 19.449,8.107 L19.449,10.179 L16.552,10.179 C16.236,10.176 15.977,10.432 15.974,10.749 L15.974,14.233 C15.974,14.559 16.230,14.812 16.552,14.812 L19.449,14.812 L19.449,16.890 C19.449,17.411 20.073,17.667 20.434,17.296 L24.825,12.905 C25.051,12.688 25.060,12.327 24.843,12.098 C24.837,12.098 24.834,12.095 24.834,12.095 L24.834,12.095 ZM14.236,15.974 L10.760,15.974 C10.444,15.971 10.185,16.227 10.182,16.543 L10.182,19.450 L8.110,19.450 C7.589,19.450 7.333,20.073 7.704,20.435 L12.095,24.826 C12.314,25.052 12.679,25.058 12.905,24.838 L17.308,20.435 C17.531,20.209 17.531,19.841 17.302,19.618 C17.194,19.513 17.052,19.453 16.901,19.453 L14.820,19.453 L14.820,16.555 C14.823,16.239 14.567,15.980 14.251,15.977 C14.242,15.974 14.239,15.974 14.236,15.974 L14.236,15.974 Z"/>
</svg>
