<svg 
 xmlns="http://www.w3.org/2000/svg"
 xmlns:xlink="http://www.w3.org/1999/xlink"
 width="11px" height="12px">
<path fill-rule="evenodd"  fill="rgb(50, 197, 35)"
 d="M10.120,9.699 L10.120,11.739 C10.120,11.913 10.030,12.000 9.851,12.000 L9.068,12.000 C8.889,12.000 8.800,11.913 8.800,11.739 L8.800,9.700 C8.283,9.457 7.920,8.953 7.920,8.357 C7.920,7.761 8.283,7.257 8.800,7.015 L8.800,0.261 C8.800,0.087 8.889,-0.000 9.068,-0.000 L9.851,-0.000 C10.030,-0.000 10.120,0.087 10.120,0.261 L10.120,7.015 C10.636,7.257 11.000,7.762 11.000,8.357 C11.000,8.953 10.636,9.457 10.120,9.699 ZM6.159,4.932 L6.159,11.739 C6.159,11.913 6.070,12.000 5.891,12.000 L5.108,12.000 C4.929,12.000 4.840,11.913 4.840,11.739 L4.840,4.932 C4.323,4.689 3.960,4.185 3.960,3.589 C3.960,2.993 4.323,2.489 4.840,2.247 L4.840,0.261 C4.840,0.087 4.929,-0.000 5.108,-0.000 L5.891,-0.000 C6.070,-0.000 6.159,0.087 6.159,0.261 L6.159,2.247 C6.676,2.489 7.039,2.993 7.039,3.589 C7.039,4.185 6.676,4.689 6.159,4.932 ZM2.199,9.700 L2.199,11.739 C2.199,11.913 2.110,12.000 1.931,12.000 L1.148,12.000 C0.969,12.000 0.879,11.913 0.879,11.739 L0.879,9.699 C0.363,9.457 -0.001,8.953 -0.001,8.357 C-0.001,7.761 0.363,7.257 0.879,7.015 L0.879,0.261 C0.879,0.087 0.969,-0.000 1.148,-0.000 L1.931,-0.000 C2.110,-0.000 2.199,0.087 2.199,0.261 L2.199,7.015 C2.716,7.257 3.079,7.761 3.079,8.357 C3.079,8.953 2.716,9.458 2.199,9.700 Z"/>
</svg>
