<svg 
 xmlns="http://www.w3.org/2000/svg"
 xmlns:xlink="http://www.w3.org/1999/xlink"
 width="18px" height="16px">
<path fill-rule="evenodd"  fill="rgb(203, 203, 204)"
 d="M16.392,11.096 C16.195,11.573 15.950,12.029 15.661,12.458 C15.086,13.312 14.349,14.047 13.492,14.620 C13.062,14.907 12.604,15.151 12.126,15.348 C10.126,16.189 7.872,16.189 5.873,15.348 C5.395,15.151 4.937,14.907 4.507,14.620 C3.650,14.047 2.913,13.312 2.337,12.458 C2.049,12.029 1.804,11.573 1.607,11.096 C0.763,9.104 0.763,6.857 1.607,4.865 C1.804,4.388 2.049,3.932 2.337,3.503 C2.913,2.649 3.650,1.914 4.507,1.341 C4.937,1.054 5.395,0.810 5.873,0.613 C6.359,0.408 6.865,0.252 7.381,0.147 C8.449,-0.071 9.550,-0.071 10.617,0.147 C11.135,0.252 11.639,0.408 12.126,0.613 C12.604,0.810 13.062,1.054 13.492,1.341 C13.719,1.482 13.851,1.735 13.836,2.002 C13.821,2.269 13.660,2.506 13.417,2.619 C13.174,2.733 12.889,2.704 12.673,2.546 C10.455,1.048 7.544,1.048 5.326,2.546 C4.624,3.017 4.020,3.619 3.547,4.319 C3.310,4.670 3.107,5.043 2.941,5.433 C2.432,6.655 2.305,8.002 2.575,9.298 C2.657,9.719 2.779,10.131 2.941,10.528 C3.446,11.694 4.277,12.690 5.336,13.397 C7.555,14.894 10.466,14.894 12.685,13.397 C13.386,12.925 13.990,12.324 14.463,11.624 C14.700,11.273 14.903,10.900 15.069,10.510 C15.579,9.286 15.706,7.938 15.435,6.641 C15.354,6.220 15.231,5.808 15.069,5.411 C14.901,5.029 14.698,4.663 14.463,4.319 C14.304,4.104 14.276,3.819 14.390,3.577 C14.504,3.335 14.741,3.175 15.008,3.160 C15.277,3.144 15.531,3.276 15.672,3.503 C15.960,3.932 16.206,4.388 16.403,4.865 C16.608,5.349 16.765,5.853 16.870,6.368 L16.859,6.364 C17.188,7.952 17.024,9.603 16.392,11.096 ZM13.382,9.436 L8.269,9.436 C7.866,9.436 7.538,9.110 7.538,8.708 L7.538,3.612 C7.538,3.210 7.866,2.885 8.269,2.885 C8.672,2.885 8.999,3.210 8.999,3.612 L8.999,7.980 L13.382,7.980 C13.786,7.980 14.112,8.306 14.112,8.708 C14.112,9.110 13.786,9.436 13.382,9.436 Z"/>
</svg>
