<svg 
 xmlns="http://www.w3.org/2000/svg"
 xmlns:xlink="http://www.w3.org/1999/xlink"
 width="11px" height="12px">
<path fill-rule="evenodd"  fill="rgb(249, 84, 84)"
 d="M9.035,12.000 L1.964,12.000 C0.879,12.000 -0.001,11.133 -0.001,10.064 L-0.001,1.935 C-0.001,0.866 0.879,-0.000 1.964,-0.000 L9.035,-0.000 C10.120,-0.000 11.000,0.866 11.000,1.935 L11.000,10.064 C11.000,11.133 10.120,12.000 9.035,12.000 ZM9.428,1.548 L1.571,1.548 L1.571,6.193 L9.428,6.193 L9.428,1.548 ZM9.428,6.968 L1.571,6.968 L1.571,10.451 L9.428,10.451 L9.428,6.968 ZM4.714,4.645 L6.285,4.645 C6.502,4.645 6.678,4.818 6.678,5.032 C6.678,5.246 6.502,5.419 6.285,5.419 L4.714,5.419 C4.497,5.419 4.321,5.246 4.321,5.032 C4.321,4.818 4.497,4.645 4.714,4.645 Z"/>
</svg>
