<svg 
 xmlns="http://www.w3.org/2000/svg"
 xmlns:xlink="http://www.w3.org/1999/xlink"
 width="14px" height="12px">
<path fill-rule="evenodd"  fill="rgb(153, 153, 153)"
 d="M7.773,0.018 C5.037,0.039 2.627,1.761 1.809,4.282 L0.205,4.282 C0.125,4.282 0.053,4.325 0.019,4.394 C-0.018,4.463 -0.011,4.545 0.037,4.606 L2.319,7.546 C2.359,7.597 2.420,7.627 2.488,7.627 C2.553,7.627 2.617,7.597 2.654,7.546 L4.946,4.606 C4.992,4.545 5.001,4.463 4.965,4.394 C4.929,4.325 4.856,4.282 4.778,4.282 L3.285,4.282 C4.156,2.219 6.413,1.037 8.679,1.457 C10.946,1.878 12.590,3.784 12.604,6.012 C12.581,7.761 11.547,9.351 9.927,10.134 C8.304,10.916 6.366,10.760 4.903,9.728 C4.703,9.584 4.437,9.552 4.207,9.647 C3.977,9.742 3.818,9.948 3.788,10.188 C3.758,10.428 3.862,10.664 4.062,10.809 C6.228,12.367 9.188,12.397 11.387,10.884 C13.586,9.371 14.522,6.661 13.702,4.177 C12.881,1.694 10.495,0.005 7.794,-0.001 L7.773,0.018 Z"/>
</svg>
