<svg 
 xmlns="http://www.w3.org/2000/svg"
 xmlns:xlink="http://www.w3.org/1999/xlink"
 width="14px" height="14px">
<path fill-rule="evenodd"  fill="rgb(201, 201, 201)"
 d="M11.714,14.000 L2.286,14.000 C1.023,14.000 -0.000,12.976 -0.000,11.714 L-0.000,6.815 C-0.000,6.630 0.099,6.459 0.259,6.366 C0.419,6.273 0.617,6.273 0.778,6.366 C0.938,6.459 1.037,6.630 1.037,6.815 L1.037,11.714 C1.037,12.403 1.596,12.963 2.286,12.963 L11.714,12.963 C12.045,12.963 12.363,12.831 12.597,12.597 C12.831,12.363 12.963,12.045 12.963,11.714 L12.963,2.286 C12.963,1.955 12.831,1.637 12.597,1.403 C12.363,1.168 12.045,1.037 11.714,1.037 L7.210,1.037 C6.923,1.037 6.691,0.805 6.691,0.518 C6.691,0.232 6.923,0.000 7.210,-0.000 L11.714,-0.000 C12.976,-0.000 14.000,1.023 14.000,2.286 L14.000,11.714 C14.000,12.976 12.976,14.000 11.714,14.000 ZM8.876,5.071 C9.032,4.830 9.353,4.761 9.594,4.917 C9.834,5.073 9.903,5.394 9.747,5.635 L8.263,7.929 C8.023,8.300 7.538,8.423 7.151,8.211 L4.777,6.913 C4.529,6.774 4.441,6.462 4.576,6.213 C4.712,5.964 5.023,5.870 5.274,6.003 L6.887,6.885 C6.214,3.997 3.731,1.858 0.730,1.697 L0.490,1.684 L0.490,1.685 C0.204,1.670 -0.015,1.425 0.000,1.139 C0.016,0.853 0.260,0.633 0.546,0.649 L0.787,0.661 C4.236,0.847 7.091,3.296 7.883,6.607 L8.876,5.071 Z"/>
</svg>
