<svg 
 xmlns="http://www.w3.org/2000/svg"
 xmlns:xlink="http://www.w3.org/1999/xlink"
 width="14px" height="14px">
<path fill-rule="evenodd"  fill="rgb(201, 201, 201)"
 d="M13.901,2.503 L12.669,4.756 C12.539,4.924 12.377,5.024 12.183,5.024 C12.085,5.024 12.021,4.991 11.923,4.957 C11.697,4.823 11.632,4.520 11.762,4.285 L12.608,2.772 L12.377,2.772 C10.011,2.772 8.098,4.756 8.066,7.176 C8.033,7.445 7.839,7.680 7.580,7.680 C7.321,7.680 7.093,7.445 7.093,7.176 C7.157,4.231 9.423,1.883 12.246,1.779 L10.919,0.957 C10.692,0.822 10.594,0.520 10.757,0.251 C10.886,0.016 11.178,-0.085 11.405,0.083 L13.577,1.360 C13.771,1.461 13.901,1.663 13.966,1.865 C14.031,2.066 13.998,2.302 13.901,2.503 ZM6.640,1.528 L2.106,1.528 C1.491,1.528 0.972,2.066 0.972,2.705 L0.972,11.781 C0.972,12.420 1.491,12.958 2.106,12.958 L11.858,12.958 C12.475,12.958 12.993,12.420 12.993,11.781 L12.993,8.150 C12.993,7.882 13.220,7.646 13.479,7.646 C13.739,7.646 13.966,7.882 13.966,8.150 L13.966,11.815 C13.966,13.025 13.026,14.000 11.858,14.000 L2.106,14.000 C0.940,14.000 -0.001,13.025 -0.001,11.815 L-0.001,2.705 C-0.001,1.495 0.940,0.520 2.106,0.520 L6.640,0.520 C6.899,0.520 7.126,0.755 7.126,1.024 C7.126,1.293 6.899,1.528 6.640,1.528 Z"/>
</svg>
