<svg 
 xmlns="http://www.w3.org/2000/svg"
 xmlns:xlink="http://www.w3.org/1999/xlink"
 width="24px" height="25px">
<path fill-rule="evenodd"  fill="rgb(102, 102, 102)"
 d="M23.540,25.000 L10.417,25.000 C10.261,25.002 10.113,24.940 10.026,24.835 C9.946,24.731 9.932,24.602 9.989,24.490 L11.685,21.175 L9.213,19.832 C9.039,19.739 8.964,19.562 9.029,19.401 L10.467,16.255 C10.531,16.102 10.706,15.999 10.904,16.000 L23.540,16.000 C23.794,16.000 23.999,16.168 23.999,16.375 L23.999,24.625 C23.999,24.832 23.794,25.000 23.540,25.000 ZM7.095,25.000 L0.459,25.000 C0.205,25.000 -0.001,24.832 -0.001,24.625 L-0.001,16.375 C-0.001,16.168 0.205,16.000 0.459,16.000 L7.582,16.000 C7.738,15.997 7.885,16.059 7.973,16.165 C8.054,16.268 8.067,16.397 8.009,16.510 L6.314,19.825 L8.786,21.167 C8.960,21.261 9.036,21.437 8.970,21.599 L7.532,24.745 C7.469,24.898 7.293,25.000 7.095,25.000 Z"/>
<path fill-rule="evenodd"  fill="rgb(102, 102, 102)"
 d="M16.245,8.432 C14.821,9.608 13.324,10.504 11.887,10.602 C11.887,10.610 11.887,10.626 11.887,10.626 L10.514,8.863 C10.514,8.863 10.527,8.863 10.534,8.864 C10.936,7.471 12.122,6.123 13.538,4.954 C16.896,2.182 21.734,0.544 21.971,0.848 C22.209,1.154 19.502,5.743 16.245,8.432 Z"/>
<path fill-rule="evenodd"  fill="rgb(255, 144, 0)"
 d="M11.901,10.584 L10.544,8.837 C7.087,8.590 8.212,12.442 6.169,13.416 C7.489,13.562 9.739,13.809 10.733,12.986 C11.727,12.163 11.905,11.214 11.901,10.584 L11.901,10.584 Z"/>
</svg>
