<svg 
 xmlns="http://www.w3.org/2000/svg"
 xmlns:xlink="http://www.w3.org/1999/xlink"
 width="14px" height="14px">
<path fill-rule="evenodd"  fill="rgb(255, 255, 255)"
 d="M13.782,13.782 C13.643,13.925 13.461,13.997 13.277,13.997 C13.092,13.997 12.910,13.925 12.767,13.782 L11.276,12.250 C10.077,13.324 8.528,13.997 6.815,13.997 C3.053,13.997 -0.007,10.857 -0.007,6.997 C-0.007,3.137 3.053,-0.002 6.815,-0.002 C10.576,-0.002 13.636,3.137 13.636,6.997 C13.636,8.568 13.111,10.004 12.256,11.174 L13.782,12.740 C14.063,13.029 14.063,13.494 13.782,13.782 ZM6.815,1.471 C3.844,1.471 1.429,3.950 1.429,6.997 C1.429,10.045 3.844,12.524 6.815,12.524 C9.783,12.524 12.199,10.045 12.199,6.997 C12.199,3.950 9.783,1.471 6.815,1.471 Z"/>
</svg>
