<svg 
 xmlns="http://www.w3.org/2000/svg"
 xmlns:xlink="http://www.w3.org/1999/xlink"
 width="23px" height="23px">
<path fill-rule="evenodd"  fill="rgb(255, 255, 255)"
 d="M22.209,22.998 L0.784,22.998 C0.349,22.998 -0.004,22.645 -0.004,22.210 L-0.004,21.630 C-0.004,21.195 0.349,20.843 0.784,20.843 L2.081,20.843 L2.081,18.565 L4.172,13.425 L6.262,12.332 L5.739,13.972 L4.172,16.421 L4.172,20.843 L7.307,20.843 L7.307,18.565 L9.400,16.421 L11.044,15.347 L10.658,16.587 L9.400,18.565 L9.400,20.843 L13.581,20.843 L13.581,20.708 L13.701,18.106 L14.366,15.349 L15.471,19.024 L15.597,20.843 L18.807,20.843 L18.807,16.421 L16.216,14.228 L19.855,15.349 L20.897,20.843 L22.209,20.843 C22.644,20.843 22.996,21.195 22.996,21.630 L22.996,22.210 C22.996,22.645 22.644,22.998 22.209,22.998 ZM15.913,13.972 L16.216,14.228 L15.913,14.135 L15.913,13.972 ZM21.202,7.870 C20.089,9.259 18.853,10.549 17.508,11.724 C16.640,12.129 15.632,12.129 14.764,11.724 C14.585,11.639 14.468,11.465 14.458,11.271 C14.448,11.076 14.547,10.892 14.716,10.790 L16.863,8.924 C16.863,8.924 17.100,8.150 16.397,8.700 C15.694,9.251 12.295,12.218 11.127,13.216 C10.688,13.618 10.135,13.878 9.541,13.963 C9.139,14.056 8.715,13.971 8.382,13.730 C7.689,13.067 7.993,12.069 8.857,11.313 C9.722,10.557 13.520,7.114 13.520,7.114 C13.520,7.114 13.520,6.778 13.282,6.872 C13.045,6.965 12.010,7.861 11.412,8.346 C11.319,8.421 11.197,8.449 11.080,8.424 C10.964,8.398 10.865,8.321 10.813,8.215 C10.310,7.161 9.247,4.483 10.889,3.111 C12.969,1.404 14.270,0.630 15.030,0.723 C15.384,0.787 15.748,0.787 16.103,0.723 C16.458,0.659 16.996,-0.061 17.252,0.004 C18.946,1.345 20.533,2.811 22.000,4.390 C21.922,4.757 21.759,5.101 21.525,5.397 C21.335,5.603 21.639,7.180 21.202,7.870 Z"/>
</svg>
