<svg 
 xmlns="http://www.w3.org/2000/svg"
 xmlns:xlink="http://www.w3.org/1999/xlink"
 width="20px" height="20px">
<path fill-rule="evenodd"  fill="rgb(23, 204, 95)"
 d="M9.999,-0.000 C4.499,-0.000 -0.001,4.499 -0.001,10.000 C-0.001,15.500 4.499,19.999 9.999,19.999 C15.498,19.999 19.998,15.500 19.998,10.000 C19.998,4.499 15.498,-0.000 9.999,-0.000 L9.999,-0.000 ZM9.999,18.999 C4.999,18.999 0.999,15.000 0.999,10.000 C0.999,5.000 4.999,1.000 9.999,1.000 C14.999,1.000 18.998,5.000 18.998,10.000 C18.998,15.000 14.999,18.999 9.999,18.999 L9.999,18.999 ZM11.699,6.000 L11.099,10.000 C10.999,10.599 10.498,10.999 9.999,10.999 C9.499,10.999 8.898,10.599 8.898,10.000 L8.298,6.000 C8.199,5.000 8.998,3.999 9.999,3.999 C10.999,3.999 11.899,4.899 11.699,6.000 L11.699,6.000 ZM11.099,12.399 C11.399,12.699 11.499,13.000 11.499,13.500 C11.499,13.900 11.399,14.300 11.099,14.600 C10.799,14.899 10.399,15.000 9.999,15.000 C9.599,15.000 9.199,14.899 8.898,14.600 C8.599,14.300 8.499,13.999 8.499,13.500 C8.499,13.100 8.599,12.699 8.898,12.399 C9.199,12.099 9.499,11.999 9.999,11.999 C10.498,11.999 10.799,12.099 11.099,12.399 L11.099,12.399 Z"/>
</svg>
