<svg 
 xmlns="http://www.w3.org/2000/svg"
 xmlns:xlink="http://www.w3.org/1999/xlink"
 width="7px" height="5px">
<path fill-rule="evenodd"  fill="rgb(255, 255, 255)"
 d="M6.954,2.714 C6.926,2.783 6.888,2.842 6.838,2.892 L4.871,4.847 C4.770,4.950 4.650,5.002 4.511,5.002 C4.371,5.002 4.251,4.950 4.150,4.847 C4.100,4.798 4.063,4.741 4.038,4.680 C4.012,4.618 4.000,4.554 4.000,4.488 C4.000,4.423 4.012,4.358 4.038,4.295 C4.063,4.231 4.100,4.174 4.150,4.125 L5.773,2.499 L4.150,0.873 C4.050,0.773 4.000,0.654 4.000,0.514 C4.000,0.374 4.050,0.254 4.150,0.156 C4.251,0.053 4.371,0.001 4.511,0.001 C4.650,0.001 4.770,0.053 4.871,0.156 L6.870,2.143 C6.921,2.185 6.955,2.238 6.975,2.302 C6.994,2.366 7.003,2.433 6.999,2.504 C6.995,2.575 6.980,2.645 6.954,2.714 ZM2.838,2.892 L0.871,4.847 C0.771,4.950 0.651,5.002 0.511,5.002 C0.371,5.002 0.251,4.950 0.150,4.847 C0.100,4.798 0.063,4.741 0.038,4.680 C0.012,4.618 0.000,4.554 0.000,4.488 C0.000,4.423 0.012,4.358 0.038,4.295 C0.063,4.231 0.100,4.174 0.150,4.125 L1.774,2.499 L0.150,0.873 C0.050,0.773 0.000,0.654 0.000,0.514 C0.000,0.374 0.050,0.254 0.150,0.156 C0.251,0.053 0.371,0.001 0.511,0.001 C0.651,0.001 0.771,0.053 0.871,0.156 L2.870,2.143 C2.920,2.185 2.955,2.238 2.975,2.302 C2.995,2.366 3.003,2.433 2.999,2.504 C2.996,2.575 2.980,2.645 2.954,2.714 C2.927,2.783 2.888,2.842 2.838,2.892 Z"/>
</svg>
