<svg 
 xmlns="http://www.w3.org/2000/svg"
 xmlns:xlink="http://www.w3.org/1999/xlink"
 width="20px" height="20px">
<path fill-rule="evenodd"  fill="rgb(255, 255, 255)"
 d="M19.763,5.052 L10.931,0.315 C10.341,-0.106 9.654,-0.106 9.065,0.315 L0.232,5.052 C0.232,5.157 0.134,5.262 0.036,5.262 C-0.062,5.683 0.036,6.104 0.331,6.210 L3.471,7.894 L0.821,9.368 C0.526,9.578 0.331,9.894 0.331,10.210 C0.331,10.526 0.526,10.947 0.821,11.052 L3.078,12.315 L0.821,13.578 C0.526,13.789 0.331,14.105 0.331,14.421 C0.331,14.736 0.526,15.157 0.821,15.263 L9.065,19.684 C9.359,19.894 9.654,20.000 9.949,20.000 C10.243,20.000 10.636,19.894 10.931,19.684 L19.174,15.263 C19.469,15.052 19.665,14.736 19.665,14.421 C19.665,14.105 19.469,13.684 19.174,13.578 L16.918,12.315 L19.174,11.052 C19.469,10.841 19.665,10.526 19.665,10.210 C19.665,9.894 19.469,9.473 19.174,9.368 L16.623,7.894 L19.763,6.210 C19.861,6.104 19.960,6.104 19.960,5.999 C20.058,5.578 19.960,5.157 19.763,5.052 L19.763,5.052 ZM17.899,14.421 L10.341,18.526 C10.145,18.631 9.949,18.631 9.752,18.526 L2.195,14.421 L4.649,13.052 L9.164,15.473 C9.458,15.684 9.752,15.789 10.047,15.789 C10.341,15.789 10.734,15.684 11.029,15.473 L15.544,13.052 L17.899,14.421 ZM17.899,10.210 L15.445,11.578 L13.973,12.315 L10.243,14.315 C10.047,14.421 9.851,14.421 9.654,14.315 L5.924,12.315 L4.452,11.578 L1.999,10.210 L4.943,8.631 L9.164,10.947 C9.752,11.368 10.439,11.368 11.029,10.947 L15.249,8.631 L17.899,10.210 Z"/>
</svg>
