<svg 
 xmlns="http://www.w3.org/2000/svg"
 xmlns:xlink="http://www.w3.org/1999/xlink"
 width="14px" height="16px">
<path fill-rule="evenodd"  fill="rgb(159, 159, 162)"
 d="M10.645,7.940 C9.712,8.762 8.474,9.265 7.110,9.265 C5.723,9.265 4.464,8.744 3.526,7.896 C1.349,8.467 -0.000,10.415 -0.000,12.737 L-0.000,13.924 C-0.000,16.691 14.000,16.691 14.000,13.924 L14.000,12.737 C14.002,10.475 12.724,8.563 10.645,7.940 L10.645,7.940 ZM7.110,8.425 C9.526,8.425 11.486,6.540 11.486,4.212 C11.486,1.885 9.528,-0.000 7.110,-0.000 C4.694,-0.000 2.735,1.885 2.735,4.212 C2.735,6.540 4.694,8.425 7.110,8.425 L7.110,8.425 Z"/>
</svg>
