<svg 
 xmlns="http://www.w3.org/2000/svg"
 xmlns:xlink="http://www.w3.org/1999/xlink"
 width="14px" height="14px">
<path fill-rule="evenodd"  fill="rgb(23, 204, 95)"
 d="M11.524,4.467 C11.247,4.467 11.004,4.691 11.004,4.967 L11.004,12.455 C11.004,12.731 10.776,12.948 10.499,12.948 L3.500,12.948 C3.224,12.948 2.993,12.729 2.993,12.455 L2.993,4.945 C2.993,4.669 2.791,4.445 2.514,4.445 C2.238,4.445 2.036,4.669 2.036,4.945 L2.036,12.453 C2.036,13.280 2.673,14.000 3.500,14.000 L10.501,14.000 C11.328,14.000 12.044,13.279 12.044,12.453 L12.044,4.966 C12.043,4.691 11.800,4.467 11.524,4.467 L11.524,4.467 ZM5.959,10.454 L5.959,4.954 C5.959,4.677 5.757,4.453 5.481,4.453 C5.205,4.453 5.002,4.676 5.002,4.954 L5.002,10.454 C5.002,10.730 5.205,10.955 5.481,10.955 C5.757,10.955 5.959,10.730 5.959,10.454 L5.959,10.454 ZM8.994,10.454 L8.994,4.954 C8.994,4.677 8.752,4.453 8.475,4.453 C8.199,4.453 7.955,4.676 7.955,4.954 L7.955,10.454 C7.955,10.730 8.199,10.955 8.475,10.955 C8.752,10.955 8.994,10.730 8.994,10.454 L8.994,10.454 ZM13.497,2.475 L11.004,2.475 L11.004,1.453 C11.004,0.626 10.330,-0.000 9.510,-0.000 L4.498,-0.000 C3.673,-0.000 2.993,0.626 2.993,1.453 L2.993,2.474 L0.499,2.474 C0.222,2.475 -0.001,2.677 -0.001,2.953 C-0.001,3.229 0.222,3.432 0.499,3.432 L13.499,3.432 C13.775,3.432 13.999,3.229 13.999,2.953 C13.999,2.677 13.775,2.475 13.497,2.475 L13.497,2.475 ZM9.965,2.475 L3.964,2.475 L3.964,1.453 C3.964,1.177 4.224,0.957 4.498,0.957 L9.510,0.957 C9.784,0.957 9.965,1.173 9.965,1.453 L9.965,2.475 L9.965,2.475 Z"/>
</svg>
