<svg 
 xmlns="http://www.w3.org/2000/svg"
 xmlns:xlink="http://www.w3.org/1999/xlink"
 width="14px" height="14px">
<path fill-rule="evenodd"  fill="rgb(51, 51, 51)"
 d="M9.735,7.912 C7.717,7.912 6.082,6.276 6.082,4.259 C6.082,2.243 7.717,0.607 9.735,0.607 C11.751,0.607 13.386,2.243 13.386,4.259 C13.386,6.276 11.751,7.912 9.735,7.912 ZM12.168,3.651 L10.343,3.651 L10.343,1.825 L9.125,1.825 L9.125,3.651 L7.298,3.651 L7.298,4.868 L9.125,4.868 L9.125,6.695 L10.343,6.695 L10.343,4.868 L12.168,4.868 L12.168,3.651 ZM5.468,1.812 L5.468,3.687 L5.531,3.687 C5.506,3.873 5.475,4.057 5.474,4.250 L5.468,4.250 L5.468,6.094 L5.904,6.094 C6.008,6.312 6.125,6.523 6.264,6.719 L5.468,6.719 L5.468,8.531 L7.281,8.531 L7.281,7.734 C7.477,7.873 7.688,7.989 7.906,8.094 L7.906,8.531 L9.749,8.531 L9.749,8.519 C9.942,8.518 10.127,8.488 10.312,8.462 L10.312,8.531 L12.187,8.531 L12.187,7.734 C12.400,7.584 12.600,7.418 12.781,7.232 L12.781,13.375 L12.187,13.375 L12.187,11.594 L10.312,11.594 L10.312,13.375 L12.187,13.375 L12.187,14.000 L0.625,14.000 L0.625,13.375 L2.406,13.375 L2.406,11.594 L0.625,11.594 L0.625,12.781 L0.625,13.375 L-0.000,13.375 L-0.000,12.781 L-0.000,1.812 L0.625,1.812 L0.625,3.687 L2.406,3.687 L2.406,1.812 L0.625,1.812 L0.625,1.250 L6.719,1.250 C6.547,1.422 6.395,1.613 6.255,1.812 L5.468,1.812 ZM10.312,10.969 L12.187,10.969 L12.187,9.125 L10.312,9.125 L10.312,10.969 ZM7.906,13.375 L9.749,13.375 L9.749,11.594 L7.906,11.594 L7.906,13.375 ZM7.906,10.969 L9.749,10.969 L9.749,9.125 L7.906,9.125 L7.906,10.969 ZM5.468,13.375 L7.281,13.375 L7.281,11.594 L5.468,11.594 L5.468,13.375 ZM5.468,10.969 L7.281,10.969 L7.281,9.125 L5.468,9.125 L5.468,10.969 ZM2.406,4.250 L0.625,4.250 L0.625,6.094 L1.249,6.094 L2.406,6.094 L2.406,4.250 ZM2.406,6.719 L1.249,6.719 L0.625,6.719 L0.625,8.531 L2.406,8.531 L2.406,6.719 ZM2.406,9.125 L0.625,9.125 L0.625,10.969 L2.406,10.969 L2.406,9.125 ZM4.875,1.812 L3.031,1.812 L3.031,3.687 L4.875,3.687 L4.875,1.812 ZM4.875,4.250 L3.031,4.250 L3.031,6.094 L4.875,6.094 L4.875,4.250 ZM4.875,6.719 L3.031,6.719 L3.031,8.531 L4.875,8.531 L4.875,6.719 ZM4.875,9.125 L3.031,9.125 L3.031,10.969 L4.875,10.969 L4.875,9.125 ZM4.875,11.594 L3.031,11.594 L3.031,13.375 L4.875,13.375 L4.875,11.594 Z"/>
</svg>
