<svg 
 xmlns="http://www.w3.org/2000/svg"
 xmlns:xlink="http://www.w3.org/1999/xlink"
 width="14px" height="14px">
<path fill-rule="evenodd"  fill="rgb(51, 51, 51)"
 d="M13.441,9.709 C13.269,10.126 13.056,10.525 12.803,10.900 C12.302,11.648 11.661,12.290 10.912,12.792 C10.538,13.043 10.139,13.256 9.722,13.429 C7.979,14.165 6.014,14.165 4.273,13.429 C3.857,13.256 3.456,13.043 3.082,12.792 C2.335,12.290 1.693,11.648 1.191,10.900 C0.939,10.525 0.726,10.126 0.554,9.709 C-0.182,7.966 -0.182,5.999 0.554,4.256 C0.726,3.839 0.939,3.440 1.191,3.065 C1.693,2.317 2.335,1.674 3.082,1.173 C3.456,0.922 3.857,0.709 4.273,0.536 C4.696,0.357 5.136,0.220 5.587,0.128 C6.517,-0.063 7.477,-0.063 8.407,0.128 C8.858,0.220 9.297,0.357 9.722,0.536 C10.139,0.709 10.538,0.922 10.912,1.173 C11.111,1.296 11.226,1.518 11.213,1.752 C11.200,1.985 11.059,2.192 10.848,2.291 C10.636,2.390 10.388,2.366 10.199,2.227 C8.267,0.917 5.729,0.917 3.795,2.227 C3.184,2.640 2.656,3.166 2.245,3.778 C2.038,4.086 1.861,4.412 1.717,4.753 C1.273,5.823 1.162,7.002 1.397,8.135 C1.469,8.504 1.575,8.864 1.717,9.212 C2.155,10.232 2.882,11.104 3.804,11.722 C5.739,13.032 8.275,13.032 10.210,11.722 C10.821,11.309 11.347,10.783 11.759,10.171 C11.966,9.863 12.142,9.537 12.288,9.196 C12.732,8.125 12.843,6.945 12.606,5.810 C12.535,5.442 12.429,5.081 12.288,4.734 C12.142,4.400 11.964,4.080 11.759,3.778 C11.620,3.590 11.596,3.341 11.695,3.130 C11.794,2.918 12.002,2.778 12.235,2.764 C12.468,2.751 12.691,2.866 12.813,3.065 C13.064,3.440 13.278,3.839 13.450,4.256 C13.628,4.680 13.765,5.120 13.857,5.571 L13.847,5.568 C14.134,6.958 13.992,8.402 13.441,9.709 ZM10.817,8.256 L6.360,8.256 C6.009,8.256 5.724,7.971 5.724,7.619 L5.724,3.161 C5.724,2.809 6.009,2.524 6.360,2.524 C6.711,2.524 6.996,2.809 6.997,3.161 L6.997,6.982 L10.817,6.982 C11.169,6.982 11.453,7.268 11.453,7.619 C11.453,7.971 11.169,8.256 10.817,8.256 Z"/>
</svg>
