<svg 
 xmlns="http://www.w3.org/2000/svg"
 xmlns:xlink="http://www.w3.org/1999/xlink"
 width="14px" height="14px">
<path fill-rule="evenodd"  fill="rgb(51, 51, 51)"
 d="M13.300,1.396 C13.300,1.396 12.594,2.396 11.516,2.396 C10.487,2.396 9.116,2.396 7.700,2.396 L7.700,5.676 C11.232,6.031 13.999,8.969 13.999,12.585 C13.999,13.355 13.367,14.000 12.594,14.000 L1.393,14.000 C0.621,14.000 -0.000,13.355 -0.000,12.585 C-0.000,8.969 2.768,6.031 6.300,5.676 L6.300,2.396 C5.130,2.396 3.992,2.396 3.051,2.396 C1.660,2.396 0.700,1.396 0.700,1.396 C0.233,1.396 -0.000,1.163 -0.000,0.698 C-0.000,0.233 0.233,-0.000 0.700,-0.000 C0.700,-0.000 1.648,1.000 3.024,1.000 C5.467,1.000 9.259,1.000 11.489,1.000 C12.582,1.000 13.300,-0.000 13.300,-0.000 C13.767,-0.000 13.999,0.233 13.999,0.698 C13.999,1.163 13.767,1.396 13.300,1.396 ZM1.120,12.585 C1.120,12.906 1.349,12.955 1.672,12.955 L12.302,12.955 C12.624,12.955 12.880,12.906 12.880,12.585 C12.880,9.347 10.247,6.723 7.000,6.723 C3.752,6.723 1.120,9.347 1.120,12.585 ZM9.100,11.770 L7.000,11.770 C6.533,11.770 6.300,11.538 6.300,11.072 L6.300,8.979 C6.300,8.513 6.533,8.281 7.000,8.281 C7.466,8.281 7.700,8.513 7.700,8.979 L7.700,10.374 L9.100,10.374 C9.566,10.374 9.800,10.607 9.800,11.072 C9.800,11.538 9.566,11.770 9.100,11.770 Z"/>
</svg>
