<svg 
 xmlns="http://www.w3.org/2000/svg"
 xmlns:xlink="http://www.w3.org/1999/xlink"
 width="14px" height="14px">
<path fill-rule="evenodd"  fill="rgb(23, 204, 95)"
 d="M11.500,5.000 C12.899,5.000 13.999,3.900 13.999,2.500 C13.999,1.100 12.899,-0.000 11.500,-0.000 C10.099,-0.000 8.999,1.100 8.999,2.500 C8.999,2.700 8.999,2.899 9.099,2.999 L4.599,5.000 C4.100,4.400 3.299,4.000 2.499,4.000 C1.099,4.000 -0.001,5.100 -0.001,6.499 C-0.001,7.900 1.099,9.000 2.499,9.000 C3.199,9.000 3.699,8.700 4.199,8.299 L7.199,10.500 C7.099,10.800 6.999,11.200 6.999,11.500 C6.999,12.900 8.099,14.000 9.499,14.000 C10.899,14.000 12.000,12.900 12.000,11.500 C12.000,10.100 10.899,9.000 9.499,9.000 C8.799,9.000 8.299,9.299 7.799,9.699 L4.799,7.500 C4.899,7.200 5.000,6.900 5.000,6.499 C5.000,6.299 5.000,6.100 4.899,6.000 L9.399,4.000 C9.899,4.600 10.699,5.000 11.500,5.000 L11.500,5.000 ZM2.499,8.000 C1.699,8.000 0.999,7.300 0.999,6.499 C0.999,5.700 1.699,5.000 2.499,5.000 C3.299,5.000 3.999,5.700 3.999,6.499 C3.999,6.800 3.899,7.100 3.699,7.400 C3.399,7.800 3.000,8.000 2.499,8.000 L2.499,8.000 ZM9.499,10.000 C10.299,10.000 10.999,10.700 10.999,11.500 C10.999,12.300 10.299,13.000 9.499,13.000 C8.699,13.000 7.999,12.300 7.999,11.500 C7.999,11.200 8.099,10.900 8.299,10.600 C8.599,10.200 8.999,10.000 9.499,10.000 L9.499,10.000 ZM11.500,1.000 C12.299,1.000 12.999,1.699 12.999,2.500 C12.999,3.299 12.299,4.000 11.500,4.000 C10.699,4.000 9.999,3.299 9.999,2.500 C9.999,1.699 10.699,1.000 11.500,1.000 L11.500,1.000 Z"/>
</svg>
