<svg 
 xmlns="http://www.w3.org/2000/svg"
 xmlns:xlink="http://www.w3.org/1999/xlink"
 width="14px" height="14px">
<path fill-rule="evenodd"  fill="rgb(51, 51, 51)"
 d="M14.000,11.000 L14.000,12.000 L11.000,12.000 L11.000,11.000 L12.000,11.000 L12.000,3.000 L11.000,3.000 L11.000,2.000 L14.000,2.000 L14.000,3.000 L13.000,3.000 L13.000,11.000 L14.000,11.000 ZM5.152,5.944 C5.054,5.995 4.947,5.995 4.848,5.944 L0.303,3.577 C-0.102,3.365 -0.100,2.521 0.307,2.315 L4.852,0.005 C4.948,-0.044 5.053,-0.044 5.149,0.005 L9.694,2.315 C10.100,2.522 10.103,3.365 9.697,3.577 L5.152,5.944 ZM5.000,1.343 L1.831,2.954 L5.000,4.605 L8.169,2.954 L5.000,1.343 ZM0.554,4.996 L0.605,5.017 L5.000,7.278 L9.395,5.017 C9.509,4.959 9.634,4.969 9.742,5.046 C9.851,5.123 9.934,5.260 9.974,5.427 L9.974,5.427 C10.050,5.747 9.952,6.100 9.744,6.249 L9.696,6.279 L5.151,8.617 C5.073,8.657 4.990,8.665 4.910,8.641 L4.850,8.617 L0.305,6.279 C0.078,6.162 -0.048,5.805 0.018,5.464 C0.084,5.124 0.319,4.918 0.554,4.996 ZM0.554,7.668 L0.605,7.690 L5.000,9.951 L9.395,7.690 C9.509,7.631 9.634,7.642 9.742,7.719 C9.851,7.796 9.934,7.933 9.974,8.100 L9.974,8.100 C10.050,8.420 9.952,8.773 9.744,8.921 L9.696,8.951 L5.151,11.290 C5.073,11.330 4.990,11.338 4.910,11.314 L4.850,11.290 L0.305,8.951 C0.078,8.835 -0.048,8.478 0.018,8.137 C0.084,7.797 0.319,7.591 0.554,7.668 ZM0.554,10.341 L0.605,10.362 L5.000,12.624 L9.395,10.362 C9.509,10.304 9.634,10.314 9.742,10.391 C9.851,10.468 9.934,10.605 9.974,10.773 L9.974,10.773 C10.050,11.093 9.952,11.446 9.744,11.594 L9.696,11.624 L5.151,13.963 C5.073,14.002 4.990,14.011 4.910,13.987 L4.850,13.963 L0.305,11.624 C0.078,11.507 -0.048,11.150 0.018,10.810 C0.084,10.469 0.319,10.264 0.554,10.341 Z"/>
</svg>
