<svg 
 xmlns="http://www.w3.org/2000/svg"
 xmlns:xlink="http://www.w3.org/1999/xlink"
 width="14px" height="14px">
<path fill-rule="evenodd"  fill="rgb(23, 204, 95)"
 d="M4.666,8.167 L4.666,12.833 L9.333,12.833 L9.333,8.167 L4.666,8.167 ZM10.500,8.167 L10.500,10.500 L12.833,10.500 L12.833,4.667 L1.166,4.667 L1.166,10.500 L3.500,10.500 L3.500,8.167 L2.917,8.167 C2.594,8.166 2.333,7.905 2.333,7.583 C2.333,7.261 2.594,7.000 2.917,7.000 L11.083,7.000 C11.405,7.000 11.667,7.261 11.667,7.583 C11.667,7.905 11.405,8.166 11.083,8.167 L10.500,8.167 ZM3.500,11.667 L1.166,11.667 C0.857,11.667 0.560,11.543 0.341,11.325 C0.123,11.106 -0.000,10.809 -0.000,10.500 L-0.000,4.667 C-0.000,4.022 0.522,3.500 1.166,3.500 L3.500,3.500 L3.500,1.166 C3.500,0.522 4.022,-0.000 4.666,-0.000 L9.333,-0.000 C9.642,-0.000 9.939,0.123 10.158,0.341 C10.377,0.560 10.500,0.857 10.500,1.166 L10.500,3.500 L12.833,3.500 C13.143,3.500 13.439,3.623 13.658,3.842 C13.877,4.060 14.000,4.357 14.000,4.667 L14.000,10.500 C14.000,10.809 13.877,11.106 13.658,11.325 C13.439,11.543 13.143,11.667 12.833,11.667 L10.500,11.667 L10.500,12.833 C10.500,13.477 9.978,14.000 9.333,14.000 L4.666,14.000 C4.357,14.000 4.060,13.877 3.841,13.658 C3.622,13.439 3.500,13.143 3.500,12.833 L3.500,11.667 ZM9.333,3.500 L9.333,1.166 L4.666,1.166 L4.666,3.500 L9.333,3.500 Z"/>
</svg>
