<svg 
 xmlns="http://www.w3.org/2000/svg"
 xmlns:xlink="http://www.w3.org/1999/xlink"
 width="14px" height="14px">
<path fill-rule="evenodd"  fill="rgb(23, 204, 95)"
 d="M13.345,14.000 L0.652,14.000 C0.291,14.000 -0.002,13.706 -0.002,13.344 L-0.002,2.805 C-0.002,2.443 0.291,2.149 0.652,2.149 L5.746,2.149 C5.823,2.149 5.882,2.212 5.882,2.287 L5.882,3.325 C5.882,3.402 5.821,3.462 5.746,3.462 L1.304,3.462 L1.304,12.691 L12.690,12.691 L12.690,8.136 C12.690,8.059 12.751,7.998 12.827,7.998 L13.861,7.998 C13.937,7.998 13.998,8.059 13.998,8.136 L13.998,13.344 C13.998,13.706 13.707,14.000 13.345,14.000 ZM9.272,5.511 C8.458,6.865 7.853,8.273 7.494,9.388 L9.465,8.246 C9.530,8.208 9.614,8.231 9.651,8.296 L10.167,9.197 C10.205,9.262 10.182,9.346 10.117,9.384 L6.760,11.325 C6.661,11.384 6.547,11.414 6.433,11.414 C6.376,11.414 6.319,11.406 6.263,11.391 C6.095,11.347 5.953,11.237 5.866,11.086 L4.065,7.952 C4.027,7.887 4.050,7.803 4.115,7.765 L5.010,7.247 C5.076,7.209 5.159,7.232 5.197,7.298 L6.221,9.077 C6.590,7.903 7.224,6.378 8.152,4.837 C9.149,3.179 10.790,1.013 12.990,0.013 C13.059,-0.020 13.142,0.013 13.172,0.083 L13.580,1.034 C13.610,1.103 13.579,1.182 13.511,1.213 C11.626,2.079 10.169,4.018 9.272,5.511 Z"/>
</svg>
