<svg 
 xmlns="http://www.w3.org/2000/svg"
 xmlns:xlink="http://www.w3.org/1999/xlink"
 width="14px" height="14px">
<path fill-rule="evenodd"  fill="rgb(51, 51, 51)"
 d="M12.000,14.000 L2.000,14.000 C0.895,14.000 -0.000,13.105 -0.000,12.000 L-0.000,2.000 C-0.000,0.895 0.895,-0.000 2.000,-0.000 L12.000,-0.000 C13.105,-0.000 14.000,0.895 14.000,2.000 L14.000,12.000 C14.000,13.105 13.105,14.000 12.000,14.000 ZM13.000,3.000 C13.000,1.895 12.105,1.000 11.000,1.000 L3.000,1.000 C1.895,1.000 1.000,1.895 1.000,3.000 L1.000,11.000 C1.000,12.105 1.895,13.000 3.000,13.000 L11.000,13.000 C12.105,13.000 13.000,12.105 13.000,11.000 L13.000,3.000 ZM9.000,9.000 L11.000,9.000 L11.000,11.000 L9.000,11.000 L9.000,9.000 ZM3.000,11.000 L3.000,9.000 L5.000,9.000 L5.000,11.000 L3.000,11.000 ZM5.000,5.000 L9.000,5.000 L9.000,9.000 L5.000,9.000 L5.000,5.000 ZM6.000,8.000 L8.000,8.000 L8.000,6.000 L6.000,6.000 L6.000,8.000 ZM3.000,3.000 L5.000,3.000 L5.000,5.000 L3.000,5.000 L3.000,3.000 ZM11.000,3.000 L11.000,5.000 L9.000,5.000 L9.000,3.000 L11.000,3.000 Z"/>
</svg>
