<svg 
 xmlns="http://www.w3.org/2000/svg"
 xmlns:xlink="http://www.w3.org/1999/xlink"
 width="22px" height="23px">
<path fill-rule="evenodd"  fill="rgb(30, 155, 226)"
 d="M21.840,9.539 C21.695,9.717 21.478,9.809 21.262,9.809 C21.102,9.809 20.937,9.759 20.801,9.656 L20.382,9.385 L20.382,20.998 C20.382,22.271 19.780,23.000 18.627,23.000 L3.960,23.000 C2.792,23.000 1.638,22.217 1.638,20.998 L1.638,9.385 L1.176,9.656 C0.858,9.899 0.408,9.846 0.157,9.539 C-0.094,9.232 -0.040,8.785 0.278,8.542 L9.573,1.431 C10.372,0.818 11.628,0.817 12.428,1.431 L21.722,8.542 C22.040,8.785 22.091,9.232 21.840,9.539 ZM10.999,21.426 L13.142,19.302 C11.964,18.127 10.042,18.127 8.856,19.302 L10.999,21.426 ZM6.000,16.470 L7.429,17.886 C9.400,15.931 12.600,15.931 14.571,17.886 L15.999,16.470 C13.243,13.736 8.764,13.736 5.999,16.470 L6.000,16.470 ZM3.142,13.636 L4.571,15.052 C8.120,11.533 13.878,11.533 17.427,15.052 L18.856,13.636 C14.520,9.337 7.485,9.337 3.142,13.636 Z"/>
</svg>
