<svg xmlns="http://www.w3.org/2000/svg" width="35" height="20" viewBox="0 0 35 20" fill="none"><path d="M31.9673 9.99946C33.2282 9.05645 34.0424 7.55279 34.0424 5.85795C34.0424 3.00314 31.7289 0.6875 28.8719 0.6875C26.4274 0.6875 24.3781 2.38664 23.8411 4.66791H11.1588C10.6218 2.38664 8.57464 0.6875 6.12797 0.6875C3.27316 0.6875 0.95752 3.00099 0.95752 5.85795C0.95752 7.55279 1.77379 9.05645 3.03472 9.99946C1.77379 10.9425 0.95752 12.4461 0.95752 14.141C0.95752 16.9958 3.27101 19.3114 6.12797 19.3114C8.57249 19.3114 10.6218 17.6123 11.1588 15.331H23.8411C24.3781 17.6123 26.4252 19.3114 28.8719 19.3114C31.7267 19.3114 34.0424 16.9979 34.0424 14.141C34.0424 12.4461 33.2282 10.9425 31.9673 9.99946Z" fill="currentColor"></path></svg>