<svg xmlns="http://www.w3.org/2000/svg" width="37" height="36" viewBox="0 0 37 36" fill="none"><path d="M18.5017 31.4606C14.9304 31.4851 11.4989 30.8701 8.38543 29.032C4.78619 26.9039 2.88873 23.738 2.89921 19.5342C2.9062 15.1138 3.68545 10.8262 5.40819 6.73423C5.63184 6.20658 5.92187 5.70339 6.23637 5.22116C6.69763 4.51529 7.11346 4.34756 7.8368 4.7634C8.94802 5.39938 9.99635 6.14019 11.0552 6.86004C11.6247 7.24792 12.1489 7.70569 12.7185 8.09706C12.8757 8.20539 13.1483 8.2543 13.33 8.19839C16.772 7.12211 20.2105 7.15008 23.6525 8.1949C23.8482 8.25431 24.1452 8.19839 24.3129 8.07958C25.4975 7.22695 26.6507 6.32889 27.8318 5.47276C28.2162 5.19321 28.653 4.97306 29.0863 4.77388C29.9144 4.39648 30.3408 4.48035 30.7776 5.26659C31.3087 6.21707 31.8189 7.19899 32.1753 8.22285C33.4438 11.878 34.1182 15.645 34.1007 19.5238C34.0798 23.8324 32.1264 27.0227 28.4188 29.1438C25.5849 30.7652 22.4853 31.4012 19.2495 31.4606C19.0014 31.4641 18.7533 31.4606 18.5017 31.4606Z" fill="currentColor"></path></svg>