<svg xmlns="http://www.w3.org/2000/svg" width="37" height="36" viewBox="0 0 37 36" fill="none"><path d="M22.2839 7.11154C22.2839 5.0215 20.5901 3.32767 18.5 3.32767C16.41 3.32767 14.8693 5.0053 14.7162 7.11154L14.6307 7.72132C14.5689 8.19707 14.2448 8.58002 13.772 8.58002C13.2992 8.58002 12.9133 8.19412 12.9133 7.72132V7.12185C12.9133 4.03613 15.4143 1.53516 18.5 1.53516C21.5857 1.53516 24.0867 4.03613 24.0867 7.12185V28.8795C24.0867 31.9652 21.5857 34.4662 18.5 34.4662C15.4143 34.4662 12.9133 31.9652 12.9133 28.8795V13.9694V13.7823C12.9133 12.4832 13.9753 11.6274 15.2744 11.6274H18.2629H18.5015C20.6387 11.6274 22.1911 10.3549 22.2736 8.06009L22.2839 7.11154Z" fill="currentColor"></path></svg>