<svg xmlns="http://www.w3.org/2000/svg" width="37" height="36" viewBox="0 0 37 36" fill="none"><path d="M34.2379 12.9702V14.0759C34.1841 14.4062 34.1482 14.74 34.08 15.0703C33.6528 17.138 32.8307 19.0335 31.646 20.7782C29.729 23.5998 27.3741 26.0014 24.6709 28.0692C23.2888 29.1282 21.8313 30.0687 20.1908 30.7005C19.1282 31.1098 18.0548 31.1995 16.9958 30.758C16.1234 30.3918 15.2439 30.0149 14.4362 29.5267C11.2197 27.5666 8.5237 25.0142 6.23336 22.0346C4.6969 20.0351 3.5266 17.856 2.98453 15.3682C2.8912 14.941 2.83376 14.5067 2.76196 14.0759V12.9702C2.77991 12.8805 2.80863 12.7943 2.81581 12.7046C2.93427 11.2076 3.45839 9.85779 4.3415 8.65519C7.08057 4.91814 12.2284 3.85913 16.2383 6.18895C17.0927 6.68435 17.843 7.30899 18.5035 8.0485C18.6363 7.90491 18.7476 7.77209 18.8733 7.65003C21.3575 5.26995 24.3012 4.42274 27.6254 5.27354C30.8598 6.1028 33.0102 8.16697 33.9543 11.4086C34.1015 11.9148 34.1446 12.4497 34.2379 12.9702Z" fill="currentColor"></path></svg>