<svg 
 xmlns="http://www.w3.org/2000/svg"
 xmlns:xlink="http://www.w3.org/1999/xlink"
 width="17px" height="17px">
<path fill-rule="evenodd"  fill="rgb(255, 255, 255)"
 d="M8.497,16.999 C3.810,16.999 -0.003,13.186 -0.003,8.499 C-0.003,3.812 3.810,-0.001 8.497,-0.001 C13.184,-0.001 16.998,3.812 16.998,8.499 C16.998,13.186 13.184,16.999 8.497,16.999 ZM8.497,1.698 C4.748,1.698 1.697,4.748 1.697,8.499 C1.697,12.250 4.748,15.300 8.497,15.300 C12.246,15.300 15.298,12.248 15.298,8.499 C15.298,4.750 12.246,1.698 8.497,1.698 ZM4.335,12.662 L6.826,6.828 L12.661,4.336 L10.168,10.170 L4.335,12.662 ZM8.121,8.122 L7.561,9.435 L8.874,8.875 L9.433,7.563 L8.121,8.122 Z"/>
</svg>
