<svg 
 xmlns="http://www.w3.org/2000/svg"
 xmlns:xlink="http://www.w3.org/1999/xlink"
 width="19px" height="16px">
<path fill-rule="evenodd"  fill="rgb(255, 255, 255)"
 d="M18.938,7.946 C18.804,8.289 18.447,8.511 18.084,8.509 L16.790,8.489 L16.790,13.557 C16.788,14.904 15.657,15.999 14.271,15.999 L5.669,15.999 C4.281,15.999 3.151,14.903 3.151,13.557 L3.151,8.489 L1.910,8.509 C1.519,8.526 1.189,8.291 1.053,7.946 C0.921,7.603 1.022,7.214 1.310,6.974 L9.410,0.210 C9.745,-0.072 10.247,-0.072 10.584,0.210 L18.683,6.974 C18.971,7.214 19.073,7.603 18.938,7.946 ZM9.995,2.024 L4.315,6.768 C4.454,6.808 4.579,6.881 4.684,6.980 C4.856,7.143 4.953,7.368 4.953,7.603 L4.953,13.557 C4.953,13.940 5.274,14.252 5.669,14.252 L14.271,14.252 C14.666,14.252 14.988,13.940 14.988,13.557 L14.988,7.603 C14.988,7.370 15.084,7.145 15.256,6.982 C15.371,6.873 15.511,6.797 15.664,6.758 L9.995,2.024 ZM13.267,10.318 C12.769,10.318 12.367,9.927 12.367,9.446 L12.367,6.554 C12.367,6.071 12.772,5.681 13.267,5.681 C13.763,5.681 14.166,6.073 14.166,6.554 L14.166,9.446 C14.166,9.927 13.763,10.318 13.267,10.318 Z"/>
</svg>
