<svg 
 xmlns="http://www.w3.org/2000/svg"
 xmlns:xlink="http://www.w3.org/1999/xlink"
 width="16px" height="18px">
<path fill-rule="evenodd"  fill="rgb(255, 255, 255)"
 d="M14.459,10.746 L14.459,5.252 L7.998,1.544 L1.536,5.329 L1.536,12.823 L7.998,16.531 L8.766,17.767 C8.305,18.076 7.690,18.076 7.228,17.767 L0.766,14.059 C0.305,13.827 -0.003,13.287 -0.003,12.746 L-0.003,5.252 C-0.003,4.711 0.305,4.247 0.766,3.938 L7.228,0.230 C7.690,-0.079 8.305,-0.079 8.766,0.230 L15.229,3.938 C15.689,4.247 15.997,4.711 15.997,5.329 L15.997,10.746 C15.997,11.286 14.459,10.746 14.459,10.746 ZM7.921,15.063 C7.459,15.063 7.151,14.754 7.151,14.291 L7.151,9.732 L2.920,7.183 C2.536,6.952 2.459,6.488 2.690,6.102 C2.920,5.715 3.382,5.638 3.766,5.793 L7.998,8.265 L11.997,5.715 C12.305,5.561 12.767,5.715 12.998,6.024 C13.227,6.411 13.074,6.874 12.767,7.106 L8.689,9.655 L8.689,14.291 C8.689,14.754 8.382,15.063 7.921,15.063 ZM10.298,13.263 L11.251,13.510 C11.569,13.200 11.986,12.976 12.456,12.877 L12.697,11.999 L13.297,11.999 L13.538,12.877 C14.008,12.976 14.426,13.201 14.744,13.510 L15.697,13.263 L15.997,13.736 L15.287,14.361 C15.357,14.565 15.396,14.782 15.396,15.007 C15.396,15.228 15.359,15.440 15.292,15.641 L15.997,16.262 L15.697,16.736 L14.755,16.490 C14.435,16.808 14.011,17.038 13.533,17.138 L13.297,17.999 L12.697,17.999 L12.461,17.138 C11.983,17.038 11.560,16.807 11.238,16.491 L10.298,16.736 L9.997,16.262 L10.702,15.640 C10.636,15.440 10.599,15.228 10.599,15.007 C10.599,14.782 10.638,14.565 10.706,14.361 L9.997,13.736 L10.298,13.263 ZM12.998,15.994 C13.545,15.994 13.989,15.546 13.989,14.994 C13.989,14.442 13.545,13.994 12.998,13.994 C12.450,13.994 12.006,14.442 12.006,14.994 C12.006,15.546 12.450,15.994 12.998,15.994 Z"/>
</svg>
