<svg 
 xmlns="http://www.w3.org/2000/svg"
 xmlns:xlink="http://www.w3.org/1999/xlink"
 width="16px" height="16px">
<path fill-rule="evenodd"  fill="rgb(255, 255, 255)"
 d="M12.959,-0.000 C13.255,-0.000 13.545,0.109 13.778,0.308 C14.013,0.508 14.179,0.788 14.252,1.102 L16.000,8.728 L16.000,14.546 C16.000,14.931 15.859,15.301 15.610,15.574 C15.359,15.847 15.020,16.000 14.666,16.000 L1.332,16.000 C0.980,16.000 0.641,15.847 0.390,15.574 C0.139,15.298 -0.001,14.929 -0.001,14.546 L-0.001,8.728 L1.746,1.102 C1.818,0.788 1.985,0.508 2.220,0.308 C2.455,0.109 2.742,0.001 3.039,0.001 L12.959,0.001 L12.959,-0.000 ZM14.666,14.546 L14.666,10.181 L11.718,10.181 C11.316,10.181 10.964,10.445 10.740,10.798 C10.498,11.181 10.187,11.512 9.826,11.771 C9.287,12.157 8.651,12.363 8.000,12.363 C7.349,12.362 6.712,12.156 6.172,11.770 C5.811,11.511 5.501,11.181 5.258,10.798 C5.033,10.444 4.683,10.181 4.281,10.181 L1.332,10.181 L1.332,14.544 L14.666,14.544 L14.666,14.546 ZM12.959,1.455 L3.039,1.455 L1.372,8.728 L4.999,8.728 C5.552,8.728 5.980,9.227 6.231,9.747 C6.323,9.938 6.442,10.115 6.586,10.270 C6.956,10.677 7.466,10.908 8.000,10.909 C8.740,10.909 9.417,10.438 9.762,9.745 C10.018,9.227 10.448,8.728 10.999,8.728 L14.625,8.728 L12.959,1.455 L12.959,1.455 ZM11.978,5.818 C12.358,5.818 12.665,6.144 12.665,6.545 C12.665,6.947 12.358,7.273 11.978,7.273 L4.020,7.273 C3.640,7.273 3.332,6.947 3.332,6.545 C3.332,6.144 3.640,5.818 4.020,5.818 L11.980,5.818 L11.978,5.818 ZM11.312,2.910 C11.692,2.910 11.999,3.235 11.999,3.637 C11.999,4.038 11.692,4.364 11.312,4.364 L4.686,4.364 C4.307,4.364 3.999,4.038 3.999,3.637 C3.999,3.235 4.307,2.910 4.686,2.910 L11.312,2.910 Z"/>
</svg>
