<svg 
 xmlns="http://www.w3.org/2000/svg"
 xmlns:xlink="http://www.w3.org/1999/xlink"
 width="14px" height="14px">
<path fill-rule="evenodd"  fill="rgb(172, 255, 205)"
 d="M7.007,7.766 L7.007,9.053 L3.515,11.509 L3.502,11.524 L3.502,11.519 L-0.002,9.099 L-0.002,2.650 L0.008,2.657 L3.506,0.065 L7.007,2.592 L5.883,3.440 L5.883,3.440 L7.007,2.592 L7.008,7.765 L7.007,7.766 Z"/>
<path fill-rule="evenodd"  fill="rgb(140, 240, 180)"
 d="M10.493,11.546 L10.493,11.467 L7.007,2.644 L8.206,3.477 L7.007,2.592 L10.496,-0.001 L13.998,2.656 L13.998,9.088 L10.493,11.546 Z"/>
<path fill-rule="evenodd"  fill="rgb(137, 236, 176)"
 d="M10.493,11.500 L10.493,11.546 L7.007,13.999 L3.502,11.524 L3.502,11.519 L3.502,5.238 L3.502,5.116 L5.883,3.440 L7.007,2.592 L8.202,3.474 L10.511,5.079 L10.511,11.512 L10.493,11.500 Z"/>
<path fill-rule="evenodd"  fill="rgb(66, 235, 134)"
 d="M10.511,11.512 L10.493,11.500 L10.493,11.546 L7.007,13.999 L7.008,9.112 L7.007,9.111 L7.007,9.053 L7.007,2.650 L7.007,2.644 L7.007,2.644 L7.007,2.592 L8.202,3.474 L10.511,5.079 L10.511,11.512 Z"/>
<path fill-rule="evenodd"  fill="rgb(193, 255, 218)"
 d="M7.008,7.765 L3.502,5.238 L7.007,2.592 L10.502,5.172 L7.008,7.765 Z"/>
<path fill-rule="evenodd"  fill="rgb(255, 255, 255)"
 d="M3.502,5.238 L-0.002,2.665 L3.506,0.065 L7.007,2.592 L3.502,5.238 Z"/>
<path fill-rule="evenodd"  fill="rgb(225, 255, 237)"
 d="M10.502,5.172 L7.007,2.592 L10.496,-0.001 L13.998,2.656 L10.502,5.172 Z"/>
</svg>
