<?xml version="1.0" standalone="no"?><!DOCTYPE svg PUBLIC "-//W3C//DTD SVG 1.1//EN" "http://www.w3.org/Graphics/SVG/1.1/DTD/svg11.dtd"><svg t="1731487879159" class="icon" viewBox="0 0 1024 1024" version="1.1" xmlns="http://www.w3.org/2000/svg" p-id="4296" xmlns:xlink="http://www.w3.org/1999/xlink" width="200" height="200"><path d="M415.872 55.168a192 192 0 0 1 192 0l251.392 145.152a192 192 0 0 1 96 166.272v290.304a192 192 0 0 1-96 166.272L607.872 968.32a192 192 0 0 1-192 0L164.48 823.168a192 192 0 0 1-96-166.272V366.592a192 192 0 0 1 96-166.272zM170.88 373.952v282.88c0 34.56 14.912 60.416 44.8 77.632l244.992 141.44V541.376l-196.096-113.28-93.696-54.08z m681.984 3.712l-89.472 50.624-200.32 113.28v334.4l244.992-141.44c29.888-17.28 44.8-43.136 44.8-77.632V377.6zM467.072 143.872L222.08 285.312l93.696 54.08 196.352 113.344L712.96 339.2l91.968-52.032-248.256-143.36c-29.824-17.216-59.712-17.216-89.6 0z" fill="rgb(255, 255, 255)" p-id="4297"></path></svg>