<svg 
 xmlns="http://www.w3.org/2000/svg"
 xmlns:xlink="http://www.w3.org/1999/xlink"
 width="31px" height="31px">
<path fill-rule="evenodd"  fill="rgb(255, 255, 255)"
 d="M29.000,21.000 L12.000,21.000 C10.895,21.000 10.000,20.105 10.000,19.000 L10.000,2.000 C10.000,0.895 10.895,0.000 12.000,0.000 L29.000,0.000 C30.105,0.000 31.000,0.895 31.000,2.000 L31.000,19.000 C31.000,20.105 30.105,21.000 29.000,21.000 ZM30.000,3.000 C30.000,1.895 29.105,1.000 28.000,1.000 L13.000,1.000 C11.895,1.000 11.000,1.895 11.000,3.000 L11.000,18.000 C11.000,19.105 11.895,20.000 13.000,20.000 L28.000,20.000 C29.105,20.000 30.000,19.105 30.000,18.000 L30.000,3.000 Z"/>
<path fill-rule="evenodd"  fill="rgb(255, 255, 255)"
 d="M-0.000,11.000 L11.000,-0.000 L11.000,1.000 L1.000,11.000 L-0.000,11.000 Z"/>
<path fill-rule="evenodd"  fill="rgb(255, 255, 255)"
 d="M-0.000,31.000 L11.000,20.000 L11.000,21.000 L1.000,31.000 L-0.000,31.000 Z"/>
<path fill-rule="evenodd"  fill="rgb(255, 255, 255)"
 d="M20.000,31.000 L31.000,20.000 L31.000,21.000 L21.000,31.000 L20.000,31.000 Z"/>
<path fill-rule="evenodd"  opacity="0.502" fill="rgb(255, 240, 0)"
 d="M7.000,6.000 L24.000,6.000 C25.105,6.000 26.000,6.895 26.000,8.000 L26.000,25.000 C26.000,26.105 25.105,27.000 24.000,27.000 L7.000,27.000 C5.895,27.000 5.000,26.105 5.000,25.000 L5.000,8.000 C5.000,6.895 5.895,6.000 7.000,6.000 Z"/>
<path fill-rule="evenodd"  fill="rgb(255, 255, 255)"
 d="M19.000,31.000 L2.000,31.000 C0.895,31.000 0.000,30.105 0.000,29.000 L0.000,12.000 C0.000,10.895 0.895,10.000 2.000,10.000 L19.000,10.000 C20.105,10.000 21.000,10.895 21.000,12.000 L21.000,29.000 C21.000,30.105 20.105,31.000 19.000,31.000 ZM20.000,13.000 C20.000,11.895 19.105,11.000 18.000,11.000 L3.000,11.000 C1.895,11.000 1.000,11.895 1.000,13.000 L1.000,28.000 C1.000,29.105 1.895,30.000 3.000,30.000 L18.000,30.000 C19.105,30.000 20.000,29.105 20.000,28.000 L20.000,13.000 Z"/>
<path fill-rule="evenodd"  fill="rgb(255, 255, 255)"
 d="M20.000,11.000 L31.000,-0.000 L31.000,1.000 L21.000,11.000 L20.000,11.000 Z"/>
</svg>
