<svg 
 xmlns="http://www.w3.org/2000/svg"
 xmlns:xlink="http://www.w3.org/1999/xlink"
 width="14px" height="14px">
<path fill-rule="evenodd"  fill="rgb(166, 166, 166)"
 d="M5.089,5.542 L5.089,10.792 C5.092,10.871 5.059,10.947 4.999,11.002 C4.939,11.057 4.857,11.087 4.772,11.083 L4.134,11.083 C4.050,11.087 3.968,11.057 3.907,11.002 C3.846,10.946 3.813,10.870 3.817,10.791 L3.817,5.541 C3.814,5.462 3.846,5.386 3.907,5.331 C3.968,5.276 4.050,5.246 4.134,5.250 L4.770,5.250 C4.855,5.246 4.937,5.276 4.998,5.331 C5.058,5.387 5.090,5.463 5.087,5.542 L5.089,5.542 ZM7.636,5.542 L7.636,10.792 C7.638,10.871 7.605,10.947 7.545,11.002 C7.484,11.058 7.401,11.087 7.316,11.083 L6.680,11.083 C6.596,11.087 6.514,11.057 6.453,11.002 C6.393,10.946 6.360,10.870 6.364,10.791 L6.364,5.541 C6.360,5.462 6.393,5.386 6.454,5.331 C6.514,5.276 6.596,5.246 6.680,5.250 L7.316,5.250 C7.401,5.246 7.484,5.276 7.544,5.331 C7.605,5.387 7.638,5.463 7.634,5.542 L7.636,5.542 ZM10.181,5.542 L10.181,10.792 C10.183,10.871 10.151,10.947 10.091,11.002 C10.030,11.058 9.948,11.087 9.863,11.083 L9.227,11.083 C9.142,11.087 9.060,11.057 8.999,11.002 C8.938,10.946 8.906,10.870 8.909,10.791 L8.908,5.541 C8.905,5.462 8.938,5.386 8.998,5.331 C9.059,5.276 9.141,5.246 9.226,5.250 L9.863,5.250 C9.948,5.246 10.029,5.276 10.090,5.331 C10.151,5.387 10.183,5.463 10.180,5.542 L10.181,5.542 ZM11.453,12.141 L11.453,3.500 L2.545,3.500 L2.545,12.140 C2.543,12.361 2.617,12.577 2.758,12.756 C2.807,12.808 2.843,12.833 2.862,12.833 L11.136,12.833 C11.155,12.833 11.189,12.808 11.240,12.756 C11.381,12.578 11.456,12.362 11.454,12.141 L11.453,12.141 ZM4.772,2.333 L9.226,2.333 L8.750,1.267 C8.707,1.215 8.647,1.180 8.580,1.167 L5.428,1.167 C5.360,1.180 5.300,1.215 5.259,1.267 L4.772,2.333 ZM13.999,2.625 L13.999,3.208 C14.002,3.287 13.969,3.363 13.909,3.419 C13.848,3.474 13.766,3.504 13.681,3.500 L12.725,3.500 L12.725,12.140 C12.725,12.645 12.571,13.080 12.259,13.449 C11.946,13.816 11.573,14.000 11.136,14.000 L2.862,14.000 C2.425,14.000 2.051,13.822 1.739,13.467 C1.427,13.111 1.272,12.681 1.272,12.177 L1.272,3.500 L0.316,3.500 C0.232,3.504 0.149,3.474 0.089,3.419 C0.029,3.363 -0.004,3.287 -0.001,3.208 L-0.001,2.625 C-0.004,2.546 0.029,2.470 0.089,2.414 C0.149,2.359 0.232,2.329 0.316,2.333 L3.390,2.333 L4.086,0.811 C4.185,0.586 4.364,0.395 4.622,0.237 C4.880,0.079 5.143,-0.000 5.409,-0.000 L8.589,-0.000 C8.854,-0.000 9.117,0.079 9.376,0.237 C9.634,0.395 9.813,0.587 9.912,0.811 L10.609,2.333 L13.681,2.333 C13.766,2.329 13.848,2.359 13.909,2.414 C13.969,2.470 14.002,2.546 13.999,2.625 L13.999,2.625 Z"/>
</svg>
