<svg 
 xmlns="http://www.w3.org/2000/svg"
 xmlns:xlink="http://www.w3.org/1999/xlink"
 width="14px" height="14px">
<path fill-rule="evenodd"  fill="rgb(102, 102, 102)"
 d="M12.598,6.899 L12.598,2.099 C12.598,1.913 12.523,1.735 12.393,1.603 C12.261,1.473 12.083,1.399 11.898,1.399 L2.098,1.399 C1.911,1.399 1.734,1.473 1.603,1.603 C1.471,1.735 1.397,1.913 1.397,2.099 L1.397,11.899 C1.397,12.085 1.471,12.263 1.603,12.394 C1.734,12.525 1.911,12.599 2.098,12.599 L4.898,12.599 L4.898,13.999 L2.098,13.999 C1.540,13.999 1.007,13.778 0.612,13.384 C0.219,12.990 -0.002,12.456 -0.002,11.899 L-0.002,2.099 C-0.002,0.939 0.938,-0.001 2.098,-0.001 L11.898,-0.001 C13.057,-0.001 13.997,0.939 13.997,2.099 L13.997,6.899 L12.598,6.899 ZM3.965,2.799 C3.965,2.412 4.277,2.099 4.664,2.099 C5.051,2.099 5.364,2.412 5.364,2.799 C5.364,3.701 6.095,4.432 6.998,4.432 C7.899,4.432 8.630,3.701 8.630,2.799 C8.630,2.412 8.945,2.099 9.331,2.099 C9.718,2.099 10.030,2.412 10.030,2.799 C10.030,4.474 8.673,5.832 6.998,5.832 C5.323,5.832 3.965,4.474 3.965,2.799 ZM6.657,10.185 C6.849,10.185 7.033,10.267 7.157,10.412 L8.954,12.475 L12.944,9.126 C13.059,9.042 13.194,8.999 13.336,8.999 C13.546,8.999 13.743,9.098 13.870,9.262 C14.085,9.549 14.021,9.953 13.731,10.164 L9.246,13.872 C9.134,13.954 8.996,13.999 8.854,13.999 C8.662,13.999 8.478,13.917 8.354,13.772 L6.156,11.251 C5.920,10.981 5.952,10.574 6.227,10.343 C6.346,10.241 6.499,10.185 6.657,10.185 Z"/>
</svg>
