<svg 
 xmlns="http://www.w3.org/2000/svg"
 xmlns:xlink="http://www.w3.org/1999/xlink"
 width="16px" height="16px">
<path fill-rule="evenodd"  fill="none"
 d="M-0.000,-0.000 L16.000,-0.000 L16.000,16.000 L-0.000,16.000 L-0.000,-0.000 Z"/>
<path fill-rule="evenodd"  fill="rgb(23, 204, 95)"
 d="M8.000,1.000 C11.866,1.000 15.000,4.134 15.000,8.000 C15.000,11.866 11.866,15.000 8.000,15.000 C4.134,15.000 1.000,11.866 1.000,8.000 C1.000,4.134 4.134,1.000 8.000,1.000 Z"/>
<path fill-rule="evenodd"  fill="rgb(19, 177, 82)"
 d="M8.014,2.148 C11.253,2.148 13.879,4.774 13.879,8.014 C13.879,11.253 11.253,13.879 8.014,13.879 C4.774,13.879 2.148,11.253 2.148,8.014 C2.148,4.774 4.774,2.148 8.014,2.148 Z"/>
<path fill-rule="evenodd"  fill="rgb(255, 255, 255)"
 d="M12.119,5.990 L11.983,5.867 L12.503,5.526 L12.595,5.678 L12.119,5.990 ZM12.003,5.135 C11.983,5.156 11.961,5.177 11.938,5.199 C11.904,5.230 11.875,5.251 11.852,5.261 C11.829,5.272 11.809,5.276 11.790,5.273 C11.771,5.271 11.755,5.265 11.740,5.255 C11.725,5.245 11.708,5.229 11.689,5.207 L11.503,5.002 L11.416,5.086 L11.269,4.989 L11.722,4.550 L12.023,4.882 C12.050,4.912 12.067,4.940 12.072,4.965 C12.078,4.990 12.078,5.011 12.073,5.029 C12.069,5.047 12.061,5.064 12.050,5.080 C12.040,5.096 12.024,5.114 12.003,5.135 ZM11.872,4.933 L11.733,4.779 L11.608,4.901 L11.747,5.054 C11.764,5.073 11.781,5.082 11.797,5.080 C11.813,5.078 11.833,5.065 11.857,5.041 C11.877,5.020 11.888,5.001 11.891,4.984 C11.895,4.968 11.888,4.950 11.872,4.933 ZM10.693,4.469 L10.528,4.415 L10.644,4.230 L10.623,3.706 L10.794,3.823 L10.811,4.125 L11.077,4.015 L11.249,4.131 L10.784,4.323 L10.693,4.469 ZM10.156,12.168 L10.101,12.195 L10.049,12.091 L10.219,12.005 L10.459,12.482 L10.363,12.581 L10.156,12.168 ZM9.810,3.495 L9.669,3.921 L9.496,3.909 L9.653,3.437 L9.448,3.362 L9.495,3.222 L10.068,3.433 L9.973,3.555 L9.810,3.495 ZM9.499,12.768 C9.501,12.778 9.501,12.791 9.501,12.808 C9.500,12.825 9.498,12.839 9.494,12.849 C9.490,12.860 9.486,12.868 9.481,12.874 C9.477,12.880 9.471,12.887 9.464,12.894 C9.456,12.900 9.448,12.907 9.440,12.913 C9.431,12.918 9.423,12.923 9.414,12.927 C9.406,12.931 9.393,12.935 9.377,12.940 C9.361,12.946 9.351,12.949 9.347,12.950 C9.337,12.952 9.322,12.955 9.304,12.957 C9.286,12.960 9.272,12.961 9.264,12.961 C9.255,12.960 9.245,12.959 9.234,12.957 C9.222,12.954 9.212,12.951 9.202,12.946 C9.193,12.942 9.182,12.935 9.171,12.927 C9.160,12.918 9.151,12.907 9.143,12.892 C9.135,12.878 9.128,12.865 9.124,12.853 C9.120,12.842 9.116,12.830 9.112,12.816 L9.058,12.596 C9.054,12.576 9.053,12.560 9.053,12.549 C9.053,12.537 9.054,12.526 9.057,12.517 C9.060,12.507 9.063,12.498 9.066,12.489 C9.069,12.480 9.075,12.471 9.082,12.460 C9.089,12.450 9.098,12.440 9.109,12.432 C9.120,12.423 9.131,12.416 9.142,12.412 C9.153,12.407 9.170,12.402 9.193,12.395 L9.225,12.386 C9.243,12.382 9.259,12.379 9.272,12.377 C9.285,12.376 9.297,12.376 9.308,12.378 C9.319,12.380 9.330,12.383 9.340,12.387 C9.350,12.391 9.361,12.397 9.372,12.404 C9.384,12.412 9.393,12.420 9.399,12.428 C9.406,12.436 9.411,12.443 9.415,12.451 C9.419,12.458 9.423,12.466 9.427,12.476 C9.430,12.486 9.433,12.496 9.436,12.505 L9.490,12.721 C9.495,12.742 9.498,12.757 9.499,12.768 ZM9.368,12.745 C9.365,12.727 9.363,12.716 9.362,12.712 L9.328,12.575 C9.325,12.562 9.320,12.548 9.313,12.534 C9.306,12.521 9.300,12.512 9.295,12.509 C9.290,12.505 9.282,12.503 9.272,12.501 C9.262,12.500 9.250,12.500 9.238,12.503 L9.220,12.507 C9.214,12.508 9.208,12.512 9.201,12.518 C9.193,12.523 9.188,12.529 9.186,12.533 C9.183,12.538 9.181,12.545 9.179,12.554 C9.177,12.563 9.179,12.579 9.185,12.602 L9.221,12.745 C9.225,12.760 9.229,12.774 9.234,12.786 C9.238,12.798 9.245,12.808 9.254,12.815 C9.263,12.822 9.273,12.827 9.283,12.829 C9.293,12.832 9.306,12.830 9.323,12.826 L9.328,12.825 C9.339,12.822 9.349,12.817 9.357,12.808 C9.364,12.800 9.369,12.792 9.370,12.784 C9.372,12.776 9.371,12.763 9.368,12.745 ZM8.678,12.931 C8.678,12.937 8.680,12.941 8.682,12.943 C8.684,12.944 8.685,12.946 8.688,12.946 C8.690,12.947 8.692,12.948 8.694,12.948 C8.696,12.947 8.702,12.947 8.712,12.946 L8.935,12.918 L8.901,13.039 L8.568,13.080 L8.551,12.943 C8.547,12.916 8.546,12.898 8.547,12.888 C8.547,12.879 8.548,12.868 8.550,12.855 C8.552,12.842 8.555,12.830 8.560,12.819 C8.565,12.808 8.571,12.799 8.578,12.792 C8.584,12.785 8.592,12.779 8.600,12.774 C8.608,12.768 8.618,12.764 8.630,12.759 C8.642,12.754 8.658,12.750 8.676,12.745 C8.694,12.741 8.705,12.738 8.710,12.736 L8.722,12.732 C8.740,12.727 8.751,12.724 8.756,12.722 C8.760,12.719 8.764,12.715 8.767,12.709 C8.770,12.704 8.772,12.695 8.771,12.683 L8.768,12.652 C8.767,12.625 8.762,12.608 8.755,12.602 C8.749,12.597 8.743,12.595 8.739,12.594 C8.734,12.594 8.725,12.595 8.712,12.597 L8.677,12.601 C8.668,12.602 8.660,12.605 8.654,12.609 C8.648,12.613 8.643,12.617 8.640,12.621 C8.637,12.625 8.637,12.638 8.638,12.658 C8.639,12.679 8.640,12.691 8.641,12.695 L8.642,12.708 L8.523,12.722 L8.521,12.706 L8.519,12.691 C8.515,12.657 8.513,12.632 8.512,12.614 C8.511,12.595 8.514,12.578 8.520,12.563 C8.526,12.547 8.533,12.536 8.541,12.528 C8.549,12.521 8.557,12.515 8.565,12.511 C8.574,12.507 8.584,12.503 8.595,12.499 C8.606,12.496 8.617,12.493 8.627,12.492 L8.745,12.478 C8.753,12.477 8.763,12.477 8.777,12.478 C8.790,12.480 8.801,12.482 8.810,12.484 C8.819,12.486 8.826,12.490 8.833,12.495 C8.840,12.499 8.847,12.505 8.852,12.510 C8.858,12.516 8.863,12.523 8.869,12.532 C8.875,12.541 8.878,12.547 8.881,12.552 C8.883,12.557 8.886,12.566 8.888,12.579 C8.891,12.591 8.893,12.600 8.894,12.606 C8.895,12.611 8.897,12.623 8.899,12.642 C8.903,12.672 8.904,12.693 8.904,12.706 C8.904,12.719 8.903,12.730 8.901,12.738 C8.899,12.747 8.897,12.756 8.893,12.764 C8.890,12.773 8.886,12.782 8.881,12.789 C8.876,12.797 8.869,12.804 8.859,12.810 C8.849,12.816 8.842,12.820 8.837,12.821 C8.832,12.823 8.811,12.828 8.774,12.838 L8.717,12.853 C8.704,12.857 8.695,12.860 8.690,12.863 C8.685,12.867 8.682,12.871 8.679,12.877 C8.676,12.883 8.675,12.889 8.675,12.896 L8.677,12.923 L8.678,12.931 ZM8.641,3.691 L8.729,3.059 L8.900,3.087 L8.819,3.667 L8.641,3.691 ZM7.639,3.651 L7.619,3.016 L7.787,3.012 L7.802,3.498 L8.144,3.490 L8.098,3.641 L7.639,3.651 ZM7.649,13.001 C7.655,13.016 7.657,13.030 7.655,13.046 C7.653,13.061 7.648,13.075 7.639,13.087 C7.630,13.100 7.619,13.109 7.605,13.115 C7.591,13.121 7.576,13.123 7.561,13.121 C7.545,13.119 7.531,13.114 7.519,13.105 C7.506,13.096 7.497,13.085 7.491,13.071 C7.485,13.057 7.483,13.042 7.485,13.027 C7.487,13.012 7.492,12.998 7.501,12.985 C7.510,12.972 7.522,12.963 7.537,12.958 C7.551,12.952 7.566,12.950 7.579,12.951 C7.593,12.953 7.607,12.958 7.620,12.967 C7.633,12.975 7.642,12.987 7.649,13.001 ZM7.021,12.649 L6.990,12.788 C6.985,12.810 6.982,12.825 6.981,12.832 C6.981,12.839 6.983,12.847 6.987,12.854 C6.991,12.862 6.999,12.865 7.012,12.865 C7.019,12.865 7.026,12.862 7.033,12.856 C7.040,12.851 7.044,12.845 7.045,12.838 L7.053,12.805 L7.183,12.834 C7.179,12.848 7.175,12.862 7.170,12.876 C7.166,12.891 7.161,12.905 7.154,12.919 C7.147,12.933 7.139,12.944 7.128,12.953 C7.118,12.962 7.106,12.968 7.094,12.972 C7.081,12.976 7.067,12.977 7.053,12.976 C7.038,12.975 7.015,12.971 6.986,12.964 C6.946,12.956 6.915,12.947 6.895,12.939 C6.875,12.931 6.861,12.920 6.851,12.907 C6.842,12.894 6.837,12.880 6.834,12.865 C6.832,12.850 6.832,12.838 6.833,12.829 C6.835,12.821 6.841,12.794 6.851,12.748 L6.880,12.618 L6.831,12.607 L6.854,12.506 L6.903,12.517 L6.923,12.427 L7.064,12.458 L7.043,12.549 L7.232,12.591 L7.174,12.684 L7.021,12.649 ZM6.882,3.649 L6.605,3.724 L6.582,3.862 L6.406,3.910 L6.511,3.221 L6.715,3.165 L7.150,3.707 L6.967,3.757 L6.882,3.649 ZM6.660,3.357 L6.621,3.596 L6.807,3.545 L6.660,3.357 ZM6.534,12.411 C6.545,12.416 6.556,12.423 6.566,12.431 C6.576,12.440 6.585,12.452 6.591,12.468 C6.598,12.484 6.599,12.498 6.594,12.512 L6.583,12.553 L6.437,12.502 C6.438,12.493 6.437,12.486 6.435,12.482 C6.433,12.478 6.430,12.474 6.426,12.470 C6.422,12.467 6.413,12.462 6.398,12.457 L6.380,12.451 C6.367,12.446 6.356,12.444 6.347,12.444 C6.338,12.444 6.332,12.445 6.327,12.448 C6.323,12.451 6.320,12.457 6.318,12.464 C6.315,12.471 6.315,12.477 6.317,12.483 C6.319,12.489 6.322,12.495 6.328,12.499 C6.333,12.503 6.346,12.509 6.366,12.516 L6.426,12.537 C6.438,12.541 6.451,12.546 6.467,12.552 C6.482,12.559 6.496,12.565 6.506,12.570 C6.517,12.575 6.527,12.582 6.536,12.591 C6.544,12.600 6.551,12.611 6.555,12.623 C6.559,12.635 6.561,12.646 6.560,12.655 C6.560,12.664 6.557,12.678 6.552,12.695 C6.546,12.712 6.541,12.727 6.536,12.738 C6.527,12.759 6.516,12.775 6.504,12.785 C6.492,12.795 6.476,12.801 6.456,12.803 C6.437,12.805 6.415,12.804 6.392,12.800 C6.368,12.795 6.345,12.789 6.324,12.782 L6.240,12.753 C6.221,12.746 6.198,12.737 6.173,12.726 C6.147,12.716 6.129,12.703 6.119,12.689 C6.109,12.674 6.103,12.659 6.103,12.643 C6.102,12.627 6.103,12.614 6.106,12.606 L6.116,12.569 L6.267,12.621 C6.265,12.630 6.265,12.638 6.266,12.643 C6.267,12.648 6.270,12.653 6.274,12.657 C6.277,12.661 6.286,12.665 6.298,12.671 C6.310,12.677 6.317,12.680 6.320,12.681 L6.324,12.682 C6.342,12.689 6.356,12.691 6.365,12.691 C6.375,12.690 6.382,12.687 6.387,12.683 C6.392,12.678 6.394,12.670 6.396,12.658 C6.396,12.651 6.396,12.645 6.394,12.641 C6.392,12.637 6.387,12.633 6.379,12.630 C6.371,12.626 6.361,12.622 6.348,12.618 L6.304,12.602 L6.263,12.588 L6.221,12.569 C6.206,12.562 6.194,12.556 6.185,12.549 C6.176,12.543 6.169,12.532 6.164,12.518 C6.159,12.504 6.157,12.490 6.157,12.478 C6.157,12.465 6.158,12.455 6.160,12.446 C6.162,12.437 6.166,12.425 6.172,12.411 C6.180,12.391 6.188,12.376 6.196,12.364 C6.205,12.352 6.217,12.343 6.231,12.336 C6.246,12.330 6.262,12.328 6.280,12.329 C6.298,12.330 6.324,12.336 6.359,12.348 L6.486,12.392 C6.507,12.399 6.523,12.406 6.534,12.411 ZM5.939,12.361 L5.905,12.433 L5.634,12.306 L5.620,12.337 C5.615,12.347 5.612,12.357 5.612,12.366 C5.611,12.375 5.613,12.384 5.618,12.391 C5.623,12.399 5.634,12.406 5.653,12.414 C5.666,12.420 5.678,12.425 5.689,12.429 C5.700,12.432 5.710,12.432 5.718,12.429 C5.727,12.425 5.732,12.420 5.736,12.414 L5.743,12.401 L5.888,12.469 C5.873,12.490 5.861,12.505 5.851,12.514 C5.840,12.523 5.826,12.531 5.807,12.538 C5.789,12.544 5.770,12.547 5.751,12.545 C5.732,12.543 5.706,12.535 5.675,12.521 L5.572,12.472 C5.536,12.455 5.512,12.441 5.498,12.430 C5.484,12.418 5.474,12.403 5.467,12.385 C5.460,12.366 5.458,12.349 5.461,12.332 C5.464,12.316 5.470,12.298 5.478,12.280 L5.534,12.161 C5.542,12.144 5.553,12.127 5.565,12.111 C5.578,12.094 5.593,12.082 5.612,12.074 C5.631,12.065 5.652,12.063 5.675,12.065 C5.698,12.068 5.725,12.077 5.756,12.091 L5.878,12.148 C5.898,12.162 5.915,12.174 5.929,12.186 C5.942,12.199 5.952,12.212 5.958,12.228 C5.963,12.243 5.966,12.259 5.966,12.275 C5.966,12.292 5.964,12.305 5.959,12.314 L5.939,12.361 ZM5.811,12.232 C5.806,12.222 5.798,12.214 5.787,12.207 C5.777,12.200 5.765,12.195 5.752,12.190 C5.737,12.184 5.724,12.183 5.711,12.184 C5.699,12.186 5.691,12.191 5.688,12.199 L5.670,12.230 L5.802,12.292 C5.809,12.280 5.814,12.270 5.816,12.260 C5.818,12.251 5.816,12.242 5.811,12.232 ZM5.162,3.838 L5.654,3.556 L5.681,3.695 L5.374,3.871 L5.433,3.980 L5.756,3.794 L5.782,3.919 L5.490,4.086 L5.550,4.195 L5.894,3.998 L5.920,4.135 L5.465,4.396 L5.162,3.838 ZM4.880,4.758 C4.869,4.745 4.857,4.736 4.845,4.730 C4.833,4.725 4.820,4.723 4.807,4.725 C4.793,4.727 4.781,4.732 4.770,4.742 L4.616,4.887 L4.702,4.985 L4.606,5.128 L4.185,4.650 L4.512,4.342 C4.545,4.311 4.575,4.292 4.601,4.285 C4.627,4.278 4.652,4.280 4.675,4.290 C4.699,4.300 4.718,4.311 4.732,4.323 C4.747,4.335 4.765,4.353 4.786,4.377 C4.808,4.401 4.825,4.423 4.836,4.441 C4.847,4.459 4.853,4.474 4.855,4.488 C4.856,4.502 4.855,4.516 4.851,4.530 L4.839,4.570 C4.853,4.566 4.865,4.562 4.876,4.560 C4.887,4.558 4.899,4.558 4.912,4.560 C4.926,4.562 4.938,4.567 4.948,4.574 C4.958,4.581 4.966,4.589 4.973,4.597 L5.033,4.666 L4.933,4.818 L4.880,4.758 ZM4.677,4.526 C4.660,4.506 4.644,4.492 4.628,4.486 C4.616,4.482 4.604,4.481 4.591,4.483 C4.578,4.486 4.564,4.494 4.549,4.508 L4.403,4.646 L4.521,4.779 L4.667,4.641 C4.686,4.622 4.698,4.609 4.701,4.600 C4.704,4.590 4.705,4.581 4.704,4.572 C4.703,4.562 4.694,4.547 4.677,4.526 ZM4.222,5.484 C4.228,5.499 4.231,5.516 4.229,5.533 C4.228,5.551 4.224,5.572 4.216,5.596 C4.208,5.620 4.198,5.640 4.187,5.658 L4.035,5.891 C4.025,5.906 4.011,5.924 3.991,5.944 C3.972,5.964 3.952,5.977 3.932,5.984 C3.911,5.991 3.894,5.994 3.879,5.993 C3.864,5.992 3.848,5.988 3.833,5.981 C3.818,5.974 3.805,5.967 3.794,5.960 L3.544,5.783 C3.534,5.776 3.524,5.768 3.513,5.757 C3.502,5.746 3.494,5.734 3.489,5.720 C3.484,5.706 3.480,5.688 3.479,5.666 C3.477,5.644 3.479,5.622 3.486,5.601 C3.493,5.579 3.502,5.560 3.513,5.542 L3.674,5.295 C3.685,5.279 3.697,5.265 3.710,5.253 C3.723,5.241 3.737,5.231 3.752,5.222 C3.766,5.213 3.783,5.208 3.803,5.207 C3.823,5.206 3.847,5.215 3.877,5.233 L3.949,5.278 L3.846,5.435 C3.835,5.429 3.825,5.423 3.816,5.419 C3.807,5.414 3.796,5.413 3.783,5.413 C3.771,5.414 3.757,5.425 3.742,5.448 L3.682,5.541 C3.670,5.559 3.662,5.574 3.657,5.586 C3.653,5.598 3.650,5.608 3.651,5.616 C3.651,5.624 3.655,5.633 3.661,5.644 C3.668,5.655 3.681,5.667 3.700,5.680 L3.824,5.768 C3.848,5.784 3.866,5.794 3.879,5.796 C3.891,5.799 3.901,5.799 3.909,5.797 C3.916,5.794 3.923,5.791 3.930,5.785 C3.936,5.779 3.947,5.764 3.963,5.741 L4.023,5.648 C4.045,5.615 4.054,5.592 4.049,5.580 C4.045,5.568 4.039,5.560 4.032,5.554 L3.993,5.523 L4.092,5.371 L4.191,5.446 C4.205,5.456 4.215,5.469 4.222,5.484 ZM9.592,12.287 C9.600,12.281 9.608,12.275 9.618,12.268 C9.628,12.262 9.638,12.257 9.648,12.253 L9.759,12.211 C9.766,12.208 9.776,12.206 9.790,12.204 C9.803,12.202 9.814,12.202 9.823,12.202 C9.832,12.202 9.841,12.204 9.849,12.207 C9.857,12.209 9.864,12.213 9.871,12.217 C9.877,12.221 9.885,12.227 9.892,12.234 C9.900,12.241 9.905,12.247 9.908,12.251 C9.912,12.255 9.916,12.263 9.922,12.275 C9.928,12.287 9.932,12.295 9.934,12.300 C9.937,12.305 9.941,12.316 9.948,12.334 C9.958,12.362 9.965,12.382 9.968,12.395 C9.971,12.408 9.973,12.418 9.973,12.427 C9.973,12.436 9.973,12.445 9.972,12.454 C9.971,12.464 9.969,12.473 9.966,12.481 C9.963,12.490 9.957,12.498 9.949,12.506 C9.941,12.515 9.935,12.520 9.931,12.523 C9.927,12.526 9.907,12.536 9.873,12.554 L9.821,12.583 C9.810,12.589 9.802,12.594 9.798,12.599 C9.794,12.603 9.792,12.609 9.790,12.615 C9.789,12.621 9.789,12.627 9.791,12.634 L9.800,12.659 L9.803,12.668 C9.804,12.673 9.807,12.676 9.810,12.678 C9.811,12.679 9.813,12.680 9.816,12.680 C9.818,12.680 9.820,12.680 9.822,12.680 C9.824,12.679 9.829,12.677 9.839,12.673 L10.049,12.593 L10.045,12.719 L9.731,12.839 L9.682,12.710 C9.672,12.685 9.667,12.667 9.665,12.658 C9.663,12.648 9.662,12.637 9.660,12.624 C9.659,12.611 9.659,12.599 9.661,12.587 C9.664,12.575 9.667,12.565 9.672,12.556 C9.677,12.548 9.682,12.540 9.689,12.534 C9.695,12.527 9.704,12.519 9.715,12.512 C9.725,12.504 9.739,12.496 9.756,12.488 C9.772,12.479 9.783,12.474 9.787,12.471 L9.798,12.464 C9.814,12.455 9.824,12.449 9.828,12.446 C9.832,12.442 9.835,12.438 9.836,12.431 C9.838,12.425 9.837,12.416 9.833,12.405 L9.823,12.375 C9.815,12.349 9.807,12.334 9.798,12.329 C9.791,12.326 9.785,12.325 9.781,12.326 C9.776,12.327 9.767,12.330 9.755,12.335 L9.722,12.347 C9.713,12.351 9.706,12.355 9.702,12.361 C9.697,12.366 9.693,12.371 9.692,12.376 C9.690,12.380 9.692,12.393 9.698,12.412 C9.704,12.432 9.708,12.444 9.710,12.448 L9.714,12.459 L9.602,12.502 L9.596,12.487 L9.591,12.472 C9.579,12.441 9.570,12.417 9.565,12.399 C9.560,12.382 9.558,12.365 9.561,12.348 C9.563,12.331 9.567,12.318 9.573,12.309 C9.579,12.300 9.585,12.293 9.592,12.287 Z"/>
<path fill-rule="evenodd"  fill="rgb(255, 255, 255)"
 d="M9.695,7.429 L8.040,6.318 L9.714,5.194 L11.369,6.306 L9.695,7.429 ZM7.946,8.596 L6.291,7.484 L7.964,6.360 L9.620,7.472 L7.946,8.596 ZM4.566,6.318 L6.239,5.194 L7.895,6.306 L6.221,7.429 L4.566,6.318 ZM6.194,10.430 L4.542,9.300 L4.542,6.385 L6.194,7.514 L6.194,10.430 ZM7.894,11.572 L6.267,10.466 L6.267,7.551 L7.894,8.656 L7.894,11.572 ZM9.644,10.476 L7.967,11.584 L7.967,8.662 L9.644,7.554 L9.644,10.476 ZM11.369,9.331 L9.717,10.440 L9.717,7.517 L11.369,6.409 L11.369,9.331 Z"/>
</svg>
