<svg 
 xmlns="http://www.w3.org/2000/svg"
 xmlns:xlink="http://www.w3.org/1999/xlink"
 width="15px" height="14px">
<path fill-rule="evenodd"  fill="rgb(255, 223, 189)"
 d="M4.007,13.902 C3.640,14.061 3.217,14.018 2.894,13.789 C2.569,13.560 2.397,13.180 2.438,12.794 L2.839,9.094 L0.282,6.331 C0.015,6.042 -0.074,5.636 0.049,5.265 C0.173,4.895 0.491,4.617 0.882,4.536 L4.618,3.765 L6.526,0.542 C6.725,0.205 7.095,-0.003 7.494,-0.003 C7.895,-0.003 8.263,0.205 8.464,0.542 L10.372,3.765 L14.109,4.536 C14.498,4.617 14.816,4.895 14.940,5.265 C15.064,5.636 14.974,6.042 14.706,6.331 L12.150,9.094 L12.551,12.794 C12.593,13.180 12.419,13.560 12.096,13.789 C11.773,14.018 11.347,14.061 10.982,13.902 L7.494,12.388 L4.007,13.902 Z"/>
<path fill-rule="evenodd"  fill="rgb(255, 146, 32)"
 d="M7.040,10.996 C7.329,10.870 7.661,10.870 7.951,10.996 L11.000,12.320 L10.649,9.086 C10.616,8.779 10.719,8.472 10.930,8.242 L13.167,5.827 L9.899,5.153 C9.590,5.088 9.321,4.899 9.162,4.631 L7.494,1.813 L5.827,4.631 C5.668,4.899 5.401,5.088 5.090,5.153 L1.823,5.827 L4.060,8.242 C4.272,8.472 4.374,8.779 4.340,9.086 L3.990,12.320 L7.040,10.996 ZM4.007,13.902 C3.640,14.061 3.217,14.018 2.894,13.789 C2.569,13.560 2.397,13.180 2.438,12.794 L2.839,9.094 L0.282,6.331 C0.015,6.042 -0.074,5.636 0.049,5.265 C0.173,4.895 0.491,4.617 0.882,4.536 L4.618,3.765 L6.526,0.542 C6.725,0.205 7.095,-0.003 7.494,-0.003 C7.895,-0.003 8.263,0.205 8.464,0.542 L10.372,3.765 L14.109,4.536 C14.498,4.617 14.816,4.895 14.940,5.265 C15.064,5.636 14.974,6.042 14.706,6.331 L12.150,9.094 L12.551,12.794 C12.593,13.180 12.419,13.560 12.096,13.789 C11.773,14.018 11.347,14.061 10.982,13.902 L7.494,12.388 L4.007,13.902 Z"/>
</svg>
