<svg 
 xmlns="http://www.w3.org/2000/svg"
 xmlns:xlink="http://www.w3.org/1999/xlink"
 width="14px" height="14px">
<path fill-rule="evenodd"  fill="rgb(255, 255, 255)"
 d="M12.824,-0.003 L1.158,-0.003 C0.517,-0.003 -0.008,0.523 -0.008,1.164 L-0.008,12.831 C-0.008,13.472 0.517,13.997 1.158,13.997 L12.824,13.997 C13.467,13.997 13.992,13.472 13.992,12.831 L13.992,1.164 C13.992,0.523 13.467,-0.003 12.824,-0.003 L12.824,-0.003 ZM12.824,12.831 L1.158,12.831 L1.158,11.080 L2.979,11.331 L2.979,11.547 C2.979,11.647 3.082,11.724 3.219,11.740 L6.947,12.093 C6.947,12.093 7.005,12.102 7.038,12.093 L10.764,11.740 C10.901,11.724 11.005,11.647 11.005,11.547 L11.005,11.331 L12.824,11.080 L12.824,12.831 ZM4.124,11.047 L4.124,9.599 L6.419,9.161 L6.419,11.270 L4.124,11.047 ZM8.918,9.423 L9.481,9.531 L8.022,11.224 L7.565,11.270 L7.565,10.993 L8.918,9.423 ZM7.565,9.453 L7.565,9.161 L7.782,9.207 L7.565,9.453 ZM9.859,10.632 L9.859,11.047 L9.470,11.085 L9.859,10.632 ZM12.824,9.914 L11.005,10.562 L11.005,9.169 C11.005,9.084 10.925,9.007 10.799,8.984 L7.071,8.268 C7.071,8.268 6.969,8.261 6.911,8.268 L3.183,8.984 C3.058,9.007 2.979,9.084 2.979,9.169 L2.979,10.562 L1.158,9.914 L1.158,4.134 L5.242,4.134 L5.942,5.067 C6.047,5.218 6.223,5.300 6.408,5.300 L6.408,5.883 C6.408,6.210 6.664,6.467 6.990,6.467 C7.318,6.467 7.575,6.210 7.575,5.883 L7.575,5.300 C7.761,5.300 7.937,5.218 8.041,5.067 L8.742,4.134 L12.824,4.134 L12.824,9.914 ZM12.720,3.179 L1.265,3.179 L1.158,1.164 L12.824,1.164 L12.720,3.179 Z"/>
</svg>
