<svg 
 xmlns="http://www.w3.org/2000/svg"
 xmlns:xlink="http://www.w3.org/1999/xlink"
 width="10px" height="14px">
<path fill-rule="evenodd"  fill="rgb(170, 170, 170)"
 d="M8.582,6.674 L5.818,9.440 L5.818,0.825 C5.818,0.369 5.448,-0.002 4.992,-0.002 C4.537,-0.002 4.168,0.369 4.168,0.825 L4.168,9.440 L1.404,6.674 C1.083,6.351 0.558,6.351 0.238,6.674 C-0.085,6.997 -0.085,7.520 0.238,7.844 L4.409,12.020 C4.486,12.096 4.578,12.158 4.682,12.199 C4.684,12.201 4.690,12.201 4.693,12.202 C4.788,12.240 4.888,12.261 4.995,12.261 C5.101,12.261 5.200,12.240 5.297,12.202 C5.299,12.201 5.305,12.201 5.309,12.199 C5.411,12.156 5.501,12.096 5.579,12.020 L9.752,7.844 C10.074,7.520 10.074,6.997 9.752,6.674 C9.427,6.351 8.903,6.351 8.582,6.674 L8.582,6.674 ZM9.165,12.345 L0.820,12.345 C0.365,12.345 -0.006,12.715 -0.006,13.171 C-0.006,13.627 0.365,13.998 0.820,13.998 L9.165,13.998 C9.621,13.998 9.991,13.627 9.991,13.171 C9.991,12.715 9.621,12.345 9.165,12.345 L9.165,12.345 Z"/>
</svg>
