<svg 
 xmlns="http://www.w3.org/2000/svg"
 xmlns:xlink="http://www.w3.org/1999/xlink"
 width="15px" height="14px">
<path fill-rule="evenodd"  fill="rgb(251, 190, 204)"
 d="M12.680,4.063 L9.332,4.063 C9.331,4.063 9.329,4.061 9.329,4.059 L9.329,2.327 C9.329,1.043 8.290,-0.001 7.015,-0.001 C6.404,-0.001 5.845,0.210 5.393,0.612 C4.964,0.993 4.658,1.528 4.505,2.160 L3.252,6.788 C3.246,6.812 3.241,6.837 3.237,6.861 L1.339,6.861 C0.600,6.861 -0.003,7.467 -0.003,8.210 L-0.003,12.650 C-0.003,13.394 0.600,13.999 1.339,13.999 L4.569,13.999 L4.569,13.994 L11.835,13.994 C12.254,13.994 12.626,13.824 12.916,13.500 C13.122,13.269 13.276,12.957 13.366,12.601 L14.974,6.567 C14.990,6.510 14.998,6.451 14.998,6.392 C14.998,5.108 13.958,4.063 12.680,4.063 L12.680,4.063 Z"/>
<path fill-rule="evenodd"  fill="rgb(255, 55, 100)"
 d="M12.680,4.063 L9.332,4.063 C9.331,4.063 9.329,4.061 9.329,4.059 L9.329,2.327 C9.329,1.043 8.290,-0.001 7.015,-0.001 C6.404,-0.001 5.845,0.210 5.393,0.612 C4.964,0.993 4.658,1.528 4.505,2.160 L3.252,6.788 C3.246,6.812 3.241,6.837 3.237,6.861 L1.339,6.861 C0.600,6.861 -0.003,7.467 -0.003,8.210 L-0.003,12.650 C-0.003,13.394 0.600,13.999 1.339,13.999 L4.569,13.999 L4.569,13.994 L11.835,13.994 C12.254,13.994 12.626,13.824 12.916,13.500 C13.122,13.269 13.276,12.957 13.366,12.601 L14.974,6.567 C14.990,6.510 14.998,6.451 14.998,6.392 C14.998,5.108 13.958,4.063 12.680,4.063 L12.680,4.063 ZM3.227,12.650 L1.341,12.650 C1.341,12.650 1.339,12.650 1.339,12.648 L1.339,8.212 C1.339,8.212 1.339,8.210 1.341,8.210 L3.229,8.210 L3.229,12.650 L3.227,12.650 ZM12.071,12.257 C12.068,12.260 12.068,12.264 12.067,12.267 C12.020,12.454 11.926,12.643 11.835,12.643 L4.586,12.643 C4.577,12.643 4.569,12.635 4.569,12.626 L4.569,7.056 L5.799,2.506 L5.804,2.486 C5.974,1.774 6.426,1.350 7.013,1.350 C7.550,1.350 7.985,1.789 7.985,2.329 L7.985,4.059 C7.985,4.807 8.590,5.413 9.332,5.413 L12.677,5.413 C13.190,5.413 13.611,5.813 13.651,6.318 L12.071,12.257 Z"/>
</svg>
