<svg 
 xmlns="http://www.w3.org/2000/svg"
 xmlns:xlink="http://www.w3.org/1999/xlink"
 width="13px" height="13px">
<path fill-rule="evenodd"  fill="rgb(255, 255, 255)"
 d="M12.991,9.363 C12.991,10.723 12.348,11.932 11.344,12.712 C11.288,12.755 11.230,12.798 11.172,12.839 C10.468,13.332 9.983,12.484 10.525,12.108 C10.585,12.065 10.641,12.023 10.698,11.977 C11.451,11.377 11.931,10.458 11.931,9.429 C11.931,8.767 11.727,8.154 11.385,7.638 C11.306,9.938 8.796,11.788 5.695,11.788 C2.546,11.788 -0.008,9.881 -0.008,7.530 C-0.008,6.831 0.228,6.176 0.628,5.594 C0.239,5.071 -0.001,4.489 -0.001,3.864 C-0.001,1.730 2.551,-0.001 5.699,-0.001 C8.848,-0.001 11.399,1.730 11.399,3.864 C11.399,4.491 11.158,5.074 10.767,5.598 C10.786,5.626 10.809,5.652 10.827,5.680 C12.118,6.416 12.991,7.786 12.991,9.363 ZM9.705,4.930 L7.686,4.057 L7.921,6.154 C8.705,5.869 9.336,5.445 9.705,4.930 ZM5.695,9.561 C7.673,9.561 9.278,8.359 9.278,6.875 C9.278,6.868 9.275,6.858 9.275,6.851 C8.295,7.391 7.061,7.728 5.699,7.728 C4.335,7.728 3.099,7.390 2.118,6.848 C2.118,6.856 2.115,6.867 2.115,6.875 C2.115,8.359 3.716,9.561 5.695,9.561 ZM6.979,6.407 L6.757,4.975 L4.294,6.383 C4.738,6.476 5.205,6.537 5.699,6.537 C6.148,6.537 6.572,6.484 6.979,6.407 ZM3.182,6.044 L4.369,5.106 L1.588,4.748 C1.894,5.275 2.450,5.727 3.182,6.044 ZM1.368,3.552 L3.838,3.796 L2.381,2.116 C1.829,2.513 1.469,3.005 1.368,3.552 ZM3.220,1.639 L4.104,3.010 L5.078,1.203 C4.397,1.263 3.763,1.410 3.220,1.639 ZM4.646,3.864 C4.646,4.263 5.117,4.586 5.699,4.586 C6.281,4.586 6.753,4.263 6.753,3.864 C6.753,3.465 6.281,3.141 5.699,3.141 C5.117,3.141 4.646,3.465 4.646,3.864 ZM6.709,1.244 L5.828,2.485 L8.317,1.709 C7.844,1.491 7.303,1.330 6.709,1.244 ZM9.694,2.759 L7.154,3.010 L10.073,3.887 C10.074,3.875 10.079,3.864 10.079,3.851 C10.079,3.462 9.937,3.094 9.694,2.759 Z"/>
</svg>
