<svg 
 xmlns="http://www.w3.org/2000/svg"
 xmlns:xlink="http://www.w3.org/1999/xlink"
 width="14px" height="14px">
<path fill-rule="evenodd"  fill="rgb(255, 255, 255)"
 d="M13.996,10.998 L13.996,11.998 L10.996,11.998 L10.996,10.998 L11.996,10.998 L11.996,2.998 L10.996,2.998 L10.996,1.998 L13.996,1.998 L13.996,2.998 L12.996,2.998 L12.996,10.998 L13.996,10.998 ZM5.148,5.941 C5.050,5.993 4.943,5.993 4.845,5.941 L0.299,3.574 C-0.107,3.363 -0.103,2.519 0.303,2.313 L4.848,0.003 C4.944,-0.046 5.048,-0.046 5.144,0.003 L9.689,2.313 C10.096,2.520 10.097,3.363 9.693,3.574 L5.148,5.941 ZM4.995,1.342 L1.828,2.952 L4.995,4.603 L8.166,2.952 L4.995,1.342 ZM0.550,4.994 L0.602,5.015 L4.995,7.276 L9.391,5.015 C9.504,4.957 9.629,4.967 9.738,5.043 C9.847,5.121 9.931,5.258 9.971,5.425 C10.045,5.746 9.947,6.098 9.739,6.247 L9.691,6.276 L5.146,8.615 C5.069,8.655 4.986,8.663 4.906,8.639 L4.845,8.615 L0.301,6.276 C0.073,6.160 -0.052,5.803 0.013,5.462 C0.079,5.122 0.314,4.916 0.550,4.994 ZM0.550,7.666 L0.602,7.688 L4.995,9.949 L9.391,7.688 C9.504,7.629 9.629,7.640 9.738,7.717 C9.847,7.794 9.931,7.931 9.971,8.098 C10.045,8.418 9.947,8.771 9.739,8.919 L9.691,8.949 L5.146,11.288 C5.069,11.327 4.986,11.336 4.906,11.312 L4.845,11.288 L0.301,8.949 C0.073,8.833 -0.052,8.476 0.013,8.135 C0.079,7.794 0.314,7.589 0.550,7.666 ZM0.550,10.339 L0.602,10.360 L4.995,12.621 L9.391,10.360 C9.504,10.302 9.629,10.312 9.738,10.389 C9.847,10.466 9.931,10.603 9.971,10.771 C10.045,11.091 9.947,11.443 9.739,11.592 L9.691,11.622 L5.146,13.961 C5.069,14.000 4.986,14.009 4.906,13.985 L4.845,13.961 L0.301,11.622 C0.073,11.505 -0.052,11.148 0.013,10.808 C0.079,10.467 0.314,10.262 0.550,10.339 Z"/>
</svg>
