<svg 
 xmlns="http://www.w3.org/2000/svg"
 xmlns:xlink="http://www.w3.org/1999/xlink"
 width="13px" height="13px">
<path fill-rule="evenodd"  fill="rgb(255, 255, 255)"
 d="M12.185,12.385 L12.185,10.577 L10.319,10.577 L10.319,12.385 L12.185,12.385 L12.185,12.998 L0.606,12.998 L0.606,12.385 L2.414,12.385 L2.414,10.577 L0.606,10.577 L0.606,11.772 L0.606,12.385 L-0.006,12.385 L-0.006,11.772 L-0.006,0.806 L0.606,0.806 L0.606,2.673 L2.414,2.673 L2.414,0.806 L0.606,0.806 L0.606,0.252 L12.185,0.252 L12.185,0.806 L10.319,0.806 L10.319,2.673 L12.185,2.673 L12.185,0.806 L12.769,0.806 L12.769,5.094 L12.769,5.706 L12.769,12.385 L12.185,12.385 ZM2.414,3.256 L0.606,3.256 L0.606,5.094 L1.248,5.094 L2.414,5.094 L2.414,3.256 ZM2.414,5.706 L1.248,5.706 L0.606,5.706 L0.606,7.544 L2.414,7.544 L2.414,5.706 ZM2.414,8.127 L0.606,8.127 L0.606,9.964 L2.414,9.964 L2.414,8.127 ZM4.865,0.806 L3.029,0.806 L3.029,2.673 L4.865,2.673 L4.865,0.806 ZM4.865,3.256 L3.029,3.256 L3.029,5.094 L4.865,5.094 L4.865,3.256 ZM4.865,5.706 L3.029,5.706 L3.029,7.544 L4.865,7.544 L4.865,5.706 ZM4.865,8.127 L3.029,8.127 L3.029,9.964 L4.865,9.964 L4.865,8.127 ZM4.865,10.577 L3.029,10.577 L3.029,12.385 L4.865,12.385 L4.865,10.577 ZM7.286,0.806 L5.478,0.806 L5.478,2.673 L7.286,2.673 L7.286,0.806 ZM7.286,3.256 L5.478,3.256 L5.478,5.094 L7.286,5.094 L7.286,3.256 ZM7.286,5.706 L5.478,5.706 L5.478,7.544 L7.286,7.544 L7.286,5.706 ZM7.286,8.127 L5.478,8.127 L5.478,9.964 L7.286,9.964 L7.286,8.127 ZM7.286,10.577 L5.478,10.577 L5.478,12.385 L7.286,12.385 L7.286,10.577 ZM9.736,0.806 L7.899,0.806 L7.899,2.673 L9.736,2.673 L9.736,0.806 ZM9.736,3.256 L7.899,3.256 L7.899,5.094 L9.736,5.094 L9.736,3.256 ZM9.736,5.706 L7.899,5.706 L7.899,7.544 L9.736,7.544 L9.736,5.706 ZM9.736,8.127 L7.899,8.127 L7.899,9.964 L9.736,9.964 L9.736,8.127 ZM9.736,10.577 L7.899,10.577 L7.899,12.385 L9.736,12.385 L9.736,10.577 ZM12.185,3.256 L10.319,3.256 L10.319,5.094 L12.185,5.094 L12.185,3.256 ZM12.185,5.706 L10.319,5.706 L10.319,7.544 L12.185,7.544 L12.185,5.706 ZM12.185,8.127 L10.319,8.127 L10.319,9.964 L12.185,9.964 L12.185,8.127 Z"/>
</svg>
