<svg 
 xmlns="http://www.w3.org/2000/svg"
 xmlns:xlink="http://www.w3.org/1999/xlink"
 width="14px" height="13px">
<path fill-rule="evenodd"  fill="rgb(170, 170, 170)"
 d="M13.773,10.471 C14.402,11.555 13.634,12.999 12.306,12.999 L1.617,12.999 C0.359,12.999 -0.410,11.555 0.220,10.471 L5.600,0.866 C5.880,0.288 6.439,-0.001 6.997,-0.001 C7.555,-0.001 8.115,0.288 8.393,0.866 L13.773,10.471 ZM12.680,11.134 L12.669,11.117 L7.290,1.511 L7.253,1.442 C7.209,1.351 7.122,1.299 6.997,1.299 C6.872,1.299 6.784,1.351 6.741,1.441 L6.704,1.511 L1.315,11.134 C1.181,11.365 1.362,11.699 1.617,11.699 L12.306,11.699 C12.627,11.699 12.815,11.368 12.680,11.134 L12.680,11.134 ZM6.933,3.899 C6.615,3.899 6.361,4.097 6.361,4.345 L6.361,7.353 C6.361,7.600 6.615,7.799 6.933,7.799 L7.060,7.799 C7.378,7.799 7.632,7.600 7.632,7.353 L7.632,4.345 C7.632,4.097 7.378,3.899 7.060,3.899 L6.933,3.899 ZM6.361,9.735 C6.361,9.901 6.427,10.067 6.546,10.184 C6.663,10.302 6.831,10.371 6.997,10.371 C7.162,10.371 7.329,10.302 7.446,10.184 C7.564,10.067 7.632,9.901 7.632,9.735 C7.632,9.568 7.564,9.403 7.446,9.285 C7.329,9.168 7.162,9.099 6.997,9.099 C6.831,9.099 6.663,9.168 6.546,9.285 C6.427,9.403 6.361,9.568 6.361,9.735 L6.361,9.735 Z"/>
</svg>
