<svg 
 xmlns="http://www.w3.org/2000/svg"
 xmlns:xlink="http://www.w3.org/1999/xlink"
 width="15px" height="14px">
<path fill-rule="evenodd"  fill="rgb(170, 170, 170)"
 d="M7.036,10.995 C7.326,10.870 7.659,10.870 7.947,10.995 L10.997,12.320 L10.648,9.086 C10.612,8.778 10.715,8.472 10.929,8.242 L13.165,5.826 L9.896,5.152 C9.586,5.088 9.319,4.899 9.160,4.631 L7.492,1.813 L5.824,4.631 C5.666,4.899 5.398,5.088 5.087,5.152 L1.820,5.826 L4.057,8.242 C4.267,8.472 4.370,8.778 4.338,9.086 L3.987,12.320 L7.036,10.995 ZM4.004,13.902 C3.638,14.060 3.214,14.017 2.891,13.788 C2.567,13.559 2.395,13.180 2.435,12.792 L2.836,9.094 L0.279,6.330 C0.011,6.041 -0.076,5.635 0.046,5.264 C0.170,4.894 0.489,4.616 0.880,4.536 L4.616,3.764 L6.524,0.542 C6.722,0.205 7.092,-0.003 7.492,-0.003 C7.891,-0.003 8.261,0.205 8.462,0.542 L10.370,3.764 L14.105,4.536 C14.496,4.616 14.815,4.894 14.937,5.264 C15.061,5.635 14.973,6.041 14.705,6.330 L12.147,9.094 L12.548,12.792 C12.590,13.180 12.416,13.559 12.093,13.788 C11.770,14.017 11.345,14.060 10.980,13.902 L7.492,12.387 L4.004,13.902 Z"/>
</svg>
