<svg 
 xmlns="http://www.w3.org/2000/svg"
 xmlns:xlink="http://www.w3.org/1999/xlink"
 width="14px" height="14px">
<path fill-rule="evenodd"  fill="none"
 d="M-0.000,-0.000 L14.000,-0.000 L14.000,14.000 L-0.000,14.000 L-0.000,-0.000 Z"/>
<path fill-rule="evenodd"  fill="rgb(102, 102, 102)"
 d="M9.882,2.385 C10.600,2.385 11.277,2.665 11.785,3.172 C12.842,4.228 12.842,5.945 11.785,6.999 L7.283,11.492 C7.182,11.594 7.067,11.615 6.988,11.615 C6.908,11.615 6.795,11.594 6.693,11.492 L2.190,6.999 C1.133,5.943 1.133,4.226 2.190,3.172 C2.700,2.665 3.375,2.385 4.093,2.385 C4.810,2.385 5.487,2.665 5.995,3.172 L6.988,4.162 L7.980,3.172 C8.488,2.665 9.165,2.385 9.882,2.385 M9.882,1.000 C8.834,1.000 7.787,1.398 6.988,2.197 C6.188,1.398 5.141,1.000 4.093,1.000 C3.045,1.000 1.998,1.398 1.198,2.197 C-0.400,3.792 -0.400,6.378 1.198,7.975 L5.700,12.469 C6.056,12.823 6.522,13.000 6.988,13.000 C7.453,13.000 7.919,12.823 8.273,12.468 L12.775,7.974 C14.373,6.378 14.373,3.792 12.775,2.195 C11.977,1.398 10.931,1.000 9.882,1.000 L9.882,1.000 Z"/>
</svg>
