<svg 
 xmlns="http://www.w3.org/2000/svg"
 xmlns:xlink="http://www.w3.org/1999/xlink"
 width="16px" height="16px">
<path fill-rule="evenodd"  fill="none"
 d="M-0.000,-0.000 L16.000,-0.000 L16.000,16.000 L-0.000,16.000 L-0.000,-0.000 Z"/>
<path fill-rule="evenodd"  fill="rgb(207, 129, 57)"
 d="M15.704,5.913 L12.906,2.105 C12.509,1.423 11.770,1.000 10.977,1.000 L5.001,1.000 C4.208,1.000 3.468,1.423 3.072,2.105 L0.298,5.870 C-0.209,6.742 -0.058,7.844 0.666,8.550 L6.627,14.366 C7.047,14.775 7.605,15.000 8.206,15.000 L8.221,15.000 C8.822,14.991 9.381,14.750 9.797,14.320 L15.383,8.548 C16.065,7.842 16.197,6.759 15.704,5.913 L15.704,5.913 Z"/>
<path fill-rule="evenodd"  fill="rgb(254, 192, 128)"
 d="M10.824,8.062 L8.470,10.791 C8.463,10.799 8.453,10.801 8.445,10.809 C8.438,10.817 8.435,10.827 8.426,10.835 C8.401,10.858 8.370,10.867 8.342,10.885 C8.307,10.908 8.274,10.933 8.236,10.949 C8.196,10.965 8.156,10.971 8.115,10.978 C8.075,10.986 8.038,10.995 7.997,10.995 C7.957,10.995 7.920,10.986 7.880,10.979 C7.839,10.971 7.798,10.965 7.758,10.948 C7.722,10.934 7.691,10.910 7.658,10.888 C7.628,10.869 7.595,10.859 7.568,10.835 C7.559,10.826 7.556,10.815 7.548,10.807 C7.541,10.800 7.532,10.798 7.526,10.791 L5.171,8.062 C4.934,7.800 4.953,7.395 5.215,7.157 C5.475,6.919 5.879,6.938 6.117,7.201 L7.997,9.381 L9.878,7.201 C10.115,6.938 10.519,6.919 10.780,7.157 C11.042,7.395 11.061,7.800 10.824,8.062 Z"/>
</svg>
