<svg 
 xmlns="http://www.w3.org/2000/svg"
 xmlns:xlink="http://www.w3.org/1999/xlink"
 width="113.5px" height="148px">
<path fill-rule="evenodd"  fill="none"
 d="M0.500,136.500 L10.500,136.500 L10.500,147.500 L0.500,147.500 L0.500,136.500 Z"/>
<path fill-rule="evenodd"  fill="rgb(108, 108, 108)"
 d="M109.511,106.921 C111.650,105.771 112.663,103.778 112.470,101.895 C112.678,99.902 111.650,98.018 109.511,96.869 L63.423,72.199 C61.382,71.050 58.938,70.524 56.494,70.524 C54.049,70.524 51.592,71.050 49.550,72.199 L3.462,96.773 C1.323,97.922 0.407,99.915 0.504,101.798 C0.407,103.791 1.323,105.771 3.462,106.921 L49.550,131.507 C51.592,132.656 54.036,133.182 56.494,133.182 C58.938,133.182 61.382,132.656 63.423,131.507 L109.511,106.921 Z"/>
<path fill-rule="evenodd"  fill="rgb(127, 127, 127)"
 d="M109.511,105.655 C111.650,104.505 112.663,102.512 112.470,100.629 C112.678,98.636 111.650,96.753 109.511,95.603 L63.423,70.934 C61.382,69.784 58.938,69.258 56.494,69.258 C54.049,69.258 51.592,69.784 49.550,70.934 L3.462,95.507 C1.323,96.656 0.407,98.649 0.504,100.532 C0.407,102.525 1.323,104.505 3.462,105.655 L49.550,130.241 C51.592,131.390 54.036,131.917 56.494,131.917 C58.938,131.917 61.382,131.390 63.423,130.241 L109.511,105.655 Z"/>
<path fill-rule="evenodd"  stroke="rgb(109, 109, 109)" stroke-width="1px" stroke-linecap="butt" stroke-linejoin="miter" fill="none"
 d="M98.186,104.551 C99.867,103.634 100.664,102.043 100.511,100.540 C100.675,98.950 99.867,97.446 98.186,96.530 L61.959,76.843 C60.355,75.926 58.433,75.506 56.512,75.506 C54.591,75.506 52.659,75.926 51.055,76.843 L14.828,96.453 C13.147,97.370 12.426,98.961 12.503,100.463 C12.426,102.054 13.147,103.634 14.828,104.551 L51.055,124.171 C52.659,125.088 54.580,125.507 56.512,125.507 C58.433,125.507 60.355,125.088 61.959,124.171 L98.186,104.551 Z"/>
<path fill-rule="evenodd"  stroke="rgb(28, 227, 107)" stroke-width="1px" stroke-linecap="butt" stroke-linejoin="miter" fill="none"
 d="M58.958,80.750 L57.353,80.040 L53.608,81.696 L61.098,81.696 L62.435,82.642 L50.933,82.642 L48.526,83.825 L65.645,83.825 L67.785,85.244 L46.119,85.244 L44.246,86.426 L70.727,86.426 L73.402,87.845 L41.037,87.845 L38.629,89.264 L76.611,89.264 L78.751,90.684 L35.686,90.684 L33.815,91.866 L82.228,92.103 L84.368,93.285 L30.070,93.522 L27.930,94.704 L87.845,94.941 L89.718,96.124 L24.987,96.360 L22.847,97.779 L92.601,97.779 L94.741,99.198 L19.103,99.198 L18.135,100.381 L96.020,100.854 L95.276,102.273 L19.638,102.273 L21.511,103.456 L91.323,103.929 L89.183,105.348 L25.790,105.348 L27.663,106.530 L86.508,106.530 L84.903,107.950 L31.139,107.950 L32.745,109.132 L80.623,109.368 L78.751,110.788 L36.489,110.788 L38.362,111.970 L75.274,111.970 L73.402,113.389 L41.839,113.626 L43.711,114.808 L69.122,115.045 L67.250,116.464 L48.259,116.464 L50.131,117.883 L63.772,117.647 L62.167,119.066 L54.143,119.302 L57.353,120.958 L59.225,120.248 "/>
<path fill-rule="evenodd"  stroke="rgb(127, 127, 127)" stroke-width="1px" stroke-dasharray="4, 2" stroke-linecap="butt" stroke-linejoin="miter" fill="none"
 d="M109.511,37.655 C111.650,36.505 112.663,34.512 112.470,32.629 C112.678,30.636 111.650,28.752 109.511,27.603 L63.423,2.933 C61.382,1.784 58.938,1.258 56.494,1.258 C54.049,1.258 51.592,1.784 49.550,2.933 L3.462,27.507 C1.323,28.656 0.407,30.649 0.504,32.532 C0.407,34.525 1.323,36.505 3.462,37.655 L49.550,62.241 C51.592,63.391 54.036,63.917 56.494,63.917 C58.938,63.917 61.382,63.391 63.423,62.241 L109.511,37.655 Z"/>
<path fill-rule="evenodd"  stroke="rgb(127, 127, 127)" stroke-width="1px" stroke-dasharray="4, 2" stroke-linecap="butt" stroke-linejoin="miter" fill="none"
 d="M1.499,37.499 L1.499,101.499 "/>
<path fill-rule="evenodd"  stroke="rgb(127, 127, 127)" stroke-width="1px" stroke-dasharray="4, 2" stroke-linecap="butt" stroke-linejoin="miter" fill="none"
 d="M112.499,37.499 L112.499,101.499 "/>
<path fill-rule="evenodd"  stroke="rgb(127, 127, 127)" stroke-width="1px" stroke-dasharray="4, 2" stroke-linecap="butt" stroke-linejoin="miter" fill="none"
 d="M57.499,65.499 L57.499,133.499 "/>
<path fill-rule="evenodd"  stroke="rgb(127, 127, 127)" stroke-width="1px" stroke-dasharray="4, 2" stroke-linecap="butt" stroke-linejoin="miter" fill="none"
 d="M57.499,3.499 L57.499,66.499 "/>
</svg>
