<svg 
 xmlns="http://www.w3.org/2000/svg"
 xmlns:xlink="http://www.w3.org/1999/xlink"
 width="250px" height="148px">
<path fill-rule="evenodd"  fill="none"
 d="M-0.001,136.000 L16.000,136.000 L16.000,147.000 L-0.001,147.000 L-0.001,136.000 Z"/>
<path fill-rule="evenodd"  stroke="rgb(28, 227, 107)" stroke-width="2px" stroke-linecap="butt" stroke-linejoin="miter" fill="none"
 d="M196.838,96.132 C199.816,94.517 201.228,91.717 200.958,89.074 C201.247,86.274 199.816,83.629 196.838,82.015 L132.642,47.366 C129.799,45.752 126.396,45.013 122.992,45.013 C119.587,45.013 116.163,45.752 113.321,47.366 L49.126,81.879 C46.147,83.492 44.871,86.292 45.005,88.937 C44.871,91.736 46.147,94.517 49.126,96.132 L113.321,130.663 C116.163,132.277 119.568,133.016 122.992,133.016 C126.396,133.016 129.799,132.277 132.642,130.663 L196.838,96.132 Z"/>
<path fill-rule="evenodd"  stroke="rgb(28, 227, 107)" stroke-width="2px" stroke-linecap="butt" stroke-linejoin="miter" fill="none"
 d="M193.998,94.616 C196.861,93.112 198.219,91.516 197.960,89.054 C198.238,86.446 196.861,84.994 193.998,83.491 L132.271,50.204 C129.538,48.700 126.265,48.012 122.992,48.012 C119.718,48.012 116.426,48.700 113.693,50.204 L51.967,83.364 C49.103,84.868 47.876,86.463 48.005,88.926 C47.876,91.534 49.103,93.112 51.967,94.616 L113.693,127.794 C116.426,129.297 119.700,129.986 122.992,129.986 C126.265,129.986 129.538,129.297 132.271,127.794 L193.998,94.616 Z"/>
<path fill-rule="evenodd"  stroke="rgb(28, 227, 107)" stroke-width="2px" stroke-linecap="butt" stroke-linejoin="miter" fill="none"
 d="M188.318,94.205 C190.952,92.811 195.201,91.332 194.963,89.050 C195.219,86.633 190.952,85.287 188.318,83.894 L131.530,53.042 C129.015,51.649 126.003,51.011 122.992,51.011 C119.980,51.011 116.952,51.649 114.438,53.042 L57.650,83.777 C55.014,85.170 50.886,86.649 51.005,88.932 C50.886,91.349 55.014,92.811 57.650,94.205 L114.438,124.955 C116.952,126.349 119.964,126.987 122.992,126.987 C126.003,126.987 129.015,126.349 131.530,124.955 L188.318,94.205 Z"/>
<path fill-rule="evenodd"  stroke="rgb(28, 227, 107)" stroke-width="2px" stroke-linecap="butt" stroke-linejoin="miter" fill="none"
 d="M182.902,93.794 C185.317,92.510 191.213,91.148 190.994,89.046 C191.229,86.820 185.317,85.580 182.902,84.297 L130.835,55.881 C128.529,54.598 125.768,54.010 123.007,54.010 C120.246,54.010 117.469,54.598 115.164,55.881 L63.097,84.189 C60.681,85.472 54.895,86.834 55.004,88.937 C54.895,91.163 60.681,92.510 63.097,93.794 L115.164,122.117 C117.469,123.400 120.231,123.987 123.007,123.987 C125.768,123.987 128.529,123.400 130.835,122.117 L182.902,93.794 Z"/>
<path fill-rule="evenodd"  fill="rgb(127, 127, 127)"
 d="M176.011,93.154 C178.149,92.005 179.163,90.012 178.969,88.129 C179.177,86.135 178.149,84.252 176.011,83.103 L129.922,58.433 C127.881,57.284 125.438,56.758 122.994,56.758 C120.549,56.758 118.091,57.284 116.050,58.433 L69.962,83.007 C67.823,84.156 66.907,86.149 67.004,88.032 C66.907,90.025 67.823,92.005 69.962,93.154 L116.050,117.741 C118.091,118.891 120.536,119.416 122.994,119.416 C125.438,119.416 127.881,118.891 129.922,117.741 L176.011,93.154 Z"/>
<path fill-rule="evenodd"  fill="rgb(98, 98, 98)"
 d="M176.011,88.420 C178.149,87.271 179.163,85.278 178.969,83.395 C179.177,81.401 178.149,79.518 176.011,78.369 L129.922,53.699 C127.881,52.550 125.438,52.024 122.994,52.024 C120.549,52.024 118.091,52.550 116.050,53.699 L69.962,78.272 C67.823,79.421 66.907,81.415 67.004,83.298 C66.907,85.291 67.823,87.271 69.962,88.420 L116.050,113.007 C118.091,114.156 120.536,114.682 122.994,114.682 C125.438,114.682 127.881,114.156 129.922,113.007 L176.011,88.420 Z"/>
<path fill-rule="evenodd"  fill="rgb(127, 127, 127)"
 d="M176.011,87.154 C178.149,86.005 179.163,84.012 178.969,82.129 C179.177,80.136 178.149,78.252 176.011,77.103 L129.922,52.433 C127.881,51.284 125.438,50.758 122.994,50.758 C120.549,50.758 118.091,51.284 116.050,52.433 L69.962,77.006 C67.823,78.156 66.907,80.149 67.004,82.032 C66.907,84.025 67.823,86.005 69.962,87.154 L116.050,111.741 C118.091,112.890 120.536,113.416 122.994,113.416 C125.438,113.416 127.881,112.890 129.922,111.741 L176.011,87.154 Z"/>
<path fill-rule="evenodd"  fill="rgb(98, 98, 98)"
 d="M176.011,83.420 C178.149,82.271 179.163,80.277 178.969,78.395 C179.177,76.401 178.149,74.518 176.011,73.369 L129.922,48.699 C127.881,47.549 125.438,47.024 122.994,47.024 C120.549,47.024 118.091,47.549 116.050,48.699 L69.962,73.272 C67.823,74.421 66.907,76.415 67.004,78.298 C66.907,80.291 67.823,82.271 69.962,83.420 L116.050,108.007 C118.091,109.156 120.536,109.682 122.994,109.682 C125.438,109.682 127.881,109.156 129.922,108.007 L176.011,83.420 Z"/>
<path fill-rule="evenodd"  fill="rgb(127, 127, 127)"
 d="M176.011,82.154 C178.149,81.005 179.163,79.011 178.969,77.129 C179.177,75.136 178.149,73.252 176.011,72.103 L129.922,47.433 C127.881,46.284 125.438,45.758 122.994,45.758 C120.549,45.758 118.091,46.284 116.050,47.433 L69.962,72.006 C67.823,73.155 66.907,75.149 67.004,77.031 C66.907,79.025 67.823,81.005 69.962,82.154 L116.050,106.741 C118.091,107.890 120.536,108.416 122.994,108.416 C125.438,108.416 127.881,107.890 129.922,106.741 L176.011,82.154 Z"/>
<path fill-rule="evenodd"  fill="rgb(98, 98, 98)"
 d="M176.011,78.420 C178.149,77.271 179.163,75.277 178.969,73.395 C179.177,71.402 178.149,69.518 176.011,68.369 L129.922,43.699 C127.881,42.550 125.438,42.024 122.994,42.024 C120.549,42.024 118.091,42.550 116.050,43.699 L69.962,68.272 C67.823,69.421 66.907,71.415 67.004,73.297 C66.907,75.291 67.823,77.271 69.962,78.420 L116.050,103.007 C118.091,104.156 120.536,104.682 122.994,104.682 C125.438,104.682 127.881,104.156 129.922,103.007 L176.011,78.420 Z"/>
<path fill-rule="evenodd"  fill="rgb(127, 127, 127)"
 d="M176.011,77.154 C178.149,76.005 179.163,74.011 178.969,72.129 C179.177,70.136 178.149,68.252 176.011,67.103 L129.922,42.433 C127.881,41.284 125.438,40.758 122.994,40.758 C120.549,40.758 118.091,41.284 116.050,42.433 L69.962,67.006 C67.823,68.156 66.907,70.149 67.004,72.032 C66.907,74.025 67.823,76.005 69.962,77.154 L116.050,101.741 C118.091,102.890 120.536,103.416 122.994,103.416 C125.438,103.416 127.881,102.890 129.922,101.741 L176.011,77.154 Z"/>
<path fill-rule="evenodd"  fill="rgb(98, 98, 98)"
 d="M176.011,73.420 C178.149,72.271 179.163,70.277 178.969,68.395 C179.177,66.401 178.149,64.518 176.011,63.369 L129.922,38.699 C127.881,37.550 125.438,37.024 122.994,37.024 C120.549,37.024 118.091,37.550 116.050,38.699 L69.962,63.272 C67.823,64.421 66.907,66.415 67.004,68.298 C66.907,70.291 67.823,72.271 69.962,73.420 L116.050,98.007 C118.091,99.156 120.536,99.682 122.994,99.682 C125.438,99.682 127.881,99.156 129.922,98.007 L176.011,73.420 Z"/>
<path fill-rule="evenodd"  fill="rgb(127, 127, 127)"
 d="M176.011,72.154 C178.149,71.005 179.163,69.012 178.969,67.129 C179.177,65.135 178.149,63.252 176.011,62.103 L129.922,37.433 C127.881,36.284 125.438,35.758 122.994,35.758 C120.549,35.758 118.091,36.284 116.050,37.433 L69.962,62.006 C67.823,63.155 66.907,65.149 67.004,67.032 C66.907,69.025 67.823,71.005 69.962,72.154 L116.050,96.741 C118.091,97.890 120.536,98.416 122.994,98.416 C125.438,98.416 127.881,97.890 129.922,96.741 L176.011,72.154 Z"/>
<path fill-rule="evenodd"  fill="rgb(98, 98, 98)"
 d="M176.011,68.420 C178.149,67.271 179.163,65.278 178.969,63.395 C179.177,61.401 178.149,59.518 176.011,58.369 L129.922,33.699 C127.881,32.550 125.438,32.024 122.994,32.024 C120.549,32.024 118.091,32.550 116.050,33.699 L69.962,58.272 C67.823,59.421 66.907,61.415 67.004,63.297 C66.907,65.291 67.823,67.271 69.962,68.420 L116.050,93.007 C118.091,94.156 120.536,94.682 122.994,94.682 C125.438,94.682 127.881,94.156 129.922,93.007 L176.011,68.420 Z"/>
<path fill-rule="evenodd"  fill="rgb(127, 127, 127)"
 d="M176.011,67.154 C178.149,66.005 179.163,64.012 178.969,62.129 C179.177,60.135 178.149,58.252 176.011,57.103 L129.922,32.433 C127.881,31.284 125.438,30.758 122.994,30.758 C120.549,30.758 118.091,31.284 116.050,32.433 L69.962,57.006 C67.823,58.155 66.907,60.149 67.004,62.032 C66.907,64.025 67.823,66.005 69.962,67.154 L116.050,91.741 C118.091,92.890 120.536,93.416 122.994,93.416 C125.438,93.416 127.881,92.890 129.922,91.741 L176.011,67.154 Z"/>
<path fill-rule="evenodd"  fill="rgb(98, 98, 98)"
 d="M176.011,63.420 C178.149,62.271 179.163,60.277 178.969,58.395 C179.177,56.401 178.149,54.518 176.011,53.369 L129.922,28.699 C127.881,27.550 125.438,27.024 122.994,27.024 C120.549,27.024 118.091,27.550 116.050,28.699 L69.962,53.272 C67.823,54.421 66.907,56.415 67.004,58.298 C66.907,60.291 67.823,62.271 69.962,63.420 L116.050,88.007 C118.091,89.156 120.536,89.682 122.994,89.682 C125.438,89.682 127.881,89.156 129.922,88.007 L176.011,63.420 Z"/>
<path fill-rule="evenodd"  fill="rgb(127, 127, 127)"
 d="M176.011,62.154 C178.149,61.005 179.163,59.012 178.969,57.129 C179.177,55.136 178.149,53.252 176.011,52.103 L129.922,27.433 C127.881,26.284 125.438,25.758 122.994,25.758 C120.549,25.758 118.091,26.284 116.050,27.433 L69.962,52.006 C67.823,53.155 66.907,55.149 67.004,57.032 C66.907,59.025 67.823,61.005 69.962,62.154 L116.050,86.741 C118.091,87.890 120.536,88.416 122.994,88.416 C125.438,88.416 127.881,87.890 129.922,86.741 L176.011,62.154 Z"/>
<path fill-rule="evenodd"  fill="rgb(98, 98, 98)"
 d="M176.011,58.420 C178.149,57.271 179.163,55.278 178.969,53.395 C179.177,51.401 178.149,49.518 176.011,48.369 L129.922,23.699 C127.881,22.550 125.438,22.024 122.994,22.024 C120.549,22.024 118.091,22.550 116.050,23.699 L69.962,48.272 C67.823,49.421 66.907,51.415 67.004,53.298 C66.907,55.291 67.823,57.271 69.962,58.420 L116.050,83.007 C118.091,84.156 120.536,84.682 122.994,84.682 C125.438,84.682 127.881,84.156 129.922,83.007 L176.011,58.420 Z"/>
<path fill-rule="evenodd"  fill="rgb(127, 127, 127)"
 d="M176.011,57.154 C178.149,56.005 179.163,54.011 178.969,52.129 C179.177,50.135 178.149,48.252 176.011,47.103 L129.922,22.433 C127.881,21.284 125.438,20.758 122.994,20.758 C120.549,20.758 118.091,21.284 116.050,22.433 L69.962,47.006 C67.823,48.155 66.907,50.149 67.004,52.032 C66.907,54.025 67.823,56.005 69.962,57.154 L116.050,81.741 C118.091,82.890 120.536,83.416 122.994,83.416 C125.438,83.416 127.881,82.890 129.922,81.741 L176.011,57.154 Z"/>
<path fill-rule="evenodd"  fill="rgb(98, 98, 98)"
 d="M176.011,53.420 C178.149,52.271 179.163,50.278 178.969,48.395 C179.177,46.401 178.149,44.518 176.011,43.369 L129.922,18.699 C127.881,17.550 125.438,17.024 122.994,17.024 C120.549,17.024 118.091,17.550 116.050,18.699 L69.962,43.273 C67.823,44.421 66.907,46.415 67.004,48.298 C66.907,50.291 67.823,52.271 69.962,53.420 L116.050,78.007 C118.091,79.156 120.536,79.682 122.994,79.682 C125.438,79.682 127.881,79.156 129.922,78.007 L176.011,53.420 Z"/>
<path fill-rule="evenodd"  fill="rgb(127, 127, 127)"
 d="M176.011,52.154 C178.149,51.005 179.163,49.011 178.969,47.129 C179.177,45.136 178.149,43.252 176.011,42.103 L129.922,17.433 C127.881,16.284 125.438,15.758 122.994,15.758 C120.549,15.758 118.091,16.284 116.050,17.433 L69.962,42.006 C67.823,43.156 66.907,45.149 67.004,47.032 C66.907,49.025 67.823,51.005 69.962,52.154 L116.050,76.741 C118.091,77.890 120.536,78.416 122.994,78.416 C125.438,78.416 127.881,77.890 129.922,76.741 L176.011,52.154 Z"/>
<path fill-rule="evenodd"  fill="rgb(98, 98, 98)"
 d="M176.011,48.420 C178.149,47.271 179.163,45.277 178.969,43.395 C179.177,41.402 178.149,39.518 176.011,38.369 L129.922,13.699 C127.881,12.550 125.438,12.024 122.994,12.024 C120.549,12.024 118.091,12.550 116.050,13.699 L69.962,38.272 C67.823,39.421 66.907,41.415 67.004,43.297 C66.907,45.291 67.823,47.271 69.962,48.420 L116.050,73.007 C118.091,74.156 120.536,74.682 122.994,74.682 C125.438,74.682 127.881,74.156 129.922,73.007 L176.011,48.420 Z"/>
<path fill-rule="evenodd"  fill="rgb(127, 127, 127)"
 d="M176.011,47.154 C178.149,46.005 179.163,44.011 178.969,42.129 C179.177,40.135 178.149,38.252 176.011,37.103 L129.922,12.433 C127.881,11.284 125.438,10.758 122.994,10.758 C120.549,10.758 118.091,11.284 116.050,12.433 L69.962,37.006 C67.823,38.156 66.907,40.149 67.004,42.032 C66.907,44.025 67.823,46.005 69.962,47.154 L116.050,71.741 C118.091,72.890 120.536,73.416 122.994,73.416 C125.438,73.416 127.881,72.890 129.922,71.741 L176.011,47.154 Z"/>
<path fill-rule="evenodd"  fill="rgb(98, 98, 98)"
 d="M176.011,43.420 C178.149,42.271 179.163,40.278 178.969,38.395 C179.177,36.401 178.149,34.518 176.011,33.369 L129.922,8.699 C127.881,7.550 125.438,7.024 122.994,7.024 C120.549,7.024 118.091,7.550 116.050,8.699 L69.962,33.272 C67.823,34.421 66.907,36.415 67.004,38.297 C66.907,40.291 67.823,42.271 69.962,43.420 L116.050,68.007 C118.091,69.156 120.536,69.682 122.994,69.682 C125.438,69.682 127.881,69.156 129.922,68.007 L176.011,43.420 Z"/>
<path fill-rule="evenodd"  fill="rgb(127, 127, 127)"
 d="M176.011,42.154 C178.149,41.005 179.163,39.012 178.969,37.129 C179.177,35.135 178.149,33.252 176.011,32.103 L129.922,7.433 C127.881,6.284 125.438,5.758 122.994,5.758 C120.549,5.758 118.091,6.284 116.050,7.433 L69.962,32.006 C67.823,33.156 66.907,35.149 67.004,37.031 C66.907,39.025 67.823,41.005 69.962,42.154 L116.050,66.741 C118.091,67.890 120.536,68.416 122.994,68.416 C125.438,68.416 127.881,67.890 129.922,66.741 L176.011,42.154 Z"/>
<path fill-rule="evenodd"  fill="rgb(108, 108, 108)"
 d="M176.011,38.420 C178.149,37.271 179.163,35.277 178.969,33.395 C179.177,31.401 178.149,29.518 176.011,28.369 L129.922,3.699 C127.881,2.550 125.438,2.024 122.994,2.024 C120.549,2.024 118.091,2.550 116.050,3.699 L69.962,28.272 C67.823,29.421 66.907,31.415 67.004,33.298 C66.907,35.291 67.823,37.271 69.962,38.420 L116.050,63.007 C118.091,64.156 120.536,64.682 122.994,64.682 C125.438,64.682 127.881,64.156 129.922,63.007 L176.011,38.420 Z"/>
<path fill-rule="evenodd"  fill="rgb(127, 127, 127)"
 d="M176.011,37.154 C178.149,36.005 179.163,34.012 178.969,32.129 C179.177,30.135 178.149,28.252 176.011,27.103 L129.922,2.433 C127.881,1.284 125.438,0.758 122.994,0.758 C120.549,0.758 118.091,1.284 116.050,2.433 L69.962,27.007 C67.823,28.156 66.907,30.149 67.004,32.032 C66.907,34.025 67.823,36.005 69.962,37.154 L116.050,61.741 C118.091,62.890 120.536,63.416 122.994,63.416 C125.438,63.416 127.881,62.890 129.922,61.741 L176.011,37.154 Z"/>
<path fill-rule="evenodd"  stroke="rgb(109, 109, 109)" stroke-width="1px" stroke-linecap="butt" stroke-linejoin="miter" fill="none"
 d="M164.686,36.050 C166.366,35.133 167.163,33.542 167.011,32.040 C167.174,30.450 166.366,28.946 164.686,28.029 L128.458,8.343 C126.854,7.426 124.933,7.006 123.012,7.006 C121.091,7.006 119.159,7.426 117.554,8.343 L81.327,27.952 C79.647,28.869 78.926,30.460 79.002,31.962 C78.926,33.553 79.647,35.133 81.327,36.050 L117.554,55.671 C119.159,56.587 121.080,57.007 123.012,57.007 C124.933,57.007 126.854,56.587 128.458,55.671 L164.686,36.050 Z"/>
<path fill-rule="evenodd"  stroke="rgb(109, 109, 109)" stroke-width="1px" stroke-linecap="butt" stroke-linejoin="miter" fill="none"
 d="M125.457,12.249 L123.853,11.540 L120.108,13.195 L127.597,13.195 L128.934,14.141 L117.433,14.141 L115.025,15.324 L132.144,15.324 L134.284,16.743 L112.618,16.743 L110.746,17.926 L137.226,17.926 L139.901,19.345 L107.536,19.345 L105.129,20.764 L143.111,20.764 L145.251,22.183 L102.187,22.183 L100.314,23.366 L148.728,23.602 L150.868,24.785 L96.570,25.021 L94.430,26.204 L154.345,26.440 L156.217,27.623 L91.487,27.859 L89.347,29.278 L159.100,29.278 L161.241,30.698 L85.603,30.698 L84.634,31.880 L162.519,32.353 L161.776,33.773 L86.137,33.773 L88.010,34.955 L157.822,35.428 L155.682,36.847 L92.290,36.847 L94.162,38.030 L153.007,38.030 L151.403,39.449 L97.640,39.449 L99.244,40.632 L147.123,40.868 L145.251,42.287 L102.989,42.287 L104.861,43.470 L141.774,43.470 L139.901,44.889 L108.339,45.125 L110.211,46.308 L135.622,46.545 L133.749,47.963 L114.758,47.963 L116.630,49.383 L130.272,49.146 L128.667,50.565 L120.643,50.802 L123.853,52.458 L125.725,51.748 "/>
<path fill-rule="evenodd"  opacity="0.302" fill="rgb(0, 0, 0)"
 d="M179.094,90.767 C179.094,90.495 179.096,90.220 179.097,89.942 C179.193,69.474 179.180,30.644 178.969,32.129 C179.163,35.088 178.137,36.850 175.999,37.999 L134.999,59.999 C132.958,61.148 125.022,64.288 123.999,63.999 C123.989,63.996 124.969,65.686 124.939,66.927 C124.924,67.532 123.907,68.268 123.889,69.118 C123.875,69.781 124.859,70.513 124.842,71.306 C124.827,72.039 123.811,72.825 123.794,73.658 C123.778,74.421 124.762,75.223 124.746,76.060 C124.729,76.874 123.713,77.721 123.695,78.596 C123.677,79.536 124.658,80.509 124.639,81.509 C124.623,82.301 123.608,83.111 123.592,83.935 C123.574,84.813 124.558,85.707 124.540,86.615 C124.530,87.188 123.518,87.767 123.507,88.350 C123.490,89.270 124.472,90.201 124.454,91.139 C124.438,91.989 123.422,92.846 123.406,93.707 C123.389,94.588 124.373,95.474 124.356,96.362 C124.340,97.255 123.323,98.150 123.306,99.045 C123.290,99.895 124.275,100.744 124.259,101.590 C124.245,102.336 123.231,103.080 123.218,103.821 C123.204,104.600 124.189,105.375 124.175,106.145 C124.158,107.032 123.142,107.912 123.126,108.782 C123.110,109.662 124.094,110.532 124.078,111.389 C124.064,112.184 123.049,112.969 123.035,113.739 C123.019,114.589 124.005,115.422 123.989,116.236 C123.975,117.049 122.960,117.844 122.946,118.615 C122.928,119.597 123.952,119.097 124.000,120.000 C124.001,120.032 125.000,119.967 124.999,120.000 C124.987,120.671 168.893,97.882 176.999,92.999 C177.807,92.513 179.094,90.827 179.094,90.767 Z"/>
<path fill-rule="evenodd"  stroke="rgb(28, 227, 107)" stroke-width="2px" stroke-linecap="butt" stroke-linejoin="miter" fill="none"
 d="M230.000,10.999 C239.941,10.999 248.000,15.029 248.000,20.000 C248.000,24.970 239.941,28.999 230.000,28.999 C220.059,28.999 212.000,24.970 212.000,20.000 C212.000,15.029 220.059,10.999 230.000,10.999 Z"/>
<path fill-rule="evenodd"  stroke="rgb(28, 227, 107)" stroke-width="2px" stroke-linecap="butt" stroke-linejoin="miter" fill="none"
 d="M230.000,12.906 C238.379,12.906 245.172,16.082 245.172,20.000 C245.172,23.917 238.379,27.093 230.000,27.093 C221.620,27.093 214.828,23.917 214.828,20.000 C214.828,16.082 221.620,12.906 230.000,12.906 Z"/>
<path fill-rule="evenodd"  stroke="rgb(28, 227, 107)" stroke-width="2px" stroke-linecap="butt" stroke-linejoin="miter" fill="none"
 d="M230.000,14.781 C237.321,14.781 243.257,17.117 243.257,20.000 C243.257,22.882 237.321,25.218 230.000,25.218 C222.678,25.218 216.743,22.882 216.743,20.000 C216.743,17.117 222.678,14.781 230.000,14.781 Z"/>
<path fill-rule="evenodd"  stroke="rgb(28, 227, 107)" stroke-width="2px" stroke-linecap="butt" stroke-linejoin="miter" fill="none"
 d="M230.000,16.687 C235.759,16.687 240.429,18.170 240.429,20.000 C240.429,21.829 235.759,23.312 230.000,23.312 C224.240,23.312 219.571,21.829 219.571,20.000 C219.571,18.170 224.240,16.687 230.000,16.687 Z"/>
<path fill-rule="evenodd"  stroke="rgb(28, 227, 107)" stroke-width="2px" stroke-linecap="butt" stroke-linejoin="miter" fill="none"
 d="M230.000,18.593 C233.660,18.593 236.628,19.223 236.628,20.000 C236.628,20.776 233.660,21.406 230.000,21.406 C226.339,21.406 223.371,20.776 223.371,20.000 C223.371,19.223 226.339,18.593 230.000,18.593 Z"/>
<path fill-rule="evenodd"  stroke="rgb(28, 227, 107)" stroke-width="2px" stroke-linecap="butt" stroke-linejoin="miter" fill="none"
 d="M247.039,50.616 C247.726,50.250 248.052,49.613 247.990,49.013 C248.057,48.377 247.726,47.776 247.039,47.409 L232.225,39.537 C231.569,39.170 230.783,39.003 229.998,39.003 C229.212,39.003 228.422,39.170 227.766,39.537 L212.952,47.378 C212.264,47.745 211.970,48.381 212.001,48.982 C211.970,49.618 212.264,50.250 212.952,50.616 L227.766,58.462 C228.422,58.828 229.208,58.996 229.998,58.996 C230.783,58.996 231.569,58.828 232.225,58.462 L247.039,50.616 Z"/>
<path fill-rule="evenodd"  stroke="rgb(255, 255, 255)" stroke-width="2px" stroke-linecap="butt" stroke-linejoin="miter" fill="none"
 d="M244.195,50.093 C244.768,49.799 245.039,49.488 244.987,49.007 C245.043,48.498 244.768,48.215 244.195,47.921 L231.853,41.425 C231.307,41.131 230.652,40.997 229.998,40.997 C229.343,40.997 228.685,41.131 228.139,41.425 L215.797,47.897 C215.225,48.190 214.979,48.501 215.005,48.982 C214.979,49.491 215.225,49.799 215.797,50.093 L228.139,56.568 C228.685,56.861 229.340,56.996 229.998,56.996 C230.652,56.996 231.307,56.861 231.853,56.568 L244.195,50.093 Z"/>
<path fill-rule="evenodd"  stroke="rgb(255, 255, 255)" stroke-width="2px" stroke-linecap="butt" stroke-linejoin="miter" fill="none"
 d="M247.039,80.616 C247.726,80.249 248.052,79.613 247.990,79.013 C248.057,78.377 247.726,77.776 247.039,77.409 L232.225,69.537 C231.569,69.170 230.783,69.003 229.998,69.003 C229.212,69.003 228.422,69.170 227.766,69.537 L212.952,77.378 C212.264,77.745 211.970,78.381 212.001,78.982 C211.970,79.618 212.264,80.249 212.952,80.616 L227.766,88.461 C228.422,88.828 229.208,88.996 229.998,88.996 C230.783,88.996 231.569,88.828 232.225,88.461 L247.039,80.616 Z"/>
<path fill-rule="evenodd"  stroke="rgb(28, 227, 107)" stroke-width="2px" stroke-linecap="butt" stroke-linejoin="miter" fill="none"
 d="M244.195,80.093 C244.768,79.799 245.039,79.488 244.987,79.007 C245.043,78.498 244.768,78.215 244.195,77.921 L231.853,71.425 C231.307,71.131 230.652,70.997 229.998,70.997 C229.343,70.997 228.685,71.131 228.139,71.425 L215.797,77.897 C215.225,78.190 214.979,78.502 215.005,78.982 C214.979,79.491 215.225,79.799 215.797,80.093 L228.139,86.568 C228.685,86.862 229.340,86.996 229.998,86.996 C230.652,86.996 231.307,86.862 231.853,86.568 L244.195,80.093 Z"/>
</svg>
