<svg 
 xmlns="http://www.w3.org/2000/svg"
 xmlns:xlink="http://www.w3.org/1999/xlink"
 width="197.5px" height="148px">
<defs>
<filter id="Filter_0">
                <feOffset in="SourceAlpha" dx="0" dy="-4" />
                <feGaussianBlur result="blurOut" stdDeviation="1" />
                <feFlood flood-color="rgb(44, 44, 46)" result="floodOut" />
                <feComposite operator="out" in="floodOut" in2="blurOut" result="compOut" />
                <feComposite operator="in" in="compOut" in2="SourceAlpha" />
                <feComponentTransfer><feFuncA type="linear" slope="1"/></feComponentTransfer>
                <feBlend mode="normal" in2="SourceGraphic" />
            </filter>

</defs>
<path fill-rule="evenodd"  fill="none"
 d="M87.000,141.500 L111.000,141.500 L111.000,147.500 L87.000,147.500 L87.000,141.500 Z"/>
<path fill-rule="evenodd"  fill="rgb(40, 40, 42)"
 d="M97.999,121.500 C106.284,121.500 112.999,124.634 112.999,128.500 C112.999,132.366 106.284,135.500 97.999,135.500 C89.715,135.500 82.999,132.366 82.999,128.500 C82.999,124.634 89.715,121.500 97.999,121.500 Z"/>
<path fill-rule="evenodd"  fill="rgb(40, 40, 42)"
 d="M11.999,76.499 C18.074,76.499 22.999,79.634 22.999,83.500 C22.999,87.366 18.074,90.500 11.999,90.500 C5.924,90.500 0.999,87.366 0.999,83.500 C0.999,79.634 5.924,76.499 11.999,76.499 Z"/>
<path fill-rule="evenodd"  fill="rgb(40, 40, 42)"
 d="M183.999,76.499 C190.074,76.499 194.999,79.634 194.999,83.500 C194.999,87.366 190.074,90.500 183.999,90.500 C177.924,90.500 172.999,87.366 172.999,83.500 C172.999,79.634 177.924,76.499 183.999,76.499 Z"/>
<g filter="url(#Filter_0)">
<path fill-rule="evenodd"  fill="rgb(56, 56, 58)"
 d="M189.828,86.388 C193.532,84.371 195.288,80.872 194.952,77.566 C195.312,74.067 193.532,70.760 189.828,68.743 L109.994,25.432 C106.459,23.415 102.224,22.491 97.992,22.491 C93.757,22.491 89.499,23.415 85.964,25.432 L6.131,68.573 C2.426,70.591 0.839,74.090 1.007,77.396 C0.839,80.895 2.426,84.371 6.131,86.388 L85.964,129.554 C89.499,131.571 93.734,132.494 97.992,132.494 C102.224,132.494 106.459,131.571 109.994,129.554 L189.828,86.388 Z"/>
</g>
<path fill-rule="evenodd"  fill="rgb(204, 198, 23)"
 d="M153.011,81.655 C155.150,80.506 156.163,78.512 155.969,76.629 C156.177,74.636 155.150,72.752 153.011,71.603 L106.922,46.933 C104.881,45.784 102.437,45.258 99.993,45.258 C97.549,45.258 95.091,45.784 93.050,46.933 L46.961,71.507 C44.823,72.656 43.906,74.649 44.003,76.532 C43.906,78.526 44.823,80.506 46.961,81.655 L93.050,106.241 C95.091,107.391 97.535,107.916 99.993,107.916 C102.437,107.916 104.881,107.391 106.922,106.241 L153.011,81.655 Z"/>
<path fill-rule="evenodd"  fill="rgb(143, 139, 17)"
 d="M101.999,109.500 C101.999,109.500 99.999,108.219 99.999,106.500 C99.999,104.720 100.999,102.500 100.999,102.500 L155.999,71.500 L156.999,80.500 L101.999,109.500 Z"/>
<path fill-rule="evenodd"  fill="rgb(23, 204, 95)"
 d="M153.011,76.655 C155.150,75.505 156.163,73.512 155.969,71.629 C156.177,69.636 155.150,67.752 153.011,66.603 L106.922,41.933 C104.881,40.784 102.437,40.258 99.993,40.258 C97.549,40.258 95.091,40.784 93.050,41.933 L46.961,66.507 C44.823,67.656 43.906,69.649 44.003,71.532 C43.906,73.525 44.823,75.505 46.961,76.655 L93.050,101.241 C95.091,102.391 97.535,102.916 99.993,102.916 C102.437,102.916 104.881,102.391 106.922,101.241 L153.011,76.655 Z"/>
<path fill-rule="evenodd"  opacity="0.302" fill="rgb(0, 0, 0)"
 d="M101.999,104.500 C101.999,104.500 99.999,103.219 99.999,101.499 C99.999,99.720 100.999,97.499 100.999,97.499 L155.999,66.500 L156.999,75.500 L101.999,104.500 Z"/>
<path fill-rule="evenodd"  fill="rgb(28, 227, 107)"
 d="M153.011,71.655 C155.150,70.505 156.163,68.512 155.969,66.629 C156.177,64.636 155.150,62.753 153.011,61.603 L106.922,36.934 C104.881,35.784 102.437,35.258 99.993,35.258 C97.549,35.258 95.091,35.784 93.050,36.934 L46.961,61.507 C44.823,62.656 43.906,64.649 44.003,66.532 C43.906,68.525 44.823,70.505 46.961,71.655 L93.050,96.241 C95.091,97.390 97.535,97.916 99.993,97.916 C102.437,97.916 104.881,97.390 106.922,96.241 L153.011,71.655 Z"/>
<path fill-rule="evenodd"  fill="rgb(204, 198, 23)"
 d="M153.011,72.655 C155.150,71.506 156.163,69.512 155.969,67.629 C156.177,65.636 155.150,63.752 153.011,62.603 L106.922,37.933 C104.881,36.784 102.437,36.258 99.993,36.258 C97.549,36.258 95.091,36.784 93.050,37.933 L46.961,62.507 C44.823,63.656 43.906,65.649 44.003,67.532 C43.906,69.525 44.823,71.506 46.961,72.655 L93.050,97.241 C95.091,98.391 97.535,98.916 99.993,98.916 C102.437,98.916 104.881,98.391 106.922,97.241 L153.011,72.655 Z"/>
<path fill-rule="evenodd"  fill="rgb(143, 139, 17)"
 d="M101.999,100.500 C101.999,100.500 99.999,99.219 99.999,97.499 C99.999,95.720 100.999,93.499 100.999,93.499 L155.999,62.500 L156.999,71.500 L101.999,100.500 Z"/>
<path fill-rule="evenodd"  fill="rgb(229, 222, 33)"
 d="M153.011,67.655 C155.150,66.505 156.163,64.512 155.969,62.629 C156.177,60.636 155.150,58.753 153.011,57.604 L106.922,32.934 C104.881,31.784 102.437,31.258 99.993,31.258 C97.549,31.258 95.091,31.784 93.050,32.934 L46.961,57.507 C44.823,58.656 43.906,60.649 44.003,62.532 C43.906,64.525 44.823,66.505 46.961,67.655 L93.050,92.242 C95.091,93.391 97.535,93.917 99.993,93.917 C102.437,93.917 104.881,93.391 106.922,92.242 L153.011,67.655 Z"/>
<path fill-rule="evenodd"  stroke="rgb(204, 198, 23)" stroke-width="1px" stroke-linecap="butt" stroke-linejoin="miter" fill="none"
 d="M141.685,66.551 C143.366,65.634 144.163,64.043 144.010,62.541 C144.174,60.950 143.366,59.447 141.685,58.530 L105.458,38.843 C103.854,37.926 101.933,37.506 100.012,37.506 C98.091,37.506 96.159,37.926 94.554,38.843 L58.327,58.453 C56.646,59.370 55.926,60.961 56.002,62.463 C55.926,64.054 56.646,65.634 58.327,66.551 L94.554,86.171 C96.159,87.088 98.080,87.508 100.012,87.508 C101.933,87.508 103.854,87.088 105.458,86.171 L141.685,66.551 Z"/>
<path fill-rule="evenodd"  fill="rgb(16, 142, 66)"
 d="M58.999,62.499 L98.999,83.499 L138.999,62.499 L98.999,40.499 L58.999,62.499 Z"/>
<path fill-rule="evenodd"  stroke="rgb(28, 227, 107)" stroke-width="1px" stroke-linecap="butt" stroke-linejoin="miter" fill="none"
 d="M100.457,42.750 L98.852,42.040 L95.107,43.696 L102.596,43.696 L103.934,44.642 L92.432,44.642 L90.025,45.825 L107.144,45.825 L109.284,47.243 L87.618,47.243 L85.745,48.426 L112.226,48.426 L114.901,49.845 L82.536,49.845 L80.128,51.264 L118.110,51.264 L120.250,52.683 L77.186,52.683 L75.314,53.866 L123.727,54.102 L125.867,55.285 L71.569,55.522 L69.429,56.704 L129.344,56.941 L131.217,58.124 L66.487,58.360 L64.347,59.779 L134.100,59.779 L136.240,61.198 L60.602,61.198 L59.634,62.381 L137.519,62.854 L136.775,64.273 L61.137,64.273 L63.009,65.456 L132.822,65.929 L130.682,67.348 L67.289,67.348 L69.162,68.530 L128.007,68.530 L126.402,69.949 L72.639,69.949 L74.244,71.132 L122.123,71.368 L120.250,72.788 L77.988,72.788 L79.861,73.970 L116.773,73.970 L114.901,75.389 L83.338,75.626 L85.210,76.808 L110.621,77.045 L108.749,78.464 L89.757,78.464 L91.630,79.883 L105.271,79.647 L103.666,81.066 L95.642,81.302 L98.852,82.958 L100.724,82.248 "/>
<path fill-rule="evenodd"  stroke="rgb(127, 127, 127)" stroke-width="1px" stroke-dasharray="4, 2" stroke-linecap="butt" stroke-linejoin="miter" fill="none"
 d="M153.011,37.654 C155.150,36.505 156.163,34.512 155.969,32.629 C156.177,30.636 155.150,28.752 153.011,27.603 L106.922,2.933 C104.881,1.784 102.437,1.258 99.993,1.258 C97.549,1.258 95.091,1.784 93.050,2.933 L46.961,27.507 C44.823,28.655 43.906,30.649 44.003,32.532 C43.906,34.525 44.823,36.505 46.961,37.654 L93.050,62.241 C95.091,63.390 97.535,63.916 99.993,63.916 C102.437,63.916 104.881,63.390 106.922,62.241 L153.011,37.654 Z"/>
<path fill-rule="evenodd"  stroke="rgb(127, 127, 127)" stroke-width="1px" stroke-dasharray="4, 2" stroke-linecap="butt" stroke-linejoin="miter" fill="none"
 d="M44.999,37.499 L44.999,57.499 "/>
<path fill-rule="evenodd"  stroke="rgb(127, 127, 127)" stroke-width="1px" stroke-dasharray="4, 2" stroke-linecap="butt" stroke-linejoin="miter" fill="none"
 d="M155.998,37.499 L155.998,57.499 "/>
<path fill-rule="evenodd"  stroke="rgb(127, 127, 127)" stroke-width="1px" stroke-dasharray="4, 2" stroke-linecap="butt" stroke-linejoin="miter" fill="none"
 d="M100.998,65.499 L100.998,92.499 "/>
<path fill-rule="evenodd"  stroke="rgb(127, 127, 127)" stroke-width="1px" stroke-dasharray="4, 2" stroke-linecap="butt" stroke-linejoin="miter" fill="none"
 d="M100.998,3.499 L100.998,30.499 "/>
<path fill-rule="evenodd"  fill="rgb(23, 204, 95)"
 d="M137.000,29.500 C137.552,29.500 138.000,29.948 138.000,30.500 L138.000,62.500 C138.000,63.052 137.552,63.500 137.000,63.500 C136.448,63.500 136.000,63.052 136.000,62.500 L136.000,30.500 C136.000,29.948 136.448,29.500 137.000,29.500 Z"/>
<path fill-rule="evenodd"  fill="rgb(183, 183, 183)"
 d="M122.010,0.842 C122.010,0.842 121.986,20.000 122.010,20.328 C122.035,20.656 122.439,21.567 123.785,22.900 C125.131,24.233 135.688,36.086 135.852,36.271 C136.015,36.456 136.181,36.784 136.739,36.785 C137.297,36.787 137.769,36.323 138.158,35.928 C138.548,35.533 150.320,22.387 150.757,21.871 C151.195,21.355 151.641,20.541 151.644,19.128 C151.648,17.716 151.644,0.842 151.644,0.842 L122.010,0.842 Z"/>
<path fill-rule="evenodd"  fill="rgb(207, 207, 207)"
 d="M123.607,22.557 C123.607,22.557 124.446,23.571 126.092,24.271 C128.711,25.385 133.132,26.343 137.626,25.985 C144.944,25.403 149.515,23.928 149.515,23.928 L137.449,36.957 L135.674,36.785 L123.430,22.900 L123.607,22.557 Z"/>
<path fill-rule="evenodd"  fill="rgb(127, 127, 127)"
 d="M145.966,0.500 L145.966,24.614 L137.271,36.957 L137.626,36.957 C137.626,36.957 151.420,21.457 151.822,20.671 C152.224,19.885 151.822,0.500 151.822,0.500 L145.966,0.500 Z"/>
<path fill-rule="evenodd"  fill="rgb(249, 249, 249)"
 d="M125.914,0.842 L125.914,24.100 L136.561,36.785 L132.835,25.814 L133.012,0.671 L125.914,0.842 Z"/>
</svg>
