<svg 
 xmlns="http://www.w3.org/2000/svg"
 xmlns:xlink="http://www.w3.org/1999/xlink"
 width="113.5px" height="147.5px">
<path fill-rule="evenodd"  fill="none"
 d="M44.000,139.000 L70.000,139.000 L70.000,147.000 L44.000,147.000 L44.000,139.000 Z"/>
<path fill-rule="evenodd"  fill="rgb(127, 127, 127)"
 d="M109.011,106.749 C111.150,105.600 112.163,103.607 111.969,101.724 C112.177,99.731 111.150,97.847 109.011,96.698 L62.922,72.028 C60.881,70.879 58.437,70.353 55.994,70.353 C53.549,70.353 51.091,70.879 49.050,72.028 L2.962,96.602 C0.823,97.750 -0.093,99.744 0.004,101.627 C-0.093,103.620 0.823,105.600 2.962,106.749 L49.050,131.336 C51.091,132.485 53.536,133.011 55.994,133.011 C58.437,133.011 60.881,132.485 62.922,131.336 L109.011,106.749 Z"/>
<path fill-rule="evenodd"  fill="rgb(98, 98, 98)"
 d="M109.011,103.420 C111.150,102.271 112.163,100.278 111.969,98.395 C112.177,96.401 111.150,94.518 109.011,93.369 L62.922,68.699 C60.881,67.550 58.437,67.024 55.994,67.024 C53.549,67.024 51.091,67.550 49.050,68.699 L2.962,93.273 C0.823,94.422 -0.093,96.415 0.004,98.298 C-0.093,100.291 0.823,102.271 2.962,103.420 L49.050,128.007 C51.091,129.156 53.536,129.682 55.994,129.682 C58.437,129.682 60.881,129.156 62.922,128.007 L109.011,103.420 Z"/>
<path fill-rule="evenodd"  fill="rgb(127, 127, 127)"
 d="M109.011,102.154 C111.150,101.005 112.163,99.012 111.969,97.129 C112.177,95.136 111.150,93.253 109.011,92.103 L62.922,67.433 C60.881,66.284 58.437,65.758 55.994,65.758 C53.549,65.758 51.091,66.284 49.050,67.433 L2.962,92.007 C0.823,93.156 -0.093,95.149 0.004,97.032 C-0.093,99.025 0.823,101.005 2.962,102.154 L49.050,126.741 C51.091,127.890 53.536,128.416 55.994,128.416 C58.437,128.416 60.881,127.890 62.922,126.741 L109.011,102.154 Z"/>
<path fill-rule="evenodd"  fill="rgb(98, 98, 98)"
 d="M109.011,98.420 C111.150,97.271 112.163,95.278 111.969,93.395 C112.177,91.402 111.150,89.518 109.011,88.369 L62.922,63.699 C60.881,62.550 58.437,62.024 55.994,62.024 C53.549,62.024 51.091,62.550 49.050,63.699 L2.962,88.272 C0.823,89.422 -0.093,91.415 0.004,93.298 C-0.093,95.291 0.823,97.271 2.962,98.420 L49.050,123.007 C51.091,124.156 53.536,124.682 55.994,124.682 C58.437,124.682 60.881,124.156 62.922,123.007 L109.011,98.420 Z"/>
<path fill-rule="evenodd"  fill="rgb(127, 127, 127)"
 d="M109.011,97.154 C111.150,96.005 112.163,94.012 111.969,92.129 C112.177,90.136 111.150,88.253 109.011,87.103 L62.922,62.434 C60.881,61.284 58.437,60.758 55.994,60.758 C53.549,60.758 51.091,61.284 49.050,62.434 L2.962,87.007 C0.823,88.156 -0.093,90.149 0.004,92.032 C-0.093,94.025 0.823,96.005 2.962,97.154 L49.050,121.741 C51.091,122.890 53.536,123.416 55.994,123.416 C58.437,123.416 60.881,122.890 62.922,121.741 L109.011,97.154 Z"/>
<path fill-rule="evenodd"  fill="rgb(98, 98, 98)"
 d="M109.011,93.420 C111.150,92.271 112.163,90.278 111.969,88.395 C112.177,86.402 111.150,84.518 109.011,83.369 L62.922,58.699 C60.881,57.550 58.437,57.024 55.994,57.024 C53.549,57.024 51.091,57.550 49.050,58.699 L2.962,83.272 C0.823,84.421 -0.093,86.415 0.004,88.298 C-0.093,90.291 0.823,92.271 2.962,93.420 L49.050,118.007 C51.091,119.156 53.536,119.682 55.994,119.682 C58.437,119.682 60.881,119.156 62.922,118.007 L109.011,93.420 Z"/>
<path fill-rule="evenodd"  fill="rgb(127, 127, 127)"
 d="M109.011,92.154 C111.150,91.006 112.163,89.012 111.969,87.129 C112.177,85.136 111.150,83.252 109.011,82.103 L62.922,57.433 C60.881,56.284 58.437,55.758 55.994,55.758 C53.549,55.758 51.091,56.284 49.050,57.433 L2.962,82.006 C0.823,83.156 -0.093,85.149 0.004,87.032 C-0.093,89.025 0.823,91.006 2.962,92.154 L49.050,116.741 C51.091,117.891 53.536,118.416 55.994,118.416 C58.437,118.416 60.881,117.891 62.922,116.741 L109.011,92.154 Z"/>
<path fill-rule="evenodd"  fill="rgb(98, 98, 98)"
 d="M109.011,88.420 C111.150,87.271 112.163,85.278 111.969,83.395 C112.177,81.402 111.150,79.518 109.011,78.369 L62.922,53.699 C60.881,52.550 58.437,52.024 55.994,52.024 C53.549,52.024 51.091,52.550 49.050,53.699 L2.962,78.272 C0.823,79.422 -0.093,81.415 0.004,83.298 C-0.093,85.291 0.823,87.271 2.962,88.420 L49.050,113.007 C51.091,114.156 53.536,114.682 55.994,114.682 C58.437,114.682 60.881,114.156 62.922,113.007 L109.011,88.420 Z"/>
<path fill-rule="evenodd"  fill="rgb(127, 127, 127)"
 d="M109.011,87.154 C111.150,86.005 112.163,84.012 111.969,82.129 C112.177,80.136 111.150,78.252 109.011,77.103 L62.922,52.433 C60.881,51.284 58.437,50.758 55.994,50.758 C53.549,50.758 51.091,51.284 49.050,52.433 L2.962,77.006 C0.823,78.156 -0.093,80.149 0.004,82.032 C-0.093,84.025 0.823,86.005 2.962,87.154 L49.050,111.741 C51.091,112.891 53.536,113.416 55.994,113.416 C58.437,113.416 60.881,112.891 62.922,111.741 L109.011,87.154 Z"/>
<path fill-rule="evenodd"  fill="rgb(98, 98, 98)"
 d="M109.011,83.420 C111.150,82.271 112.163,80.278 111.969,78.395 C112.177,76.401 111.150,74.518 109.011,73.369 L62.922,48.699 C60.881,47.550 58.437,47.024 55.994,47.024 C53.549,47.024 51.091,47.550 49.050,48.699 L2.962,73.273 C0.823,74.421 -0.093,76.415 0.004,78.298 C-0.093,80.291 0.823,82.271 2.962,83.420 L49.050,108.007 C51.091,109.156 53.536,109.682 55.994,109.682 C58.437,109.682 60.881,109.156 62.922,108.007 L109.011,83.420 Z"/>
<path fill-rule="evenodd"  fill="rgb(127, 127, 127)"
 d="M109.011,82.154 C111.150,81.005 112.163,79.012 111.969,77.129 C112.177,75.135 111.150,73.252 109.011,72.103 L62.922,47.433 C60.881,46.284 58.437,45.758 55.994,45.758 C53.549,45.758 51.091,46.284 49.050,47.433 L2.962,72.007 C0.823,73.156 -0.093,75.149 0.004,77.031 C-0.093,79.025 0.823,81.005 2.962,82.154 L49.050,106.741 C51.091,107.890 53.536,108.416 55.994,108.416 C58.437,108.416 60.881,107.890 62.922,106.741 L109.011,82.154 Z"/>
<path fill-rule="evenodd"  fill="rgb(98, 98, 98)"
 d="M109.011,78.420 C111.150,77.271 112.163,75.278 111.969,73.395 C112.177,71.402 111.150,69.518 109.011,68.369 L62.922,43.699 C60.881,42.550 58.437,42.024 55.994,42.024 C53.549,42.024 51.091,42.550 49.050,43.699 L2.962,68.273 C0.823,69.422 -0.093,71.415 0.004,73.298 C-0.093,75.291 0.823,77.271 2.962,78.420 L49.050,103.007 C51.091,104.156 53.536,104.682 55.994,104.682 C58.437,104.682 60.881,104.156 62.922,103.007 L109.011,78.420 Z"/>
<path fill-rule="evenodd"  fill="rgb(127, 127, 127)"
 d="M109.011,77.154 C111.150,76.005 112.163,74.012 111.969,72.129 C112.177,70.136 111.150,68.253 109.011,67.103 L62.922,42.433 C60.881,41.284 58.437,40.758 55.994,40.758 C53.549,40.758 51.091,41.284 49.050,42.433 L2.962,67.007 C0.823,68.156 -0.093,70.149 0.004,72.032 C-0.093,74.025 0.823,76.005 2.962,77.154 L49.050,101.741 C51.091,102.891 53.536,103.417 55.994,103.417 C58.437,103.417 60.881,102.891 62.922,101.741 L109.011,77.154 Z"/>
<path fill-rule="evenodd"  fill="rgb(98, 98, 98)"
 d="M109.011,73.420 C111.150,72.271 112.163,70.278 111.969,68.395 C112.177,66.402 111.150,64.518 109.011,63.369 L62.922,38.699 C60.881,37.550 58.437,37.024 55.994,37.024 C53.549,37.024 51.091,37.550 49.050,38.699 L2.962,63.272 C0.823,64.422 -0.093,66.415 0.004,68.298 C-0.093,70.291 0.823,72.271 2.962,73.420 L49.050,98.007 C51.091,99.156 53.536,99.682 55.994,99.682 C58.437,99.682 60.881,99.156 62.922,98.007 L109.011,73.420 Z"/>
<path fill-rule="evenodd"  fill="rgb(127, 127, 127)"
 d="M109.011,72.154 C111.150,71.005 112.163,69.012 111.969,67.129 C112.177,65.136 111.150,63.252 109.011,62.103 L62.922,37.433 C60.881,36.284 58.437,35.758 55.994,35.758 C53.549,35.758 51.091,36.284 49.050,37.433 L2.962,62.007 C0.823,63.155 -0.093,65.149 0.004,67.032 C-0.093,69.025 0.823,71.005 2.962,72.154 L49.050,96.741 C51.091,97.890 53.536,98.416 55.994,98.416 C58.437,98.416 60.881,97.890 62.922,96.741 L109.011,72.154 Z"/>
<path fill-rule="evenodd"  fill="rgb(98, 98, 98)"
 d="M109.011,68.420 C111.150,67.271 112.163,65.278 111.969,63.395 C112.177,61.402 111.150,59.518 109.011,58.369 L62.922,33.699 C60.881,32.550 58.437,32.024 55.994,32.024 C53.549,32.024 51.091,32.550 49.050,33.699 L2.962,58.272 C0.823,59.422 -0.093,61.415 0.004,63.298 C-0.093,65.291 0.823,67.271 2.962,68.420 L49.050,93.007 C51.091,94.156 53.536,94.682 55.994,94.682 C58.437,94.682 60.881,94.156 62.922,93.007 L109.011,68.420 Z"/>
<path fill-rule="evenodd"  fill="rgb(127, 127, 127)"
 d="M109.011,67.154 C111.150,66.005 112.163,64.012 111.969,62.129 C112.177,60.136 111.150,58.253 109.011,57.103 L62.922,32.434 C60.881,31.284 58.437,30.758 55.994,30.758 C53.549,30.758 51.091,31.284 49.050,32.434 L2.962,57.007 C0.823,58.156 -0.093,60.149 0.004,62.032 C-0.093,64.025 0.823,66.005 2.962,67.154 L49.050,91.741 C51.091,92.890 53.536,93.416 55.994,93.416 C58.437,93.416 60.881,92.890 62.922,91.741 L109.011,67.154 Z"/>
<path fill-rule="evenodd"  fill="rgb(98, 98, 98)"
 d="M109.011,63.420 C111.150,62.271 112.163,60.278 111.969,58.395 C112.177,56.402 111.150,54.518 109.011,53.369 L62.922,28.699 C60.881,27.550 58.437,27.024 55.994,27.024 C53.549,27.024 51.091,27.550 49.050,28.699 L2.962,53.272 C0.823,54.422 -0.093,56.415 0.004,58.298 C-0.093,60.291 0.823,62.271 2.962,63.420 L49.050,88.007 C51.091,89.156 53.536,89.682 55.994,89.682 C58.437,89.682 60.881,89.156 62.922,88.007 L109.011,63.420 Z"/>
<path fill-rule="evenodd"  fill="rgb(127, 127, 127)"
 d="M109.011,62.154 C111.150,61.005 112.163,59.012 111.969,57.129 C112.177,55.136 111.150,53.253 109.011,52.103 L62.922,27.433 C60.881,26.284 58.437,25.758 55.994,25.758 C53.549,25.758 51.091,26.284 49.050,27.433 L2.962,52.007 C0.823,53.156 -0.093,55.149 0.004,57.032 C-0.093,59.025 0.823,61.005 2.962,62.154 L49.050,86.741 C51.091,87.890 53.536,88.416 55.994,88.416 C58.437,88.416 60.881,87.890 62.922,86.741 L109.011,62.154 Z"/>
<path fill-rule="evenodd"  fill="rgb(98, 98, 98)"
 d="M109.011,58.420 C111.150,57.271 112.163,55.278 111.969,53.395 C112.177,51.401 111.150,49.518 109.011,48.369 L62.922,23.699 C60.881,22.550 58.437,22.024 55.994,22.024 C53.549,22.024 51.091,22.550 49.050,23.699 L2.962,48.272 C0.823,49.421 -0.093,51.415 0.004,53.298 C-0.093,55.291 0.823,57.271 2.962,58.420 L49.050,83.007 C51.091,84.156 53.536,84.682 55.994,84.682 C58.437,84.682 60.881,84.156 62.922,83.007 L109.011,58.420 Z"/>
<path fill-rule="evenodd"  fill="rgb(127, 127, 127)"
 d="M109.011,57.154 C111.150,56.006 112.163,54.011 111.969,52.129 C112.177,50.136 111.150,48.252 109.011,47.103 L62.922,22.433 C60.881,21.284 58.437,20.758 55.994,20.758 C53.549,20.758 51.091,21.284 49.050,22.433 L2.962,47.006 C0.823,48.156 -0.093,50.149 0.004,52.032 C-0.093,54.025 0.823,56.006 2.962,57.154 L49.050,81.741 C51.091,82.891 53.536,83.416 55.994,83.416 C58.437,83.416 60.881,82.891 62.922,81.741 L109.011,57.154 Z"/>
<path fill-rule="evenodd"  fill="rgb(98, 98, 98)"
 d="M109.011,53.420 C111.150,52.271 112.163,50.278 111.969,48.395 C112.177,46.402 111.150,44.518 109.011,43.369 L62.922,18.699 C60.881,17.550 58.437,17.024 55.994,17.024 C53.549,17.024 51.091,17.550 49.050,18.699 L2.962,43.273 C0.823,44.422 -0.093,46.415 0.004,48.298 C-0.093,50.291 0.823,52.271 2.962,53.420 L49.050,78.007 C51.091,79.156 53.536,79.682 55.994,79.682 C58.437,79.682 60.881,79.156 62.922,78.007 L109.011,53.420 Z"/>
<path fill-rule="evenodd"  fill="rgb(127, 127, 127)"
 d="M109.011,52.154 C111.150,51.005 112.163,49.011 111.969,47.129 C112.177,45.136 111.150,43.253 109.011,42.103 L62.922,17.433 C60.881,16.284 58.437,15.758 55.994,15.758 C53.549,15.758 51.091,16.284 49.050,17.433 L2.962,42.006 C0.823,43.156 -0.093,45.149 0.004,47.032 C-0.093,49.025 0.823,51.005 2.962,52.154 L49.050,76.741 C51.091,77.890 53.536,78.416 55.994,78.416 C58.437,78.416 60.881,77.890 62.922,76.741 L109.011,52.154 Z"/>
<path fill-rule="evenodd"  fill="rgb(98, 98, 98)"
 d="M109.011,48.420 C111.150,47.271 112.163,45.278 111.969,43.395 C112.177,41.402 111.150,39.518 109.011,38.369 L62.922,13.699 C60.881,12.550 58.437,12.024 55.994,12.024 C53.549,12.024 51.091,12.550 49.050,13.699 L2.962,38.273 C0.823,39.421 -0.093,41.415 0.004,43.298 C-0.093,45.291 0.823,47.271 2.962,48.420 L49.050,73.007 C51.091,74.156 53.536,74.682 55.994,74.682 C58.437,74.682 60.881,74.156 62.922,73.007 L109.011,48.420 Z"/>
<path fill-rule="evenodd"  fill="rgb(127, 127, 127)"
 d="M109.011,47.154 C111.150,46.005 112.163,44.012 111.969,42.129 C112.177,40.135 111.150,38.252 109.011,37.103 L62.922,12.433 C60.881,11.284 58.437,10.758 55.994,10.758 C53.549,10.758 51.091,11.284 49.050,12.433 L2.962,37.006 C0.823,38.156 -0.093,40.149 0.004,42.032 C-0.093,44.025 0.823,46.005 2.962,47.154 L49.050,71.741 C51.091,72.890 53.536,73.417 55.994,73.417 C58.437,73.417 60.881,72.890 62.922,71.741 L109.011,47.154 Z"/>
<path fill-rule="evenodd"  fill="rgb(98, 98, 98)"
 d="M109.011,43.420 C111.150,42.271 112.163,40.278 111.969,38.395 C112.177,36.402 111.150,34.518 109.011,33.369 L62.922,8.699 C60.881,7.550 58.437,7.024 55.994,7.024 C53.549,7.024 51.091,7.550 49.050,8.699 L2.962,33.272 C0.823,34.421 -0.093,36.415 0.004,38.298 C-0.093,40.291 0.823,42.271 2.962,43.420 L49.050,68.007 C51.091,69.156 53.536,69.682 55.994,69.682 C58.437,69.682 60.881,69.156 62.922,68.007 L109.011,43.420 Z"/>
<path fill-rule="evenodd"  fill="rgb(127, 127, 127)"
 d="M109.011,42.154 C111.150,41.005 112.163,39.012 111.969,37.129 C112.177,35.135 111.150,33.252 109.011,32.103 L62.922,7.433 C60.881,6.284 58.437,5.758 55.994,5.758 C53.549,5.758 51.091,6.284 49.050,7.433 L2.962,32.007 C0.823,33.156 -0.093,35.149 0.004,37.032 C-0.093,39.025 0.823,41.005 2.962,42.154 L49.050,66.741 C51.091,67.890 53.536,68.416 55.994,68.416 C58.437,68.416 60.881,67.890 62.922,66.741 L109.011,42.154 Z"/>
<path fill-rule="evenodd"  fill="rgb(108, 108, 108)"
 d="M109.011,38.420 C111.150,37.271 112.163,35.278 111.969,33.395 C112.177,31.402 111.150,29.518 109.011,28.369 L62.922,3.699 C60.881,2.550 58.437,2.024 55.994,2.024 C53.549,2.024 51.091,2.550 49.050,3.699 L2.962,28.273 C0.823,29.421 -0.093,31.415 0.004,33.298 C-0.093,35.291 0.823,37.271 2.962,38.420 L49.050,63.007 C51.091,64.156 53.536,64.682 55.994,64.682 C58.437,64.682 60.881,64.156 62.922,63.007 L109.011,38.420 Z"/>
<path fill-rule="evenodd"  fill="rgb(127, 127, 127)"
 d="M109.011,37.154 C111.150,36.005 112.163,34.012 111.969,32.129 C112.177,30.136 111.150,28.252 109.011,27.103 L62.922,2.433 C60.881,1.284 58.437,0.758 55.994,0.758 C53.549,0.758 51.091,1.284 49.050,2.433 L2.962,27.007 C0.823,28.156 -0.093,30.149 0.004,32.032 C-0.093,34.025 0.823,36.005 2.962,37.154 L49.050,61.741 C51.091,62.890 53.536,63.416 55.994,63.416 C58.437,63.416 60.881,62.890 62.922,61.741 L109.011,37.154 Z"/>
<path fill-rule="evenodd"  stroke="rgb(109, 109, 109)" stroke-width="1px" stroke-linecap="butt" stroke-linejoin="miter" fill="none"
 d="M97.686,36.051 C99.366,35.133 100.163,33.543 100.011,32.040 C100.174,30.450 99.366,28.947 97.686,28.030 L61.458,8.343 C59.854,7.426 57.933,7.006 56.012,7.006 C54.091,7.006 52.159,7.426 50.554,8.343 L14.327,27.952 C12.647,28.869 11.926,30.460 12.003,31.963 C11.926,33.553 12.647,35.133 14.327,36.051 L50.554,55.671 C52.159,56.588 54.080,57.007 56.012,57.007 C57.933,57.007 59.854,56.588 61.458,55.671 L97.686,36.051 Z"/>
<path fill-rule="evenodd"  stroke="rgb(109, 109, 109)" stroke-width="1px" stroke-linecap="butt" stroke-linejoin="miter" fill="none"
 d="M58.457,12.249 L56.853,11.540 L53.108,13.196 L60.597,13.196 L61.934,14.141 L50.433,14.141 L48.025,15.325 L65.144,15.325 L67.284,16.743 L45.618,16.743 L43.745,17.926 L70.227,17.926 L72.901,19.345 L40.536,19.345 L38.128,20.764 L76.111,20.764 L78.251,22.183 L35.187,22.183 L33.314,23.366 L81.727,23.602 L83.868,24.785 L29.570,25.021 L27.430,26.204 L87.345,26.440 L89.217,27.623 L24.487,27.860 L22.347,29.279 L92.101,29.279 L94.241,30.698 L18.602,30.698 L17.634,31.880 L95.519,32.354 L94.776,33.773 L19.137,33.773 L21.010,34.955 L90.822,35.428 L88.682,36.848 L25.289,36.848 L27.162,38.030 L86.007,38.030 L84.403,39.449 L30.640,39.449 L32.244,40.632 L80.123,40.868 L78.251,42.287 L35.989,42.287 L37.861,43.470 L74.774,43.470 L72.901,44.889 L41.339,45.126 L43.210,46.308 L68.622,46.545 L66.749,47.963 L47.758,47.963 L49.630,49.383 L63.271,49.146 L61.666,50.566 L53.643,50.802 L56.853,52.458 L58.725,51.748 "/>
<path fill-rule="evenodd"  opacity="0.302" fill="rgb(0, 0, 0)"
 d="M55.994,133.416 C58.437,133.416 60.881,132.890 62.922,131.741 L109.011,107.155 C111.150,106.005 112.163,104.012 111.969,102.129 C112.177,100.136 112.252,30.145 111.969,32.129 C112.163,35.088 111.138,36.850 108.999,37.999 L67.998,59.999 C65.958,61.148 58.022,64.288 56.999,63.999 C56.989,63.996 57.969,65.686 57.939,66.927 C57.924,67.532 56.907,68.268 56.889,69.119 C56.874,69.781 57.859,70.513 57.842,71.307 C57.827,72.040 56.811,72.825 56.794,73.658 C56.779,74.421 57.762,75.223 57.746,76.060 C57.729,76.874 56.712,77.721 56.695,78.596 C56.677,79.537 57.658,80.509 57.639,81.509 C57.623,82.302 56.608,83.111 56.592,83.935 C56.574,84.813 57.558,85.707 57.541,86.615 C57.529,87.188 56.518,87.767 56.508,88.351 C56.490,89.270 57.472,90.201 57.454,91.140 C57.438,91.989 56.422,92.846 56.407,93.707 C56.389,94.588 57.373,95.474 57.356,96.362 C57.340,97.255 56.323,98.151 56.306,99.046 C56.291,99.895 57.275,100.744 57.259,101.590 C57.245,102.336 56.232,103.080 56.218,103.821 C56.203,104.600 57.189,105.375 57.175,106.145 C57.159,107.032 56.142,107.912 56.126,108.782 C56.110,109.662 57.094,110.532 57.078,111.389 C57.064,112.185 56.049,112.969 56.035,113.740 C56.020,114.589 57.005,115.422 56.989,116.236 C56.975,117.050 55.961,117.844 55.946,118.615 C55.928,119.632 56.910,120.610 56.892,121.542 C56.879,122.280 55.867,122.989 55.854,123.667 C55.839,124.491 56.825,125.267 56.812,125.990 C56.798,126.743 55.786,127.438 55.775,128.068 C55.757,129.014 56.743,129.813 56.732,130.439 C56.713,131.467 55.703,132.033 55.703,132.033 C55.703,132.033 55.886,133.416 55.994,133.416 Z"/>
<path fill-rule="evenodd"  fill="rgb(21, 129, 64)"
 d="M86.999,84.999 L111.999,70.999 L111.999,104.000 L86.999,118.999 L86.999,84.999 Z"/>
<path fill-rule="evenodd"  fill="rgb(99, 96, 16)"
 d="M86.000,110.999 L86.000,105.999 L87.000,104.999 L112.999,91.000 L112.999,96.000 L86.000,110.999 ZM86.000,96.999 L87.000,96.000 L112.999,82.000 L112.999,86.999 L86.000,101.999 L86.000,96.999 Z"/>
<path fill-rule="evenodd"  fill="rgb(23, 204, 95)"
 d="M86.999,86.101 L86.999,88.032 C86.999,88.032 87.979,87.874 87.958,88.032 C87.937,88.189 88.430,116.451 88.437,116.989 C88.444,117.527 88.680,118.147 89.396,117.954 C90.111,117.761 92.592,116.306 92.751,116.024 C92.909,115.741 93.236,84.820 93.230,84.653 C93.225,84.486 94.677,83.828 94.668,84.170 C94.660,84.513 94.623,112.581 94.668,113.128 C94.714,113.674 95.545,114.313 96.106,114.093 C96.668,113.874 99.453,112.024 99.462,111.680 C99.471,111.336 99.317,80.906 99.462,80.792 C99.606,80.679 100.883,80.011 100.899,80.310 C100.917,80.608 100.889,109.219 100.899,109.750 C100.909,110.281 101.358,110.896 101.858,110.715 C102.358,110.533 105.614,108.696 105.693,108.302 C105.772,107.908 105.701,77.567 105.693,77.414 C105.685,77.261 107.103,76.486 107.131,76.931 C107.158,77.376 107.573,105.925 107.610,106.371 C107.648,106.817 108.026,107.030 108.569,106.854 C109.111,106.678 111.781,105.067 111.924,104.440 C112.067,103.814 111.963,72.997 111.924,72.588 C111.884,72.178 111.531,71.815 110.965,72.105 C110.399,72.395 110.461,72.650 110.486,74.035 C110.511,75.420 110.459,103.082 110.486,103.476 C110.513,103.869 109.077,104.812 109.048,104.440 C109.019,104.069 109.062,74.850 109.048,74.518 C109.034,74.186 108.343,73.674 106.651,74.518 C104.960,75.362 104.256,76.011 104.255,76.931 C104.253,77.851 104.316,106.477 104.255,106.854 C104.194,107.231 103.112,108.545 102.817,108.302 C102.522,108.058 102.827,78.984 102.817,78.379 C102.807,77.774 102.119,77.240 100.899,77.896 C99.680,78.552 97.871,79.607 97.544,79.827 C97.218,80.046 97.543,110.912 97.544,111.198 C97.545,111.482 96.598,112.209 96.585,111.680 C96.573,111.151 96.089,82.038 96.106,81.758 C96.123,81.476 95.767,80.913 94.189,81.758 C92.611,82.602 91.470,83.488 91.313,83.688 C91.156,83.887 91.334,114.938 91.313,115.058 C91.292,115.179 90.601,115.429 90.354,115.058 C90.107,114.688 89.854,85.948 89.875,85.619 C89.896,85.288 89.730,84.379 88.916,84.653 C88.102,84.927 86.999,86.101 86.999,86.101 Z"/>
<path fill-rule="evenodd"  fill="rgb(255, 241, 0)"
 d="M86.000,110.999 L86.000,105.999 L87.000,104.999 L112.999,91.000 L112.999,96.000 L86.000,110.999 ZM86.000,96.999 L87.000,96.000 L112.999,82.000 L112.999,86.999 L86.000,101.999 L86.000,96.999 Z"/>
</svg>
