<svg 
 xmlns="http://www.w3.org/2000/svg"
 xmlns:xlink="http://www.w3.org/1999/xlink"
 width="186px" height="148px">
<path fill-rule="evenodd"  fill="none"
 d="M-0.000,131.000 L19.000,131.000 L19.000,147.000 L-0.000,147.000 L-0.000,131.000 Z"/>
<path fill-rule="evenodd"  stroke="rgb(28, 227, 107)" stroke-width="2px" stroke-linecap="butt" stroke-linejoin="miter" fill="none"
 d="M164.838,96.132 C167.816,94.517 169.228,91.717 168.958,89.074 C169.247,86.274 167.816,83.628 164.838,82.015 L100.642,47.366 C97.799,45.752 94.396,45.013 90.992,45.013 C87.587,45.013 84.163,45.752 81.321,47.366 L17.126,81.879 C14.147,83.493 12.871,86.292 13.005,88.937 C12.871,91.736 14.147,94.517 17.126,96.132 L81.321,130.663 C84.163,132.277 87.568,133.016 90.992,133.016 C94.396,133.016 97.799,132.277 100.642,130.663 L164.838,96.132 Z"/>
<path fill-rule="evenodd"  stroke="rgb(28, 227, 107)" stroke-width="2px" stroke-linecap="butt" stroke-linejoin="miter" fill="none"
 d="M161.998,94.616 C164.861,93.112 166.219,91.516 165.960,89.054 C166.238,86.446 164.861,84.994 161.998,83.491 L100.271,50.204 C97.538,48.700 94.265,48.012 90.992,48.012 C87.718,48.012 84.426,48.700 81.693,50.204 L19.967,83.365 C17.103,84.868 15.876,86.463 16.005,88.926 C15.876,91.534 17.103,93.112 19.967,94.616 L81.693,127.794 C84.426,129.298 87.700,129.986 90.992,129.986 C94.265,129.986 97.538,129.298 100.271,127.794 L161.998,94.616 Z"/>
<path fill-rule="evenodd"  fill="rgb(127, 127, 127)"
 d="M144.011,93.154 C146.149,92.005 147.163,90.012 146.969,88.129 C147.177,86.136 146.149,84.252 144.011,83.103 L97.922,58.433 C95.881,57.284 93.438,56.758 90.994,56.758 C88.549,56.758 86.091,57.284 84.050,58.433 L37.962,83.007 C35.823,84.155 34.907,86.149 35.004,88.032 C34.907,90.025 35.823,92.005 37.962,93.154 L84.050,117.741 C86.091,118.891 88.536,119.416 90.994,119.416 C93.438,119.416 95.881,118.891 97.922,117.741 L144.011,93.154 Z"/>
<path fill-rule="evenodd"  fill="rgb(98, 98, 98)"
 d="M144.011,88.420 C146.149,87.271 147.163,85.277 146.969,83.395 C147.177,81.401 146.149,79.518 144.011,78.369 L97.922,53.699 C95.881,52.550 93.438,52.024 90.994,52.024 C88.549,52.024 86.091,52.550 84.050,53.699 L37.962,78.272 C35.823,79.421 34.907,81.415 35.004,83.298 C34.907,85.291 35.823,87.271 37.962,88.420 L84.050,113.007 C86.091,114.156 88.536,114.682 90.994,114.682 C93.438,114.682 95.881,114.156 97.922,113.007 L144.011,88.420 Z"/>
<path fill-rule="evenodd"  fill="rgb(127, 127, 127)"
 d="M144.011,87.154 C146.149,86.005 147.163,84.012 146.969,82.129 C147.177,80.136 146.149,78.252 144.011,77.103 L97.922,52.433 C95.881,51.284 93.438,50.758 90.994,50.758 C88.549,50.758 86.091,51.284 84.050,52.433 L37.962,77.006 C35.823,78.156 34.907,80.149 35.004,82.032 C34.907,84.025 35.823,86.005 37.962,87.154 L84.050,111.741 C86.091,112.890 88.536,113.416 90.994,113.416 C93.438,113.416 95.881,112.890 97.922,111.741 L144.011,87.154 Z"/>
<path fill-rule="evenodd"  fill="rgb(98, 98, 98)"
 d="M144.011,83.420 C146.149,82.271 147.163,80.277 146.969,78.395 C147.177,76.401 146.149,74.518 144.011,73.369 L97.922,48.699 C95.881,47.550 93.438,47.024 90.994,47.024 C88.549,47.024 86.091,47.550 84.050,48.699 L37.962,73.272 C35.823,74.421 34.907,76.415 35.004,78.297 C34.907,80.291 35.823,82.271 37.962,83.420 L84.050,108.007 C86.091,109.156 88.536,109.682 90.994,109.682 C93.438,109.682 95.881,109.156 97.922,108.007 L144.011,83.420 Z"/>
<path fill-rule="evenodd"  fill="rgb(127, 127, 127)"
 d="M144.011,82.154 C146.149,81.005 147.163,79.012 146.969,77.129 C147.177,75.136 146.149,73.252 144.011,72.103 L97.922,47.433 C95.881,46.284 93.438,45.758 90.994,45.758 C88.549,45.758 86.091,46.284 84.050,47.433 L37.962,72.007 C35.823,73.155 34.907,75.149 35.004,77.031 C34.907,79.025 35.823,81.005 37.962,82.154 L84.050,106.741 C86.091,107.890 88.536,108.416 90.994,108.416 C93.438,108.416 95.881,107.890 97.922,106.741 L144.011,82.154 Z"/>
<path fill-rule="evenodd"  fill="rgb(98, 98, 98)"
 d="M144.011,78.420 C146.149,77.271 147.163,75.277 146.969,73.395 C147.177,71.401 146.149,69.518 144.011,68.369 L97.922,43.699 C95.881,42.550 93.438,42.024 90.994,42.024 C88.549,42.024 86.091,42.550 84.050,43.699 L37.962,68.272 C35.823,69.421 34.907,71.415 35.004,73.297 C34.907,75.291 35.823,77.271 37.962,78.420 L84.050,103.007 C86.091,104.156 88.536,104.682 90.994,104.682 C93.438,104.682 95.881,104.156 97.922,103.007 L144.011,78.420 Z"/>
<path fill-rule="evenodd"  fill="rgb(127, 127, 127)"
 d="M144.011,77.154 C146.149,76.005 147.163,74.012 146.969,72.129 C147.177,70.136 146.149,68.252 144.011,67.103 L97.922,42.433 C95.881,41.284 93.438,40.758 90.994,40.758 C88.549,40.758 86.091,41.284 84.050,42.433 L37.962,67.007 C35.823,68.156 34.907,70.149 35.004,72.032 C34.907,74.025 35.823,76.005 37.962,77.154 L84.050,101.741 C86.091,102.890 88.536,103.416 90.994,103.416 C93.438,103.416 95.881,102.890 97.922,101.741 L144.011,77.154 Z"/>
<path fill-rule="evenodd"  fill="rgb(98, 98, 98)"
 d="M144.011,73.420 C146.149,72.271 147.163,70.277 146.969,68.395 C147.177,66.401 146.149,64.518 144.011,63.369 L97.922,38.699 C95.881,37.550 93.438,37.024 90.994,37.024 C88.549,37.024 86.091,37.550 84.050,38.699 L37.962,63.272 C35.823,64.421 34.907,66.415 35.004,68.298 C34.907,70.291 35.823,72.271 37.962,73.420 L84.050,98.007 C86.091,99.156 88.536,99.682 90.994,99.682 C93.438,99.682 95.881,99.156 97.922,98.007 L144.011,73.420 Z"/>
<path fill-rule="evenodd"  fill="rgb(127, 127, 127)"
 d="M144.011,72.154 C146.149,71.005 147.163,69.012 146.969,67.129 C147.177,65.136 146.149,63.252 144.011,62.103 L97.922,37.433 C95.881,36.284 93.438,35.758 90.994,35.758 C88.549,35.758 86.091,36.284 84.050,37.433 L37.962,62.006 C35.823,63.155 34.907,65.149 35.004,67.032 C34.907,69.025 35.823,71.005 37.962,72.154 L84.050,96.741 C86.091,97.890 88.536,98.416 90.994,98.416 C93.438,98.416 95.881,97.890 97.922,96.741 L144.011,72.154 Z"/>
<path fill-rule="evenodd"  fill="rgb(98, 98, 98)"
 d="M144.011,68.420 C146.149,67.271 147.163,65.278 146.969,63.395 C147.177,61.401 146.149,59.518 144.011,58.369 L97.922,33.699 C95.881,32.550 93.438,32.024 90.994,32.024 C88.549,32.024 86.091,32.550 84.050,33.699 L37.962,58.272 C35.823,59.421 34.907,61.415 35.004,63.298 C34.907,65.291 35.823,67.271 37.962,68.420 L84.050,93.007 C86.091,94.156 88.536,94.682 90.994,94.682 C93.438,94.682 95.881,94.156 97.922,93.007 L144.011,68.420 Z"/>
<path fill-rule="evenodd"  fill="rgb(127, 127, 127)"
 d="M144.011,67.154 C146.149,66.005 147.163,64.012 146.969,62.129 C147.177,60.136 146.149,58.252 144.011,57.103 L97.922,32.433 C95.881,31.284 93.438,30.758 90.994,30.758 C88.549,30.758 86.091,31.284 84.050,32.433 L37.962,57.007 C35.823,58.155 34.907,60.149 35.004,62.032 C34.907,64.025 35.823,66.005 37.962,67.154 L84.050,91.741 C86.091,92.890 88.536,93.416 90.994,93.416 C93.438,93.416 95.881,92.890 97.922,91.741 L144.011,67.154 Z"/>
<path fill-rule="evenodd"  fill="rgb(98, 98, 98)"
 d="M144.011,63.420 C146.149,62.271 147.163,60.277 146.969,58.395 C147.177,56.401 146.149,54.518 144.011,53.369 L97.922,28.699 C95.881,27.550 93.438,27.024 90.994,27.024 C88.549,27.024 86.091,27.550 84.050,28.699 L37.962,53.272 C35.823,54.421 34.907,56.415 35.004,58.298 C34.907,60.291 35.823,62.271 37.962,63.420 L84.050,88.007 C86.091,89.156 88.536,89.682 90.994,89.682 C93.438,89.682 95.881,89.156 97.922,88.007 L144.011,63.420 Z"/>
<path fill-rule="evenodd"  fill="rgb(127, 127, 127)"
 d="M144.011,62.154 C146.149,61.005 147.163,59.012 146.969,57.129 C147.177,55.136 146.149,53.252 144.011,52.103 L97.922,27.433 C95.881,26.284 93.438,25.758 90.994,25.758 C88.549,25.758 86.091,26.284 84.050,27.433 L37.962,52.006 C35.823,53.156 34.907,55.149 35.004,57.032 C34.907,59.025 35.823,61.005 37.962,62.154 L84.050,86.741 C86.091,87.890 88.536,88.416 90.994,88.416 C93.438,88.416 95.881,87.890 97.922,86.741 L144.011,62.154 Z"/>
<path fill-rule="evenodd"  fill="rgb(98, 98, 98)"
 d="M144.011,58.420 C146.149,57.271 147.163,55.278 146.969,53.395 C147.177,51.401 146.149,49.518 144.011,48.369 L97.922,23.699 C95.881,22.550 93.438,22.024 90.994,22.024 C88.549,22.024 86.091,22.550 84.050,23.699 L37.962,48.272 C35.823,49.421 34.907,51.415 35.004,53.298 C34.907,55.291 35.823,57.271 37.962,58.420 L84.050,83.007 C86.091,84.156 88.536,84.682 90.994,84.682 C93.438,84.682 95.881,84.156 97.922,83.007 L144.011,58.420 Z"/>
<path fill-rule="evenodd"  fill="rgb(127, 127, 127)"
 d="M144.011,57.154 C146.149,56.005 147.163,54.012 146.969,52.129 C147.177,50.136 146.149,48.252 144.011,47.103 L97.922,22.433 C95.881,21.284 93.438,20.758 90.994,20.758 C88.549,20.758 86.091,21.284 84.050,22.433 L37.962,47.006 C35.823,48.155 34.907,50.149 35.004,52.032 C34.907,54.025 35.823,56.005 37.962,57.154 L84.050,81.741 C86.091,82.890 88.536,83.416 90.994,83.416 C93.438,83.416 95.881,82.890 97.922,81.741 L144.011,57.154 Z"/>
<path fill-rule="evenodd"  fill="rgb(98, 98, 98)"
 d="M144.011,53.420 C146.149,52.271 147.163,50.277 146.969,48.395 C147.177,46.401 146.149,44.518 144.011,43.369 L97.922,18.699 C95.881,17.550 93.438,17.024 90.994,17.024 C88.549,17.024 86.091,17.550 84.050,18.699 L37.962,43.272 C35.823,44.421 34.907,46.415 35.004,48.298 C34.907,50.291 35.823,52.271 37.962,53.420 L84.050,78.007 C86.091,79.156 88.536,79.682 90.994,79.682 C93.438,79.682 95.881,79.156 97.922,78.007 L144.011,53.420 Z"/>
<path fill-rule="evenodd"  fill="rgb(127, 127, 127)"
 d="M144.011,52.154 C146.149,51.005 147.163,49.011 146.969,47.129 C147.177,45.136 146.149,43.252 144.011,42.103 L97.922,17.433 C95.881,16.284 93.438,15.758 90.994,15.758 C88.549,15.758 86.091,16.284 84.050,17.433 L37.962,42.006 C35.823,43.156 34.907,45.149 35.004,47.032 C34.907,49.025 35.823,51.005 37.962,52.154 L84.050,76.741 C86.091,77.890 88.536,78.416 90.994,78.416 C93.438,78.416 95.881,77.890 97.922,76.741 L144.011,52.154 Z"/>
<path fill-rule="evenodd"  fill="rgb(98, 98, 98)"
 d="M144.011,48.420 C146.149,47.271 147.163,45.277 146.969,43.395 C147.177,41.401 146.149,39.518 144.011,38.369 L97.922,13.699 C95.881,12.550 93.438,12.024 90.994,12.024 C88.549,12.024 86.091,12.550 84.050,13.699 L37.962,38.272 C35.823,39.421 34.907,41.415 35.004,43.298 C34.907,45.291 35.823,47.271 37.962,48.420 L84.050,73.007 C86.091,74.156 88.536,74.682 90.994,74.682 C93.438,74.682 95.881,74.156 97.922,73.007 L144.011,48.420 Z"/>
<path fill-rule="evenodd"  fill="rgb(127, 127, 127)"
 d="M144.011,47.154 C146.149,46.005 147.163,44.012 146.969,42.129 C147.177,40.135 146.149,38.252 144.011,37.103 L97.922,12.433 C95.881,11.284 93.438,10.758 90.994,10.758 C88.549,10.758 86.091,11.284 84.050,12.433 L37.962,37.006 C35.823,38.156 34.907,40.149 35.004,42.032 C34.907,44.025 35.823,46.005 37.962,47.154 L84.050,71.741 C86.091,72.890 88.536,73.416 90.994,73.416 C93.438,73.416 95.881,72.890 97.922,71.741 L144.011,47.154 Z"/>
<path fill-rule="evenodd"  fill="rgb(98, 98, 98)"
 d="M144.011,43.420 C146.149,42.271 147.163,40.278 146.969,38.395 C147.177,36.401 146.149,34.518 144.011,33.369 L97.922,8.699 C95.881,7.550 93.438,7.024 90.994,7.024 C88.549,7.024 86.091,7.550 84.050,8.699 L37.962,33.272 C35.823,34.421 34.907,36.415 35.004,38.297 C34.907,40.291 35.823,42.271 37.962,43.420 L84.050,68.007 C86.091,69.156 88.536,69.682 90.994,69.682 C93.438,69.682 95.881,69.156 97.922,68.007 L144.011,43.420 Z"/>
<path fill-rule="evenodd"  fill="rgb(127, 127, 127)"
 d="M144.011,42.154 C146.149,41.005 147.163,39.012 146.969,37.129 C147.177,35.135 146.149,33.252 144.011,32.103 L97.922,7.433 C95.881,6.284 93.438,5.758 90.994,5.758 C88.549,5.758 86.091,6.284 84.050,7.433 L37.962,32.007 C35.823,33.156 34.907,35.149 35.004,37.032 C34.907,39.025 35.823,41.005 37.962,42.154 L84.050,66.741 C86.091,67.890 88.536,68.416 90.994,68.416 C93.438,68.416 95.881,67.890 97.922,66.741 L144.011,42.154 Z"/>
<path fill-rule="evenodd"  fill="rgb(108, 108, 108)"
 d="M144.011,38.420 C146.149,37.271 147.163,35.277 146.969,33.395 C147.177,31.401 146.149,29.518 144.011,28.369 L97.922,3.699 C95.881,2.550 93.438,2.024 90.994,2.024 C88.549,2.024 86.091,2.550 84.050,3.699 L37.962,28.272 C35.823,29.421 34.907,31.415 35.004,33.298 C34.907,35.291 35.823,37.271 37.962,38.420 L84.050,63.007 C86.091,64.156 88.536,64.682 90.994,64.682 C93.438,64.682 95.881,64.156 97.922,63.007 L144.011,38.420 Z"/>
<path fill-rule="evenodd"  fill="rgb(127, 127, 127)"
 d="M144.011,37.154 C146.149,36.005 147.163,34.012 146.969,32.129 C147.177,30.136 146.149,28.252 144.011,27.103 L97.922,2.433 C95.881,1.284 93.438,0.758 90.994,0.758 C88.549,0.758 86.091,1.284 84.050,2.433 L37.962,27.007 C35.823,28.155 34.907,30.149 35.004,32.032 C34.907,34.025 35.823,36.005 37.962,37.154 L84.050,61.741 C86.091,62.890 88.536,63.416 90.994,63.416 C93.438,63.416 95.881,62.890 97.922,61.741 L144.011,37.154 Z"/>
<path fill-rule="evenodd"  stroke="rgb(109, 109, 109)" stroke-width="1px" stroke-linecap="butt" stroke-linejoin="miter" fill="none"
 d="M132.686,36.051 C134.366,35.133 135.163,33.542 135.011,32.040 C135.174,30.449 134.366,28.946 132.686,28.029 L96.458,8.343 C94.854,7.426 92.933,7.006 91.012,7.006 C89.091,7.006 87.159,7.426 85.554,8.343 L49.327,27.952 C47.647,28.869 46.926,30.460 47.002,31.963 C46.926,33.553 47.647,35.133 49.327,36.051 L85.554,55.670 C87.159,56.588 89.080,57.007 91.012,57.007 C92.933,57.007 94.854,56.588 96.458,55.670 L132.686,36.051 Z"/>
<path fill-rule="evenodd"  stroke="rgb(109, 109, 109)" stroke-width="1px" stroke-linecap="butt" stroke-linejoin="miter" fill="none"
 d="M93.457,12.249 L91.853,11.540 L88.108,13.195 L95.597,13.195 L96.934,14.141 L85.433,14.141 L83.025,15.324 L100.144,15.324 L102.284,16.743 L80.618,16.743 L78.746,17.926 L105.226,17.926 L107.901,19.345 L75.536,19.345 L73.129,20.764 L111.111,20.764 L113.251,22.183 L70.187,22.183 L68.314,23.366 L116.728,23.602 L118.868,24.785 L64.570,25.021 L62.430,26.204 L122.345,26.440 L124.217,27.623 L59.487,27.859 L57.347,29.279 L127.100,29.279 L129.241,30.698 L53.603,30.698 L52.634,31.880 L130.519,32.353 L129.776,33.773 L54.137,33.773 L56.010,34.955 L125.822,35.428 L123.682,36.848 L60.290,36.848 L62.162,38.030 L121.007,38.030 L119.403,39.449 L65.640,39.449 L67.244,40.632 L115.123,40.868 L113.251,42.287 L70.989,42.287 L72.861,43.470 L109.774,43.470 L107.901,44.889 L76.339,45.126 L78.211,46.308 L103.622,46.545 L101.749,47.964 L82.758,47.964 L84.630,49.383 L98.272,49.146 L96.667,50.565 L88.643,50.802 L91.853,52.458 L93.725,51.748 "/>
<path fill-rule="evenodd"  opacity="0.302" fill="rgb(0, 0, 0)"
 d="M147.094,90.767 C147.094,90.496 147.096,90.220 147.097,89.942 C147.193,69.474 147.180,30.644 146.969,32.129 C147.163,35.088 146.137,36.850 143.999,37.999 L102.999,59.999 C100.958,61.148 93.022,64.287 91.999,63.999 C91.989,63.996 92.969,65.686 92.939,66.927 C92.924,67.532 91.907,68.268 91.889,69.118 C91.875,69.781 92.859,70.513 92.842,71.306 C92.827,72.039 91.811,72.825 91.794,73.658 C91.778,74.421 92.762,75.223 92.746,76.060 C92.729,76.874 91.713,77.721 91.695,78.596 C91.677,79.536 92.658,80.509 92.639,81.509 C92.623,82.301 91.608,83.111 91.592,83.935 C91.574,84.813 92.558,85.707 92.540,86.615 C92.530,87.188 91.518,87.767 91.507,88.350 C91.490,89.270 92.472,90.200 92.454,91.139 C92.438,91.989 91.422,92.846 91.406,93.707 C91.389,94.588 92.373,95.474 92.356,96.362 C92.340,97.255 91.323,98.151 91.306,99.045 C91.290,99.895 92.275,100.744 92.259,101.590 C92.245,102.336 91.231,103.080 91.218,103.821 C91.204,104.600 92.189,105.375 92.175,106.145 C92.158,107.032 91.142,107.912 91.126,108.782 C91.110,109.662 92.094,110.532 92.078,111.389 C92.064,112.184 91.049,112.969 91.035,113.739 C91.019,114.589 92.005,115.422 91.989,116.236 C91.975,117.049 90.960,117.843 90.946,118.615 C90.928,119.597 91.952,119.097 92.000,120.000 C92.001,120.032 93.000,119.967 92.999,120.000 C92.987,120.671 136.893,97.882 144.999,92.999 C145.807,92.513 147.094,90.827 147.094,90.767 Z"/>
<path fill-rule="evenodd"  fill="rgb(255, 255, 255)"
 d="M184.140,12.598 L165.854,12.598 C165.380,12.598 164.996,12.240 164.996,11.798 C164.996,11.357 165.380,10.999 165.854,10.999 L184.140,10.999 C184.612,10.999 184.997,11.357 184.997,11.798 C184.997,12.240 184.612,12.598 184.140,12.598 ZM177.248,24.832 C177.585,24.529 178.120,24.533 178.450,24.842 C178.780,25.151 178.784,25.650 178.459,25.964 L175.605,28.628 C175.525,28.703 175.429,28.762 175.323,28.803 C175.233,28.838 175.138,28.851 175.043,28.856 C175.027,28.857 175.013,28.865 174.996,28.865 C174.977,28.865 174.961,28.856 174.942,28.855 C174.850,28.849 174.757,28.837 174.670,28.803 C174.563,28.762 174.468,28.702 174.388,28.627 L171.533,25.964 C171.219,25.648 171.229,25.157 171.555,24.853 C171.881,24.548 172.407,24.539 172.745,24.833 L174.139,26.134 L174.139,15.864 L172.745,17.165 C172.409,17.468 171.874,17.463 171.544,17.155 C171.214,16.846 171.208,16.347 171.533,16.033 L174.391,13.366 C174.725,13.054 175.267,13.054 175.603,13.366 L178.459,16.033 C178.774,16.348 178.765,16.839 178.438,17.144 C178.112,17.449 177.585,17.457 177.248,17.164 L175.854,15.864 L175.854,26.133 L177.248,24.832 ZM165.854,29.399 L184.140,29.399 C184.612,29.399 184.997,29.757 184.997,30.198 C184.997,30.640 184.612,30.998 184.140,30.998 L165.854,30.998 C165.380,30.998 164.996,30.640 164.996,30.198 C164.996,29.757 165.380,29.399 165.854,29.399 Z"/>
</svg>
