<svg 
 xmlns="http://www.w3.org/2000/svg"
 xmlns:xlink="http://www.w3.org/1999/xlink"
 width="187px" height="148px">
<path fill-rule="evenodd"  fill="none"
 d="M-0.001,-0.000 L16.999,-0.000 L16.999,10.000 L-0.001,10.000 L-0.001,-0.000 Z"/>
<path fill-rule="evenodd"  fill="none"
 d="M-0.001,138.000 L16.999,138.000 L16.999,147.000 L-0.001,147.000 L-0.001,138.000 Z"/>
<path fill-rule="evenodd"  stroke="rgb(28, 227, 107)" stroke-width="2px" stroke-linecap="butt" stroke-linejoin="miter" fill="none"
 d="M165.838,96.131 C168.816,94.518 170.228,91.717 169.958,89.074 C170.247,86.274 168.816,83.629 165.838,82.015 L101.642,47.366 C98.799,45.752 95.396,45.013 91.992,45.013 C88.587,45.013 85.163,45.752 82.321,47.366 L18.126,81.879 C15.147,83.493 13.871,86.293 14.005,88.937 C13.871,91.737 15.147,94.518 18.126,96.131 L82.321,130.663 C85.163,132.277 88.568,133.016 91.992,133.016 C95.396,133.016 98.799,132.277 101.642,130.663 L165.838,96.131 Z"/>
<path fill-rule="evenodd"  stroke="rgb(28, 227, 107)" stroke-width="2px" stroke-linecap="butt" stroke-linejoin="miter" fill="none"
 d="M162.998,94.616 C165.861,93.112 167.219,91.517 166.960,89.054 C167.238,86.446 165.861,84.994 162.998,83.491 L101.271,50.204 C98.538,48.700 95.265,48.012 91.992,48.012 C88.718,48.012 85.426,48.700 82.693,50.204 L20.967,83.365 C18.103,84.868 16.876,86.463 17.005,88.926 C16.876,91.535 18.103,93.112 20.967,94.616 L82.693,127.794 C85.426,129.298 88.700,129.986 91.992,129.986 C95.265,129.986 98.538,129.298 101.271,127.794 L162.998,94.616 Z"/>
<path fill-rule="evenodd"  fill="rgb(127, 127, 127)"
 d="M145.011,93.154 C147.149,92.006 148.163,90.011 147.969,88.129 C148.177,86.136 147.149,84.252 145.011,83.103 L98.922,58.433 C96.881,57.284 94.438,56.758 91.994,56.758 C89.549,56.758 87.091,57.284 85.050,58.433 L38.962,83.006 C36.823,84.156 35.907,86.149 36.004,88.032 C35.907,90.025 36.823,92.006 38.962,93.154 L85.050,117.741 C87.091,118.891 89.536,119.416 91.994,119.416 C94.438,119.416 96.881,118.891 98.922,117.741 L145.011,93.154 Z"/>
<path fill-rule="evenodd"  fill="rgb(98, 98, 98)"
 d="M145.011,88.420 C147.149,87.271 148.163,85.278 147.969,83.395 C148.177,81.401 147.149,79.518 145.011,78.369 L98.922,53.699 C96.881,52.550 94.438,52.024 91.994,52.024 C89.549,52.024 87.091,52.550 85.050,53.699 L38.962,78.272 C36.823,79.422 35.907,81.415 36.004,83.298 C35.907,85.291 36.823,87.271 38.962,88.420 L85.050,113.007 C87.091,114.156 89.536,114.682 91.994,114.682 C94.438,114.682 96.881,114.156 98.922,113.007 L145.011,88.420 Z"/>
<path fill-rule="evenodd"  fill="rgb(127, 127, 127)"
 d="M145.011,87.154 C147.149,86.005 148.163,84.012 147.969,82.129 C148.177,80.136 147.149,78.252 145.011,77.103 L98.922,52.433 C96.881,51.284 94.438,50.758 91.994,50.758 C89.549,50.758 87.091,51.284 85.050,52.433 L38.962,77.007 C36.823,78.156 35.907,80.149 36.004,82.032 C35.907,84.025 36.823,86.005 38.962,87.154 L85.050,111.741 C87.091,112.891 89.536,113.416 91.994,113.416 C94.438,113.416 96.881,112.891 98.922,111.741 L145.011,87.154 Z"/>
<path fill-rule="evenodd"  fill="rgb(98, 98, 98)"
 d="M145.011,83.420 C147.149,82.271 148.163,80.278 147.969,78.395 C148.177,76.401 147.149,74.518 145.011,73.369 L98.922,48.699 C96.881,47.550 94.438,47.024 91.994,47.024 C89.549,47.024 87.091,47.550 85.050,48.699 L38.962,73.273 C36.823,74.421 35.907,76.415 36.004,78.298 C35.907,80.291 36.823,82.271 38.962,83.420 L85.050,108.007 C87.091,109.156 89.536,109.682 91.994,109.682 C94.438,109.682 96.881,109.156 98.922,108.007 L145.011,83.420 Z"/>
<path fill-rule="evenodd"  fill="rgb(127, 127, 127)"
 d="M145.011,82.154 C147.149,81.005 148.163,79.012 147.969,77.129 C148.177,75.136 147.149,73.252 145.011,72.103 L98.922,47.433 C96.881,46.284 94.438,45.758 91.994,45.758 C89.549,45.758 87.091,46.284 85.050,47.433 L38.962,72.007 C36.823,73.155 35.907,75.149 36.004,77.032 C35.907,79.025 36.823,81.005 38.962,82.154 L85.050,106.741 C87.091,107.890 89.536,108.416 91.994,108.416 C94.438,108.416 96.881,107.890 98.922,106.741 L145.011,82.154 Z"/>
<path fill-rule="evenodd"  fill="rgb(98, 98, 98)"
 d="M145.011,78.420 C147.149,77.271 148.163,75.278 147.969,73.395 C148.177,71.402 147.149,69.518 145.011,68.369 L98.922,43.699 C96.881,42.550 94.438,42.024 91.994,42.024 C89.549,42.024 87.091,42.550 85.050,43.699 L38.962,68.272 C36.823,69.421 35.907,71.415 36.004,73.298 C35.907,75.291 36.823,77.271 38.962,78.420 L85.050,103.007 C87.091,104.156 89.536,104.682 91.994,104.682 C94.438,104.682 96.881,104.156 98.922,103.007 L145.011,78.420 Z"/>
<path fill-rule="evenodd"  fill="rgb(127, 127, 127)"
 d="M145.011,77.154 C147.149,76.005 148.163,74.012 147.969,72.129 C148.177,70.136 147.149,68.252 145.011,67.103 L98.922,42.433 C96.881,41.284 94.438,40.758 91.994,40.758 C89.549,40.758 87.091,41.284 85.050,42.433 L38.962,67.007 C36.823,68.156 35.907,70.149 36.004,72.032 C35.907,74.025 36.823,76.005 38.962,77.154 L85.050,101.741 C87.091,102.890 89.536,103.416 91.994,103.416 C94.438,103.416 96.881,102.890 98.922,101.741 L145.011,77.154 Z"/>
<path fill-rule="evenodd"  fill="rgb(98, 98, 98)"
 d="M145.011,73.420 C147.149,72.271 148.163,70.278 147.969,68.395 C148.177,66.402 147.149,64.518 145.011,63.369 L98.922,38.699 C96.881,37.550 94.438,37.024 91.994,37.024 C89.549,37.024 87.091,37.550 85.050,38.699 L38.962,63.272 C36.823,64.422 35.907,66.415 36.004,68.298 C35.907,70.291 36.823,72.271 38.962,73.420 L85.050,98.007 C87.091,99.156 89.536,99.682 91.994,99.682 C94.438,99.682 96.881,99.156 98.922,98.007 L145.011,73.420 Z"/>
<path fill-rule="evenodd"  fill="rgb(127, 127, 127)"
 d="M145.011,72.154 C147.149,71.005 148.163,69.012 147.969,67.129 C148.177,65.136 147.149,63.252 145.011,62.103 L98.922,37.433 C96.881,36.284 94.438,35.758 91.994,35.758 C89.549,35.758 87.091,36.284 85.050,37.433 L38.962,62.007 C36.823,63.156 35.907,65.149 36.004,67.032 C35.907,69.025 36.823,71.005 38.962,72.154 L85.050,96.741 C87.091,97.890 89.536,98.416 91.994,98.416 C94.438,98.416 96.881,97.890 98.922,96.741 L145.011,72.154 Z"/>
<path fill-rule="evenodd"  fill="rgb(98, 98, 98)"
 d="M145.011,68.420 C147.149,67.271 148.163,65.277 147.969,63.395 C148.177,61.401 147.149,59.518 145.011,58.369 L98.922,33.699 C96.881,32.550 94.438,32.024 91.994,32.024 C89.549,32.024 87.091,32.550 85.050,33.699 L38.962,58.272 C36.823,59.422 35.907,61.415 36.004,63.297 C35.907,65.291 36.823,67.271 38.962,68.420 L85.050,93.007 C87.091,94.156 89.536,94.682 91.994,94.682 C94.438,94.682 96.881,94.156 98.922,93.007 L145.011,68.420 Z"/>
<path fill-rule="evenodd"  fill="rgb(127, 127, 127)"
 d="M145.011,67.154 C147.149,66.005 148.163,64.012 147.969,62.129 C148.177,60.136 147.149,58.253 145.011,57.103 L98.922,32.434 C96.881,31.284 94.438,30.758 91.994,30.758 C89.549,30.758 87.091,31.284 85.050,32.434 L38.962,57.006 C36.823,58.156 35.907,60.149 36.004,62.032 C35.907,64.025 36.823,66.005 38.962,67.154 L85.050,91.741 C87.091,92.890 89.536,93.416 91.994,93.416 C94.438,93.416 96.881,92.890 98.922,91.741 L145.011,67.154 Z"/>
<path fill-rule="evenodd"  fill="rgb(98, 98, 98)"
 d="M145.011,63.420 C147.149,62.271 148.163,60.277 147.969,58.395 C148.177,56.402 147.149,54.518 145.011,53.369 L98.922,28.699 C96.881,27.550 94.438,27.024 91.994,27.024 C89.549,27.024 87.091,27.550 85.050,28.699 L38.962,53.272 C36.823,54.422 35.907,56.415 36.004,58.298 C35.907,60.291 36.823,62.271 38.962,63.420 L85.050,88.007 C87.091,89.156 89.536,89.682 91.994,89.682 C94.438,89.682 96.881,89.156 98.922,88.007 L145.011,63.420 Z"/>
<path fill-rule="evenodd"  fill="rgb(127, 127, 127)"
 d="M145.011,62.154 C147.149,61.005 148.163,59.012 147.969,57.129 C148.177,55.136 147.149,53.253 145.011,52.103 L98.922,27.433 C96.881,26.284 94.438,25.758 91.994,25.758 C89.549,25.758 87.091,26.284 85.050,27.433 L38.962,52.006 C36.823,53.156 35.907,55.149 36.004,57.032 C35.907,59.025 36.823,61.005 38.962,62.154 L85.050,86.741 C87.091,87.890 89.536,88.416 91.994,88.416 C94.438,88.416 96.881,87.890 98.922,86.741 L145.011,62.154 Z"/>
<path fill-rule="evenodd"  fill="rgb(98, 98, 98)"
 d="M145.011,58.420 C147.149,57.271 148.163,55.278 147.969,53.395 C148.177,51.401 147.149,49.518 145.011,48.369 L98.922,23.699 C96.881,22.550 94.438,22.024 91.994,22.024 C89.549,22.024 87.091,22.550 85.050,23.699 L38.962,48.272 C36.823,49.421 35.907,51.415 36.004,53.298 C35.907,55.291 36.823,57.271 38.962,58.420 L85.050,83.007 C87.091,84.156 89.536,84.682 91.994,84.682 C94.438,84.682 96.881,84.156 98.922,83.007 L145.011,58.420 Z"/>
<path fill-rule="evenodd"  fill="rgb(127, 127, 127)"
 d="M145.011,57.154 C147.149,56.005 148.163,54.012 147.969,52.129 C148.177,50.135 147.149,48.252 145.011,47.103 L98.922,22.433 C96.881,21.284 94.438,20.758 91.994,20.758 C89.549,20.758 87.091,21.284 85.050,22.433 L38.962,47.007 C36.823,48.156 35.907,50.149 36.004,52.032 C35.907,54.025 36.823,56.005 38.962,57.154 L85.050,81.741 C87.091,82.891 89.536,83.416 91.994,83.416 C94.438,83.416 96.881,82.891 98.922,81.741 L145.011,57.154 Z"/>
<path fill-rule="evenodd"  fill="rgb(98, 98, 98)"
 d="M145.011,53.420 C147.149,52.271 148.163,50.278 147.969,48.395 C148.177,46.402 147.149,44.518 145.011,43.369 L98.922,18.699 C96.881,17.550 94.438,17.024 91.994,17.024 C89.549,17.024 87.091,17.550 85.050,18.699 L38.962,43.273 C36.823,44.421 35.907,46.415 36.004,48.298 C35.907,50.291 36.823,52.271 38.962,53.420 L85.050,78.007 C87.091,79.156 89.536,79.682 91.994,79.682 C94.438,79.682 96.881,79.156 98.922,78.007 L145.011,53.420 Z"/>
<path fill-rule="evenodd"  fill="rgb(127, 127, 127)"
 d="M145.011,52.154 C147.149,51.005 148.163,49.011 147.969,47.129 C148.177,45.136 147.149,43.252 145.011,42.103 L98.922,17.433 C96.881,16.284 94.438,15.758 91.994,15.758 C89.549,15.758 87.091,16.284 85.050,17.433 L38.962,42.006 C36.823,43.155 35.907,45.149 36.004,47.032 C35.907,49.025 36.823,51.005 38.962,52.154 L85.050,76.741 C87.091,77.890 89.536,78.416 91.994,78.416 C94.438,78.416 96.881,77.890 98.922,76.741 L145.011,52.154 Z"/>
<path fill-rule="evenodd"  fill="rgb(98, 98, 98)"
 d="M145.011,48.420 C147.149,47.271 148.163,45.278 147.969,43.395 C148.177,41.402 147.149,39.518 145.011,38.369 L98.922,13.699 C96.881,12.550 94.438,12.024 91.994,12.024 C89.549,12.024 87.091,12.550 85.050,13.699 L38.962,38.273 C36.823,39.422 35.907,41.415 36.004,43.298 C35.907,45.291 36.823,47.271 38.962,48.420 L85.050,73.007 C87.091,74.156 89.536,74.682 91.994,74.682 C94.438,74.682 96.881,74.156 98.922,73.007 L145.011,48.420 Z"/>
<path fill-rule="evenodd"  fill="rgb(127, 127, 127)"
 d="M145.011,47.154 C147.149,46.005 148.163,44.012 147.969,42.129 C148.177,40.136 147.149,38.252 145.011,37.103 L98.922,12.433 C96.881,11.284 94.438,10.758 91.994,10.758 C89.549,10.758 87.091,11.284 85.050,12.433 L38.962,37.006 C36.823,38.156 35.907,40.149 36.004,42.032 C35.907,44.025 36.823,46.005 38.962,47.154 L85.050,71.741 C87.091,72.890 89.536,73.417 91.994,73.417 C94.438,73.417 96.881,72.890 98.922,71.741 L145.011,47.154 Z"/>
<path fill-rule="evenodd"  fill="rgb(98, 98, 98)"
 d="M145.011,43.420 C147.149,42.271 148.163,40.277 147.969,38.395 C148.177,36.402 147.149,34.518 145.011,33.369 L98.922,8.699 C96.881,7.550 94.438,7.024 91.994,7.024 C89.549,7.024 87.091,7.550 85.050,8.699 L38.962,33.272 C36.823,34.421 35.907,36.415 36.004,38.298 C35.907,40.291 36.823,42.271 38.962,43.420 L85.050,68.007 C87.091,69.156 89.536,69.682 91.994,69.682 C94.438,69.682 96.881,69.156 98.922,68.007 L145.011,43.420 Z"/>
<path fill-rule="evenodd"  fill="rgb(127, 127, 127)"
 d="M145.011,42.154 C147.149,41.005 148.163,39.012 147.969,37.129 C148.177,35.135 147.149,33.252 145.011,32.103 L98.922,7.433 C96.881,6.284 94.438,5.758 91.994,5.758 C89.549,5.758 87.091,6.284 85.050,7.433 L38.962,32.007 C36.823,33.156 35.907,35.149 36.004,37.032 C35.907,39.025 36.823,41.005 38.962,42.154 L85.050,66.741 C87.091,67.890 89.536,68.416 91.994,68.416 C94.438,68.416 96.881,67.890 98.922,66.741 L145.011,42.154 Z"/>
<path fill-rule="evenodd"  fill="rgb(108, 108, 108)"
 d="M145.011,38.420 C147.149,37.271 148.163,35.277 147.969,33.395 C148.177,31.402 147.149,29.518 145.011,28.369 L98.922,3.699 C96.881,2.550 94.438,2.024 91.994,2.024 C89.549,2.024 87.091,2.550 85.050,3.699 L38.962,28.272 C36.823,29.421 35.907,31.415 36.004,33.297 C35.907,35.291 36.823,37.271 38.962,38.420 L85.050,63.007 C87.091,64.156 89.536,64.682 91.994,64.682 C94.438,64.682 96.881,64.156 98.922,63.007 L145.011,38.420 Z"/>
<path fill-rule="evenodd"  fill="rgb(127, 127, 127)"
 d="M145.011,37.154 C147.149,36.005 148.163,34.012 147.969,32.129 C148.177,30.136 147.149,28.252 145.011,27.103 L98.922,2.433 C96.881,1.284 94.438,0.758 91.994,0.758 C89.549,0.758 87.091,1.284 85.050,2.433 L38.962,27.006 C36.823,28.156 35.907,30.149 36.004,32.032 C35.907,34.025 36.823,36.005 38.962,37.154 L85.050,61.741 C87.091,62.890 89.536,63.416 91.994,63.416 C94.438,63.416 96.881,62.890 98.922,61.741 L145.011,37.154 Z"/>
<path fill-rule="evenodd"  stroke="rgb(109, 109, 109)" stroke-width="1px" stroke-linecap="butt" stroke-linejoin="miter" fill="none"
 d="M133.686,36.050 C135.366,35.133 136.163,33.543 136.011,32.040 C136.174,30.450 135.366,28.947 133.686,28.029 L97.458,8.343 C95.854,7.425 93.933,7.006 92.012,7.006 C90.091,7.006 88.159,7.425 86.554,8.343 L50.327,27.952 C48.647,28.869 47.926,30.460 48.002,31.963 C47.926,33.553 48.647,35.133 50.327,36.050 L86.554,55.671 C88.159,56.588 90.080,57.008 92.012,57.008 C93.933,57.008 95.854,56.588 97.458,55.671 L133.686,36.050 Z"/>
<path fill-rule="evenodd"  stroke="rgb(109, 109, 109)" stroke-width="1px" stroke-linecap="butt" stroke-linejoin="miter" fill="none"
 d="M94.457,12.250 L92.853,11.540 L89.108,13.196 L96.597,13.196 L97.934,14.142 L86.433,14.142 L84.025,15.325 L101.144,15.325 L103.284,16.743 L81.618,16.743 L79.746,17.926 L106.226,17.926 L108.901,19.345 L76.536,19.345 L74.129,20.764 L112.111,20.764 L114.251,22.183 L71.187,22.183 L69.314,23.366 L117.728,23.602 L119.868,24.785 L65.570,25.021 L63.430,26.204 L123.345,26.441 L125.217,27.623 L60.487,27.860 L58.347,29.279 L128.100,29.279 L130.241,30.698 L54.603,30.698 L53.634,31.880 L131.519,32.353 L130.776,33.773 L55.137,33.773 L57.010,34.955 L126.822,35.428 L124.682,36.848 L61.290,36.848 L63.162,38.030 L122.007,38.030 L120.403,39.449 L66.640,39.449 L68.244,40.632 L116.123,40.868 L114.251,42.287 L71.989,42.287 L73.861,43.470 L110.774,43.470 L108.901,44.889 L77.339,45.125 L79.211,46.308 L104.622,46.545 L102.749,47.964 L83.758,47.964 L85.630,49.383 L99.272,49.146 L97.667,50.566 L89.643,50.802 L92.853,52.458 L94.725,51.748 "/>
<path fill-rule="evenodd"  opacity="0.302" fill="rgb(0, 0, 0)"
 d="M148.094,90.767 C148.094,90.496 148.096,90.220 148.097,89.942 C148.193,69.474 148.180,30.644 147.969,32.129 C148.163,35.088 147.137,36.850 144.999,37.999 L103.999,59.999 C101.958,61.148 94.022,64.288 92.999,63.999 C92.989,63.996 93.969,65.686 93.939,66.928 C93.924,67.532 92.907,68.268 92.889,69.118 C92.875,69.781 93.859,70.513 93.842,71.306 C93.827,72.039 92.811,72.825 92.794,73.658 C92.778,74.421 93.762,75.223 93.746,76.060 C93.729,76.874 92.713,77.721 92.695,78.596 C92.677,79.536 93.658,80.509 93.639,81.509 C93.623,82.302 92.608,83.111 92.592,83.935 C92.574,84.813 93.558,85.707 93.540,86.615 C93.530,87.188 92.518,87.767 92.507,88.350 C92.490,89.270 93.472,90.201 93.454,91.140 C93.438,91.989 92.422,92.846 92.406,93.707 C92.389,94.588 93.373,95.474 93.356,96.362 C93.340,97.255 92.323,98.151 92.306,99.046 C92.290,99.895 93.275,100.744 93.259,101.590 C93.245,102.336 92.231,103.080 92.218,103.821 C92.204,104.600 93.189,105.375 93.175,106.145 C93.158,107.032 92.142,107.912 92.126,108.782 C92.110,109.662 93.094,110.532 93.078,111.389 C93.064,112.185 92.049,112.969 92.035,113.739 C92.019,114.589 93.005,115.422 92.989,116.236 C92.975,117.049 91.960,117.844 91.946,118.615 C91.928,119.597 92.952,119.097 93.000,119.999 C93.001,120.032 94.000,119.968 93.999,119.999 C93.987,120.671 137.893,97.882 145.999,93.000 C146.807,92.513 148.094,90.827 148.094,90.767 Z"/>
<path fill-rule="evenodd"  fill="rgb(255, 255, 255)"
 d="M185.558,21.061 C185.276,21.342 184.894,21.500 184.495,21.499 L178.499,21.499 L178.499,27.495 C178.499,28.325 177.833,28.999 176.999,28.999 C176.171,28.999 175.499,28.326 175.499,27.495 L175.499,21.499 L169.502,21.499 C168.672,21.499 167.999,20.833 167.999,19.999 C167.999,19.601 168.158,19.219 168.440,18.938 C168.722,18.656 169.105,18.498 169.502,18.499 L175.499,18.499 L175.499,12.503 C175.499,11.673 176.165,10.999 176.999,10.999 C177.397,11.000 177.779,11.158 178.060,11.440 C178.342,11.722 178.499,12.104 178.499,12.503 L178.499,18.499 L184.495,18.499 C185.325,18.499 185.999,19.165 185.999,19.999 C185.998,20.397 185.840,20.780 185.558,21.061 ZM168.440,39.938 C168.722,39.657 169.105,39.498 169.502,39.499 L175.499,39.499 L178.499,39.499 L184.495,39.499 C185.325,39.499 185.999,40.165 185.999,40.999 C185.998,41.397 185.840,41.780 185.558,42.060 C185.276,42.342 184.894,42.500 184.495,42.499 L178.499,42.499 L175.499,42.499 L169.502,42.499 C168.672,42.499 167.999,41.833 167.999,40.999 C167.999,40.601 168.158,40.219 168.440,39.938 Z"/>
</svg>
