<svg 
 xmlns="http://www.w3.org/2000/svg"
 xmlns:xlink="http://www.w3.org/1999/xlink"
 width="183.5px" height="147.5px">
<path fill-rule="evenodd"  fill="none"
 d="M90.000,139.000 L103.000,139.000 L103.000,147.000 L90.000,147.000 L90.000,139.000 Z"/>
<path fill-rule="evenodd"  fill="rgb(127, 127, 127)"
 d="M148.012,106.749 C150.150,105.600 151.164,103.606 150.970,101.724 C151.178,99.730 150.150,97.847 148.012,96.698 L101.923,72.028 C99.882,70.879 97.438,70.353 94.994,70.353 C92.549,70.353 90.091,70.879 88.051,72.028 L41.962,96.601 C39.823,97.751 38.907,99.744 39.004,101.627 C38.907,103.620 39.823,105.600 41.962,106.749 L88.051,131.336 C90.091,132.485 92.536,133.011 94.994,133.011 C97.438,133.011 99.882,132.485 101.923,131.336 L148.012,106.749 Z"/>
<path fill-rule="evenodd"  fill="rgb(98, 98, 98)"
 d="M148.012,103.420 C150.150,102.271 151.164,100.278 150.970,98.395 C151.178,96.401 150.150,94.518 148.012,93.369 L101.923,68.699 C99.882,67.550 97.438,67.024 94.994,67.024 C92.549,67.024 90.091,67.550 88.051,68.699 L41.962,93.273 C39.823,94.422 38.907,96.415 39.004,98.298 C38.907,100.291 39.823,102.271 41.962,103.420 L88.051,128.007 C90.091,129.156 92.536,129.682 94.994,129.682 C97.438,129.682 99.882,129.156 101.923,128.007 L148.012,103.420 Z"/>
<path fill-rule="evenodd"  fill="rgb(127, 127, 127)"
 d="M148.012,102.154 C150.150,101.005 151.164,99.012 150.970,97.129 C151.178,95.135 150.150,93.253 148.012,92.103 L101.923,67.433 C99.882,66.284 97.438,65.758 94.994,65.758 C92.549,65.758 90.091,66.284 88.051,67.433 L41.962,92.007 C39.823,93.156 38.907,95.149 39.004,97.032 C38.907,99.025 39.823,101.005 41.962,102.154 L88.051,126.741 C90.091,127.890 92.536,128.416 94.994,128.416 C97.438,128.416 99.882,127.890 101.923,126.741 L148.012,102.154 Z"/>
<path fill-rule="evenodd"  fill="rgb(98, 98, 98)"
 d="M148.012,98.420 C150.150,97.271 151.164,95.278 150.970,93.395 C151.178,91.402 150.150,89.518 148.012,88.369 L101.923,63.699 C99.882,62.550 97.438,62.024 94.994,62.024 C92.549,62.024 90.091,62.550 88.051,63.699 L41.962,88.272 C39.823,89.421 38.907,91.415 39.004,93.298 C38.907,95.291 39.823,97.271 41.962,98.420 L88.051,123.007 C90.091,124.156 92.536,124.682 94.994,124.682 C97.438,124.682 99.882,124.156 101.923,123.007 L148.012,98.420 Z"/>
<path fill-rule="evenodd"  fill="rgb(127, 127, 127)"
 d="M148.012,97.154 C150.150,96.005 151.164,94.012 150.970,92.129 C151.178,90.136 150.150,88.252 148.012,87.103 L101.923,62.433 C99.882,61.284 97.438,60.758 94.994,60.758 C92.549,60.758 90.091,61.284 88.051,62.433 L41.962,87.007 C39.823,88.155 38.907,90.149 39.004,92.032 C38.907,94.025 39.823,96.005 41.962,97.154 L88.051,121.741 C90.091,122.890 92.536,123.416 94.994,123.416 C97.438,123.416 99.882,122.890 101.923,121.741 L148.012,97.154 Z"/>
<path fill-rule="evenodd"  fill="rgb(98, 98, 98)"
 d="M148.012,93.420 C150.150,92.271 151.164,90.278 150.970,88.395 C151.178,86.402 150.150,84.518 148.012,83.369 L101.923,58.699 C99.882,57.550 97.438,57.024 94.994,57.024 C92.549,57.024 90.091,57.550 88.051,58.699 L41.962,83.273 C39.823,84.421 38.907,86.415 39.004,88.298 C38.907,90.291 39.823,92.271 41.962,93.420 L88.051,118.007 C90.091,119.156 92.536,119.682 94.994,119.682 C97.438,119.682 99.882,119.156 101.923,118.007 L148.012,93.420 Z"/>
<path fill-rule="evenodd"  fill="rgb(127, 127, 127)"
 d="M148.012,92.154 C150.150,91.006 151.164,89.012 150.970,87.129 C151.178,85.136 150.150,83.252 148.012,82.103 L101.923,57.433 C99.882,56.284 97.438,55.758 94.994,55.758 C92.549,55.758 90.091,56.284 88.051,57.433 L41.962,82.007 C39.823,83.156 38.907,85.149 39.004,87.032 C38.907,89.025 39.823,91.006 41.962,92.154 L88.051,116.741 C90.091,117.891 92.536,118.416 94.994,118.416 C97.438,118.416 99.882,117.891 101.923,116.741 L148.012,92.154 Z"/>
<path fill-rule="evenodd"  fill="rgb(98, 98, 98)"
 d="M148.012,88.420 C150.150,87.271 151.164,85.278 150.970,83.395 C151.178,81.402 150.150,79.518 148.012,78.369 L101.923,53.699 C99.882,52.550 97.438,52.024 94.994,52.024 C92.549,52.024 90.091,52.550 88.051,53.699 L41.962,78.272 C39.823,79.422 38.907,81.415 39.004,83.298 C38.907,85.291 39.823,87.271 41.962,88.420 L88.051,113.007 C90.091,114.156 92.536,114.682 94.994,114.682 C97.438,114.682 99.882,114.156 101.923,113.007 L148.012,88.420 Z"/>
<path fill-rule="evenodd"  fill="rgb(127, 127, 127)"
 d="M148.012,87.154 C150.150,86.005 151.164,84.012 150.970,82.129 C151.178,80.136 150.150,78.252 148.012,77.103 L101.923,52.433 C99.882,51.284 97.438,50.758 94.994,50.758 C92.549,50.758 90.091,51.284 88.051,52.433 L41.962,77.007 C39.823,78.156 38.907,80.149 39.004,82.032 C38.907,84.025 39.823,86.005 41.962,87.154 L88.051,111.741 C90.091,112.890 92.536,113.416 94.994,113.416 C97.438,113.416 99.882,112.890 101.923,111.741 L148.012,87.154 Z"/>
<path fill-rule="evenodd"  fill="rgb(98, 98, 98)"
 d="M148.012,83.420 C150.150,82.271 151.164,80.277 150.970,78.395 C151.178,76.402 150.150,74.518 148.012,73.369 L101.923,48.699 C99.882,47.549 97.438,47.024 94.994,47.024 C92.549,47.024 90.091,47.549 88.051,48.699 L41.962,73.272 C39.823,74.421 38.907,76.415 39.004,78.298 C38.907,80.291 39.823,82.271 41.962,83.420 L88.051,108.007 C90.091,109.156 92.536,109.682 94.994,109.682 C97.438,109.682 99.882,109.156 101.923,108.007 L148.012,83.420 Z"/>
<path fill-rule="evenodd"  fill="rgb(127, 127, 127)"
 d="M148.012,82.154 C150.150,81.005 151.164,79.011 150.970,77.129 C151.178,75.136 150.150,73.252 148.012,72.103 L101.923,47.433 C99.882,46.284 97.438,45.758 94.994,45.758 C92.549,45.758 90.091,46.284 88.051,47.433 L41.962,72.006 C39.823,73.156 38.907,75.149 39.004,77.032 C38.907,79.025 39.823,81.005 41.962,82.154 L88.051,106.741 C90.091,107.890 92.536,108.416 94.994,108.416 C97.438,108.416 99.882,107.890 101.923,106.741 L148.012,82.154 Z"/>
<path fill-rule="evenodd"  fill="rgb(98, 98, 98)"
 d="M148.012,78.420 C150.150,77.271 151.164,75.277 150.970,73.395 C151.178,71.402 150.150,69.518 148.012,68.369 L101.923,43.699 C99.882,42.550 97.438,42.024 94.994,42.024 C92.549,42.024 90.091,42.550 88.051,43.699 L41.962,68.272 C39.823,69.422 38.907,71.415 39.004,73.297 C38.907,75.291 39.823,77.271 41.962,78.420 L88.051,103.007 C90.091,104.156 92.536,104.682 94.994,104.682 C97.438,104.682 99.882,104.156 101.923,103.007 L148.012,78.420 Z"/>
<path fill-rule="evenodd"  fill="rgb(127, 127, 127)"
 d="M148.012,77.154 C150.150,76.005 151.164,74.011 150.970,72.129 C151.178,70.136 150.150,68.253 148.012,67.103 L101.923,42.433 C99.882,41.284 97.438,40.758 94.994,40.758 C92.549,40.758 90.091,41.284 88.051,42.433 L41.962,67.006 C39.823,68.156 38.907,70.149 39.004,72.032 C38.907,74.025 39.823,76.005 41.962,77.154 L88.051,101.741 C90.091,102.891 92.536,103.416 94.994,103.416 C97.438,103.416 99.882,102.891 101.923,101.741 L148.012,77.154 Z"/>
<path fill-rule="evenodd"  fill="rgb(98, 98, 98)"
 d="M148.012,73.420 C150.150,72.271 151.164,70.278 150.970,68.395 C151.178,66.401 150.150,64.518 148.012,63.369 L101.923,38.699 C99.882,37.550 97.438,37.024 94.994,37.024 C92.549,37.024 90.091,37.550 88.051,38.699 L41.962,63.272 C39.823,64.421 38.907,66.415 39.004,68.298 C38.907,70.291 39.823,72.271 41.962,73.420 L88.051,98.007 C90.091,99.156 92.536,99.682 94.994,99.682 C97.438,99.682 99.882,99.156 101.923,98.007 L148.012,73.420 Z"/>
<path fill-rule="evenodd"  fill="rgb(127, 127, 127)"
 d="M148.012,72.154 C150.150,71.005 151.164,69.012 150.970,67.129 C151.178,65.135 150.150,63.252 148.012,62.103 L101.923,37.433 C99.882,36.284 97.438,35.758 94.994,35.758 C92.549,35.758 90.091,36.284 88.051,37.433 L41.962,62.006 C39.823,63.156 38.907,65.149 39.004,67.032 C38.907,69.025 39.823,71.005 41.962,72.154 L88.051,96.741 C90.091,97.890 92.536,98.416 94.994,98.416 C97.438,98.416 99.882,97.890 101.923,96.741 L148.012,72.154 Z"/>
<path fill-rule="evenodd"  fill="rgb(98, 98, 98)"
 d="M148.012,68.420 C150.150,67.271 151.164,65.278 150.970,63.395 C151.178,61.401 150.150,59.518 148.012,58.369 L101.923,33.699 C99.882,32.550 97.438,32.024 94.994,32.024 C92.549,32.024 90.091,32.550 88.051,33.699 L41.962,58.273 C39.823,59.421 38.907,61.415 39.004,63.298 C38.907,65.291 39.823,67.271 41.962,68.420 L88.051,93.007 C90.091,94.156 92.536,94.682 94.994,94.682 C97.438,94.682 99.882,94.156 101.923,93.007 L148.012,68.420 Z"/>
<path fill-rule="evenodd"  fill="rgb(127, 127, 127)"
 d="M148.012,67.154 C150.150,66.005 151.164,64.012 150.970,62.129 C151.178,60.135 150.150,58.252 148.012,57.103 L101.923,32.433 C99.882,31.284 97.438,30.758 94.994,30.758 C92.549,30.758 90.091,31.284 88.051,32.433 L41.962,57.007 C39.823,58.155 38.907,60.149 39.004,62.032 C38.907,64.025 39.823,66.005 41.962,67.154 L88.051,91.741 C90.091,92.890 92.536,93.416 94.994,93.416 C97.438,93.416 99.882,92.890 101.923,91.741 L148.012,67.154 Z"/>
<path fill-rule="evenodd"  fill="rgb(98, 98, 98)"
 d="M148.012,63.420 C150.150,62.271 151.164,60.278 150.970,58.395 C151.178,56.402 150.150,54.518 148.012,53.369 L101.923,28.699 C99.882,27.550 97.438,27.024 94.994,27.024 C92.549,27.024 90.091,27.550 88.051,28.699 L41.962,53.272 C39.823,54.421 38.907,56.415 39.004,58.298 C38.907,60.291 39.823,62.271 41.962,63.420 L88.051,88.007 C90.091,89.156 92.536,89.682 94.994,89.682 C97.438,89.682 99.882,89.156 101.923,88.007 L148.012,63.420 Z"/>
<path fill-rule="evenodd"  fill="rgb(127, 127, 127)"
 d="M148.012,62.154 C150.150,61.005 151.164,59.012 150.970,57.129 C151.178,55.136 150.150,53.252 148.012,52.103 L101.923,27.433 C99.882,26.284 97.438,25.758 94.994,25.758 C92.549,25.758 90.091,26.284 88.051,27.433 L41.962,52.007 C39.823,53.156 38.907,55.149 39.004,57.032 C38.907,59.025 39.823,61.005 41.962,62.154 L88.051,86.741 C90.091,87.890 92.536,88.416 94.994,88.416 C97.438,88.416 99.882,87.890 101.923,86.741 L148.012,62.154 Z"/>
<path fill-rule="evenodd"  fill="rgb(98, 98, 98)"
 d="M148.012,58.420 C150.150,57.271 151.164,55.278 150.970,53.395 C151.178,51.402 150.150,49.518 148.012,48.369 L101.923,23.699 C99.882,22.550 97.438,22.024 94.994,22.024 C92.549,22.024 90.091,22.550 88.051,23.699 L41.962,48.272 C39.823,49.421 38.907,51.415 39.004,53.298 C38.907,55.291 39.823,57.271 41.962,58.420 L88.051,83.007 C90.091,84.156 92.536,84.682 94.994,84.682 C97.438,84.682 99.882,84.156 101.923,83.007 L148.012,58.420 Z"/>
<path fill-rule="evenodd"  fill="rgb(127, 127, 127)"
 d="M148.012,57.154 C150.150,56.005 151.164,54.012 150.970,52.129 C151.178,50.136 150.150,48.252 148.012,47.103 L101.923,22.433 C99.882,21.284 97.438,20.758 94.994,20.758 C92.549,20.758 90.091,21.284 88.051,22.433 L41.962,47.007 C39.823,48.156 38.907,50.149 39.004,52.032 C38.907,54.025 39.823,56.005 41.962,57.154 L88.051,81.741 C90.091,82.890 92.536,83.416 94.994,83.416 C97.438,83.416 99.882,82.890 101.923,81.741 L148.012,57.154 Z"/>
<path fill-rule="evenodd"  fill="rgb(98, 98, 98)"
 d="M148.012,53.420 C150.150,52.271 151.164,50.278 150.970,48.395 C151.178,46.402 150.150,44.518 148.012,43.369 L101.923,18.699 C99.882,17.550 97.438,17.024 94.994,17.024 C92.549,17.024 90.091,17.550 88.051,18.699 L41.962,43.273 C39.823,44.422 38.907,46.415 39.004,48.298 C38.907,50.291 39.823,52.271 41.962,53.420 L88.051,78.007 C90.091,79.156 92.536,79.682 94.994,79.682 C97.438,79.682 99.882,79.156 101.923,78.007 L148.012,53.420 Z"/>
<path fill-rule="evenodd"  fill="rgb(127, 127, 127)"
 d="M148.012,52.154 C150.150,51.005 151.164,49.012 150.970,47.129 C151.178,45.136 150.150,43.253 148.012,42.103 L101.923,17.433 C99.882,16.284 97.438,15.758 94.994,15.758 C92.549,15.758 90.091,16.284 88.051,17.433 L41.962,42.007 C39.823,43.156 38.907,45.149 39.004,47.032 C38.907,49.025 39.823,51.005 41.962,52.154 L88.051,76.741 C90.091,77.890 92.536,78.416 94.994,78.416 C97.438,78.416 99.882,77.890 101.923,76.741 L148.012,52.154 Z"/>
<path fill-rule="evenodd"  fill="rgb(98, 98, 98)"
 d="M148.012,48.420 C150.150,47.271 151.164,45.277 150.970,43.395 C151.178,41.402 150.150,39.518 148.012,38.369 L101.923,13.699 C99.882,12.550 97.438,12.024 94.994,12.024 C92.549,12.024 90.091,12.550 88.051,13.699 L41.962,38.272 C39.823,39.422 38.907,41.415 39.004,43.297 C38.907,45.291 39.823,47.271 41.962,48.420 L88.051,73.007 C90.091,74.156 92.536,74.682 94.994,74.682 C97.438,74.682 99.882,74.156 101.923,73.007 L148.012,48.420 Z"/>
<path fill-rule="evenodd"  fill="rgb(127, 127, 127)"
 d="M148.012,47.154 C150.150,46.005 151.164,44.012 150.970,42.129 C151.178,40.136 150.150,38.252 148.012,37.103 L101.923,12.433 C99.882,11.284 97.438,10.758 94.994,10.758 C92.549,10.758 90.091,11.284 88.051,12.433 L41.962,37.006 C39.823,38.156 38.907,40.149 39.004,42.032 C38.907,44.025 39.823,46.005 41.962,47.154 L88.051,71.741 C90.091,72.890 92.536,73.416 94.994,73.416 C97.438,73.416 99.882,72.890 101.923,71.741 L148.012,47.154 Z"/>
<path fill-rule="evenodd"  fill="rgb(98, 98, 98)"
 d="M148.012,43.420 C150.150,42.271 151.164,40.278 150.970,38.395 C151.178,36.401 150.150,34.518 148.012,33.369 L101.923,8.699 C99.882,7.550 97.438,7.024 94.994,7.024 C92.549,7.024 90.091,7.550 88.051,8.699 L41.962,33.272 C39.823,34.421 38.907,36.415 39.004,38.297 C38.907,40.291 39.823,42.271 41.962,43.420 L88.051,68.007 C90.091,69.156 92.536,69.682 94.994,69.682 C97.438,69.682 99.882,69.156 101.923,68.007 L148.012,43.420 Z"/>
<path fill-rule="evenodd"  fill="rgb(127, 127, 127)"
 d="M148.012,42.154 C150.150,41.005 151.164,39.012 150.970,37.129 C151.178,35.136 150.150,33.252 148.012,32.103 L101.923,7.433 C99.882,6.284 97.438,5.758 94.994,5.758 C92.549,5.758 90.091,6.284 88.051,7.433 L41.962,32.007 C39.823,33.156 38.907,35.149 39.004,37.032 C38.907,39.025 39.823,41.005 41.962,42.154 L88.051,66.741 C90.091,67.890 92.536,68.416 94.994,68.416 C97.438,68.416 99.882,67.890 101.923,66.741 L148.012,42.154 Z"/>
<path fill-rule="evenodd"  fill="rgb(108, 108, 108)"
 d="M148.012,38.420 C150.150,37.271 151.164,35.278 150.970,33.395 C151.178,31.401 150.150,29.518 148.012,28.369 L101.923,3.699 C99.882,2.550 97.438,2.024 94.994,2.024 C92.549,2.024 90.091,2.550 88.051,3.699 L41.962,28.273 C39.823,29.421 38.907,31.415 39.004,33.298 C38.907,35.291 39.823,37.271 41.962,38.420 L88.051,63.007 C90.091,64.156 92.536,64.682 94.994,64.682 C97.438,64.682 99.882,64.156 101.923,63.007 L148.012,38.420 Z"/>
<path fill-rule="evenodd"  fill="rgb(127, 127, 127)"
 d="M148.012,37.154 C150.150,36.005 151.164,34.012 150.970,32.129 C151.178,30.136 150.150,28.252 148.012,27.103 L101.923,2.433 C99.882,1.284 97.438,0.758 94.994,0.758 C92.549,0.758 90.091,1.284 88.051,2.433 L41.962,27.007 C39.823,28.156 38.907,30.149 39.004,32.032 C38.907,34.025 39.823,36.005 41.962,37.154 L88.051,61.741 C90.091,62.890 92.536,63.416 94.994,63.416 C97.438,63.416 99.882,62.890 101.923,61.741 L148.012,37.154 Z"/>
<path fill-rule="evenodd"  stroke="rgb(109, 109, 109)" stroke-width="1px" stroke-linecap="butt" stroke-linejoin="miter" fill="none"
 d="M136.686,36.051 C138.366,35.133 139.164,33.542 139.011,32.040 C139.174,30.450 138.366,28.947 136.686,28.030 L100.459,8.343 C98.855,7.426 96.933,7.006 95.012,7.006 C93.091,7.006 91.159,7.426 89.555,8.343 L53.327,27.953 C51.647,28.869 50.927,30.460 51.003,31.963 C50.927,33.553 51.647,35.133 53.327,36.051 L89.555,55.671 C91.159,56.588 93.080,57.008 95.012,57.008 C96.933,57.008 98.855,56.588 100.459,55.671 L136.686,36.051 Z"/>
<path fill-rule="evenodd"  stroke="rgb(109, 109, 109)" stroke-width="1px" stroke-linecap="butt" stroke-linejoin="miter" fill="none"
 d="M97.458,12.250 L95.853,11.540 L92.108,13.196 L99.597,13.196 L100.935,14.142 L89.433,14.142 L87.026,15.324 L104.145,15.324 L106.284,16.743 L84.619,16.743 L82.746,17.926 L109.227,17.926 L111.901,19.345 L79.536,19.345 L77.129,20.764 L115.111,20.764 L117.251,22.183 L74.187,22.183 L72.315,23.366 L120.728,23.602 L122.868,24.785 L68.570,25.021 L66.430,26.204 L126.345,26.441 L128.218,27.623 L63.488,27.859 L61.348,29.279 L131.101,29.279 L133.241,30.698 L57.603,30.698 L56.634,31.880 L134.519,32.354 L133.776,33.773 L58.137,33.773 L60.010,34.955 L129.823,35.428 L127.683,36.847 L64.290,36.847 L66.163,38.030 L125.008,38.030 L123.403,39.449 L69.640,39.449 L71.245,40.632 L119.123,40.868 L117.251,42.287 L74.989,42.287 L76.862,43.470 L113.774,43.470 L111.901,44.889 L80.339,45.126 L82.211,46.308 L107.622,46.545 L105.749,47.964 L86.758,47.964 L88.631,49.383 L102.272,49.146 L100.667,50.566 L92.643,50.802 L95.853,52.458 L97.725,51.748 "/>
<path fill-rule="evenodd"  opacity="0.302" fill="rgb(0, 0, 0)"
 d="M94.994,133.416 C97.438,133.416 99.882,132.890 101.923,131.741 L148.012,107.154 C150.150,106.005 151.164,104.012 150.970,102.129 C151.178,100.136 151.252,30.145 150.970,32.129 C151.164,35.088 150.138,36.850 147.999,37.999 L106.999,59.999 C104.958,61.148 97.022,64.288 95.999,63.999 C95.990,63.996 96.969,65.686 96.939,66.928 C96.924,67.533 95.908,68.268 95.890,69.119 C95.875,69.781 96.859,70.513 96.842,71.307 C96.827,72.040 95.811,72.825 95.794,73.658 C95.779,74.421 96.762,75.223 96.746,76.060 C96.730,76.874 95.713,77.721 95.696,78.597 C95.678,79.536 96.659,80.509 96.639,81.509 C96.623,82.302 95.608,83.111 95.592,83.935 C95.575,84.813 96.558,85.707 96.541,86.615 C96.530,87.188 95.519,87.767 95.508,88.351 C95.490,89.270 96.473,90.201 96.455,91.139 C96.439,91.990 95.423,92.846 95.407,93.707 C95.390,94.588 96.373,95.474 96.357,96.362 C96.340,97.255 95.323,98.151 95.307,99.045 C95.291,99.895 96.275,100.744 96.259,101.590 C96.245,102.336 95.232,103.080 95.218,103.821 C95.204,104.600 96.189,105.375 96.175,106.145 C96.159,107.032 95.143,107.912 95.127,108.782 C95.110,109.662 96.094,110.532 96.078,111.389 C96.064,112.185 95.049,112.969 95.036,113.740 C95.020,114.589 96.005,115.422 95.990,116.236 C95.975,117.049 94.961,117.844 94.946,118.615 C94.928,119.632 95.910,120.610 95.893,121.542 C95.880,122.280 94.867,122.989 94.854,123.667 C94.839,124.491 95.825,125.267 95.812,125.990 C95.798,126.743 94.786,127.438 94.775,128.068 C94.758,129.014 95.744,129.812 95.732,130.439 C95.714,131.467 94.704,132.033 94.704,132.033 C94.704,132.033 94.886,133.416 94.994,133.416 Z"/>
<path fill-rule="evenodd"  fill="rgb(255, 255, 255)"
 d="M182.140,94.598 L163.854,94.598 C163.381,94.598 162.996,94.240 162.996,93.798 C162.996,93.356 163.381,92.998 163.854,92.998 L182.140,92.998 C182.613,92.998 182.997,93.356 182.997,93.798 C182.997,94.240 182.613,94.598 182.140,94.598 ZM166.997,95.398 C167.471,95.398 167.854,95.756 167.854,96.198 L167.854,112.065 C167.854,112.507 167.471,112.865 166.997,112.865 C166.524,112.865 166.139,112.507 166.139,112.065 L166.139,96.198 C166.139,95.756 166.524,95.398 166.997,95.398 ZM170.996,95.398 C171.470,95.398 171.854,95.756 171.854,96.198 L171.854,112.065 C171.854,112.507 171.470,112.865 170.996,112.865 C170.523,112.865 170.139,112.507 170.139,112.065 L170.139,96.198 C170.139,95.756 170.523,95.398 170.996,95.398 ZM174.997,95.398 C175.470,95.398 175.854,95.756 175.854,96.198 L175.854,112.065 C175.854,112.507 175.470,112.865 174.997,112.865 C174.524,112.865 174.139,112.507 174.139,112.065 L174.139,96.198 C174.139,95.756 174.524,95.398 174.997,95.398 ZM178.996,95.398 C179.470,95.398 179.854,95.756 179.854,96.198 L179.854,112.065 C179.854,112.507 179.470,112.865 178.996,112.865 C178.523,112.865 178.139,112.507 178.139,112.065 L178.139,96.198 C178.139,95.756 178.523,95.398 178.996,95.398 Z"/>
<path fill-rule="evenodd"  fill="rgb(255, 255, 255)"
 d="M21.999,93.058 C21.999,93.058 20.976,96.740 20.722,97.373 C20.468,98.006 19.085,102.273 18.981,102.679 C18.878,103.085 18.528,103.577 18.575,103.845 C18.623,104.112 19.545,105.493 19.794,105.944 C20.043,106.395 20.455,107.852 20.490,108.393 C20.526,108.935 20.781,112.999 20.781,112.999 L13.875,112.999 C13.875,112.999 14.193,108.272 14.223,107.460 C14.253,106.648 12.777,102.256 12.656,101.862 C12.535,101.469 11.216,97.802 11.089,97.431 C10.983,97.122 10.294,95.601 10.066,95.098 L10.335,97.140 C10.335,97.140 9.299,98.413 9.174,98.889 C9.049,99.364 7.955,107.169 7.955,107.169 L8.536,112.941 L1.456,112.941 C1.456,112.941 1.596,109.136 1.688,108.276 C1.780,107.417 3.255,103.437 3.255,103.437 C3.255,103.437 1.409,99.988 1.165,99.355 C0.921,98.722 -0.076,95.151 0.005,94.865 C0.086,94.580 1.456,93.000 1.456,93.000 L2.094,93.000 C2.094,93.000 2.447,93.333 2.442,93.583 C2.437,93.833 3.109,94.973 3.487,96.265 C3.790,97.301 4.996,101.105 4.996,101.105 C4.996,101.105 4.951,100.551 5.112,100.055 C5.272,99.559 5.368,98.700 5.112,98.306 C4.855,97.912 4.118,95.823 3.835,95.390 C3.551,94.958 2.817,94.227 2.790,93.991 C2.764,93.754 3.022,93.116 3.022,93.116 L6.621,93.058 L6.447,94.632 L6.737,94.924 L8.188,93.058 C8.188,93.058 8.780,92.995 9.000,93.000 C9.219,93.004 9.812,93.174 9.812,93.174 L9.820,93.230 L10.508,93.000 L13.526,93.058 C13.526,93.058 12.764,93.909 12.830,94.107 C12.896,94.305 13.642,94.807 13.642,94.807 L15.384,93.058 L16.718,93.058 L17.007,93.420 L17.142,93.749 C17.001,94.126 16.520,95.431 16.544,95.623 C16.572,95.849 15.325,97.956 15.325,97.956 L15.906,98.889 C15.906,98.889 16.701,96.750 16.718,96.323 C16.736,95.896 17.241,93.991 17.241,93.991 L17.142,93.749 C17.166,93.686 17.182,93.641 17.182,93.641 L17.007,93.420 L16.834,93.000 L21.999,93.058 Z"/>
<path fill-rule="evenodd"  fill="rgb(21, 129, 64)"
 d="M125.999,84.999 L150.999,70.999 L150.999,103.999 L125.999,119.000 L125.999,84.999 Z"/>
<path fill-rule="evenodd"  fill="rgb(65, 65, 67)"
 d="M63.999,83.999 L38.999,70.999 L38.999,105.999 L63.999,119.000 L63.999,83.999 Z"/>
<path fill-rule="evenodd"  fill="rgb(18, 155, 73)"
 d="M68.006,85.028 C68.006,85.028 66.836,90.628 66.545,91.546 C66.254,92.465 64.662,98.868 64.542,99.496 C64.423,100.124 64.019,100.754 64.074,101.235 C64.128,101.717 65.192,104.597 65.478,105.505 C65.764,106.412 66.238,109.115 66.278,110.051 C66.319,110.988 66.611,118.007 66.611,118.007 C66.611,118.007 64.069,119.009 61.999,117.999 C60.072,117.059 58.607,114.101 58.607,114.101 C58.607,114.101 58.980,106.207 59.014,104.837 C59.050,103.468 57.319,95.079 57.177,94.333 C57.035,93.586 55.480,86.495 55.330,85.779 C55.205,85.183 54.390,82.143 54.119,81.136 L54.438,84.812 C54.438,84.812 53.209,86.360 53.061,87.102 C52.912,87.843 52.999,99.000 52.999,99.000 C52.999,99.000 53.982,103.943 53.999,107.000 C54.017,110.042 52.301,110.922 52.301,110.922 C52.301,110.922 49.259,111.103 46.999,109.999 C45.014,109.030 43.776,106.761 43.776,106.761 C43.776,106.761 43.947,100.215 44.058,98.774 C44.171,97.333 45.961,91.313 45.961,91.313 C45.961,91.313 43.720,84.163 43.423,82.906 C43.125,81.647 41.907,74.776 42.006,74.330 C42.105,73.885 43.776,72.015 43.776,72.015 L44.553,72.429 C44.553,72.429 44.982,73.237 44.975,73.669 C44.969,74.101 45.784,76.515 46.241,79.000 C46.608,80.992 48.062,88.343 48.062,88.343 C48.062,88.343 48.010,87.357 48.202,86.597 C48.394,85.838 48.511,84.410 48.202,83.566 C47.893,82.722 47.005,78.634 46.662,77.703 C46.319,76.771 45.430,75.031 45.398,74.603 C45.366,74.175 45.679,73.232 45.679,73.232 L50.014,75.441 L49.805,78.051 L50.153,78.739 L51.886,76.438 C51.886,76.438 52.593,76.706 52.854,76.853 C53.115,77.000 53.818,77.668 53.818,77.668 L53.827,77.769 L54.644,77.807 L58.199,79.802 C58.199,79.802 57.304,80.782 57.381,81.163 C57.459,81.543 58.335,82.865 58.335,82.865 L60.370,80.959 L61.923,81.786 L62.258,82.581 L62.415,83.225 C62.251,83.780 61.694,85.703 61.721,86.045 C61.753,86.446 60.303,89.275 60.303,89.275 L60.979,91.217 C60.979,91.217 61.903,88.059 61.923,87.342 C61.944,86.626 62.530,83.696 62.530,83.696 L62.415,83.225 C62.443,83.131 62.462,83.065 62.462,83.065 L62.258,82.581 L62.058,81.759 L68.006,85.028 Z"/>
<path fill-rule="evenodd"  fill="rgb(23, 204, 95)"
 d="M64.007,85.028 C64.007,85.028 62.836,90.628 62.545,91.546 C62.253,92.465 60.661,98.868 60.543,99.496 C60.424,100.124 60.019,100.754 60.074,101.235 C60.129,101.717 61.192,104.597 61.478,105.505 C61.764,106.412 62.238,109.115 62.278,110.051 C62.319,110.988 62.611,118.007 62.611,118.007 L54.607,114.101 C54.607,114.101 54.979,106.207 55.015,104.837 C55.050,103.468 53.319,95.079 53.177,94.333 C53.035,93.586 51.481,86.495 51.330,85.779 C51.205,85.183 50.389,82.140 50.119,81.135 L50.437,84.812 C50.437,84.812 49.209,86.360 49.061,87.102 C48.912,87.843 47.610,100.628 47.610,100.628 L48.301,110.922 L39.776,106.761 C39.776,106.761 39.947,100.215 40.059,98.774 C40.171,97.333 41.960,91.313 41.960,91.313 C41.960,91.313 39.720,84.163 39.423,82.906 C39.125,81.647 37.907,74.776 38.006,74.330 C38.105,73.885 39.776,72.015 39.776,72.015 L40.553,72.429 C40.553,72.429 40.981,73.237 40.976,73.669 C40.970,74.101 41.783,76.515 42.241,79.000 C42.608,80.992 44.062,88.343 44.062,88.343 C44.062,88.343 44.009,87.357 44.202,86.597 C44.394,85.838 44.511,84.410 44.202,83.566 C43.893,82.722 43.005,78.634 42.662,77.703 C42.320,76.771 41.430,75.031 41.398,74.603 C41.366,74.175 41.679,73.232 41.679,73.232 L46.014,75.441 L45.805,78.051 L46.153,78.739 L47.886,76.438 C47.886,76.438 48.593,76.706 48.853,76.853 C49.114,77.000 49.819,77.668 49.819,77.668 L49.827,77.769 L50.644,77.807 L54.199,79.802 C54.199,79.802 53.303,80.782 53.382,81.163 C53.460,81.543 54.335,82.865 54.335,82.865 L56.370,80.959 L57.923,81.786 L58.258,82.579 L58.415,83.226 C58.251,83.781 57.694,85.703 57.721,86.045 C57.753,86.446 56.302,89.275 56.302,89.275 L56.978,91.217 C56.978,91.217 57.902,88.059 57.923,87.342 C57.944,86.626 58.529,83.696 58.529,83.696 L58.415,83.226 C58.443,83.131 58.462,83.065 58.462,83.065 L58.258,82.579 L58.058,81.759 L64.007,85.028 Z"/>
<path fill-rule="evenodd"  fill="rgb(23, 204, 95)"
 d="M125.999,86.101 L125.999,88.032 C125.999,88.032 126.979,87.874 126.958,88.032 C126.937,88.189 127.430,116.451 127.437,116.989 C127.444,117.527 127.680,118.147 128.396,117.954 C129.111,117.761 131.592,116.306 131.752,116.024 C131.910,115.741 132.236,84.820 132.230,84.653 C132.225,84.486 133.677,83.828 133.668,84.170 C133.660,84.513 133.623,112.581 133.668,113.128 C133.714,113.674 134.545,114.313 135.106,114.093 C135.668,113.874 138.453,112.023 138.462,111.680 C138.471,111.337 138.317,80.906 138.462,80.792 C138.606,80.679 139.883,80.011 139.900,80.310 C139.917,80.608 139.889,109.218 139.900,109.750 C139.910,110.280 140.359,110.897 140.858,110.715 C141.358,110.533 144.614,108.696 144.693,108.302 C144.772,107.908 144.701,77.567 144.693,77.414 C144.686,77.260 146.104,76.486 146.131,76.931 C146.158,77.376 146.573,105.925 146.610,106.371 C146.648,106.817 147.026,107.030 147.569,106.854 C148.112,106.678 150.782,105.067 150.924,104.441 C151.067,103.814 150.963,72.997 150.924,72.588 C150.885,72.178 150.532,71.815 149.966,72.105 C149.400,72.395 149.461,72.650 149.486,74.035 C149.511,75.420 149.459,103.082 149.486,103.475 C149.514,103.869 148.077,104.812 148.049,104.441 C148.019,104.069 148.063,74.850 148.049,74.518 C148.034,74.186 147.344,73.674 145.652,74.518 C143.960,75.362 143.257,76.011 143.255,76.931 C143.254,77.851 143.316,106.477 143.255,106.854 C143.194,107.231 142.112,108.545 141.817,108.302 C141.522,108.058 141.827,78.983 141.817,78.379 C141.807,77.774 141.120,77.241 139.900,77.896 C138.681,78.552 136.871,79.607 136.545,79.827 C136.218,80.046 136.544,110.912 136.545,111.197 C136.545,111.483 135.599,112.209 135.586,111.680 C135.573,111.151 135.089,82.038 135.106,81.758 C135.124,81.476 134.767,80.913 133.189,81.758 C131.611,82.602 130.470,83.488 130.313,83.688 C130.157,83.887 130.334,114.938 130.313,115.058 C130.292,115.178 129.602,115.429 129.355,115.058 C129.108,114.688 128.855,85.948 128.875,85.618 C128.896,85.288 128.730,84.379 127.916,84.653 C127.103,84.927 125.999,86.101 125.999,86.101 Z"/>
</svg>
