<svg 
 xmlns="http://www.w3.org/2000/svg"
 xmlns:xlink="http://www.w3.org/1999/xlink"
 width="197.5px" height="147.5px">
<defs>
<filter id="Filter_0">
                <feOffset in="SourceAlpha" dx="0" dy="-4" />
                <feGaussianBlur result="blurOut" stdDeviation="1" />
                <feFlood flood-color="rgb(44, 44, 46)" result="floodOut" />
                <feComposite operator="out" in="floodOut" in2="blurOut" result="compOut" />
                <feComposite operator="in" in="compOut" in2="SourceAlpha" />
                <feComponentTransfer><feFuncA type="linear" slope="1"/></feComponentTransfer>
                <feBlend mode="normal" in2="SourceGraphic" />
            </filter>

</defs>
<path fill-rule="evenodd"  fill="none"
 d="M-0.000,-0.000 L22.999,-0.000 L22.999,11.000 L-0.000,11.000 L-0.000,-0.000 Z"/>
<path fill-rule="evenodd"  fill="none"
 d="M88.000,139.999 L115.000,139.999 L115.000,147.000 L88.000,147.000 L88.000,139.999 Z"/>
<path fill-rule="evenodd"  fill="rgb(40, 40, 42)"
 d="M98.000,121.000 C106.284,121.000 112.999,124.134 112.999,128.000 C112.999,131.865 106.284,135.000 98.000,135.000 C89.715,135.000 82.999,131.865 82.999,128.000 C82.999,124.134 89.715,121.000 98.000,121.000 Z"/>
<path fill-rule="evenodd"  fill="rgb(40, 40, 42)"
 d="M11.999,76.000 C18.074,76.000 22.999,79.134 22.999,83.000 C22.999,86.866 18.074,90.000 11.999,90.000 C5.924,90.000 0.999,86.866 0.999,83.000 C0.999,79.134 5.924,76.000 11.999,76.000 Z"/>
<path fill-rule="evenodd"  fill="rgb(40, 40, 42)"
 d="M184.000,76.000 C190.074,76.000 194.999,79.134 194.999,83.000 C194.999,86.866 190.074,90.000 184.000,90.000 C177.924,90.000 172.999,86.866 172.999,83.000 C172.999,79.134 177.924,76.000 184.000,76.000 Z"/>
<g filter="url(#Filter_0)">
<path fill-rule="evenodd"  fill="rgb(56, 56, 58)"
 d="M189.828,85.889 C193.532,83.871 195.288,80.372 194.952,77.066 C195.313,73.567 193.532,70.261 189.828,68.243 L109.994,24.932 C106.459,22.914 102.225,21.991 97.992,21.991 C93.757,21.991 89.499,22.914 85.965,24.932 L6.131,68.073 C2.427,70.091 0.839,73.590 1.007,76.896 C0.839,80.396 2.427,83.871 6.131,85.889 L85.965,129.053 C89.499,131.071 93.734,131.994 97.992,131.994 C102.225,131.994 106.459,131.071 109.994,129.053 L189.828,85.889 Z"/>
</g>
<path fill-rule="evenodd"  fill="rgb(23, 204, 95)"
 d="M151.011,81.155 C153.149,80.005 154.163,78.012 153.969,76.129 C154.177,74.136 153.149,72.253 151.011,71.104 L104.922,46.433 C102.881,45.284 100.437,44.758 97.993,44.758 C95.549,44.758 93.091,45.284 91.050,46.433 L44.962,71.007 C42.823,72.156 41.907,74.149 42.003,76.032 C41.907,78.026 42.823,80.005 44.962,81.155 L91.050,105.741 C93.091,106.891 95.535,107.417 97.993,107.417 C100.437,107.417 102.881,106.891 104.922,105.741 L151.011,81.155 Z"/>
<path fill-rule="evenodd"  opacity="0.302" fill="rgb(0, 0, 0)"
 d="M99.999,109.000 C99.999,109.000 98.000,107.720 98.000,105.999 C98.000,104.221 99.000,102.000 99.000,102.000 L154.000,71.000 L154.999,80.000 L99.999,109.000 Z"/>
<path fill-rule="evenodd"  fill="rgb(28, 227, 107)"
 d="M151.011,76.155 C153.149,75.006 154.163,73.012 153.969,71.130 C154.177,69.136 153.149,67.253 151.011,66.104 L104.922,41.434 C102.881,40.285 100.437,39.758 97.993,39.758 C95.549,39.758 93.091,40.285 91.050,41.434 L44.962,66.007 C42.823,67.156 41.907,69.149 42.003,71.032 C41.907,73.025 42.823,75.006 44.962,76.155 L91.050,100.742 C93.091,101.891 95.535,102.417 97.993,102.417 C100.437,102.417 102.881,101.891 104.922,100.742 L151.011,76.155 Z"/>
<path fill-rule="evenodd"  stroke="rgb(23, 204, 95)" stroke-width="1px" stroke-linecap="butt" stroke-linejoin="miter" fill="none"
 d="M139.686,75.051 C141.366,74.134 142.163,72.543 142.011,71.041 C142.174,69.450 141.366,67.947 139.686,67.030 L103.458,47.343 C101.854,46.426 99.932,46.006 98.012,46.006 C96.091,46.006 94.159,46.426 92.554,47.343 L56.327,66.953 C54.646,67.870 53.926,69.461 54.002,70.963 C53.926,72.554 54.646,74.134 56.327,75.051 L92.554,94.671 C94.159,95.588 96.080,96.008 98.012,96.008 C99.932,96.008 101.854,95.588 103.458,94.671 L139.686,75.051 Z"/>
<path fill-rule="evenodd"  fill="rgb(23, 204, 95)"
 d="M57.999,36.999 L98.999,57.999 L138.999,36.999 L137.999,71.999 L98.999,91.999 L57.999,70.999 L57.999,36.999 Z"/>
<path fill-rule="evenodd"  stroke="rgb(28, 227, 107)" stroke-width="1px" stroke-linecap="butt" stroke-linejoin="miter" fill="none"
 d="M100.457,51.250 L98.852,50.541 L95.108,52.196 L102.597,52.196 L103.934,53.142 L92.433,53.142 L90.025,54.325 L107.144,54.325 L109.284,55.744 L87.618,55.744 L85.745,56.926 L112.226,56.926 L114.901,58.345 L82.536,58.345 L80.129,59.765 L118.111,59.765 L120.251,61.184 L77.186,61.184 L75.314,62.367 L123.728,62.603 L125.867,63.785 L71.569,64.022 L69.429,65.205 L129.345,65.441 L131.217,66.624 L66.487,66.860 L64.347,68.279 L134.100,68.279 L136.241,69.699 L60.603,69.699 L59.634,70.881 L137.519,71.354 L136.776,72.773 L61.137,72.773 L63.010,73.956 L132.822,74.429 L130.682,75.848 L67.290,75.848 L69.162,77.031 L128.007,77.031 L126.402,78.449 L72.639,78.449 L74.244,79.632 L122.123,79.869 L120.251,81.288 L77.989,81.288 L79.861,82.471 L116.773,82.471 L114.901,83.890 L83.338,84.126 L85.210,85.309 L110.621,85.545 L108.749,86.964 L89.758,86.964 L91.630,88.383 L105.272,88.147 L103.667,89.566 L95.643,89.802 L98.852,91.458 L100.725,90.748 "/>
<path fill-rule="evenodd"  fill="rgb(16, 142, 66)"
 d="M58.999,36.999 L98.999,57.999 L138.999,36.999 L98.999,14.999 L58.999,36.999 Z"/>
<path fill-rule="evenodd"  stroke="rgb(28, 227, 107)" stroke-width="1px" stroke-linecap="butt" stroke-linejoin="miter" fill="none"
 d="M100.457,17.250 L98.852,16.540 L95.108,18.196 L102.597,18.196 L103.934,19.142 L92.433,19.142 L90.025,20.325 L107.144,20.325 L109.284,21.744 L87.618,21.744 L85.745,22.926 L112.226,22.926 L114.901,24.345 L82.536,24.345 L80.129,25.764 L118.111,25.764 L120.251,27.183 L77.186,27.183 L75.314,28.366 L123.728,28.602 L125.867,29.785 L71.569,30.022 L69.429,31.204 L129.345,31.441 L131.217,32.624 L66.487,32.859 L64.347,34.279 L134.100,34.279 L136.241,35.698 L60.603,35.698 L59.634,36.881 L137.519,37.354 L136.776,38.773 L61.137,38.773 L63.010,39.956 L132.822,40.429 L130.682,41.848 L67.290,41.848 L69.162,43.030 L128.007,43.030 L126.402,44.449 L72.639,44.449 L74.244,45.632 L122.123,45.869 L120.251,47.287 L77.989,47.287 L79.861,48.470 L116.773,48.470 L114.901,49.889 L83.338,50.126 L85.210,51.308 L110.621,51.545 L108.749,52.964 L89.758,52.964 L91.630,54.383 L105.272,54.147 L103.667,55.566 L95.643,55.802 L98.852,57.458 L100.725,56.748 "/>
<path fill-rule="evenodd"  stroke="rgb(127, 127, 127)" stroke-width="1px" stroke-dasharray="4, 2" stroke-linecap="butt" stroke-linejoin="miter" fill="none"
 d="M151.011,42.155 C153.149,41.005 154.163,39.012 153.969,37.129 C154.177,35.136 153.149,33.252 151.011,32.103 L104.922,7.433 C102.881,6.284 100.437,5.758 97.993,5.758 C95.549,5.758 93.091,6.284 91.050,7.433 L44.962,32.007 C42.823,33.156 41.907,35.149 42.003,37.032 C41.907,39.025 42.823,41.005 44.962,42.155 L91.050,66.741 C93.091,67.891 95.535,68.416 97.993,68.416 C100.437,68.416 102.881,67.891 104.922,66.741 L151.011,42.155 Z"/>
<path fill-rule="evenodd"  stroke="rgb(127, 127, 127)" stroke-width="1px" stroke-dasharray="4, 2" stroke-linecap="butt" stroke-linejoin="miter" fill="none"
 d="M42.999,41.999 L42.999,71.999 "/>
<path fill-rule="evenodd"  stroke="rgb(127, 127, 127)" stroke-width="1px" stroke-dasharray="4, 2" stroke-linecap="butt" stroke-linejoin="miter" fill="none"
 d="M153.999,41.999 L153.999,71.999 "/>
<path fill-rule="evenodd"  stroke="rgb(127, 127, 127)" stroke-width="1px" stroke-dasharray="4, 2" stroke-linecap="butt" stroke-linejoin="miter" fill="none"
 d="M98.999,69.999 L98.999,100.999 "/>
<path fill-rule="evenodd"  stroke="rgb(127, 127, 127)" stroke-width="1px" stroke-dasharray="4, 2" stroke-linecap="butt" stroke-linejoin="miter" fill="none"
 d="M98.999,7.999 L98.999,14.999 "/>
</svg>
