<svg 
 xmlns="http://www.w3.org/2000/svg"
 xmlns:xlink="http://www.w3.org/1999/xlink"
 width="198px" height="148px">
<defs>
<filter id="Filter_0">
                <feOffset in="SourceAlpha" dx="0" dy="-4" />
                <feGaussianBlur result="blurOut" stdDeviation="1" />
                <feFlood flood-color="rgb(44, 44, 46)" result="floodOut" />
                <feComposite operator="out" in="floodOut" in2="blurOut" result="compOut" />
                <feComposite operator="in" in="compOut" in2="SourceAlpha" />
                <feComponentTransfer><feFuncA type="linear" slope="1"/></feComponentTransfer>
                <feBlend mode="normal" in2="SourceGraphic" />
            </filter>

</defs>
<path fill-rule="evenodd"  fill="none"
 d="M0.999,-0.000 L26.000,-0.000 L26.000,10.000 L0.999,10.000 L0.999,-0.000 Z"/>
<path fill-rule="evenodd"  fill="none"
 d="M102.000,141.000 L122.000,141.000 L122.000,147.000 L102.000,147.000 L102.000,141.000 Z"/>
<path fill-rule="evenodd"  fill="rgb(40, 40, 42)"
 d="M98.000,121.000 C106.284,121.000 112.999,124.134 112.999,128.000 C112.999,131.866 106.284,134.999 98.000,134.999 C89.715,134.999 82.999,131.866 82.999,128.000 C82.999,124.134 89.715,121.000 98.000,121.000 Z"/>
<path fill-rule="evenodd"  fill="rgb(40, 40, 42)"
 d="M11.999,76.000 C18.074,76.000 22.999,79.133 22.999,83.000 C22.999,86.866 18.074,90.000 11.999,90.000 C5.924,90.000 0.999,86.866 0.999,83.000 C0.999,79.133 5.924,76.000 11.999,76.000 Z"/>
<path fill-rule="evenodd"  fill="rgb(40, 40, 42)"
 d="M184.000,76.000 C190.074,76.000 194.999,79.133 194.999,83.000 C194.999,86.866 190.074,90.000 184.000,90.000 C177.924,90.000 172.999,86.866 172.999,83.000 C172.999,79.133 177.924,76.000 184.000,76.000 Z"/>
<g filter="url(#Filter_0)">
<path fill-rule="evenodd"  fill="rgb(56, 56, 58)"
 d="M189.828,85.889 C193.532,83.872 195.288,80.371 194.952,77.066 C195.313,73.566 193.532,70.261 189.828,68.243 L109.994,24.932 C106.459,22.914 102.225,21.991 97.992,21.991 C93.757,21.991 89.499,22.914 85.965,24.932 L6.131,68.073 C2.427,70.091 0.839,73.590 1.007,76.896 C0.839,80.396 2.427,83.872 6.131,85.889 L85.965,129.054 C89.499,131.072 93.734,131.994 97.992,131.994 C102.225,131.994 106.459,131.072 109.994,129.054 L189.828,85.889 Z"/>
</g>
<path fill-rule="evenodd"  fill="rgb(109, 109, 109)"
 d="M151.011,81.155 C153.149,80.006 154.163,78.012 153.969,76.129 C154.177,74.136 153.149,72.253 151.011,71.104 L104.922,46.433 C102.881,45.284 100.437,44.758 97.993,44.758 C95.549,44.758 93.091,45.284 91.050,46.433 L44.962,71.007 C42.823,72.156 41.907,74.149 42.003,76.032 C41.907,78.026 42.823,80.006 44.962,81.155 L91.050,105.741 C93.091,106.891 95.535,107.417 97.993,107.417 C100.437,107.417 102.881,106.891 104.922,105.741 L151.011,81.155 Z"/>
<path fill-rule="evenodd"  opacity="0.302" fill="rgb(0, 0, 0)"
 d="M99.999,109.000 C99.999,109.000 98.000,107.720 98.000,106.000 C98.000,104.220 99.000,102.000 99.000,102.000 L154.000,70.999 L154.999,80.000 L99.999,109.000 Z"/>
<path fill-rule="evenodd"  fill="rgb(127, 127, 127)"
 d="M151.011,76.155 C153.149,75.006 154.163,73.012 153.969,71.129 C154.177,69.136 153.149,67.252 151.011,66.103 L104.922,41.433 C102.881,40.284 100.437,39.758 97.993,39.758 C95.549,39.758 93.091,40.284 91.050,41.433 L44.962,66.007 C42.823,67.156 41.907,69.149 42.003,71.032 C41.907,73.026 42.823,75.006 44.962,76.155 L91.050,100.741 C93.091,101.891 95.535,102.416 97.993,102.416 C100.437,102.416 102.881,101.891 104.922,100.741 L151.011,76.155 Z"/>
<path fill-rule="evenodd"  stroke="rgb(109, 109, 109)" stroke-width="1px" stroke-linecap="butt" stroke-linejoin="miter" fill="none"
 d="M139.686,75.051 C141.366,74.134 142.163,72.543 142.011,71.040 C142.174,69.450 141.366,67.947 139.686,67.030 L103.458,47.343 C101.854,46.426 99.932,46.006 98.012,46.006 C96.091,46.006 94.159,46.426 92.554,47.343 L56.327,66.953 C54.646,67.870 53.926,69.461 54.002,70.963 C53.926,72.554 54.646,74.134 56.327,75.051 L92.554,94.671 C94.159,95.588 96.080,96.008 98.012,96.008 C99.932,96.008 101.854,95.588 103.458,94.671 L139.686,75.051 Z"/>
<path fill-rule="evenodd"  fill="rgb(109, 109, 109)"
 d="M57.999,36.999 L98.999,57.999 L138.999,36.999 L137.999,71.999 L98.999,91.999 L57.999,70.999 L57.999,36.999 Z"/>
<path fill-rule="evenodd"  fill="rgb(66, 66, 66)"
 d="M58.999,36.999 L98.999,57.999 L138.999,36.999 L98.999,15.000 L58.999,36.999 Z"/>
<path fill-rule="evenodd"  stroke="rgb(109, 109, 109)" stroke-width="1px" stroke-linecap="butt" stroke-linejoin="miter" fill="none"
 d="M100.457,17.250 L98.852,16.540 L95.108,18.196 L102.597,18.196 L103.934,19.142 L92.433,19.142 L90.025,20.324 L107.144,20.324 L109.284,21.743 L87.618,21.743 L85.745,22.926 L112.226,22.926 L114.901,24.345 L82.536,24.345 L80.129,25.764 L118.111,25.764 L120.251,27.183 L77.186,27.183 L75.314,28.366 L123.728,28.602 L125.867,29.785 L71.569,30.022 L69.429,31.205 L129.345,31.441 L131.217,32.624 L66.487,32.860 L64.347,34.279 L134.100,34.279 L136.241,35.698 L60.603,35.698 L59.634,36.881 L137.519,37.354 L136.776,38.773 L61.137,38.773 L63.010,39.956 L132.822,40.429 L130.682,41.848 L67.290,41.848 L69.162,43.030 L128.007,43.030 L126.402,44.449 L72.639,44.449 L74.244,45.632 L122.123,45.869 L120.251,47.288 L77.989,47.288 L79.861,48.470 L116.773,48.470 L114.901,49.889 L83.338,50.126 L85.210,51.309 L110.621,51.545 L108.749,52.964 L89.758,52.964 L91.630,54.383 L105.272,54.147 L103.667,55.566 L95.643,55.802 L98.852,57.458 L100.725,56.748 "/>
<path fill-rule="evenodd"  stroke="rgb(127, 127, 127)" stroke-width="1px" stroke-dasharray="4, 2" stroke-linecap="butt" stroke-linejoin="miter" fill="none"
 d="M151.011,42.155 C153.149,41.006 154.163,39.012 153.969,37.129 C154.177,35.136 153.149,33.252 151.011,32.103 L104.922,7.434 C102.881,6.284 100.437,5.758 97.993,5.758 C95.549,5.758 93.091,6.284 91.050,7.434 L44.962,32.007 C42.823,33.156 41.907,35.149 42.003,37.032 C41.907,39.025 42.823,41.006 44.962,42.155 L91.050,66.741 C93.091,67.891 95.535,68.416 97.993,68.416 C100.437,68.416 102.881,67.891 104.922,66.741 L151.011,42.155 Z"/>
<path fill-rule="evenodd"  stroke="rgb(127, 127, 127)" stroke-width="1px" stroke-dasharray="4, 2" stroke-linecap="butt" stroke-linejoin="miter" fill="none"
 d="M42.999,41.999 L42.999,71.999 "/>
<path fill-rule="evenodd"  stroke="rgb(127, 127, 127)" stroke-width="1px" stroke-dasharray="4, 2" stroke-linecap="butt" stroke-linejoin="miter" fill="none"
 d="M153.999,41.999 L153.999,71.999 "/>
<path fill-rule="evenodd"  stroke="rgb(127, 127, 127)" stroke-width="1px" stroke-dasharray="4, 2" stroke-linecap="butt" stroke-linejoin="miter" fill="none"
 d="M98.999,69.999 L98.999,100.999 "/>
<path fill-rule="evenodd"  stroke="rgb(127, 127, 127)" stroke-width="1px" stroke-dasharray="4, 2" stroke-linecap="butt" stroke-linejoin="miter" fill="none"
 d="M98.999,7.999 L98.999,14.999 "/>
<path fill-rule="evenodd"  stroke="rgb(28, 227, 107)" stroke-width="2px" stroke-linecap="butt" stroke-linejoin="miter" fill="none"
 d="M98.000,25.000 C110.150,25.000 119.999,30.148 119.999,36.500 C119.999,42.851 110.150,48.000 98.000,48.000 C85.849,48.000 76.000,42.851 76.000,36.500 C76.000,30.148 85.849,25.000 98.000,25.000 Z"/>
<path fill-rule="evenodd"  stroke="rgb(28, 227, 107)" stroke-width="2px" stroke-linecap="butt" stroke-linejoin="miter" fill="none"
 d="M98.000,27.000 C108.493,27.000 116.999,31.253 116.999,36.500 C116.999,41.746 108.493,46.000 98.000,46.000 C87.506,46.000 78.999,41.746 78.999,36.500 C78.999,31.253 87.506,27.000 98.000,27.000 Z"/>
<path fill-rule="evenodd"  stroke="rgb(28, 227, 107)" stroke-width="2px" stroke-linecap="butt" stroke-linejoin="miter" fill="none"
 d="M98.000,29.000 C106.836,29.000 113.999,32.358 113.999,36.500 C113.999,40.642 106.836,44.000 98.000,44.000 C89.163,44.000 82.000,40.642 82.000,36.500 C82.000,32.358 89.163,29.000 98.000,29.000 Z"/>
<path fill-rule="evenodd"  stroke="rgb(28, 227, 107)" stroke-width="2px" stroke-linecap="butt" stroke-linejoin="miter" fill="none"
 d="M98.000,31.000 C105.731,31.000 112.000,33.462 112.000,36.500 C112.000,39.537 105.731,42.000 98.000,42.000 C90.267,42.000 84.000,39.537 84.000,36.500 C84.000,33.462 90.267,31.000 98.000,31.000 Z"/>
<path fill-rule="evenodd"  stroke="rgb(28, 227, 107)" stroke-width="2px" stroke-linecap="butt" stroke-linejoin="miter" fill="none"
 d="M98.000,33.000 C104.074,33.000 108.999,34.567 108.999,36.500 C108.999,38.433 104.074,40.000 98.000,40.000 C91.924,40.000 87.000,38.433 87.000,36.500 C87.000,34.567 91.924,33.000 98.000,33.000 Z"/>
<path fill-rule="evenodd"  stroke="rgb(28, 227, 107)" stroke-width="2px" stroke-linecap="butt" stroke-linejoin="miter" fill="none"
 d="M98.000,35.000 C101.865,35.000 104.999,35.671 104.999,36.500 C104.999,37.328 101.865,38.000 98.000,38.000 C94.134,38.000 91.000,37.328 91.000,36.500 C91.000,35.671 94.134,35.000 98.000,35.000 Z"/>
</svg>
