<svg 
 xmlns="http://www.w3.org/2000/svg"
 xmlns:xlink="http://www.w3.org/1999/xlink"
 width="10px" height="10px">
<path fill-rule="evenodd"  fill="rgb(51, 51, 51)"
 d="M6.451,4.999 L9.673,1.770 C10.076,1.364 10.076,0.708 9.673,0.303 C9.268,-0.102 8.613,-0.102 8.208,0.303 L4.986,3.531 L1.765,0.303 C1.360,-0.102 0.706,-0.102 0.301,0.303 C-0.104,0.708 -0.104,1.364 0.301,1.770 L3.522,4.999 L0.301,8.228 C-0.104,8.633 -0.104,9.290 0.301,9.695 C0.495,9.890 0.759,9.999 1.033,9.999 C1.308,9.999 1.571,9.890 1.765,9.695 L4.986,6.466 L8.208,9.695 C8.402,9.890 8.666,9.999 8.940,9.999 C9.215,9.999 9.478,9.890 9.672,9.695 C10.076,9.290 10.076,8.633 9.672,8.228 L6.451,4.999 Z"/>
</svg>
